<svg id="Annotations" xmlns="http://www.w3.org/2000/svg" width="18in" height="18in" viewBox="0 0 1296 1296"><defs><style>.cls-1{fill:#fff;stroke:#000;stroke-miterlimit:10;stroke-width:2px;}</style></defs><g id="Gages"><g id="Cameras"><ellipse class="cls-1" cx="649.07" cy="395.72" rx="3.94" ry="3.9" transform="translate(-56.98 677.47) rotate(-53.12)"/><ellipse class="cls-1" cx="472.82" cy="226.6" rx="4.5" ry="4.03" transform="translate(237.47 695.12) rotate(-88.93)"/><ellipse class="cls-1" cx="627.51" cy="417.05" rx="4.46" ry="3.87" transform="translate(154.52 1003.54) rotate(-84.72)"/><ellipse class="cls-1" cx="610.11" cy="762.85" rx="3.92" ry="4.4" transform="translate(-53.69 46.23) rotate(-4.16)"/><ellipse class="cls-1" cx="540.06" cy="580.93" rx="4.27" ry="3.82" transform="translate(-53.27 1107.33) rotate(-88.67)"/><ellipse class="cls-1" cx="568.88" cy="777.26" rx="3.8" ry="4.04" transform="translate(-195.71 191.46) rotate(-16.34)"/><ellipse class="cls-1" cx="421.36" cy="868.33" rx="3.83" ry="3.78" transform="translate(-465.26 1249.71) rotate(-87.39)"/><ellipse class="cls-1" cx="526.53" cy="845.84" rx="3.96" ry="4.28" transform="translate(-45.17 29.85) rotate(-3.11)"/><ellipse class="cls-1" cx="527.1" cy="843.44" rx="3.76" ry="3.92" transform="translate(-156.4 120.9) rotate(-11.41)"/></g></g></svg>