<svg id="Gages" xmlns="http://www.w3.org/2000/svg" viewBox="0 0 936 1440"><defs><style>.cls-1{fill:#fff;}</style></defs><g id="Cameras"><circle class="cls-1" cx="428.99" cy="277.33" r="4.55" transform="matrix(0.97, -0.22, 0.22, 0.97, -51.15, 102.96)"/><path d="M433.23,276.36a2.28,2.28,0,0,0-.93-1.39,2.8,2.8,0,0,0-1.54-.45,12.8,12.8,0,0,1-2.4,0,6.41,6.41,0,0,0-1.39,0,2.14,2.14,0,0,0-1.31.71,2.17,2.17,0,0,0-.51,1.42,2.63,2.63,0,0,0,.47,1.44,4.41,4.41,0,0,0,1.92,1.53,4.19,4.19,0,0,0,2,.08,4.94,4.94,0,0,0,.95-.21,9.15,9.15,0,0,0,1.22-.43,3.07,3.07,0,0,0,1.25-1.06A2.17,2.17,0,0,0,433.23,276.36Zm.39-.09a17.26,17.26,0,0,1,.36,1.92,6.72,6.72,0,0,1-.06,2.27,4.22,4.22,0,0,1-1.21,2.17,5.35,5.35,0,0,1-2.3,1.23,5.67,5.67,0,0,1-4.91-1.07,4.92,4.92,0,0,1-1.58-1.94,5.07,5.07,0,0,1-.44-2.3,9.77,9.77,0,0,1,1.09-4,9.12,9.12,0,0,1,1.17-1.84,4.89,4.89,0,0,1,1.88-1.41,4.15,4.15,0,0,1,2.42-.2,3.85,3.85,0,0,1,2.08,1.29,5.83,5.83,0,0,1,1,2C433.34,275.06,433.47,275.67,433.62,276.27Z"/><circle class="cls-1" cx="617.52" cy="463.07" r="5.2" transform="matrix(1, -0.07, 0.07, 1, -32, 46.07)"/><path d="M622.51,462.7a2.75,2.75,0,0,0-.79-1.75,3.36,3.36,0,0,0-1.62-.87c-1.13-.24-1.86-.32-2.84-.54a6.24,6.24,0,0,0-1.6-.14,2.72,2.72,0,0,0-1.61.67,2.85,2.85,0,0,0-.84,1.56,3.09,3.09,0,0,0,.22,1.73,5.1,5.1,0,0,0,1.91,2.23,4.61,4.61,0,0,0,2.4.53A6.1,6.1,0,0,0,619,466a8.13,8.13,0,0,0,1.46-.36,3.42,3.42,0,0,0,1.49-1.07A2.89,2.89,0,0,0,622.51,462.7Zm.4,0a19.66,19.66,0,0,1,.07,2.2,6.85,6.85,0,0,1-.5,2.48,4.74,4.74,0,0,1-1.76,2.11,6.09,6.09,0,0,1-2.67.92,6.38,6.38,0,0,1-5.19-1.93,5.57,5.57,0,0,1-1.62-4.93,10,10,0,0,1,1.84-4.29,9.65,9.65,0,0,1,1.61-1.81,5.35,5.35,0,0,1,2.33-1.2,4.6,4.6,0,0,1,2.69.21,4.35,4.35,0,0,1,2.06,1.72,6.34,6.34,0,0,1,.86,2.35C622.77,461.27,622.84,462,622.91,462.67Z"/><circle class="cls-1" cx="593.09" cy="486.11" r="4.55" transform="translate(-118.2 199.52) rotate(-17.39)"/><path d="M597.39,485.49a2.29,2.29,0,0,0-.81-1.47,2.74,2.74,0,0,0-1.5-.57,13.45,13.45,0,0,1-2.4-.2,6.1,6.1,0,0,0-1.39-.12,2.13,2.13,0,0,0-1.37.61,2.21,2.21,0,0,0-.61,1.38,2.71,2.71,0,0,0,.36,1.48,4.41,4.41,0,0,0,1.8,1.67,4.33,4.33,0,0,0,2,.23,6.21,6.21,0,0,0,1-.15,6.66,6.66,0,0,0,1.23-.29,2.61,2.61,0,0,0,1.29-.94A2.35,2.35,0,0,0,597.39,485.49Zm.4-.06c.09.61.2,1.24.25,1.94a6,6,0,0,1-.21,2.29,4.18,4.18,0,0,1-1.45,2.06,5.54,5.54,0,0,1-2.34,1,5.76,5.76,0,0,1-4.84-1.42,4.92,4.92,0,0,1-1.7-4.39,9.75,9.75,0,0,1,1.39-4,9.33,9.33,0,0,1,1.31-1.74,4.89,4.89,0,0,1,2-1.27,4.11,4.11,0,0,1,2.43,0,3.82,3.82,0,0,1,2,1.46,5.79,5.79,0,0,1,.85,2.11C597.6,484.2,597.69,484.82,597.79,485.43Z"/><path class="cls-1" d="M502,660.49a5.2,5.2,0,1,0-4.73,5.63C500.2,665.54,502.27,663.08,502,660.49Z"/><path d="M501.84,660.5a2.9,2.9,0,0,0-.49-1.37,2.94,2.94,0,0,0-1.11-.91,8.64,8.64,0,0,0-2.33-.56c-.66-.09-1.31-.26-2.13-.37a3,3,0,0,0-2.43.7,2.81,2.81,0,0,0-.8,2.47,4.23,4.23,0,0,0,1.13,2.15,7.07,7.07,0,0,0,.77.7,3.82,3.82,0,0,0,.85.44,6.27,6.27,0,0,0,1.83.25l-.24,0a9.54,9.54,0,0,0,1.35-.28,13.15,13.15,0,0,0,1.52-.45,3.53,3.53,0,0,0,1.51-1A2.54,2.54,0,0,0,501.84,660.5Zm.4,0a12,12,0,0,1,0,2.17,7.31,7.31,0,0,1-.55,2.39,5.27,5.27,0,0,1-1.59,2.07,6.83,6.83,0,0,1-2.4,1.11h-.07l-.16,0a6.22,6.22,0,0,1-4.11-1,6.32,6.32,0,0,1-2.6-3.21,6.23,6.23,0,0,1,0-3.8,10.89,10.89,0,0,1,1.54-3.11,8.29,8.29,0,0,1,2.65-2.58,4.69,4.69,0,0,1,3.93-.32,4.46,4.46,0,0,1,1.68,1.15,5.25,5.25,0,0,1,1,1.7A15.23,15.23,0,0,1,502.24,660.47Z"/><ellipse class="cls-1" cx="567.27" cy="858.26" rx="4.55" ry="5.2" transform="translate(-50.28 35.43) rotate(-3.43)"/><path d="M571.62,858a2.82,2.82,0,0,0-.69-1.7,3.45,3.45,0,0,0-1.47-.95c-.51-.17-.94-.24-1.3-.33l-1.1-.29a4,4,0,0,0-1.38-.16,2.27,2.27,0,0,0-1.44.7,3,3,0,0,0-.42,3.2,6.28,6.28,0,0,0,1.72,2.28,3.28,3.28,0,0,0,1.92.57,3.86,3.86,0,0,0,1-.1,5.18,5.18,0,0,0,1.29-.37,3.27,3.27,0,0,0,1.36-1.09A3,3,0,0,0,571.62,858Zm.39,0c0,.66.11,1.33.14,2.06a6.6,6.6,0,0,1-.25,2.37,4.32,4.32,0,0,1-1.53,2.2,5.41,5.41,0,0,1-5.47.47,6,6,0,0,1-2.14-1.76,5.68,5.68,0,0,1-1.12-4.71,13.16,13.16,0,0,1,1.56-4.09,8.34,8.34,0,0,1,1.39-1.86,4.62,4.62,0,0,1,2.27-1.25,4.2,4.2,0,0,1,2.67.35,4,4,0,0,1,1.81,1.88,6.67,6.67,0,0,1,.54,2.3Z"/><ellipse class="cls-1" cx="522.09" cy="873.88" rx="4.55" ry="5.2" transform="matrix(1, -0.02, 0.02, 1, -14.33, 8.72)"/><path d="M526.44,873.81a2.76,2.76,0,0,0-.61-1.72,3.37,3.37,0,0,0-1.43-1c-.5-.2-.93-.28-1.28-.39l-1.09-.34a3.92,3.92,0,0,0-1.38-.22,2.25,2.25,0,0,0-1.46.63,3,3,0,0,0-.56,3.18,6.3,6.3,0,0,0,1.62,2.36,3.27,3.27,0,0,0,1.89.65,3.87,3.87,0,0,0,1-.05,5.93,5.93,0,0,0,1.3-.32,3.36,3.36,0,0,0,1.41-1A2.93,2.93,0,0,0,526.44,873.81Zm.4,0c0,.66,0,1.32,0,2.06a7.27,7.27,0,0,1-.35,2.36,4.37,4.37,0,0,1-1.63,2.12,5.4,5.4,0,0,1-2.7.87,5.33,5.33,0,0,1-2.79-.64,6,6,0,0,1-2.06-1.85,5.68,5.68,0,0,1-.92-4.75,13.21,13.21,0,0,1,1.74-4,8.88,8.88,0,0,1,1.47-1.8A4.61,4.61,0,0,1,522,867a4.08,4.08,0,0,1,2.64.46,3.93,3.93,0,0,1,1.73,1.95,6.65,6.65,0,0,1,.44,2.33Z"/><path class="cls-1" d="M479,947.41c-.08-2.6-2.41-4.48-5.34-4.39s-5.14,2.11-5.06,4.71,2.41,4.47,5.34,4.38A4.62,4.62,0,0,0,479,947.41Z"/><path d="M478.82,947.41a2.45,2.45,0,0,0-.43-1.28,2.41,2.41,0,0,0-1.06-.79,9.27,9.27,0,0,0-2.25-.38c-.65-.1-1.31-.26-2.1-.43a3.14,3.14,0,0,0-2.41.29,2.34,2.34,0,0,0-1.05,2.11,3,3,0,0,0,1,1.9,3.7,3.7,0,0,0,1.53.91,7.86,7.86,0,0,0,1.84.23h.24a6.07,6.07,0,0,0,1.13.06,8.32,8.32,0,0,0,1.37-.13,3.06,3.06,0,0,0,1.52-.81A2.41,2.41,0,0,0,478.82,947.41Zm.4,0a13.9,13.9,0,0,1-.06,2.12,6.36,6.36,0,0,1-.7,2.36,4.45,4.45,0,0,1-2,1.85,5.89,5.89,0,0,1-2.71.52H474a6.54,6.54,0,0,1-3.75-.94,5.82,5.82,0,0,1-2.57-3,5,5,0,0,1-.24-1.93,6.64,6.64,0,0,1,.42-1.77,8.77,8.77,0,0,1,1.84-2.77,9.09,9.09,0,0,1,2.75-2.12,4.7,4.7,0,0,1,3.61-.16,4.49,4.49,0,0,1,2.57,2.64A10.26,10.26,0,0,1,479.22,947.4Z"/><path class="cls-1" d="M365,968.32c.08-2.6-2.14-4.62-5.06-4.7s-5.26,1.79-5.33,4.39,2.14,4.62,5.06,4.7A4.62,4.62,0,0,0,365,968.32Z"/><path d="M364.77,968.31a2.35,2.35,0,0,0-.35-1.3,2.33,2.33,0,0,0-1-.86,9.28,9.28,0,0,0-2.22-.51c-.64-.14-1.29-.34-2.07-.56a3.16,3.16,0,0,0-2.43.15,2.35,2.35,0,0,0-1.17,2,3,3,0,0,0,.88,2,3.89,3.89,0,0,0,1.48,1,8.15,8.15,0,0,0,1.82.34l.24,0a4.63,4.63,0,0,0,1.12.12,7.39,7.39,0,0,0,1.38,0A3.08,3.08,0,0,0,364,970,2.39,2.39,0,0,0,364.77,968.31Zm.4,0a13.07,13.07,0,0,1-.18,2.11,6.12,6.12,0,0,1-.84,2.31,4.43,4.43,0,0,1-2.06,1.73,5.87,5.87,0,0,1-2.75.36l.24,0a6.47,6.47,0,0,1-3.69-1.16,5.84,5.84,0,0,1-2.39-3.15,5.18,5.18,0,0,1-.13-1.95,7.49,7.49,0,0,1,.53-1.74,8.9,8.9,0,0,1,2-2.65,9.15,9.15,0,0,1,2.87-2,4.69,4.69,0,0,1,3.62,0,4.53,4.53,0,0,1,2.41,2.79A10.55,10.55,0,0,1,365.17,968.32Z"/></g></svg>