<svg id="Gages" xmlns="http://www.w3.org/2000/svg" viewBox="0 0 936 1440"><defs><style>.cls-1{fill:#fff;}</style></defs><g id="Enhanced"><ellipse class="cls-1" cx="489.54" cy="225.84" rx="5.2" ry="4.55" transform="translate(-13.18 31.1) rotate(-3.59)"/><path d="M494.54,225.53a2.19,2.19,0,0,0-.79-1.59,3.07,3.07,0,0,0-1.59-.63,17.71,17.71,0,0,1-2.8-.35,9.16,9.16,0,0,0-1.56-.22,2.67,2.67,0,0,0-1.6.46,2.33,2.33,0,0,0-.75,2.9,3.44,3.44,0,0,0,.84,1.1,4.6,4.6,0,0,0,1,.67,6.14,6.14,0,0,0,2.41.38,9.18,9.18,0,0,0,1.28-.09,12,12,0,0,0,1.44-.18,2.92,2.92,0,0,0,1.51-.79A2.28,2.28,0,0,0,494.54,225.53Zm.39,0a10.55,10.55,0,0,1,0,2.1,6.09,6.09,0,0,1-.69,2.33,4.78,4.78,0,0,1-1.81,1.84,6.49,6.49,0,0,1-7.33-.83,5.38,5.38,0,0,1-1.59-2.15,4.92,4.92,0,0,1-.24-2.56,7.9,7.9,0,0,1,2.07-4,7.78,7.78,0,0,1,3.83-2.62,4.4,4.4,0,0,1,4.49,1.61,5.9,5.9,0,0,1,1,2.2A12.05,12.05,0,0,1,494.93,225.5Z"/><circle class="cls-1" cx="546.48" cy="234.1" r="4.55" transform="translate(269.49 760.14) rotate(-85.42)"/><path d="M550.82,234.44a2.28,2.28,0,0,0-.47-1.6A2.81,2.81,0,0,0,549,232a14.73,14.73,0,0,1-2.29-.72,5.38,5.38,0,0,0-1.32-.43,2.1,2.1,0,0,0-1.46.28,2.21,2.21,0,0,0-.92,1.2,2.67,2.67,0,0,0,0,1.51,4.46,4.46,0,0,0,1.36,2,4.26,4.26,0,0,0,1.86.67,4,4,0,0,0,1,.08,9,9,0,0,0,1.31-.06,2.91,2.91,0,0,0,1.51-.61A2.25,2.25,0,0,0,550.82,234.44Zm.39,0a15.58,15.58,0,0,1-.22,1.94,6.66,6.66,0,0,1-.75,2.15,4.36,4.36,0,0,1-1.8,1.68,5.26,5.26,0,0,1-2.57.5,5.69,5.69,0,0,1-4.37-2.5,5,5,0,0,1-.92-2.33,5.13,5.13,0,0,1,.28-2.32,9.62,9.62,0,0,1,2.24-3.51,10.18,10.18,0,0,1,1.67-1.41,5.09,5.09,0,0,1,2.23-.78,4.11,4.11,0,0,1,2.36.54,3.82,3.82,0,0,1,1.6,1.86,5.66,5.66,0,0,1,.35,2.24C551.31,233.24,551.25,233.86,551.21,234.48Z"/><ellipse class="cls-1" cx="607.57" cy="234.09" rx="4.55" ry="5.2" transform="translate(336.31 826) rotate(-86.45)"/><path d="M612.57,234.4a2.19,2.19,0,0,0-.59-1.68,3,3,0,0,0-1.5-.81,18.46,18.46,0,0,1-2.73-.7,8.21,8.21,0,0,0-1.52-.42,2.73,2.73,0,0,0-1.64.26,2.42,2.42,0,0,0-1.08,1.22,2.39,2.39,0,0,0,0,1.56,3.25,3.25,0,0,0,.7,1.2,4.44,4.44,0,0,0,.9.79,6.42,6.42,0,0,0,2.35.68,11,11,0,0,0,1.28.07,14,14,0,0,0,1.45,0,2.87,2.87,0,0,0,1.59-.6A2.27,2.27,0,0,0,612.57,234.4Zm.39,0a11.2,11.2,0,0,1-.27,2.08,6.17,6.17,0,0,1-1,2.23,4.77,4.77,0,0,1-2,1.59,6.49,6.49,0,0,1-2.53.44,6.59,6.59,0,0,1-4.64-2.17,5.3,5.3,0,0,1-1.31-2.33,4.91,4.91,0,0,1,.08-2.56,8,8,0,0,1,2.55-3.7,7.74,7.74,0,0,1,4.12-2.12,4.42,4.42,0,0,1,4.26,2.15,6,6,0,0,1,.7,2.3A13.44,13.44,0,0,1,613,234.42Z"/><ellipse class="cls-1" cx="597.07" cy="238.18" rx="4.55" ry="5.2" transform="matrix(0.98, -0.17, 0.17, 0.98, -32.38, 107.74)"/><path d="M601.36,237.43a2.77,2.77,0,0,0-.88-1.61,3.4,3.4,0,0,0-1.57-.77,12.11,12.11,0,0,0-1.33-.18l-1.12-.16a3.85,3.85,0,0,0-1.4,0,2.23,2.23,0,0,0-1.34.86,3,3,0,0,0-.05,3.23,6.16,6.16,0,0,0,2,2.07,3.29,3.29,0,0,0,2,.34,3.52,3.52,0,0,0,1-.21,5.43,5.43,0,0,0,1.24-.52,3.25,3.25,0,0,0,1.23-1.24A3,3,0,0,0,601.36,237.43Zm.39-.07c.12.65.26,1.3.37,2a6.8,6.8,0,0,1,0,2.39,4.34,4.34,0,0,1-1.27,2.35,5.41,5.41,0,0,1-2.53,1.29,5.32,5.32,0,0,1-2.85-.19,5.9,5.9,0,0,1-2.33-1.5,5.71,5.71,0,0,1-1.66-4.55,13.36,13.36,0,0,1,1.08-4.24,8.87,8.87,0,0,1,1.17-2,4.68,4.68,0,0,1,2.11-1.5,4.13,4.13,0,0,1,2.69,0,4,4,0,0,1,2,1.65,6.83,6.83,0,0,1,.8,2.23Z"/><path class="cls-1" d="M572.79,242.9c.18-2.6-2-4.7-4.88-4.9s-5.32,1.59-5.5,4.18,2,4.7,4.88,4.9A4.63,4.63,0,0,0,572.79,242.9Z"/><path d="M572.59,242.88a2.29,2.29,0,0,0-.3-1.31,2.36,2.36,0,0,0-1-.9,9.56,9.56,0,0,0-2.19-.6c-.64-.16-1.29-.38-2-.64a3.15,3.15,0,0,0-2.43.06,2.32,2.32,0,0,0-1.25,2,3,3,0,0,0,.8,2,3.75,3.75,0,0,0,1.44,1.06,8,8,0,0,0,1.81.41l.23,0a5.23,5.23,0,0,0,1.12.17,7.68,7.68,0,0,0,1.37,0,3,3,0,0,0,1.6-.66A2.4,2.4,0,0,0,572.59,242.88Zm.4,0a13.43,13.43,0,0,1-.27,2.1,6.22,6.22,0,0,1-.93,2.28,4.43,4.43,0,0,1-2.13,1.64,5.85,5.85,0,0,1-2.75.26l.23,0a6.59,6.59,0,0,1-3.64-1.31,5.87,5.87,0,0,1-2.26-3.24,5,5,0,0,1,0-1.95,7,7,0,0,1,.59-1.72,8.73,8.73,0,0,1,2.11-2.57,9,9,0,0,1,2.94-1.84,4.68,4.68,0,0,1,3.61.2,4.46,4.46,0,0,1,2.3,2.88A10.3,10.3,0,0,1,573,242.91Z"/><ellipse class="cls-1" cx="588.69" cy="247.37" rx="5.2" ry="4.55" transform="translate(-3.85 9.37) rotate(-0.91)"/><path d="M593.69,247.29a2.18,2.18,0,0,0-.71-1.63,2.93,2.93,0,0,0-1.56-.69,18,18,0,0,1-2.77-.48,8.14,8.14,0,0,0-1.56-.3,2.68,2.68,0,0,0-1.61.38,2.31,2.31,0,0,0-.89,2.86,3.3,3.3,0,0,0,.79,1.14,4.58,4.58,0,0,0,1,.71,6.08,6.08,0,0,0,2.39.5,9.24,9.24,0,0,0,1.29,0c.43,0,.92,0,1.45-.12a3,3,0,0,0,1.54-.72A2.24,2.24,0,0,0,593.69,247.29Zm.4,0a10.88,10.88,0,0,1-.11,2.1,5.93,5.93,0,0,1-.8,2.29,4.78,4.78,0,0,1-1.9,1.75,6.46,6.46,0,0,1-7.28-1.17,5.3,5.3,0,0,1-1.48-2.22,4.88,4.88,0,0,1-.12-2.56,7.88,7.88,0,0,1,2.25-3.89,7.73,7.73,0,0,1,3.94-2.43A4.41,4.41,0,0,1,593,243a6,6,0,0,1,.88,2.24A12.92,12.92,0,0,1,594.09,247.28Z"/><path class="cls-1" d="M535.05,255.87c.43-2.89-1.17-5.42-3.74-5.8s-4.84,1.59-5.26,4.48,1.18,5.43,3.75,5.81A5.25,5.25,0,0,0,535.05,255.87Z"/><path d="M534.86,255.84a2.81,2.81,0,0,0-.9-2.51,6.52,6.52,0,0,0-1.88-1.1c-.5-.23-1-.51-1.62-.8a2.42,2.42,0,0,0-2.27.23,2.81,2.81,0,0,0-1.1,2.21,5,5,0,0,0,.58,2.32,3.7,3.7,0,0,0,1.1,1.48,4.26,4.26,0,0,0,1.34.58l-.27,0a6.28,6.28,0,0,0,1.15,0,8.8,8.8,0,0,0,1.43-.13,3.35,3.35,0,0,0,1.57-.72A2.61,2.61,0,0,0,534.86,255.84Zm.39.06a20.11,20.11,0,0,1-.34,2,7.2,7.2,0,0,1-.79,2.18,4.74,4.74,0,0,1-1.81,1.77,5.9,5.9,0,0,1-2.56.63h-.13l-.13,0a5.37,5.37,0,0,1-2-.66,5.62,5.62,0,0,1-1.62-1.4,6.1,6.1,0,0,1-1.35-3.66,6.91,6.91,0,0,1,1-3.38,13.48,13.48,0,0,1,1.89-2.64,6.91,6.91,0,0,1,2.91-2.08,4.41,4.41,0,0,1,2-.16,4,4,0,0,1,3.4,4.25A29.2,29.2,0,0,1,535.25,255.9Z"/><path class="cls-1" d="M432.11,252.86a5.2,5.2,0,1,0-3.92,6.22C431,258.11,432.69,255.39,432.11,252.86Z"/><path d="M431.92,252.9a2.88,2.88,0,0,0-.68-1.29,3,3,0,0,0-1.22-.76,8.85,8.85,0,0,0-2.38-.23c-.66,0-1.33-.08-2.16-.08a3,3,0,0,0-2.32,1,2.85,2.85,0,0,0-.46,2.55,4.35,4.35,0,0,0,1.42,2,8,8,0,0,0,.85.58,3.67,3.67,0,0,0,.91.32,6,6,0,0,0,1.84,0l-.22.07a10.09,10.09,0,0,0,1.29-.47,13.23,13.23,0,0,0,1.45-.64,3.6,3.6,0,0,0,1.36-1.22A2.57,2.57,0,0,0,431.92,252.9Zm.39-.09a12,12,0,0,1,.32,2.15,7.21,7.21,0,0,1-.22,2.45,5.2,5.2,0,0,1-1.29,2.25,6.56,6.56,0,0,1-2.23,1.43l-.06,0-.17.05a6.29,6.29,0,0,1-4.2-.39,6.4,6.4,0,0,1-3-2.82,6.34,6.34,0,0,1-.47-3.77,11,11,0,0,1,1.1-3.3,8.28,8.28,0,0,1,2.28-2.91,4.69,4.69,0,0,1,3.85-.85A4.41,4.41,0,0,1,430,248a5.39,5.39,0,0,1,1.21,1.55A15.83,15.83,0,0,1,432.31,252.81Z"/><circle class="cls-1" cx="430.74" cy="257.74" r="4.55" transform="translate(145.88 671.04) rotate(-86.32)"/><path d="M435.09,258a2.31,2.31,0,0,0-.5-1.6,2.81,2.81,0,0,0-1.35-.87,13,13,0,0,1-2.3-.69,6,6,0,0,0-1.32-.4,2.13,2.13,0,0,0-1.47.3,2.24,2.24,0,0,0-.89,1.22,2.59,2.59,0,0,0,0,1.51,4.48,4.48,0,0,0,1.4,2,4.08,4.08,0,0,0,1.86.63,4.35,4.35,0,0,0,1,.07,7.57,7.57,0,0,0,1.29-.06,3.1,3.1,0,0,0,1.5-.66A2.22,2.22,0,0,0,435.09,258Zm.4,0c0,.63-.1,1.26-.21,1.95a6.67,6.67,0,0,1-.7,2.15,4.25,4.25,0,0,1-1.78,1.73,5.36,5.36,0,0,1-2.56.53,5.71,5.71,0,0,1-4.41-2.43,5.1,5.1,0,0,1-1-2.31,5.15,5.15,0,0,1,.25-2.33,10.6,10.6,0,0,1,3.83-5,4.85,4.85,0,0,1,2.22-.81,4.07,4.07,0,0,1,2.37.5,3.75,3.75,0,0,1,1.62,1.83,5.94,5.94,0,0,1,.4,2.24C435.56,256.81,435.51,257.42,435.49,258Z"/><circle class="cls-1" cx="418.95" cy="258.92" r="4.55" transform="translate(-34.22 66.05) rotate(-8.66)"/><path d="M423.25,258.26a2.28,2.28,0,0,0-.82-1.46,2.79,2.79,0,0,0-1.51-.55,14.66,14.66,0,0,1-2.4-.18,5.56,5.56,0,0,0-1.38-.11,2.15,2.15,0,0,0-1.37.62,2.25,2.25,0,0,0-.6,1.39,2.6,2.6,0,0,0,.37,1.47,4.47,4.47,0,0,0,1.81,1.66,4.37,4.37,0,0,0,2,.21,6.12,6.12,0,0,0,1-.16,7.35,7.35,0,0,0,1.23-.29,2.76,2.76,0,0,0,1.29-1A2.36,2.36,0,0,0,423.25,258.26Zm.4-.06c.1.62.21,1.24.27,1.94a5.9,5.9,0,0,1-.19,2.29,4.26,4.26,0,0,1-1.43,2.08,5.7,5.7,0,0,1-2.34,1,5.76,5.76,0,0,1-4.85-1.38,4.92,4.92,0,0,1-1.74-4.38,9.82,9.82,0,0,1,1.36-4,9.32,9.32,0,0,1,1.3-1.75,4.84,4.84,0,0,1,2-1.29,4.19,4.19,0,0,1,2.43,0,3.84,3.84,0,0,1,2,1.44,5.7,5.7,0,0,1,.87,2.1C423.45,257,423.54,257.59,423.65,258.2Z"/><circle class="cls-1" cx="429.02" cy="277.11" r="4.55" transform="translate(-42.03 79.73) rotate(-10.12)"/><path d="M433.3,276.34a2.3,2.3,0,0,0-.86-1.44,2.88,2.88,0,0,0-1.52-.51,15.11,15.11,0,0,1-2.4-.12,5.58,5.58,0,0,0-1.38-.08,2.12,2.12,0,0,0-1.35.64,2.26,2.26,0,0,0-.58,1.4,2.77,2.77,0,0,0,.4,1.46,4.44,4.44,0,0,0,1.84,1.62,4.19,4.19,0,0,0,2,.18,4.85,4.85,0,0,0,1-.17,8.13,8.13,0,0,0,1.24-.37,3.08,3.08,0,0,0,1.3-1A2.22,2.22,0,0,0,433.3,276.34Zm.39-.07a16,16,0,0,1,.26,1.94,6.55,6.55,0,0,1-.16,2.26,4.21,4.21,0,0,1-1.32,2.1,5.31,5.31,0,0,1-2.35,1.13,5.72,5.72,0,0,1-4.86-1.31,5,5,0,0,1-1.49-2,5.19,5.19,0,0,1-.32-2.31A10.6,10.6,0,0,1,426,272.3a5,5,0,0,1,2-1.32,4.07,4.07,0,0,1,2.42-.07,3.67,3.67,0,0,1,2,1.39,5.54,5.54,0,0,1,.92,2.08C433.47,275.05,433.57,275.66,433.69,276.27Z"/><ellipse class="cls-1" cx="643.6" cy="282.79" rx="4.55" ry="5.2" transform="translate(-3.62 8.38) rotate(-0.74)"/><path d="M648,282.74a2.81,2.81,0,0,0-.61-1.73,3.45,3.45,0,0,0-1.42-1,13.17,13.17,0,0,0-1.29-.39l-1.08-.34a4.15,4.15,0,0,0-1.38-.23,2.25,2.25,0,0,0-1.46.63,3,3,0,0,0-.57,3.18,6.18,6.18,0,0,0,1.61,2.36,3.19,3.19,0,0,0,1.89.66,3.77,3.77,0,0,0,1-.05,5.9,5.9,0,0,0,1.31-.31,3.28,3.28,0,0,0,1.41-1A3,3,0,0,0,648,282.74Zm.4,0c0,.66,0,1.33,0,2.06a7,7,0,0,1-.36,2.36,4.34,4.34,0,0,1-1.64,2.12,5.37,5.37,0,0,1-5.49.21,5.91,5.91,0,0,1-2-1.85,5.69,5.69,0,0,1-.9-4.76,13.06,13.06,0,0,1,1.75-4,8.94,8.94,0,0,1,1.48-1.8,4.6,4.6,0,0,1,2.33-1.13,4.08,4.08,0,0,1,2.64.47,3.89,3.89,0,0,1,1.72,2,6.4,6.4,0,0,1,.43,2.32Z"/><circle class="cls-1" cx="478.78" cy="289.26" r="4.55" transform="translate(-9.94 17.13) rotate(-2.03)"/><path d="M483.13,289.1a2.31,2.31,0,0,0-.65-1.55,2.85,2.85,0,0,0-1.44-.72,14.78,14.78,0,0,1-2.36-.45,5.56,5.56,0,0,0-1.36-.27,2.18,2.18,0,0,0-1.43.45,2.28,2.28,0,0,0-.76,1.32,2.66,2.66,0,0,0,.2,1.5,4.52,4.52,0,0,0,1.61,1.86,4.36,4.36,0,0,0,1.93.43,11.86,11.86,0,0,0,2.3-.19,2.68,2.68,0,0,0,1.39-.8A2.36,2.36,0,0,0,483.13,289.1Zm.4,0c0,.62.06,1.25,0,2a5.94,5.94,0,0,1-.45,2.26,4.27,4.27,0,0,1-1.66,1.89,5.64,5.64,0,0,1-7.1-1.19,5,5,0,0,1-1.21-2.2,5.14,5.14,0,0,1,0-2.34,9.77,9.77,0,0,1,1.81-3.78,8.84,8.84,0,0,1,1.49-1.59,4.87,4.87,0,0,1,2.12-1,4.21,4.21,0,0,1,2.42.26,3.82,3.82,0,0,1,1.8,1.66,5.63,5.63,0,0,1,.62,2.19C483.48,287.85,483.49,288.47,483.53,289.09Z"/><ellipse class="cls-1" cx="527.53" cy="297" rx="4.55" ry="5.2" transform="translate(-27.72 55.77) rotate(-5.9)"/><path d="M531.86,296.55a2.83,2.83,0,0,0-.76-1.67,3.45,3.45,0,0,0-1.51-.88,13.24,13.24,0,0,0-1.31-.28l-1.11-.24a3.94,3.94,0,0,0-1.4-.1,2.23,2.23,0,0,0-1.4.76,3,3,0,0,0-.28,3.21,6.21,6.21,0,0,0,1.81,2.21,3.27,3.27,0,0,0,1.94.48,3.87,3.87,0,0,0,1-.13,5.93,5.93,0,0,0,1.27-.43,3.35,3.35,0,0,0,1.32-1.15A2.92,2.92,0,0,0,531.86,296.55Zm.39,0c.08.65.17,1.31.23,2.05a6.77,6.77,0,0,1-.15,2.38,4.3,4.3,0,0,1-1.44,2.26,5.4,5.4,0,0,1-5.44.7,6,6,0,0,1-2.22-1.67,5.71,5.71,0,0,1-1.32-4.65,13.35,13.35,0,0,1,1.38-4.15,8.84,8.84,0,0,1,1.32-1.93,4.64,4.64,0,0,1,2.21-1.34,4.2,4.2,0,0,1,2.68.23,4,4,0,0,1,1.89,1.8,6.77,6.77,0,0,1,.64,2.28Z"/><ellipse class="cls-1" cx="633.53" cy="305.88" rx="5.2" ry="4.55"/><path d="M638.53,305.88a2.22,2.22,0,0,0-.69-1.64,3,3,0,0,0-1.55-.72,19.17,19.17,0,0,1-2.77-.52,8.12,8.12,0,0,0-1.56-.32,2.69,2.69,0,0,0-1.62.36,2.33,2.33,0,0,0-.92,2.86,3.34,3.34,0,0,0,.79,1.15,4.58,4.58,0,0,0,.95.72,6.28,6.28,0,0,0,2.4.52c.48,0,.92,0,1.36,0a11.81,11.81,0,0,0,1.41-.06,2.67,2.67,0,0,0,1.52-.71A2.42,2.42,0,0,0,638.53,305.88Zm.4,0a15.12,15.12,0,0,1-.1,2.09,5.71,5.71,0,0,1-.81,2.33,4.68,4.68,0,0,1-2,1.71,7,7,0,0,1-2.45.55,6.6,6.6,0,0,1-4.79-1.84,5.17,5.17,0,0,1-1.46-2.24,4.77,4.77,0,0,1-.11-2.56,7.86,7.86,0,0,1,2.29-3.87,7.72,7.72,0,0,1,4-2.39,4.41,4.41,0,0,1,4.39,1.88,5.81,5.81,0,0,1,.85,2.26A13.93,13.93,0,0,1,638.93,305.88Z"/><path class="cls-1" d="M630.28,307.54a4.44,4.44,0,0,0-4.52-4.58,4.73,4.73,0,0,0-4.91,4.52,4.45,4.45,0,0,0,4.52,4.58A5,5,0,0,0,630.28,307.54Z"/><path d="M630.08,307.54a2.29,2.29,0,0,0-.6-1.6,2.83,2.83,0,0,0-1.41-.79,16.06,16.06,0,0,1-2.39-.52,5.67,5.67,0,0,0-1.4-.3,2.43,2.43,0,0,0-1.51.38,2.29,2.29,0,0,0-.9,1.26,2.37,2.37,0,0,0,.08,1.49,4.4,4.4,0,0,0,1.53,2,4.34,4.34,0,0,0,1.94.51,5.26,5.26,0,0,0,1,0,12.1,12.1,0,0,0,1.37-.17,3.32,3.32,0,0,0,1.52-.69A2.14,2.14,0,0,0,630.08,307.54Zm.4,0a11.63,11.63,0,0,1-.17,2,7.19,7.19,0,0,1-.69,2.17,4.48,4.48,0,0,1-1.68,1.78,5.54,5.54,0,0,1-2.5.71,5.75,5.75,0,0,1-4.64-2.12,5.14,5.14,0,0,1-1.14-2.27,5.27,5.27,0,0,1,.1-2.38,8.76,8.76,0,0,1,2.15-3.67,11.92,11.92,0,0,1,1.58-1.49,5.12,5.12,0,0,1,2.16-1,4.2,4.2,0,0,1,2.43.33,3.85,3.85,0,0,1,1.78,1.72,5.58,5.58,0,0,1,.57,2.23C630.48,306.28,630.47,306.91,630.48,307.54Z"/><path class="cls-1" d="M627.36,317.8a5.2,5.2,0,1,0-5.67,4.69C624.64,322.44,627.12,320.39,627.36,317.8Z"/><path d="M627.16,317.78a2.85,2.85,0,0,0-.23-1.44,3.08,3.08,0,0,0-.92-1.1,8.6,8.6,0,0,0-2.19-1c-.64-.22-1.25-.5-2-.75a3,3,0,0,0-2.53.24,2.85,2.85,0,0,0-1.23,2.28,4.29,4.29,0,0,0,.73,2.33,8,8,0,0,0,.62.82,3.85,3.85,0,0,0,.77.59,6.21,6.21,0,0,0,1.75.58h-.24a10.76,10.76,0,0,0,1.38,0,13.93,13.93,0,0,0,1.57-.16,3.54,3.54,0,0,0,1.67-.74A2.44,2.44,0,0,0,627.16,317.78Zm.4,0a12.93,12.93,0,0,1-.36,2.14,7.65,7.65,0,0,1-1,2.26,5.33,5.33,0,0,1-1.94,1.74,6.63,6.63,0,0,1-2.56.65h-.24a6.25,6.25,0,0,1-3.87-1.68,5.86,5.86,0,0,1-1.25-7.35,10.93,10.93,0,0,1,2.08-2.78,8.32,8.32,0,0,1,3.08-2.05,4.64,4.64,0,0,1,3.92.39,4.5,4.5,0,0,1,1.45,1.43,5.57,5.57,0,0,1,.66,1.85A15.51,15.51,0,0,1,627.56,317.82Z"/><path class="cls-1" d="M474.91,323.92c.23-2.59-1.86-4.74-4.77-5s-5.36,1.48-5.59,4.07,1.86,4.74,4.77,5A4.63,4.63,0,0,0,474.91,323.92Z"/><path d="M474.71,323.9a2.32,2.32,0,0,0-.27-1.32,2.42,2.42,0,0,0-1-.92,9.63,9.63,0,0,0-2.18-.64c-.64-.18-1.28-.41-2-.68a3.17,3.17,0,0,0-2.44,0,2.34,2.34,0,0,0-1.29,2,3,3,0,0,0,.76,2,3.67,3.67,0,0,0,1.42,1.09,8.33,8.33,0,0,0,1.8.46l.23,0a5.85,5.85,0,0,0,1.11.19,7.6,7.6,0,0,0,1.38,0,3,3,0,0,0,1.61-.62A2.34,2.34,0,0,0,474.71,323.9Zm.4,0a13.85,13.85,0,0,1-.31,2.1,6.33,6.33,0,0,1-1,2.25,4.38,4.38,0,0,1-2.16,1.6,5.88,5.88,0,0,1-2.76.2l.23,0a6.54,6.54,0,0,1-3.61-1.38,5.86,5.86,0,0,1-2.19-3.29,4.75,4.75,0,0,1,0-1.95,6.7,6.7,0,0,1,.63-1.71,8.82,8.82,0,0,1,2.15-2.52,9.07,9.07,0,0,1,3-1.78,4.66,4.66,0,0,1,3.6.27,4.5,4.5,0,0,1,2.24,2.93A10.5,10.5,0,0,1,475.11,323.94Z"/><circle class="cls-1" cx="613.16" cy="340.11" r="4.55" transform="translate(173.67 886.44) rotate(-80.2)"/><path d="M617.45,340.85a2.27,2.27,0,0,0-.32-1.65,2.79,2.79,0,0,0-1.25-1,14.14,14.14,0,0,1-2.23-.92,5.36,5.36,0,0,0-1.28-.54,2.06,2.06,0,0,0-1.48.15,2.15,2.15,0,0,0-1,1.13,2.6,2.6,0,0,0-.12,1.51,4.51,4.51,0,0,0,1.19,2.15,4.33,4.33,0,0,0,1.8.81,6,6,0,0,0,1,.19,7.41,7.41,0,0,0,1.27.11,2.68,2.68,0,0,0,1.51-.51A2.31,2.31,0,0,0,617.45,340.85Zm.39.06c-.1.62-.19,1.24-.35,1.92a6.08,6.08,0,0,1-.91,2.12,4.16,4.16,0,0,1-2,1.51,5.67,5.67,0,0,1-2.55.23,5.76,5.76,0,0,1-4.16-2.84,5.16,5.16,0,0,1-.73-2.41,5.11,5.11,0,0,1,.47-2.29,9.8,9.8,0,0,1,2.54-3.33,10.16,10.16,0,0,1,1.79-1.26,4.87,4.87,0,0,1,2.29-.58,4.08,4.08,0,0,1,2.31.75,3.8,3.8,0,0,1,1.43,2,5.76,5.76,0,0,1,.16,2.27C618.05,339.69,617.93,340.3,617.84,340.91Z"/><path class="cls-1" d="M511.21,358.33c-.27-2.91-2.42-5-5-4.75s-4.32,2.68-4.05,5.6,2.43,5,5,4.75A5,5,0,0,0,511.21,358.33Z"/><path d="M511,358.35a2.84,2.84,0,0,0-1.46-2.24,6.63,6.63,0,0,0-2.09-.62c-.54-.1-1-.27-1.76-.38a2.39,2.39,0,0,0-2.15.75,2.8,2.8,0,0,0-.55,2.41,5,5,0,0,0,1.11,2.12,3.61,3.61,0,0,0,1.42,1.17,4.09,4.09,0,0,0,1.44.25l-.26,0a9.71,9.71,0,0,0,1.19-.26,10,10,0,0,0,1.34-.42,3.18,3.18,0,0,0,1.33-1.08A2.73,2.73,0,0,0,511,358.35Zm.4,0c.07.65.15,1.3.19,2a6.56,6.56,0,0,1-.23,2.37,4.64,4.64,0,0,1-1.43,2.15,6.12,6.12,0,0,1-2.31,1.15l-.14,0h-.13a5.8,5.8,0,0,1-2.15-.16,5.72,5.72,0,0,1-1.9-1,6.11,6.11,0,0,1-2.17-3.24,7,7,0,0,1,.14-3.51,13.64,13.64,0,0,1,1.21-3,6.84,6.84,0,0,1,2.33-2.72,4.45,4.45,0,0,1,1.89-.62,4.06,4.06,0,0,1,4.31,3.33C511.28,356.32,511.28,357.33,511.41,358.31Z"/><ellipse class="cls-1" cx="612.7" cy="398.58" rx="4.55" ry="5.2" transform="translate(143.45 958.99) rotate(-83.1)"/><path d="M617.66,399.18a2.22,2.22,0,0,0-.48-1.71,3.08,3.08,0,0,0-1.45-.9,20.19,20.19,0,0,1-2.69-.85,8,8,0,0,0-1.5-.51,2.75,2.75,0,0,0-1.65.16,2.33,2.33,0,0,0-1.27,2.71,3.29,3.29,0,0,0,.63,1.24,4.55,4.55,0,0,0,.86.84,6.18,6.18,0,0,0,2.3.81,7.72,7.72,0,0,0,1.28.15,10.58,10.58,0,0,0,1.44.08,2.86,2.86,0,0,0,1.63-.5A2.27,2.27,0,0,0,617.66,399.18Zm.4,0a10.92,10.92,0,0,1-.4,2.07,5.86,5.86,0,0,1-1.11,2.16,4.78,4.78,0,0,1-2.11,1.48,6.49,6.49,0,0,1-2.55.28,6.56,6.56,0,0,1-4.51-2.43,5.28,5.28,0,0,1-1.16-2.4,4.78,4.78,0,0,1,.23-2.56,7.89,7.89,0,0,1,2.75-3.54,7.69,7.69,0,0,1,4.24-1.88,4.43,4.43,0,0,1,4.13,2.4,5.77,5.77,0,0,1,.56,2.34A12.79,12.79,0,0,1,618.06,399.22Z"/><circle class="cls-1" cx="522.86" cy="439.65" r="4.55" transform="translate(-74.97 109.08) rotate(-11.12)"/><path d="M527.13,438.82a2.27,2.27,0,0,0-.89-1.43,2.8,2.8,0,0,0-1.53-.49,14.46,14.46,0,0,1-2.41-.07,5.65,5.65,0,0,0-1.38-.05,2.13,2.13,0,0,0-1.34.67,2.24,2.24,0,0,0-.54,1.42,2.67,2.67,0,0,0,.43,1.45,3.54,3.54,0,0,0,3.86,1.7,5.91,5.91,0,0,0,1-.19,7.8,7.8,0,0,0,1.22-.35,2.73,2.73,0,0,0,1.24-1A2.33,2.33,0,0,0,527.13,438.82Zm.39-.08c.13.61.26,1.22.35,1.92a5.84,5.84,0,0,1-.09,2.3,4.14,4.14,0,0,1-1.34,2.13,5.6,5.6,0,0,1-2.29,1.13,5.81,5.81,0,0,1-4.91-1.18,5.08,5.08,0,0,1-1.54-2,5.13,5.13,0,0,1-.38-2.32,9.78,9.78,0,0,1,1.19-4,9.44,9.44,0,0,1,1.22-1.81,5,5,0,0,1,1.93-1.37,4.18,4.18,0,0,1,2.43-.12,3.81,3.81,0,0,1,2,1.35,5.65,5.65,0,0,1,1,2.06C527.27,437.52,527.39,438.13,527.52,438.74Z"/><ellipse class="cls-1" cx="477.73" cy="449.08" rx="4.55" ry="5.2" transform="matrix(1, -0.1, 0.1, 1, -42.28, 49.72)"/><path d="M482.06,448.64a2.82,2.82,0,0,0-.75-1.66,3.48,3.48,0,0,0-1.51-.89,12.66,12.66,0,0,0-1.31-.28l-1.1-.25a4.13,4.13,0,0,0-1.39-.12,2.26,2.26,0,0,0-1.41.75,3,3,0,0,0-.3,3.2,6.25,6.25,0,0,0,1.79,2.23,3.34,3.34,0,0,0,1.93.51,3.54,3.54,0,0,0,.93-.12,7,7,0,0,0,1.29-.47,3.68,3.68,0,0,0,1.36-1.14A2.74,2.74,0,0,0,482.06,448.64Zm.4,0c.07.66.14,1.33.17,2.06a7.17,7.17,0,0,1-.19,2.36,4.4,4.4,0,0,1-1.39,2.24,5.21,5.21,0,0,1-2.66,1.12,5.42,5.42,0,0,1-2.83-.43,5.93,5.93,0,0,1-2.18-1.69,5.67,5.67,0,0,1-1.27-4.66,13.1,13.1,0,0,1,1.41-4.13,8.46,8.46,0,0,1,1.33-1.91,4.56,4.56,0,0,1,2.22-1.32,4.11,4.11,0,0,1,2.67.25,3.94,3.94,0,0,1,1.87,1.8,6.52,6.52,0,0,1,.63,2.28Z"/><ellipse class="cls-1" cx="540.82" cy="451.13" rx="4.55" ry="5.2" transform="translate(-4.93 5.98) rotate(-0.63)"/><path d="M545.17,451.08a2.8,2.8,0,0,0-.6-1.73,3.45,3.45,0,0,0-1.42-1c-.5-.2-.93-.28-1.28-.39l-1.08-.35a4.13,4.13,0,0,0-1.37-.24A2.31,2.31,0,0,0,538,448a3,3,0,0,0-.59,3.17,6.37,6.37,0,0,0,1.59,2.37,3.79,3.79,0,0,0,2.81.64,5.86,5.86,0,0,0,1.33-.35,3.57,3.57,0,0,0,1.45-1A2.67,2.67,0,0,0,545.17,451.08Zm.4,0c0,.67,0,1.34,0,2.07a7.68,7.68,0,0,1-.39,2.33,4.37,4.37,0,0,1-1.59,2.1,5.17,5.17,0,0,1-2.75.89,5.33,5.33,0,0,1-2.78-.68,6.12,6.12,0,0,1-2-1.88,5.76,5.76,0,0,1-.85-4.75,13.11,13.11,0,0,1,1.78-4,8.58,8.58,0,0,1,1.48-1.78,4.59,4.59,0,0,1,2.33-1.12,4.13,4.13,0,0,1,2.64.48,4,4,0,0,1,1.71,2,6.65,6.65,0,0,1,.42,2.33Z"/><circle class="cls-1" cx="578.25" cy="456.43" r="4.55" transform="translate(50.23 970.15) rotate(-82.5)"/><path d="M582.56,457a2.19,2.19,0,0,0-.39-1.63,2.83,2.83,0,0,0-1.29-1,15.12,15.12,0,0,1-2.26-.83,5.59,5.59,0,0,0-1.29-.49,2.21,2.21,0,0,0-1.49.21,2.31,2.31,0,0,0-1,1.17,2.68,2.68,0,0,0-.06,1.51,3.56,3.56,0,0,0,3.11,2.85,6,6,0,0,0,1,.14,8,8,0,0,0,1.27.06,2.75,2.75,0,0,0,1.49-.56A2.31,2.31,0,0,0,582.56,457Zm.4.05c-.08.62-.14,1.25-.28,1.94a6.09,6.09,0,0,1-.82,2.15,4.3,4.3,0,0,1-2,1.59,5.63,5.63,0,0,1-2.53.33,5.76,5.76,0,0,1-4.28-2.68,5.08,5.08,0,0,1-.83-2.37,5.19,5.19,0,0,1,.38-2.31,9.7,9.7,0,0,1,2.41-3.42,9.1,9.1,0,0,1,1.73-1.33,5,5,0,0,1,2.27-.68,4.12,4.12,0,0,1,2.34.66,3.78,3.78,0,0,1,1.51,1.93,5.83,5.83,0,0,1,.25,2.26C583.11,455.82,583,456.44,583,457.05Z"/><circle class="cls-1" cx="616.59" cy="462.92" r="5.2" transform="translate(91.18 1027.21) rotate(-83.94)"/><path d="M621.56,463.45a2.68,2.68,0,0,0-.46-1.87,3.55,3.55,0,0,0-1.43-1.15c-1.08-.43-1.79-.64-2.71-1a5.86,5.86,0,0,0-1.55-.43,2.77,2.77,0,0,0-1.7.37,2.84,2.84,0,0,0-1.1,1.39,3.08,3.08,0,0,0-.1,1.75A5.24,5.24,0,0,0,614,465a4.78,4.78,0,0,0,2.28,1,6.67,6.67,0,0,0,1.27.09A9.29,9.29,0,0,0,619,466a3.21,3.21,0,0,0,1.65-.79A2.8,2.8,0,0,0,621.56,463.45Zm.4,0a20.39,20.39,0,0,1-.31,2.18,6.74,6.74,0,0,1-.94,2.35,4.74,4.74,0,0,1-2.11,1.76,6,6,0,0,1-2.78.43,6.39,6.39,0,0,1-4.77-2.82,5.6,5.6,0,0,1-.72-5.14,10.11,10.11,0,0,1,2.57-3.9,9.94,9.94,0,0,1,1.91-1.49,5.43,5.43,0,0,1,2.51-.77,4.64,4.64,0,0,1,2.6.69,4.32,4.32,0,0,1,1.73,2.05,6.51,6.51,0,0,1,.43,2.47C622.08,462.08,622,462.79,622,463.49Z"/><circle class="cls-1" cx="593.14" cy="485.91" r="4.55" transform="translate(-82.43 123.24) rotate(-11.1)"/><path d="M597.48,485.77a2.22,2.22,0,0,0-.65-1.55,2.82,2.82,0,0,0-1.42-.73A13.65,13.65,0,0,1,593,483a6,6,0,0,0-1.36-.27,2.2,2.2,0,0,0-1.43.45,2.28,2.28,0,0,0-.76,1.31,2.69,2.69,0,0,0,.19,1.51,4.46,4.46,0,0,0,1.61,1.86,4.24,4.24,0,0,0,1.93.44,7.23,7.23,0,0,0,1,0,8.33,8.33,0,0,0,1.26-.15,2.75,2.75,0,0,0,1.39-.8A2.33,2.33,0,0,0,597.48,485.77Zm.4,0c0,.62.07,1.25,0,1.95a5.88,5.88,0,0,1-.46,2.25,4.24,4.24,0,0,1-1.66,1.9,5.65,5.65,0,0,1-7.1-1.21,5,5,0,0,1-1.21-4.55,9.88,9.88,0,0,1,1.82-3.77,8.9,8.9,0,0,1,1.5-1.59,4.8,4.8,0,0,1,2.12-1,4.13,4.13,0,0,1,2.42.27,3.73,3.73,0,0,1,1.8,1.66,5.44,5.44,0,0,1,.61,2.19C597.83,484.52,597.85,485.14,597.88,485.76Z"/><path class="cls-1" d="M573,505.91c.22-2.59-1.89-4.72-4.8-5s-5.35,1.51-5.56,4.1,1.89,4.72,4.8,5S572.75,508.5,573,505.91Z"/><path d="M572.76,505.9a2.21,2.21,0,0,0-.54-1.69,3.06,3.06,0,0,0-1.48-.85,18,18,0,0,1-2.72-.75,8,8,0,0,0-1.52-.45,2.73,2.73,0,0,0-1.64.22,2.42,2.42,0,0,0-1.1,1.2,2.33,2.33,0,0,0-.07,1.56,3.27,3.27,0,0,0,.68,1.21,4.46,4.46,0,0,0,.88.81,6.36,6.36,0,0,0,2.33.73,11,11,0,0,0,1.29.1,13.38,13.38,0,0,0,1.45,0,2.89,2.89,0,0,0,1.6-.57A2.21,2.21,0,0,0,572.76,505.9Zm.4,0a11.39,11.39,0,0,1-.31,2.08,6.19,6.19,0,0,1-1,2.2,4.72,4.72,0,0,1-2.06,1.55,6.26,6.26,0,0,1-2.53.38,6.55,6.55,0,0,1-4.6-2.26,5.2,5.2,0,0,1-1.25-2.36,4.81,4.81,0,0,1,.13-2.56,7.86,7.86,0,0,1,2.62-3.64,7.76,7.76,0,0,1,4.17-2,4.42,4.42,0,0,1,4.21,2.25,5.76,5.76,0,0,1,.65,2.31A12.15,12.15,0,0,1,573.16,505.93Z"/><circle class="cls-1" cx="527.75" cy="571.07" r="5.2"/><path d="M532.75,571.16a2.69,2.69,0,0,0-.62-1.82,3.45,3.45,0,0,0-1.53-1c-1.11-.34-1.83-.48-2.78-.79a5.84,5.84,0,0,0-1.58-.29,2.64,2.64,0,0,0-1.66.52,2.78,2.78,0,0,0-1,1.48,3.12,3.12,0,0,0,0,1.74,5.26,5.26,0,0,0,1.7,2.4,4.65,4.65,0,0,0,2.35.74,5.41,5.41,0,0,0,1.27,0,8.36,8.36,0,0,0,1.49-.23A3.4,3.4,0,0,0,532,573,2.85,2.85,0,0,0,532.75,571.16Zm.4,0a16.86,16.86,0,0,1-.12,2.2,6.71,6.71,0,0,1-.73,2.42,4.68,4.68,0,0,1-1.95,1.94,6.19,6.19,0,0,1-2.73.68,6.41,6.41,0,0,1-5-2.4,5.55,5.55,0,0,1-1.17-5.06,10.16,10.16,0,0,1,2.22-4.11,10.41,10.41,0,0,1,1.77-1.65,5.5,5.5,0,0,1,2.43-1,4.65,4.65,0,0,1,2.66.46,4.41,4.41,0,0,1,1.9,1.9,6.56,6.56,0,0,1,.64,2.42C533.15,569.76,533.15,570.47,533.15,571.17Z"/><circle class="cls-1" cx="507.63" cy="576.32" r="4.55"/><path d="M512,576.73a2.23,2.23,0,0,0-.44-1.62,2.82,2.82,0,0,0-1.32-.91,14.31,14.31,0,0,1-2.29-.75,5.38,5.38,0,0,0-1.32-.44,2.12,2.12,0,0,0-1.47.26,2.21,2.21,0,0,0-.92,1.2,2.71,2.71,0,0,0,0,1.52,4.48,4.48,0,0,0,1.36,2,4.31,4.31,0,0,0,1.85.68,7.34,7.34,0,0,0,1,.11,8.77,8.77,0,0,0,1.27,0,2.75,2.75,0,0,0,1.48-.62A2.31,2.31,0,0,0,512,576.73Zm.4,0c-.05.62-.1,1.25-.21,1.94a5.85,5.85,0,0,1-.75,2.18,4.19,4.19,0,0,1-1.89,1.66A5.57,5.57,0,0,1,507,583a5.76,5.76,0,0,1-4.37-2.53,5,5,0,0,1-.91-2.34,5.24,5.24,0,0,1,.29-2.32,9.86,9.86,0,0,1,2.29-3.51,9.5,9.5,0,0,1,1.69-1.39,4.82,4.82,0,0,1,2.24-.75,4.14,4.14,0,0,1,2.36.57,3.79,3.79,0,0,1,1.57,1.88,5.7,5.7,0,0,1,.33,2.25C512.47,575.53,512.41,576.15,512.36,576.77Z"/><ellipse class="cls-1" cx="466.07" cy="575.92" rx="4.55" ry="5.2" transform="translate(-133.09 1011.71) rotate(-87.05)"/><path d="M471.06,576.17a2.19,2.19,0,0,0-.6-1.67,3,3,0,0,0-1.51-.79,20,20,0,0,1-2.74-.67,8.13,8.13,0,0,0-1.53-.4,2.63,2.63,0,0,0-1.63.27,2.42,2.42,0,0,0-1.07,1.23,2.38,2.38,0,0,0,0,1.56,3.27,3.27,0,0,0,.71,1.2,4.38,4.38,0,0,0,.91.77,6.22,6.22,0,0,0,2.35.66,11.14,11.14,0,0,0,1.29.06,14.42,14.42,0,0,0,1.45,0,2.86,2.86,0,0,0,1.58-.61A2.3,2.3,0,0,0,471.06,576.17Zm.4,0a12.24,12.24,0,0,1-.25,2.09,6.12,6.12,0,0,1-1,2.23,4.69,4.69,0,0,1-2,1.62,6.43,6.43,0,0,1-2.52.46,6.63,6.63,0,0,1-4.67-2.11,5.39,5.39,0,0,1-1.32-2.32,4.76,4.76,0,0,1,0-2.57,7.86,7.86,0,0,1,2.51-3.72,7.69,7.69,0,0,1,4.1-2.16,4.39,4.39,0,0,1,4.27,2.1,5.87,5.87,0,0,1,.73,2.3A13.47,13.47,0,0,1,471.46,576.19Z"/><path class="cls-1" d="M501.08,661.77A5.2,5.2,0,1,0,495,666,5.59,5.59,0,0,0,501.08,661.77Z"/><path d="M500.88,661.74a2.89,2.89,0,0,0-.11-1.46,3,3,0,0,0-.83-1.17,8.18,8.18,0,0,0-2.1-1.14c-.61-.27-1.19-.6-2-.92a3,3,0,0,0-2.53,0,2.84,2.84,0,0,0-1.42,2.17,4.22,4.22,0,0,0,.53,2.38,8.26,8.26,0,0,0,.55.88,3.94,3.94,0,0,0,.71.65,6.33,6.33,0,0,0,1.69.72l-.23,0a10.34,10.34,0,0,0,1.38.08,12.24,12.24,0,0,0,1.58,0,3.62,3.62,0,0,0,1.73-.59A2.52,2.52,0,0,0,500.88,661.74Zm.4.07a12.31,12.31,0,0,1-.55,2.1,7.39,7.39,0,0,1-1.16,2.17,5.19,5.19,0,0,1-2.07,1.57,6.8,6.8,0,0,1-2.61.44h-.07l-.17,0a6.26,6.26,0,0,1-3.71-2,6.33,6.33,0,0,1-1.66-3.78,6.24,6.24,0,0,1,1-3.66,11.06,11.06,0,0,1,2.3-2.6,8.46,8.46,0,0,1,3.24-1.78,4.66,4.66,0,0,1,3.87.72,4.44,4.44,0,0,1,1.33,1.56,5.47,5.47,0,0,1,.5,1.9A16.14,16.14,0,0,1,501.28,661.81Z"/><circle class="cls-1" cx="358.61" cy="710.32" r="4.55"/><path d="M362.92,709.73a2.27,2.27,0,0,0-.81-1.48,2.86,2.86,0,0,0-1.49-.58,13.49,13.49,0,0,1-2.4-.21,5.94,5.94,0,0,0-1.38-.13,2.14,2.14,0,0,0-1.38.6,2.2,2.2,0,0,0-.62,1.38,2.61,2.61,0,0,0,.35,1.47,4.45,4.45,0,0,0,1.78,1.69,4.38,4.38,0,0,0,2,.24,7.28,7.28,0,0,0,1-.14,7.54,7.54,0,0,0,1.24-.28,2.72,2.72,0,0,0,1.3-.93A2.35,2.35,0,0,0,362.92,709.73Zm.4-.06c.09.62.19,1.24.23,1.94a5.93,5.93,0,0,1-.22,2.29,4.17,4.17,0,0,1-1.47,2.05,5.56,5.56,0,0,1-2.35,1,5.79,5.79,0,0,1-4.83-1.46,5.2,5.2,0,0,1-1.42-2.07,5,5,0,0,1-.24-2.33,9.74,9.74,0,0,1,1.42-3.94,9,9,0,0,1,1.32-1.73,4.91,4.91,0,0,1,2-1.26,4.11,4.11,0,0,1,2.43,0,3.81,3.81,0,0,1,2,1.47,5.7,5.7,0,0,1,.84,2.12C363.14,708.44,363.22,709.06,363.32,709.67Z"/><path class="cls-1" d="M395.1,735.56a5.2,5.2,0,1,0-4.29,6A5.13,5.13,0,0,0,395.1,735.56Z"/><path d="M394.91,735.59a2.76,2.76,0,0,0-.94-1.68,3.5,3.5,0,0,0-1.69-.72c-1.15-.13-1.89-.14-2.88-.27a5.78,5.78,0,0,0-1.61,0,2.64,2.64,0,0,0-1.54.81,2.86,2.86,0,0,0-.7,1.63,3.25,3.25,0,0,0,.37,1.71,5.28,5.28,0,0,0,2.1,2,4.72,4.72,0,0,0,2.45.32,6.92,6.92,0,0,0,1.25-.25,9.42,9.42,0,0,0,1.42-.5,3.36,3.36,0,0,0,1.38-1.2A2.82,2.82,0,0,0,394.91,735.59Zm.39-.06a18,18,0,0,1,.27,2.19,6.52,6.52,0,0,1-.27,2.51,4.85,4.85,0,0,1-1.57,2.26,6.16,6.16,0,0,1-2.57,1.15,6.36,6.36,0,0,1-5.34-1.46,5.54,5.54,0,0,1-2.06-4.76A10.09,10.09,0,0,1,385.2,733a10.37,10.37,0,0,1,1.45-2,5.56,5.56,0,0,1,2.21-1.41,4.77,4.77,0,0,1,2.7,0,4.4,4.4,0,0,1,2.21,1.52,6.52,6.52,0,0,1,1.07,2.27C395,734.14,395.17,734.84,395.3,735.53Z"/><circle class="cls-1" cx="465.25" cy="736.14" r="5.2"/><path d="M470.25,736.13a2.71,2.71,0,0,0-.66-1.81,3.41,3.41,0,0,0-1.56-1c-1.11-.32-1.84-.45-2.79-.73a6,6,0,0,0-1.59-.26,2.71,2.71,0,0,0-1.65.55,2.86,2.86,0,0,0-.95,1.5,3.15,3.15,0,0,0,.09,1.75,5.23,5.23,0,0,0,1.75,2.35,4.67,4.67,0,0,0,2.36.7,6.12,6.12,0,0,0,1.28-.05,7.71,7.71,0,0,0,1.48-.26,3.36,3.36,0,0,0,1.56-1A2.87,2.87,0,0,0,470.25,736.13Zm.4,0a21,21,0,0,1-.08,2.2,7,7,0,0,1-.68,2.44,4.78,4.78,0,0,1-1.91,2,6.16,6.16,0,0,1-2.72.72,6.36,6.36,0,0,1-5-2.29,5.59,5.59,0,0,1-1.27-2.43,5.71,5.71,0,0,1,0-2.6,10.1,10.1,0,0,1,2.13-4.16,10.77,10.77,0,0,1,1.74-1.69,5.43,5.43,0,0,1,2.41-1,4.64,4.64,0,0,1,2.66.4,4.31,4.31,0,0,1,1.94,1.86,6.59,6.59,0,0,1,.7,2.41C470.61,734.71,470.63,735.42,470.65,736.13Z"/><ellipse class="cls-1" cx="496.5" cy="757.68" rx="4.55" ry="5.2" transform="translate(-326.51 1136.15) rotate(-81.46)"/><path d="M501.45,758.42a2.21,2.21,0,0,0-.44-1.72,3,3,0,0,0-1.42-.94,18.47,18.47,0,0,1-2.66-.93,8.58,8.58,0,0,0-1.48-.55,2.69,2.69,0,0,0-1.66.11,2.52,2.52,0,0,0-1.18,1.12,2.48,2.48,0,0,0-.17,1.56,3.31,3.31,0,0,0,.6,1.25,4.25,4.25,0,0,0,.83.86,6.13,6.13,0,0,0,2.27.89,9.38,9.38,0,0,0,1.28.18,12,12,0,0,0,1.44.12,2.89,2.89,0,0,0,1.64-.45A2.27,2.27,0,0,0,501.45,758.42Zm.39.06a11,11,0,0,1-.45,2,6.24,6.24,0,0,1-1.17,2.13,4.71,4.71,0,0,1-2.16,1.42,6.49,6.49,0,0,1-2.55.21,6.63,6.63,0,0,1-4.44-2.56,5.25,5.25,0,0,1-1.09-2.44,4.84,4.84,0,0,1,.3-2.55,7.86,7.86,0,0,1,2.85-3.46,7.76,7.76,0,0,1,4.3-1.75,4.4,4.4,0,0,1,4.05,2.51,6,6,0,0,1,.5,2.36A12.52,12.52,0,0,1,501.84,758.48Z"/><path class="cls-1" d="M529.57,812.07a5.2,5.2,0,1,0-5.9,4.38A5.58,5.58,0,0,0,529.57,812.07Z"/><path d="M529.37,812a2.75,2.75,0,0,0-.16-1.45,3,3,0,0,0-.86-1.15,8.58,8.58,0,0,0-2.14-1.08c-.62-.25-1.21-.55-2-.85a3,3,0,0,0-2.53.11,2.84,2.84,0,0,0-1.35,2.22,4.34,4.34,0,0,0,.61,2.36,7,7,0,0,0,.58.85,3.93,3.93,0,0,0,.73.63,6.07,6.07,0,0,0,1.72.66l-.24,0a10.45,10.45,0,0,0,1.38,0,15,15,0,0,0,1.58-.08,3.56,3.56,0,0,0,1.71-.65A2.53,2.53,0,0,0,529.37,812Zm.4.05a12.14,12.14,0,0,1-.48,2.12,7.41,7.41,0,0,1-1.08,2.21,5.23,5.23,0,0,1-2,1.63,6.74,6.74,0,0,1-2.59.53h-.23a6.07,6.07,0,0,1-4.65-9.29,11.37,11.37,0,0,1,2.22-2.68,8.35,8.35,0,0,1,3.18-1.88,4.71,4.71,0,0,1,3.9.59,4.6,4.6,0,0,1,1.37,1.51,5.51,5.51,0,0,1,.57,1.88A15.91,15.91,0,0,1,529.77,812.09Z"/><ellipse class="cls-1" cx="397.86" cy="851.71" rx="5.2" ry="4.55" transform="translate(-118.13 65.92) rotate(-8.25)"/><path d="M402.8,851a2.18,2.18,0,0,0-.9-1.52,3.06,3.06,0,0,0-1.63-.49,18.27,18.27,0,0,1-2.81-.13,8,8,0,0,0-1.58-.1,2.64,2.64,0,0,0-1.55.58,2.34,2.34,0,0,0-.81,1.4,2.39,2.39,0,0,0,.27,1.54,3.88,3.88,0,0,0,1.95,1.62,6.11,6.11,0,0,0,2.43.21,7.58,7.58,0,0,0,1.21-.19,13.32,13.32,0,0,0,1.42-.33,3.33,3.33,0,0,0,1.47-.92A2.13,2.13,0,0,0,402.8,851Zm.4-.06a10.3,10.3,0,0,1,.09,2.1,6.92,6.92,0,0,1-.52,2.33,4.76,4.76,0,0,1-1.6,2,6.29,6.29,0,0,1-2.43,1,6.6,6.6,0,0,1-5-1.21,5.3,5.3,0,0,1-1.73-2,4.91,4.91,0,0,1-.42-2.53,8,8,0,0,1,1.76-4.11,7.82,7.82,0,0,1,3.61-2.9,4.37,4.37,0,0,1,4.59,1.24,5.71,5.71,0,0,1,1.15,2.11A13.71,13.71,0,0,1,403.2,850.94Z"/><ellipse class="cls-1" cx="566.29" cy="859.03" rx="4.55" ry="5.2" transform="translate(-20.2 13.66) rotate(-1.36)"/><path d="M570.64,858.92a2.83,2.83,0,0,0-.62-1.72,3.59,3.59,0,0,0-1.44-1c-.5-.19-.93-.27-1.29-.38l-1.09-.32a3.7,3.7,0,0,0-1.38-.22,2.2,2.2,0,0,0-1.45.65,3,3,0,0,0-.54,3.18,6.22,6.22,0,0,0,1.63,2.34,3.24,3.24,0,0,0,1.9.64,3.48,3.48,0,0,0,1-.06,5.93,5.93,0,0,0,1.3-.32,3.33,3.33,0,0,0,1.4-1.05A2.9,2.9,0,0,0,570.64,858.92Zm.4,0c0,.66.06,1.33.06,2.06a7,7,0,0,1-.33,2.37,4.35,4.35,0,0,1-1.62,2.13,5.26,5.26,0,0,1-2.69.89,5.32,5.32,0,0,1-2.79-.62,5.87,5.87,0,0,1-2.08-1.83,5.73,5.73,0,0,1-1-4.75,13,13,0,0,1,1.71-4,8.34,8.34,0,0,1,1.46-1.82,4.58,4.58,0,0,1,2.31-1.16,4.15,4.15,0,0,1,2.65.44,4,4,0,0,1,1.75,1.94,6.67,6.67,0,0,1,.45,2.33Z"/><path class="cls-1" d="M577.36,869c.09-2.6-2.12-4.63-5-4.72s-5.27,1.77-5.35,4.37,2.12,4.62,5,4.72A4.63,4.63,0,0,0,577.36,869Z"/><path d="M577.16,869a2.35,2.35,0,0,0-.34-1.3,2.48,2.48,0,0,0-1-.87,9.35,9.35,0,0,0-2.22-.52c-.64-.14-1.29-.34-2.07-.57a3.14,3.14,0,0,0-2.42.15,2.31,2.31,0,0,0-1.18,2,2.94,2.94,0,0,0,.87,2,3.7,3.7,0,0,0,1.47,1,8.15,8.15,0,0,0,1.82.35l.24,0a5.2,5.2,0,0,0,1.12.13,8.22,8.22,0,0,0,1.37,0,3.06,3.06,0,0,0,1.58-.71A2.44,2.44,0,0,0,577.16,869Zm.4,0a12.32,12.32,0,0,1-.2,2.12,6,6,0,0,1-.85,2.3,4.37,4.37,0,0,1-2.06,1.72,6,6,0,0,1-2.75.35l.24,0a6.51,6.51,0,0,1-3.68-1.18,5.84,5.84,0,0,1-2.38-3.16,5,5,0,0,1-.12-1.95,7.35,7.35,0,0,1,.53-1.74,8.91,8.91,0,0,1,2-2.64,9.18,9.18,0,0,1,2.88-1.94,4.66,4.66,0,0,1,3.61.07,4.52,4.52,0,0,1,2.4,2.81A10.43,10.43,0,0,1,577.56,869Z"/><ellipse class="cls-1" cx="522.02" cy="872.55" rx="4.55" ry="5.2" transform="translate(-142.22 102.73) rotate(-9.9)"/><path d="M526.31,871.81a2.76,2.76,0,0,0-.87-1.61,3.32,3.32,0,0,0-1.57-.78,12.43,12.43,0,0,0-1.33-.18l-1.13-.17a3.81,3.81,0,0,0-1.39,0,2.22,2.22,0,0,0-1.35.85,3,3,0,0,0,0,3.23,6.24,6.24,0,0,0,2,2.07,3.23,3.23,0,0,0,2,.35,3.88,3.88,0,0,0,1-.2,5.92,5.92,0,0,0,1.24-.52,3.25,3.25,0,0,0,1.23-1.24A2.88,2.88,0,0,0,526.31,871.81Zm.39-.07c.12.65.26,1.3.37,2a6.82,6.82,0,0,1,0,2.39,4.29,4.29,0,0,1-1.28,2.35,5.26,5.26,0,0,1-2.53,1.28,5.42,5.42,0,0,1-2.85-.19,6,6,0,0,1-2.33-1.51,5.72,5.72,0,0,1-1.64-4.56,13.38,13.38,0,0,1,1.09-4.23,8.87,8.87,0,0,1,1.17-2,4.69,4.69,0,0,1,2.12-1.49,4.07,4.07,0,0,1,2.69,0,4,4,0,0,1,2,1.66,6.58,6.58,0,0,1,.79,2.23Z"/><path class="cls-1" d="M614.37,886.46c.19-2.59-1.93-4.71-4.84-4.93s-5.34,1.54-5.53,4.14,1.92,4.71,4.83,4.93A4.63,4.63,0,0,0,614.37,886.46Z"/><path d="M614.17,886.45a2.4,2.4,0,0,0-.29-1.32,2.49,2.49,0,0,0-1-.91,9.63,9.63,0,0,0-2.19-.61c-.64-.17-1.28-.4-2.05-.66a3.11,3.11,0,0,0-2.43,0,2.32,2.32,0,0,0-1.26,2,2.93,2.93,0,0,0,.78,2,3.72,3.72,0,0,0,1.43,1.07,8,8,0,0,0,1.81.44l.23,0a5.23,5.23,0,0,0,1.12.17,7.58,7.58,0,0,0,1.37,0,3.1,3.1,0,0,0,1.61-.64A2.43,2.43,0,0,0,614.17,886.45Zm.4,0a13.71,13.71,0,0,1-.29,2.1,6,6,0,0,1-.95,2.26,4.33,4.33,0,0,1-2.14,1.63,5.71,5.71,0,0,1-2.75.23l.23,0A6.49,6.49,0,0,1,605,891.4a5.85,5.85,0,0,1-2.24-3.26,4.94,4.94,0,0,1,0-1.95,6.88,6.88,0,0,1,.61-1.72,8.81,8.81,0,0,1,2.12-2.55,9.05,9.05,0,0,1,3-1.81,4.64,4.64,0,0,1,3.61.22,4.47,4.47,0,0,1,2.27,2.91A10.53,10.53,0,0,1,614.57,886.48Z"/><circle class="cls-1" cx="484.07" cy="924.12" r="4.55"/><path d="M488.33,925a2.26,2.26,0,0,0-.26-1.65,2.87,2.87,0,0,0-1.21-1c-.44-.22-.83-.32-1.16-.48a11.06,11.06,0,0,1-1-.53,5.8,5.8,0,0,0-1.25-.6,2.08,2.08,0,0,0-2.55,1.15,2.63,2.63,0,0,0-.19,1.49,4.49,4.49,0,0,0,1.08,2.21,4.18,4.18,0,0,0,1.73.91,3.16,3.16,0,0,0,.87.18,9.86,9.86,0,0,0,1.34.09,3.47,3.47,0,0,0,1.61-.41A2.1,2.1,0,0,0,488.33,925Zm.39.08a13.22,13.22,0,0,1-.54,1.89,7,7,0,0,1-1,2,4.36,4.36,0,0,1-1.93,1.46,5.12,5.12,0,0,1-2.68.19,5.71,5.71,0,0,1-4-3.08,4.93,4.93,0,0,1,0-4.68,9.62,9.62,0,0,1,2.69-3.17,9,9,0,0,1,1.84-1.17,4.86,4.86,0,0,1,2.3-.48,4.08,4.08,0,0,1,2.27.84,3.8,3.8,0,0,1,1.33,2.05,5.61,5.61,0,0,1,.07,2.26C489,923.89,488.83,924.5,488.72,925.1Z"/><ellipse class="cls-1" cx="504.15" cy="924.01" rx="4.55" ry="5.2" transform="matrix(0.02, -1, 1, 0.02, -429.04, 1410.96)"/><path d="M509.15,924.1a2.16,2.16,0,0,0-.65-1.64,2.94,2.94,0,0,0-1.53-.75,18.81,18.81,0,0,1-2.75-.58,8.48,8.48,0,0,0-1.54-.36,2.68,2.68,0,0,0-1.62.32,2.31,2.31,0,0,0-1,2.81,3.85,3.85,0,0,0,1.67,1.93,6,6,0,0,0,2.35.59,8.35,8.35,0,0,0,1.23,0,14.22,14.22,0,0,0,1.46-.11,3.28,3.28,0,0,0,1.6-.66A2.19,2.19,0,0,0,509.15,924.1Zm.4,0a10.34,10.34,0,0,1-.25,2.08,6.94,6.94,0,0,1-.89,2.22,4.76,4.76,0,0,1-1.9,1.71,6.25,6.25,0,0,1-2.56.57,6.57,6.57,0,0,1-4.71-2,5.27,5.27,0,0,1-1.37-2.29,4.84,4.84,0,0,1,0-2.56,8,8,0,0,1,2.41-3.77,7.74,7.74,0,0,1,4-2.28,4.39,4.39,0,0,1,4.33,2,5.79,5.79,0,0,1,.8,2.27A13.74,13.74,0,0,1,509.55,924.11Z"/><ellipse class="cls-1" cx="562.71" cy="932.24" rx="5.2" ry="4.55" transform="translate(-444.2 1346.78) rotate(-81.26)"/><path d="M567,932.9a2.84,2.84,0,0,0-.31-1.81,3.47,3.47,0,0,0-1.24-1.23,12.1,12.1,0,0,0-1.2-.6l-1-.51a3.81,3.81,0,0,0-1.32-.46,2.25,2.25,0,0,0-1.55.38,3,3,0,0,0-1.08,3,6.13,6.13,0,0,0,1.2,2.59,3.26,3.26,0,0,0,1.75,1,4.64,4.64,0,0,0,1,.12,5.59,5.59,0,0,0,1.34-.1,3.25,3.25,0,0,0,1.56-.78A2.94,2.94,0,0,0,567,932.9Zm.39.06c-.09.65-.17,1.31-.3,2a6.84,6.84,0,0,1-.74,2.27,4.29,4.29,0,0,1-2,1.81,5.33,5.33,0,0,1-5.44-.69,5.86,5.86,0,0,1-1.72-2.17,5.67,5.67,0,0,1-.1-4.84,12.85,12.85,0,0,1,2.38-3.66,8.54,8.54,0,0,1,1.75-1.54,4.71,4.71,0,0,1,2.49-.73,4.07,4.07,0,0,1,2.53.9,4,4,0,0,1,1.38,2.21,6.78,6.78,0,0,1,0,2.37Z"/><ellipse class="cls-1" cx="587.07" cy="939.69" rx="4.55" ry="5.2" transform="translate(-415.72 1410.95) rotate(-83.18)"/><path d="M592,940.29a2.19,2.19,0,0,0-.48-1.71,3,3,0,0,0-1.45-.9,17.64,17.64,0,0,1-2.69-.85,8.79,8.79,0,0,0-1.5-.5,2.6,2.6,0,0,0-1.65.16A2.33,2.33,0,0,0,583,939.2a3.46,3.46,0,0,0,.64,1.24,4.5,4.5,0,0,0,.85.84,6.36,6.36,0,0,0,2.3.81,11.07,11.07,0,0,0,1.29.15c.43,0,.9.1,1.44.08a2.9,2.9,0,0,0,1.62-.51A2.22,2.22,0,0,0,592,940.29Zm.4,0a11.71,11.71,0,0,1-.39,2.07,6,6,0,0,1-1.11,2.16,4.65,4.65,0,0,1-2.11,1.48,6.47,6.47,0,0,1-7.06-2.14,5.28,5.28,0,0,1-1.16-2.4,4.79,4.79,0,0,1,.22-2.56,8,8,0,0,1,2.75-3.54,7.69,7.69,0,0,1,4.24-1.88,4.4,4.4,0,0,1,4.13,2.39,6,6,0,0,1,.57,2.34A12.79,12.79,0,0,1,592.43,940.33Z"/><ellipse class="cls-1" cx="461.27" cy="938.64" rx="4.55" ry="5.2" transform="matrix(0.07, -1, 1, 0.07, -509.12, 1328.71)"/><path d="M466.26,939a2.2,2.2,0,0,0-.56-1.68,2.94,2.94,0,0,0-1.48-.83,19.26,19.26,0,0,1-2.72-.73,7.4,7.4,0,0,0-1.51-.44,2.64,2.64,0,0,0-1.64.22,2.42,2.42,0,0,0-1.1,1.2,2.46,2.46,0,0,0-.07,1.56,3.94,3.94,0,0,0,1.56,2,5.85,5.85,0,0,0,2.32.72,6.94,6.94,0,0,0,1.22.09,12.16,12.16,0,0,0,1.46,0,3.35,3.35,0,0,0,1.64-.58A2.2,2.2,0,0,0,466.26,939Zm.4,0a10.5,10.5,0,0,1-.37,2.07,7.08,7.08,0,0,1-1,2.17,4.83,4.83,0,0,1-2,1.59,6.1,6.1,0,0,1-2.58.43,6.59,6.59,0,0,1-4.59-2.26,5.35,5.35,0,0,1-1.25-2.36,4.91,4.91,0,0,1,.14-2.56,7.93,7.93,0,0,1,2.61-3.63,7.75,7.75,0,0,1,4.15-2,4.4,4.4,0,0,1,4.22,2.21,6,6,0,0,1,.66,2.31A12.11,12.11,0,0,1,466.66,939Z"/><ellipse class="cls-1" cx="601.61" cy="943.46" rx="5.2" ry="4.55" transform="matrix(0.99, -0.1, 0.1, 0.99, -93.33, 66.47)"/><path d="M606.58,943a2.19,2.19,0,0,0-.85-1.55,2.93,2.93,0,0,0-1.61-.56,19.22,19.22,0,0,1-2.81-.24,7.8,7.8,0,0,0-1.57-.16,2.63,2.63,0,0,0-1.58.52,2.36,2.36,0,0,0-.86,1.38,2.38,2.38,0,0,0,.22,1.54,3.32,3.32,0,0,0,.89,1.07,4.4,4.4,0,0,0,1,.63,6.25,6.25,0,0,0,2.42.29,11.06,11.06,0,0,0,1.29-.14,12.77,12.77,0,0,0,1.42-.24,2.94,2.94,0,0,0,1.48-.85A2.29,2.29,0,0,0,606.58,943Zm.4,0a11.12,11.12,0,0,1,.07,2.1,6.19,6.19,0,0,1-.6,2.36,4.82,4.82,0,0,1-1.74,1.9,6.61,6.61,0,0,1-2.42.85,6.68,6.68,0,0,1-4.94-1.38,5.22,5.22,0,0,1-1.66-2.09,4.81,4.81,0,0,1-.35-2.54,7.89,7.89,0,0,1,1.91-4.06,7.69,7.69,0,0,1,3.72-2.77,4.41,4.41,0,0,1,4.55,1.42,5.9,5.9,0,0,1,1.07,2.16A12.47,12.47,0,0,1,607,942.91Z"/><circle class="cls-1" cx="508.1" cy="949.45" r="5.2"/><path d="M513.05,950.1a2.67,2.67,0,0,0-.41-1.87,3.47,3.47,0,0,0-1.41-1.19c-1.06-.46-1.76-.68-2.67-1.09a6.18,6.18,0,0,0-1.54-.47,2.7,2.7,0,0,0-1.71.33,2.76,2.76,0,0,0-1.14,1.36,3.14,3.14,0,0,0-.14,1.74,5.14,5.14,0,0,0,1.42,2.57,4.69,4.69,0,0,0,2.25,1,6.49,6.49,0,0,0,1.26.12,8.1,8.1,0,0,0,1.51-.07,3.34,3.34,0,0,0,1.67-.74A2.77,2.77,0,0,0,513.05,950.1Zm.4.06a20.54,20.54,0,0,1-.37,2.17,7,7,0,0,1-1,2.32,4.76,4.76,0,0,1-2.16,1.71,6.2,6.2,0,0,1-2.8.36,6.37,6.37,0,0,1-4.68-2.94,5.61,5.61,0,0,1-.94-2.58,5.55,5.55,0,0,1,.35-2.58,10,10,0,0,1,2.66-3.83,10.41,10.41,0,0,1,2-1.45,5.48,5.48,0,0,1,2.53-.7,4.7,4.7,0,0,1,2.58.75,4.37,4.37,0,0,1,1.68,2.1,6.47,6.47,0,0,1,.36,2.48A21.17,21.17,0,0,1,513.45,950.16Z"/><ellipse class="cls-1" cx="567.23" cy="949.42" rx="5.2" ry="4.55" transform="translate(-428.45 1430.85) rotate(-84.95)"/><path d="M571.57,949.81a2.79,2.79,0,0,0-.43-1.78,3.3,3.3,0,0,0-1.32-1.16,11.64,11.64,0,0,0-1.23-.52l-1.05-.45a4,4,0,0,0-1.34-.36,2.2,2.2,0,0,0-1.52.48,3,3,0,0,0-.89,3.1,6.31,6.31,0,0,0,1.36,2.51,3.19,3.19,0,0,0,1.81.84,3.74,3.74,0,0,0,1,.06,5.56,5.56,0,0,0,1.33-.18,3.36,3.36,0,0,0,1.51-.88A3,3,0,0,0,571.57,949.81Zm.39,0c-.05.66-.08,1.32-.16,2a6.93,6.93,0,0,1-.6,2.32,4.3,4.3,0,0,1-1.84,1.94,5.4,5.4,0,0,1-5.48-.34,6.08,6.08,0,0,1-1.86-2.06,5.7,5.7,0,0,1-.41-4.82,13.1,13.1,0,0,1,2.14-3.81,8.08,8.08,0,0,1,1.66-1.64,4.55,4.55,0,0,1,2.43-.9,4.14,4.14,0,0,1,2.58.74,4,4,0,0,1,1.52,2.12,6.67,6.67,0,0,1,.19,2.36Z"/><ellipse class="cls-1" cx="503.44" cy="961.33" rx="5.2" ry="4.55" transform="translate(-114.91 69.56) rotate(-7.1)"/><path d="M508.4,960.71a2.2,2.2,0,0,0-.88-1.54,3,3,0,0,0-1.62-.52,19.43,19.43,0,0,1-2.81-.18,8.79,8.79,0,0,0-1.58-.13,2.67,2.67,0,0,0-1.56.56,2.33,2.33,0,0,0-.58,2.94,3.23,3.23,0,0,0,.91,1,4.36,4.36,0,0,0,1,.61,6.11,6.11,0,0,0,2.43.23,9,9,0,0,0,1.28-.16,12.92,12.92,0,0,0,1.42-.27,3,3,0,0,0,1.46-.88A2.3,2.3,0,0,0,508.4,960.71Zm.4-.05a11.76,11.76,0,0,1,.12,2.1,6.32,6.32,0,0,1-.55,2.37,4.9,4.9,0,0,1-1.7,1.94,6.48,6.48,0,0,1-7.37-.38,5.33,5.33,0,0,1-1.71-2.05,4.79,4.79,0,0,1-.39-2.53A7.87,7.87,0,0,1,499,958a7.7,7.7,0,0,1,3.65-2.84,4.4,4.4,0,0,1,4.59,1.33,5.82,5.82,0,0,1,1.11,2.13A12.41,12.41,0,0,1,508.8,960.66Z"/><path class="cls-1" d="M557.79,964.77a5.2,5.2,0,1,0-5.59,4.78C555.14,969.45,557.59,967.36,557.79,964.77Z"/><path d="M557.59,964.75a2.92,2.92,0,0,0-.26-1.43,3.1,3.1,0,0,0-.94-1.09,8.77,8.77,0,0,0-2.21-.92c-.64-.21-1.25-.47-2-.72a3,3,0,0,0-2.52.29,2.8,2.8,0,0,0-1.19,2.3,4.25,4.25,0,0,0,.77,2.32,7.85,7.85,0,0,0,.63.81,3.79,3.79,0,0,0,.78.57,5.92,5.92,0,0,0,1.76.55h-.24a9.28,9.28,0,0,0,1.38-.06,10.77,10.77,0,0,0,1.57-.19,3.54,3.54,0,0,0,1.66-.76A2.56,2.56,0,0,0,557.59,964.75Zm.4,0a13.06,13.06,0,0,1-.33,2.15,7.32,7.32,0,0,1-.93,2.27,5.35,5.35,0,0,1-1.91,1.78,6.78,6.78,0,0,1-2.55.7H552a6.19,6.19,0,0,1-3.9-1.61,5.84,5.84,0,0,1-1.38-7.33,10.91,10.91,0,0,1,2-2.82,8.37,8.37,0,0,1,3-2.1,4.69,4.69,0,0,1,3.93.32,4.5,4.5,0,0,1,1.47,1.41,5.68,5.68,0,0,1,.7,1.84A15.67,15.67,0,0,1,558,964.78Z"/><ellipse class="cls-1" cx="631.9" cy="967.28" rx="5.2" ry="4.55" transform="translate(-367.51 1547.02) rotate(-86.96)"/><path d="M636.24,967.51a2.79,2.79,0,0,0-.49-1.77,3.35,3.35,0,0,0-1.35-1.1,11.35,11.35,0,0,0-1.26-.48l-1.06-.41a3.83,3.83,0,0,0-1.36-.32,2.24,2.24,0,0,0-1.5.53,3,3,0,0,0-.77,3.13,6,6,0,0,0,1.44,2.46,3.31,3.31,0,0,0,1.84.79,4.25,4.25,0,0,0,1,0,5.82,5.82,0,0,0,1.32-.23,3.28,3.28,0,0,0,1.48-.93A2.87,2.87,0,0,0,636.24,967.51Zm.4,0c0,.66,0,1.32-.09,2.06a6.88,6.88,0,0,1-.52,2.33,4.37,4.37,0,0,1-1.77,2,5.37,5.37,0,0,1-2.75.68,5.27,5.27,0,0,1-2.74-.83,5.91,5.91,0,0,1-1.93-2,5.67,5.67,0,0,1-.58-4.8,13.16,13.16,0,0,1,2-3.89,8.63,8.63,0,0,1,1.59-1.69,4.62,4.62,0,0,1,2.4-1,4.11,4.11,0,0,1,2.61.64,4,4,0,0,1,1.59,2.07,6.76,6.76,0,0,1,.27,2.35Z"/><circle class="cls-1" cx="457.34" cy="966.87" r="5.2"/><path d="M462.34,966.85a2.71,2.71,0,0,0-.66-1.81,3.5,3.5,0,0,0-1.55-1c-1.12-.31-1.84-.44-2.8-.72a6,6,0,0,0-1.59-.26,2.72,2.72,0,0,0-1.65.56,2.78,2.78,0,0,0-.94,1.5,3.06,3.06,0,0,0,.09,1.75,5.23,5.23,0,0,0,1.75,2.35,4.62,4.62,0,0,0,2.37.69,6,6,0,0,0,1.27,0,8.57,8.57,0,0,0,1.48-.26,3.47,3.47,0,0,0,1.56-1A2.8,2.8,0,0,0,462.34,966.85Zm.4,0a18.48,18.48,0,0,1-.07,2.2,6.78,6.78,0,0,1-.67,2.44,4.73,4.73,0,0,1-1.91,2,6.15,6.15,0,0,1-2.72.74,6.42,6.42,0,0,1-5-2.29,5.57,5.57,0,0,1-1.28-5,10.21,10.21,0,0,1,2.12-4.16,10.77,10.77,0,0,1,1.74-1.69,5.51,5.51,0,0,1,2.41-1,4.64,4.64,0,0,1,2.66.4,4.34,4.34,0,0,1,1.94,1.85,6.59,6.59,0,0,1,.7,2.41A20.94,20.94,0,0,1,462.74,966.85Z"/><path class="cls-1" d="M365,967.17c-.13-2.6-2.51-4.43-5.43-4.27s-5.09,2.22-4.95,4.82,2.51,4.42,5.43,4.27A4.63,4.63,0,0,0,365,967.17Z"/><path d="M364.81,967.18a2.22,2.22,0,0,0-1.53-2,9.12,9.12,0,0,0-2.25-.33c-.66-.08-1.32-.23-2.11-.39a3.15,3.15,0,0,0-2.41.35,2.33,2.33,0,0,0-1,2.13,2.94,2.94,0,0,0,1,1.88,3.74,3.74,0,0,0,1.55.87,8,8,0,0,0,1.85.2h.23a5.32,5.32,0,0,0,1.13,0,8.5,8.5,0,0,0,1.37-.16,3.08,3.08,0,0,0,1.51-.85A2.38,2.38,0,0,0,364.81,967.18Zm.4,0a12.54,12.54,0,0,1,0,2.12,6.16,6.16,0,0,1-.65,2.37,4.41,4.41,0,0,1-1.91,1.89,5.74,5.74,0,0,1-2.7.58h.23a6.52,6.52,0,0,1-3.76-.85,5.86,5.86,0,0,1-2.65-2.95,5,5,0,0,1-.28-1.93,6.71,6.71,0,0,1,.38-1.77,8.7,8.7,0,0,1,1.78-2.81,9.05,9.05,0,0,1,2.7-2.18,4.7,4.7,0,0,1,3.61-.25,4.54,4.54,0,0,1,2.63,2.59A10.35,10.35,0,0,1,365.21,967.16Z"/><ellipse class="cls-1" cx="420.65" cy="975.97" rx="5.2" ry="4.55" transform="translate(-589.3 1306.82) rotate(-84.82)"/><path d="M425,976.37a2.85,2.85,0,0,0-.42-1.78,3.59,3.59,0,0,0-1.31-1.16c-.48-.25-.9-.37-1.24-.52l-1-.45a3.76,3.76,0,0,0-1.34-.38,2.22,2.22,0,0,0-1.52.47,3,3,0,0,0-.9,3.09,6.34,6.34,0,0,0,1.33,2.52,3.3,3.3,0,0,0,1.8.86,3.15,3.15,0,0,0,.94.06,6.76,6.76,0,0,0,1.36-.21,3.57,3.57,0,0,0,1.54-.87A2.75,2.75,0,0,0,425,976.37Zm.4,0c-.06.67-.12,1.33-.22,2.06a7.45,7.45,0,0,1-.63,2.27,4.39,4.39,0,0,1-1.79,1.94,5.14,5.14,0,0,1-2.83.6,5.37,5.37,0,0,1-2.69-1,5.93,5.93,0,0,1-1.83-2.07,5.7,5.7,0,0,1-.36-4.81,13.17,13.17,0,0,1,2.16-3.79,9.18,9.18,0,0,1,1.66-1.63,4.59,4.59,0,0,1,2.44-.87,4.11,4.11,0,0,1,2.57.74,4,4,0,0,1,1.5,2.13,6.66,6.66,0,0,1,.18,2.36Z"/><path class="cls-1" d="M317.47,970.18c0-2.6-2.27-4.56-5.19-4.57s-5.21,1.94-5.21,4.54,2.26,4.56,5.19,4.56A4.63,4.63,0,0,0,317.47,970.18Z"/><path d="M317.27,970.17a2.47,2.47,0,0,0-.39-1.29,2.44,2.44,0,0,0-1-.83,9.07,9.07,0,0,0-2.23-.45c-.65-.12-1.31-.3-2.09-.5a3.1,3.1,0,0,0-2.42.21,2.36,2.36,0,0,0-1.12,2.07,3,3,0,0,0,.93,1.93,3.81,3.81,0,0,0,1.51,1,8.33,8.33,0,0,0,1.83.29l.24,0a5.91,5.91,0,0,0,1.12.09,7.87,7.87,0,0,0,1.38-.09,2.9,2.9,0,0,0,1.55-.76A2.37,2.37,0,0,0,317.27,970.17Zm.4,0a14.21,14.21,0,0,1-.13,2.11,6.12,6.12,0,0,1-.78,2.33,4.44,4.44,0,0,1-2,1.79,5.86,5.86,0,0,1-2.74.43h.24a6.5,6.5,0,0,1-3.72-1.06,5.84,5.84,0,0,1-2.47-3.08,5,5,0,0,1-.18-2,6.94,6.94,0,0,1,.48-1.75,10.33,10.33,0,0,1,4.75-4.73,4.66,4.66,0,0,1,3.61,0,4.51,4.51,0,0,1,2.49,2.73A10.65,10.65,0,0,1,317.67,970.18Z"/><circle class="cls-1" cx="348.81" cy="1001.95" r="4.55"/><path d="M353.16,1002.13a2.28,2.28,0,0,0-.54-1.6,2.83,2.83,0,0,0-1.37-.83,14.66,14.66,0,0,1-2.32-.63,5.25,5.25,0,0,0-1.34-.37,2.17,2.17,0,0,0-1.46.34,2.2,2.2,0,0,0-.85,1.25,2.59,2.59,0,0,0,.08,1.51,4.47,4.47,0,0,0,1.46,2,4.27,4.27,0,0,0,1.89.58,6,6,0,0,0,1,0,7.27,7.27,0,0,0,1.27-.06,2.72,2.72,0,0,0,1.44-.69A2.39,2.39,0,0,0,353.16,1002.13Zm.4,0c0,.63,0,1.26-.11,2a6,6,0,0,1-.63,2.22,4.19,4.19,0,0,1-1.8,1.76,5.7,5.7,0,0,1-2.49.56,5.81,5.81,0,0,1-4.5-2.29,5,5,0,0,1-.86-4.63,9.9,9.9,0,0,1,2.09-3.62,9.22,9.22,0,0,1,1.61-1.48,4.89,4.89,0,0,1,2.2-.88,4.11,4.11,0,0,1,2.39.45,3.86,3.86,0,0,1,1.67,1.79,5.76,5.76,0,0,1,.45,2.23C353.6,1000.9,353.57,1001.52,353.56,1002.14Z"/><path class="cls-1" d="M320.85,1007.87a5.2,5.2,0,1,0-5.83,4.49A5.59,5.59,0,0,0,320.85,1007.87Z"/><path d="M320.65,1007.84a2.76,2.76,0,0,0-1.07-2.58,8.65,8.65,0,0,0-2.16-1c-.62-.24-1.22-.54-2-.82a3,3,0,0,0-2.53.15,2.85,2.85,0,0,0-1.31,2.24,4.27,4.27,0,0,0,.65,2.35,7.09,7.09,0,0,0,.6.85,3.59,3.59,0,0,0,.74.61,6.21,6.21,0,0,0,1.73.64l-.24,0a10.55,10.55,0,0,0,1.38,0,13.28,13.28,0,0,0,1.58-.11,3.45,3.45,0,0,0,1.69-.68A2.5,2.5,0,0,0,320.65,1007.84Zm.4,0a13.24,13.24,0,0,1-.44,2.13,7.36,7.36,0,0,1-1.05,2.22,5.2,5.2,0,0,1-2,1.67,6.79,6.79,0,0,1-2.59.58h-.23a6.26,6.26,0,0,1-3.81-1.81,6.37,6.37,0,0,1-1.85-3.69,6.28,6.28,0,0,1,.85-3.7,10.75,10.75,0,0,1,2.17-2.72,8.28,8.28,0,0,1,3.14-1.94,4.71,4.71,0,0,1,3.91.52,4.53,4.53,0,0,1,1.4,1.49,5.45,5.45,0,0,1,.6,1.87A15.58,15.58,0,0,1,321.05,1007.89Z"/><circle class="cls-1" cx="442.42" cy="1012.36" r="5.2"/><path d="M447.35,1013.24a2.77,2.77,0,0,0-.33-1.89,3.42,3.42,0,0,0-1.35-1.25c-1-.51-1.73-.77-2.62-1.22a5.91,5.91,0,0,0-1.52-.54,2.72,2.72,0,0,0-1.72.25,2.82,2.82,0,0,0-1.2,1.31,3.13,3.13,0,0,0-.23,1.73,5.3,5.3,0,0,0,1.3,2.63,4.7,4.7,0,0,0,2.2,1.11,5.89,5.89,0,0,0,1.26.18,8.35,8.35,0,0,0,1.51,0,3.35,3.35,0,0,0,1.7-.67A2.81,2.81,0,0,0,447.35,1013.24Zm.39.07a18.56,18.56,0,0,1-.47,2.15,6.65,6.65,0,0,1-1.1,2.28,4.82,4.82,0,0,1-2.24,1.61,6.17,6.17,0,0,1-2.8.23,6.38,6.38,0,0,1-4.55-3.16,5.67,5.67,0,0,1-.82-2.62,5.73,5.73,0,0,1,.47-2.56,10.11,10.11,0,0,1,2.84-3.71,11,11,0,0,1,2-1.35,5.44,5.44,0,0,1,2.56-.58,4.68,4.68,0,0,1,2.55.87,4.3,4.3,0,0,1,1.57,2.17,6.26,6.26,0,0,1,.25,2.5C448,1011.92,447.85,1012.62,447.74,1013.31Z"/><ellipse class="cls-1" cx="331.79" cy="1019.62" rx="4.55" ry="5.2" transform="translate(-53.06 18.82) rotate(-3.01)"/><path d="M336.13,1019.39a2.74,2.74,0,0,0-.67-1.7,3.51,3.51,0,0,0-1.47-1c-.5-.18-.94-.24-1.29-.34l-1.1-.3a3.79,3.79,0,0,0-1.39-.17,2.23,2.23,0,0,0-1.43.69,3,3,0,0,0-.45,3.19,6.34,6.34,0,0,0,1.7,2.3,3.23,3.23,0,0,0,1.92.58,3.82,3.82,0,0,0,1-.08,6.21,6.21,0,0,0,1.29-.37,3.2,3.2,0,0,0,1.37-1.08A2.91,2.91,0,0,0,336.13,1019.39Zm.4,0c0,.66.1,1.33.12,2.06a7.1,7.1,0,0,1-.26,2.37,4.35,4.35,0,0,1-1.56,2.18,5.34,5.34,0,0,1-5.47.43,6,6,0,0,1-2.13-1.77,5.71,5.71,0,0,1-1.08-4.72,13.09,13.09,0,0,1,1.59-4.07,8.4,8.4,0,0,1,1.4-1.86,4.7,4.7,0,0,1,2.28-1.23,4.09,4.09,0,0,1,2.66.37,3.92,3.92,0,0,1,1.8,1.89,6.46,6.46,0,0,1,.52,2.31Z"/><circle class="cls-1" cx="320.86" cy="1026.01" r="4.55"/><path d="M325.21,1026.26a2.25,2.25,0,0,0-.51-1.6,2.75,2.75,0,0,0-1.36-.86,14.11,14.11,0,0,1-2.31-.67,5.47,5.47,0,0,0-1.33-.39,2.15,2.15,0,0,0-1.46.31,2.25,2.25,0,0,0-.88,1.24,2.71,2.71,0,0,0,.05,1.52,4.57,4.57,0,0,0,1.43,2,4.44,4.44,0,0,0,1.88.61,7.4,7.4,0,0,0,1,.06,8,8,0,0,0,1.27,0,2.83,2.83,0,0,0,1.45-.67A2.42,2.42,0,0,0,325.21,1026.26Zm.4,0c0,.62-.06,1.25-.14,2a6,6,0,0,1-.67,2.2,4.2,4.2,0,0,1-1.82,1.74,5.67,5.67,0,0,1-7-1.85,4.92,4.92,0,0,1-.79-4.64,9.81,9.81,0,0,1,2.15-3.59,9.25,9.25,0,0,1,1.63-1.45,4.81,4.81,0,0,1,2.21-.84,4.15,4.15,0,0,1,2.38.48,3.83,3.83,0,0,1,1.65,1.82,5.59,5.59,0,0,1,.41,2.24C325.67,1025,325.63,1025.66,325.61,1026.28Z"/><ellipse class="cls-1" cx="323.73" cy="1042.57" rx="4.55" ry="5.2" transform="translate(-729.28 1330.52) rotate(-88.04)"/><path d="M328.73,1042.74a2.22,2.22,0,0,0-.63-1.66,3,3,0,0,0-1.52-.77,18.77,18.77,0,0,1-2.75-.62,8.46,8.46,0,0,0-1.54-.38,2.71,2.71,0,0,0-1.63.31,2.38,2.38,0,0,0-1,1.24,2.41,2.41,0,0,0,0,1.57,3.44,3.44,0,0,0,.73,1.18,4.76,4.76,0,0,0,.93.76,6.28,6.28,0,0,0,2.36.61,9.22,9.22,0,0,0,1.29,0c.43,0,.91,0,1.45,0a3,3,0,0,0,1.57-.64A2.33,2.33,0,0,0,328.73,1042.74Zm.4,0a11.18,11.18,0,0,1-.22,2.09,5.93,5.93,0,0,1-.92,2.25,4.65,4.65,0,0,1-2,1.65,6.49,6.49,0,0,1-2.52.51,6.58,6.58,0,0,1-4.7-2,5.33,5.33,0,0,1-1.37-2.29,4.87,4.87,0,0,1,0-2.57,9.38,9.38,0,0,1,6.5-6,4.41,4.41,0,0,1,4.32,2,5.93,5.93,0,0,1,.77,2.28A13.58,13.58,0,0,1,329.13,1042.75Z"/><path class="cls-1" d="M396.77,1085.37a5.2,5.2,0,1,0-4.48,5.84C395.15,1090.5,397.11,1088,396.77,1085.37Z"/><path d="M396.57,1085.4a2.87,2.87,0,0,0-.55-1.35,3,3,0,0,0-1.15-.87,8.22,8.22,0,0,0-2.35-.44c-.66-.07-1.32-.21-2.15-.28a3,3,0,0,0-2.4.8,2.84,2.84,0,0,0-.69,2.5,4.37,4.37,0,0,0,1.23,2.11,8,8,0,0,0,.8.66,4.26,4.26,0,0,0,.87.4,6.25,6.25,0,0,0,1.83.17l-.23,0a9.75,9.75,0,0,0,1.34-.34c.45-.15,1-.28,1.5-.51a3.58,3.58,0,0,0,1.46-1.09A2.53,2.53,0,0,0,396.57,1085.4Zm.4-.05a13.66,13.66,0,0,1,.12,2.16,7.56,7.56,0,0,1-.44,2.42,5.28,5.28,0,0,1-1.5,2.13,6.57,6.57,0,0,1-2.35,1.21l-.06,0-.17,0a6.23,6.23,0,0,1-4.15-.77,6.39,6.39,0,0,1-2.73-3.09,6.2,6.2,0,0,1-.13-3.8,10.84,10.84,0,0,1,1.4-3.18,8.38,8.38,0,0,1,2.54-2.69,4.69,4.69,0,0,1,3.91-.49,4.5,4.5,0,0,1,1.73,1.07,5.57,5.57,0,0,1,1.06,1.66A15.73,15.73,0,0,1,397,1085.35Z"/><circle class="cls-1" cx="375.67" cy="1281.75" r="5.2"/><path d="M380.66,1281.44a2.73,2.73,0,0,0-.77-1.77,3.49,3.49,0,0,0-1.61-.89c-1.13-.25-1.86-.33-2.83-.56a5.79,5.79,0,0,0-1.6-.16,2.67,2.67,0,0,0-1.62.65,2.86,2.86,0,0,0-.86,1.55,3.21,3.21,0,0,0,.2,1.74,5.2,5.2,0,0,0,1.89,2.25,4.71,4.71,0,0,0,2.4.55,6.2,6.2,0,0,0,1.27-.12,8.44,8.44,0,0,0,1.46-.35,3.4,3.4,0,0,0,1.5-1.06A2.85,2.85,0,0,0,380.66,1281.44Zm.4,0a19.79,19.79,0,0,1,.05,2.2,6.92,6.92,0,0,1-.53,2.48,4.76,4.76,0,0,1-1.79,2.09,6.31,6.31,0,0,1-2.67.89,6.4,6.4,0,0,1-5.17-2,5.74,5.74,0,0,1-1.41-2.35,5.59,5.59,0,0,1-.16-2.59,10.21,10.21,0,0,1,1.88-4.28,9.78,9.78,0,0,1,1.64-1.79,5.47,5.47,0,0,1,2.34-1.18,4.66,4.66,0,0,1,2.68.24,4.37,4.37,0,0,1,2.05,1.74,6.58,6.58,0,0,1,.84,2.36C380.94,1280,381,1280.71,381.06,1281.41Z"/></g></svg>