<svg id="Annotations" xmlns="http://www.w3.org/2000/svg" width="18in" height="18in" viewBox="0 0 1296 1296"><defs><style>.cls-1{fill:#fff;stroke:#000;stroke-miterlimit:10;stroke-width:2px;}</style></defs><g id="Gages"><g id="Enhanced"><ellipse class="cls-1" cx="386.05" cy="922.91" rx="4.09" ry="4.32" transform="translate(-110.56 54.48) rotate(-7.06)"/><ellipse class="cls-1" cx="637.72" cy="184.48" rx="3.97" ry="4.28" transform="translate(-12.62 51.15) rotate(-4.55)"/><ellipse class="cls-1" cx="616.47" cy="773.12" rx="4.29" ry="4.02" transform="translate(-298.83 1147.26) rotate(-73.66)"/><ellipse class="cls-1" cx="620.51" cy="196.17" rx="4.47" ry="3.76" transform="translate(338.51 782.67) rotate(-81.86)"/><ellipse class="cls-1" cx="600.76" cy="192.03" rx="4.23" ry="3.91" transform="translate(359.23 774.65) rotate(-85.21)"/><ellipse class="cls-1" cx="528.75" cy="178.17" rx="3.94" ry="4.04" transform="translate(-2.65 8.07) rotate(-0.87)"/><ellipse class="cls-1" cx="556.03" cy="825.57" rx="4.51" ry="3.98" transform="translate(-298.61 1335.8) rotate(-86.88)"/><ellipse class="cls-1" cx="512.02" cy="268.1" rx="3.9" ry="4.23" transform="matrix(0.99, -0.15, 0.15, 0.99, -33.55, 77.34)"/><ellipse class="cls-1" cx="452.78" cy="977.71" rx="3.85" ry="4.09" transform="translate(-624.48 998.62) rotate(-66.26)"/><ellipse class="cls-1" cx="663.45" cy="250.41" rx="4.31" ry="3.98" transform="matrix(0.01, -1, 1, 0.01, 407.16, 911.61)"/><ellipse class="cls-1" cx="637.72" cy="184.48" rx="4.19" ry="3.99" transform="matrix(0.23, -0.97, 0.97, 0.23, 308.74, 761.1)"/><ellipse class="cls-1" cx="652.34" cy="261.09" rx="3.96" ry="3.84" transform="translate(294.82 865.98) rotate(-81.23)"/><ellipse class="cls-1" cx="642.18" cy="282.2" rx="3.93" ry="4.14" transform="translate(-58.33 245.85) rotate(-20.75)"/><ellipse class="cls-1" cx="642.18" cy="282.2" rx="3.83" ry="3.99" transform="translate(295.43 891.96) rotate(-84.1)"/><ellipse class="cls-1" cx="646.62" cy="336.96" rx="3.84" ry="4.3" transform="matrix(0.99, -0.14, 0.14, 0.99, -41.7, 96.4)"/><ellipse class="cls-1" cx="628.32" cy="188.03" rx="4.09" ry="3.74" transform="translate(287.07 748.11) rotate(-75.31)"/><ellipse class="cls-1" cx="520.77" cy="236.12" rx="4.34" ry="3.83" transform="translate(214.26 718.82) rotate(-81.98)"/><ellipse class="cls-1" cx="528.75" cy="178.17" rx="4.46" ry="4" transform="translate(229.41 649.04) rotate(-76.18)"/><ellipse class="cls-1" cx="650.26" cy="396.22" rx="4.06" ry="4.63" transform="translate(-64.46 133.54) rotate(-11.18)"/><ellipse class="cls-1" cx="471.34" cy="205.45" rx="4.21" ry="3.79" transform="translate(262.84 675.45) rotate(-89.63)"/><ellipse class="cls-1" cx="650.26" cy="396.22" rx="3.72" ry="3.95" transform="translate(-41.92 78.87) rotate(-6.72)"/><ellipse class="cls-1" cx="474.01" cy="227.1" rx="4.2" ry="3.98" transform="translate(218.53 686.44) rotate(-86.52)"/><ellipse class="cls-1" cx="563.27" cy="376.08" rx="4.04" ry="3.95" transform="translate(-109.28 296.16) rotate(-26.95)"/><ellipse class="cls-1" cx="614.73" cy="390.29" rx="3.87" ry="4.11" transform="translate(-31.79 55.29) rotate(-5.02)"/><ellipse class="cls-1" cx="628.7" cy="417.55" rx="4.39" ry="3.98" transform="matrix(0.08, -1, 1, 0.08, 162.27, 1010.9)"/><ellipse class="cls-1" cx="628.7" cy="417.55" rx="4.05" ry="4.27" transform="translate(-21.98 35.15) rotate(-3.15)"/><ellipse class="cls-1" cx="652.34" cy="261.09" rx="4.14" ry="3.89" transform="translate(303.65 871.11) rotate(-82.06)"/><ellipse class="cls-1" cx="646.31" cy="843.15" rx="4.58" ry="3.85" transform="translate(-264.85 1389.41) rotate(-83.47)"/><ellipse class="cls-1" cx="610.71" cy="832.15" rx="4.04" ry="3.97" transform="translate(-341.58 433.92) rotate(-31.03)"/><ellipse class="cls-1" cx="390.77" cy="938.56" rx="3.82" ry="4.2" transform="translate(-111.93 54.88) rotate(-7.03)"/><ellipse class="cls-1" cx="386.05" cy="922.91" rx="4.54" ry="3.79" transform="translate(-596.17 1112.77) rotate(-78.24)"/><ellipse class="cls-1" cx="403.2" cy="920.03" rx="3.95" ry="3.9" transform="translate(-256.14 162.21) rotate(-17.36)"/><ellipse class="cls-1" cx="412.29" cy="900.97" rx="3.98" ry="3.9" transform="translate(-543.83 1160.91) rotate(-80.62)"/><ellipse class="cls-1" cx="439.57" cy="1159.03" rx="4.03" ry="4.01" transform="translate(-790.08 1315.64) rotate(-76.49)"/><ellipse class="cls-1" cx="606.57" cy="436.08" rx="3.82" ry="3.98" transform="translate(-18.33 26.71) rotate(-2.48)"/><ellipse class="cls-1" cx="545.18" cy="671.79" rx="3.8" ry="4.18" transform="translate(-67.58 61.01) rotate(-6.03)"/><ellipse class="cls-1" cx="611.3" cy="763.36" rx="4.11" ry="4.01" transform="translate(-356.83 625.04) rotate(-43.18)"/><ellipse class="cls-1" cx="565.4" cy="205.62" rx="4.21" ry="3.86" transform="translate(291.47 741.27) rotate(-82.9)"/><ellipse class="cls-1" cx="564.68" cy="244.33" rx="3.84" ry="4.13" transform="translate(-23.97 65.3) rotate(-6.48)"/><ellipse class="cls-1" cx="464.08" cy="210.31" rx="4.29" ry="3.8" transform="translate(179.55 632.97) rotate(-80.43)"/><ellipse class="cls-1" cx="672.33" cy="229.05" rx="4.26" ry="3.94" transform="translate(364.23 869.02) rotate(-83.11)"/><ellipse class="cls-1" cx="655.71" cy="251.96" rx="3.9" ry="3.74" transform="translate(353.81 886.23) rotate(-85.57)"/><ellipse class="cls-1" cx="606.57" cy="436.08" rx="3.81" ry="3.92" transform="translate(-37.12 56.93) rotate(-5.21)"/><ellipse class="cls-1" cx="551.53" cy="502.65" rx="4" ry="3.75" transform="translate(30.85 1037.2) rotate(-88.1)"/><ellipse class="cls-1" cx="547.16" cy="301.42" rx="4.24" ry="4.05" transform="translate(144.76 779.24) rotate(-78.75)"/><ellipse class="cls-1" cx="547.16" cy="301.42" rx="3.92" ry="4" transform="translate(-74.75 242.53) rotate(-23.44)"/><ellipse class="cls-1" cx="570.93" cy="497.26" rx="4.19" ry="3.79" transform="matrix(0.09, -1, 1, 0.09, 22.16, 1018.88)"/><ellipse class="cls-1" cx="511.24" cy="503.61" rx="4.25" ry="3.76" transform="translate(-5.84 1001.21) rotate(-88.47)"/><ellipse class="cls-1" cx="541.26" cy="581.43" rx="4" ry="4.26" transform="translate(-54.55 56.04) rotate(-5.64)"/><ellipse class="cls-1" cx="416.45" cy="630.47" rx="4.04" ry="3.85" transform="translate(-278.22 927.73) rotate(-79.72)"/><ellipse class="cls-1" cx="655.71" cy="251.96" rx="3.86" ry="4.27" transform="matrix(1, -0.07, 0.07, 1, -16.79, 49.01)"/><ellipse class="cls-1" cx="516.59" cy="651.11" rx="3.85" ry="4.04" transform="translate(-50.32 43.31) rotate(-4.58)"/><ellipse class="cls-1" cx="571.88" cy="720.38" rx="3.85" ry="4.41" transform="translate(-137.14 134.47) rotate(-11.99)"/><ellipse class="cls-1" cx="652.49" cy="788.63" rx="4.05" ry="4.31" transform="translate(-65.34 58.97) rotate(-4.93)"/><ellipse class="cls-1" cx="570.07" cy="777.77" rx="4.03" ry="3.93" transform="translate(-253.04 275.38) rotate(-22.36)"/><ellipse class="cls-1" cx="615" cy="848.1" rx="4.19" ry="4.03" transform="translate(-262.99 1419.63) rotate(-87.11)"/><ellipse class="cls-1" cx="600.99" cy="861.6" rx="4.38" ry="3.95" transform="translate(-334.95 1338.63) rotate(-82.11)"/><ellipse class="cls-1" cx="674.79" cy="864.42" rx="3.79" ry="3.86" transform="translate(-247.59 1457.53) rotate(-84.77)"/><ellipse class="cls-1" cx="633.16" cy="839.03" rx="4.09" ry="4.02" transform="translate(-358.76 1186.81) rotate(-72.28)"/><ellipse class="cls-1" cx="559.86" cy="847.68" rx="4.01" ry="3.89" transform="translate(-401.4 1176.3) rotate(-75.43)"/><ellipse class="cls-1" cx="537.71" cy="825.32" rx="3.89" ry="4.1" transform="translate(-108.82 82.16) rotate(-7.94)"/><ellipse class="cls-1" cx="555.15" cy="859.29" rx="4.09" ry="4.28" transform="translate(-82.65 59.42) rotate(-5.7)"/><ellipse class="cls-1" cx="455.96" cy="760.79" rx="3.9" ry="4.24" transform="translate(-28.3 17.69) rotate(-2.16)"/><ellipse class="cls-1" cx="516.46" cy="839.75" rx="3.84" ry="3.98" transform="translate(-398.26 1207.46) rotate(-80.31)"/><ellipse class="cls-1" cx="521.15" cy="385.83" rx="4.15" ry="4.01" transform="matrix(0.52, -0.85, 0.85, 0.52, -79.86, 629.26)"/><ellipse class="cls-1" cx="499.91" cy="908.1" rx="3.76" ry="4.08" transform="translate(-77.71 47.34) rotate(-5.03)"/><ellipse class="cls-1" cx="422.55" cy="868.84" rx="4.22" ry="3.73" transform="translate(-490.03 1186.05) rotate(-83.23)"/><ellipse class="cls-1" cx="449.21" cy="654.62" rx="3.88" ry="3.81" transform="translate(-259.18 1013.1) rotate(-82.38)"/><ellipse class="cls-1" cx="451.29" cy="650.37" rx="4.03" ry="4.25" transform="translate(-169.55 159.24) rotate(-16.9)"/><ellipse class="cls-1" cx="378.9" cy="881" rx="4.19" ry="3.88" transform="translate(-532.16 1180.48) rotate(-84.92)"/><ellipse class="cls-1" cx="381.07" cy="905.34" rx="3.96" ry="4.08" transform="translate(-589.19 752.24) rotate(-58.21)"/><ellipse class="cls-1" cx="513.12" cy="866.4" rx="3.98" ry="4.14" transform="translate(-74.57 48.74) rotate(-5.07)"/><ellipse class="cls-1" cx="478.74" cy="876.44" rx="3.93" ry="4.47" transform="matrix(0.99, -0.14, 0.14, 0.99, -121.82, 78.52)"/></g></g></svg>