<svg id="Annotations" xmlns="http://www.w3.org/2000/svg" width="18in" height="18in" viewBox="0 0 1296 1296"><defs><style>.cls-1{fill:#fff;stroke:#000;stroke-miterlimit:10;stroke-width:2px;}</style></defs><g id="Gages"><g id="New_Gages" data-name="New Gages"><ellipse class="cls-1" cx="669.7" cy="272.41" rx="3.86" ry="4.44" transform="translate(-36.76 118.73) rotate(-9.86)"/><ellipse class="cls-1" cx="602.21" cy="257.25" rx="3.81" ry="4.25" transform="translate(-25.37 70.23) rotate(-6.54)"/><ellipse class="cls-1" cx="506.47" cy="276.2" rx="4.62" ry="3.82" transform="translate(212.68 772.67) rotate(-87.99)"/><ellipse class="cls-1" cx="549.2" cy="300.27" rx="3.92" ry="4.39" transform="translate(-9.39 17.86) rotate(-1.85)"/><ellipse class="cls-1" cx="577.85" cy="393.74" rx="4.26" ry="3.97" transform="translate(69.55 873.92) rotate(-77.64)"/><ellipse class="cls-1" cx="641.44" cy="279.84" rx="3.8" ry="4.18" transform="translate(-14.97 37.19) rotate(-3.28)"/><ellipse class="cls-1" cx="521.45" cy="638.86" rx="4.36" ry="4.07" transform="translate(-194.89 1047.4) rotate(-80.47)"/><ellipse class="cls-1" cx="616.47" cy="773.12" rx="4.28" ry="3.84" transform="translate(-229.62 1284.86) rotate(-82.6)"/><ellipse class="cls-1" cx="664.54" cy="274.41" rx="3.95" ry="3.92" transform="matrix(0.15, -0.99, 0.99, 0.15, 294.48, 890.83)"/><ellipse class="cls-1" cx="556.03" cy="825.57" rx="4.02" ry="3.77" transform="translate(-333.7 1271.81) rotate(-82.68)"/><ellipse class="cls-1" cx="398.57" cy="917.71" rx="3.86" ry="3.73" transform="translate(-549.86 1236.33) rotate(-85.09)"/><ellipse class="cls-1" cx="452.78" cy="977.71" rx="3.89" ry="4.49" transform="translate(-38.41 18.72) rotate(-2.27)"/><ellipse class="cls-1" cx="562.03" cy="674.56" rx="4.04" ry="4.1" transform="translate(-277.96 418.97) rotate(-33.28)"/><ellipse class="cls-1" cx="389.21" cy="727.24" rx="4.01" ry="4.07" transform="translate(-429.84 824.83) rotate(-68.64)"/><ellipse class="cls-1" cx="497" cy="851.4" rx="3.87" ry="4.16" transform="translate(-63.83 40.62) rotate(-4.4)"/><ellipse class="cls-1" cx="535.44" cy="387.89" rx="3.99" ry="3.76" transform="translate(57.21 844.46) rotate(-79.59)"/><ellipse class="cls-1" cx="378.46" cy="871.87" rx="4.01" ry="4.32" transform="translate(-106.12 54.21) rotate(-7.19)"/><ellipse class="cls-1" cx="379.34" cy="882.96" rx="3.95" ry="4.19" transform="translate(-118.51 60.97) rotate(-7.95)"/><ellipse class="cls-1" cx="364.05" cy="879.57" rx="4.35" ry="3.8" transform="translate(-564.61 1088.78) rotate(-80.21)"/><ellipse class="cls-1" cx="433.18" cy="655.35" rx="3.79" ry="4.2"/><ellipse class="cls-1" cx="665.47" cy="273.34" rx="3.97" ry="4.48" transform="translate(-35.97 113.51) rotate(-9.49)"/><ellipse class="cls-1" cx="474.91" cy="209.09" rx="4.05" ry="4.07" transform="translate(-27.28 78.45) rotate(-9.18)"/><ellipse class="cls-1" cx="446.13" cy="653.06" rx="3.72" ry="3.83" transform="translate(-139.58 121.59) rotate(-13.44)"/><ellipse class="cls-1" cx="527.72" cy="846.35" rx="3.73" ry="3.83" transform="matrix(1, -0.04, 0.04, 1, -31.66, 20.59)"/><ellipse class="cls-1" cx="575.93" cy="821.34" rx="3.84" ry="4.41" transform="translate(-194.89 179.37) rotate(-15.17)"/><ellipse class="cls-1" cx="528.29" cy="843.95" rx="3.98" ry="4.21" transform="translate(-22.93 14.8) rotate(-1.57)"/><ellipse class="cls-1" cx="439.23" cy="923.52" rx="3.93" ry="4.17" transform="translate(-84.23 45) rotate(-5.35)"/><ellipse class="cls-1" cx="415.95" cy="963.82" rx="4" ry="4.09" transform="matrix(0.84, -0.54, 0.54, 0.84, -456.97, 380.76)"/><ellipse class="cls-1" cx="410.16" cy="657.77" rx="3.96" ry="4.05" transform="translate(-254.46 258.81) rotate(-27.08)"/><ellipse class="cls-1" cx="436.29" cy="668.5" rx="3.98" ry="4.2" transform="translate(-259.55 277.28) rotate(-27.52)"/><ellipse class="cls-1" cx="446.05" cy="653.1" rx="4.23" ry="3.99" transform="translate(-220.06 1079.46) rotate(-88.29)"/></g></g></svg>