<svg id="Gages" xmlns="http://www.w3.org/2000/svg" viewBox="0 0 936 1440"><defs><style>.cls-1{fill:#fff;}</style></defs><g id="New_Gages" data-name="New Gages"><path class="cls-1" d="M534.06,255.36c.13-2.92-1.71-5.28-4.31-5.4s-4.65,2.06-4.78,5,1.71,5.29,4.31,5.41A5.26,5.26,0,0,0,534.06,255.36Z"/><path d="M533.86,255.35a2.82,2.82,0,0,0-1.14-2.41,6.53,6.53,0,0,0-2-.91c-.52-.18-1-.42-1.7-.63a2.41,2.41,0,0,0-2.23.45,2.79,2.79,0,0,0-.87,2.31,5.12,5.12,0,0,0,.81,2.26,3.56,3.56,0,0,0,1.24,1.35,4,4,0,0,0,1.38.45h-.26a5.68,5.68,0,0,0,1.14-.1,9,9,0,0,0,1.41-.27,3.35,3.35,0,0,0,1.49-.87A2.66,2.66,0,0,0,533.86,255.35Zm.4,0c0,.65,0,1.31-.14,2a7.45,7.45,0,0,1-.57,2.25,4.76,4.76,0,0,1-1.63,1.94,5.81,5.81,0,0,1-2.48.88h-.26a5.51,5.51,0,0,1-2.11-.45,5.76,5.76,0,0,1-1.75-1.23,6.15,6.15,0,0,1-1.71-3.51,6.83,6.83,0,0,1,.63-3.46,14.25,14.25,0,0,1,1.62-2.82,6.89,6.89,0,0,1,2.69-2.36,4.43,4.43,0,0,1,2-.36,4.32,4.32,0,0,1,1.94.63,4.23,4.23,0,0,1,1.87,3.27A29.9,29.9,0,0,1,534.26,255.37Z"/><path class="cls-1" d="M572.41,312.72a5.2,5.2,0,1,0-5.52,4.86C569.83,317.44,572.25,315.32,572.41,312.72Z"/><path d="M572.21,312.71a2.82,2.82,0,0,0-.28-1.43,2.9,2.9,0,0,0-.95-1.07,8.33,8.33,0,0,0-2.22-.9c-.64-.2-1.26-.45-2-.69a3.06,3.06,0,0,0-2.52.32,2.87,2.87,0,0,0-1.16,2.32,4.29,4.29,0,0,0,.8,2.31,9,9,0,0,0,.65.8,3.74,3.74,0,0,0,.78.56,5.73,5.73,0,0,0,1.77.52h-.24a8.16,8.16,0,0,0,1.38-.08,12.64,12.64,0,0,0,1.57-.21,3.46,3.46,0,0,0,1.64-.78A2.53,2.53,0,0,0,572.21,312.71Zm.4,0a12,12,0,0,1-.29,2.16,7.66,7.66,0,0,1-.91,2.28,5.16,5.16,0,0,1-1.88,1.8,6.6,6.6,0,0,1-2.54.74h-.23a6.21,6.21,0,0,1-3.93-1.56,5.85,5.85,0,0,1-1.47-7.31,11.12,11.12,0,0,1,2-2.85,8.45,8.45,0,0,1,3-2.14,4.68,4.68,0,0,1,3.93.27,4.52,4.52,0,0,1,1.49,1.39,5.28,5.28,0,0,1,.73,1.83A15.23,15.23,0,0,1,572.61,312.73Z"/><ellipse class="cls-1" cx="463.19" cy="331.5" rx="4.55" ry="5.2" transform="translate(-4.56 6.47) rotate(-0.8)"/><path d="M467.54,331.43a2.81,2.81,0,0,0-.6-1.72,3.55,3.55,0,0,0-1.43-1c-.5-.2-.93-.28-1.28-.39l-1.09-.34a4.15,4.15,0,0,0-1.38-.23,2.26,2.26,0,0,0-1.46.64,3,3,0,0,0-.57,3.17,6.29,6.29,0,0,0,1.61,2.36,3.24,3.24,0,0,0,1.89.66,3.85,3.85,0,0,0,1-.05,5.83,5.83,0,0,0,1.3-.31,3.24,3.24,0,0,0,1.41-1A2.86,2.86,0,0,0,467.54,331.43Zm.4,0c0,.66.05,1.32,0,2.06a6.7,6.7,0,0,1-.35,2.36A4.39,4.39,0,0,1,466,338a5.39,5.39,0,0,1-2.7.86,5.45,5.45,0,0,1-2.79-.64,6,6,0,0,1-2.05-1.86,5.69,5.69,0,0,1-.9-4.76,13,13,0,0,1,1.74-4,8.13,8.13,0,0,1,1.48-1.8,4.62,4.62,0,0,1,2.32-1.14,4.11,4.11,0,0,1,2.65.47,4,4,0,0,1,1.72,1.95,6.45,6.45,0,0,1,.43,2.33Z"/><circle class="cls-1" cx="608.47" cy="337.4" r="4.55" transform="translate(-5.32 9.78) rotate(-0.92)"/><path d="M612.82,337.33a2.27,2.27,0,0,0-.63-1.56,2.79,2.79,0,0,0-1.41-.75,14.57,14.57,0,0,1-2.36-.5,5.36,5.36,0,0,0-1.35-.29,2.18,2.18,0,0,0-1.44.42,2.2,2.2,0,0,0-.78,1.3,2.68,2.68,0,0,0,.16,1.51,4.52,4.52,0,0,0,1.58,1.89,4.46,4.46,0,0,0,1.92.47,7.22,7.22,0,0,0,1,0,7,7,0,0,0,1.27-.12,2.75,2.75,0,0,0,1.39-.78A2.32,2.32,0,0,0,612.82,337.33Zm.4,0c0,.62,0,1.25,0,1.95a5.69,5.69,0,0,1-.5,2.24,4.24,4.24,0,0,1-1.69,1.87,5.62,5.62,0,0,1-2.45.7,5.75,5.75,0,0,1-4.62-2,5,5,0,0,1-1.17-2.22,5.31,5.31,0,0,1,0-2.35,9.88,9.88,0,0,1,1.88-3.73,9,9,0,0,1,1.53-1.57,4.88,4.88,0,0,1,2.14-1,4.11,4.11,0,0,1,2.41.31,3.82,3.82,0,0,1,1.77,1.69,5.68,5.68,0,0,1,.58,2.21C613.19,336.08,613.19,336.71,613.22,337.33Z"/><path class="cls-1" d="M511.9,359.19c0-2.93-1.92-5.22-4.52-5.23s-4.56,2.24-4.58,5.17,1.92,5.21,4.52,5.23A5.56,5.56,0,0,0,511.9,359.19Z"/><path d="M511.7,359.18a2.8,2.8,0,0,0-1.24-2.36,6.58,6.58,0,0,0-2-.83c-.53-.16-1-.38-1.72-.57a2.35,2.35,0,0,0-2.21.55,2.78,2.78,0,0,0-.78,2.34,5.23,5.23,0,0,0,.9,2.22,3.56,3.56,0,0,0,1.29,1.3,4,4,0,0,0,1.4.4l-.3,0a5.52,5.52,0,0,0,1.08-.17,12,12,0,0,0,1.44-.38,3.63,3.63,0,0,0,1.48-.9A2.46,2.46,0,0,0,511.7,359.18Zm.4,0a17.84,17.84,0,0,1-.1,2,8.13,8.13,0,0,1-.53,2.22,4.89,4.89,0,0,1-1.45,2,5.55,5.55,0,0,1-2.42,1.06l-.15,0h-.15a5.54,5.54,0,0,1-2.12-.36,5.74,5.74,0,0,1-1.8-1.16,6.17,6.17,0,0,1-1.85-3.44A6.86,6.86,0,0,1,502,358a13.76,13.76,0,0,1,1.51-2.87,6.92,6.92,0,0,1,2.59-2.46,4.45,4.45,0,0,1,1.94-.44,4,4,0,0,1,4,3.73A29.72,29.72,0,0,1,512.1,359.19Z"/><path class="cls-1" d="M521.33,422.38a5.2,5.2,0,1,0-5.36,5A5.58,5.58,0,0,0,521.33,422.38Z"/><path d="M521.13,422.38a2.8,2.8,0,0,0-.33-1.42,2.91,2.91,0,0,0-1-1,8.38,8.38,0,0,0-2.24-.82c-.65-.18-1.27-.42-2.08-.62a3,3,0,0,0-2.5.4,2.83,2.83,0,0,0-1.08,2.36,4.36,4.36,0,0,0,.87,2.27,7.6,7.6,0,0,0,.68.78,3.75,3.75,0,0,0,.8.54,6,6,0,0,0,1.78.46h-.24a8.25,8.25,0,0,0,1.38-.13,11.26,11.26,0,0,0,1.56-.26,3.51,3.51,0,0,0,1.62-.84A2.54,2.54,0,0,0,521.13,422.38Zm.4,0a12.76,12.76,0,0,1-.22,2.16,7.4,7.4,0,0,1-.83,2.31,5.31,5.31,0,0,1-1.82,1.86,6.56,6.56,0,0,1-2.52.82h-.23a6.22,6.22,0,0,1-4-1.43,5.83,5.83,0,0,1-1.72-7.26,11.08,11.08,0,0,1,1.9-2.91,8.32,8.32,0,0,1,2.94-2.24,4.65,4.65,0,0,1,3.94.14,4.38,4.38,0,0,1,1.53,1.34,5.39,5.39,0,0,1,.78,1.8A15.74,15.74,0,0,1,521.53,422.39Z"/><path class="cls-1" d="M497,452.83c.24-2.92-1.51-5.34-4.1-5.56s-4.73,1.9-5,4.81,1.52,5.34,4.11,5.56A5.25,5.25,0,0,0,497,452.83Z"/><path d="M496.76,452.81a2.78,2.78,0,0,0-1.05-2.45,6.42,6.42,0,0,0-1.95-1c-.51-.2-1-.45-1.67-.69a2.37,2.37,0,0,0-2.24.37,2.78,2.78,0,0,0-1,2.27,5.08,5.08,0,0,0,.73,2.29,3.64,3.64,0,0,0,1.19,1.4,4.2,4.2,0,0,0,1.37.5h-.27a6.53,6.53,0,0,0,1.15-.06,8.43,8.43,0,0,0,1.41-.22,3.37,3.37,0,0,0,1.53-.82A2.57,2.57,0,0,0,496.76,452.81Zm.4,0c0,.65-.1,1.31-.21,2a7.49,7.49,0,0,1-.65,2.23,4.69,4.69,0,0,1-1.7,1.87,5.61,5.61,0,0,1-2.51.79h-.26a5.71,5.71,0,0,1-2.09-.53,5.79,5.79,0,0,1-1.71-1.3,6.1,6.1,0,0,1-1.57-3.56,6.78,6.78,0,0,1,.75-3.44,13.46,13.46,0,0,1,1.72-2.76,7,7,0,0,1,2.77-2.26,4.33,4.33,0,0,1,2-.28,4.05,4.05,0,0,1,3.67,4A30.28,30.28,0,0,1,497.16,452.84Z"/><circle class="cls-1" cx="537.48" cy="460.18" r="4.55" transform="matrix(0.99, -0.15, 0.15, 0.99, -63.16, 86.18)"/><path d="M541.78,459.52a2.25,2.25,0,0,0-.82-1.46,2.89,2.89,0,0,0-1.51-.56,14.59,14.59,0,0,1-2.39-.17,5.46,5.46,0,0,0-1.38-.12,2.13,2.13,0,0,0-1.37.61,2.21,2.21,0,0,0-.61,1.38,2.7,2.7,0,0,0,.36,1.47,4.48,4.48,0,0,0,1.8,1.67,4,4,0,0,0,1.95.22,3.91,3.91,0,0,0,1-.14,11,11,0,0,0,1.27-.35,2.94,2.94,0,0,0,1.32-.94A2.2,2.2,0,0,0,541.78,459.52Zm.4-.06a16.18,16.18,0,0,1,.22,1.94,6.25,6.25,0,0,1-.24,2.27,4.29,4.29,0,0,1-1.36,2.05,5.28,5.28,0,0,1-2.39,1.07,5.69,5.69,0,0,1-4.82-1.43,5,5,0,0,1-1.43-2.05,5.09,5.09,0,0,1-.26-2.33,10.58,10.58,0,0,1,2.68-5.68,4.79,4.79,0,0,1,2-1.27,4,4,0,0,1,2.42,0,3.84,3.84,0,0,1,2,1.44,5.67,5.67,0,0,1,.86,2.1C542,458.23,542.07,458.85,542.18,459.46Z"/><ellipse class="cls-1" cx="471.81" cy="723.2" rx="5.2" ry="4.55" transform="translate(-295.66 1118.93) rotate(-84.16)"/><path d="M476.14,723.64a2.8,2.8,0,0,0-.4-1.78,3.43,3.43,0,0,0-1.3-1.17,12.32,12.32,0,0,0-1.23-.54l-1-.46a4,4,0,0,0-1.34-.4,2.25,2.25,0,0,0-1.52.45,3,3,0,0,0-.94,3.08,6.3,6.3,0,0,0,1.3,2.54,3.28,3.28,0,0,0,1.79.88,3.13,3.13,0,0,0,.94.07,5.5,5.5,0,0,0,1.36-.2,3.62,3.62,0,0,0,1.56-.84A2.73,2.73,0,0,0,476.14,723.64Zm.4,0c-.06.66-.13,1.33-.24,2.05a7.85,7.85,0,0,1-.66,2.27,4.45,4.45,0,0,1-1.81,1.92,5.27,5.27,0,0,1-2.84.57,5.38,5.38,0,0,1-2.68-1,6.07,6.07,0,0,1-1.8-2.09,5.71,5.71,0,0,1-.31-4.82,12.77,12.77,0,0,1,2.21-3.76,8.34,8.34,0,0,1,1.68-1.61,4.6,4.6,0,0,1,2.44-.85,4.13,4.13,0,0,1,2.57.78,3.94,3.94,0,0,1,1.47,2.14,6.42,6.42,0,0,1,.16,2.36Z"/><ellipse class="cls-1" cx="390.59" cy="735.88" rx="5.2" ry="4.55" transform="translate(-404.88 983.48) rotate(-79.33)"/><path d="M394.86,736.68a2.7,2.7,0,0,0-.25-1.81,3.43,3.43,0,0,0-1.19-1.28c-.45-.29-.86-.46-1.18-.64l-1-.54a3.72,3.72,0,0,0-1.3-.5,2.18,2.18,0,0,0-1.56.33,3,3,0,0,0-1.19,3,6.23,6.23,0,0,0,1.11,2.63,3.28,3.28,0,0,0,1.72,1,4,4,0,0,0,1,.15,5.26,5.26,0,0,0,1.34,0,3.24,3.24,0,0,0,1.58-.72A2.87,2.87,0,0,0,394.86,736.68Zm.4.08c-.12.65-.22,1.31-.37,2a6.76,6.76,0,0,1-.82,2.25,4.32,4.32,0,0,1-2,1.75,5.36,5.36,0,0,1-5.42-.88,5.9,5.9,0,0,1-1.64-2.23,5.68,5.68,0,0,1,.06-4.84,13,13,0,0,1,2.51-3.58,8.65,8.65,0,0,1,1.8-1.47,4.57,4.57,0,0,1,2.51-.65,4.09,4.09,0,0,1,2.5,1,4,4,0,0,1,1.3,2.26,6.69,6.69,0,0,1,0,2.37Z"/><ellipse class="cls-1" cx="390.54" cy="735.8" rx="5.2" ry="4.55" transform="translate(-369.15 1077.56) rotate(-86.26)"/><path d="M394.88,736.09a2.77,2.77,0,0,0-.46-1.77,3.48,3.48,0,0,0-1.34-1.13c-.49-.24-.91-.35-1.25-.49l-1.06-.42a3.82,3.82,0,0,0-1.35-.34,2.32,2.32,0,0,0-1.51.51,3,3,0,0,0-.81,3.13,6.32,6.32,0,0,0,1.41,2.48,3.27,3.27,0,0,0,1.83.8,3.77,3.77,0,0,0,1,0,5.8,5.8,0,0,0,1.33-.21,3.24,3.24,0,0,0,1.48-.91A2.86,2.86,0,0,0,394.88,736.09Zm.4,0c0,.66,0,1.33-.12,2.06a6.6,6.6,0,0,1-.54,2.32,4.31,4.31,0,0,1-1.8,2,5.39,5.39,0,0,1-5.48-.22,6,6,0,0,1-1.91-2,5.73,5.73,0,0,1-.52-4.82,13.16,13.16,0,0,1,2.06-3.85,8.18,8.18,0,0,1,1.61-1.68A4.62,4.62,0,0,1,391,729a4.09,4.09,0,0,1,2.6.67,4,4,0,0,1,1.56,2.09,6.54,6.54,0,0,1,.25,2.36Z"/><circle class="cls-1" cx="376.54" cy="738.68" r="4.55"/><path d="M380.88,738.6a2.2,2.2,0,0,0-.62-1.56,2.74,2.74,0,0,0-1.42-.75,15.78,15.78,0,0,1-2.36-.49,5.35,5.35,0,0,0-1.36-.29,2.13,2.13,0,0,0-1.43.43,2.22,2.22,0,0,0-.78,1.3,2.65,2.65,0,0,0,.17,1.5,3.53,3.53,0,0,0,3.5,2.35,6.15,6.15,0,0,0,1.05,0,8.15,8.15,0,0,0,1.26-.13,2.75,2.75,0,0,0,1.39-.78A2.28,2.28,0,0,0,380.88,738.6Zm.4,0c0,.62.05,1.25,0,1.95a5.92,5.92,0,0,1-.5,2.25,4.24,4.24,0,0,1-1.69,1.87,5.62,5.62,0,0,1-2.45.7,5.76,5.76,0,0,1-4.63-2,4.93,4.93,0,0,1-1.14-4.57,10.47,10.47,0,0,1,3.39-5.31,5,5,0,0,1,2.14-1,4.1,4.1,0,0,1,2.41.3,3.79,3.79,0,0,1,1.78,1.69,5.63,5.63,0,0,1,.58,2.2C381.25,737.35,381.26,738,381.28,738.59Z"/><path class="cls-1" d="M357.06,741.33c.16-2.59-2-4.68-4.9-4.87s-5.32,1.62-5.48,4.21,2,4.69,4.9,4.87S356.89,743.93,357.06,741.33Z"/><path d="M356.86,741.32a2.24,2.24,0,0,0-.58-1.68,3,3,0,0,0-1.5-.81,19.79,19.79,0,0,1-2.73-.7,8.32,8.32,0,0,0-1.53-.42,2.63,2.63,0,0,0-1.63.25,2.38,2.38,0,0,0-1.08,1.22,2.32,2.32,0,0,0,0,1.56,3.25,3.25,0,0,0,.7,1.2,4.44,4.44,0,0,0,.9.79,6.24,6.24,0,0,0,2.34.68,9.41,9.41,0,0,0,1.29.08,14,14,0,0,0,1.45,0,2.87,2.87,0,0,0,1.59-.6A2.25,2.25,0,0,0,356.86,741.32Zm.4,0a11.46,11.46,0,0,1-.28,2.09,6.13,6.13,0,0,1-1,2.22,4.74,4.74,0,0,1-2,1.59,6.48,6.48,0,0,1-2.53.43,6.61,6.61,0,0,1-4.64-2.17,5.38,5.38,0,0,1-1.3-2.33,4.85,4.85,0,0,1,.09-2.57,7.85,7.85,0,0,1,2.55-3.69,7.66,7.66,0,0,1,4.12-2.11,4.41,4.41,0,0,1,4.26,2.15,6.08,6.08,0,0,1,.7,2.31A13.31,13.31,0,0,1,357.26,741.34Z"/><path class="cls-1" d="M385,753.09a5.2,5.2,0,1,0-5.29,5.11A5.13,5.13,0,0,0,385,753.09Z"/><path d="M384.8,753.09a2.75,2.75,0,0,0-.62-1.82,3.47,3.47,0,0,0-1.54-1c-1.11-.34-1.83-.48-2.78-.78a5.84,5.84,0,0,0-1.58-.29,2.71,2.71,0,0,0-1.66.52,2.85,2.85,0,0,0-1,1.48,3.15,3.15,0,0,0,.06,1.75,5.21,5.21,0,0,0,1.7,2.39,4.65,4.65,0,0,0,2.35.74,6,6,0,0,0,1.27,0,8.32,8.32,0,0,0,1.49-.24,3.32,3.32,0,0,0,1.58-.93A2.84,2.84,0,0,0,384.8,753.09Zm.4,0a18.81,18.81,0,0,1-.12,2.2,7,7,0,0,1-.72,2.43,4.86,4.86,0,0,1-1.95,1.94,6.19,6.19,0,0,1-2.73.68,6.43,6.43,0,0,1-5-2.39,5.83,5.83,0,0,1-1.23-2.46,5.69,5.69,0,0,1,.06-2.6,11,11,0,0,1,4-5.77,5.5,5.5,0,0,1,2.43-1,4.63,4.63,0,0,1,2.65.46,4.31,4.31,0,0,1,1.91,1.89,6.56,6.56,0,0,1,.64,2.42C385.19,751.68,385.2,752.39,385.2,753.09Z"/><path class="cls-1" d="M519.84,761.79c0-2.6-2.31-4.53-5.24-4.5s-5.18,2-5.16,4.59,2.32,4.53,5.24,4.51S519.87,764.39,519.84,761.79Z"/><path d="M519.64,761.79a2.19,2.19,0,0,0-.7-1.63,3,3,0,0,0-1.55-.71,16.81,16.81,0,0,1-2.77-.5,8.14,8.14,0,0,0-1.56-.3,2.6,2.6,0,0,0-1.61.37,2.31,2.31,0,0,0-.91,2.85,3.19,3.19,0,0,0,.78,1.15,4.72,4.72,0,0,0,1,.72,6.18,6.18,0,0,0,2.38.51,8.06,8.06,0,0,0,1.3,0,13.09,13.09,0,0,0,1.44-.1,2.9,2.9,0,0,0,1.54-.71A2.26,2.26,0,0,0,519.64,761.79Zm.4,0a10.78,10.78,0,0,1-.12,2.09,6.15,6.15,0,0,1-.82,2.29,4.78,4.78,0,0,1-1.91,1.74,6.38,6.38,0,0,1-2.49.61,6.59,6.59,0,0,1-4.78-1.83,5.31,5.31,0,0,1-1.47-2.23,4.8,4.8,0,0,1-.1-2.57,7.83,7.83,0,0,1,2.28-3.86,7.62,7.62,0,0,1,4-2.41,4.4,4.4,0,0,1,4.4,1.84,6,6,0,0,1,.86,2.25A11.74,11.74,0,0,1,520,761.79Z"/><circle class="cls-1" cx="327.12" cy="814.44" r="4.55"/><path d="M331.38,813.59a2.29,2.29,0,0,0-.89-1.43,2.89,2.89,0,0,0-1.53-.48,15.62,15.62,0,0,1-2.41-.06,5.73,5.73,0,0,0-1.39,0,2.2,2.2,0,0,0-1.33.68,2.25,2.25,0,0,0-.53,1.42,2.62,2.62,0,0,0,.43,1.45,4.51,4.51,0,0,0,1.89,1.58,4.36,4.36,0,0,0,2,.11,7,7,0,0,0,1-.2,7.5,7.5,0,0,0,1.22-.36,2.7,2.7,0,0,0,1.23-1A2.28,2.28,0,0,0,331.38,813.59Zm.4-.08c.12.61.26,1.22.36,1.92a6,6,0,0,1-.09,2.3,4.23,4.23,0,0,1-1.33,2.14,5.72,5.72,0,0,1-2.29,1.13,5.8,5.8,0,0,1-4.91-1.16,5,5,0,0,1-1.54-2,5.09,5.09,0,0,1-.4-2.31,9.62,9.62,0,0,1,1.18-4,8.72,8.72,0,0,1,1.21-1.82,4.87,4.87,0,0,1,1.93-1.37,4.06,4.06,0,0,1,2.42-.14,3.78,3.78,0,0,1,2.05,1.34,5.72,5.72,0,0,1,1,2.07C331.52,812.29,331.64,812.9,331.78,813.51Z"/><path class="cls-1" d="M574.18,866.75c-.47-2.56-3.07-4.06-5.94-3.53s-4.76,2.87-4.29,5.42,3.07,4.06,5.94,3.53A4.63,4.63,0,0,0,574.18,866.75Z"/><path d="M574,866.79A2.21,2.21,0,0,0,572.2,865a9.25,9.25,0,0,0-2.28,0c-.66,0-1.34-.06-2.14-.11a3.11,3.11,0,0,0-2.34.66,2.31,2.31,0,0,0-.72,2.24,3,3,0,0,0,1.27,1.72,3.7,3.7,0,0,0,1.66.67,8.23,8.23,0,0,0,1.85,0l.24,0a5.33,5.33,0,0,0,1.12-.12,8.49,8.49,0,0,0,1.34-.34,3,3,0,0,0,1.38-1A2.34,2.34,0,0,0,574,866.79Zm.4-.08a13.67,13.67,0,0,1,.26,2.11,6,6,0,0,1-.34,2.43,4.36,4.36,0,0,1-1.65,2.13,6,6,0,0,1-2.6.93l.23,0a6.56,6.56,0,0,1-3.85-.37,5.81,5.81,0,0,1-3-2.57,4.92,4.92,0,0,1-.53-1.88,6.72,6.72,0,0,1,.15-1.81,8.68,8.68,0,0,1,1.4-3,9,9,0,0,1,2.39-2.52,4.74,4.74,0,0,1,3.55-.71,4.48,4.48,0,0,1,2.94,2.23A10.56,10.56,0,0,1,574.38,866.71Z"/><path class="cls-1" d="M530.46,920.25a5.2,5.2,0,1,0-5,5.37A5.14,5.14,0,0,0,530.46,920.25Z"/><path d="M530.26,920.26a2.75,2.75,0,0,0-.72-1.79,3.49,3.49,0,0,0-1.58-.93c-1.13-.29-1.86-.39-2.82-.64a5.72,5.72,0,0,0-1.59-.21,2.66,2.66,0,0,0-1.64.61,2.77,2.77,0,0,0-.9,1.52,3.11,3.11,0,0,0,.15,1.74,5.12,5.12,0,0,0,1.82,2.3,4.62,4.62,0,0,0,2.38.63,6,6,0,0,0,1.27-.09,8,8,0,0,0,1.48-.31,3.39,3.39,0,0,0,1.52-1A2.84,2.84,0,0,0,530.26,920.26Zm.4,0a20.44,20.44,0,0,1,0,2.21,6.87,6.87,0,0,1-.6,2.45,4.78,4.78,0,0,1-1.85,2,6.25,6.25,0,0,1-2.69.82,6.41,6.41,0,0,1-5.11-2.13,5.72,5.72,0,0,1-1.35-2.39,5.61,5.61,0,0,1-.08-2.6,10.12,10.12,0,0,1,2-4.23,10.55,10.55,0,0,1,1.68-1.74,5.45,5.45,0,0,1,2.38-1.11,4.64,4.64,0,0,1,2.67.32,4.36,4.36,0,0,1,2,1.79,6.67,6.67,0,0,1,.77,2.39C530.58,918.83,530.62,919.54,530.66,920.24Z"/><ellipse class="cls-1" cx="504.08" cy="924.91" rx="5.2" ry="4.55" transform="translate(-132.62 85.76) rotate(-8.6)"/><path d="M509,924.17a2.24,2.24,0,0,0-.92-1.52,3.14,3.14,0,0,0-1.64-.48,17.25,17.25,0,0,1-2.81-.11,8.79,8.79,0,0,0-1.57-.09,2.65,2.65,0,0,0-1.55.59,2.35,2.35,0,0,0-.8,1.4,2.39,2.39,0,0,0,.28,1.54,3.83,3.83,0,0,0,2,1.61,5.91,5.91,0,0,0,2.42.19,6.34,6.34,0,0,0,1.21-.19,11.15,11.15,0,0,0,1.43-.34,3.38,3.38,0,0,0,1.46-.93A2.17,2.17,0,0,0,509,924.17Zm.39-.06a9.52,9.52,0,0,1,.1,2.09,6.88,6.88,0,0,1-.5,2.34,4.84,4.84,0,0,1-1.59,2,6.27,6.27,0,0,1-2.42,1,6.51,6.51,0,0,1-5-1.18,5.23,5.23,0,0,1-1.74-2,4.8,4.8,0,0,1-.44-2.52,8,8,0,0,1,1.74-4.13,7.79,7.79,0,0,1,3.58-2.92,4.4,4.4,0,0,1,4.61,1.22,5.76,5.76,0,0,1,1.16,2.1A12.62,12.62,0,0,1,509.42,924.11Z"/><path class="cls-1" d="M479.07,942.7c-.22-2.59-2.64-4.35-5.56-4.11s-5,2.37-4.81,5,2.64,4.35,5.56,4.11A4.63,4.63,0,0,0,479.07,942.7Z"/><path d="M478.87,942.71a2.36,2.36,0,0,0-.49-1.25,2.42,2.42,0,0,0-1.11-.74,8.76,8.76,0,0,0-2.26-.26c-.65-.07-1.32-.19-2.12-.33a3.21,3.21,0,0,0-2.39.42,2.34,2.34,0,0,0-.94,2.16,3,3,0,0,0,1.09,1.85,4,4,0,0,0,1.58.83,8,8,0,0,0,1.85.14h.24a5.34,5.34,0,0,0,1.13,0,8,8,0,0,0,1.36-.2,3,3,0,0,0,1.48-.89A2.39,2.39,0,0,0,478.87,942.71Zm.4,0a14.72,14.72,0,0,1,.05,2.12,6.33,6.33,0,0,1-.58,2.39,4.37,4.37,0,0,1-1.86,1.95,5.84,5.84,0,0,1-2.68.66h.24a6.53,6.53,0,0,1-3.8-.74,5.86,5.86,0,0,1-2.73-2.87,5,5,0,0,1-.34-1.92,7.37,7.37,0,0,1,.33-1.79,8.75,8.75,0,0,1,1.7-2.85,9,9,0,0,1,2.63-2.26,4.68,4.68,0,0,1,3.6-.35,4.51,4.51,0,0,1,2.71,2.51A10.39,10.39,0,0,1,479.27,942.68Z"/><circle class="cls-1" cx="473.99" cy="947.85" r="5.2"/><path d="M478.91,948.71a2.7,2.7,0,0,0-.33-1.89,3.42,3.42,0,0,0-1.36-1.24c-1-.51-1.74-.76-2.63-1.21a5.83,5.83,0,0,0-1.51-.53,2.62,2.62,0,0,0-2.92,1.57,3.12,3.12,0,0,0-.22,1.73,5.23,5.23,0,0,0,1.31,2.63,4.76,4.76,0,0,0,2.21,1.1,6.48,6.48,0,0,0,1.26.17,8.43,8.43,0,0,0,1.51,0,3.31,3.31,0,0,0,1.7-.68A2.79,2.79,0,0,0,478.91,948.71Zm.39.07a16.6,16.6,0,0,1-.46,2.15,6.57,6.57,0,0,1-1.09,2.29,4.77,4.77,0,0,1-2.22,1.61,6.24,6.24,0,0,1-2.81.25,6.41,6.41,0,0,1-4.56-3.14,5.8,5.8,0,0,1-.83-2.62,5.68,5.68,0,0,1,.45-2.55,10.94,10.94,0,0,1,4.84-5.09,5.51,5.51,0,0,1,2.55-.6,4.75,4.75,0,0,1,2.55.86,4.39,4.39,0,0,1,1.59,2.17,6.58,6.58,0,0,1,.26,2.49C479.52,947.38,479.41,948.08,479.3,948.78Z"/><circle class="cls-1" cx="440.42" cy="953.25" r="5.2"/><path d="M445.42,953a2.72,2.72,0,0,0-.74-1.78,3.39,3.39,0,0,0-1.59-.91c-1.13-.27-1.86-.37-2.83-.61a5.69,5.69,0,0,0-1.59-.19,2.69,2.69,0,0,0-1.63.63,2.8,2.8,0,0,0-.88,1.53,3.11,3.11,0,0,0,.16,1.74,5.23,5.23,0,0,0,1.85,2.28,4.74,4.74,0,0,0,2.39.6,6.21,6.21,0,0,0,1.28-.11,7.42,7.42,0,0,0,1.46-.33,3.19,3.19,0,0,0,1.52-1A2.81,2.81,0,0,0,445.42,953Zm.4,0a20,20,0,0,1,0,2.2,7,7,0,0,1-.57,2.47,4.82,4.82,0,0,1-1.82,2.06,6.1,6.1,0,0,1-2.69.84,6.38,6.38,0,0,1-5.13-2.07,5.49,5.49,0,0,1-1.49-5,10,10,0,0,1,1.95-4.24,10.16,10.16,0,0,1,1.66-1.77,5.53,5.53,0,0,1,2.36-1.14,4.75,4.75,0,0,1,2.68.29,4.41,4.41,0,0,1,2,1.77,6.37,6.37,0,0,1,.79,2.38A21.75,21.75,0,0,1,445.82,953Z"/><circle class="cls-1" cx="547.68" cy="972.42" r="4.55"/><path d="M552,972.25a2.28,2.28,0,0,0-.66-1.55,2.85,2.85,0,0,0-1.44-.72,14.1,14.1,0,0,1-2.37-.44,5.49,5.49,0,0,0-1.36-.25,2.11,2.11,0,0,0-1.42.46,2.19,2.19,0,0,0-.75,1.31,2.65,2.65,0,0,0,.2,1.5,4.43,4.43,0,0,0,1.62,1.85,4.26,4.26,0,0,0,1.93.43,7.38,7.38,0,0,0,1.05,0,8.38,8.38,0,0,0,1.25-.16,2.7,2.7,0,0,0,1.38-.81A2.35,2.35,0,0,0,552,972.25Zm.4,0c0,.62.07,1.25.05,1.95a5.71,5.71,0,0,1-.44,2.26,4.21,4.21,0,0,1-1.65,1.9,5.58,5.58,0,0,1-2.43.76,5.73,5.73,0,0,1-4.67-1.91,5,5,0,0,1-1.25-4.54,9.81,9.81,0,0,1,1.79-3.78,9.56,9.56,0,0,1,1.48-1.6,4.83,4.83,0,0,1,2.12-1.06,4,4,0,0,1,2.41.25,3.78,3.78,0,0,1,1.82,1.64,5.65,5.65,0,0,1,.63,2.19C552.37,971,552.39,971.61,552.43,972.23Z"/><ellipse class="cls-1" cx="311.39" cy="970.72" rx="5.2" ry="4.55" transform="translate(-9.56 3.12) rotate(-0.56)"/><path d="M316.39,970.67a2.19,2.19,0,0,0-.7-1.63,3,3,0,0,0-1.56-.71,16.81,16.81,0,0,1-2.77-.5,9.06,9.06,0,0,0-1.55-.3,2.68,2.68,0,0,0-1.62.37,2.37,2.37,0,0,0-1,1.29,2.41,2.41,0,0,0,.07,1.57,3.39,3.39,0,0,0,.79,1.14,4.25,4.25,0,0,0,.95.72,6.09,6.09,0,0,0,2.39.51,7.92,7.92,0,0,0,1.29,0,11.3,11.3,0,0,0,1.45-.11,2.89,2.89,0,0,0,1.54-.7A2.28,2.28,0,0,0,316.39,970.67Zm.4,0a11.84,11.84,0,0,1-.13,2.1,6,6,0,0,1-.81,2.29,4.78,4.78,0,0,1-1.91,1.74,6.75,6.75,0,0,1-2.49.61,6.59,6.59,0,0,1-4.78-1.83,5.31,5.31,0,0,1-1.47-2.23,4.87,4.87,0,0,1-.11-2.56,8,8,0,0,1,2.28-3.87,7.69,7.69,0,0,1,4-2.41,4.4,4.4,0,0,1,4.4,1.84,5.8,5.8,0,0,1,.86,2.24A12.92,12.92,0,0,1,316.79,970.66Z"/><path class="cls-1" d="M301,980.88a5.2,5.2,0,1,0-6.06,4.17C297.84,985.26,300.5,983.44,301,980.88Z"/><path d="M300.77,980.85a2.89,2.89,0,0,0-.1-1.46,3.1,3.1,0,0,0-.82-1.18,8.76,8.76,0,0,0-2.1-1.15c-.61-.27-1.19-.6-2-.93a3,3,0,0,0-2.53,0,2.82,2.82,0,0,0-1.43,2.16,4.36,4.36,0,0,0,.52,2.39,7.21,7.21,0,0,0,.55.87,3.35,3.35,0,0,0,.71.65,6.05,6.05,0,0,0,1.69.73l-.24,0a8.89,8.89,0,0,0,1.38.09,14.15,14.15,0,0,0,1.58,0,3.62,3.62,0,0,0,1.73-.59A2.47,2.47,0,0,0,300.77,980.85Zm.4.07a11.5,11.5,0,0,1-.56,2.1,7.46,7.46,0,0,1-1.16,2.16,5.24,5.24,0,0,1-2.09,1.56,6.61,6.61,0,0,1-2.61.43h-.07l-.16,0a6.26,6.26,0,0,1-3.71-2,6.36,6.36,0,0,1-1.64-3.78,6.27,6.27,0,0,1,1.05-3.65,10.89,10.89,0,0,1,2.32-2.59,8.19,8.19,0,0,1,3.24-1.77,4.7,4.7,0,0,1,3.88.74,4.44,4.44,0,0,1,1.31,1.55,5.58,5.58,0,0,1,.5,1.91A16.07,16.07,0,0,1,301.17,980.92Z"/><ellipse class="cls-1" cx="333.13" cy="1021.07" rx="4.55" ry="5.2" transform="translate(-91.26 34.43) rotate(-5.2)"/><path d="M337.46,1020.68a2.85,2.85,0,0,0-.73-1.68,3.6,3.6,0,0,0-1.51-.9,12.92,12.92,0,0,0-1.3-.29l-1.11-.25a3.88,3.88,0,0,0-1.39-.13,2.26,2.26,0,0,0-1.41.75,3,3,0,0,0-.32,3.21,6.35,6.35,0,0,0,1.78,2.23,3.27,3.27,0,0,0,1.94.5,3.51,3.51,0,0,0,1-.12,5.91,5.91,0,0,0,1.27-.41,3.27,3.27,0,0,0,1.33-1.14A2.84,2.84,0,0,0,337.46,1020.68Zm.4,0c.06.66.15,1.32.2,2.05a7,7,0,0,1-.17,2.38,4.29,4.29,0,0,1-1.47,2.24,5.32,5.32,0,0,1-2.63,1.07A5.42,5.42,0,0,1,331,1028a6.05,6.05,0,0,1-2.19-1.69,5.69,5.69,0,0,1-1.26-4.67,13,13,0,0,1,1.43-4.13,8.25,8.25,0,0,1,1.33-1.91,4.63,4.63,0,0,1,2.24-1.32,4.11,4.11,0,0,1,2.67.27,3.89,3.89,0,0,1,1.87,1.82,6.69,6.69,0,0,1,.61,2.28Z"/><path class="cls-1" d="M383.26,1030.47c.22-2.59-1.88-4.73-4.79-5s-5.35,1.5-5.57,4.09,1.87,4.73,4.79,5A4.63,4.63,0,0,0,383.26,1030.47Z"/><path d="M383.06,1030.45a2.25,2.25,0,0,0-1.24-2.23,9.28,9.28,0,0,0-2.18-.64c-.64-.17-1.28-.41-2-.67a3.11,3.11,0,0,0-2.43,0,2.34,2.34,0,0,0-1.29,2,3,3,0,0,0,.77,2,3.87,3.87,0,0,0,1.42,1.09,8,8,0,0,0,1.8.44l.24,0a5,5,0,0,0,1.11.18,6.69,6.69,0,0,0,1.37,0,3.05,3.05,0,0,0,1.62-.62A2.42,2.42,0,0,0,383.06,1030.45Zm.4,0a12.7,12.7,0,0,1-.31,2.1,6.13,6.13,0,0,1-1,2.25,4.35,4.35,0,0,1-2.15,1.61,5.88,5.88,0,0,1-2.76.21l.23,0a6.52,6.52,0,0,1-3.61-1.37,5.84,5.84,0,0,1-2.21-3.28,4.93,4.93,0,0,1,0-2,7.1,7.1,0,0,1,.63-1.71,8.7,8.7,0,0,1,2.15-2.53,9,9,0,0,1,3-1.79,4.68,4.68,0,0,1,3.61.26,4.5,4.5,0,0,1,2.25,2.92A10.83,10.83,0,0,1,383.46,1030.49Z"/><ellipse class="cls-1" cx="354.69" cy="1070.17" rx="4.55" ry="5.2" transform="translate(-16.88 5.74) rotate(-0.91)"/><path d="M359,1070.1a2.76,2.76,0,0,0-.61-1.73,3.37,3.37,0,0,0-1.43-1c-.5-.2-.93-.28-1.28-.39l-1.09-.34a3.92,3.92,0,0,0-1.38-.22,2.25,2.25,0,0,0-1.46.63,3,3,0,0,0-.56,3.18,6.29,6.29,0,0,0,1.61,2.36,3.3,3.3,0,0,0,1.9.65,3.77,3.77,0,0,0,1,0,5.3,5.3,0,0,0,1.3-.32,3.17,3.17,0,0,0,1.41-1A2.91,2.91,0,0,0,359,1070.1Zm.4,0c0,.66.05,1.33,0,2.06a6.7,6.7,0,0,1-.35,2.36,4.26,4.26,0,0,1-1.63,2.12,5.37,5.37,0,0,1-5.49.23A6,6,0,0,1,350,1075a5.72,5.72,0,0,1-.91-4.76,13.15,13.15,0,0,1,1.74-4,8.88,8.88,0,0,1,1.47-1.8,4.61,4.61,0,0,1,2.33-1.14,4.07,4.07,0,0,1,2.64.46,3.91,3.91,0,0,1,1.73,2,6.64,6.64,0,0,1,.44,2.32Z"/><path class="cls-1" d="M395.88,1086.26a5.2,5.2,0,1,0-5.32,5.08C393.49,1091.08,395.82,1088.86,395.88,1086.26Z"/><path d="M395.68,1086.26a2.74,2.74,0,0,0-1.34-2.45,8.36,8.36,0,0,0-2.25-.81c-.65-.17-1.27-.4-2.08-.6a3,3,0,0,0-2.5.42,2.81,2.81,0,0,0-1.06,2.36,4.26,4.26,0,0,0,.89,2.27,7.6,7.6,0,0,0,.68.78,3.7,3.7,0,0,0,.8.53,6,6,0,0,0,1.79.45h-.24a9.36,9.36,0,0,0,1.37-.14,13.14,13.14,0,0,0,1.56-.27,3.58,3.58,0,0,0,1.62-.85A2.57,2.57,0,0,0,395.68,1086.26Zm.4,0a12.72,12.72,0,0,1-.21,2.16,7.75,7.75,0,0,1-.81,2.32,5.31,5.31,0,0,1-1.81,1.87,6.72,6.72,0,0,1-2.51.84h-.24a6.07,6.07,0,0,1-5.74-8.65,10.94,10.94,0,0,1,1.87-2.93,8.5,8.5,0,0,1,2.92-2.26,4.69,4.69,0,0,1,3.94.11,4.43,4.43,0,0,1,1.55,1.33,5.65,5.65,0,0,1,.8,1.8A16.46,16.46,0,0,1,396.08,1086.27Z"/></g></svg>