<svg id="Annotations" xmlns="http://www.w3.org/2000/svg" width="18in" height="18in" viewBox="0 0 1296 1296"><defs><style>.cls-1{fill:#fff;stroke:#000;stroke-miterlimit:10;stroke-width:2px;}</style></defs><g id="Gages"><g id="Specific_Conductance" data-name="Specific Conductance"><ellipse class="cls-1" cx="386.05" cy="922.91" rx="3.87" ry="3.83" transform="translate(-130.42 66.14) rotate(-8.38)"/><ellipse class="cls-1" cx="620.51" cy="196.17" rx="4.39" ry="3.95" transform="translate(414.23 813.39) rotate(-89.06)"/><ellipse class="cls-1" cx="600.76" cy="192.03" rx="4.38" ry="4.07" transform="translate(299.05 745.89) rotate(-79.15)"/><ellipse class="cls-1" cx="512.02" cy="268.1" rx="4.03" ry="3.79" transform="translate(184.48 744.29) rotate(-83.12)"/><ellipse class="cls-1" cx="684.11" cy="237.76" rx="3.99" ry="4.38" transform="translate(-6.48 19.53) rotate(-1.63)"/><ellipse class="cls-1" cx="663.45" cy="250.41" rx="3.84" ry="4.27" transform="translate(-17.61 52.85) rotate(-4.5)"/><ellipse class="cls-1" cx="691.56" cy="224.41" rx="4.07" ry="3.98" transform="translate(219.72 777.57) rotate(-67.51)"/><ellipse class="cls-1" cx="637.72" cy="184.48" rx="3.99" ry="4.06" transform="translate(444.41 819.58) rotate(-89.21)"/><ellipse class="cls-1" cx="652.34" cy="261.09" rx="3.74" ry="4.01" transform="translate(-13.35 36.2) rotate(-3.15)"/><ellipse class="cls-1" cx="642.18" cy="282.2" rx="4.3" ry="4.05" transform="matrix(0.3, -0.95, 0.95, 0.3, 179.23, 809.18)"/><ellipse class="cls-1" cx="646.62" cy="336.96" rx="4.03" ry="4.37" transform="translate(-11.31 22.65) rotate(-1.99)"/><ellipse class="cls-1" cx="528.75" cy="178.17" rx="4.15" ry="3.85" transform="translate(345.72 705.26) rotate(-89.47)"/><ellipse class="cls-1" cx="650.26" cy="396.22" rx="4.4" ry="3.76" transform="translate(221.93 1025.79) rotate(-87.13)"/><ellipse class="cls-1" cx="628.7" cy="417.55" rx="4.01" ry="3.95" transform="translate(137.66 990.7) rotate(-83)"/><ellipse class="cls-1" cx="646.31" cy="843.15" rx="4.04" ry="4.24" transform="translate(-189.96 187.97) rotate(-14.45)"/><ellipse class="cls-1" cx="610.71" cy="832.15" rx="4.35" ry="3.75" transform="translate(-336.76 1241.69) rotate(-77.1)"/><ellipse class="cls-1" cx="517.24" cy="924.53" rx="4.34" ry="3.84" transform="translate(-442.99 1372.04) rotate(-85.76)"/><ellipse class="cls-1" cx="398.57" cy="917.71" rx="3.9" ry="4.27" transform="translate(-167.63 92.81) rotate(-10.99)"/><ellipse class="cls-1" cx="403.2" cy="920.03" rx="3.87" ry="3.8" transform="translate(-534.4 559.56) rotate(-45.3)"/><ellipse class="cls-1" cx="439.57" cy="1159.03" rx="3.82" ry="3.99"/><ellipse class="cls-1" cx="672.33" cy="229.05" rx="4.03" ry="3.82" transform="translate(359.92 866.92) rotate(-82.72)"/><ellipse class="cls-1" cx="655.71" cy="251.96" rx="4.23" ry="3.82" transform="matrix(0.02, -1, 1, 0.02, 392.9, 903.39)"/><ellipse class="cls-1" cx="645.21" cy="327.99" rx="4.02" ry="4.19" transform="translate(-40.21 95.46) rotate(-8.21)"/><ellipse class="cls-1" cx="606.57" cy="436.08" rx="4.28" ry="4.03" transform="translate(-5.54 864.34) rotate(-70.69)"/><ellipse class="cls-1" cx="551.53" cy="502.65" rx="3.82" ry="4.07" transform="translate(-11.15 12.52) rotate(-1.29)"/><ellipse class="cls-1" cx="570.93" cy="497.26" rx="4.03" ry="3.78" transform="translate(30.82 1027.83) rotate(-85.54)"/><ellipse class="cls-1" cx="511.24" cy="503.61" rx="3.81" ry="3.98" transform="translate(-34.5 37.61) rotate(-4.08)"/><ellipse class="cls-1" cx="541.26" cy="581.43" rx="4.18" ry="4" transform="translate(-241.44 717.11) rotate(-56.88)"/><ellipse class="cls-1" cx="416.45" cy="630.47" rx="3.89" ry="3.92" transform="translate(-289.88 898.85) rotate(-77.36)"/><ellipse class="cls-1" cx="652.49" cy="788.63" rx="4.45" ry="3.93" transform="translate(-218.99 1325.49) rotate(-82.03)"/><ellipse class="cls-1" cx="570.07" cy="777.77" rx="3.92" ry="4.12" transform="translate(-275.93 314.97) rotate(-25.08)"/><ellipse class="cls-1" cx="615" cy="848.1" rx="4.07" ry="4.01" transform="translate(-420.12 1009.43) rotate(-62.91)"/><ellipse class="cls-1" cx="600.99" cy="861.6" rx="4.24" ry="3.88" transform="translate(-317.09 1372.16) rotate(-84.18)"/><ellipse class="cls-1" cx="674.79" cy="864.42" rx="4.13" ry="3.89" transform="translate(-342.15 1274.77) rotate(-74)"/><ellipse class="cls-1" cx="633.16" cy="839.03" rx="4.26" ry="4.01" transform="translate(-223.14 1448.63) rotate(-88.41)"/><ellipse class="cls-1" cx="559.86" cy="847.68" rx="3.93" ry="4.05" transform="translate(-424.84 597.94) rotate(-42.33)"/><ellipse class="cls-1" cx="555.15" cy="859.29" rx="4.06" ry="3.92" transform="translate(-440.14 1095.87) rotate(-70.51)"/><ellipse class="cls-1" cx="455.96" cy="760.79" rx="3.8" ry="4.11" transform="translate(-96.7 67.05) rotate(-7.61)"/><ellipse class="cls-1" cx="516.46" cy="839.75" rx="4.09" ry="3.75" transform="translate(-401.42 1199.5) rotate(-79.81)"/><ellipse class="cls-1" cx="499.91" cy="908.1" rx="3.86" ry="4.06" transform="translate(-6.42 3.56) rotate(-0.41)"/><ellipse class="cls-1" cx="449.21" cy="654.62" rx="3.98" ry="4.04" transform="translate(-334.91 530.22) rotate(-46.53)"/><ellipse class="cls-1" cx="451.29" cy="650.37" rx="3.78" ry="4.06" transform="translate(-7.3 5.12) rotate(-0.65)"/><ellipse class="cls-1" cx="378.46" cy="871.87" rx="4.39" ry="3.86" transform="translate(-504.49 1223.71) rotate(-88.26)"/><ellipse class="cls-1" cx="378.9" cy="881" rx="3.98" ry="4.43" transform="translate(-15.27 6.72) rotate(-1)"/><ellipse class="cls-1" cx="379.34" cy="882.96" rx="4" ry="4.19" transform="translate(-230.2 140.01) rotate(-16.12)"/><ellipse class="cls-1" cx="364.05" cy="879.57" rx="3.89" ry="4.1" transform="translate(-78.96 37.01) rotate(-5.25)"/><ellipse class="cls-1" cx="381.07" cy="905.34" rx="3.96" ry="4.07" transform="translate(-399.9 309.57) rotate(-29.83)"/><ellipse class="cls-1" cx="433.18" cy="655.35" rx="3.79" ry="4.56" transform="translate(-8.78 5.89) rotate(-0.77)"/><ellipse class="cls-1" cx="422.22" cy="669.81" rx="4.04" ry="4.11" transform="matrix(0.87, -0.49, 0.49, 0.87, -275.65, 295.79)"/><ellipse class="cls-1" cx="446.13" cy="653.06" rx="4.03" ry="3.97" transform="translate(-208.57 209.34) rotate(-21.53)"/><ellipse class="cls-1" cx="575.93" cy="821.34" rx="4.49" ry="4.05" transform="translate(-298.12 1313.61) rotate(-84.35)"/><ellipse class="cls-1" cx="513.12" cy="866.4" rx="3.77" ry="4.18" transform="translate(-61.23 39.32) rotate(-4.14)"/><ellipse class="cls-1" cx="478.74" cy="876.44" rx="3.73" ry="4.18" transform="translate(-117.39 75.21) rotate(-8.01)"/><ellipse class="cls-1" cx="375.26" cy="899.81" rx="3.82" ry="3.99" transform="matrix(1, -0.07, 0.07, 1, -62.2, 28.54)"/><ellipse class="cls-1" cx="439.23" cy="923.52" rx="3.84" ry="3.86" transform="translate(-583.4 917.17) rotate(-64.21)"/><ellipse class="cls-1" cx="415.95" cy="963.82" rx="4.06" ry="4.19" transform="translate(-207.83 119.51) rotate(-13.11)"/><ellipse class="cls-1" cx="410.16" cy="657.77" rx="3.85" ry="4.02" transform="translate(-85.24 61.55) rotate(-7.78)"/><ellipse class="cls-1" cx="436.29" cy="668.5" rx="3.84" ry="4.18" transform="translate(-72.99 53.78) rotate(-6.51)"/><ellipse class="cls-1" cx="446.05" cy="653.1" rx="4.17" ry="4.05" transform="matrix(0.2, -0.98, 0.98, 0.2, -282.21, 961.54)"/></g></g></svg>