<svg id="Gages" xmlns="http://www.w3.org/2000/svg" viewBox="0 0 936 1440"><defs><style>.cls-1{fill:#fff;}</style></defs><g id="Specific_Conductance" data-name="Specific Conductance"><ellipse class="cls-1" cx="489.59" cy="226.9" rx="4.55" ry="5.2" transform="translate(240.33 705.5) rotate(-87.35)"/><path d="M494.58,227.13a2.16,2.16,0,0,0-.6-1.66,3,3,0,0,0-1.52-.79,18.61,18.61,0,0,1-2.74-.66,9.5,9.5,0,0,0-1.53-.39,2.69,2.69,0,0,0-1.63.28,2.42,2.42,0,0,0-1.06,1.24,2.32,2.32,0,0,0,0,1.56,3.38,3.38,0,0,0,.72,1.19,4.38,4.38,0,0,0,.91.77,6.12,6.12,0,0,0,2.36.64,7.91,7.91,0,0,0,1.29.06c.43,0,.91,0,1.45,0a2.9,2.9,0,0,0,1.58-.62A2.22,2.22,0,0,0,494.58,227.13Zm.4,0a11.27,11.27,0,0,1-.24,2.09,6.18,6.18,0,0,1-.94,2.24,4.82,4.82,0,0,1-2,1.63,6.49,6.49,0,0,1-7.2-1.62,5.39,5.39,0,0,1-1.34-2.31,4.86,4.86,0,0,1,0-2.57,7.85,7.85,0,0,1,2.49-3.73,7.73,7.73,0,0,1,4.09-2.19,4.4,4.4,0,0,1,4.29,2.09,6,6,0,0,1,.74,2.29A13.43,13.43,0,0,1,495,227.15Z"/><ellipse class="cls-1" cx="607.55" cy="233.05" rx="4.55" ry="5.2" transform="translate(373.71 840.3) rotate(-89.93)"/><path d="M612.55,233.06a2.21,2.21,0,0,0-.68-1.64,3,3,0,0,0-1.55-.72,17.89,17.89,0,0,1-2.77-.53,7.86,7.86,0,0,0-1.55-.32,2.7,2.7,0,0,0-1.62.35,2.33,2.33,0,0,0-.94,2.85,3.28,3.28,0,0,0,.78,1.15,4.58,4.58,0,0,0,.94.73,6.43,6.43,0,0,0,2.39.54,9.27,9.27,0,0,0,1.29,0,10.89,10.89,0,0,0,1.44-.09,2.9,2.9,0,0,0,1.55-.69A2.3,2.3,0,0,0,612.55,233.06Zm.4,0a10.89,10.89,0,0,1-.15,2.09,6.09,6.09,0,0,1-.84,2.28,4.72,4.72,0,0,1-1.93,1.72,6.54,6.54,0,0,1-2.49.59,6.66,6.66,0,0,1-4.77-1.88,5.38,5.38,0,0,1-1.44-2.25,4.9,4.9,0,0,1-.08-2.57,7.93,7.93,0,0,1,2.32-3.84,7.76,7.76,0,0,1,4-2.37,4.42,4.42,0,0,1,4.38,1.89,6,6,0,0,1,.84,2.26A12.76,12.76,0,0,1,613,233.06Z"/><path class="cls-1" d="M572.68,240.8c-.32-2.58-2.81-4.24-5.71-3.88s-4.93,2.57-4.61,5.15,2.81,4.24,5.71,3.88A4.62,4.62,0,0,0,572.68,240.8Z"/><path d="M572.48,240.82a2.33,2.33,0,0,0-.54-1.23,2.45,2.45,0,0,0-1.13-.7,9.38,9.38,0,0,0-2.27-.17c-.66,0-1.33-.13-2.13-.24A3.16,3.16,0,0,0,564,239a2.34,2.34,0,0,0-.85,2.19,3,3,0,0,0,1.16,1.8,3.79,3.79,0,0,0,1.62.77,8.08,8.08,0,0,0,1.85.07l.24,0a5.38,5.38,0,0,0,1.13-.05,7.56,7.56,0,0,0,1.35-.25,3.11,3.11,0,0,0,1.45-.95A2.41,2.41,0,0,0,572.48,240.82Zm.4,0a12.93,12.93,0,0,1,.13,2.11,6.09,6.09,0,0,1-.48,2.41,4.38,4.38,0,0,1-1.77,2,6,6,0,0,1-2.66.77l.23,0a6.49,6.49,0,0,1-3.81-.59,5.8,5.8,0,0,1-2.84-2.75,4.81,4.81,0,0,1-.42-1.91,7.52,7.52,0,0,1,.25-1.8,8.93,8.93,0,0,1,1.58-2.92,9.06,9.06,0,0,1,2.55-2.36,4.65,4.65,0,0,1,3.58-.5,4.5,4.5,0,0,1,2.8,2.4A10.37,10.37,0,0,1,572.88,240.78Z"/><ellipse class="cls-1" cx="588.77" cy="246.49" rx="4.55" ry="5.2" transform="translate(234.69 777.56) rotate(-79.02)"/><path d="M593.68,247.44a2.2,2.2,0,0,0-.36-1.73,3.06,3.06,0,0,0-1.38-1,16.25,16.25,0,0,1-2.62-1,9.28,9.28,0,0,0-1.46-.61,2.69,2.69,0,0,0-1.66,0,2.34,2.34,0,0,0-1.46,2.62,3.24,3.24,0,0,0,.54,1.28,4.53,4.53,0,0,0,.79.89,6,6,0,0,0,2.24,1,9.17,9.17,0,0,0,1.27.24,11.14,11.14,0,0,0,1.43.18,2.86,2.86,0,0,0,1.66-.38A2.32,2.32,0,0,0,593.68,247.44Zm.39.08a11.15,11.15,0,0,1-.54,2,6.24,6.24,0,0,1-1.26,2.08,4.69,4.69,0,0,1-2.21,1.32,6.51,6.51,0,0,1-2.56.1,6.6,6.6,0,0,1-4.33-2.74,5.41,5.41,0,0,1-1-2.49,4.88,4.88,0,0,1,.41-2.53,7.87,7.87,0,0,1,3-3.33,7.66,7.66,0,0,1,4.36-1.57,4.41,4.41,0,0,1,3.95,2.68,6.13,6.13,0,0,1,.4,2.37A13.37,13.37,0,0,1,594.07,247.52Z"/><path class="cls-1" d="M671,278.32c-.58-2.53-3.23-3.93-6.09-3.27s-4.63,3.06-4.05,5.6,3.24,3.92,6.09,3.27A4.63,4.63,0,0,0,671,278.32Z"/><path d="M670.85,278.37a2.41,2.41,0,0,0-.67-1.18,2.43,2.43,0,0,0-1.2-.57,9.76,9.76,0,0,0-2.27.06c-.66,0-1.34,0-2.15,0a3.18,3.18,0,0,0-2.31.76,2.33,2.33,0,0,0-.62,2.27,3,3,0,0,0,1.34,1.67,3.91,3.91,0,0,0,1.69.6,8.4,8.4,0,0,0,1.85-.13l.23,0a5.31,5.31,0,0,0,1.12-.16,9.14,9.14,0,0,0,1.32-.39,3.12,3.12,0,0,0,1.34-1.1A2.39,2.39,0,0,0,670.85,278.37Zm.38-.09a12,12,0,0,1,.36,2.09,6.31,6.31,0,0,1-.23,2.44,4.48,4.48,0,0,1-1.56,2.2,6,6,0,0,1-2.57,1l.24,0a6.54,6.54,0,0,1-3.86-.2,5.82,5.82,0,0,1-3.11-2.45,5.06,5.06,0,0,1-.62-1.85,7.3,7.3,0,0,1,.08-1.82,8.56,8.56,0,0,1,1.27-3.07,9,9,0,0,1,2.28-2.61,4.69,4.69,0,0,1,3.51-.86,4.5,4.5,0,0,1,3,2.1A10.36,10.36,0,0,1,671.23,278.28Z"/><ellipse class="cls-1" cx="644.58" cy="281.77" rx="4.55" ry="5.2" transform="translate(-14.61 36.12) rotate(-3.17)"/><path d="M648.92,281.53a2.8,2.8,0,0,0-.67-1.7,3.57,3.57,0,0,0-1.47-1,11.82,11.82,0,0,0-1.3-.33l-1.1-.3a4,4,0,0,0-1.38-.17,2.27,2.27,0,0,0-1.44.7,3,3,0,0,0-.43,3.19,6.11,6.11,0,0,0,1.7,2.29,3.23,3.23,0,0,0,1.92.58,3.45,3.45,0,0,0,1-.09,5.18,5.18,0,0,0,1.29-.37,3.26,3.26,0,0,0,1.37-1.08A3,3,0,0,0,648.92,281.53Zm.4,0c0,.66.1,1.32.13,2.05a6.93,6.93,0,0,1-.26,2.38,4.32,4.32,0,0,1-1.55,2.18,5.34,5.34,0,0,1-5.47.45A6,6,0,0,1,640,286.8a5.72,5.72,0,0,1-1.1-4.72,13.07,13.07,0,0,1,1.58-4.07,8.4,8.4,0,0,1,1.4-1.86,4.64,4.64,0,0,1,2.28-1.24,4.11,4.11,0,0,1,2.66.36,4,4,0,0,1,1.8,1.89,6.65,6.65,0,0,1,.53,2.3Z"/><circle class="cls-1" cx="658.29" cy="293.92" r="4.55" transform="translate(344.03 942.75) rotate(-88.22)"/><path d="M662.64,294.06a2.24,2.24,0,0,0-.55-1.59,2.71,2.71,0,0,0-1.37-.81c-.48-.14-.88-.18-1.23-.27s-.69-.21-1.09-.35a6,6,0,0,0-1.33-.37,2.14,2.14,0,0,0-1.45.34,2.17,2.17,0,0,0-.86,1.24,2.59,2.59,0,0,0,.08,1.51,4.36,4.36,0,0,0,1.45,2,4,4,0,0,0,1.86.6,3.15,3.15,0,0,0,.89,0,9.78,9.78,0,0,0,1.34-.16,3.38,3.38,0,0,0,1.51-.68A2.11,2.11,0,0,0,662.64,294.06Zm.4,0a13.73,13.73,0,0,1-.2,1.95,7.3,7.3,0,0,1-.66,2.14,4.31,4.31,0,0,1-1.65,1.77,5,5,0,0,1-2.6.66,5.67,5.67,0,0,1-4.45-2.32,5.07,5.07,0,0,1-1-2.29,5.14,5.14,0,0,1,.18-2.32,10.63,10.63,0,0,1,3.7-5.07,4.77,4.77,0,0,1,2.18-.88,4,4,0,0,1,2.38.43,3.74,3.74,0,0,1,1.67,1.78,5.52,5.52,0,0,1,.46,2.22C663.07,292.83,663,293.45,663,294.07Z"/><ellipse class="cls-1" cx="632.56" cy="305.94" rx="4.55" ry="5.2" transform="translate(264.92 904.74) rotate(-84.26)"/><path d="M637.54,306.44a2.17,2.17,0,0,0-.52-1.7,3,3,0,0,0-1.47-.88,17.87,17.87,0,0,1-2.71-.79,7.41,7.41,0,0,0-1.51-.47,2.67,2.67,0,0,0-1.65.2,2.38,2.38,0,0,0-1.12,1.18,2.43,2.43,0,0,0-.08,1.57,3.17,3.17,0,0,0,.67,1.22,4.25,4.25,0,0,0,.88.82,6.09,6.09,0,0,0,2.33.75,13.17,13.17,0,0,0,1.35.14,12,12,0,0,0,1.41.09,2.65,2.65,0,0,0,1.58-.56A2.4,2.4,0,0,0,637.54,306.44Zm.4,0a13.67,13.67,0,0,1-.31,2.07,5.51,5.51,0,0,1-1,2.23,4.63,4.63,0,0,1-2.14,1.51,6.9,6.9,0,0,1-2.49.3,6.61,6.61,0,0,1-4.58-2.3,5.28,5.28,0,0,1-1.23-2.38,4.7,4.7,0,0,1,.15-2.56,7.75,7.75,0,0,1,2.66-3.62,7.61,7.61,0,0,1,4.2-2,4.4,4.4,0,0,1,4.19,2.3,5.87,5.87,0,0,1,.62,2.33A13.24,13.24,0,0,1,637.94,306.48Z"/><path class="cls-1" d="M629.29,307.84A4.44,4.44,0,0,0,625,303a4.73,4.73,0,0,0-5.16,4.23,4.44,4.44,0,0,0,4.26,4.83A4.94,4.94,0,0,0,629.29,307.84Z"/><path d="M629.09,307.83a2.27,2.27,0,0,0-.5-1.63,2.84,2.84,0,0,0-1.37-.87,16.14,16.14,0,0,1-2.35-.66,5.9,5.9,0,0,0-1.38-.38,2.47,2.47,0,0,0-1.53.3,2.26,2.26,0,0,0-1,2.69,4.44,4.44,0,0,0,1.42,2,4.23,4.23,0,0,0,1.9.62,5,5,0,0,0,1,0,12.34,12.34,0,0,0,1.38-.09,3.26,3.26,0,0,0,1.56-.61A2.1,2.1,0,0,0,629.09,307.83Zm.4,0a11.09,11.09,0,0,1-.28,2,7.16,7.16,0,0,1-.81,2.13,4.51,4.51,0,0,1-1.78,1.68,5.44,5.44,0,0,1-2.54.56,5.76,5.76,0,0,1-4.51-2.37,5,5,0,0,1-.77-4.7,8.67,8.67,0,0,1,2.35-3.55,11.73,11.73,0,0,1,1.67-1.39,5,5,0,0,1,2.2-.85,4.15,4.15,0,0,1,2.41.46,3.89,3.89,0,0,1,1.69,1.83,5.62,5.62,0,0,1,.43,2.26C629.56,306.59,629.52,307.22,629.49,307.85Z"/><path class="cls-1" d="M626.32,316.93a5.2,5.2,0,1,0-4.91,5.48A5.58,5.58,0,0,0,626.32,316.93Z"/><path d="M626.12,317a2.93,2.93,0,0,0-.45-1.39,3,3,0,0,0-1.08-.95,8.43,8.43,0,0,0-2.3-.63c-.66-.12-1.31-.3-2.12-.44a3,3,0,0,0-2.46.62,2.84,2.84,0,0,0-.88,2.44,4.27,4.27,0,0,0,1.07,2.19,6.22,6.22,0,0,0,.74.72,3.89,3.89,0,0,0,.84.47,6.2,6.2,0,0,0,1.82.31l-.24,0a9.47,9.47,0,0,0,1.36-.24,14.37,14.37,0,0,0,1.53-.39,3.53,3.53,0,0,0,1.54-1A2.49,2.49,0,0,0,626.12,317Zm.4,0a12.2,12.2,0,0,1,0,2.17,7.08,7.08,0,0,1-.63,2.38,5.18,5.18,0,0,1-1.65,2,6.48,6.48,0,0,1-2.43,1h-.07l-.17,0a6.32,6.32,0,0,1-4.08-1.08,5.86,5.86,0,0,1-2.33-7.09,11,11,0,0,1,1.64-3.06,8.36,8.36,0,0,1,2.73-2.49,4.71,4.71,0,0,1,3.94-.2,4.47,4.47,0,0,1,1.64,1.21,5.23,5.23,0,0,1,.94,1.73A15.42,15.42,0,0,1,626.52,316.92Z"/><path class="cls-1" d="M474.84,321.89c-.23-2.59-2.67-4.33-5.59-4.07s-5,2.4-4.77,5,2.67,4.34,5.58,4.08A4.64,4.64,0,0,0,474.84,321.89Z"/><path d="M474.64,321.91a2.42,2.42,0,0,0-.5-1.25,2.33,2.33,0,0,0-1.11-.73,9.21,9.21,0,0,0-2.26-.25c-.66-.06-1.33-.18-2.12-.31a3.14,3.14,0,0,0-2.4.43,2.34,2.34,0,0,0-.92,2.17,3,3,0,0,0,1.1,1.83,3.75,3.75,0,0,0,1.59.83,8,8,0,0,0,1.85.12h.24a5.35,5.35,0,0,0,1.13,0,8,8,0,0,0,1.36-.2,3.06,3.06,0,0,0,1.47-.9A2.4,2.4,0,0,0,474.64,321.91Zm.4,0a13.34,13.34,0,0,1,.06,2.12,6.15,6.15,0,0,1-.56,2.39,4.42,4.42,0,0,1-1.85,2A6,6,0,0,1,470,329h.24a6.59,6.59,0,0,1-3.8-.72,5.84,5.84,0,0,1-2.74-2.85,5,5,0,0,1-.36-1.92,6.92,6.92,0,0,1,.32-1.79,8.73,8.73,0,0,1,1.68-2.87A9,9,0,0,1,468,316.6a4.66,4.66,0,0,1,3.59-.38,4.51,4.51,0,0,1,2.73,2.5A10.46,10.46,0,0,1,475,321.88Z"/><circle class="cls-1" cx="612.12" cy="339.03" r="4.55" transform="translate(247.66 936.35) rotate(-87.59)"/><path d="M616.46,339.21a2.24,2.24,0,0,0-.53-1.59,2.78,2.78,0,0,0-1.37-.84,14.09,14.09,0,0,1-2.32-.63,5.25,5.25,0,0,0-1.34-.37,2.17,2.17,0,0,0-1.46.34,2.2,2.2,0,0,0-.85,1.25,2.67,2.67,0,0,0,.07,1.51,4.49,4.49,0,0,0,1.46,2,4.35,4.35,0,0,0,1.89.58,6.16,6.16,0,0,0,1,.05,7.31,7.31,0,0,0,1.27-.06,2.72,2.72,0,0,0,1.44-.69A2.29,2.29,0,0,0,616.46,339.21Zm.4,0c0,.62,0,1.25-.11,1.95a5.77,5.77,0,0,1-.62,2.21,4.25,4.25,0,0,1-1.8,1.76,5.59,5.59,0,0,1-2.49.56,5.8,5.8,0,0,1-4.5-2.29,5,5,0,0,1-.86-4.63,9.76,9.76,0,0,1,2.09-3.62,9.22,9.22,0,0,1,1.61-1.48,4.77,4.77,0,0,1,2.2-.87,4.1,4.1,0,0,1,2.39.44,3.86,3.86,0,0,1,1.67,1.79,5.78,5.78,0,0,1,.45,2.24C616.91,338,616.87,338.61,616.86,339.23Z"/><path class="cls-1" d="M619.57,388.69c0-2.92-2-5.18-4.59-5.16s-4.53,2.31-4.51,5.23,2,5.19,4.59,5.17A5.26,5.26,0,0,0,619.57,388.69Z"/><path d="M619.37,388.69a2.8,2.8,0,0,0-1.27-2.35,6.78,6.78,0,0,0-2-.8c-.53-.15-1-.36-1.73-.54a2.37,2.37,0,0,0-2.2.58,2.75,2.75,0,0,0-.75,2.35,5,5,0,0,0,.92,2.2,3.66,3.66,0,0,0,1.32,1.29,4.06,4.06,0,0,0,1.41.38h-.27a5.9,5.9,0,0,0,1.14-.16,8.43,8.43,0,0,0,1.39-.34,3.39,3.39,0,0,0,1.44-1A2.56,2.56,0,0,0,619.37,388.69Zm.4,0c0,.65,0,1.31,0,2a7.09,7.09,0,0,1-.45,2.28,4.7,4.7,0,0,1-1.52,2,5.84,5.84,0,0,1-2.43,1h-.26a5.35,5.35,0,0,1-2.13-.34,5.71,5.71,0,0,1-1.81-1.13,6.15,6.15,0,0,1-1.9-3.41,7,7,0,0,1,.44-3.49,14.44,14.44,0,0,1,1.47-2.91,7,7,0,0,1,2.56-2.5,4.53,4.53,0,0,1,1.93-.46,4.27,4.27,0,0,1,2,.53,4.2,4.2,0,0,1,2,3.16A30.17,30.17,0,0,1,619.77,388.69Z"/><ellipse class="cls-1" cx="612.56" cy="399.4" rx="5.2" ry="4.55" transform="translate(-67.27 130) rotate(-11.49)"/><path d="M617.46,398.4a2.17,2.17,0,0,0-1-1.46,3,3,0,0,0-1.66-.4,17.67,17.67,0,0,1-2.81,0,8.44,8.44,0,0,0-1.59,0,2.64,2.64,0,0,0-1.51.67,2.41,2.41,0,0,0-.73,1.46,2.44,2.44,0,0,0,.38,1.52,3.25,3.25,0,0,0,1,1,4.84,4.84,0,0,0,1.07.53,6.24,6.24,0,0,0,2.44,0,8,8,0,0,0,1.27-.26,12.92,12.92,0,0,0,1.39-.38,2.79,2.79,0,0,0,1.38-1A2.24,2.24,0,0,0,617.46,398.4Zm.39-.08a12.13,12.13,0,0,1,.28,2.09,6.28,6.28,0,0,1-.37,2.4,4.7,4.7,0,0,1-1.54,2.06,6.46,6.46,0,0,1-7.38.19,5.32,5.32,0,0,1-1.86-1.91,4.9,4.9,0,0,1-.59-2.5,8,8,0,0,1,1.5-4.23,7.8,7.8,0,0,1,3.43-3.12,4.4,4.4,0,0,1,4.67,1,5.73,5.73,0,0,1,1.28,2A13,13,0,0,1,617.85,398.32Z"/><ellipse class="cls-1" cx="651.73" cy="413.18" rx="4.55" ry="5.2" transform="translate(235.37 1062.89) rotate(-89.72)"/><path d="M656.73,413.21a2.17,2.17,0,0,0-.68-1.64,3.05,3.05,0,0,0-1.54-.73,17.88,17.88,0,0,1-2.77-.54,8.64,8.64,0,0,0-1.55-.33,2.7,2.7,0,0,0-1.62.35,2.43,2.43,0,0,0-1,1.28,2.38,2.38,0,0,0,0,1.56,3.45,3.45,0,0,0,.77,1.16,4.38,4.38,0,0,0,1,.73,6.16,6.16,0,0,0,2.38.55,9.26,9.26,0,0,0,1.29,0,10.89,10.89,0,0,0,1.44-.09,2.91,2.91,0,0,0,1.56-.68A2.3,2.3,0,0,0,656.73,413.21Zm.4,0a12,12,0,0,1-.16,2.1,6.14,6.14,0,0,1-.85,2.27,4.69,4.69,0,0,1-1.93,1.71,6.43,6.43,0,0,1-2.5.58,6.6,6.6,0,0,1-4.76-1.9,5.29,5.29,0,0,1-1.43-2.25,4.79,4.79,0,0,1-.07-2.57,7.94,7.94,0,0,1,2.33-3.83,7.74,7.74,0,0,1,4-2.35,4.39,4.39,0,0,1,4.37,1.9,5.82,5.82,0,0,1,.83,2.26A12.76,12.76,0,0,1,657.13,413.21Z"/><ellipse class="cls-1" cx="539.74" cy="451.03" rx="4.55" ry="5.2" transform="translate(-73.61 106.71) rotate(-10.57)"/><path d="M544,450.24a2.76,2.76,0,0,0-.89-1.6,3.41,3.41,0,0,0-1.58-.76c-.52-.11-1-.12-1.32-.17l-1.13-.15a3.81,3.81,0,0,0-1.39,0,2.23,2.23,0,0,0-1.34.86,3,3,0,0,0,0,3.22,6.32,6.32,0,0,0,2,2.06,3.25,3.25,0,0,0,2,.35,3.4,3.4,0,0,0,.92-.2,6.46,6.46,0,0,0,1.25-.57A3.77,3.77,0,0,0,543.7,452,2.76,2.76,0,0,0,544,450.24Zm.39-.08c.13.65.25,1.31.35,2a7.17,7.17,0,0,1,0,2.36,4.39,4.39,0,0,1-1.2,2.35,5.18,5.18,0,0,1-2.55,1.35,5.42,5.42,0,0,1-2.85-.19,6,6,0,0,1-2.32-1.5,5.69,5.69,0,0,1-1.66-4.54,13.08,13.08,0,0,1,1-4.23,8.88,8.88,0,0,1,1.16-2,4.67,4.67,0,0,1,2.1-1.5,4.1,4.1,0,0,1,2.68,0,4,4,0,0,1,2,1.64,6.76,6.76,0,0,1,.81,2.21Z"/><ellipse class="cls-1" cx="620.78" cy="458.61" rx="5.2" ry="4.55" transform="translate(-19.76 28.03) rotate(-2.55)"/><path d="M625.78,458.38a2.18,2.18,0,0,0-.76-1.6,3,3,0,0,0-1.58-.65,18.55,18.55,0,0,1-2.79-.4,7.48,7.48,0,0,0-1.56-.25,2.66,2.66,0,0,0-1.6.42,2.42,2.42,0,0,0-.94,1.33,2.37,2.37,0,0,0,.13,1.56,3.38,3.38,0,0,0,.83,1.12,4.54,4.54,0,0,0,1,.68,6.25,6.25,0,0,0,2.4.43,11.14,11.14,0,0,0,1.29-.06,14.37,14.37,0,0,0,1.44-.16,3,3,0,0,0,1.52-.76A2.29,2.29,0,0,0,625.78,458.38Zm.4,0a11.52,11.52,0,0,1,0,2.1,6.35,6.35,0,0,1-.74,2.31,4.64,4.64,0,0,1-1.85,1.8,6.45,6.45,0,0,1-2.46.71,6.59,6.59,0,0,1-4.85-1.67,5.18,5.18,0,0,1-1.54-2.18,4.77,4.77,0,0,1-.2-2.55,8,8,0,0,1,2.14-3.95,7.78,7.78,0,0,1,3.88-2.55,4.4,4.4,0,0,1,4.46,1.69,6,6,0,0,1,.94,2.22A13.07,13.07,0,0,1,626.18,458.37Z"/><circle class="cls-1" cx="617.58" cy="462.9" r="5.2" transform="translate(110.89 1045.09) rotate(-85.82)"/><path d="M622.57,463.26a2.77,2.77,0,0,0-.52-1.85,3.42,3.42,0,0,0-1.48-1.09c-1.09-.41-1.8-.59-2.73-.94a5.73,5.73,0,0,0-1.57-.38,2.77,2.77,0,0,0-1.69.43,2.82,2.82,0,0,0-1.05,1.42,3.16,3.16,0,0,0,0,1.75,5.26,5.26,0,0,0,1.57,2.48,4.82,4.82,0,0,0,2.31.88,6,6,0,0,0,1.27,0,7.83,7.83,0,0,0,1.5-.15,3.29,3.29,0,0,0,1.62-.84A2.87,2.87,0,0,0,622.57,463.26Zm.39,0a17.43,17.43,0,0,1-.24,2.19,6.7,6.7,0,0,1-.85,2.38,4.76,4.76,0,0,1-2.06,1.83,6.14,6.14,0,0,1-2.77.53,6.4,6.4,0,0,1-4.85-2.67,5.56,5.56,0,0,1-.89-5.11,10.12,10.12,0,0,1,2.44-4,10.27,10.27,0,0,1,1.86-1.55,5.44,5.44,0,0,1,2.48-.85,4.65,4.65,0,0,1,2.62.6,4.3,4.3,0,0,1,1.8,2,6.52,6.52,0,0,1,.51,2.45C623,461.88,623,462.59,623,463.29Z"/><circle class="cls-1" cx="592.14" cy="484.92" r="4.55" transform="matrix(0.98, -0.19, 0.19, 0.98, -80.19, 119.2)"/><path d="M596.49,484.8a2.26,2.26,0,0,0-.64-1.55,2.75,2.75,0,0,0-1.43-.74,15.88,15.88,0,0,1-2.36-.47,5.45,5.45,0,0,0-1.36-.28,2.13,2.13,0,0,0-1.43.44,2.24,2.24,0,0,0-.77,1.31,2.74,2.74,0,0,0,.18,1.5,4.48,4.48,0,0,0,1.6,1.87,4.24,4.24,0,0,0,1.92.45,7.36,7.36,0,0,0,1,0,7.22,7.22,0,0,0,1.26-.15,2.66,2.66,0,0,0,1.39-.79A2.35,2.35,0,0,0,596.49,484.8Zm.4,0c0,.62.05,1.25,0,1.95a5.72,5.72,0,0,1-.47,2.25,4.16,4.16,0,0,1-1.67,1.88,5.66,5.66,0,0,1-2.45.73,5.76,5.76,0,0,1-4.64-2,5.12,5.12,0,0,1-1.19-2.22,5,5,0,0,1,0-2.34,9.71,9.71,0,0,1,1.83-3.76,9.3,9.3,0,0,1,1.51-1.58,4.87,4.87,0,0,1,2.13-1,4.09,4.09,0,0,1,2.41.28,3.89,3.89,0,0,1,1.8,1.67,5.86,5.86,0,0,1,.6,2.2C596.85,483.55,596.86,484.17,596.89,484.79Z"/><path class="cls-1" d="M573.75,503.28c-.52-2.55-3.14-4-6-3.41s-4.7,3-4.18,5.5,3.15,4,6,3.41S574.27,505.83,573.75,503.28Z"/><path d="M573.56,503.32a2.23,2.23,0,0,0-1-1.47,3.05,3.05,0,0,0-1.66-.39,17.85,17.85,0,0,1-2.82,0,8.44,8.44,0,0,0-1.59,0,2.62,2.62,0,0,0-1.51.68,2.34,2.34,0,0,0-.72,1.45,2.41,2.41,0,0,0,.38,1.52,3.41,3.41,0,0,0,1,1,5.28,5.28,0,0,0,1.07.52,6.24,6.24,0,0,0,2.44,0,11,11,0,0,0,1.27-.26c.42-.12.89-.2,1.39-.39a2.85,2.85,0,0,0,1.38-1A2.3,2.3,0,0,0,573.56,503.32Zm.39-.08a12,12,0,0,1,.28,2.08,6,6,0,0,1-.37,2.4,4.71,4.71,0,0,1-1.53,2.07,6.44,6.44,0,0,1-2.33,1.08,6.59,6.59,0,0,1-5-.87,5.32,5.32,0,0,1-1.86-1.91,4.81,4.81,0,0,1-.6-2.5,8,8,0,0,1,1.49-4.23,7.76,7.76,0,0,1,3.43-3.13,4.4,4.4,0,0,1,4.67,1,5.92,5.92,0,0,1,1.28,2A14.48,14.48,0,0,1,574,503.24Z"/><circle class="cls-1" cx="527.77" cy="571.09" r="5.2"/><path d="M532.76,571.34a2.72,2.72,0,0,0-.56-1.84,3.4,3.4,0,0,0-1.5-1.06c-1.1-.38-1.81-.54-2.75-.88a6.14,6.14,0,0,0-1.57-.34,2.66,2.66,0,0,0-1.68.47,2.82,2.82,0,0,0-1,1.44,3.16,3.16,0,0,0,0,1.75,5.24,5.24,0,0,0,1.62,2.45,4.75,4.75,0,0,0,2.32.82,6.83,6.83,0,0,0,1.28,0,8.93,8.93,0,0,0,1.49-.19,3.3,3.3,0,0,0,1.61-.88A2.78,2.78,0,0,0,532.76,571.34Zm.4,0a19.43,19.43,0,0,1-.19,2.2,6.82,6.82,0,0,1-.81,2.4,4.73,4.73,0,0,1-2,1.87,6.22,6.22,0,0,1-2.75.59,6.38,6.38,0,0,1-4.91-2.56,5.73,5.73,0,0,1-1.15-2.49,5.8,5.8,0,0,1,.14-2.6,10.1,10.1,0,0,1,2.35-4,10.24,10.24,0,0,1,1.83-1.6,5.5,5.5,0,0,1,2.46-.9,4.65,4.65,0,0,1,2.63.54,4.35,4.35,0,0,1,1.84,2,6.55,6.55,0,0,1,.57,2.44C533.2,570,533.18,570.66,533.16,571.36Z"/><circle class="cls-1" cx="507.67" cy="576.38" r="4.55"/><path d="M511.93,577.23a2.25,2.25,0,0,0-.27-1.66,2.8,2.8,0,0,0-1.23-1,13.68,13.68,0,0,1-2.2-1A5.85,5.85,0,0,0,507,573a2.13,2.13,0,0,0-1.49.11,2.21,2.21,0,0,0-1,1.11,2.58,2.58,0,0,0-.16,1.5,4.44,4.44,0,0,0,1.14,2.18,4.3,4.3,0,0,0,1.78.87,7.1,7.1,0,0,0,1,.21,9.65,9.65,0,0,0,1.26.14,2.76,2.76,0,0,0,1.53-.46A2.33,2.33,0,0,0,511.93,577.23Zm.4.08c-.12.61-.23,1.23-.41,1.91a6,6,0,0,1-1,2.09,4.22,4.22,0,0,1-2,1.46,5.67,5.67,0,0,1-2.55.17,5.81,5.81,0,0,1-4.09-3,4.94,4.94,0,0,1-.14-4.71,10,10,0,0,1,2.63-3.25,9.29,9.29,0,0,1,1.82-1.21,4.9,4.9,0,0,1,2.31-.53,4.13,4.13,0,0,1,2.29.81,3.87,3.87,0,0,1,1.37,2,5.74,5.74,0,0,1,.1,2.28C512.56,576.09,512.43,576.7,512.33,577.31Z"/><ellipse class="cls-1" cx="467.03" cy="576.87" rx="5.2" ry="4.55" transform="translate(-17.06 14.24) rotate(-1.72)"/><path d="M472,576.72a2.21,2.21,0,0,0-.73-1.62,3,3,0,0,0-1.57-.67A17,17,0,0,1,467,574a9,9,0,0,0-1.56-.28,2.66,2.66,0,0,0-1.61.41,2.32,2.32,0,0,0-.85,2.87,3.28,3.28,0,0,0,.81,1.13,4.58,4.58,0,0,0,1,.7,6.08,6.08,0,0,0,2.4.46,9.32,9.32,0,0,0,1.29,0,13.91,13.91,0,0,0,1.44-.14,2.85,2.85,0,0,0,1.53-.74A2.31,2.31,0,0,0,472,576.72Zm.4,0a11.62,11.62,0,0,1-.08,2.1,6,6,0,0,1-.77,2.3,4.85,4.85,0,0,1-1.87,1.78,6.49,6.49,0,0,1-7.3-1.07,5.24,5.24,0,0,1-1.51-2.2,4.79,4.79,0,0,1-.16-2.56,7.9,7.9,0,0,1,2.2-3.92,7.75,7.75,0,0,1,3.91-2.49,4.39,4.39,0,0,1,4.43,1.76,5.57,5.57,0,0,1,.91,2.22A12.08,12.08,0,0,1,472.43,576.71Z"/><path class="cls-1" d="M501.1,661.72a5.2,5.2,0,1,0-5.19,5.22A5.6,5.6,0,0,0,501.1,661.72Z"/><path d="M500.9,661.72a2.89,2.89,0,0,0-.38-1.41,3,3,0,0,0-1-1,8.55,8.55,0,0,0-2.27-.75c-.65-.15-1.28-.37-2.09-.55a3,3,0,0,0-2.49.49,2.82,2.82,0,0,0-1,2.39,4.32,4.32,0,0,0,.95,2.25,8.57,8.57,0,0,0,.7.75,3.59,3.59,0,0,0,.82.51,6.05,6.05,0,0,0,1.8.41h-.24a9.49,9.49,0,0,0,1.37-.17,14.33,14.33,0,0,0,1.55-.32,3.51,3.51,0,0,0,1.59-.89A2.55,2.55,0,0,0,500.9,661.72Zm.4,0a11.59,11.59,0,0,1-.16,2.16,7.31,7.31,0,0,1-.74,2.34,5.23,5.23,0,0,1-1.76,1.92,6.67,6.67,0,0,1-2.49.91h-.23a6.24,6.24,0,0,1-4-1.29,5.84,5.84,0,0,1-2-7.19,11.14,11.14,0,0,1,1.79-3,8.4,8.4,0,0,1,2.87-2.34,4.64,4.64,0,0,1,3.94,0,4.38,4.38,0,0,1,1.58,1.28,5.46,5.46,0,0,1,.84,1.78A15.57,15.57,0,0,1,501.3,661.72Z"/><circle class="cls-1" cx="358.66" cy="711.38" r="4.55"/><path d="M363,711.33a2.2,2.2,0,0,0-.62-1.56A2.69,2.69,0,0,0,361,709a14.18,14.18,0,0,1-2.35-.51,6,6,0,0,0-1.36-.3,2.22,2.22,0,0,0-1.44.42,2.26,2.26,0,0,0-.78,1.3,2.69,2.69,0,0,0,.16,1.51,4.49,4.49,0,0,0,1.56,1.89,4.4,4.4,0,0,0,1.92.48,7.36,7.36,0,0,0,1.05,0,8,8,0,0,0,1.26-.13,2.58,2.58,0,0,0,1.4-.77A2.3,2.3,0,0,0,363,711.33Zm.4,0c0,.62,0,1.25,0,2a5.94,5.94,0,0,1-.51,2.24,4.18,4.18,0,0,1-1.7,1.86,5.75,5.75,0,0,1-2.45.69,5.82,5.82,0,0,1-4.62-2,4.91,4.91,0,0,1-1.11-4.58,9.68,9.68,0,0,1,1.89-3.73,9,9,0,0,1,1.53-1.56,5,5,0,0,1,2.14-1,4.2,4.2,0,0,1,2.41.32,3.79,3.79,0,0,1,1.77,1.7,5.61,5.61,0,0,1,.57,2.2C363.39,710.08,363.39,710.7,363.41,711.32Z"/><path class="cls-1" d="M401.21,733.17a5.2,5.2,0,1,0-4.9,5.48A5.12,5.12,0,0,0,401.21,733.17Z"/><path d="M401,733.19a2.73,2.73,0,0,0-.75-1.78,3.38,3.38,0,0,0-1.6-.89c-1.13-.26-1.86-.35-2.83-.59a6.19,6.19,0,0,0-1.6-.17,2.68,2.68,0,0,0-1.62.64,2.85,2.85,0,0,0-.87,1.54,3.2,3.2,0,0,0,.18,1.74,5.21,5.21,0,0,0,1.87,2.26,4.76,4.76,0,0,0,2.4.58,5.52,5.52,0,0,0,1.27-.12,8.22,8.22,0,0,0,1.47-.34,3.36,3.36,0,0,0,1.5-1A2.8,2.8,0,0,0,401,733.19Zm.4,0a17.82,17.82,0,0,1,0,2.21,6.74,6.74,0,0,1-.55,2.47,4.73,4.73,0,0,1-1.8,2.07,6.06,6.06,0,0,1-2.68.87,6.37,6.37,0,0,1-5.15-2,5.71,5.71,0,0,1-1.4-2.36,5.62,5.62,0,0,1-.13-2.6,9.93,9.93,0,0,1,1.91-4.26,10.07,10.07,0,0,1,1.64-1.78,5.4,5.4,0,0,1,2.36-1.16,4.75,4.75,0,0,1,2.68.26,4.36,4.36,0,0,1,2,1.76,6.51,6.51,0,0,1,.82,2.37A21.68,21.68,0,0,1,401.41,733.16Z"/><ellipse class="cls-1" cx="390.43" cy="735.67" rx="4.55" ry="5.2" transform="translate(-132.58 87.52) rotate(-10.95)"/><path d="M394.7,734.84a2.73,2.73,0,0,0-.89-1.59,3.37,3.37,0,0,0-1.59-.75,11.52,11.52,0,0,0-1.33-.16l-1.13-.14a3.63,3.63,0,0,0-1.39,0,2.2,2.2,0,0,0-1.33.88,3,3,0,0,0,0,3.22,6.18,6.18,0,0,0,2,2,3.23,3.23,0,0,0,2,.31,3.94,3.94,0,0,0,1-.22,5.77,5.77,0,0,0,1.23-.54,3.32,3.32,0,0,0,1.2-1.26A2.84,2.84,0,0,0,394.7,734.84Zm.4-.08c.13.65.28,1.3.4,2a6.76,6.76,0,0,1,.07,2.39,4.37,4.37,0,0,1-1.24,2.38,5.41,5.41,0,0,1-2.5,1.32,5.35,5.35,0,0,1-2.86-.14,6,6,0,0,1-2.35-1.47,5.69,5.69,0,0,1-1.73-4.52,13.1,13.1,0,0,1,1-4.25,8.52,8.52,0,0,1,1.14-2,4.64,4.64,0,0,1,2.09-1.53,4,4,0,0,1,2.68,0,4,4,0,0,1,2.05,1.62,6.6,6.6,0,0,1,.83,2.21Z"/><ellipse class="cls-1" cx="393.78" cy="738.06" rx="5.2" ry="4.55" transform="translate(-359.2 1102.5) rotate(-87.74)"/><path d="M398.13,738.23a2.79,2.79,0,0,0-.51-1.75,3.37,3.37,0,0,0-1.37-1.09c-.48-.22-.91-.33-1.25-.46l-1.06-.4a4.18,4.18,0,0,0-1.36-.31,2.25,2.25,0,0,0-1.5.55,3,3,0,0,0-.75,3.13,6.23,6.23,0,0,0,1.47,2.44,3.2,3.2,0,0,0,1.84.78,2.32,2.32,0,0,0,.91,0,7.65,7.65,0,0,0,1.38-.28,3.49,3.49,0,0,0,1.49-.93A2.72,2.72,0,0,0,398.13,738.23Zm.4,0c0,.66,0,1.33-.11,2.06a7.19,7.19,0,0,1-.53,2.31,4.48,4.48,0,0,1-1.68,2,5.05,5.05,0,0,1-2.8.77,5.33,5.33,0,0,1-2.73-.83,6,6,0,0,1-1.93-2,5.69,5.69,0,0,1-.6-4.79,13,13,0,0,1,2-3.89,8.11,8.11,0,0,1,1.58-1.71,4.63,4.63,0,0,1,2.38-1,4.11,4.11,0,0,1,2.61.62,4,4,0,0,1,1.61,2,6.78,6.78,0,0,1,.3,2.35Z"/><circle class="cls-1" cx="376.57" cy="738.73" r="4.55"/><path d="M380.91,739.05a2.28,2.28,0,0,0-.48-1.61,2.84,2.84,0,0,0-1.35-.88,13.91,13.91,0,0,1-2.3-.7,5.52,5.52,0,0,0-1.32-.41,2.12,2.12,0,0,0-1.47.29,2.25,2.25,0,0,0-.9,1.22,2.71,2.71,0,0,0,0,1.52,4.47,4.47,0,0,0,1.39,2,4.3,4.3,0,0,0,1.88.64,6,6,0,0,0,1,.08,7.89,7.89,0,0,0,1.27,0,2.65,2.65,0,0,0,1.46-.64A2.34,2.34,0,0,0,380.91,739.05Zm.4,0c0,.62-.07,1.25-.17,1.94a5.81,5.81,0,0,1-.7,2.2,4.13,4.13,0,0,1-1.85,1.7,5.59,5.59,0,0,1-2.51.48,5.77,5.77,0,0,1-4.42-2.43,5,5,0,0,1-.72-4.65,9.68,9.68,0,0,1,2.21-3.55,8.94,8.94,0,0,1,1.65-1.43,4.85,4.85,0,0,1,2.23-.81,4.08,4.08,0,0,1,2.37.52,3.86,3.86,0,0,1,1.62,1.84,5.74,5.74,0,0,1,.37,2.25C381.39,737.84,381.34,738.46,381.31,739.08Z"/><path class="cls-1" d="M357.06,741.41c.2-2.6-1.92-4.71-4.84-4.94s-5.33,1.55-5.53,4.14,1.92,4.71,4.84,4.94S356.86,744,357.06,741.41Z"/><path d="M356.86,741.39a2.19,2.19,0,0,0-.56-1.68,3,3,0,0,0-1.49-.84,19.64,19.64,0,0,1-2.72-.73,7.32,7.32,0,0,0-1.52-.44,2.65,2.65,0,0,0-1.64.23,2.36,2.36,0,0,0-1.09,1.2,2.42,2.42,0,0,0-.06,1.57,3.36,3.36,0,0,0,.68,1.21,5,5,0,0,0,.89.79,6.22,6.22,0,0,0,2.34.72,9.22,9.22,0,0,0,1.29.09,13.43,13.43,0,0,0,1.44,0A2.9,2.9,0,0,0,356,743,2.25,2.25,0,0,0,356.86,741.39Zm.4,0a10.58,10.58,0,0,1-.31,2.08,5.93,5.93,0,0,1-1,2.21,4.68,4.68,0,0,1-2.05,1.57,6.44,6.44,0,0,1-7.14-1.84,5.24,5.24,0,0,1-1.27-2.35,4.81,4.81,0,0,1,.12-2.56,7.92,7.92,0,0,1,2.59-3.66,7.75,7.75,0,0,1,4.16-2.06,4.38,4.38,0,0,1,4.22,2.21,5.84,5.84,0,0,1,.67,2.31A13.34,13.34,0,0,1,357.26,741.42Z"/><path class="cls-1" d="M385,752.88a5.2,5.2,0,1,0-5.1,5.3A5.14,5.14,0,0,0,385,752.88Z"/><path d="M384.79,752.88a2.77,2.77,0,0,0-.69-1.79,3.53,3.53,0,0,0-1.57-1c-1.12-.3-1.85-.41-2.81-.68a6,6,0,0,0-1.59-.23,2.69,2.69,0,0,0-1.65.58,2.83,2.83,0,0,0-.92,1.51,3.24,3.24,0,0,0,.12,1.75,5.2,5.2,0,0,0,1.79,2.32,4.6,4.6,0,0,0,2.38.66,5.48,5.48,0,0,0,1.27-.07,8,8,0,0,0,1.48-.29,3.37,3.37,0,0,0,1.54-1A2.86,2.86,0,0,0,384.79,752.88Zm.4,0a18.48,18.48,0,0,1-.05,2.21,6.58,6.58,0,0,1-.63,2.45,4.82,4.82,0,0,1-1.87,2,6.14,6.14,0,0,1-2.71.77,6.4,6.4,0,0,1-5.08-2.2,5.78,5.78,0,0,1-1.32-2.41,5.86,5.86,0,0,1,0-2.6,10.11,10.11,0,0,1,2.06-4.19,9.93,9.93,0,0,1,1.71-1.72,5.43,5.43,0,0,1,2.39-1.08,4.65,4.65,0,0,1,2.67.36,4.3,4.3,0,0,1,2,1.82,6.4,6.4,0,0,1,.74,2.4C385.13,751.46,385.16,752.17,385.19,752.87Z"/><ellipse class="cls-1" cx="366.82" cy="754.26" rx="5.2" ry="4.55" transform="translate(-38.62 20.04) rotate(-2.97)"/><path d="M371.81,754a2.18,2.18,0,0,0-.76-1.6,3.09,3.09,0,0,0-1.59-.64,17.38,17.38,0,0,1-2.79-.38,9.27,9.27,0,0,0-1.56-.24,2.71,2.71,0,0,0-1.6.44,2.39,2.39,0,0,0-.93,1.34,2.35,2.35,0,0,0,.14,1.55,3.41,3.41,0,0,0,.83,1.12,4.8,4.8,0,0,0,1,.67,6.14,6.14,0,0,0,2.41.41,9.15,9.15,0,0,0,1.28-.07,11.87,11.87,0,0,0,1.44-.17,3,3,0,0,0,1.52-.77A2.28,2.28,0,0,0,371.81,754Zm.4,0a10.61,10.61,0,0,1,0,2.1,6.11,6.11,0,0,1-.72,2.32,4.78,4.78,0,0,1-1.83,1.82,6.45,6.45,0,0,1-7.32-.91,5.13,5.13,0,0,1-1.56-2.17,4.77,4.77,0,0,1-.22-2.55,8,8,0,0,1,2.11-4,7.77,7.77,0,0,1,3.86-2.58,4.4,4.4,0,0,1,4.47,1.66,5.76,5.76,0,0,1,1,2.2A12.06,12.06,0,0,1,372.21,754Z"/><ellipse class="cls-1" cx="397.92" cy="851.8" rx="4.55" ry="5.2" transform="translate(-458.96 1238.67) rotate(-89.26)"/><path d="M402.92,851.87a2.12,2.12,0,0,0-.66-1.64,2.92,2.92,0,0,0-1.53-.74,18.69,18.69,0,0,1-2.76-.57,9.43,9.43,0,0,0-1.54-.35,2.76,2.76,0,0,0-1.62.33,2.43,2.43,0,0,0-1,1.26,2.38,2.38,0,0,0,0,1.56,3.85,3.85,0,0,0,1.67,1.91,6,6,0,0,0,2.36.58,7.2,7.2,0,0,0,1.23,0,11.86,11.86,0,0,0,1.46-.11,3.32,3.32,0,0,0,1.6-.67A2.19,2.19,0,0,0,402.92,851.87Zm.4,0a9.65,9.65,0,0,1-.24,2.09,6.77,6.77,0,0,1-.88,2.22,4.69,4.69,0,0,1-1.89,1.72,6,6,0,0,1-2.55.58,6.54,6.54,0,0,1-4.72-2,5.28,5.28,0,0,1-1.39-2.28,4.84,4.84,0,0,1,0-2.56,7.88,7.88,0,0,1,2.38-3.78,7.7,7.7,0,0,1,4-2.3,4.37,4.37,0,0,1,4.34,1.94,6,6,0,0,1,.81,2.26A12.61,12.61,0,0,1,403.32,851.87Z"/><ellipse class="cls-1" cx="522.05" cy="872.58" rx="4.55" ry="5.2" transform="translate(-97.31 66.15) rotate(-6.63)"/><path d="M526.37,872.08a2.75,2.75,0,0,0-.78-1.66,3.34,3.34,0,0,0-1.52-.86,12.1,12.1,0,0,0-1.32-.26l-1.11-.23a4.16,4.16,0,0,0-1.39-.09,2.23,2.23,0,0,0-1.39.78,3,3,0,0,0-.24,3.22,6,6,0,0,0,1.84,2.18,3.18,3.18,0,0,0,1.94.46,3.89,3.89,0,0,0,1-.14,6.08,6.08,0,0,0,1.26-.45,3.22,3.22,0,0,0,1.3-1.17A2.84,2.84,0,0,0,526.37,872.08Zm.4-.05c.08.66.18,1.32.25,2.05a6.72,6.72,0,0,1-.12,2.38,4.29,4.29,0,0,1-1.41,2.28,5.4,5.4,0,0,1-2.59,1.13,5.32,5.32,0,0,1-2.84-.36,6,6,0,0,1-2.24-1.64,5.71,5.71,0,0,1-1.38-4.64,13.18,13.18,0,0,1,1.33-4.16,8.33,8.33,0,0,1,1.28-1.94,4.71,4.71,0,0,1,2.2-1.37,4.12,4.12,0,0,1,2.68.19,4,4,0,0,1,1.92,1.78,6.7,6.7,0,0,1,.66,2.27Z"/><path class="cls-1" d="M614.37,886.55c.23-2.59-1.85-4.74-4.76-5s-5.36,1.47-5.6,4.05,1.85,4.74,4.76,5A4.63,4.63,0,0,0,614.37,886.55Z"/><path d="M614.17,886.53a2.25,2.25,0,0,0-1.23-2.24,9.21,9.21,0,0,0-2.18-.65c-.64-.18-1.27-.42-2-.69a3.15,3.15,0,0,0-2.43,0,2.34,2.34,0,0,0-1.3,2,3,3,0,0,0,.75,2,3.77,3.77,0,0,0,1.42,1.09,7.79,7.79,0,0,0,1.8.46l.23,0a5.85,5.85,0,0,0,1.11.19,7.5,7.5,0,0,0,1.38,0,3,3,0,0,0,1.61-.62A2.39,2.39,0,0,0,614.17,886.53Zm.39,0a13.67,13.67,0,0,1-.31,2.1,6.19,6.19,0,0,1-1,2.25,4.4,4.4,0,0,1-2.16,1.59,5.76,5.76,0,0,1-2.76.19l.23,0a6.5,6.5,0,0,1-3.6-1.4,5.81,5.81,0,0,1-2.19-3.29,4.75,4.75,0,0,1,0-1.95,7.11,7.11,0,0,1,.64-1.71,8.82,8.82,0,0,1,2.16-2.52,9,9,0,0,1,3-1.76,4.65,4.65,0,0,1,3.61.28,4.5,4.5,0,0,1,2.22,2.94A10.11,10.11,0,0,1,614.56,886.57Z"/><circle class="cls-1" cx="629.41" cy="920.18" r="5.2"/><path d="M634.41,920.26a2.73,2.73,0,0,0-.63-1.82,3.51,3.51,0,0,0-1.53-1c-1.11-.34-1.83-.48-2.78-.78a6,6,0,0,0-1.58-.29,2.73,2.73,0,0,0-1.67.52,2.78,2.78,0,0,0-1,1.48,3.15,3.15,0,0,0,0,1.75A5.29,5.29,0,0,0,627,922.5a4.65,4.65,0,0,0,2.35.74,6,6,0,0,0,1.27,0,8.46,8.46,0,0,0,1.49-.24,3.33,3.33,0,0,0,1.57-.93A2.8,2.8,0,0,0,634.41,920.26Zm.4,0a21.27,21.27,0,0,1-.12,2.2,6.89,6.89,0,0,1-.72,2.42,4.88,4.88,0,0,1-2,2,6.22,6.22,0,0,1-2.74.67,6.39,6.39,0,0,1-5-2.38,5.59,5.59,0,0,1-1.18-5.06,11,11,0,0,1,4-5.77,5.5,5.5,0,0,1,2.43-1,4.72,4.72,0,0,1,2.66.45,4.41,4.41,0,0,1,1.9,1.9,6.34,6.34,0,0,1,.65,2.42C634.8,918.86,634.8,919.56,634.81,920.27Z"/><path class="cls-1" d="M531.44,921.11a5.2,5.2,0,1,0-4.89,5.49A5.14,5.14,0,0,0,531.44,921.11Z"/><path d="M531.24,921.12a2.77,2.77,0,0,0-.76-1.77,3.41,3.41,0,0,0-1.61-.89c-1.13-.26-1.86-.34-2.83-.57a5.78,5.78,0,0,0-1.6-.17,2.69,2.69,0,0,0-1.62.65,2.77,2.77,0,0,0-.86,1.54,3.11,3.11,0,0,0,.19,1.74,5.21,5.21,0,0,0,1.88,2.26,4.72,4.72,0,0,0,2.4.56,6.13,6.13,0,0,0,1.27-.12,8,8,0,0,0,1.46-.35,3.25,3.25,0,0,0,1.5-1A2.78,2.78,0,0,0,531.24,921.12Zm.4,0a17.82,17.82,0,0,1,0,2.21,6.7,6.7,0,0,1-.53,2.47,4.79,4.79,0,0,1-1.79,2.08,6.26,6.26,0,0,1-2.68.89,6.38,6.38,0,0,1-5.16-2,5.66,5.66,0,0,1-1.41-2.35,5.77,5.77,0,0,1-.15-2.6,11.05,11.05,0,0,1,3.54-6.06,5.43,5.43,0,0,1,2.34-1.16,4.57,4.57,0,0,1,2.68.25,4.37,4.37,0,0,1,2.05,1.74,6.54,6.54,0,0,1,.83,2.37C531.53,919.69,531.58,920.39,531.64,921.09Z"/><ellipse class="cls-1" cx="563.68" cy="933.19" rx="5.2" ry="4.55" transform="translate(-408.69 1426.2) rotate(-85.75)"/><path d="M568,933.51a2.82,2.82,0,0,0-.45-1.77,3.52,3.52,0,0,0-1.34-1.14c-.48-.24-.9-.36-1.24-.5l-1-.43a3.88,3.88,0,0,0-1.35-.35,2.22,2.22,0,0,0-1.52.5,3,3,0,0,0-.84,3.11,6.29,6.29,0,0,0,1.4,2.49,3.18,3.18,0,0,0,1.82.82,3.75,3.75,0,0,0,1,0,5.56,5.56,0,0,0,1.32-.19,3.32,3.32,0,0,0,1.5-.9A2.93,2.93,0,0,0,568,933.51Zm.39,0c0,.66-.06,1.32-.13,2.05a7,7,0,0,1-.57,2.33,4.32,4.32,0,0,1-1.81,2,5.41,5.41,0,0,1-5.49-.26,6.05,6.05,0,0,1-1.88-2,5.68,5.68,0,0,1-.48-4.82,13.18,13.18,0,0,1,2.09-3.84,8.23,8.23,0,0,1,1.63-1.66,4.55,4.55,0,0,1,2.42-.93,4.11,4.11,0,0,1,2.59.7,4,4,0,0,1,1.54,2.1,6.48,6.48,0,0,1,.23,2.35Z"/><ellipse class="cls-1" cx="588.01" cy="940.6" rx="5.2" ry="4.55" transform="translate(-30.44 19.73) rotate(-1.87)"/><path d="M593,940.44a2.2,2.2,0,0,0-.74-1.61,2.89,2.89,0,0,0-1.57-.67,18.15,18.15,0,0,1-2.78-.44,9,9,0,0,0-1.56-.27,2.66,2.66,0,0,0-1.61.41,2.34,2.34,0,0,0-1,1.32,2.32,2.32,0,0,0,.11,1.56,3.24,3.24,0,0,0,.81,1.12,4.58,4.58,0,0,0,1,.7,6.11,6.11,0,0,0,2.4.45,9.27,9.27,0,0,0,1.29,0,13.91,13.91,0,0,0,1.44-.14,2.94,2.94,0,0,0,1.53-.75A2.26,2.26,0,0,0,593,940.44Zm.4,0a10.67,10.67,0,0,1-.08,2.09,6.1,6.1,0,0,1-.76,2.31,4.64,4.64,0,0,1-1.87,1.78,6.32,6.32,0,0,1-2.47.67,6.57,6.57,0,0,1-4.83-1.71,5.36,5.36,0,0,1-1.52-2.2,4.89,4.89,0,0,1-.16-2.56,8,8,0,0,1,2.18-3.92,7.7,7.7,0,0,1,3.91-2.5,4.4,4.4,0,0,1,4.44,1.74,5.9,5.9,0,0,1,.92,2.22A14.28,14.28,0,0,1,593.41,940.43Z"/><ellipse class="cls-1" cx="462.24" cy="941.59" rx="5.2" ry="4.55" transform="translate(-8.03 3.98) rotate(-0.49)"/><path d="M467.24,941.55a2.21,2.21,0,0,0-.69-1.63,3.07,3.07,0,0,0-1.55-.7,17.91,17.91,0,0,1-2.77-.51,8.67,8.67,0,0,0-1.55-.31,2.59,2.59,0,0,0-1.61.36,2.35,2.35,0,0,0-1,1.28,2.38,2.38,0,0,0,.07,1.56,4,4,0,0,0,1.71,1.88,6,6,0,0,0,2.37.52,6.33,6.33,0,0,0,1.23,0,12.69,12.69,0,0,0,1.46-.15,3.23,3.23,0,0,0,1.58-.71A2.17,2.17,0,0,0,467.24,941.55Zm.4,0a9.65,9.65,0,0,1-.2,2.09,6.52,6.52,0,0,1-.83,2.24,4.59,4.59,0,0,1-1.85,1.75,6.2,6.2,0,0,1-2.54.65,6.58,6.58,0,0,1-4.76-1.88,5.34,5.34,0,0,1-1.44-2.24,4.86,4.86,0,0,1-.07-2.56,8,8,0,0,1,2.3-3.84,7.77,7.77,0,0,1,4-2.39,4.4,4.4,0,0,1,4.39,1.86,5.94,5.94,0,0,1,.85,2.24A12.86,12.86,0,0,1,467.64,941.55Z"/><ellipse class="cls-1" cx="602.59" cy="944.45" rx="5.2" ry="4.55" transform="translate(-120.92 89.09) rotate(-7.69)"/><path d="M607.55,943.78a2.22,2.22,0,0,0-.9-1.53,3,3,0,0,0-1.63-.51,17,17,0,0,1-2.81-.15,8.91,8.91,0,0,0-1.58-.11,2.73,2.73,0,0,0-1.56.57,2.43,2.43,0,0,0-.82,1.41,2.4,2.4,0,0,0,.27,1.54,3.39,3.39,0,0,0,.93,1,4.64,4.64,0,0,0,1,.59,6.13,6.13,0,0,0,2.43.21,9,9,0,0,0,1.28-.18,13.11,13.11,0,0,0,1.42-.28,2.91,2.91,0,0,0,1.45-.9A2.29,2.29,0,0,0,607.55,943.78Zm.39,0a10.79,10.79,0,0,1,.14,2.09,6.1,6.1,0,0,1-.53,2.37,4.67,4.67,0,0,1-1.67,2,6.42,6.42,0,0,1-2.39.92,6.57,6.57,0,0,1-5-1.22,5.3,5.3,0,0,1-1.73-2,4.82,4.82,0,0,1-.43-2.53,7.9,7.9,0,0,1,1.78-4.12,7.67,7.67,0,0,1,3.63-2.88,4.36,4.36,0,0,1,4.59,1.28,5.72,5.72,0,0,1,1.14,2.12A12.31,12.31,0,0,1,607.94,943.73Z"/><circle class="cls-1" cx="509.05" cy="950.38" r="5.2"/><path d="M514.05,950.44a2.7,2.7,0,0,0-.63-1.81,3.37,3.37,0,0,0-1.54-1c-1.11-.34-1.83-.47-2.78-.77a5.84,5.84,0,0,0-1.58-.29,2.72,2.72,0,0,0-1.66.53,2.84,2.84,0,0,0-1,1.49,3.11,3.11,0,0,0,.07,1.74,5.24,5.24,0,0,0,1.71,2.39,4.67,4.67,0,0,0,2.35.73,5.5,5.5,0,0,0,1.28,0,8.36,8.36,0,0,0,1.48-.24,3.22,3.22,0,0,0,1.57-.94A2.79,2.79,0,0,0,514.05,950.44Zm.4,0a18.73,18.73,0,0,1-.11,2.2,6.77,6.77,0,0,1-.71,2.43,4.79,4.79,0,0,1-1.94,1.95,6.19,6.19,0,0,1-2.73.68,6.37,6.37,0,0,1-5-2.37,5.52,5.52,0,0,1-1.19-5,10.19,10.19,0,0,1,2.19-4.13,10.06,10.06,0,0,1,1.77-1.66,5.42,5.42,0,0,1,2.42-1,4.63,4.63,0,0,1,2.66.44,4.36,4.36,0,0,1,1.91,1.89,6.6,6.6,0,0,1,.66,2.42C514.44,949,514.45,949.74,514.45,950.45Z"/><ellipse class="cls-1" cx="568.19" cy="950.35" rx="4.55" ry="5.2" transform="translate(-29.7 18.4) rotate(-1.81)"/><path d="M572.53,950.22a2.76,2.76,0,0,0-.63-1.72,3.37,3.37,0,0,0-1.45-1,13.1,13.1,0,0,0-1.28-.37l-1.1-.32a3.68,3.68,0,0,0-1.38-.2,2.21,2.21,0,0,0-1.45.66,3,3,0,0,0-.51,3.18,6.31,6.31,0,0,0,1.65,2.33,3.24,3.24,0,0,0,1.9.63,3.88,3.88,0,0,0,1-.07,5.58,5.58,0,0,0,1.3-.34,3.3,3.3,0,0,0,1.39-1A2.86,2.86,0,0,0,572.53,950.22Zm.4,0c0,.66.08,1.33.08,2.06a6.94,6.94,0,0,1-.31,2.37,4.36,4.36,0,0,1-1.6,2.15,5.35,5.35,0,0,1-5.48.31,6,6,0,0,1-2.09-1.82,5.68,5.68,0,0,1-1-4.74,13.32,13.32,0,0,1,1.68-4,8.52,8.52,0,0,1,1.44-1.82,4.61,4.61,0,0,1,2.31-1.18,4.08,4.08,0,0,1,2.65.42,3.92,3.92,0,0,1,1.76,1.93,6.62,6.62,0,0,1,.47,2.32Z"/><ellipse class="cls-1" cx="504.48" cy="962.38" rx="5.2" ry="4.55" transform="translate(-30.5 16.62) rotate(-1.83)"/><path d="M509.48,962.22a2.2,2.2,0,0,0-.73-1.62,3.11,3.11,0,0,0-1.57-.67,18.31,18.31,0,0,1-2.79-.43,8.18,8.18,0,0,0-1.56-.27,2.65,2.65,0,0,0-1.6.41,2.32,2.32,0,0,0-.85,2.87,3.53,3.53,0,0,0,.81,1.13,4.53,4.53,0,0,0,1,.69,6,6,0,0,0,2.4.46,9.22,9.22,0,0,0,1.29,0,13.85,13.85,0,0,0,1.44-.15,2.85,2.85,0,0,0,1.53-.74A2.22,2.22,0,0,0,509.48,962.22Zm.4,0a10.67,10.67,0,0,1-.08,2.09,6.1,6.1,0,0,1-.76,2.31,4.71,4.71,0,0,1-1.87,1.78,6.37,6.37,0,0,1-2.47.67,6.61,6.61,0,0,1-4.83-1.72,5.24,5.24,0,0,1-1.51-2.2,4.8,4.8,0,0,1-.17-2.56,9.37,9.37,0,0,1,6.1-6.42,4.39,4.39,0,0,1,4.43,1.75,5.74,5.74,0,0,1,.92,2.22A13,13,0,0,1,509.88,962.21Z"/><path class="cls-1" d="M558.72,964.81a5.2,5.2,0,1,0-4.72,5.64C556.88,969.87,559,967.4,558.72,964.81Z"/><path d="M558.52,964.83a2.92,2.92,0,0,0-.5-1.37,3,3,0,0,0-1.11-.92,8.52,8.52,0,0,0-2.33-.54c-.66-.1-1.31-.26-2.13-.37a3,3,0,0,0-2.43.7,2.81,2.81,0,0,0-.8,2.47,4.32,4.32,0,0,0,1.14,2.15,7.07,7.07,0,0,0,.77.7,3.78,3.78,0,0,0,.85.43,6,6,0,0,0,1.83.25l-.24,0a8.32,8.32,0,0,0,1.35-.28,13.15,13.15,0,0,0,1.52-.45,3.62,3.62,0,0,0,1.51-1A2.59,2.59,0,0,0,558.52,964.83Zm.39,0a13.08,13.08,0,0,1,0,2.18,7.37,7.37,0,0,1-.55,2.39,5.14,5.14,0,0,1-1.58,2.06,6.68,6.68,0,0,1-2.4,1.12h-.07l-.17,0a6.3,6.3,0,0,1-4.11-.94,5.86,5.86,0,0,1-2.57-7,10.89,10.89,0,0,1,1.54-3.11,8.29,8.29,0,0,1,2.65-2.58,4.69,4.69,0,0,1,3.93-.33,4.54,4.54,0,0,1,1.68,1.15,5.25,5.25,0,0,1,1,1.7A15.26,15.26,0,0,1,558.91,964.79Z"/><ellipse class="cls-1" cx="632.95" cy="968.37" rx="5.2" ry="4.55" transform="translate(-443.41 1392.41) rotate(-78.33)"/><path d="M637.21,969.25a2.79,2.79,0,0,0-.22-1.82,3.45,3.45,0,0,0-1.17-1.3,12.71,12.71,0,0,0-1.17-.65l-1-.57a3.87,3.87,0,0,0-1.29-.52,2.32,2.32,0,0,0-1.57.3,3,3,0,0,0-1.23,3,6.25,6.25,0,0,0,1.06,2.65,3.29,3.29,0,0,0,1.7,1,3.94,3.94,0,0,0,1,.17,5.54,5.54,0,0,0,1.34,0,3.26,3.26,0,0,0,1.6-.7A2.88,2.88,0,0,0,637.21,969.25Zm.39.08c-.13.65-.24,1.31-.4,2a6.79,6.79,0,0,1-.86,2.23,4.36,4.36,0,0,1-2.05,1.72,5.42,5.42,0,0,1-5.41-1,6.08,6.08,0,0,1-1.61-2.25,5.7,5.7,0,0,1,.15-4.84,13.25,13.25,0,0,1,2.57-3.54,8.77,8.77,0,0,1,1.83-1.44,4.71,4.71,0,0,1,2.52-.61,4.13,4.13,0,0,1,2.48,1,4,4,0,0,1,1.26,2.29,6.58,6.58,0,0,1-.08,2.36Z"/><circle class="cls-1" cx="458.24" cy="966.75" r="5.2"/><path d="M463.12,965.64a2.8,2.8,0,0,0-1-1.62,3.45,3.45,0,0,0-1.73-.61c-1.16-.07-1.9,0-2.89-.1a6,6,0,0,0-1.61.1,2.66,2.66,0,0,0-1.49.91,2.8,2.8,0,0,0-.59,1.67,3.15,3.15,0,0,0,.47,1.68,5.18,5.18,0,0,0,2.23,1.91,4.59,4.59,0,0,0,2.46.16,5.47,5.47,0,0,0,1.23-.33,8.84,8.84,0,0,0,1.39-.58,3.29,3.29,0,0,0,1.3-1.29A2.78,2.78,0,0,0,463.12,965.64Zm.39-.09a21.82,21.82,0,0,1,.41,2.16,6.84,6.84,0,0,1-.12,2.53,4.7,4.7,0,0,1-1.43,2.35,6.25,6.25,0,0,1-2.49,1.32,6.37,6.37,0,0,1-5.42-1.13,5.68,5.68,0,0,1-1.78-2.09,5.62,5.62,0,0,1-.57-2.53,11,11,0,0,1,2.48-6.56,5.48,5.48,0,0,1,2.12-1.54,4.74,4.74,0,0,1,2.69-.2,4.38,4.38,0,0,1,2.3,1.39,6.44,6.44,0,0,1,1.21,2.19C463.16,964.18,463.34,964.87,463.51,965.55Z"/><circle class="cls-1" cx="548.69" cy="973.43" r="4.55"/><path d="M553,973.31a2.27,2.27,0,0,0-.65-1.56A2.82,2.82,0,0,0,551,971a14.48,14.48,0,0,1-2.36-.47,5.55,5.55,0,0,0-1.36-.28,2.16,2.16,0,0,0-1.43.45,2.19,2.19,0,0,0-.77,1.3,2.78,2.78,0,0,0,.18,1.51,4.54,4.54,0,0,0,1.6,1.87,4.24,4.24,0,0,0,1.93.44,6,6,0,0,0,1,0,7.22,7.22,0,0,0,1.26-.15,2.66,2.66,0,0,0,1.39-.79A2.37,2.37,0,0,0,553,973.31Zm.4,0c0,.62,0,1.24,0,2a5.92,5.92,0,0,1-.48,2.25,4.16,4.16,0,0,1-1.67,1.88,5.58,5.58,0,0,1-2.44.73,5.77,5.77,0,0,1-4.65-2,5,5,0,0,1-1.19-4.56,9.87,9.87,0,0,1,1.84-3.76,9.26,9.26,0,0,1,1.5-1.59,5,5,0,0,1,2.13-1,4.09,4.09,0,0,1,2.41.28,3.84,3.84,0,0,1,1.8,1.67,5.68,5.68,0,0,1,.6,2.2C553.39,972.05,553.4,972.67,553.44,973.3Z"/><ellipse class="cls-1" cx="311.37" cy="969.69" rx="5.2" ry="4.55" transform="translate(-48.9 17.08) rotate(-2.91)"/><path d="M316.36,969.44a2.18,2.18,0,0,0-.76-1.6,3,3,0,0,0-1.58-.64,18.55,18.55,0,0,1-2.8-.38,8.21,8.21,0,0,0-1.56-.25,2.75,2.75,0,0,0-1.6.44,2.39,2.39,0,0,0-.93,1.34,2.35,2.35,0,0,0,.14,1.55,3.52,3.52,0,0,0,.83,1.12,4.32,4.32,0,0,0,1,.67,6.13,6.13,0,0,0,2.4.42,11,11,0,0,0,1.29-.07c.43,0,.91-.06,1.44-.17a2.92,2.92,0,0,0,1.51-.77A2.26,2.26,0,0,0,316.36,969.44Zm.4,0a10.64,10.64,0,0,1,0,2.1,6,6,0,0,1-.72,2.32,4.62,4.62,0,0,1-1.83,1.81,6.45,6.45,0,0,1-7.32-.91,5.38,5.38,0,0,1-1.56-2.17,4.91,4.91,0,0,1-.21-2.56,7.9,7.9,0,0,1,2.12-4,7.69,7.69,0,0,1,3.85-2.58,4.4,4.4,0,0,1,4.47,1.66,5.8,5.8,0,0,1,1,2.21A12.06,12.06,0,0,1,316.76,969.42Z"/><ellipse class="cls-1" cx="419.57" cy="976.86" rx="4.55" ry="5.2" transform="translate(-104.59 51.9) rotate(-6.3)"/><path d="M423.9,976.38a2.79,2.79,0,0,0-.77-1.65,3.45,3.45,0,0,0-1.51-.88,12.1,12.1,0,0,0-1.32-.26l-1.1-.24a3.72,3.72,0,0,0-1.4-.1,2.18,2.18,0,0,0-1.39.76,3,3,0,0,0-.27,3.2,6.21,6.21,0,0,0,1.81,2.21,3.31,3.31,0,0,0,1.93.49,3.2,3.2,0,0,0,.93-.13,6.2,6.2,0,0,0,1.29-.48,3.52,3.52,0,0,0,1.34-1.16A2.74,2.74,0,0,0,423.9,976.38Zm.39,0c.08.66.16,1.32.2,2.06a7.66,7.66,0,0,1-.16,2.35A4.45,4.45,0,0,1,423,983a5.25,5.25,0,0,1-2.65,1.15,5.4,5.4,0,0,1-2.83-.4,6.08,6.08,0,0,1-2.21-1.67,5.73,5.73,0,0,1-1.31-4.65,13.19,13.19,0,0,1,1.37-4.14,8.14,8.14,0,0,1,1.3-1.92,4.58,4.58,0,0,1,2.21-1.35,4.16,4.16,0,0,1,2.67.22,4,4,0,0,1,1.9,1.79,6.43,6.43,0,0,1,.64,2.27Z"/><path class="cls-1" d="M301,979.52a5.2,5.2,0,1,0-5.79,4.54C298.16,984.08,300.69,982.1,301,979.52Z"/><path d="M300.8,979.49a2.83,2.83,0,0,0-.2-1.44,3,3,0,0,0-.89-1.13,8.56,8.56,0,0,0-2.17-1c-.62-.24-1.23-.53-2-.81a3,3,0,0,0-2.53.18,2.84,2.84,0,0,0-1.28,2.25,4.28,4.28,0,0,0,.66,2.35,8.29,8.29,0,0,0,.61.84,3.53,3.53,0,0,0,.75.6,5.87,5.87,0,0,0,1.73.62h-.24a9.1,9.1,0,0,0,1.38,0,11.46,11.46,0,0,0,1.58-.12,3.56,3.56,0,0,0,1.69-.69A2.5,2.5,0,0,0,300.8,979.49Zm.4,0a13.34,13.34,0,0,1-.42,2.13,7.58,7.58,0,0,1-1,2.23,5.24,5.24,0,0,1-2,1.69,6.72,6.72,0,0,1-2.58.6H295a6.42,6.42,0,0,1-5.71-5.45,6.24,6.24,0,0,1,.82-3.71,10.92,10.92,0,0,1,2.14-2.73,8.3,8.3,0,0,1,3.13-2,4.63,4.63,0,0,1,3.91.49,4.31,4.31,0,0,1,1.41,1.47,5.22,5.22,0,0,1,.62,1.87A15.74,15.74,0,0,1,301.2,979.54Z"/><path class="cls-1" d="M320.26,982.31c.23-2.59-1.87-4.74-4.78-5s-5.35,1.48-5.58,4.07,1.86,4.73,4.78,5A4.63,4.63,0,0,0,320.26,982.31Z"/><path d="M320.06,982.29a2.39,2.39,0,0,0-.28-1.32,2.47,2.47,0,0,0-.95-.92,9.85,9.85,0,0,0-2.19-.64c-.64-.17-1.27-.41-2-.68a3.13,3.13,0,0,0-2.44,0,2.36,2.36,0,0,0-1.29,2,3,3,0,0,0,.77,2,3.84,3.84,0,0,0,1.41,1.09,8.63,8.63,0,0,0,1.8.45l.24,0a5.16,5.16,0,0,0,1.11.19,6.79,6.79,0,0,0,1.38,0,3,3,0,0,0,1.61-.62A2.45,2.45,0,0,0,320.06,982.29Zm.4,0a15,15,0,0,1-.31,2.1,6.38,6.38,0,0,1-1,2.26,4.38,4.38,0,0,1-2.16,1.6,5.87,5.87,0,0,1-2.76.2l.24,0a6.41,6.41,0,0,1-3.61-1.38,5.84,5.84,0,0,1-2.21-3.28,5.12,5.12,0,0,1,0-2,7.1,7.1,0,0,1,.63-1.71,8.87,8.87,0,0,1,2.16-2.53,9.09,9.09,0,0,1,3-1.78,4.71,4.71,0,0,1,3.6.27,4.5,4.5,0,0,1,2.24,2.93A10.47,10.47,0,0,1,320.46,982.32Z"/><path class="cls-1" d="M315.36,999.6c.14-2.6-2-4.67-4.94-4.84s-5.3,1.66-5.45,4.25,2,4.67,4.94,4.84S315.21,1002.19,315.36,999.6Z"/><path d="M315.16,999.59a2.23,2.23,0,0,0-.59-1.68,3,3,0,0,0-1.51-.8,18.16,18.16,0,0,1-2.73-.68,7.78,7.78,0,0,0-1.53-.41,2.66,2.66,0,0,0-1.64.27,2.32,2.32,0,0,0-1.1,2.78,3.41,3.41,0,0,0,.71,1.2,5.09,5.09,0,0,0,.91.78,6.22,6.22,0,0,0,2.35.67,9.21,9.21,0,0,0,1.29.06,11.8,11.8,0,0,0,1.45,0,3,3,0,0,0,1.58-.6A2.27,2.27,0,0,0,315.16,999.59Zm.4,0a11.2,11.2,0,0,1-.27,2.08,6,6,0,0,1-1,2.23,4.68,4.68,0,0,1-2,1.61,6.42,6.42,0,0,1-2.52.45,6.61,6.61,0,0,1-4.66-2.14,5.12,5.12,0,0,1-1.31-2.32,4.75,4.75,0,0,1,.06-2.57,7.94,7.94,0,0,1,2.52-3.71,7.73,7.73,0,0,1,4.11-2.14,4.38,4.38,0,0,1,4.27,2.12,6,6,0,0,1,.72,2.3A13.54,13.54,0,0,1,315.56,999.61Z"/><path class="cls-1" d="M319.85,1008.22a5.2,5.2,0,1,0-5.29,5.11A5.59,5.59,0,0,0,319.85,1008.22Z"/><path d="M319.65,1008.22a2.72,2.72,0,0,0-1.36-2.44A8.24,8.24,0,0,0,316,1005c-.65-.17-1.28-.4-2.09-.59a3,3,0,0,0-2.49.43,2.82,2.82,0,0,0-1,2.37,4.31,4.31,0,0,0,.9,2.27c.24.28.45.54.69.77a3.38,3.38,0,0,0,.81.52,5.73,5.73,0,0,0,1.79.44h-.24a9.36,9.36,0,0,0,1.37-.14,15.77,15.77,0,0,0,1.56-.28,3.59,3.59,0,0,0,1.61-.87A2.52,2.52,0,0,0,319.65,1008.22Zm.4,0a12.79,12.79,0,0,1-.2,2.17,7.6,7.6,0,0,1-.79,2.32,5.26,5.26,0,0,1-1.8,1.89,6.69,6.69,0,0,1-2.5.85h-.24a6.27,6.27,0,0,1-4-1.37,6.44,6.44,0,0,1-2.25-3.46,6.24,6.24,0,0,1,.44-3.78,11.09,11.09,0,0,1,1.85-2.94,8.52,8.52,0,0,1,2.91-2.28,4.68,4.68,0,0,1,3.94.09A4.39,4.39,0,0,1,319,1003a5.33,5.33,0,0,1,.81,1.79A15.9,15.9,0,0,1,320.05,1008.22Z"/><circle class="cls-1" cx="442.32" cy="1011.99" r="5.2"/><path d="M447.29,1011.44a2.79,2.79,0,0,0-.84-1.73,3.6,3.6,0,0,0-1.65-.81c-1.15-.19-1.88-.24-2.86-.42a6,6,0,0,0-1.61-.09,2.69,2.69,0,0,0-1.58.73,2.76,2.76,0,0,0-.78,1.59,3.2,3.2,0,0,0,.27,1.73,5.3,5.3,0,0,0,2,2.15,4.68,4.68,0,0,0,2.43.44,6.17,6.17,0,0,0,1.26-.18,9,9,0,0,0,1.45-.42,3.3,3.3,0,0,0,1.44-1.13A2.77,2.77,0,0,0,447.29,1011.44Zm.4,0a18.79,18.79,0,0,1,.16,2.2,6.81,6.81,0,0,1-.41,2.49,4.78,4.78,0,0,1-1.69,2.17,6.11,6.11,0,0,1-2.63,1,6.37,6.37,0,0,1-5.25-1.74,5.55,5.55,0,0,1-1.8-4.87,10,10,0,0,1,1.67-4.36,9.81,9.81,0,0,1,1.55-1.86,5.38,5.38,0,0,1,2.28-1.29,4.66,4.66,0,0,1,2.69.12,4.3,4.3,0,0,1,2.13,1.63,6.6,6.6,0,0,1,.95,2.33C447.51,1010,447.6,1010.7,447.69,1011.4Z"/><ellipse class="cls-1" cx="333.24" cy="1021.25" rx="5.2" ry="4.55" transform="translate(-734.2 1141.95) rotate(-78.38)"/><path d="M337.5,1022.12a2.7,2.7,0,0,0-.22-1.81,3.37,3.37,0,0,0-1.17-1.3,12.08,12.08,0,0,0-1.17-.66l-1-.56a3.87,3.87,0,0,0-1.29-.52,2.2,2.2,0,0,0-1.57.3,3,3,0,0,0-1.23,3,6.25,6.25,0,0,0,1.06,2.65,3.29,3.29,0,0,0,1.7,1,4.1,4.1,0,0,0,1,.17,5.61,5.61,0,0,0,1.34,0,3.3,3.3,0,0,0,1.6-.7A2.87,2.87,0,0,0,337.5,1022.12Zm.39.08c-.12.65-.23,1.31-.4,2a6.76,6.76,0,0,1-.85,2.23,4.28,4.28,0,0,1-2.06,1.72,5.4,5.4,0,0,1-2.82.26,5.3,5.3,0,0,1-2.58-1.23,6,6,0,0,1-1.61-2.25,5.7,5.7,0,0,1,.14-4.84,13.25,13.25,0,0,1,2.57-3.54,8.16,8.16,0,0,1,1.83-1.44,4.66,4.66,0,0,1,2.51-.61,4.17,4.17,0,0,1,2.49,1,4,4,0,0,1,1.26,2.29,6.58,6.58,0,0,1-.08,2.36Z"/><ellipse class="cls-1" cx="337.69" cy="1024.34" rx="4.55" ry="5.2" transform="translate(-55 19.8) rotate(-3.11)"/><path d="M342,1024.1a2.81,2.81,0,0,0-.68-1.7,3.36,3.36,0,0,0-1.46-.95,12.16,12.16,0,0,0-1.3-.34l-1.1-.3a3.77,3.77,0,0,0-1.38-.17,2.25,2.25,0,0,0-1.44.69,3,3,0,0,0-.44,3.2,6.3,6.3,0,0,0,1.7,2.29,3.32,3.32,0,0,0,1.92.58,3.42,3.42,0,0,0,1-.09,5.56,5.56,0,0,0,1.29-.36,3.31,3.31,0,0,0,1.37-1.09A2.89,2.89,0,0,0,342,1024.1Zm.4,0c0,.66.1,1.33.12,2.06a6.61,6.61,0,0,1-.26,2.37,4.34,4.34,0,0,1-1.55,2.19,5.47,5.47,0,0,1-2.66,1,5.37,5.37,0,0,1-2.81-.54,6,6,0,0,1-2.13-1.77,5.66,5.66,0,0,1-1.09-4.71,13,13,0,0,1,1.58-4.08,8.4,8.4,0,0,1,1.4-1.86,4.7,4.7,0,0,1,2.28-1.23,4.16,4.16,0,0,1,2.66.36,4,4,0,0,1,1.8,1.89,6.7,6.7,0,0,1,.53,2.31Z"/><circle class="cls-1" cx="319.87" cy="1027.01" r="4.55"/><path d="M324.21,1027.32a2.29,2.29,0,0,0-.49-1.61,2.83,2.83,0,0,0-1.34-.87,14,14,0,0,1-2.31-.7,5.38,5.38,0,0,0-1.32-.41,2.18,2.18,0,0,0-1.47.3,2.24,2.24,0,0,0-.89,1.22,2.71,2.71,0,0,0,0,1.52,4.49,4.49,0,0,0,1.41,2,4.2,4.2,0,0,0,1.87.63,6,6,0,0,0,1,.08,7.88,7.88,0,0,0,1.27,0,2.64,2.64,0,0,0,1.46-.65A2.32,2.32,0,0,0,324.21,1027.32Zm.4,0c0,.62-.07,1.25-.17,2a5.8,5.8,0,0,1-.69,2.19,4.2,4.2,0,0,1-1.85,1.71,5.55,5.55,0,0,1-2.5.48,5.75,5.75,0,0,1-4.43-2.41,4.94,4.94,0,0,1-.73-4.66,9.66,9.66,0,0,1,2.2-3.55,9,9,0,0,1,1.65-1.44,5,5,0,0,1,2.22-.81,4.05,4.05,0,0,1,2.37.52,3.79,3.79,0,0,1,1.63,1.84,5.87,5.87,0,0,1,.38,2.24C324.69,1026.11,324.64,1026.73,324.61,1027.35Z"/><path class="cls-1" d="M382.08,1026c-.45-2.56-3-4.08-5.91-3.57s-4.78,2.83-4.33,5.39,3,4.08,5.92,3.57A4.62,4.62,0,0,0,382.08,1026Z"/><path d="M381.89,1026a2.24,2.24,0,0,0-1.78-1.83,8.79,8.79,0,0,0-2.27-.05c-.66,0-1.34-.07-2.14-.13a3.22,3.22,0,0,0-2.35.64,2.32,2.32,0,0,0-.73,2.24,2.93,2.93,0,0,0,1.26,1.73,3.68,3.68,0,0,0,1.65.68,7.76,7.76,0,0,0,1.86,0l.23,0a4.73,4.73,0,0,0,1.12-.11,7.09,7.09,0,0,0,1.34-.32,2.94,2.94,0,0,0,1.39-1A2.37,2.37,0,0,0,381.89,1026Zm.39-.07a13.7,13.7,0,0,1,.25,2.11,6.23,6.23,0,0,1-.35,2.43,4.41,4.41,0,0,1-1.67,2.11,5.72,5.72,0,0,1-2.61.91l.23,0a6.53,6.53,0,0,1-3.84-.39,5.89,5.89,0,0,1-3-2.6,5.09,5.09,0,0,1-.52-1.88,7.14,7.14,0,0,1,.17-1.81,8.75,8.75,0,0,1,1.42-3,8.91,8.91,0,0,1,2.41-2.5,4.64,4.64,0,0,1,3.55-.68,4.51,4.51,0,0,1,2.93,2.24A10.58,10.58,0,0,1,382.28,1025.93Z"/><path class="cls-1" d="M468.41,1029.44c-.07-2.6-2.4-4.48-5.32-4.41s-5.15,2.09-5.08,4.69,2.4,4.49,5.32,4.41A4.63,4.63,0,0,0,468.41,1029.44Z"/><path d="M468.21,1029.45a2.44,2.44,0,0,0-.42-1.29,2.41,2.41,0,0,0-1.06-.79,8.87,8.87,0,0,0-2.25-.39c-.65-.1-1.31-.26-2.09-.44a3.16,3.16,0,0,0-2.42.29,2.34,2.34,0,0,0-1.06,2.1,3,3,0,0,0,1,1.9,3.9,3.9,0,0,0,1.53.92,7.94,7.94,0,0,0,1.85.24h.23a6.07,6.07,0,0,0,1.13.06,8.32,8.32,0,0,0,1.37-.13,3,3,0,0,0,1.53-.8A2.38,2.38,0,0,0,468.21,1029.45Zm.4,0a12.83,12.83,0,0,1-.07,2.12,6.15,6.15,0,0,1-.71,2.35,4.32,4.32,0,0,1-2,1.84,5.79,5.79,0,0,1-2.72.51h.24a6.5,6.5,0,0,1-3.74-1,5.84,5.84,0,0,1-2.57-3,5,5,0,0,1-.24-1.94,7.16,7.16,0,0,1,.43-1.77,8.92,8.92,0,0,1,1.85-2.76,9.11,9.11,0,0,1,2.76-2.11,4.7,4.7,0,0,1,3.61-.15,4.48,4.48,0,0,1,2.56,2.66A10.48,10.48,0,0,1,468.61,1029.44Z"/><ellipse class="cls-1" cx="353.74" cy="1070.24" rx="5.2" ry="4.55" transform="translate(-750.8 1295.06) rotate(-83.21)"/><path d="M358.06,1070.76a2.79,2.79,0,0,0-.37-1.79,3.47,3.47,0,0,0-1.28-1.2c-.47-.26-.89-.4-1.22-.55l-1-.48a3.77,3.77,0,0,0-1.34-.41,2.26,2.26,0,0,0-1.53.43,3,3,0,0,0-1,3.08,6.21,6.21,0,0,0,1.28,2.55,3.32,3.32,0,0,0,1.79.9,4.1,4.1,0,0,0,1,.08,5.27,5.27,0,0,0,1.33-.14,3.25,3.25,0,0,0,1.54-.83A2.94,2.94,0,0,0,358.06,1070.76Zm.4,0c-.08.65-.13,1.32-.23,2a7,7,0,0,1-.67,2.3,4.37,4.37,0,0,1-1.9,1.88,5.36,5.36,0,0,1-5.47-.51,5.92,5.92,0,0,1-1.79-2.11,5.68,5.68,0,0,1-.27-4.83,13.29,13.29,0,0,1,2.26-3.75,8.65,8.65,0,0,1,1.7-1.58,4.64,4.64,0,0,1,2.46-.83,4.18,4.18,0,0,1,2.56.82,4,4,0,0,1,1.45,2.17,6.59,6.59,0,0,1,.12,2.36Z"/><circle class="cls-1" cx="376.41" cy="1282.18" r="5.2"/><path d="M381.31,1283.17a2.75,2.75,0,0,0-.29-1.91,3.41,3.41,0,0,0-1.32-1.27c-1-.53-1.72-.8-2.6-1.27a5.78,5.78,0,0,0-1.5-.57,2.66,2.66,0,0,0-1.73.21,2.77,2.77,0,0,0-1.23,1.28,3.24,3.24,0,0,0-.26,1.73,5.28,5.28,0,0,0,1.24,2.66,4.71,4.71,0,0,0,2.18,1.15,5.82,5.82,0,0,0,1.26.21,8.94,8.94,0,0,0,1.5,0,3.37,3.37,0,0,0,1.72-.64A2.79,2.79,0,0,0,381.31,1283.17Zm.39.08a17.44,17.44,0,0,1-.52,2.14,6.51,6.51,0,0,1-1.15,2.25,4.77,4.77,0,0,1-2.26,1.56,6.23,6.23,0,0,1-2.81.17,6.39,6.39,0,0,1-4.48-3.25,5.72,5.72,0,0,1-.77-2.64,5.82,5.82,0,0,1,.52-2.55,10.17,10.17,0,0,1,2.92-3.64,9.84,9.84,0,0,1,2.05-1.31,5.31,5.31,0,0,1,2.56-.53,4.62,4.62,0,0,1,2.53.92,4.37,4.37,0,0,1,1.53,2.21,6.37,6.37,0,0,1,.2,2.5C382,1281.85,381.82,1282.55,381.7,1283.25Z"/></g></svg>