<svg id="Annotations" xmlns="http://www.w3.org/2000/svg" width="18in" height="18in" viewBox="0 0 1296 1296"><defs><style>.cls-1{fill:#fff;stroke:#000;stroke-miterlimit:10;stroke-width:2px;}</style></defs><g id="Gages"><g id="Temperature"><ellipse class="cls-1" cx="669.7" cy="272.41" rx="4.04" ry="4.11" transform="translate(-40.74 406.5) rotate(-32.82)"/><ellipse class="cls-1" cx="637.72" cy="184.48" rx="4.37" ry="4.04" transform="translate(448.29 820.75) rotate(-89.56)"/><ellipse class="cls-1" cx="620.51" cy="196.17" rx="3.89" ry="4.01" transform="translate(-28.8 152.43) rotate(-13.69)"/><ellipse class="cls-1" cx="600.76" cy="192.03" rx="3.98" ry="4.24" transform="matrix(0.95, -0.31, 0.31, 0.95, -29.93, 196.49)"/><ellipse class="cls-1" cx="602.21" cy="257.25" rx="4.04" ry="4.4" transform="translate(-34.23 103.04) rotate(-9.51)"/><ellipse class="cls-1" cx="528.75" cy="178.17" rx="4.21" ry="4" transform="translate(249.5 661.23) rotate(-78.59)"/><ellipse class="cls-1" cx="506.47" cy="276.2" rx="4.26" ry="3.95" transform="translate(224.69 779.58) rotate(-89.37)"/><ellipse class="cls-1" cx="512.02" cy="268.1" rx="4.57" ry="3.75" transform="translate(130.06 701.86) rotate(-76.27)"/><ellipse class="cls-1" cx="549.2" cy="300.27" rx="4.19" ry="3.75" transform="translate(158.9 789.61) rotate(-80.09)"/><ellipse class="cls-1" cx="577.85" cy="393.74" rx="3.93" ry="3.87" transform="translate(-92.37 194.36) rotate(-17.7)"/><ellipse class="cls-1" cx="684.11" cy="237.76" rx="3.96" ry="4.17" transform="translate(-11.42 35.85) rotate(-2.98)"/><ellipse class="cls-1" cx="663.45" cy="250.41" rx="3.79" ry="4.04" transform="translate(-36.78 138.36) rotate(-11.59)"/><ellipse class="cls-1" cx="691.56" cy="224.41" rx="3.96" ry="4.06" transform="translate(-0.58 1.8) rotate(-0.15)"/><ellipse class="cls-1" cx="652.34" cy="261.09" rx="3.79" ry="4.11" transform="translate(-38.01 130.2) rotate(-11.08)"/><ellipse class="cls-1" cx="641.44" cy="279.84" rx="4" ry="3.97" transform="translate(0.58 561.01) rotate(-47.26)"/><ellipse class="cls-1" cx="642.18" cy="282.2" rx="3.92" ry="4.2" transform="translate(-8.84 21.04) rotate(-1.86)"/><ellipse class="cls-1" cx="642.18" cy="282.2" rx="3.99" ry="3.86" transform="translate(-59.27 283.53) rotate(-23.83)"/><ellipse class="cls-1" cx="646.62" cy="336.96" rx="3.81" ry="4.21" transform="translate(-67.43 189.33) rotate(-15.84)"/><ellipse class="cls-1" cx="650.26" cy="396.22" rx="4.18" ry="3.83" transform="translate(191.4 1003.91) rotate(-84.3)"/><ellipse class="cls-1" cx="650.26" cy="396.22" rx="3.91" ry="4.38" transform="translate(-23.35 41.14) rotate(-3.56)"/><ellipse class="cls-1" cx="521.45" cy="638.86" rx="4.21" ry="3.82" transform="translate(-125.37 1150.4) rotate(-89.12)"/><ellipse class="cls-1" cx="616.47" cy="773.12" rx="3.8" ry="4" transform="translate(-15.12 12.3) rotate(-1.13)"/><ellipse class="cls-1" cx="646.31" cy="843.15" rx="3.8" ry="4.2" transform="translate(-14.27 11.13) rotate(-0.98)"/><ellipse class="cls-1" cx="610.71" cy="832.15" rx="4.23" ry="3.93" transform="translate(-226.06 1436.51) rotate(-89.56)"/><ellipse class="cls-1" cx="556.03" cy="825.57" rx="3.95" ry="3.76" transform="translate(-247.48 238.1) rotate(-19.87)"/><ellipse class="cls-1" cx="517.24" cy="924.53" rx="3.88" ry="4.07" transform="translate(-8.45 4.78) rotate(-0.52)"/><ellipse class="cls-1" cx="390.77" cy="938.56" rx="3.79" ry="3.94" transform="translate(-595.86 1183.84) rotate(-81.36)"/><ellipse class="cls-1" cx="386.05" cy="922.91" rx="4.26" ry="3.82" transform="translate(-587.37 1153.69) rotate(-80.64)"/><ellipse class="cls-1" cx="398.57" cy="917.71" rx="4.01" ry="4.2" transform="translate(-250.38 156.19) rotate(-16.96)"/><ellipse class="cls-1" cx="403.2" cy="920.03" rx="4.33" ry="3.84" transform="matrix(0.17, -0.99, 0.99, 0.17, -572.38, 1159.37)"/><ellipse class="cls-1" cx="412.29" cy="900.97" rx="3.97" ry="4.27" transform="translate(-12.64 5.89) rotate(-0.81)"/><ellipse class="cls-1" cx="452.78" cy="977.71" rx="3.91" ry="3.81" transform="matrix(0.16, -0.99, 0.99, 0.16, -583.89, 1271.38)"/><ellipse class="cls-1" cx="439.57" cy="1159.03" rx="3.72" ry="4.02" transform="translate(-58.61 23.96) rotate(-2.93)"/><path class="cls-1" d="M566.73,1001.28a3.74,3.74,0,0,1,4.87,2.21,3.9,3.9,0,0,1-2.15,5,3.74,3.74,0,0,1-4.87-2.21A3.91,3.91,0,0,1,566.73,1001.28Z"/><ellipse class="cls-1" cx="565.4" cy="205.62" rx="3.97" ry="4.1" transform="translate(-12.84 39.5) rotate(-3.96)"/><ellipse class="cls-1" cx="564.68" cy="244.33" rx="3.73" ry="4.17" transform="translate(-37.39 117.57) rotate(-11.51)"/><ellipse class="cls-1" cx="464.08" cy="210.31" rx="3.9" ry="3.83" transform="translate(-44.56 180.53) rotate(-21.03)"/><ellipse class="cls-1" cx="672.33" cy="229.05" rx="4.51" ry="4.02" transform="translate(266.45 811.93) rotate(-73.96)"/><ellipse class="cls-1" cx="655.71" cy="251.96" rx="4.07" ry="3.79" transform="translate(337.64 878.27) rotate(-84.1)"/><ellipse class="cls-1" cx="645.21" cy="327.99" rx="4" ry="4.5" transform="matrix(1, -0.02, 0.02, 1, -6.35, 12.8)"/><ellipse class="cls-1" cx="606.57" cy="436.08" rx="4.45" ry="3.99" transform="translate(138.24 1018.11) rotate(-86.89)"/><ellipse class="cls-1" cx="551.53" cy="502.65" rx="4.35" ry="3.91" transform="translate(-32.37 967.31) rotate(-80.86)"/><ellipse class="cls-1" cx="570.93" cy="497.26" rx="4.02" ry="4.04" transform="matrix(0.86, -0.51, 0.51, 0.86, -174.05, 362.23)"/><ellipse class="cls-1" cx="511.24" cy="503.61" rx="4.3" ry="3.96" transform="translate(-7.99 998.98) rotate(-88.22)"/><ellipse class="cls-1" cx="541.26" cy="581.43" rx="3.9" ry="4.05" transform="translate(-75.46 80.75) rotate(-7.98)"/><ellipse class="cls-1" cx="416.45" cy="630.47" rx="3.76" ry="4.36" transform="translate(-70.29 52.54) rotate(-6.66)"/><ellipse class="cls-1" cx="516.59" cy="651.11" rx="4.15" ry="3.9" transform="translate(-174.87 1112.3) rotate(-85.27)"/><ellipse class="cls-1" cx="562.03" cy="674.56" rx="4.19" ry="3.96" transform="translate(-170.63 1158.41) rotate(-83.64)"/><ellipse class="cls-1" cx="571.88" cy="720.38" rx="4.06" ry="3.84" transform="translate(-230.97 1169.19) rotate(-80.76)"/><ellipse class="cls-1" cx="652.49" cy="788.63" rx="3.98" ry="4.47" transform="translate(-91.09 85.23) rotate(-6.99)"/><ellipse class="cls-1" cx="570.07" cy="777.77" rx="3.94" ry="4.14" transform="translate(-85.38 70.46) rotate(-6.58)"/><ellipse class="cls-1" cx="615" cy="848.1" rx="3.87" ry="4.15" transform="translate(-142.56 124.5) rotate(-10.37)"/><ellipse class="cls-1" cx="600.99" cy="861.6" rx="4.15" ry="3.88" transform="translate(-378.14 1242.17) rotate(-76.34)"/><ellipse class="cls-1" cx="674.79" cy="864.42" rx="3.86" ry="3.96" transform="translate(-312.12 1342.51) rotate(-77.87)"/><ellipse class="cls-1" cx="633.16" cy="839.03" rx="3.79" ry="4.38" transform="translate(-61.13 49.84) rotate(-4.3)"/><ellipse class="cls-1" cx="559.86" cy="847.68" rx="4.01" ry="3.94" transform="translate(-157.78 128.65) rotate(-11.5)"/><ellipse class="cls-1" cx="537.71" cy="825.32" rx="3.79" ry="4.12" transform="translate(-143.27 113.6) rotate(-10.65)"/><ellipse class="cls-1" cx="555.15" cy="859.29" rx="4.27" ry="4.08" transform="translate(-352.69 1330.88) rotate(-84.59)"/><ellipse class="cls-1" cx="389.21" cy="727.24" rx="4.03" ry="4.4" transform="translate(-54.06 31.63) rotate(-4.35)"/><ellipse class="cls-1" cx="455.96" cy="760.79" rx="4.24" ry="4" transform="translate(-326.8 1177.9) rotate(-87.12)"/><ellipse class="cls-1" cx="516.46" cy="839.75" rx="3.86" ry="4.3" transform="translate(-70.14 47.4) rotate(-4.92)"/><ellipse class="cls-1" cx="497" cy="851.4" rx="3.75" ry="4.08" transform="translate(-127.07 88.23) rotate(-9)"/><ellipse class="cls-1" cx="499.91" cy="908.1" rx="4.14" ry="3.98" transform="translate(-530.95 1017.1) rotate(-67.2)"/><ellipse class="cls-1" cx="535.44" cy="387.89" rx="4.23" ry="3.89" transform="translate(97.46 883.2) rotate(-84.44)"/><ellipse class="cls-1" cx="449.21" cy="654.62" rx="4.01" ry="3.91" transform="translate(-339.36 562.55) rotate(-48.88)"/><ellipse class="cls-1" cx="451.29" cy="650.37" rx="4.06" ry="4.57" transform="translate(-136.86 120.54) rotate(-13.23)"/><ellipse class="cls-1" cx="480.36" cy="791.68" rx="3.74" ry="4.24" transform="translate(-96.75 67.49) rotate(-7.3)"/><ellipse class="cls-1" cx="378.46" cy="871.87" rx="4.15" ry="4.06" transform="translate(-543.79 1101.74) rotate(-80.53)"/><ellipse class="cls-1" cx="378.9" cy="881" rx="3.99" ry="4.21" transform="translate(-44.01 20.26) rotate(-2.89)"/><ellipse class="cls-1" cx="379.34" cy="882.96" rx="4.13" ry="3.89" transform="translate(-556.85 1099.94) rotate(-79.8)"/><ellipse class="cls-1" cx="364.05" cy="879.57" rx="4.01" ry="4.23" transform="translate(-84.18 39.77) rotate(-5.61)"/><ellipse class="cls-1" cx="381.07" cy="905.34" rx="4.02" ry="3.75" transform="translate(-1.72 0.73) rotate(-0.11)"/><ellipse class="cls-1" cx="433.18" cy="655.35" rx="3.81" ry="3.9" transform="translate(-79.44 60.08) rotate(-7.27)"/><ellipse class="cls-1" cx="665.47" cy="273.34" rx="3.92" ry="4.63" transform="translate(-41.49 140.05) rotate(-11.65)"/><ellipse class="cls-1" cx="474.91" cy="209.09" rx="4.27" ry="3.79" transform="translate(183.91 638.71) rotate(-79.65)"/><ellipse class="cls-1" cx="422.22" cy="669.81" rx="4.03" ry="4.1" transform="translate(-167.88 141.89) rotate(-15.96)"/><ellipse class="cls-1" cx="446.13" cy="653.06" rx="4.17" ry="4" transform="translate(-314.62 869.33) rotate(-71.53)"/><ellipse class="cls-1" cx="575.93" cy="821.34" rx="4.04" ry="3.84" transform="translate(-364.62 1170.14) rotate(-75.31)"/><ellipse class="cls-1" cx="513.12" cy="866.4" rx="4.24" ry="3.74" transform="translate(-383.54 1324.58) rotate(-86.43)"/><ellipse class="cls-1" cx="478.74" cy="876.44" rx="3.92" ry="4.3" transform="translate(-116.04 74.2) rotate(-7.91)"/><ellipse class="cls-1" cx="375.26" cy="899.81" rx="4.06" ry="3.93" transform="translate(-535.26 1248.28) rotate(-88.3)"/><ellipse class="cls-1" cx="369.45" cy="850.45" rx="4.24" ry="3.91" transform="translate(-534.32 1057.71) rotate(-79.44)"/><ellipse class="cls-1" cx="439.23" cy="923.52" rx="3.83" ry="3.72" transform="matrix(0.13, -0.99, 0.99, 0.13, -532.15, 1243.27)"/><ellipse class="cls-1" cx="415.95" cy="963.82" rx="4.16" ry="3.81" transform="translate(-565.78 1335.52) rotate(-87.39)"/><ellipse class="cls-1" cx="410.16" cy="657.77" rx="3.84" ry="4.35" transform="translate(-135.06 106.75) rotate(-12.75)"/><ellipse class="cls-1" cx="436.29" cy="668.5" rx="4.02" ry="3.9" transform="translate(-60.26 43.46) rotate(-5.33)"/><ellipse class="cls-1" cx="446.05" cy="653.1" rx="3.93" ry="4.07" transform="translate(-198.99 195.47) rotate(-20.31)"/></g></g></svg>