<svg id="Gages" xmlns="http://www.w3.org/2000/svg" viewBox="0 0 936 1440"><defs><style>.cls-1{fill:#fff;}</style></defs><g id="Temperature"><ellipse class="cls-1" cx="488.27" cy="224.81" rx="5.2" ry="4.55" transform="translate(-21.92 55.53) rotate(-6.37)"/><path d="M493.24,224.26a2.2,2.2,0,0,0-.86-1.55,2.93,2.93,0,0,0-1.62-.54A18.08,18.08,0,0,1,488,222a8.54,8.54,0,0,0-1.57-.15,2.66,2.66,0,0,0-1.57.54,2.33,2.33,0,0,0-.62,2.93,3.3,3.3,0,0,0,.9,1.06,4.72,4.72,0,0,0,1,.62,6.09,6.09,0,0,0,2.43.26,9,9,0,0,0,1.28-.14,13.32,13.32,0,0,0,1.43-.26,2.9,2.9,0,0,0,1.46-.86A2.24,2.24,0,0,0,493.24,224.26Zm.4,0a11.8,11.8,0,0,1,.09,2.09,6.11,6.11,0,0,1-.58,2.36,4.76,4.76,0,0,1-1.72,1.92,6.47,6.47,0,0,1-2.42.87,6.57,6.57,0,0,1-4.94-1.34,5.24,5.24,0,0,1-1.69-2.07,4.81,4.81,0,0,1-.36-2.54,9.36,9.36,0,0,1,5.56-6.88,4.42,4.42,0,0,1,4.57,1.39,5.92,5.92,0,0,1,1.09,2.15A13.45,13.45,0,0,1,493.64,224.22Z"/><circle class="cls-1" cx="546.12" cy="234.95" r="4.55" transform="translate(-34 104.93) rotate(-10.65)"/><path d="M550.39,234.15a2.28,2.28,0,0,0-.88-1.43,2.88,2.88,0,0,0-1.52-.51,14.18,14.18,0,0,1-2.4-.09,5.57,5.57,0,0,0-1.38-.07,2.16,2.16,0,0,0-1.34.65,2.21,2.21,0,0,0-.56,1.41,2.57,2.57,0,0,0,.41,1.45,4.36,4.36,0,0,0,1.85,1.61,4.19,4.19,0,0,0,2,.16,4.13,4.13,0,0,0,1-.18,8.45,8.45,0,0,0,1.26-.4,2.87,2.87,0,0,0,1.28-1A2.17,2.17,0,0,0,550.39,234.15Zm.39-.08a18,18,0,0,1,.3,1.94,6.6,6.6,0,0,1-.17,2.27,4.29,4.29,0,0,1-1.28,2.09,5.31,5.31,0,0,1-2.35,1.16,5.72,5.72,0,0,1-4.88-1.26,4.94,4.94,0,0,1-1.84-4.32,9.7,9.7,0,0,1,1.25-4,8.73,8.73,0,0,1,1.24-1.79,4.81,4.81,0,0,1,1.94-1.34,4.07,4.07,0,0,1,2.42-.1,3.78,3.78,0,0,1,2,1.37,5.6,5.6,0,0,1,.93,2.07C550.55,232.86,550.65,233.47,550.78,234.07Z"/><ellipse class="cls-1" cx="607.36" cy="235.16" rx="4.55" ry="5.2" transform="matrix(0.17, -0.98, 0.98, 0.17, 269.64, 792.05)"/><path d="M612.29,236a2.21,2.21,0,0,0-.39-1.73,3,3,0,0,0-1.4-1,17.73,17.73,0,0,1-2.63-1,8.5,8.5,0,0,0-1.47-.59,2.69,2.69,0,0,0-1.66.07,2.43,2.43,0,0,0-1.21,1.09,2.39,2.39,0,0,0-.21,1.55,3.45,3.45,0,0,0,.56,1.27,5.26,5.26,0,0,0,.81.88,6.21,6.21,0,0,0,2.25.94,7.85,7.85,0,0,0,1.27.22,11.5,11.5,0,0,0,1.44.16,2.84,2.84,0,0,0,1.65-.41A2.27,2.27,0,0,0,612.29,236Zm.39.07a11.06,11.06,0,0,1-.51,2,6.12,6.12,0,0,1-1.22,2.1,4.71,4.71,0,0,1-2.2,1.35,6.5,6.5,0,0,1-2.56.15,6.57,6.57,0,0,1-4.36-2.68,5.21,5.21,0,0,1-1-2.47,4.71,4.71,0,0,1,.37-2.54,7.88,7.88,0,0,1,2.94-3.38,7.77,7.77,0,0,1,4.34-1.64,4.42,4.42,0,0,1,4,2.62,5.82,5.82,0,0,1,.43,2.37A12.36,12.36,0,0,1,612.68,236.1Z"/><path class="cls-1" d="M572.52,243.48c0-2.6-2.29-4.54-5.21-4.53s-5.2,2-5.19,4.57,2.29,4.54,5.22,4.53A4.63,4.63,0,0,0,572.52,243.48Z"/><path d="M572.32,243.48a2.23,2.23,0,0,0-1.43-2.11,9.5,9.5,0,0,0-2.23-.44c-.65-.12-1.31-.3-2.09-.49a3.1,3.1,0,0,0-2.42.23,2.35,2.35,0,0,0-1.11,2.07,3,3,0,0,0,1,1.93,3.76,3.76,0,0,0,1.51,1,7.69,7.69,0,0,0,1.83.29h.24a5.91,5.91,0,0,0,1.12.09,7.87,7.87,0,0,0,1.37-.1,2.91,2.91,0,0,0,1.55-.76A2.36,2.36,0,0,0,572.32,243.48Zm.4,0a13,13,0,0,1-.12,2.12,6,6,0,0,1-.76,2.33,4.43,4.43,0,0,1-2,1.8,6,6,0,0,1-2.73.45h.23a6.58,6.58,0,0,1-3.72-1,5.85,5.85,0,0,1-2.49-3.07,5,5,0,0,1-.19-2,6.54,6.54,0,0,1,.47-1.75,8.77,8.77,0,0,1,1.91-2.72,9.13,9.13,0,0,1,2.81-2,4.73,4.73,0,0,1,3.62-.07,4.56,4.56,0,0,1,2.5,2.72A10.35,10.35,0,0,1,572.72,243.48Z"/><ellipse class="cls-1" cx="588.49" cy="247.45" rx="4.55" ry="5.2" transform="translate(271.81 801.76) rotate(-83.07)"/><path d="M593.46,248.05a2.24,2.24,0,0,0-.48-1.71,3.16,3.16,0,0,0-1.45-.9,17.64,17.64,0,0,1-2.69-.85,7.76,7.76,0,0,0-1.5-.51,2.67,2.67,0,0,0-1.65.16,2.4,2.4,0,0,0-1.14,1.15,2.34,2.34,0,0,0-.13,1.56,3.29,3.29,0,0,0,.63,1.24,4.82,4.82,0,0,0,.85.84,6.18,6.18,0,0,0,2.3.81,9.28,9.28,0,0,0,1.29.16c.43,0,.9.1,1.44.08a3,3,0,0,0,1.62-.5A2.27,2.27,0,0,0,593.46,248.05Zm.4,0a11.49,11.49,0,0,1-.4,2.06,6.18,6.18,0,0,1-1.11,2.16,4.66,4.66,0,0,1-2.12,1.48,6.46,6.46,0,0,1-2.54.28,6.58,6.58,0,0,1-4.51-2.43,5.36,5.36,0,0,1-1.16-2.41,4.75,4.75,0,0,1,.23-2.55,7.89,7.89,0,0,1,2.75-3.54,7.75,7.75,0,0,1,4.25-1.88,4.42,4.42,0,0,1,4.12,2.4,5.84,5.84,0,0,1,.56,2.34A14.21,14.21,0,0,1,593.86,248.1Z"/><path class="cls-1" d="M535.78,256.12c.57-2.87-.91-5.48-3.46-6s-4.9,1.36-5.47,4.23.92,5.48,3.47,6A5.26,5.26,0,0,0,535.78,256.12Z"/><path d="M535.59,256.08a2.84,2.84,0,0,0-.78-2.56,6.85,6.85,0,0,0-1.82-1.19c-.49-.25-.93-.55-1.59-.87a2.39,2.39,0,0,0-2.27.12,2.84,2.84,0,0,0-1.21,2.16,5.31,5.31,0,0,0,.47,2.35,3.74,3.74,0,0,0,1,1.52,4,4,0,0,0,1.31.65l-.26,0a6,6,0,0,0,1.14.07,9.14,9.14,0,0,0,1.43-.06,3.4,3.4,0,0,0,1.61-.65A2.66,2.66,0,0,0,535.59,256.08Zm.39.08c-.12.64-.25,1.28-.43,2a7.35,7.35,0,0,1-.91,2.15,4.72,4.72,0,0,1-1.89,1.67,5.68,5.68,0,0,1-2.58.51H530l-.13,0a5.6,5.6,0,0,1-2-.77,5.44,5.44,0,0,1-1.55-1.47,6.16,6.16,0,0,1-1.17-3.72,7,7,0,0,1,1.13-3.33,14,14,0,0,1,2-2.55,6.9,6.9,0,0,1,3-1.94,4.27,4.27,0,0,1,2-.06,4,4,0,0,1,3.2,4.41C536.42,254.21,536.13,255.18,536,256.16Z"/><circle class="cls-1" cx="430.37" cy="257.58" r="4.55" transform="translate(-46.52 102.2) rotate(-12.85)"/><path d="M434.61,256.62a2.27,2.27,0,0,0-.93-1.4,2.79,2.79,0,0,0-1.54-.44,13.65,13.65,0,0,1-2.4,0,5.35,5.35,0,0,0-1.39,0,2.12,2.12,0,0,0-1.31.7,2.18,2.18,0,0,0-.51,1.43,2.59,2.59,0,0,0,.46,1.43,4.5,4.5,0,0,0,1.92,1.54,5.66,5.66,0,0,0,2.91-.13,6.45,6.45,0,0,0,1.22-.43,3,3,0,0,0,1.25-1.05A2.19,2.19,0,0,0,434.61,256.62Zm.39-.09a15.26,15.26,0,0,1,.35,1.92,6.66,6.66,0,0,1-.06,2.26,4.15,4.15,0,0,1-1.21,2.17,5.37,5.37,0,0,1-2.3,1.24,5.73,5.73,0,0,1-4.92-1.08,5,5,0,0,1-2-4.24,9.54,9.54,0,0,1,1.09-4,8.85,8.85,0,0,1,1.17-1.84,4.85,4.85,0,0,1,1.89-1.41,4.12,4.12,0,0,1,2.41-.2,3.81,3.81,0,0,1,2.08,1.3,5.79,5.79,0,0,1,1,2C434.72,255.32,434.85,255.93,435,256.53Z"/><circle class="cls-1" cx="418.73" cy="258.95" r="4.55" transform="translate(-20.29 36.12) rotate(-4.82)"/><path d="M423.07,258.59a2.27,2.27,0,0,0-.73-1.52,2.82,2.82,0,0,0-1.46-.65,14.61,14.61,0,0,1-2.39-.34,6.27,6.27,0,0,0-1.37-.2,2.17,2.17,0,0,0-1.41.53,2.21,2.21,0,0,0-.69,1.34,2.76,2.76,0,0,0,.27,1.5A4.47,4.47,0,0,0,417,261a4.17,4.17,0,0,0,1.95.34,7.28,7.28,0,0,0,1-.08,6.88,6.88,0,0,0,1.25-.22,2.67,2.67,0,0,0,1.34-.87A2.31,2.31,0,0,0,423.07,258.59Zm.4,0c.06.61.12,1.24.14,1.94a6.07,6.07,0,0,1-.35,2.28,4.18,4.18,0,0,1-1.56,2,5.71,5.71,0,0,1-2.4.87,5.77,5.77,0,0,1-4.75-1.71,5.06,5.06,0,0,1-1.32-2.14,5.2,5.2,0,0,1-.12-2.34,9.75,9.75,0,0,1,1.62-3.86,9.34,9.34,0,0,1,1.41-1.67,5,5,0,0,1,2.07-1.14,4.05,4.05,0,0,1,2.43.14,3.86,3.86,0,0,1,1.88,1.57,5.83,5.83,0,0,1,.73,2.16C423.35,257.32,423.4,257.94,423.47,258.56Z"/><path class="cls-1" d="M673,279.07c.21-2.59-1.9-4.72-4.81-5s-5.35,1.53-5.55,4.12,1.9,4.72,4.81,4.95A4.62,4.62,0,0,0,673,279.07Z"/><path d="M672.84,279.05a2.41,2.41,0,0,0-.28-1.32,2.56,2.56,0,0,0-1-.91,9.7,9.7,0,0,0-2.19-.62c-.63-.17-1.27-.4-2-.67a3.18,3.18,0,0,0-2.44,0,2.35,2.35,0,0,0-1.27,2,3,3,0,0,0,.77,2,3.75,3.75,0,0,0,1.43,1.08,7.53,7.53,0,0,0,1.8.44l.24,0a5.14,5.14,0,0,0,1.11.18,7.6,7.6,0,0,0,1.38,0,3.05,3.05,0,0,0,1.61-.64A2.4,2.4,0,0,0,672.84,279.05Zm.4,0a15,15,0,0,1-.29,2.11,6.22,6.22,0,0,1-1,2.26,4.45,4.45,0,0,1-2.15,1.62,6,6,0,0,1-2.76.22l.24,0A6.5,6.5,0,0,1,663.7,284a5.84,5.84,0,0,1-2.23-3.27,4.94,4.94,0,0,1,0-1.95,6.93,6.93,0,0,1,.62-1.71,8.61,8.61,0,0,1,2.14-2.55,9,9,0,0,1,3-1.8,4.68,4.68,0,0,1,3.61.24,4.47,4.47,0,0,1,2.26,2.91A10.22,10.22,0,0,1,673.24,279.08Z"/><ellipse class="cls-1" cx="644.34" cy="283.79" rx="4.55" ry="5.2" transform="translate(-7.85 18.55) rotate(-1.64)"/><path d="M648.69,283.66a2.84,2.84,0,0,0-.63-1.72,3.49,3.49,0,0,0-1.44-1c-.51-.19-.94-.27-1.29-.37l-1.09-.32a3.71,3.71,0,0,0-1.38-.21,2.22,2.22,0,0,0-1.46.65,3,3,0,0,0-.51,3.18,6,6,0,0,0,1.64,2.34,3.2,3.2,0,0,0,1.9.63,4.27,4.27,0,0,0,1-.06,6,6,0,0,0,1.3-.34,3.27,3.27,0,0,0,1.4-1.05A2.91,2.91,0,0,0,648.69,283.66Zm.4,0c0,.66.07,1.32.07,2.06a6.64,6.64,0,0,1-.32,2.36,4.32,4.32,0,0,1-1.61,2.15,5.39,5.39,0,0,1-2.68.9,5.46,5.46,0,0,1-2.8-.6,6,6,0,0,1-2.08-1.83,5.68,5.68,0,0,1-1-4.74,13,13,0,0,1,1.68-4,8.84,8.84,0,0,1,1.45-1.82,4.63,4.63,0,0,1,2.31-1.17,4.08,4.08,0,0,1,2.65.43,4,4,0,0,1,1.76,1.93,6.69,6.69,0,0,1,.46,2.32Z"/><circle class="cls-1" cx="660.02" cy="292.89" r="4.55" transform="translate(-6.47 15.04) rotate(-1.3)"/><path d="M664.37,292.79a2.3,2.3,0,0,0-.64-1.55,2.77,2.77,0,0,0-1.41-.74c-.48-.11-.89-.13-1.24-.2s-.7-.17-1.11-.29a5.83,5.83,0,0,0-1.35-.3,2.17,2.17,0,0,0-1.43.42,2.24,2.24,0,0,0-.79,1.28,2.64,2.64,0,0,0,.16,1.5,4.59,4.59,0,0,0,1.55,1.9,4.19,4.19,0,0,0,1.9.49,2.7,2.7,0,0,0,.89,0,9.81,9.81,0,0,0,1.33-.23,3.35,3.35,0,0,0,1.47-.76A2.08,2.08,0,0,0,664.37,292.79Zm.4,0a13.22,13.22,0,0,1-.09,2,7.15,7.15,0,0,1-.55,2.17,4.34,4.34,0,0,1-1.55,1.86,5,5,0,0,1-2.56.8,5.7,5.7,0,0,1-4.57-2.08,5,5,0,0,1-1.08-4.56,9.7,9.7,0,0,1,1.9-3.7,9.28,9.28,0,0,1,1.52-1.56,4.93,4.93,0,0,1,2.13-1,4.15,4.15,0,0,1,2.4.3,3.87,3.87,0,0,1,1.77,1.69,5.72,5.72,0,0,1,.58,2.19C664.73,291.54,664.74,292.16,664.77,292.78Z"/><ellipse class="cls-1" cx="526.27" cy="297.99" rx="4.55" ry="5.2" transform="translate(-30.38 61.57) rotate(-6.51)"/><path d="M530.6,297.5a2.8,2.8,0,0,0-.78-1.66,3.36,3.36,0,0,0-1.52-.87,12,12,0,0,0-1.31-.26l-1.12-.23a4.14,4.14,0,0,0-1.39-.09,2.23,2.23,0,0,0-1.39.78,3,3,0,0,0-.25,3.21,6.17,6.17,0,0,0,1.84,2.19,3.26,3.26,0,0,0,1.94.47,4.4,4.4,0,0,0,1-.15,5.45,5.45,0,0,0,1.26-.44,3.22,3.22,0,0,0,1.3-1.17A2.91,2.91,0,0,0,530.6,297.5Zm.39-.05c.08.66.18,1.32.25,2.05a6.72,6.72,0,0,1-.12,2.38,4.29,4.29,0,0,1-1.42,2.27,5.36,5.36,0,0,1-5.43.77,6.12,6.12,0,0,1-2.24-1.64,5.77,5.77,0,0,1-1.37-4.65,13.19,13.19,0,0,1,1.34-4.16,9,9,0,0,1,1.29-1.94,4.6,4.6,0,0,1,2.21-1.36,4,4,0,0,1,2.67.2,4,4,0,0,1,1.91,1.78,6.28,6.28,0,0,1,.66,2.27Z"/><ellipse class="cls-1" cx="634.27" cy="306.88" rx="5.2" ry="4.55"/><path d="M639.27,306.87a2.17,2.17,0,0,0-.68-1.63,3,3,0,0,0-1.55-.72,19.31,19.31,0,0,1-2.78-.52,8.18,8.18,0,0,0-1.55-.32,2.62,2.62,0,0,0-1.62.37,2.41,2.41,0,0,0-1,1.29,2.38,2.38,0,0,0,.08,1.56,3.34,3.34,0,0,0,.79,1.15,4.25,4.25,0,0,0,.95.72,6.28,6.28,0,0,0,2.4.52c.48,0,.92,0,1.36,0s.89,0,1.41-.06a2.61,2.61,0,0,0,1.51-.71A2.35,2.35,0,0,0,639.27,306.87Zm.4,0a13.84,13.84,0,0,1-.09,2.1,5.67,5.67,0,0,1-.81,2.32,4.68,4.68,0,0,1-2,1.71,6.71,6.71,0,0,1-2.45.56,6.63,6.63,0,0,1-4.79-1.83,5.23,5.23,0,0,1-1.46-2.24,4.8,4.8,0,0,1-.11-2.57,7.83,7.83,0,0,1,2.29-3.87,7.65,7.65,0,0,1,4-2.39,4.39,4.39,0,0,1,4.39,1.87,6,6,0,0,1,.86,2.26A12.76,12.76,0,0,1,639.67,306.87Z"/><path class="cls-1" d="M631,308.52a4.46,4.46,0,0,0-4.54-4.57,4.73,4.73,0,0,0-4.89,4.54,4.44,4.44,0,0,0,4.54,4.56A5,5,0,0,0,631,308.52Z"/><path d="M630.83,308.52a2.34,2.34,0,0,0-.6-1.6,2.87,2.87,0,0,0-1.42-.78,17.49,17.49,0,0,1-2.39-.51,5.67,5.67,0,0,0-1.4-.3,2.37,2.37,0,0,0-1.51.39,2.28,2.28,0,0,0-.81,2.75,4.34,4.34,0,0,0,1.54,1.95,5.7,5.7,0,0,0,3,.47,12.1,12.1,0,0,0,1.37-.17,3.26,3.26,0,0,0,1.51-.7A2.14,2.14,0,0,0,630.83,308.52Zm.4,0a12.78,12.78,0,0,1-.16,2,7.19,7.19,0,0,1-.69,2.17,4.41,4.41,0,0,1-1.67,1.79,5.54,5.54,0,0,1-2.49.72,5.79,5.79,0,0,1-4.66-2.1,5,5,0,0,1-1-4.65,8.83,8.83,0,0,1,2.13-3.68,12.58,12.58,0,0,1,1.58-1.49,5,5,0,0,1,2.15-1,4.21,4.21,0,0,1,2.44.31,3.88,3.88,0,0,1,1.79,1.72,5.75,5.75,0,0,1,.57,2.23C631.22,307.26,631.21,307.89,631.23,308.52Z"/><path class="cls-1" d="M572.12,314.5a5.2,5.2,0,1,0-6.12,4.07C568.93,318.83,571.61,317,572.12,314.5Z"/><path d="M571.92,314.46a2.78,2.78,0,0,0-.09-1.46,3,3,0,0,0-.8-1.19,8.21,8.21,0,0,0-2.08-1.18c-.6-.28-1.18-.62-1.94-1a3,3,0,0,0-2.53,0A2.8,2.8,0,0,0,563,311.8a4.29,4.29,0,0,0,.48,2.39,8.23,8.23,0,0,0,.54.88,3.12,3.12,0,0,0,.7.66,5.65,5.65,0,0,0,1.68.75l-.24,0a10.28,10.28,0,0,0,1.38.11,13.84,13.84,0,0,0,1.58,0,3.61,3.61,0,0,0,1.74-.56A2.54,2.54,0,0,0,571.92,314.46Zm.39.07a12.48,12.48,0,0,1-.58,2.1,7.41,7.41,0,0,1-1.2,2.14,5.18,5.18,0,0,1-2.1,1.53,6.65,6.65,0,0,1-2.62.39h-.07l-.16,0a6.28,6.28,0,0,1-3.68-2.07,6.41,6.41,0,0,1-1.59-3.81,6.24,6.24,0,0,1,1.11-3.63,10.86,10.86,0,0,1,2.35-2.56,8.24,8.24,0,0,1,3.27-1.72,4.67,4.67,0,0,1,3.86.79,4.37,4.37,0,0,1,1.29,1.58,5.06,5.06,0,0,1,.47,1.91A15.13,15.13,0,0,1,572.31,314.53Z"/><path class="cls-1" d="M628.12,318.63a5.2,5.2,0,1,0-5.53,4.85A5.58,5.58,0,0,0,628.12,318.63Z"/><path d="M627.92,318.62a2.91,2.91,0,0,0-.28-1.43,3,3,0,0,0-1-1.08,9,9,0,0,0-2.21-.9c-.64-.19-1.26-.45-2.06-.69a3,3,0,0,0-2.51.32,2.81,2.81,0,0,0-1.16,2.32,4.28,4.28,0,0,0,.79,2.3,7.93,7.93,0,0,0,.65.81,3.74,3.74,0,0,0,.78.56,6.35,6.35,0,0,0,1.77.53h-.24a9.12,9.12,0,0,0,1.37-.07,14.7,14.7,0,0,0,1.58-.21,3.61,3.61,0,0,0,1.64-.78A2.57,2.57,0,0,0,627.92,318.62Zm.39,0a11.11,11.11,0,0,1-.3,2.15,7.42,7.42,0,0,1-.9,2.29,5.24,5.24,0,0,1-1.89,1.79,6.55,6.55,0,0,1-2.54.74h-.23a6.27,6.27,0,0,1-3.92-1.56,5.86,5.86,0,0,1-1.47-7.31,11,11,0,0,1,2-2.85,8.45,8.45,0,0,1,3-2.14A4.71,4.71,0,0,1,626,312a4.38,4.38,0,0,1,1.48,1.39,5.26,5.26,0,0,1,.72,1.83A15.23,15.23,0,0,1,628.31,318.64Z"/><path class="cls-1" d="M475.63,321.3c0-2.6-2.35-4.51-5.28-4.45s-5.16,2-5.11,4.64,2.35,4.51,5.28,4.45A4.61,4.61,0,0,0,475.63,321.3Z"/><path d="M475.43,321.31A2.35,2.35,0,0,0,475,320a2.45,2.45,0,0,0-1-.81,9.3,9.3,0,0,0-2.24-.41c-.65-.1-1.31-.27-2.09-.46a3.2,3.2,0,0,0-2.42.27,2.31,2.31,0,0,0-1.07,2.09,2.94,2.94,0,0,0,1,1.91,3.71,3.71,0,0,0,1.52.93,7.78,7.78,0,0,0,1.84.26h.23a4.74,4.74,0,0,0,1.13.07,7.09,7.09,0,0,0,1.37-.11,3,3,0,0,0,1.54-.79A2.37,2.37,0,0,0,475.43,321.31Zm.4,0a12.81,12.81,0,0,1-.08,2.12,6.28,6.28,0,0,1-.73,2.34,4.45,4.45,0,0,1-2,1.83,6.06,6.06,0,0,1-2.72.49h.23a6.43,6.43,0,0,1-3.73-1,5.78,5.78,0,0,1-2.54-3,5,5,0,0,1-.22-1.94,7.1,7.1,0,0,1,.45-1.76,8.59,8.59,0,0,1,1.87-2.74,9.11,9.11,0,0,1,2.78-2.09,4.66,4.66,0,0,1,3.61-.11,4.49,4.49,0,0,1,2.54,2.67A10.21,10.21,0,0,1,475.83,321.3Z"/><ellipse class="cls-1" cx="641.45" cy="330.64" rx="5.2" ry="4.55" transform="translate(272.28 950.71) rotate(-86.5)"/><path d="M645.79,330.9a2.74,2.74,0,0,0-.47-1.76A3.4,3.4,0,0,0,644,328a13.07,13.07,0,0,0-1.25-.49l-1.05-.42a4.18,4.18,0,0,0-1.36-.33,2.28,2.28,0,0,0-1.51.52,3,3,0,0,0-.8,3.13,6.22,6.22,0,0,0,1.43,2.47,3.27,3.27,0,0,0,1.83.8,4.24,4.24,0,0,0,1,0,6.33,6.33,0,0,0,1.32-.22,3.29,3.29,0,0,0,1.49-.92A2.92,2.92,0,0,0,645.79,330.9Zm.4,0c0,.66-.05,1.32-.11,2.06a6.86,6.86,0,0,1-.53,2.32,4.34,4.34,0,0,1-1.79,2A5.29,5.29,0,0,1,641,338a5.35,5.35,0,0,1-2.73-.85,6.06,6.06,0,0,1-1.91-2,5.7,5.7,0,0,1-.54-4.82,13.28,13.28,0,0,1,2-3.86,8.78,8.78,0,0,1,1.61-1.69,4.72,4.72,0,0,1,2.41-1,4.09,4.09,0,0,1,2.6.67,4,4,0,0,1,1.57,2.08,6.51,6.51,0,0,1,.26,2.35Z"/><ellipse class="cls-1" cx="464" cy="330.58" rx="5.2" ry="4.55" transform="translate(75.38 747.18) rotate(-82.46)"/><path d="M468.31,331.15a2.73,2.73,0,0,0-.35-1.79,3.38,3.38,0,0,0-1.26-1.21,11.48,11.48,0,0,0-1.22-.58l-1-.49a4.16,4.16,0,0,0-1.33-.43,2.29,2.29,0,0,0-1.54.42,3,3,0,0,0-1,3.06,6.23,6.23,0,0,0,1.25,2.57,3.24,3.24,0,0,0,1.77.92,3.73,3.73,0,0,0,1,.1,6.26,6.26,0,0,0,1.33-.12,3.26,3.26,0,0,0,1.55-.82A2.94,2.94,0,0,0,468.31,331.15Zm.39.05c-.08.66-.14,1.32-.25,2.05a6.7,6.7,0,0,1-.7,2.28,4.22,4.22,0,0,1-1.92,1.86,5.28,5.28,0,0,1-2.8.46,5.22,5.22,0,0,1-2.66-1,5.9,5.9,0,0,1-1.77-2.13,5.69,5.69,0,0,1-.2-4.84,12.85,12.85,0,0,1,2.31-3.71,8.47,8.47,0,0,1,1.72-1.57,4.64,4.64,0,0,1,2.47-.79,4.18,4.18,0,0,1,2.55.85,4,4,0,0,1,1.42,2.19,6.55,6.55,0,0,1,.09,2.36Z"/><circle class="cls-1" cx="608.55" cy="338.12" r="4.55" transform="translate(226.73 920.25) rotate(-85.8)"/><path d="M612.89,338.44a2.28,2.28,0,0,0-.48-1.61,2.84,2.84,0,0,0-1.35-.88,14.21,14.21,0,0,1-2.3-.7,6,6,0,0,0-1.32-.42,2.18,2.18,0,0,0-1.47.3,2.25,2.25,0,0,0-.9,1.22,2.71,2.71,0,0,0,0,1.52,3.53,3.53,0,0,0,3.26,2.66,6.11,6.11,0,0,0,1,.08,7.9,7.9,0,0,0,1.27,0,2.65,2.65,0,0,0,1.46-.64A2.34,2.34,0,0,0,612.89,338.44Zm.4,0c0,.62-.07,1.25-.17,1.94a6,6,0,0,1-.7,2.2,4.13,4.13,0,0,1-1.85,1.7,5.64,5.64,0,0,1-6.93-1.95,5,5,0,0,1-.72-4.65,9.72,9.72,0,0,1,2.21-3.56,9.29,9.29,0,0,1,1.65-1.42,4.85,4.85,0,0,1,2.23-.81,4.08,4.08,0,0,1,2.37.52,3.86,3.86,0,0,1,1.62,1.84,5.74,5.74,0,0,1,.37,2.25C613.37,337.23,613.32,337.85,613.29,338.47Z"/><circle class="cls-1" cx="612.82" cy="340.96" r="4.55" transform="translate(-24.49 48.33) rotate(-4.43)"/><path d="M617.15,340.62a2.26,2.26,0,0,0-.71-1.52,2.8,2.8,0,0,0-1.46-.66,15.73,15.73,0,0,1-2.39-.35,5.25,5.25,0,0,0-1.37-.21,2.18,2.18,0,0,0-1.41.51,2.28,2.28,0,0,0-.7,1.34,2.77,2.77,0,0,0,.26,1.5,4.46,4.46,0,0,0,1.69,1.79,4.41,4.41,0,0,0,1.94.35,7.42,7.42,0,0,0,1-.08,6.91,6.91,0,0,0,1.25-.21,2.7,2.7,0,0,0,1.35-.85A2.33,2.33,0,0,0,617.15,340.62Zm.4,0c.06.62.12,1.25.13,2a5.82,5.82,0,0,1-.36,2.27,4.22,4.22,0,0,1-1.58,2,5.86,5.86,0,0,1-2.41.85,5.78,5.78,0,0,1-4.73-1.74,5,5,0,0,1-1.3-2.15,4.92,4.92,0,0,1-.11-2.34,9.82,9.82,0,0,1,1.64-3.85,9.43,9.43,0,0,1,1.43-1.66,4.8,4.8,0,0,1,2.08-1.13,4,4,0,0,1,2.42.16,3.83,3.83,0,0,1,1.88,1.58,5.83,5.83,0,0,1,.71,2.16C617.45,339.35,617.49,340,617.55,340.59Z"/><path class="cls-1" d="M510.62,358.88c-.16-2.92-2.23-5.09-4.82-4.95s-4.43,2.52-4.27,5.44,2.23,5.09,4.82,4.95A5.56,5.56,0,0,0,510.62,358.88Z"/><path d="M510.42,358.89A2.83,2.83,0,0,0,509,356.6a6.9,6.9,0,0,0-2.06-.71c-.53-.12-1-.31-1.75-.46a2.38,2.38,0,0,0-2.17.68,2.8,2.8,0,0,0-.64,2.38,5.24,5.24,0,0,0,1,2.16,3.56,3.56,0,0,0,1.37,1.23,4,4,0,0,0,1.42.31l-.3,0A5.27,5.27,0,0,0,507,362a11.41,11.41,0,0,0,1.41-.46,3.66,3.66,0,0,0,1.43-1A2.48,2.48,0,0,0,510.42,358.89Zm.4,0a19.24,19.24,0,0,1,0,2,8.38,8.38,0,0,1-.39,2.25,4.85,4.85,0,0,1-1.34,2.05,5.45,5.45,0,0,1-2.34,1.21l-.16,0h-.14a5.37,5.37,0,0,1-4-1.29,6.13,6.13,0,0,1-2-3.32,6.75,6.75,0,0,1,.28-3.51,13.22,13.22,0,0,1,1.34-3,6.85,6.85,0,0,1,2.44-2.61,4.08,4.08,0,0,1,3.9-.13,4.24,4.24,0,0,1,2.18,3.06A30.49,30.49,0,0,1,510.82,358.87Z"/><path class="cls-1" d="M619.09,389.55c-.68-2.84-3.1-4.6-5.63-4s-3.9,3.27-3.22,6.12,3.11,4.6,5.64,4A5.25,5.25,0,0,0,619.09,389.55Z"/><path d="M618.9,389.6a2.81,2.81,0,0,0-1.77-2,6.79,6.79,0,0,0-2.15-.32c-.55,0-1.07-.12-1.8-.14a2.39,2.39,0,0,0-2,1.06,2.8,2.8,0,0,0-.21,2.46,5.13,5.13,0,0,0,1.41,1.94,3.6,3.6,0,0,0,1.57,1,4.19,4.19,0,0,0,1.45.05l-.25.07a5.45,5.45,0,0,0,1.07-.41,8.53,8.53,0,0,0,1.27-.65,3.43,3.43,0,0,0,1.2-1.25A2.62,2.62,0,0,0,618.9,389.6Zm.39-.1c.16.64.31,1.28.43,2a7.49,7.49,0,0,1,.07,2.33,4.73,4.73,0,0,1-1,2.31,5.76,5.76,0,0,1-2.13,1.53l-.13,0-.13,0a5.55,5.55,0,0,1-2.15.14,5.65,5.65,0,0,1-2-.7,6.1,6.1,0,0,1-2.61-2.89,7,7,0,0,1-.36-3.5,13.79,13.79,0,0,1,.78-3.16,6.88,6.88,0,0,1,1.92-3,4.42,4.42,0,0,1,1.79-.88,4,4,0,0,1,4.73,2.68C618.88,387.55,619,388.56,619.29,389.5Z"/><ellipse class="cls-1" cx="613.42" cy="399.53" rx="4.55" ry="5.2" transform="translate(185.84 993.74) rotate(-87.34)"/><path d="M618.41,399.76a2.17,2.17,0,0,0-.61-1.66,3,3,0,0,0-1.51-.79,18.31,18.31,0,0,1-2.74-.66,8.55,8.55,0,0,0-1.53-.39,2.74,2.74,0,0,0-1.64.28,2.45,2.45,0,0,0-1,1.24,2.32,2.32,0,0,0,0,1.56,3.11,3.11,0,0,0,.72,1.19,4.38,4.38,0,0,0,.91.77,6.07,6.07,0,0,0,2.35.64,8.09,8.09,0,0,0,1.3.06c.43,0,.91,0,1.44,0a2.84,2.84,0,0,0,1.58-.62A2.23,2.23,0,0,0,618.41,399.76Zm.4,0a11.27,11.27,0,0,1-.24,2.09,6,6,0,0,1-1,2.24,4.7,4.7,0,0,1-2,1.63,6.48,6.48,0,0,1-7.19-1.62,5.39,5.39,0,0,1-1.34-2.31,4.86,4.86,0,0,1,0-2.57,7.85,7.85,0,0,1,2.49-3.73,7.66,7.66,0,0,1,4.09-2.19,4.4,4.4,0,0,1,4.29,2.09,6,6,0,0,1,.73,2.29A12.33,12.33,0,0,1,618.81,399.78Z"/><ellipse class="cls-1" cx="651.46" cy="413.16" rx="5.2" ry="4.55" transform="translate(-14.47 23.75) rotate(-2.07)"/><path d="M656.46,413a2.21,2.21,0,0,0-.75-1.61,3,3,0,0,0-1.57-.66,18.17,18.17,0,0,1-2.78-.43,8.33,8.33,0,0,0-1.56-.26,2.66,2.66,0,0,0-1.61.41,2.43,2.43,0,0,0-1,1.32,2.37,2.37,0,0,0,.12,1.56,3.37,3.37,0,0,0,.81,1.12,4.64,4.64,0,0,0,1,.7,6.25,6.25,0,0,0,2.4.44,8,8,0,0,0,1.29-.05,13.91,13.91,0,0,0,1.44-.14,2.88,2.88,0,0,0,1.52-.75A2.27,2.27,0,0,0,656.46,413Zm.4,0a11.58,11.58,0,0,1-.07,2.1,6.22,6.22,0,0,1-.76,2.31,4.75,4.75,0,0,1-1.86,1.78,6.46,6.46,0,0,1-7.3-1,5.32,5.32,0,0,1-1.53-2.19,4.8,4.8,0,0,1-.17-2.56,7.94,7.94,0,0,1,2.17-3.93,7.71,7.71,0,0,1,3.9-2.51,4.4,4.4,0,0,1,4.44,1.72,5.9,5.9,0,0,1,.93,2.22A14.51,14.51,0,0,1,656.86,413Z"/><path class="cls-1" d="M521.07,422.26a5.2,5.2,0,1,0-5.24,5.15C518.76,427.11,521.05,424.86,521.07,422.26Z"/><path d="M520.87,422.26a2.9,2.9,0,0,0-.35-1.42,3,3,0,0,0-1-1,8.7,8.7,0,0,0-2.26-.78c-.65-.16-1.28-.38-2.09-.57a3,3,0,0,0-2.49.46,2.81,2.81,0,0,0-1,2.38,4.21,4.21,0,0,0,.92,2.25,7.56,7.56,0,0,0,.7.77,3.85,3.85,0,0,0,.81.52,6,6,0,0,0,1.79.42h-.24a9.4,9.4,0,0,0,1.37-.15,11.77,11.77,0,0,0,1.56-.3,3.61,3.61,0,0,0,1.6-.87A2.54,2.54,0,0,0,520.87,422.26Zm.4,0a11.73,11.73,0,0,1-.17,2.17,7.71,7.71,0,0,1-.78,2.33,5.2,5.2,0,0,1-1.78,1.89,6.73,6.73,0,0,1-2.5.88h-.23a6.25,6.25,0,0,1-4-1.34,5.86,5.86,0,0,1-1.88-7.22,11.41,11.41,0,0,1,1.83-3,8.53,8.53,0,0,1,2.9-2.3,4.68,4.68,0,0,1,3.94,0,4.61,4.61,0,0,1,1.56,1.31,5.36,5.36,0,0,1,.82,1.79A15.32,15.32,0,0,1,521.27,422.26Z"/><ellipse class="cls-1" cx="540.58" cy="451.14" rx="5.2" ry="4.55" transform="translate(79.91 983.62) rotate(-88.98)"/><path d="M544.93,451.22a2.78,2.78,0,0,0-.55-1.74,3.41,3.41,0,0,0-1.39-1.06,11.94,11.94,0,0,0-1.27-.43l-1.07-.38a3.73,3.73,0,0,0-1.36-.28,2.24,2.24,0,0,0-1.49.58,3,3,0,0,0-.67,3.14,6.33,6.33,0,0,0,1.51,2.42,3.85,3.85,0,0,0,2.8.72,5.8,5.8,0,0,0,1.34-.31,3.69,3.69,0,0,0,1.48-1A2.75,2.75,0,0,0,544.93,451.22Zm.4,0c0,.66,0,1.33-.07,2.06a7.35,7.35,0,0,1-.46,2.31,4.38,4.38,0,0,1-1.65,2.07,5.18,5.18,0,0,1-2.77.8,5.41,5.41,0,0,1-2.76-.76,6.06,6.06,0,0,1-2-1.93,5.7,5.7,0,0,1-.71-4.78,13.23,13.23,0,0,1,1.88-3.93,8.52,8.52,0,0,1,1.54-1.74,4.55,4.55,0,0,1,2.36-1.05,4.09,4.09,0,0,1,2.62.55,4,4,0,0,1,1.66,2,6.51,6.51,0,0,1,.35,2.33Z"/><path class="cls-1" d="M496.62,452.81c-.34-2.9-2.55-4.93-5.13-4.63s-4.25,2.79-3.91,5.69,2.54,4.94,5.12,4.64A5.26,5.26,0,0,0,496.62,452.81Z"/><path d="M496.42,452.84a2.83,2.83,0,0,0-1.52-2.2,6.78,6.78,0,0,0-2.1-.58c-.54-.09-1.05-.25-1.77-.34a2.35,2.35,0,0,0-2.13.8,2.82,2.82,0,0,0-.5,2.42,5.16,5.16,0,0,0,1.17,2.1,3.69,3.69,0,0,0,1.44,1.13,4,4,0,0,0,1.44.22l-.26.05a6,6,0,0,0,1.11-.28,8.85,8.85,0,0,0,1.35-.5,3.48,3.48,0,0,0,1.33-1.1A2.63,2.63,0,0,0,496.42,452.84Zm.39,0c.09.65.16,1.3.2,2a7.23,7.23,0,0,1-.21,2.32,4.7,4.7,0,0,1-1.29,2.18,5.84,5.84,0,0,1-2.3,1.27l-.13,0-.13,0a5.63,5.63,0,0,1-2.16-.11,5.71,5.71,0,0,1-1.92-.93,6.09,6.09,0,0,1-2.25-3.18,6.86,6.86,0,0,1,.06-3.52,13.69,13.69,0,0,1,1.14-3,6.84,6.84,0,0,1,2.27-2.77,4.42,4.42,0,0,1,1.87-.66,4,4,0,0,1,4.39,3.22A30.92,30.92,0,0,1,496.81,452.79Z"/><ellipse class="cls-1" cx="622.58" cy="458.67" rx="4.55" ry="5.2" transform="matrix(0.07, -1, 1, 0.07, 119.49, 1045.95)"/><path d="M627.56,459a2.19,2.19,0,0,0-.56-1.68,2.93,2.93,0,0,0-1.49-.83,18,18,0,0,1-2.72-.73,8.44,8.44,0,0,0-1.52-.43,2.71,2.71,0,0,0-1.64.23,2.34,2.34,0,0,0-1.15,2.77,3.53,3.53,0,0,0,.69,1.21,4.83,4.83,0,0,0,.9.8,6.1,6.1,0,0,0,2.33.7,7.92,7.92,0,0,0,1.29.09,11.51,11.51,0,0,0,1.45,0,2.83,2.83,0,0,0,1.59-.57A2.29,2.29,0,0,0,627.56,459Zm.4,0a11.29,11.29,0,0,1-.29,2.08,6.09,6.09,0,0,1-1,2.21,4.73,4.73,0,0,1-2,1.58,6.46,6.46,0,0,1-2.53.4,6.57,6.57,0,0,1-4.62-2.22,5.28,5.28,0,0,1-1.28-2.34,4.94,4.94,0,0,1,.11-2.57,7.92,7.92,0,0,1,2.59-3.66,7.72,7.72,0,0,1,4.14-2.08,4.42,4.42,0,0,1,4.24,2.2,5.84,5.84,0,0,1,.67,2.31A12.23,12.23,0,0,1,628,459.07Z"/><circle class="cls-1" cx="538.35" cy="459.34" r="4.55" transform="translate(11.33 931.62) rotate(-82.34)"/><path d="M542.66,459.92a2.27,2.27,0,0,0-.38-1.64,2.74,2.74,0,0,0-1.29-.95,13.58,13.58,0,0,1-2.25-.85,5.59,5.59,0,0,0-1.29-.49,2.12,2.12,0,0,0-1.48.19,2.22,2.22,0,0,0-1,1.16,2.59,2.59,0,0,0-.07,1.51,4.57,4.57,0,0,0,1.25,2.11,4.09,4.09,0,0,0,1.82.76,3.76,3.76,0,0,0,1,.13,9.27,9.27,0,0,0,1.32,0,3,3,0,0,0,1.53-.53A2.21,2.21,0,0,0,542.66,459.92Zm.4.05a16.37,16.37,0,0,1-.34,1.93,6.35,6.35,0,0,1-.86,2.1,4.31,4.31,0,0,1-1.88,1.59,5.26,5.26,0,0,1-2.6.36,5.74,5.74,0,0,1-4.23-2.73,5,5,0,0,1-.39-4.68,9.75,9.75,0,0,1,2.43-3.39,9.9,9.9,0,0,1,1.74-1.31,5,5,0,0,1,2.27-.66,4.09,4.09,0,0,1,2.33.66,3.85,3.85,0,0,1,1.49,1.94,5.63,5.63,0,0,1,.24,2.26C543.21,458.74,543.12,459.35,543.06,460Z"/><circle class="cls-1" cx="616.32" cy="461.88" r="5.2" transform="translate(125.25 1055.21) rotate(-87.24)"/><path d="M621.31,462.13a2.69,2.69,0,0,0-.56-1.84,3.46,3.46,0,0,0-1.5-1.06c-1.1-.38-1.82-.54-2.76-.87a6.14,6.14,0,0,0-1.57-.34,2.67,2.67,0,0,0-1.68.47,2.77,2.77,0,0,0-1,1.45,3.16,3.16,0,0,0,0,1.75,5.2,5.2,0,0,0,1.63,2.44,4.85,4.85,0,0,0,2.32.82,6.07,6.07,0,0,0,1.28,0,8,8,0,0,0,1.49-.19,3.23,3.23,0,0,0,1.6-.88A2.83,2.83,0,0,0,621.31,462.13Zm.4,0a17.38,17.38,0,0,1-.19,2.19,6.71,6.71,0,0,1-.79,2.4,4.75,4.75,0,0,1-2,1.88,6.22,6.22,0,0,1-2.75.59,6.39,6.39,0,0,1-4.92-2.54,5.73,5.73,0,0,1-1.15-2.49,5.67,5.67,0,0,1,.13-2.6,10.08,10.08,0,0,1,2.34-4,9.79,9.79,0,0,1,1.82-1.6,5.45,5.45,0,0,1,2.46-.92,4.7,4.7,0,0,1,2.64.54,4.41,4.41,0,0,1,1.85,1.95,6.53,6.53,0,0,1,.56,2.44C621.75,460.73,621.73,461.44,621.71,462.15Z"/><path class="cls-1" d="M572.71,505.56c0-2.6-2.18-4.6-5.1-4.66s-5.25,1.83-5.3,4.43,2.17,4.6,5.1,4.66S572.65,508.16,572.71,505.56Z"/><path d="M572.51,505.56a2.26,2.26,0,0,0-.65-1.66,3.1,3.1,0,0,0-1.53-.75,17.46,17.46,0,0,1-2.76-.59,9.68,9.68,0,0,0-1.54-.35,2.71,2.71,0,0,0-1.63.32,2.38,2.38,0,0,0-1,1.26,2.41,2.41,0,0,0,0,1.57,3.42,3.42,0,0,0,.75,1.17,4.58,4.58,0,0,0,.93.74,6.18,6.18,0,0,0,2.37.59,9.4,9.4,0,0,0,1.3,0,10.51,10.51,0,0,0,1.44-.06,2.87,2.87,0,0,0,1.57-.66A2.26,2.26,0,0,0,572.51,505.56Zm.4,0a12,12,0,0,1-.19,2.1,6.38,6.38,0,0,1-.89,2.26,4.74,4.74,0,0,1-2,1.67,6.47,6.47,0,0,1-2.51.54,6.62,6.62,0,0,1-4.73-2,5.28,5.28,0,0,1-1.39-2.28,4.84,4.84,0,0,1,0-2.56,8,8,0,0,1,2.4-3.8,7.7,7.7,0,0,1,4-2.28,4.38,4.38,0,0,1,4.34,2,5.79,5.79,0,0,1,.8,2.27A13.82,13.82,0,0,1,572.91,505.56Z"/><circle class="cls-1" cx="528.48" cy="570.04" r="5.2"/><path d="M533.48,569.89a2.73,2.73,0,0,0-.7-1.79,3.47,3.47,0,0,0-1.59-.93c-1.12-.29-1.85-.4-2.81-.66a6.11,6.11,0,0,0-1.59-.21,2.67,2.67,0,0,0-1.64.6,2.82,2.82,0,0,0-.91,1.52,3.24,3.24,0,0,0,.14,1.75,5.18,5.18,0,0,0,1.82,2.3,4.67,4.67,0,0,0,2.38.64,6.08,6.08,0,0,0,1.27-.09,8.73,8.73,0,0,0,1.47-.3,3.37,3.37,0,0,0,1.53-1A2.78,2.78,0,0,0,533.48,569.89Zm.4,0a16.25,16.25,0,0,1,0,2.2,6.71,6.71,0,0,1-.6,2.46,4.76,4.76,0,0,1-1.85,2,6.32,6.32,0,0,1-2.7.81,6.47,6.47,0,0,1-5.11-2.15,5.6,5.6,0,0,1-1.41-5,10.07,10.07,0,0,1,2-4.21,9.88,9.88,0,0,1,1.69-1.74,5.43,5.43,0,0,1,2.38-1.1,4.56,4.56,0,0,1,2.67.33,4.25,4.25,0,0,1,2,1.8,6.34,6.34,0,0,1,.76,2.39A21.56,21.56,0,0,1,533.88,569.88Z"/><circle class="cls-1" cx="508.3" cy="575.2" r="4.55"/><path d="M512.62,574.72a2.25,2.25,0,0,0-.76-1.49,2.82,2.82,0,0,0-1.48-.62,14.06,14.06,0,0,1-2.4-.27,5.3,5.3,0,0,0-1.37-.17,2.18,2.18,0,0,0-1.39.56,2.15,2.15,0,0,0-.66,1.36,2.72,2.72,0,0,0,.3,1.49,4.48,4.48,0,0,0,1.75,1.73,4.3,4.3,0,0,0,1.95.29,12.61,12.61,0,0,0,2.29-.36,2.69,2.69,0,0,0,1.32-.9A2.32,2.32,0,0,0,512.62,574.72Zm.4,0c.07.62.16,1.24.19,1.94a5.85,5.85,0,0,1-.29,2.29,4.21,4.21,0,0,1-1.51,2,5.63,5.63,0,0,1-2.38.93,5.79,5.79,0,0,1-4.79-1.59,5.11,5.11,0,0,1-1.37-2.11,5.19,5.19,0,0,1-.18-2.33,9.72,9.72,0,0,1,1.52-3.9,9.21,9.21,0,0,1,1.37-1.7,4.89,4.89,0,0,1,2-1.2,4.12,4.12,0,0,1,2.43.08,3.81,3.81,0,0,1,1.92,1.52,5.63,5.63,0,0,1,.78,2.14C512.88,573.44,512.94,574.06,513,574.68Z"/><ellipse class="cls-1" cx="467.77" cy="575.85" rx="5.2" ry="4.55" transform="translate(-39.45 34.42) rotate(-4.04)"/><path d="M472.75,575.49a2.23,2.23,0,0,0-.79-1.58,3,3,0,0,0-1.6-.61,17.6,17.6,0,0,1-2.8-.33,8.39,8.39,0,0,0-1.57-.21,2.65,2.65,0,0,0-1.59.47,2.34,2.34,0,0,0-.73,2.91,3.33,3.33,0,0,0,.86,1.09,4.17,4.17,0,0,0,1,.66,6.21,6.21,0,0,0,2.42.36,9.18,9.18,0,0,0,1.28-.09,12.35,12.35,0,0,0,1.44-.2,2.8,2.8,0,0,0,1.5-.8A2.24,2.24,0,0,0,472.75,575.49Zm.4,0a11.28,11.28,0,0,1,0,2.1,6.17,6.17,0,0,1-.68,2.33,4.71,4.71,0,0,1-1.8,1.85,6.43,6.43,0,0,1-7.33-.77,5.22,5.22,0,0,1-1.6-2.14,4.79,4.79,0,0,1-.26-2.55,9.34,9.34,0,0,1,5.84-6.65,4.4,4.4,0,0,1,4.5,1.57,6,6,0,0,1,1,2.19A13.37,13.37,0,0,1,473.15,575.47Z"/><path class="cls-1" d="M501.86,662a5.2,5.2,0,1,0-5.42,5C499.37,666.76,501.75,664.59,501.86,662Z"/><path d="M501.66,662a2.89,2.89,0,0,0-.31-1.42,2.94,2.94,0,0,0-1-1.06,8.9,8.9,0,0,0-2.23-.85c-.65-.18-1.27-.43-2.07-.64a3,3,0,0,0-2.5.37,2.84,2.84,0,0,0-1.12,2.34,4.36,4.36,0,0,0,.85,2.29,7.66,7.66,0,0,0,.66.79,4,4,0,0,0,.79.54,5.82,5.82,0,0,0,1.78.49h-.24a9.25,9.25,0,0,0,1.38-.1,14.94,14.94,0,0,0,1.56-.24,3.55,3.55,0,0,0,1.63-.82A2.53,2.53,0,0,0,501.66,662Zm.4,0a12,12,0,0,1-.26,2.16,7.25,7.25,0,0,1-.85,2.3,5.23,5.23,0,0,1-1.85,1.83,6.57,6.57,0,0,1-2.52.79h-.24a6.23,6.23,0,0,1-3.95-1.49,5.83,5.83,0,0,1-1.62-7.28,11.09,11.09,0,0,1,1.93-2.88,8.47,8.47,0,0,1,3-2.21,4.5,4.5,0,0,1,5.46,1.55,5.74,5.74,0,0,1,.76,1.82A16.16,16.16,0,0,1,502.06,662Z"/><circle class="cls-1" cx="358.44" cy="711.43" r="4.55"/><path d="M362.78,711.69a2.21,2.21,0,0,0-.5-1.6,2.72,2.72,0,0,0-1.35-.86,15.14,15.14,0,0,1-2.31-.68,6,6,0,0,0-1.33-.4,2.15,2.15,0,0,0-1.46.31,2.28,2.28,0,0,0-.89,1.24,2.77,2.77,0,0,0,.05,1.51,4.54,4.54,0,0,0,1.42,2,4.3,4.3,0,0,0,1.88.61,5.25,5.25,0,0,0,1,.07,7,7,0,0,0,1.27,0,2.73,2.73,0,0,0,1.45-.66A2.3,2.3,0,0,0,362.78,711.69Zm.4,0c0,.62-.05,1.25-.14,1.95a6,6,0,0,1-.67,2.2,4.2,4.2,0,0,1-1.84,1.72,5.64,5.64,0,0,1-6.95-1.87,5.1,5.1,0,0,1-1-2.31,5,5,0,0,1,.22-2.33A9.7,9.7,0,0,1,355,707.5a9.33,9.33,0,0,1,1.64-1.45,4.91,4.91,0,0,1,2.21-.83,4.08,4.08,0,0,1,2.38.49,3.79,3.79,0,0,1,1.64,1.83,5.7,5.7,0,0,1,.41,2.24C363.25,710.48,363.21,711.1,363.18,711.72Z"/><ellipse class="cls-1" cx="472.47" cy="722.08" rx="4.55" ry="5.2" transform="translate(-75.71 55.65) rotate(-6.24)"/><path d="M476.8,721.61A2.78,2.78,0,0,0,476,720a3.54,3.54,0,0,0-1.52-.88c-.51-.15-.95-.19-1.31-.27l-1.11-.23a3.87,3.87,0,0,0-1.39-.11,2.25,2.25,0,0,0-1.4.76,3,3,0,0,0-.27,3.21,6.17,6.17,0,0,0,1.81,2.2,3.25,3.25,0,0,0,1.93.5,3.2,3.2,0,0,0,.93-.13,6.41,6.41,0,0,0,1.29-.48,3.52,3.52,0,0,0,1.34-1.16A2.67,2.67,0,0,0,476.8,721.61Zm.4-.05c.08.66.15,1.33.19,2.06a7.66,7.66,0,0,1-.16,2.35,4.39,4.39,0,0,1-1.38,2.26,5.18,5.18,0,0,1-2.65,1.15,5.41,5.41,0,0,1-2.83-.41,5.93,5.93,0,0,1-2.2-1.67,5.68,5.68,0,0,1-1.31-4.64,13.17,13.17,0,0,1,1.37-4.15,9,9,0,0,1,1.31-1.92,4.64,4.64,0,0,1,2.21-1.34,4.16,4.16,0,0,1,2.67.22,4,4,0,0,1,1.89,1.79,6.68,6.68,0,0,1,.65,2.27Z"/><path class="cls-1" d="M401,734.25a5.2,5.2,0,1,0-5.83,4.47A5.14,5.14,0,0,0,401,734.25Z"/><path d="M400.8,734.22a2.7,2.7,0,0,0-.41-1.88,3.51,3.51,0,0,0-1.41-1.18c-1.06-.46-1.77-.68-2.68-1.09a5.72,5.72,0,0,0-1.53-.47,2.74,2.74,0,0,0-1.72.33,2.79,2.79,0,0,0-1.13,1.36,3.15,3.15,0,0,0-.15,1.74,5.23,5.23,0,0,0,1.43,2.57,4.7,4.7,0,0,0,2.24,1,6.67,6.67,0,0,0,1.27.12,8.1,8.1,0,0,0,1.51-.07,3.36,3.36,0,0,0,1.67-.75A2.78,2.78,0,0,0,400.8,734.22Zm.4,0a20.54,20.54,0,0,1-.37,2.17,6.91,6.91,0,0,1-1,2.33,4.82,4.82,0,0,1-2.16,1.71,6.18,6.18,0,0,1-2.79.36,6.39,6.39,0,0,1-4.69-2.94,5.53,5.53,0,0,1-.6-5.15,11.11,11.11,0,0,1,4.61-5.29,5.48,5.48,0,0,1,2.53-.7,4.59,4.59,0,0,1,2.58.75,4.37,4.37,0,0,1,1.68,2.1,6.46,6.46,0,0,1,.37,2.48C401.35,732.87,401.28,733.57,401.2,734.27Z"/><circle class="cls-1" cx="466.97" cy="735.11" r="5.2"/><path d="M472,734.82a2.71,2.71,0,0,0-.75-1.77,3.45,3.45,0,0,0-1.61-.89c-1.13-.26-1.86-.35-2.83-.58a6.19,6.19,0,0,0-1.6-.17,2.67,2.67,0,0,0-1.62.65,2.77,2.77,0,0,0-.86,1.54,3.2,3.2,0,0,0,.18,1.74,5.15,5.15,0,0,0,1.88,2.26,4.72,4.72,0,0,0,2.4.57,6.91,6.91,0,0,0,1.27-.12,8,8,0,0,0,1.46-.35,3.25,3.25,0,0,0,1.5-1.05A2.78,2.78,0,0,0,472,734.82Zm.4,0a19.68,19.68,0,0,1,.05,2.2,6.89,6.89,0,0,1-.54,2.47,4.75,4.75,0,0,1-1.8,2.08,6.2,6.2,0,0,1-2.68.88,6.36,6.36,0,0,1-5.15-2,5.55,5.55,0,0,1-1.55-4.95,10,10,0,0,1,1.9-4.27,9.7,9.7,0,0,1,1.64-1.78,5.32,5.32,0,0,1,2.35-1.17,4.66,4.66,0,0,1,2.68.25,4.42,4.42,0,0,1,2,1.75,6.58,6.58,0,0,1,.82,2.37C472.25,733.39,472.31,734.09,472.36,734.8Z"/><ellipse class="cls-1" cx="390.25" cy="735.74" rx="4.55" ry="5.2" transform="translate(-31.86 17.81) rotate(-2.51)"/><path d="M394.6,735.55a2.82,2.82,0,0,0-.66-1.71,3.41,3.41,0,0,0-1.46-1,9.88,9.88,0,0,0-1.29-.35l-1.09-.31a4,4,0,0,0-1.39-.19,2.29,2.29,0,0,0-1.44.68,3,3,0,0,0-.47,3.19,6.06,6.06,0,0,0,1.68,2.31,3.2,3.2,0,0,0,1.9.6,3.9,3.9,0,0,0,1-.08,5,5,0,0,0,1.29-.35,3.26,3.26,0,0,0,1.38-1.07A3,3,0,0,0,394.6,735.55Zm.4,0c0,.66.08,1.33.1,2.06a6.88,6.88,0,0,1-.28,2.37,4.35,4.35,0,0,1-1.58,2.17,5.37,5.37,0,0,1-5.47.38,6.09,6.09,0,0,1-2.12-1.79,5.72,5.72,0,0,1-1-4.73,13.49,13.49,0,0,1,1.62-4.06,8.56,8.56,0,0,1,1.43-1.84,4.55,4.55,0,0,1,2.29-1.21,4.11,4.11,0,0,1,2.66.39,3.94,3.94,0,0,1,1.78,1.9,6.69,6.69,0,0,1,.5,2.32Z"/><ellipse class="cls-1" cx="390.3" cy="735.82" rx="5.2" ry="4.55" transform="translate(-379.48 1053.94) rotate(-84.51)"/><path d="M394.64,736.24a2.83,2.83,0,0,0-.42-1.79,3.49,3.49,0,0,0-1.3-1.16c-.48-.25-.9-.38-1.24-.53l-1-.45a3.76,3.76,0,0,0-1.34-.38,2.2,2.2,0,0,0-1.52.47,3,3,0,0,0-.91,3.09,6.16,6.16,0,0,0,1.34,2.52,3.24,3.24,0,0,0,1.8.86,3.74,3.74,0,0,0,1,.06,5.46,5.46,0,0,0,1.33-.16,3.28,3.28,0,0,0,1.51-.87A3,3,0,0,0,394.64,736.24Zm.39,0c-.06.65-.09,1.32-.18,2.05a6.85,6.85,0,0,1-.61,2.3,4.33,4.33,0,0,1-1.86,1.93,5.4,5.4,0,0,1-5.48-.38,6.14,6.14,0,0,1-1.84-2.07,5.71,5.71,0,0,1-.37-4.83,13,13,0,0,1,2.17-3.79,8.3,8.3,0,0,1,1.66-1.63A4.71,4.71,0,0,1,391,729a4.14,4.14,0,0,1,2.58.76,4,4,0,0,1,1.5,2.13,6.45,6.45,0,0,1,.17,2.36Z"/><ellipse class="cls-1" cx="394.46" cy="737.96" rx="4.55" ry="5.2" transform="translate(-98.18 61.58) rotate(-7.94)"/><path d="M398.77,737.36a2.82,2.82,0,0,0-.81-1.63,3.44,3.44,0,0,0-1.54-.83,11.56,11.56,0,0,0-1.32-.23l-1.12-.2a3.7,3.7,0,0,0-1.39-.07,2.26,2.26,0,0,0-1.37.8,3,3,0,0,0-.19,3.21,6.26,6.26,0,0,0,1.88,2.15,3.22,3.22,0,0,0,1.94.44,2.61,2.61,0,0,0,.91-.17,8.31,8.31,0,0,0,1.3-.52,3.5,3.5,0,0,0,1.31-1.18A2.74,2.74,0,0,0,398.77,737.36Zm.39-.05c.1.65.2,1.31.26,2.05a7.33,7.33,0,0,1-.11,2.36A4.56,4.56,0,0,1,398,744a5.18,5.18,0,0,1-2.62,1.25,5.31,5.31,0,0,1-2.84-.33,6,6,0,0,1-2.24-1.6,5.73,5.73,0,0,1-1.45-4.61,13.12,13.12,0,0,1,1.26-4.18,8.7,8.7,0,0,1,1.25-2,4.6,4.6,0,0,1,2.17-1.4,4.15,4.15,0,0,1,2.67.14,4,4,0,0,1,1.94,1.73,6.59,6.59,0,0,1,.72,2.26Z"/><circle class="cls-1" cx="376.28" cy="738.67" r="4.55"/><path d="M380.63,738.52A2.31,2.31,0,0,0,380,737a2.88,2.88,0,0,0-1.43-.73,13.69,13.69,0,0,1-2.37-.45,6,6,0,0,0-1.36-.27,2.2,2.2,0,0,0-1.43.45,2.28,2.28,0,0,0-.76,1.32,2.66,2.66,0,0,0,.2,1.5,3.52,3.52,0,0,0,3.53,2.29,6.14,6.14,0,0,0,1.05,0,7.22,7.22,0,0,0,1.26-.15,2.72,2.72,0,0,0,1.38-.8A2.34,2.34,0,0,0,380.63,738.52Zm.4,0c0,.62.06,1.25,0,2a5.88,5.88,0,0,1-.46,2.25,4.18,4.18,0,0,1-1.66,1.9,5.59,5.59,0,0,1-2.44.74,5.76,5.76,0,0,1-4.66-1.94,5,5,0,0,1-1.21-4.55,9.79,9.79,0,0,1,1.81-3.77,9.21,9.21,0,0,1,1.49-1.59,4.78,4.78,0,0,1,2.13-1,4,4,0,0,1,2.41.26,3.89,3.89,0,0,1,1.81,1.66,5.79,5.79,0,0,1,.61,2.19C381,737.27,381,737.89,381,738.51Z"/><path class="cls-1" d="M356.77,740.73c-.11-2.6-2.46-4.45-5.38-4.33s-5.12,2.16-5,4.76,2.46,4.45,5.38,4.33S356.88,743.33,356.77,740.73Z"/><path d="M356.57,740.74a2.19,2.19,0,0,0-.75-1.61,3,3,0,0,0-1.57-.65,18.14,18.14,0,0,1-2.79-.42,9.21,9.21,0,0,0-1.57-.25,2.66,2.66,0,0,0-1.6.42,2.36,2.36,0,0,0-.94,1.32,2.44,2.44,0,0,0,.12,1.56,3.39,3.39,0,0,0,.82,1.12,4.26,4.26,0,0,0,1,.69,6.32,6.32,0,0,0,2.4.44,11,11,0,0,0,1.29-.06,14.06,14.06,0,0,0,1.44-.16,2.88,2.88,0,0,0,1.52-.75A2.25,2.25,0,0,0,356.57,740.74Zm.4,0a10.7,10.7,0,0,1-.06,2.1,5.94,5.94,0,0,1-.74,2.31,4.71,4.71,0,0,1-1.85,1.8,6.49,6.49,0,0,1-7.31-1,5.34,5.34,0,0,1-1.54-2.19,4.9,4.9,0,0,1-.19-2.56,8,8,0,0,1,2.16-3.94,7.75,7.75,0,0,1,3.88-2.53,4.39,4.39,0,0,1,4.45,1.7,5.7,5.7,0,0,1,.94,2.22A13,13,0,0,1,357,740.72Z"/><path class="cls-1" d="M384.75,753.14a5.2,5.2,0,1,0-5.33,5.06A5.13,5.13,0,0,0,384.75,753.14Z"/><path d="M384.55,753.13a2.68,2.68,0,0,0-.61-1.82,3.44,3.44,0,0,0-1.52-1c-1.11-.35-1.83-.49-2.78-.81a6.24,6.24,0,0,0-1.58-.3,2.63,2.63,0,0,0-1.66.51,2.81,2.81,0,0,0-1,1.47,3.15,3.15,0,0,0,0,1.75,5.24,5.24,0,0,0,1.68,2.4,4.65,4.65,0,0,0,2.34.77,6.85,6.85,0,0,0,1.28,0,8.36,8.36,0,0,0,1.49-.23,3.38,3.38,0,0,0,1.58-.92A2.82,2.82,0,0,0,384.55,753.13Zm.4,0a19,19,0,0,1-.14,2.2,6.74,6.74,0,0,1-.74,2.42,4.76,4.76,0,0,1-2,1.93,6.2,6.2,0,0,1-2.74.65,6.41,6.41,0,0,1-5-2.43,5.56,5.56,0,0,1-1.13-5.07,11,11,0,0,1,4-5.73,5.39,5.39,0,0,1,2.44-1,4.55,4.55,0,0,1,2.65.48,4.31,4.31,0,0,1,1.89,1.91,6.33,6.33,0,0,1,.62,2.42C385,751.73,385,752.44,385,753.14Z"/><ellipse class="cls-1" cx="366.67" cy="754.42" rx="4.55" ry="5.2" transform="translate(-449.79 946.75) rotate(-77.33)"/><path d="M371.55,755.52a2.2,2.2,0,0,0-.31-1.75,3.07,3.07,0,0,0-1.35-1,18,18,0,0,1-2.59-1.12,7.64,7.64,0,0,0-1.44-.65,2.69,2.69,0,0,0-1.66,0,2.42,2.42,0,0,0-1.25,1,2.36,2.36,0,0,0-.28,1.53,3.24,3.24,0,0,0,.5,1.3,4.32,4.32,0,0,0,.77.92,6.13,6.13,0,0,0,2.2,1,10.9,10.9,0,0,0,1.26.28,12.73,12.73,0,0,0,1.43.22,2.94,2.94,0,0,0,1.67-.33A2.26,2.26,0,0,0,371.55,755.52Zm.39.09a11.34,11.34,0,0,1-.6,2,6.19,6.19,0,0,1-1.32,2,4.67,4.67,0,0,1-2.25,1.26,6.49,6.49,0,0,1-2.56,0,6.6,6.6,0,0,1-4.25-2.88,5.27,5.27,0,0,1-.91-2.51,4.75,4.75,0,0,1,.48-2.52,7.9,7.9,0,0,1,3.1-3.24,7.69,7.69,0,0,1,4.4-1.44,4.39,4.39,0,0,1,3.87,2.8,6.07,6.07,0,0,1,.33,2.38A13.07,13.07,0,0,1,371.94,755.61Z"/><path class="cls-1" d="M520.56,763c.53-2.54-1.31-4.91-4.17-5.5s-5.49.86-6,3.4,1.31,4.92,4.17,5.51S520,765.56,520.56,763Z"/><path d="M520.37,763a2.18,2.18,0,0,0-.34-1.74,3.06,3.06,0,0,0-1.37-1,18.23,18.23,0,0,1-2.61-1.07,8.79,8.79,0,0,0-1.45-.63,2.62,2.62,0,0,0-1.66,0,2.42,2.42,0,0,0-1.24,1.05,2.38,2.38,0,0,0-.25,1.54,3.22,3.22,0,0,0,.53,1.29,4.25,4.25,0,0,0,.78.9,6.26,6.26,0,0,0,2.22,1,9.2,9.2,0,0,0,1.27.25,13,13,0,0,0,1.43.2,2.92,2.92,0,0,0,1.66-.36A2.3,2.3,0,0,0,520.37,763Zm.39.08a11.33,11.33,0,0,1-.57,2,6.07,6.07,0,0,1-1.28,2.06,4.7,4.7,0,0,1-2.23,1.29,6.5,6.5,0,0,1-2.56.08,6.58,6.58,0,0,1-4.29-2.8,5.16,5.16,0,0,1-1-2.49,4.77,4.77,0,0,1,.43-2.53,7.89,7.89,0,0,1,3.05-3.3,7.71,7.71,0,0,1,4.38-1.52,4.41,4.41,0,0,1,3.91,2.73A6,6,0,0,1,521,761,13,13,0,0,1,520.76,763.05Z"/><path class="cls-1" d="M528.63,810a5.2,5.2,0,1,0-3.93,6.22A5.59,5.59,0,0,0,528.63,810Z"/><path d="M528.43,810a3,3,0,0,0-.67-1.29,3,3,0,0,0-1.22-.76,8.92,8.92,0,0,0-2.38-.23c-.67,0-1.34-.08-2.17-.08a3,3,0,0,0-2.32,1,2.85,2.85,0,0,0-.46,2.55,4.35,4.35,0,0,0,1.42,2,8,8,0,0,0,.85.58,3.67,3.67,0,0,0,.91.32,6,6,0,0,0,1.84,0l-.22.07a10.09,10.09,0,0,0,1.29-.47,13.23,13.23,0,0,0,1.45-.64,3.6,3.6,0,0,0,1.36-1.22A2.57,2.57,0,0,0,528.43,810Zm.39-.08a11.71,11.71,0,0,1,.32,2.14,7.18,7.18,0,0,1-.22,2.45,5.24,5.24,0,0,1-1.29,2.26,6.68,6.68,0,0,1-2.23,1.42l-.07,0-.16,0a6.28,6.28,0,0,1-4.2-.39,5.83,5.83,0,0,1-3.48-6.6,11,11,0,0,1,1.1-3.29,8.4,8.4,0,0,1,2.28-2.91,4.69,4.69,0,0,1,3.85-.85,4.44,4.44,0,0,1,1.83.91,5.57,5.57,0,0,1,1.21,1.55A15.25,15.25,0,0,1,528.82,809.91Z"/><circle class="cls-1" cx="327.79" cy="815.65" r="4.55"/><path d="M332.11,815.13a2.23,2.23,0,0,0-.78-1.48,2.8,2.8,0,0,0-1.49-.61,14.15,14.15,0,0,1-2.39-.25,5.46,5.46,0,0,0-1.38-.15,2.19,2.19,0,0,0-1.39.57,2.22,2.22,0,0,0-.64,1.37,2.6,2.6,0,0,0,.32,1.48,4.52,4.52,0,0,0,1.76,1.72,4.33,4.33,0,0,0,2,.27,6.14,6.14,0,0,0,1-.12,7.27,7.27,0,0,0,1.24-.26,2.68,2.68,0,0,0,1.31-.91A2.35,2.35,0,0,0,332.11,815.13Zm.4,0c.08.61.17,1.24.2,1.94a5.73,5.73,0,0,1-.26,2.28,4.18,4.18,0,0,1-1.5,2,5.58,5.58,0,0,1-2.36.95,5.81,5.81,0,0,1-4.81-1.54,4.89,4.89,0,0,1-1.59-4.43,9.62,9.62,0,0,1,1.48-3.91A9.12,9.12,0,0,1,325,810.7a4.85,4.85,0,0,1,2-1.22,4.11,4.11,0,0,1,2.43,0,3.84,3.84,0,0,1,1.94,1.51,5.64,5.64,0,0,1,.8,2.13C332.35,813.85,332.42,814.47,332.51,815.09Z"/><ellipse class="cls-1" cx="399.64" cy="851.75" rx="5.2" ry="4.55" transform="matrix(1, -0.07, 0.07, 1, -60.35, 31.02)"/><path d="M404.62,851.39a2.19,2.19,0,0,0-.79-1.58,3.09,3.09,0,0,0-1.59-.6,17.6,17.6,0,0,1-2.8-.33,8.26,8.26,0,0,0-1.56-.22,2.65,2.65,0,0,0-1.59.47,2.36,2.36,0,0,0-.91,1.34,2.41,2.41,0,0,0,.16,1.55,4,4,0,0,0,1.83,1.77,6.11,6.11,0,0,0,2.4.37,7.23,7.23,0,0,0,1.22-.09,14,14,0,0,0,1.45-.24A3.21,3.21,0,0,0,404,853,2.12,2.12,0,0,0,404.62,851.39Zm.4,0a9.32,9.32,0,0,1-.06,2.1,6.8,6.8,0,0,1-.69,2.3,4.68,4.68,0,0,1-1.73,1.86,6.24,6.24,0,0,1-2.5.81,6.55,6.55,0,0,1-4.87-1.57,5.27,5.27,0,0,1-1.58-2.15,4.79,4.79,0,0,1-.23-2.55,7.91,7.91,0,0,1,2.05-4,7.76,7.76,0,0,1,3.8-2.63,4.4,4.4,0,0,1,4.5,1.57,5.73,5.73,0,0,1,1,2.19A13.14,13.14,0,0,1,405,851.36Z"/><path class="cls-1" d="M576.05,867.36c-.19-2.59-2.61-4.37-5.53-4.15s-5,2.34-4.84,4.93,2.61,4.37,5.53,4.15A4.63,4.63,0,0,0,576.05,867.36Z"/><path d="M575.85,867.38a2.35,2.35,0,0,0-.48-1.26,2.42,2.42,0,0,0-1.1-.75,9.33,9.33,0,0,0-2.26-.28c-.65-.07-1.32-.2-2.11-.34a3.18,3.18,0,0,0-2.4.4,2.33,2.33,0,0,0-1,2.16,3,3,0,0,0,1.07,1.85,3.85,3.85,0,0,0,1.58.84,8,8,0,0,0,1.85.15h.23a5.34,5.34,0,0,0,1.13,0,7.07,7.07,0,0,0,1.37-.19,3,3,0,0,0,1.49-.88A2.37,2.37,0,0,0,575.85,867.38Zm.4,0a13.43,13.43,0,0,1,0,2.12,6.15,6.15,0,0,1-.6,2.38,4.35,4.35,0,0,1-1.87,1.93,5.87,5.87,0,0,1-2.69.65h.24a6.5,6.5,0,0,1-3.79-.77,5.88,5.88,0,0,1-2.71-2.88,5,5,0,0,1-.32-1.93,6.46,6.46,0,0,1,.34-1.78,8.88,8.88,0,0,1,1.71-2.85,9.27,9.27,0,0,1,2.65-2.24,4.71,4.71,0,0,1,3.61-.32,4.47,4.47,0,0,1,2.68,2.53A10.15,10.15,0,0,1,576.25,867.35Z"/><ellipse class="cls-1" cx="520.89" cy="873.72" rx="5.2" ry="4.55" transform="translate(-409.3 1285.35) rotate(-83.07)"/><path d="M525.21,874.24a2.73,2.73,0,0,0-.36-1.79,3.47,3.47,0,0,0-1.28-1.2,13,13,0,0,0-1.22-.56l-1-.48a3.71,3.71,0,0,0-1.33-.41,2.18,2.18,0,0,0-1.54.43,3,3,0,0,0-1,3.07,6.34,6.34,0,0,0,1.28,2.55,3.28,3.28,0,0,0,1.78.91,4.18,4.18,0,0,0,1,.09,5.83,5.83,0,0,0,1.33-.14,3.25,3.25,0,0,0,1.54-.83A2.91,2.91,0,0,0,525.21,874.24Zm.4,0c-.08.66-.13,1.32-.23,2.05a7,7,0,0,1-.68,2.29,4.37,4.37,0,0,1-1.9,1.88A5.46,5.46,0,0,1,520,881a5.35,5.35,0,0,1-2.68-1,6,6,0,0,1-1.79-2.11,5.74,5.74,0,0,1-.25-4.84,13,13,0,0,1,2.27-3.73,8.41,8.41,0,0,1,1.7-1.59,4.65,4.65,0,0,1,2.46-.81,4.06,4.06,0,0,1,2.56.82,4,4,0,0,1,1.45,2.17,6.82,6.82,0,0,1,.11,2.36Z"/><path class="cls-1" d="M615.1,885.07c0-2.6-2.23-4.57-5.16-4.6s-5.21,1.91-5.24,4.51,2.24,4.57,5.17,4.59A4.62,4.62,0,0,0,615.1,885.07Z"/><path d="M614.9,885.06a2.36,2.36,0,0,0-.37-1.29,2.53,2.53,0,0,0-1-.84,9.14,9.14,0,0,0-2.23-.46c-.65-.12-1.31-.31-2.08-.52a3.21,3.21,0,0,0-2.43.2,2.35,2.35,0,0,0-1.13,2.07,3,3,0,0,0,.92,1.94,4,4,0,0,0,1.5,1,8.33,8.33,0,0,0,1.83.3l.24,0a6.06,6.06,0,0,0,1.12.1,8.83,8.83,0,0,0,1.38-.08,3,3,0,0,0,1.56-.75A2.37,2.37,0,0,0,614.9,885.06Zm.4,0a11.93,11.93,0,0,1-.14,2.11,6,6,0,0,1-.79,2.33,4.37,4.37,0,0,1-2,1.77,5.85,5.85,0,0,1-2.74.42h.24a6.55,6.55,0,0,1-3.71-1.08,5.82,5.82,0,0,1-2.46-3.1,5.16,5.16,0,0,1-.17-1.94,7.61,7.61,0,0,1,.49-1.76,10.47,10.47,0,0,1,4.78-4.7,4.66,4.66,0,0,1,3.61,0,4.46,4.46,0,0,1,2.47,2.74A10.32,10.32,0,0,1,615.3,885.07Z"/><circle class="cls-1" cx="426.06" cy="885.7" r="5.2"/><path d="M431,886.53a2.78,2.78,0,0,0-.34-1.89,3.48,3.48,0,0,0-1.37-1.23c-1-.51-1.74-.75-2.63-1.2a6.46,6.46,0,0,0-1.52-.52,2.64,2.64,0,0,0-1.72.27,2.71,2.71,0,0,0-1.19,1.31A3.16,3.16,0,0,0,422,885a5.2,5.2,0,0,0,1.32,2.62,4.79,4.79,0,0,0,2.21,1.09,6,6,0,0,0,1.27.16,8.31,8.31,0,0,0,1.5,0,3.38,3.38,0,0,0,1.7-.69A2.84,2.84,0,0,0,431,886.53Zm.39.07a19,19,0,0,1-.45,2.16,6.68,6.68,0,0,1-1.08,2.28,4.74,4.74,0,0,1-2.22,1.63,6.18,6.18,0,0,1-2.8.26,6.4,6.4,0,0,1-4.58-3.12,5.62,5.62,0,0,1-.84-2.61,5.72,5.72,0,0,1,.44-2.56,10,10,0,0,1,2.81-3.74,10.21,10.21,0,0,1,2-1.37,5.64,5.64,0,0,1,2.55-.61,4.71,4.71,0,0,1,2.55.85,4.33,4.33,0,0,1,1.6,2.16,6.4,6.4,0,0,1,.27,2.49C431.59,885.2,431.48,885.9,431.38,886.6Z"/><circle class="cls-1" cx="628.09" cy="919.09" r="5.2"/><path d="M633,918.39a2.74,2.74,0,0,0-.9-1.7,3.5,3.5,0,0,0-1.68-.76c-1.15-.16-1.88-.18-2.87-.33a6.1,6.1,0,0,0-1.61,0,2.74,2.74,0,0,0-1.56.78,2.87,2.87,0,0,0-.73,1.61,3.17,3.17,0,0,0,.33,1.72,5.23,5.23,0,0,0,2.06,2.09,4.81,4.81,0,0,0,2.44.37,6,6,0,0,0,1.25-.23,8.14,8.14,0,0,0,1.44-.46,3.39,3.39,0,0,0,1.4-1.17A2.83,2.83,0,0,0,633,918.39Zm.4-.06a20.8,20.8,0,0,1,.22,2.19,6.57,6.57,0,0,1-.33,2.51,4.8,4.8,0,0,1-1.61,2.23,6.32,6.32,0,0,1-2.6,1.1,6.43,6.43,0,0,1-5.31-1.57,5.79,5.79,0,0,1-1.6-2.24,5.61,5.61,0,0,1-.35-2.57,10.95,10.95,0,0,1,3-6.33,5.52,5.52,0,0,1,2.24-1.36,4.65,4.65,0,0,1,2.69,0,4.3,4.3,0,0,1,2.18,1.57,6.37,6.37,0,0,1,1,2.29C633.21,916.94,633.32,917.64,633.44,918.33Z"/><path class="cls-1" d="M531.21,919.34a5.2,5.2,0,1,0-5.1,5.29A5.12,5.12,0,0,0,531.21,919.34Z"/><path d="M531,919.35a2.74,2.74,0,0,0-.68-1.8,3.48,3.48,0,0,0-1.57-1c-1.12-.3-1.85-.42-2.81-.69a6,6,0,0,0-1.59-.23,2.69,2.69,0,0,0-1.64.58,2.79,2.79,0,0,0-.93,1.51,3.25,3.25,0,0,0,.12,1.75,5.29,5.29,0,0,0,1.79,2.33,4.79,4.79,0,0,0,2.37.66,6.05,6.05,0,0,0,1.27-.07,8,8,0,0,0,1.48-.29,3.25,3.25,0,0,0,1.54-1A2.77,2.77,0,0,0,531,919.35Zm.4,0a18.2,18.2,0,0,1,0,2.2,6.7,6.7,0,0,1-.64,2.45,4.78,4.78,0,0,1-1.88,2,6.14,6.14,0,0,1-2.71.77,6.4,6.4,0,0,1-5.07-2.21,5.74,5.74,0,0,1-1.31-2.42,5.58,5.58,0,0,1,0-2.6,10.13,10.13,0,0,1,2.07-4.19,10.24,10.24,0,0,1,1.71-1.71,5.51,5.51,0,0,1,2.4-1.07,4.53,4.53,0,0,1,2.66.36,4.32,4.32,0,0,1,2,1.83,6.56,6.56,0,0,1,.73,2.4A21,21,0,0,1,531.41,919.34Z"/><circle class="cls-1" cx="484.72" cy="923.96" r="4.55"/><path d="M489.06,923.66a2.25,2.25,0,0,0-.7-1.52,2.93,2.93,0,0,0-1.45-.68c-.48-.09-.89-.08-1.25-.14a11.21,11.21,0,0,1-1.11-.24,5.68,5.68,0,0,0-1.37-.23,2.1,2.1,0,0,0-1.41.48,2.24,2.24,0,0,0-.73,1.31,2.66,2.66,0,0,0,.23,1.5,4.49,4.49,0,0,0,1.64,1.82,4.19,4.19,0,0,0,1.91.41,3.2,3.2,0,0,0,.89-.06A10.74,10.74,0,0,0,487,926a3.48,3.48,0,0,0,1.44-.82A2.11,2.11,0,0,0,489.06,923.66Zm.4,0a12.81,12.81,0,0,1,0,2,7.44,7.44,0,0,1-.45,2.19,4.35,4.35,0,0,1-1.46,1.93,5,5,0,0,1-2.53.91,5.72,5.72,0,0,1-4.66-1.87,5,5,0,0,1-1.28-4.51,9.72,9.72,0,0,1,1.73-3.78,9.48,9.48,0,0,1,1.45-1.63,5,5,0,0,1,2.08-1.09,4.07,4.07,0,0,1,2.41.19,3.83,3.83,0,0,1,1.85,1.61,5.74,5.74,0,0,1,.67,2.16C489.37,922.4,489.4,923,489.46,923.64Z"/><ellipse class="cls-1" cx="504.9" cy="924" rx="4.55" ry="5.2" transform="translate(-425.33 1417.33) rotate(-89.28)"/><path d="M509.9,924.06a2.19,2.19,0,0,0-.66-1.64,3.08,3.08,0,0,0-1.53-.74,17.5,17.5,0,0,1-2.76-.56,9.43,9.43,0,0,0-1.54-.35,2.76,2.76,0,0,0-1.62.33,2.43,2.43,0,0,0-1,1.26,2.38,2.38,0,0,0,0,1.56,3.82,3.82,0,0,0,1.68,1.91,5.86,5.86,0,0,0,2.36.58,7.07,7.07,0,0,0,1.22,0,14,14,0,0,0,1.46-.11,3.24,3.24,0,0,0,1.6-.68A2.16,2.16,0,0,0,509.9,924.06Zm.4,0a9.65,9.65,0,0,1-.24,2.09,6.77,6.77,0,0,1-.88,2.22,4.69,4.69,0,0,1-1.89,1.72,6,6,0,0,1-2.55.58,6.54,6.54,0,0,1-4.72-2,5.34,5.34,0,0,1-1.39-2.27,4.84,4.84,0,0,1,0-2.56,8,8,0,0,1,2.38-3.79,7.71,7.71,0,0,1,4-2.3,4.39,4.39,0,0,1,4.35,1.94,6,6,0,0,1,.81,2.26A13.8,13.8,0,0,1,510.3,924.07Z"/><ellipse class="cls-1" cx="562.33" cy="932.67" rx="4.55" ry="5.2" transform="translate(-63.01 41.02) rotate(-3.96)"/><path d="M566.67,932.37a2.77,2.77,0,0,0-.69-1.69,3.48,3.48,0,0,0-1.49-.94c-.5-.17-.94-.23-1.3-.32l-1.1-.27a3.8,3.8,0,0,0-1.39-.16,2.22,2.22,0,0,0-1.42.72,3,3,0,0,0-.39,3.2,6.24,6.24,0,0,0,1.73,2.27,3.36,3.36,0,0,0,1.93.55,3.88,3.88,0,0,0,1-.11,5.2,5.2,0,0,0,1.28-.38,3.17,3.17,0,0,0,1.35-1.11A2.89,2.89,0,0,0,566.67,932.37Zm.4,0c0,.66.12,1.32.16,2.06a6.82,6.82,0,0,1-.23,2.37,4.35,4.35,0,0,1-1.51,2.21,5.38,5.38,0,0,1-5.47.52,6.18,6.18,0,0,1-2.16-1.74,5.74,5.74,0,0,1-1.16-4.7,13.41,13.41,0,0,1,1.52-4.1,9,9,0,0,1,1.38-1.88,4.64,4.64,0,0,1,2.26-1.26,4.13,4.13,0,0,1,2.67.32,4,4,0,0,1,1.83,1.86,6.48,6.48,0,0,1,.55,2.3Z"/><ellipse class="cls-1" cx="587.71" cy="940.54" rx="5.2" ry="4.55" transform="translate(-132.59 97.22) rotate(-8.5)"/><path d="M592.65,939.8a2.21,2.21,0,0,0-.91-1.52,3.05,3.05,0,0,0-1.64-.48,18.53,18.53,0,0,1-2.82-.11,8,8,0,0,0-1.58-.09,2.69,2.69,0,0,0-1.54.59,2.4,2.4,0,0,0-.8,1.42,2.34,2.34,0,0,0,.29,1.54,3.33,3.33,0,0,0,.94,1,4.29,4.29,0,0,0,1,.58,6.17,6.17,0,0,0,2.44.18,10.82,10.82,0,0,0,1.27-.2,13.49,13.49,0,0,0,1.42-.3,3,3,0,0,0,1.43-.92A2.26,2.26,0,0,0,592.65,939.8Zm.4-.06a11.6,11.6,0,0,1,.17,2.1,6.17,6.17,0,0,1-.5,2.38,4.72,4.72,0,0,1-1.64,2,6.48,6.48,0,0,1-7.38-.2,5.34,5.34,0,0,1-1.76-2,4.9,4.9,0,0,1-.46-2.52,7.94,7.94,0,0,1,1.72-4.14,7.68,7.68,0,0,1,3.59-2.94,4.4,4.4,0,0,1,4.61,1.22,5.65,5.65,0,0,1,1.17,2.1A12.62,12.62,0,0,1,593.05,939.74Z"/><ellipse class="cls-1" cx="461.02" cy="938.63" rx="4.55" ry="5.2" transform="translate(-505.79 1337.21) rotate(-86.25)"/><path d="M466,939a2.17,2.17,0,0,0-.57-1.67,3,3,0,0,0-1.5-.82,18.33,18.33,0,0,1-2.72-.71,8,8,0,0,0-1.52-.43,2.7,2.7,0,0,0-1.63.24,2.32,2.32,0,0,0-1.14,2.77,3.88,3.88,0,0,0,1.57,2,6.1,6.1,0,0,0,2.33.7,7,7,0,0,0,1.22.07,12.36,12.36,0,0,0,1.46,0,3.27,3.27,0,0,0,1.63-.59A2.17,2.17,0,0,0,466,939Zm.4,0a9.85,9.85,0,0,1-.35,2.07,6.63,6.63,0,0,1-1,2.17,4.73,4.73,0,0,1-2,1.62,6.3,6.3,0,0,1-2.58.45,6.55,6.55,0,0,1-4.61-2.22,5.35,5.35,0,0,1-1.27-2.35,4.77,4.77,0,0,1,.11-2.55,8,8,0,0,1,2.58-3.66,7.77,7.77,0,0,1,4.13-2.09,4.41,4.41,0,0,1,4.24,2.17,5.87,5.87,0,0,1,.68,2.3A13.44,13.44,0,0,1,466.41,939Z"/><ellipse class="cls-1" cx="602.44" cy="944.59" rx="4.55" ry="5.2" transform="translate(-402.75 1439.33) rotate(-83.68)"/><path d="M607.41,945.14a2.24,2.24,0,0,0-.5-1.71,3,3,0,0,0-1.46-.88,18.82,18.82,0,0,1-2.69-.83,8.91,8.91,0,0,0-1.51-.49,2.64,2.64,0,0,0-1.64.18,2.31,2.31,0,0,0-1.25,2.72,3.32,3.32,0,0,0,.65,1.24,4.44,4.44,0,0,0,.86.82,6,6,0,0,0,2.31.79,9.11,9.11,0,0,0,1.28.14,12.69,12.69,0,0,0,1.45.07,2.88,2.88,0,0,0,1.61-.52A2.23,2.23,0,0,0,607.41,945.14Zm.4,0a11.6,11.6,0,0,1-.37,2.07,6.08,6.08,0,0,1-1.09,2.17,4.71,4.71,0,0,1-2.1,1.5,6.48,6.48,0,0,1-2.54.31,6.6,6.6,0,0,1-4.54-2.39,5.24,5.24,0,0,1-1.19-2.39,4.79,4.79,0,0,1,.21-2.56,7.9,7.9,0,0,1,2.72-3.57,7.7,7.7,0,0,1,4.22-1.91,4.38,4.38,0,0,1,4.14,2.35,5.83,5.83,0,0,1,.6,2.33A14.26,14.26,0,0,1,607.81,945.18Z"/><circle class="cls-1" cx="508.86" cy="948.47" r="5.2"/><path d="M513.79,949.31a2.72,2.72,0,0,0-.34-1.89,3.46,3.46,0,0,0-1.36-1.23c-1.05-.51-1.74-.75-2.64-1.2a5.48,5.48,0,0,0-1.51-.52,2.74,2.74,0,0,0-1.73.26A2.85,2.85,0,0,0,505,946a3.16,3.16,0,0,0-.21,1.74,5.2,5.2,0,0,0,1.33,2.62,4.62,4.62,0,0,0,2.2,1.09,5.4,5.4,0,0,0,1.27.17,7.55,7.55,0,0,0,1.5,0,3.28,3.28,0,0,0,1.7-.68A2.84,2.84,0,0,0,513.79,949.31Zm.39.07a19,19,0,0,1-.45,2.16,6.68,6.68,0,0,1-1.08,2.28,4.74,4.74,0,0,1-2.22,1.63,6.09,6.09,0,0,1-2.81.25,6.41,6.41,0,0,1-4.57-3.11,5.62,5.62,0,0,1-.4-5.18,11.06,11.06,0,0,1,4.82-5.1,5.39,5.39,0,0,1,2.55-.61,4.74,4.74,0,0,1,2.55.85,4.39,4.39,0,0,1,1.6,2.16,6.43,6.43,0,0,1,.27,2.5C514.39,948,514.29,948.68,514.18,949.38Z"/><ellipse class="cls-1" cx="566.91" cy="950.33" rx="4.55" ry="5.2" transform="translate(-73.37 47.8) rotate(-4.54)"/><path d="M571.25,950a2.83,2.83,0,0,0-.71-1.68,3.37,3.37,0,0,0-1.5-.92c-.51-.17-.94-.22-1.3-.31l-1.11-.27a3.8,3.8,0,0,0-1.38-.13,2.25,2.25,0,0,0-1.42.72,3,3,0,0,0-.36,3.21,6.21,6.21,0,0,0,1.76,2.25,3.26,3.26,0,0,0,1.93.53,3.88,3.88,0,0,0,1-.11,5.87,5.87,0,0,0,1.28-.4,3.31,3.31,0,0,0,1.34-1.12A2.92,2.92,0,0,0,571.25,950Zm.4,0c.06.66.13,1.32.18,2a7.07,7.07,0,0,1-.2,2.38,4.36,4.36,0,0,1-1.5,2.22,5.37,5.37,0,0,1-5.46.58,6,6,0,0,1-2.17-1.72,5.67,5.67,0,0,1-1.21-4.69,13,13,0,0,1,1.48-4.11,8.26,8.26,0,0,1,1.35-1.89,4.66,4.66,0,0,1,2.25-1.29,4.18,4.18,0,0,1,2.67.29,4,4,0,0,1,1.85,1.84,6.55,6.55,0,0,1,.58,2.3Z"/><ellipse class="cls-1" cx="303.74" cy="947.69" rx="5.2" ry="4.55" transform="translate(-662.77 1184.79) rotate(-86.01)"/><path d="M308.08,948a2.76,2.76,0,0,0-.45-1.77,3.41,3.41,0,0,0-1.34-1.13,13.46,13.46,0,0,0-1.25-.5l-1.05-.43a3.88,3.88,0,0,0-1.35-.34,2.18,2.18,0,0,0-1.51.51,3,3,0,0,0-.83,3.12,6.25,6.25,0,0,0,1.4,2.48,3.22,3.22,0,0,0,1.83.81,3.75,3.75,0,0,0,1,0,5.65,5.65,0,0,0,1.32-.2,3.26,3.26,0,0,0,1.49-.91A2.85,2.85,0,0,0,308.08,948Zm.4,0c0,.66-.06,1.32-.13,2.05a6.68,6.68,0,0,1-.55,2.33,4.29,4.29,0,0,1-1.81,2,5.39,5.39,0,0,1-5.48-.24,6,6,0,0,1-1.9-2,5.72,5.72,0,0,1-.5-4.82,13.37,13.37,0,0,1,2.07-3.84,8.57,8.57,0,0,1,1.63-1.68,4.7,4.7,0,0,1,2.41-.94,4.17,4.17,0,0,1,2.6.69,4,4,0,0,1,1.55,2.1,6.7,6.7,0,0,1,.24,2.35Z"/><circle class="cls-1" cx="440.17" cy="951.23" r="5.2"/><path d="M445.16,950.91a2.73,2.73,0,0,0-.77-1.76,3.48,3.48,0,0,0-1.62-.89c-1.13-.25-1.86-.32-2.83-.55a5.79,5.79,0,0,0-1.6-.16,2.76,2.76,0,0,0-1.62.66,2.84,2.84,0,0,0-.85,1.55,3.21,3.21,0,0,0,.2,1.74,5.18,5.18,0,0,0,1.9,2.24,4.61,4.61,0,0,0,2.4.55,5.54,5.54,0,0,0,1.27-.13,8.44,8.44,0,0,0,1.46-.35,3.32,3.32,0,0,0,1.49-1.06A2.82,2.82,0,0,0,445.16,950.91Zm.4,0a19.72,19.72,0,0,1,.06,2.2,6.89,6.89,0,0,1-.52,2.48,4.88,4.88,0,0,1-1.78,2.1,6.22,6.22,0,0,1-2.67.89,6.4,6.4,0,0,1-5.18-2,5.79,5.79,0,0,1-1.42-2.35,5.6,5.6,0,0,1-.16-2.59,10,10,0,0,1,1.86-4.29,10.1,10.1,0,0,1,1.63-1.8,5.47,5.47,0,0,1,2.34-1.18,4.74,4.74,0,0,1,2.68.23,4.39,4.39,0,0,1,2.06,1.74,6.27,6.27,0,0,1,.84,2.36C445.44,949.47,445.5,950.18,445.56,950.88Z"/><ellipse class="cls-1" cx="504.21" cy="960.35" rx="5.2" ry="4.55" transform="translate(-77.47 44.85) rotate(-4.73)"/><path d="M509.2,959.94a2.24,2.24,0,0,0-.82-1.58,3.08,3.08,0,0,0-1.6-.59,19.07,19.07,0,0,1-2.81-.29,7.67,7.67,0,0,0-1.57-.19,2.57,2.57,0,0,0-1.58.49,2.32,2.32,0,0,0-.7,2.91,3.31,3.31,0,0,0,.87,1.08,4.75,4.75,0,0,0,1,.65,6.4,6.4,0,0,0,2.42.34,11,11,0,0,0,1.29-.11c.43-.07.91-.09,1.43-.22a2.88,2.88,0,0,0,1.49-.82A2.3,2.3,0,0,0,509.2,959.94Zm.39,0a10.52,10.52,0,0,1,0,2.11,6,6,0,0,1-.65,2.34,4.68,4.68,0,0,1-1.77,1.87,6.42,6.42,0,0,1-2.44.79,6.57,6.57,0,0,1-4.9-1.47,5.29,5.29,0,0,1-1.63-2.12,4.81,4.81,0,0,1-.29-2.55,7.81,7.81,0,0,1,2-4,7.7,7.7,0,0,1,3.77-2.7,4.39,4.39,0,0,1,4.52,1.52,5.88,5.88,0,0,1,1,2.18A12.17,12.17,0,0,1,509.59,959.9Z"/><path class="cls-1" d="M557.53,964.11a5.2,5.2,0,1,0-5.87,4.44A5.58,5.58,0,0,0,557.53,964.11Z"/><path d="M557.33,964.09a2.86,2.86,0,0,0-.18-1.45,2.92,2.92,0,0,0-.87-1.14,8.41,8.41,0,0,0-2.15-1c-.62-.25-1.22-.55-2-.84a3,3,0,0,0-2.53.14,2.82,2.82,0,0,0-1.32,2.22,4.24,4.24,0,0,0,.63,2.36,6.72,6.72,0,0,0,.59.85,3.87,3.87,0,0,0,.73.62,6.23,6.23,0,0,0,1.73.65l-.24,0a10.52,10.52,0,0,0,1.38,0,13.13,13.13,0,0,0,1.58-.1,3.58,3.58,0,0,0,1.7-.66A2.56,2.56,0,0,0,557.33,964.09Zm.39,0a11.33,11.33,0,0,1-.45,2.12,7.31,7.31,0,0,1-1.07,2.22,5.14,5.14,0,0,1-2,1.65,6.49,6.49,0,0,1-2.58.55h-.07l-.17,0a6.22,6.22,0,0,1-3.79-1.84,5.85,5.85,0,0,1-.94-7.4,10.89,10.89,0,0,1,2.19-2.69,8.28,8.28,0,0,1,3.16-1.92,4.69,4.69,0,0,1,3.91.56,4.37,4.37,0,0,1,1.38,1.49,5.55,5.55,0,0,1,.59,1.88A15.46,15.46,0,0,1,557.72,964.14Z"/><ellipse class="cls-1" cx="632.67" cy="968.32" rx="5.2" ry="4.55" transform="translate(-408.42 1472.36) rotate(-82.67)"/><path d="M637,968.88a2.82,2.82,0,0,0-.35-1.8,3.4,3.4,0,0,0-1.28-1.2,10.31,10.31,0,0,0-1.21-.57l-1-.49a3.85,3.85,0,0,0-1.33-.42,2.2,2.2,0,0,0-1.53.42,3,3,0,0,0-1,3.06,6.07,6.07,0,0,0,1.26,2.56,3.18,3.18,0,0,0,1.77.92,4.17,4.17,0,0,0,1,.1,5.75,5.75,0,0,0,1.33-.13,3.23,3.23,0,0,0,1.54-.82A2.85,2.85,0,0,0,637,968.88Zm.4,0c-.08.65-.14,1.32-.25,2a7,7,0,0,1-.69,2.29,4.34,4.34,0,0,1-1.92,1.87,5.38,5.38,0,0,1-5.46-.56,6,6,0,0,1-1.78-2.13,5.69,5.69,0,0,1-.21-4.84,13,13,0,0,1,2.29-3.72,8.68,8.68,0,0,1,1.71-1.57,4.59,4.59,0,0,1,2.47-.8,4.09,4.09,0,0,1,2.55.84,3.94,3.94,0,0,1,1.43,2.18,6.57,6.57,0,0,1,.1,2.36Z"/><circle class="cls-1" cx="457.09" cy="966.87" r="5.2"/><path d="M462.09,966.87a2.65,2.65,0,0,0-.65-1.81,3.33,3.33,0,0,0-1.55-1c-1.12-.33-1.84-.45-2.8-.74a5.87,5.87,0,0,0-1.58-.26,2.67,2.67,0,0,0-1.66.55,2.83,2.83,0,0,0-1,1.49,3.15,3.15,0,0,0,.09,1.75,5.19,5.19,0,0,0,1.74,2.36,4.69,4.69,0,0,0,2.36.7,5.5,5.5,0,0,0,1.28,0,8.57,8.57,0,0,0,1.48-.26,3.45,3.45,0,0,0,1.56-1A2.81,2.81,0,0,0,462.09,966.87Zm.4,0a18.49,18.49,0,0,1-.08,2.2,6.8,6.8,0,0,1-.68,2.44,4.83,4.83,0,0,1-1.91,2,6.21,6.21,0,0,1-2.73.73,6.39,6.39,0,0,1-5-2.31,5.56,5.56,0,0,1-1.26-5,11,11,0,0,1,3.88-5.84,5.43,5.43,0,0,1,2.41-1,4.62,4.62,0,0,1,2.66.41,4.31,4.31,0,0,1,1.94,1.86,6.38,6.38,0,0,1,.69,2.41C462.46,965.46,462.48,966.16,462.49,966.87Z"/><circle class="cls-1" cx="547.52" cy="971.56" r="4.55"/><path d="M551.79,972.34a2.23,2.23,0,0,0-.3-1.65,2.86,2.86,0,0,0-1.24-1,14.37,14.37,0,0,1-2.21-.95,5.55,5.55,0,0,0-1.28-.55,2.14,2.14,0,0,0-1.49.13,2.27,2.27,0,0,0-1,1.12,2.61,2.61,0,0,0-.13,1.51,4.38,4.38,0,0,0,1.17,2.16,4.29,4.29,0,0,0,1.79.84,7,7,0,0,0,1,.2,8.3,8.3,0,0,0,1.26.12,2.77,2.77,0,0,0,1.52-.49A2.3,2.3,0,0,0,551.79,972.34Zm.4.08c-.11.61-.21,1.23-.38,1.91a5.8,5.8,0,0,1-.93,2.1,4.2,4.2,0,0,1-2,1.5,5.63,5.63,0,0,1-2.54.2,5.76,5.76,0,0,1-4.14-2.89,5.16,5.16,0,0,1-.7-2.41,5.27,5.27,0,0,1,.49-2.3,9.87,9.87,0,0,1,2.58-3.29,9.68,9.68,0,0,1,1.8-1.24,5,5,0,0,1,2.3-.56,4.12,4.12,0,0,1,2.3.77,3.8,3.8,0,0,1,1.41,2,5.77,5.77,0,0,1,.13,2.28C552.4,971.19,552.28,971.8,552.19,972.42Z"/><ellipse class="cls-1" cx="313.16" cy="970.75" rx="4.55" ry="5.2" transform="translate(-672.88 1231.81) rotate(-86.95)"/><path d="M318.16,971a2.22,2.22,0,0,0-.6-1.67,3,3,0,0,0-1.51-.8,18.47,18.47,0,0,1-2.73-.68,8.55,8.55,0,0,0-1.53-.4,2.66,2.66,0,0,0-1.64.27,2.36,2.36,0,0,0-1.06,1.23,2.39,2.39,0,0,0,0,1.56,3.42,3.42,0,0,0,.72,1.2,4.14,4.14,0,0,0,.91.77,6,6,0,0,0,2.34.66,9.38,9.38,0,0,0,1.29.07,14.36,14.36,0,0,0,1.45,0,2.89,2.89,0,0,0,1.59-.61A2.27,2.27,0,0,0,318.16,971Zm.4,0a11.16,11.16,0,0,1-.26,2.08,6.09,6.09,0,0,1-1,2.24,4.81,4.81,0,0,1-2,1.61,6.43,6.43,0,0,1-2.52.46,6.63,6.63,0,0,1-4.67-2.13,5.33,5.33,0,0,1-1.32-2.32,4.82,4.82,0,0,1,.06-2.56,7.88,7.88,0,0,1,2.51-3.72,7.69,7.69,0,0,1,4.1-2.16,4.41,4.41,0,0,1,4.28,2.12,5.76,5.76,0,0,1,.72,2.29A13.6,13.6,0,0,1,318.56,971Z"/><ellipse class="cls-1" cx="420.42" cy="978.01" rx="5.2" ry="4.55" transform="translate(-607.12 1256.22) rotate(-81.89)"/><path d="M424.73,978.62a2.76,2.76,0,0,0-.33-1.8,3.39,3.39,0,0,0-1.25-1.22c-.46-.27-.87-.42-1.2-.58l-1-.51a4,4,0,0,0-1.32-.45,2.27,2.27,0,0,0-1.54.39,3,3,0,0,0-1.06,3,6.31,6.31,0,0,0,1.2,2.59A3.28,3.28,0,0,0,420,981a2.93,2.93,0,0,0,.93.11,6.26,6.26,0,0,0,1.37-.14,3.63,3.63,0,0,0,1.58-.79A2.75,2.75,0,0,0,424.73,978.62Zm.4.06c-.09.66-.19,1.32-.33,2a7.55,7.55,0,0,1-.74,2.24,4.37,4.37,0,0,1-1.89,1.84,5.19,5.19,0,0,1-2.85.46,5.38,5.38,0,0,1-2.64-1.1A6,6,0,0,1,415,982a5.69,5.69,0,0,1-.12-4.83,13,13,0,0,1,2.36-3.67,8.78,8.78,0,0,1,1.74-1.54,4.66,4.66,0,0,1,2.47-.75,4.16,4.16,0,0,1,2.54.88,4,4,0,0,1,1.39,2.2,6.75,6.75,0,0,1,.06,2.36Z"/><path class="cls-1" d="M302.76,980.27a5.2,5.2,0,1,0-5.59,4.78A5.59,5.59,0,0,0,302.76,980.27Z"/><path d="M302.56,980.26a2.94,2.94,0,0,0-.26-1.44,3,3,0,0,0-.94-1.08,8.48,8.48,0,0,0-2.21-.93c-.64-.21-1.25-.47-2-.72a3,3,0,0,0-2.52.29,2.79,2.79,0,0,0-1.19,2.3,4.27,4.27,0,0,0,.76,2.32,7.89,7.89,0,0,0,.64.81,3.74,3.74,0,0,0,.77.57,6.1,6.1,0,0,0,1.76.55h-.23a9.09,9.09,0,0,0,1.37-.06,12.15,12.15,0,0,0,1.58-.18,3.52,3.52,0,0,0,1.65-.77A2.5,2.5,0,0,0,302.56,980.26Zm.4,0a13,13,0,0,1-.33,2.14,7.4,7.4,0,0,1-.94,2.28,5.21,5.21,0,0,1-1.9,1.77,6.69,6.69,0,0,1-2.55.7H297a6.22,6.22,0,0,1-3.9-1.61,6.31,6.31,0,0,1-2-3.59,6.25,6.25,0,0,1,.66-3.74,10.91,10.91,0,0,1,2-2.82,8.37,8.37,0,0,1,3-2.1,4.68,4.68,0,0,1,3.93.32A4.61,4.61,0,0,1,302.2,975a5.33,5.33,0,0,1,.7,1.84A16.43,16.43,0,0,1,303,980.29Z"/><path class="cls-1" d="M321,982.18c.17-2.6-2-4.69-4.9-4.88s-5.31,1.6-5.48,4.2,2,4.68,4.89,4.88A4.64,4.64,0,0,0,321,982.18Z"/><path d="M320.81,982.16a2.28,2.28,0,0,0-1.29-2.21,9.49,9.49,0,0,0-2.19-.59c-.65-.16-1.29-.38-2.05-.63a3.18,3.18,0,0,0-2.44.06,2.34,2.34,0,0,0-1.24,2,3,3,0,0,0,.81,2,3.65,3.65,0,0,0,1.44,1.06,8.54,8.54,0,0,0,1.81.41l.23,0a5.93,5.93,0,0,0,1.12.16,7,7,0,0,0,1.38,0,3,3,0,0,0,1.6-.66A2.43,2.43,0,0,0,320.81,982.16Zm.4,0a13.43,13.43,0,0,1-.27,2.1,6,6,0,0,1-.92,2.28,4.42,4.42,0,0,1-2.12,1.65,5.76,5.76,0,0,1-2.76.26l.24,0a6.52,6.52,0,0,1-3.64-1.29,5.87,5.87,0,0,1-2.28-3.24,5,5,0,0,1-.06-2,7.27,7.27,0,0,1,.59-1.72,10.39,10.39,0,0,1,5-4.42,4.67,4.67,0,0,1,3.61.18A4.47,4.47,0,0,1,321,979,10.64,10.64,0,0,1,321.21,982.19Z"/><path class="cls-1" d="M314.08,1001.13c-.07-2.6-2.39-4.49-5.32-4.42s-5.15,2.08-5.08,4.68,2.39,4.49,5.32,4.42S314.14,1003.73,314.08,1001.13Z"/><path d="M313.88,1001.13a2.21,2.21,0,0,0-.73-1.62,3.06,3.06,0,0,0-1.56-.68,18.14,18.14,0,0,1-2.78-.45,8.16,8.16,0,0,0-1.56-.28,2.61,2.61,0,0,0-1.61.4,2.38,2.38,0,0,0-1,1.3,2.44,2.44,0,0,0,.11,1.56,3.31,3.31,0,0,0,.8,1.14,4.58,4.58,0,0,0,1,.7,6.07,6.07,0,0,0,2.39.47,11.06,11.06,0,0,0,1.29,0,13.65,13.65,0,0,0,1.44-.14,2.83,2.83,0,0,0,1.54-.73A2.26,2.26,0,0,0,313.88,1001.13Zm.4,0a11.66,11.66,0,0,1-.09,2.1,6.16,6.16,0,0,1-.78,2.3,4.71,4.71,0,0,1-1.88,1.77,6.49,6.49,0,0,1-7.3-1.1,5.34,5.34,0,0,1-1.5-2.21,4.78,4.78,0,0,1-.14-2.56,9.38,9.38,0,0,1,6.13-6.38,4.42,4.42,0,0,1,4.43,1.77,5.86,5.86,0,0,1,.9,2.23A13.09,13.09,0,0,1,314.28,1001.12Z"/><circle class="cls-1" cx="348.59" cy="1002" r="4.55"/><path d="M352.9,1002.6a2.26,2.26,0,0,0-.37-1.64,2.81,2.81,0,0,0-1.29-1,14.53,14.53,0,0,1-2.25-.85,6.4,6.4,0,0,0-1.3-.5,2.13,2.13,0,0,0-1.48.21,2.22,2.22,0,0,0-1,1.16,2.6,2.6,0,0,0-.07,1.51,3.56,3.56,0,0,0,3.1,2.87,5.94,5.94,0,0,0,1,.14,7.94,7.94,0,0,0,1.27.07,2.75,2.75,0,0,0,1.5-.56A2.31,2.31,0,0,0,352.9,1002.6Zm.4,0c-.08.62-.15,1.24-.29,1.93a6,6,0,0,1-.83,2.14,4.26,4.26,0,0,1-2,1.59,5.65,5.65,0,0,1-2.54.32,5.77,5.77,0,0,1-4.25-2.71,5.11,5.11,0,0,1-.82-2.37,5.17,5.17,0,0,1,.39-2.31,9.71,9.71,0,0,1,2.43-3.41,9.24,9.24,0,0,1,1.74-1.32,5,5,0,0,1,2.27-.67,4.13,4.13,0,0,1,2.34.67,3.81,3.81,0,0,1,1.49,1.94,5.67,5.67,0,0,1,.24,2.27C353.46,1001.42,353.37,1002,353.3,1002.65Z"/><path class="cls-1" d="M320.58,1006.94a5.2,5.2,0,1,0-5,5.36C318.46,1011.88,320.66,1009.54,320.58,1006.94Z"/><path d="M320.38,1006.94a3,3,0,0,0-.42-1.4,3,3,0,0,0-1-1,8.75,8.75,0,0,0-2.3-.68c-.65-.13-1.29-.33-2.11-.48a3,3,0,0,0-2.47.56,2.8,2.8,0,0,0-.93,2.41,4.21,4.21,0,0,0,1,2.22,8.46,8.46,0,0,0,.72.74,3.65,3.65,0,0,0,.83.48,5.82,5.82,0,0,0,1.81.35l-.24,0a8.15,8.15,0,0,0,1.36-.21,10.63,10.63,0,0,0,1.55-.36,3.39,3.39,0,0,0,1.56-.94A2.53,2.53,0,0,0,320.38,1006.94Zm.4,0a12.36,12.36,0,0,1-.09,2.17,7.6,7.6,0,0,1-.68,2.36,5.21,5.21,0,0,1-1.7,2,6.83,6.83,0,0,1-2.46,1h-.23a6.24,6.24,0,0,1-4.06-1.18,6.36,6.36,0,0,1-2.42-3.34,6.29,6.29,0,0,1,.25-3.79,11,11,0,0,1,1.71-3,8.51,8.51,0,0,1,2.79-2.42,4.67,4.67,0,0,1,3.94-.11,4.5,4.5,0,0,1,1.62,1.24,5.47,5.47,0,0,1,.89,1.75A15.93,15.93,0,0,1,320.78,1006.93Z"/><circle class="cls-1" cx="444.07" cy="1012.98" r="5.2"/><path d="M449,1012.39a2.71,2.71,0,0,0-.86-1.72,3.45,3.45,0,0,0-1.66-.79c-1.14-.19-1.88-.23-2.86-.4a5.63,5.63,0,0,0-1.61-.08,2.65,2.65,0,0,0-2.34,2.34,3.18,3.18,0,0,0,.29,1.73,5.37,5.37,0,0,0,2,2.14,4.79,4.79,0,0,0,2.43.42,6,6,0,0,0,1.26-.2,7.93,7.93,0,0,0,1.44-.44,3.3,3.3,0,0,0,1.44-1.13A2.85,2.85,0,0,0,449,1012.39Zm.4,0a18.65,18.65,0,0,1,.18,2.2,6.62,6.62,0,0,1-.39,2.5,4.77,4.77,0,0,1-1.67,2.19,6.19,6.19,0,0,1-2.61,1,6.42,6.42,0,0,1-5.27-1.69,5.73,5.73,0,0,1-1.55-2.27,5.51,5.51,0,0,1-.3-2.58,10.92,10.92,0,0,1,3.16-6.26,5.53,5.53,0,0,1,2.28-1.31,4.66,4.66,0,0,1,2.69.09,4.39,4.39,0,0,1,2.14,1.62,6.61,6.61,0,0,1,1,2.32C449.23,1010.94,449.33,1011.64,449.43,1012.34Z"/><ellipse class="cls-1" cx="333.89" cy="1020.09" rx="4.55" ry="5.2" transform="translate(-57.66 20.71) rotate(-3.27)"/><path d="M338.24,1019.84a2.81,2.81,0,0,0-.68-1.7,3.45,3.45,0,0,0-1.47-.95,11.82,11.82,0,0,0-1.3-.33l-1.1-.3a4,4,0,0,0-1.38-.16,2.2,2.2,0,0,0-1.44.69,3,3,0,0,0-.43,3.2,6.31,6.31,0,0,0,1.71,2.29,3.28,3.28,0,0,0,1.92.57,3.8,3.8,0,0,0,1-.09,5.65,5.65,0,0,0,1.29-.37,3.29,3.29,0,0,0,1.37-1.09A3,3,0,0,0,338.24,1019.84Zm.4,0c0,.66.1,1.32.13,2.06a6.9,6.9,0,0,1-.26,2.37,4.32,4.32,0,0,1-1.54,2.19,5.34,5.34,0,0,1-5.47.45,6.07,6.07,0,0,1-2.14-1.76,5.72,5.72,0,0,1-1.1-4.72,13,13,0,0,1,1.57-4.08,8.66,8.66,0,0,1,1.39-1.86,4.64,4.64,0,0,1,2.28-1.24,4.1,4.1,0,0,1,2.66.36,3.92,3.92,0,0,1,1.81,1.88,6.65,6.65,0,0,1,.53,2.3Z"/><ellipse class="cls-1" cx="338.46" cy="1023.37" rx="4.55" ry="5.2" transform="translate(-12.09 4.08) rotate(-0.68)"/><path d="M342.81,1023.31a2.75,2.75,0,0,0-.6-1.72,3.36,3.36,0,0,0-1.42-1c-.5-.2-.93-.29-1.29-.4l-1.08-.34a4.15,4.15,0,0,0-1.38-.23,2.25,2.25,0,0,0-1.46.63,3,3,0,0,0-.57,3.18,6.14,6.14,0,0,0,1.6,2.36,3.21,3.21,0,0,0,1.89.66,3.87,3.87,0,0,0,1,0,5.32,5.32,0,0,0,1.3-.31,3.22,3.22,0,0,0,1.41-1A2.86,2.86,0,0,0,342.81,1023.31Zm.4,0c0,.66.05,1.33,0,2.06a7,7,0,0,1-.36,2.36,4.43,4.43,0,0,1-1.64,2.12,5.4,5.4,0,0,1-5.49.2,6,6,0,0,1-2.05-1.86,5.68,5.68,0,0,1-.89-4.76,13,13,0,0,1,1.75-4,8.42,8.42,0,0,1,1.48-1.8,4.6,4.6,0,0,1,2.33-1.13,4.07,4.07,0,0,1,2.64.47,3.93,3.93,0,0,1,1.72,2,6.45,6.45,0,0,1,.43,2.33Z"/><circle class="cls-1" cx="320.54" cy="1025.91" r="4.55"/><path d="M324.86,1025.42a2.22,2.22,0,0,0-.77-1.5,2.85,2.85,0,0,0-1.48-.61,15.34,15.34,0,0,1-2.4-.26,5.79,5.79,0,0,0-1.37-.16,2.18,2.18,0,0,0-1.39.56,2.24,2.24,0,0,0-.65,1.37,2.59,2.59,0,0,0,.31,1.48,4.41,4.41,0,0,0,1.75,1.73,4.33,4.33,0,0,0,2,.28,7.34,7.34,0,0,0,1-.11,8.39,8.39,0,0,0,1.24-.26,2.66,2.66,0,0,0,1.32-.91A2.3,2.3,0,0,0,324.86,1025.42Zm.4-.05c.08.62.17,1.24.2,1.94a6,6,0,0,1-.28,2.29,4.2,4.2,0,0,1-1.5,2,5.63,5.63,0,0,1-2.38.93,5.74,5.74,0,0,1-4.79-1.56,5,5,0,0,1-1.38-2.1,5.24,5.24,0,0,1-.2-2.34,9.91,9.91,0,0,1,1.51-3.9,9.62,9.62,0,0,1,1.36-1.71,4.94,4.94,0,0,1,2-1.21,4.2,4.2,0,0,1,2.43.07,3.78,3.78,0,0,1,1.93,1.51,5.74,5.74,0,0,1,.8,2.14C325.11,1024.13,325.18,1024.75,325.26,1025.37Z"/><path class="cls-1" d="M383,1026.38c.18-2.59-1.95-4.7-4.87-4.9s-5.32,1.57-5.51,4.17,1.95,4.7,4.87,4.9A4.63,4.63,0,0,0,383,1026.38Z"/><path d="M382.81,1026.37a2.32,2.32,0,0,0-.3-1.32,2.39,2.39,0,0,0-1-.9,9.26,9.26,0,0,0-2.2-.6c-.64-.16-1.28-.39-2-.65a3.18,3.18,0,0,0-2.44.06,2.32,2.32,0,0,0-1.25,2,3,3,0,0,0,.8,2,3.9,3.9,0,0,0,1.43,1.06,8.23,8.23,0,0,0,1.81.42l.24,0a6,6,0,0,0,1.11.17,7.9,7.9,0,0,0,1.38,0,3,3,0,0,0,1.6-.65A2.35,2.35,0,0,0,382.81,1026.37Zm.4,0a13.55,13.55,0,0,1-.27,2.11,6.2,6.2,0,0,1-.94,2.27,4.43,4.43,0,0,1-2.13,1.64,5.85,5.85,0,0,1-2.75.25l.23,0a6.47,6.47,0,0,1-3.63-1.32,5.75,5.75,0,0,1-2.26-3.24,5,5,0,0,1,0-2,6.73,6.73,0,0,1,.6-1.72,8.73,8.73,0,0,1,2.11-2.57,9.28,9.28,0,0,1,2.94-1.83,4.7,4.7,0,0,1,3.62.2,4.53,4.53,0,0,1,2.29,2.9A10.5,10.5,0,0,1,383.21,1026.39Z"/><path class="cls-1" d="M468.15,1030.41c-.08-2.6-2.42-4.47-5.34-4.38s-5.14,2.12-5.05,4.72,2.42,4.47,5.35,4.38A4.62,4.62,0,0,0,468.15,1030.41Z"/><path d="M468,1030.42a2.31,2.31,0,0,0-.43-1.28,2.38,2.38,0,0,0-1.06-.8,9.73,9.73,0,0,0-2.24-.37c-.66-.1-1.32-.25-2.11-.43a3.19,3.19,0,0,0-2.41.3,2.34,2.34,0,0,0-1,2.11,2.91,2.91,0,0,0,1,1.9,3.81,3.81,0,0,0,1.53.91,8.52,8.52,0,0,0,1.85.23h.23a5.32,5.32,0,0,0,1.13,0,6.53,6.53,0,0,0,1.37-.13,3,3,0,0,0,1.53-.81A2.36,2.36,0,0,0,468,1030.42Zm.4,0a12.68,12.68,0,0,1-.05,2.12,6.16,6.16,0,0,1-.69,2.36,4.48,4.48,0,0,1-1.95,1.85,5.83,5.83,0,0,1-2.72.53h.24a6.53,6.53,0,0,1-3.75-.94,5.84,5.84,0,0,1-2.59-3,5,5,0,0,1-.24-1.94,6.73,6.73,0,0,1,.41-1.77,8.77,8.77,0,0,1,1.84-2.77,9,9,0,0,1,2.74-2.12,4.66,4.66,0,0,1,3.61-.17,4.48,4.48,0,0,1,2.58,2.64A10.16,10.16,0,0,1,468.35,1030.4Z"/><ellipse class="cls-1" cx="325.44" cy="1042.51" rx="5.2" ry="4.55" transform="translate(-74.17 26.12) rotate(-4.13)"/><path d="M330.42,1042.15a2.18,2.18,0,0,0-.8-1.58A3,3,0,0,0,328,1040a17.6,17.6,0,0,1-2.8-.33,8.41,8.41,0,0,0-1.57-.2,2.65,2.65,0,0,0-1.59.47,2.4,2.4,0,0,0-.9,1.35,2.35,2.35,0,0,0,.17,1.55,3.37,3.37,0,0,0,.86,1.1,4.94,4.94,0,0,0,1,.66,6.13,6.13,0,0,0,2.41.36,9.34,9.34,0,0,0,1.29-.1,12.2,12.2,0,0,0,1.43-.2,2.94,2.94,0,0,0,1.5-.8A2.26,2.26,0,0,0,330.42,1042.15Zm.4,0a11.29,11.29,0,0,1,0,2.1,6.15,6.15,0,0,1-.67,2.34,4.84,4.84,0,0,1-1.8,1.85,6.46,6.46,0,0,1-7.34-.76,5.3,5.3,0,0,1-1.6-2.14,4.79,4.79,0,0,1-.26-2.55,7.84,7.84,0,0,1,2-4,7.64,7.64,0,0,1,3.8-2.65,4.38,4.38,0,0,1,4.5,1.56,5.78,5.78,0,0,1,1,2.19A13.08,13.08,0,0,1,330.82,1042.12Z"/><ellipse class="cls-1" cx="353.44" cy="1071.17" rx="4.55" ry="5.2" transform="translate(-1.5 0.5) rotate(-0.08)"/><path d="M357.79,1071.17a2.8,2.8,0,0,0-.58-1.74,3.41,3.41,0,0,0-1.42-1c-.49-.21-.92-.29-1.27-.41l-1.08-.35a3.91,3.91,0,0,0-1.38-.24,2.22,2.22,0,0,0-1.47.61,3,3,0,0,0-.61,3.17,6.32,6.32,0,0,0,1.58,2.38,3.29,3.29,0,0,0,1.88.68,3.84,3.84,0,0,0,1,0,5.72,5.72,0,0,0,1.31-.29,3.3,3.3,0,0,0,1.42-1A2.88,2.88,0,0,0,357.79,1071.17Zm.4,0c0,.66,0,1.32,0,2.06a7,7,0,0,1-.39,2.35,4.28,4.28,0,0,1-1.66,2.1,5.37,5.37,0,0,1-5.49.15,5.93,5.93,0,0,1-2-1.88,5.73,5.73,0,0,1-.85-4.77,13.23,13.23,0,0,1,1.8-4,8.75,8.75,0,0,1,1.5-1.79,4.55,4.55,0,0,1,2.34-1.1,4.08,4.08,0,0,1,2.64.5,3.94,3.94,0,0,1,1.7,2,6.57,6.57,0,0,1,.4,2.33Z"/><path class="cls-1" d="M396.52,1086.37a5.2,5.2,0,1,0-4.48,5.84C394.9,1091.5,396.86,1089,396.52,1086.37Z"/><path d="M396.32,1086.4a2.84,2.84,0,0,0-.56-1.35,2.93,2.93,0,0,0-1.14-.87,8.64,8.64,0,0,0-2.35-.45c-.67-.06-1.32-.2-2.15-.27a3,3,0,0,0-2.4.8,2.81,2.81,0,0,0-.69,2.5,4.33,4.33,0,0,0,1.23,2.11,8,8,0,0,0,.8.66,3.79,3.79,0,0,0,.87.4,6.25,6.25,0,0,0,1.83.17l-.23,0a9.75,9.75,0,0,0,1.34-.34,14.26,14.26,0,0,0,1.5-.52,3.49,3.49,0,0,0,1.46-1.09A2.54,2.54,0,0,0,396.32,1086.4Zm.39-.06a12.66,12.66,0,0,1,.13,2.17,7.56,7.56,0,0,1-.44,2.42,5.28,5.28,0,0,1-1.5,2.13,6.61,6.61,0,0,1-2.34,1.21l-.07,0-.17,0a6.24,6.24,0,0,1-4.15-.77,6.37,6.37,0,0,1-2.73-3.08,6.2,6.2,0,0,1-.13-3.8,11.15,11.15,0,0,1,1.39-3.19,8.36,8.36,0,0,1,2.54-2.68,4.66,4.66,0,0,1,3.91-.5,4.36,4.36,0,0,1,1.73,1.07A5.41,5.41,0,0,1,396,1083,15.58,15.58,0,0,1,396.71,1086.34Z"/><path class="cls-1" d="M519.79,1116.6c-.06-2.92-2-5.16-4.65-5.11s-4.5,2.36-4.45,5.29,2.05,5.16,4.65,5.11A5.26,5.26,0,0,0,519.79,1116.6Z"/><path d="M519.59,1116.61a2.81,2.81,0,0,0-1.3-2.34,6.59,6.59,0,0,0-2-.78c-.53-.14-1-.35-1.73-.51a2.4,2.4,0,0,0-2.2.59,2.79,2.79,0,0,0-.72,2.36,5,5,0,0,0,.95,2.2,3.62,3.62,0,0,0,1.33,1.27,4,4,0,0,0,1.41.36l-.27,0a6.84,6.84,0,0,0,1.14-.17,8.45,8.45,0,0,0,1.38-.37,3.39,3.39,0,0,0,1.44-1A2.69,2.69,0,0,0,519.59,1116.61Zm.4,0c0,.65,0,1.31,0,2a7.11,7.11,0,0,1-.43,2.29,4.74,4.74,0,0,1-1.49,2,6,6,0,0,1-2.42,1h-.26a5.75,5.75,0,0,1-2.13-.32,5.6,5.6,0,0,1-1.83-1.12,6.08,6.08,0,0,1-1.93-3.39,6.88,6.88,0,0,1,.4-3.49,14.13,14.13,0,0,1,1.43-2.92,7,7,0,0,1,2.53-2.53,4.55,4.55,0,0,1,1.93-.48,4.06,4.06,0,0,1,4.05,3.64A31,31,0,0,1,520,1116.6Z"/><path class="cls-1" d="M526.25,1130.86a5.2,5.2,0,1,0-4.76,5.6A5.14,5.14,0,0,0,526.25,1130.86Z"/><path d="M526.05,1130.87a2.82,2.82,0,0,0-.8-1.75,3.48,3.48,0,0,0-1.63-.85c-1.14-.23-1.87-.3-2.84-.51a5.94,5.94,0,0,0-1.61-.13,2.68,2.68,0,0,0-1.6.68,2.8,2.8,0,0,0-.83,1.57,3.23,3.23,0,0,0,.23,1.74,5.26,5.26,0,0,0,1.93,2.21,4.74,4.74,0,0,0,2.41.5,6.1,6.1,0,0,0,1.27-.14,8.93,8.93,0,0,0,1.46-.39,3.24,3.24,0,0,0,1.47-1.08A2.82,2.82,0,0,0,526.05,1130.87Zm.39,0a17.29,17.29,0,0,1,.1,2.2,6.61,6.61,0,0,1-.48,2.48,4.8,4.8,0,0,1-1.74,2.13,6.25,6.25,0,0,1-2.66.94,6.37,6.37,0,0,1-5.2-1.88,5.77,5.77,0,0,1-1.47-2.33,5.61,5.61,0,0,1-.2-2.59,10,10,0,0,1,1.8-4.31,9.57,9.57,0,0,1,1.59-1.82,5.41,5.41,0,0,1,2.32-1.22,4.6,4.6,0,0,1,2.69.19,4.34,4.34,0,0,1,2.08,1.69,6.39,6.39,0,0,1,.88,2.35C526.3,1129.43,526.37,1130.14,526.44,1130.84Z"/><circle class="cls-1" cx="375.54" cy="1281.58" r="5.2"/><path d="M380.54,1281.5a2.71,2.71,0,0,0-.69-1.8,3.45,3.45,0,0,0-1.56-1c-1.12-.3-1.85-.42-2.81-.69a6,6,0,0,0-1.59-.24,2.69,2.69,0,0,0-1.64.58,2.79,2.79,0,0,0-.93,1.51,3.12,3.12,0,0,0,.11,1.74,5.32,5.32,0,0,0,1.78,2.34,4.59,4.59,0,0,0,2.37.66,6.14,6.14,0,0,0,1.28-.06,8.91,8.91,0,0,0,1.48-.29,3.3,3.3,0,0,0,1.54-1A2.82,2.82,0,0,0,380.54,1281.5Zm.4,0a20.78,20.78,0,0,1-.05,2.21,6.71,6.71,0,0,1-.64,2.44,4.75,4.75,0,0,1-1.89,2,6.27,6.27,0,0,1-2.71.77,6.39,6.39,0,0,1-5.07-2.23,5.82,5.82,0,0,1-1.31-2.41,5.72,5.72,0,0,1,0-2.6,10,10,0,0,1,2.08-4.19,10.24,10.24,0,0,1,1.71-1.71,5.51,5.51,0,0,1,2.4-1.07,4.66,4.66,0,0,1,2.67.37,4.3,4.3,0,0,1,2,1.83,6.56,6.56,0,0,1,.73,2.4C380.88,1280.08,380.91,1280.79,380.94,1281.49Z"/></g></svg>