<svg id="mussels" xmlns="http://www.w3.org/2000/svg" viewBox="0 0 1920 483">
  <g>
    <g id="bottom_rt_big">
      <path d="M537.76,378.39c1.68-7.66,5.53-14.36,10.5-20.34a63,63,0,0,1,18.55-15.41c8-4.21,16.83-5.13,25.66-5.9a227.18,227.18,0,0,1,28.09-1.11c17.34.62,34.31,3.91,51.24,7.45,6.54,1.37,13.06,2.79,19.51,4.53a99.68,99.68,0,0,1,18.54,6.57,27.71,27.71,0,0,1,7.09,4.73,16.12,16.12,0,0,1,4.43,8.16c1.44,6.7-.27,13.81-1.61,20.39a40.58,40.58,0,0,1-3.36,10.82,36.71,36.71,0,0,1-7,9.35c-1.4,1.37-2.94,2.58-4.26,4a48.18,48.18,0,0,0-3.1,3.87,17.38,17.38,0,0,1-7.07,6.15,167.82,167.82,0,0,1-25.54,8.23,234.16,234.16,0,0,1-26.29,5q-6.7.88-13.46,1.41a108.71,108.71,0,0,1-12,.65c-6.32-.18-12.64-1.69-18.82-2.92a81.66,81.66,0,0,0-8.89-1.5c-3.37-.29-6.78-.11-10.14-.52-7-.83-12.66-5.71-17.72-10.2A135.88,135.88,0,0,1,547,405.91c-4.74-5.85-8.3-12.48-9.1-20.06a25.78,25.78,0,0,1,1.18-11c.52-1.54-2.49-3.07-3-1.59-2.6,7.6-1.6,15.77,1.62,23,3,6.83,8.14,12.58,13.2,18A104.5,104.5,0,0,0,568,429.55a28.31,28.31,0,0,0,10,4.67c3.44.73,6.95.62,10.45.79,6.68.31,13.25,2.16,19.82,3.31a76.2,76.2,0,0,0,9.5,1.23,100.07,100.07,0,0,0,12.11-.55,236.27,236.27,0,0,0,54.69-10.39,108.83,108.83,0,0,0,13-4.74,19.41,19.41,0,0,0,7.29-6.5,40.91,40.91,0,0,1,3.28-4c1.4-1.47,3-2.73,4.43-4.18a38.25,38.25,0,0,0,7-9.65A44.29,44.29,0,0,0,723,388.23a109.48,109.48,0,0,0,1.87-11.08c.67-6.72-.2-13.68-5-18.81-4.4-4.72-10.73-7.4-16.67-9.58a175.41,175.41,0,0,0-20.76-5.9c-16-3.68-32.11-7.11-48.41-8.85a187.25,187.25,0,0,0-29-.91c-4.88.24-9.75.64-14.61,1.07A113.16,113.16,0,0,0,576.58,336c-8.77,1.9-16.37,6.25-23.12,12.08-6.1,5.26-11.26,11.42-14.49,18.84a33.43,33.43,0,0,0-2.77,11c-.05.73,1.38,1.33,1.56.48Z"/>
      <path d="M583,338.33a4.58,4.58,0,0,1,3.4,5.6c-.56,2.66-2.8,4.16-5.19,5.07a40.19,40.19,0,0,1-7.68,2.15,19.22,19.22,0,0,1-4.15.25c-1.37-.08-2.65-.47-4-.65a.45.45,0,0,0-.27.85c2.73,1.81,6.66,1.52,9.73.94a30.18,30.18,0,0,0,9.45-3.15,7.07,7.07,0,0,0,3.72-7.06,6.32,6.32,0,0,0-5.27-5.19c-1-.17-.48,1.07.25,1.19Z"/>
      <path d="M610.47,335.92c3.55,1.41,7.25,3.17,9.52,6.39a14.4,14.4,0,0,1,2.14,10.31c-1.11,7.39-7.2,12.89-13.83,15.63-4.47,1.85-9.19,2.39-13.9,3.24-.73.14-.17,1,.35,1,8.51.15,18-2.65,24-9,5.27-5.61,7.26-14.31,2.82-21.05-2.54-3.86-6.79-5.92-11-7.52-.86-.33-.82.73-.12,1Z"/>
      <path d="M604.16,335.77c3.85,2.37,8,4.93,10,9.14s.69,8.91-2,12.63a27,27,0,0,1-9.68,7.93c-4.26,2.2-8.88,3.41-13.3,5.22-.57.24.16.94.57.86,7.51-1.48,15.56-4.34,21.19-9.72a19.29,19.29,0,0,0,5.55-8.9,12.09,12.09,0,0,0-2.14-10.11c-2.47-3.47-6.2-5.73-9.79-7.9-.72-.43-1.15.41-.45.85Z"/>
      <path d="M625.71,336.78c6,2.27,9.66,8.13,10.5,14.32.89,6.59-.78,13.6-5.78,18.18-4.72,4.33-11,7.09-17.09,8.82a62.24,62.24,0,0,1-19.82,2.19,102,102,0,0,1-23.79-4.43c-1-.3-1,.87-.14,1.15,14,4.86,29.63,6.7,44,2.71,6.56-1.81,13.43-4.85,18.39-9.65s6.5-11.73,5.62-18.41c-.91-6.93-5.13-13.3-11.83-15.77-.76-.28-.73.65-.11.89Z"/>
      <path d="M642.76,336.6c7.35,5.91,15,12.11,19.1,20.87a25.33,25.33,0,0,1,2.27,13.93c-.58,4.7-1.94,9.39-4.87,13.17-5.72,7.38-15.28,10.31-24.12,11.68-10.35,1.61-21.16,2.6-31.62,1.81s-20.66-4-29.17-10.37c-.86-.64-2.06.06-1.1.95,7.2,6.61,16.92,9.79,26.45,11.1,11.09,1.51,22.42.41,33.46-1.06,9.51-1.28,19.45-3.6,26.29-10.83a24.74,24.74,0,0,0,6.12-12.35,27.92,27.92,0,0,0-.63-14.79c-3.64-10.79-12.75-18-21.43-24.75-.58-.45-1.43.08-.75.64Z"/>
      <path d="M672.77,342.3a75.88,75.88,0,0,1,27.13,19.14c3.8,4.14,7.37,8.7,9.58,13.9A16.94,16.94,0,0,1,710.9,384a19.24,19.24,0,0,1-3.41,8.11c-5.82,8.75-15.45,14.35-25.14,17.89-11.27,4.13-23.36,6.16-35.29,7.2a157,157,0,0,1-22.22.35c-7.05-.4-14.28-1.18-21.05-3.3-1.13-.36-1.47,1-.45,1.45a42.53,42.53,0,0,0,9.51,3,81.91,81.91,0,0,0,9.88,1.16,171.35,171.35,0,0,0,20.77.09,147.63,147.63,0,0,0,38.14-6.85c10.36-3.42,20.25-8.66,27.05-17.41,3.86-5,6.15-10.74,4.42-17-1.59-5.76-5.3-10.77-9.07-15.3a76.79,76.79,0,0,0-31.16-22.11c-.81-.32-.77.7-.11,1Z"/>
      <path d="M673,344.41c5,3.68,10.15,7.25,15,11.12,4.52,3.59,8.81,7.66,11.57,12.8s3.74,11,1.86,16.55a25.16,25.16,0,0,1-9.21,12.05c-5.39,3.92-11.6,5.61-17.91,7.39-.41.11.11.64.4.6,10.83-1.75,22.62-7.5,27.1-18.12,4.75-11.24-2.1-22.32-10.51-29.57-5.59-4.83-11.84-9-17.83-13.26-.41-.3-1,.08-.51.44Z"/>
      <path d="M547.73,356.23c.54,6,3.85,11.17,8.06,15.29a77.63,77.63,0,0,0,15.46,11.21,59.42,59.42,0,0,0,17.5,7.07,53.27,53.27,0,0,0,19.9.08,132.16,132.16,0,0,0,22.63-6.46c.58-.22-.2-.93-.65-.79-12.53,3.89-25.53,8.37-38.85,6.61a52.72,52.72,0,0,1-17.4-5.85A87.27,87.27,0,0,1,559.1,373.3c-5.21-4.34-9.65-10-10.38-17-.05-.47-1-.7-1-.1Z"/>
      <path d="M543.62,365.12c3.51,11.77,13,20.41,23,26.86,11.69,7.49,25.16,13,39.11,14,7.84.57,16.36-.13,23.62-3.35.54-.23-.2-.81-.58-.7a69.87,69.87,0,0,1-21,2.81,71,71,0,0,1-20-3.65,92.53,92.53,0,0,1-18.19-8.46,75.92,75.92,0,0,1-14.44-10.75,39.85,39.85,0,0,1-10.61-16.69c-.14-.43-1.15-.64-1-.09Z"/>
      <path d="M540.38,371.71a80.86,80.86,0,0,0,30.2,28.53c14.08,7.56,30.06,10.32,45.9,10.75a269.1,269.1,0,0,0,27.82-1c.59,0,0-.74-.37-.73-16,.34-32.24,1.18-48.11-1.64a81.92,81.92,0,0,1-39.1-18.25,79,79,0,0,1-15.45-17.82c-.25-.38-1.21-.42-.89.12Z"/>
      <path d="M538.53,378.49a88.27,88.27,0,0,0,66.65,45.68,78.24,78.24,0,0,0,25.32-.66c.58-.12,0-.77-.36-.72a103.77,103.77,0,0,1-22.35.54,88.76,88.76,0,0,1-21.28-4.71,86.5,86.5,0,0,1-33.83-22.17,89.86,89.86,0,0,1-13.22-18.08c-.23-.43-1.25-.47-.93.12Z"/>
      <path d="M639.44,337.71c2.84,2.35,5.77,4.76,7.78,7.9A13.23,13.23,0,0,1,649,356.35c-1.64,6.63-3.93,14.7-10.43,18.14-.47.25.18.85.55.68,7-3.28,9.58-11.91,11.13-18.92,1.84-8.36-4.39-14.19-10.37-18.9-.32-.25-.79,0-.41.36Z"/>
      <path d="M595.82,337.15a38.44,38.44,0,0,1,5.34,8.92,9.76,9.76,0,0,1,1,5.29,10.2,10.2,0,0,1-2.63,4.69,14.67,14.67,0,0,1-8.14,5c-3.15.69-6.33.44-9.52.57-.49,0-.07.6.22.63a28.69,28.69,0,0,0,10.65-.55,15.29,15.29,0,0,0,8.06-5.53,10,10,0,0,0,2.35-4.51,9.6,9.6,0,0,0-.82-4.89,37.55,37.55,0,0,0-5.89-9.89c-.28-.34-1-.19-.66.27Z"/>
      <path d="M600.77,337.05a22.59,22.59,0,0,1,6.38,7.65c1.65,3.24,2.86,7.19,1,10.61-1.51,2.82-4.33,5.1-6.89,6.94a44.09,44.09,0,0,1-9.21,4.87c-.47.2.18.74.53.64a31.68,31.68,0,0,0,9.86-5.09c2.74-2,5.93-4.64,7.17-7.94s-.08-7.26-1.7-10.33a23.52,23.52,0,0,0-6.67-7.77c-.38-.29-.94.07-.48.42Z"/>
      <path d="M590.19,338.76c1.81,2.62,3.3,5.34,2.36,8.6a11.65,11.65,0,0,1-5.5,6.58,34.61,34.61,0,0,1-8.47,3.23,33.63,33.63,0,0,1-10.46,1.28c-.49,0-.35.55,0,.64,3.55.79,7.24,0,10.69-.92a32.59,32.59,0,0,0,9.75-3.94,11.59,11.59,0,0,0,5.14-7.29c.59-3.24-1-5.93-2.83-8.48-.28-.4-1.07-.23-.71.3Z"/>
      <path d="M658.38,341.55c8.4,6.08,16.71,12.73,19.36,23.26a29.55,29.55,0,0,1-6.48,26.8,32.62,32.62,0,0,1-12.48,8.49c-.42.17.16.66.47.57,8.91-2.68,16.2-10.46,19-19.25a30.68,30.68,0,0,0-5.48-28.29c-3.88-4.78-8.9-8.45-13.87-12-.4-.29-1,.08-.5.43Z"/>
      <path d="M671.54,345A50.18,50.18,0,0,1,694,370.74c1.23,3.19,2.16,6.67,1.69,10.1a15.71,15.71,0,0,1-4.57,8.49A49.47,49.47,0,0,1,676.32,400a54.39,54.39,0,0,1-19.52,5c-.31,0,0,.4.2.39a51,51,0,0,0,34-15.05,18.79,18.79,0,0,0,4.79-7.18c1.06-3.31.57-6.86-.43-10.12a47.77,47.77,0,0,0-8.48-15.64,50.42,50.42,0,0,0-15.17-12.7c-.29-.16-.46.17-.18.33Z"/>
      <path d="M667.68,344.64a47.47,47.47,0,0,1,16.59,23.23,40.85,40.85,0,0,1,2.1,14.63c-.32,5.34-3.23,9.47-7.33,12.72-4.92,3.89-10.71,6.3-16.31,9-.26.12.09.44.3.36a75.06,75.06,0,0,0,15.27-8c4-2.87,7.55-6.69,8.46-11.69s0-10.49-1.34-15.29a47.34,47.34,0,0,0-6-13.15,44.13,44.13,0,0,0-11.51-12c-.22-.15-.53,0-.27.23Z"/>
      <path d="M537.61,380.9a2.68,2.68,0,0,0-.41-1.65c-.1-.17-.65-.35-.57,0a66.74,66.74,0,0,0,7.7,18.33c3.24,5.36,7.49,10.49,12.91,13.77.22.14.46-.11.23-.28a46.85,46.85,0,0,1-12.84-14.26c-3.26-5.58-5.27-11.52-7.43-17.57l-.5.13.4,1.37c0,.24.5.44.51.15Z"/>
      <path d="M537.34,381.27c4.19,6.78,8.43,13.57,13.55,19.7,4.89,5.87,10.77,11.48,17.79,14.71.29.13.46-.17.17-.33a63.58,63.58,0,0,1-17.61-14.93,176.91,176.91,0,0,1-13.32-19.23c-.16-.25-.8-.27-.58.08Z"/>
      <path d="M537.55,381.44a137.53,137.53,0,0,0,14.61,16.9,109.78,109.78,0,0,0,17.18,14.3c.24.16.49-.11.24-.3-2.84-2.27-5.78-4.41-8.57-6.75s-5.6-4.88-8.25-7.48A148.84,148.84,0,0,1,538,381.26c-.18-.24-.67-.13-.44.18Z"/>
      <path d="M538,375.6c8.07,12.31,17.05,24.49,29.53,32.67a48.61,48.61,0,0,0,10.6,5.41c.3.11.39-.27.12-.39A71.39,71.39,0,0,1,556.13,398c-6.71-6.8-12.3-14.6-17.59-22.53-.15-.22-.71-.16-.51.14Z"/>
      <path d="M541.5,377.64a225.17,225.17,0,0,0,18.43,17.73c6.31,5.25,13.4,10.38,21.15,13.28.32.12.4-.27.13-.41a112.76,112.76,0,0,1-10.79-5.91,106.61,106.61,0,0,1-10.16-7.52A237.8,237.8,0,0,1,542,377.42c-.23-.24-.83-.11-.51.22Z"/>
      <path d="M544.58,362.89c7.25,11,15,23.23,26.72,30,.3.18.65-.16.31-.39A73.16,73.16,0,0,1,556.85,379a195.91,195.91,0,0,1-11.74-16.28c-.2-.3-.79-.17-.53.22Z"/>
      <path d="M550,356.74a70.43,70.43,0,0,0,23.35,24c.24.15.52-.13.25-.32a77.86,77.86,0,0,1-23-23.75c-.17-.27-.83-.29-.61.08Z"/>
      <path d="M553.28,357.27a97.14,97.14,0,0,0,19.24,14c.39.21.61-.22.24-.45a116.5,116.5,0,0,1-19.08-13.87c-.3-.27-.74,0-.4.34Z"/>
      <path d="M555.42,354.49a54.89,54.89,0,0,0,18.12,8.65c.42.1.4-.37.05-.48a65.79,65.79,0,0,1-17.75-8.54c-.34-.24-.84.07-.42.37Z"/>
      <path d="M617.16,335.84a33.28,33.28,0,0,1,7.62,7.12,15.28,15.28,0,0,1,2.66,10.9c-.94,7.65-6.24,12.92-11.57,17.93-.2.19.21.46.39.32,6-4.47,11.33-11.21,11.91-18.89a15.67,15.67,0,0,0-2.55-10c-2.09-3.13-5.1-5.5-8.09-7.72-.3-.22-.73.06-.37.32Z"/>
      <path d="M624,339.3a17.56,17.56,0,0,1,6.17,11.1,18.66,18.66,0,0,1-3,12.45c-.14.22.32.45.47.25,5.66-7.45,3.65-18.27-3.37-24.05-.22-.18-.54,0-.28.25Z"/>
      <path d="M635.05,338c3,4.38,5.81,8.78,6.23,14.23s-.69,11.09-1.83,16.52c0,.2.39.4.46.19A43,43,0,0,0,641.84,352c-.51-5.43-3.35-9.85-6.39-14.22-.15-.22-.6-.12-.4.17Z"/>
      <path d="M651.55,345.18A32.8,32.8,0,0,1,655,369.25c-1.87,7.62-6.48,13.85-12.58,18.67-.23.18.23.48.43.35a31.92,31.92,0,0,0,12.79-18.83A33.12,33.12,0,0,0,652,345.13c-.12-.2-.61-.22-.45.05Z"/>
      <path d="M662.47,348.15a62.39,62.39,0,0,1,8.82,19.8c1.51,6.12,1.63,12.52-2.22,17.8-.14.19.29.44.44.29,4.45-4.6,3.89-12.13,2.49-17.85A62.55,62.55,0,0,0,662.88,348c-.15-.23-.61-.13-.41.17Z"/>
    </g>
    <g id="top_left">
      <path d="M30.9,96c1.86,2.24,2.23,5.18,3.48,7.74a14,14,0,0,0,6.48,6.13,62.66,62.66,0,0,0,8.44,3.1c3.47,1.18,7,2.31,10.49,3.26s7.11,1.76,10.69,2.48a69.38,69.38,0,0,0,9.91,1.52,29.05,29.05,0,0,0,15-3.11c9.21-4.82,15.07-14.25,18.49-23.79a32.83,32.83,0,0,0-.18-23.52c-6.07-15.17-22.4-23.76-37.29-28a75.55,75.55,0,0,0-25.21-2.67,50.27,50.27,0,0,0-22,6.19c-8.41,4.8-19.18,13-18.13,24,.53,5.52,4,10.78,7.47,14.93s7.2,7.64,10.28,11.9a69.68,69.68,0,0,1,4,6.43,2.57,2.57,0,0,0,2.23,1.31c.78,0,1.43-.5,1.29-1.35-.83-5-4.39-9.14-7.71-12.84s-6.94-7.22-9.52-11.48-4.25-8.9-2.39-13.66,5.6-8.37,9.5-11.39a46.27,46.27,0,0,1,20.87-9.28,68.23,68.23,0,0,1,22.76.32c2,.34,3.36.62,5.35,1.08s4,1,5.88,1.62a61.27,61.27,0,0,1,10.42,4.5c6,3.28,11.76,7.88,15.51,13.64a29.47,29.47,0,0,1,4.52,20c-1.16,9.25-5.07,18.56-11.8,25.13a27,27,0,0,1-12.08,7c-5.69,1.46-11.31.5-17-.59a153.6,153.6,0,0,1-20.46-5.39,77.61,77.61,0,0,1-8.14-2.84,11.38,11.38,0,0,1-6.19-6.17c-1-2.41-1.62-4.85-3.35-6.87-.73-.85-2.65-.47-1.68.7Z"/>
      <path d="M32.78,89.92a29.49,29.49,0,0,0-.7-3.61c-.26-1.31,0-2.08,1.5-2A23.5,23.5,0,0,1,40,86.11a55,55,0,0,1,6.61,3c6.63,3.56,11.39,9.67,14.9,16.21A10.87,10.87,0,0,1,63,109.49c.13,2-1.35,3-3.18,3.31-.37.07,0,.51.23.47,1.39-.21,2.87-.7,3.4-2.13a5.39,5.39,0,0,0-.33-3.66,39.21,39.21,0,0,0-6-9.84,33,33,0,0,0-9.53-8.52,49.57,49.57,0,0,0-7.17-3.32c-2.24-.87-4.8-1.94-7.24-2-3.33-.09-1.2,4.23-1,6.07,0,.3.64.44.61.06Z"/>
      <path d="M28.37,83c1.11-2.18,1.06-6.4,4.28-6.35a18.57,18.57,0,0,1,6.53,1.85,33.05,33.05,0,0,1,6.21,3.58,54.33,54.33,0,0,1,17.37,21.06c.09.18.49.21.39,0C60.4,96,55,89.67,49.3,84.7a38.9,38.9,0,0,0-9.52-6.38,29.62,29.62,0,0,0-5.42-1.85,5.57,5.57,0,0,0-3.38,0,3.46,3.46,0,0,0-1.75,2.28,29.4,29.4,0,0,1-1.4,4c-.14.26.41.55.54.29Z"/>
      <path d="M25.48,79.07c.25-3.15,1.34-6.49,4.55-7.7,2.81-1.07,6.09-.3,8.79.74a46.21,46.21,0,0,1,10.31,6,65.31,65.31,0,0,1,10.14,9,45.31,45.31,0,0,1,8,12.48c.08.17.53.25.45,0-1.4-4.35-4.23-8.33-7.18-11.76a65.13,65.13,0,0,0-10.72-9.8,49.27,49.27,0,0,0-10.64-6.31c-2.73-1.08-5.93-1.89-8.85-1.09-3.74,1-5.14,4.64-5.42,8.19,0,.3.58.52.61.19Z"/>
      <path d="M73.63,112.73c1.22-2.2,1-4.88.47-7.25a36.61,36.61,0,0,0-2.77-7.78c-3-6.37-6.61-12.9-11.46-18.06-.15-.16-.53-.11-.34.14a100.2,100.2,0,0,1,6.13,8.51,97.84,97.84,0,0,1,4.91,9,39.18,39.18,0,0,1,2.77,7.27c.65,2.54,1.1,5.5-.22,7.9-.13.24.38.52.51.27Z"/>
      <path d="M78.82,111.48c3.76-5.92-.44-13.67-3.2-19.12C72,85.27,66,79.28,59.44,74.82c-.21-.15-.54,0-.27.24,6.14,4.71,12.12,10.08,15.72,17.06,2.78,5.39,7.11,13.19,3.42,19.1-.14.22.36.5.51.26Z"/>
      <path d="M84.82,110.7c3.21-3.82,2.85-9.07,1.6-13.6a50.67,50.67,0,0,0-6.75-14.16A56.5,56.5,0,0,0,67.32,69.66c-5.21-4.09-11.23-7.48-17.74-8.91a24,24,0,0,0-20.67,4.81c-.24.2.25.55.46.38A23.76,23.76,0,0,1,48.07,61c6.46,1.07,12.48,4.24,17.69,8.12a55.92,55.92,0,0,1,19.17,25.3c1.83,5,3.13,11.42-.56,15.91-.19.24.28.57.45.37Z"/>
      <path d="M95.49,111.06a17.53,17.53,0,0,0,6.2-9.64,46.65,46.65,0,0,0,2-12.17,35.37,35.37,0,0,0-9.13-23.51,46.31,46.31,0,0,0-22-13.85,84.84,84.84,0,0,0-14.71-2.31,47.59,47.59,0,0,0-12.39.3C36.47,51.41,27.66,56,22.52,63.57c-.16.23.35.49.51.27A35,35,0,0,1,42.94,51a40.5,40.5,0,0,1,11.71-1.13,101.16,101.16,0,0,1,13.77,1.59,46.28,46.28,0,0,1,23.36,12.1A36,36,0,0,1,102.94,86a42.59,42.59,0,0,1-1.31,13.34c-1,4.43-2.8,8.61-6.52,11.41-.21.15.2.44.38.31Z"/>
      <path d="M49.87,53.47c4.84.44,9.72.46,14.53,1.19a30.49,30.49,0,0,1,12.94,4.9c3.35,2.28,6.4,5,9.52,7.56,3.36,2.78,5.16,6.73,7.7,10.18.09.12.34.07.22-.09-2-2.77-3.46-5.87-5.71-8.42a63,63,0,0,0-7.4-6.43,43,43,0,0,0-8.27-5.54,32.83,32.83,0,0,0-10-2.73c-4.51-.6-9.06-.65-13.59-1.06-.37,0-.19.41.09.44Z"/>
      <path d="M97.47,85.6a3,3,0,0,1,0,1.36c0,.12.2.21.24.08a3.4,3.4,0,0,0,.06-1.42c0-.11-.27-.17-.25,0Z"/>
      <path d="M90,109.43c3.79-3.07,2.81-8.88,1.63-13a38.48,38.48,0,0,0-9.16-16c-.16-.16-.57-.11-.36.15,3.88,4.7,7.13,9.67,8.9,15.56,1.22,4.05,2.36,9.91-1.4,13-.2.16.21.46.39.32Z"/>
      <path d="M107,81c-.62-5.87-3.58-10.92-7.59-15.14A87.59,87.59,0,0,0,85.75,54.6c-.22-.15-.53,0-.28.23,4.41,3.71,9.24,6.81,13.27,11s7.11,9.26,7.78,15.16c0,.24.54.36.51.05Z"/>
    </g>
    <g id="mid_left">
      <path d="M61.62,220.71c6.86,2.14,14.06,2.57,21.13,3.62a45.64,45.64,0,0,1,10.11,2.39,44.12,44.12,0,0,1,8.89,4.87A101.66,101.66,0,0,1,110,238a30.57,30.57,0,0,1,5.65,6c3.37,5,5,10.91,6.38,16.67,1.5,6.25,2.75,12.58,4,18.88a79.3,79.3,0,0,1,1.84,18.55,41.55,41.55,0,0,1-5.53,19.82,20.93,20.93,0,0,1-11.88,9,43.37,43.37,0,0,1-13,1.76,85.9,85.9,0,0,1-18.39-1.54c-6.15-1.31-11.71-3.82-17.33-6.56-4.67-2.27-9.28-4.66-13.71-7.36-9.23-5.64-17.75-12.79-23.25-22.23a43.51,43.51,0,0,1-5.59-14.59,55.88,55.88,0,0,1-.08-16.18c1.39-10.85,5.77-21.87,15-28.31,8-5.53,18.48-7.67,27.88-7.54a47.65,47.65,0,0,1,5.56.12,1.4,1.4,0,0,0,1.71-1.53A2.74,2.74,0,0,0,66.89,221a51.32,51.32,0,0,0-6.22-.74,61,61,0,0,0-7.52.37,55.74,55.74,0,0,0-15.61,4,35.69,35.69,0,0,0-13.38,9.57c-3.89,4.66-6.23,10.18-7.86,16-3,10.78-3.41,23,.66,33.52C21.3,295,29.38,304.36,39,311.47a114.68,114.68,0,0,0,14.61,9A156,156,0,0,0,69.43,328a67.55,67.55,0,0,0,21.18,4.26,77.49,77.49,0,0,0,15.25-.49,31.38,31.38,0,0,0,14.33-5.49c5.21-3.9,8-10.12,9.67-16.25,3.62-13.27.3-26.69-2.34-39.78-1.31-6.52-2.62-13.08-5-19.3a39.51,39.51,0,0,0-4.18-8.06,34.42,34.42,0,0,0-6.32-6.61c-5.46-4.64-11.35-9.15-18.06-11.82s-14.39-2.83-21.54-3.65a64,64,0,0,1-10.55-1.93c-1.62-.46-1.57,1.44-.22,1.86Z"/>
      <path d="M92.94,228.6c2.06,2.19,3,5.61,3.64,8.47a23.65,23.65,0,0,1,.56,5.63,14.27,14.27,0,0,1-.29,2.43,5.12,5.12,0,0,1-.87,2.43c-.3.27-1.08.19-1.47.22s-1.07.09-1.6.11a9,9,0,0,1-3.93-.5c-1.91-.81-1.49-2.65-2.67-4a3,3,0,0,0-3.35-.75c-.8.3-1.48.86-2.28,1.16a5.8,5.8,0,0,1-3.75.06c-1.73-.58-3.1-2-4.81-2.6-2.57-1-5.46-.21-7.93-1.51-.14-.08-.47-.14-.55.07a11.38,11.38,0,0,1-1.38,2.85,6,6,0,0,1-2.32,1.63.27.27,0,0,0-.12.38,7.75,7.75,0,0,0,4.82,4.1c2.46.87,4.9,1.35,6.46,3.65l.06-.48c-2.94,1.72-5.78.5-8.87.1a5,5,0,0,0-5.49,2.63c-1.46,2.54-2.25,5.19-4.66,7.06-.78.61-1.17.84-2,.3a4.18,4.18,0,0,0-2-.76c-2-.26-4-.68-5.28-2.43-1.7-2.3-1.43-5.69-.71-8.3A31.28,31.28,0,0,1,44.12,246a60.36,60.36,0,0,0,2.36-5.72c.47-1.41,1.16-3.34.51-4.8s-2.35-1.41-3.67-1.08l.67.53c.23-3.41.9-6.78,1.37-10.17.06-.45-.86-.8-1-.29A85.32,85.32,0,0,0,43,234.65a.59.59,0,0,0,.67.54c.61-.16,1.6-.44,2.15,0s.44,1.25.39,1.8a18.87,18.87,0,0,1-1.66,5.43c-1.58,3.82-3.8,7.4-3.82,11.66A7.43,7.43,0,0,0,47.59,262a4.58,4.58,0,0,1,2.31.74,2,2,0,0,0,1.49.45,5.49,5.49,0,0,0,2.48-1.69A10.7,10.7,0,0,0,56,258.4a26.59,26.59,0,0,1,2.19-4.16,4.24,4.24,0,0,1,4.24-1.47c3.24.42,6.21,1.64,9.28-.16.2-.12.19-.3.07-.49a9.33,9.33,0,0,0-5.23-3.45c-2.52-.8-4.75-1.53-5.94-4.11l-.13.39a6.88,6.88,0,0,0,2.44-1.68,10.83,10.83,0,0,0,1.52-3l-.56.07c2.22,1.18,4.63.79,7,1.28,2.09.44,3.55,1.91,5.45,2.73a6.57,6.57,0,0,0,5.18,0c.87-.41,1.71-1.15,2.7-1.19,1.59-.07,1.84,1.34,2.26,2.5a4.26,4.26,0,0,0,3.43,2.75,11.17,11.17,0,0,0,2.94.23c.54,0,1.07-.05,1.61-.09a7.28,7.28,0,0,0,2-.17c1-.58,1.3-3.13,1.42-4.15a20.53,20.53,0,0,0-.24-5.75c-.56-3.38-1.64-7.54-4.06-10.11-.3-.31-1-.16-.65.26Z"/>
      <path d="M102.67,260.12a1.2,1.2,0,0,1,1.17-.13l-.19-.54a39.82,39.82,0,0,0-3.38,4.69,19.43,19.43,0,0,0-3,6.27,3,3,0,0,0,.21,2.18,2.43,2.43,0,0,0,2.13,1,3.72,3.72,0,0,0,2.79-1,11.59,11.59,0,0,0,2-3c.75-1.47,1.42-3,2.27-4.4a7.33,7.33,0,0,1,2.93-3.11c.45-.2-.17-.74-.51-.61-2.31.82-3.52,3.46-4.53,5.5-.58,1.19-1.13,2.4-1.81,3.55a4.51,4.51,0,0,1-2,2.09,2.8,2.8,0,0,1-2.27,0c-.48-.37-.4-1.16-.31-1.68a16.94,16.94,0,0,1,2.6-5.84,41.51,41.51,0,0,1,3.52-5.09c.17-.2,0-.44-.18-.54a2,2,0,0,0-2,.05c-.43.22.17.79.51.62Z"/>
      <path d="M118.87,260.29a53.34,53.34,0,0,1,.38,17A57.67,57.67,0,0,1,114.37,295c-2.56,5.38-6.37,10.49-12.07,12.77-4.45,1.78-9.3,1.56-14,1-11-1.33-22-3.18-32-7.91a55.05,55.05,0,0,1-25.44-24.3c-2.79-5.26-4.8-11-4.47-17,.39-7.21,3.66-14,7.23-20.13.12-.21-.32-.45-.44-.24-3.41,5.6-6.53,11.67-7.35,18.26a29.37,29.37,0,0,0,2.48,15.29,55.76,55.76,0,0,0,23.76,26.56C62.3,305,73.8,307.42,85.32,309c4.67.62,9.45,1.31,14.12.35,5.59-1.15,10-4.75,13.07-9.45a48.69,48.69,0,0,0,6.64-17.45,61.44,61.44,0,0,0,1-18.1c-.14-1.32-.34-2.64-.61-3.95-.06-.29-.71-.43-.64-.06Z"/>
      <path d="M124.14,275.47c.57,2,0,4.32-.52,6.3-.58,2.3-1.35,4.54-2,6.82-1.52,5.42-2.79,10.85-5.94,15.62a28.12,28.12,0,0,1-12.15,10.5A34.52,34.52,0,0,1,90,317.2c-11.59,0-22.8-3.9-32.67-9.77A97.55,97.55,0,0,1,43.09,297a57.35,57.35,0,0,1-11.26-12.72c-3.39-5.45-5.64-11.53-7.73-17.57-2.28-6.62-3.51-13.43-1.9-20.36.08-.31-.56-.55-.66-.2-1.73,6.31-.7,12.82,1.27,18.94a99.68,99.68,0,0,0,6.5,16.17c5.46,10.28,14.61,18.17,24.22,24.51,9.88,6.52,21.22,11.25,33.14,12A41,41,0,0,0,101,316.46a27.12,27.12,0,0,0,12.53-8.1c4.47-5.07,6.86-11.36,8.38-17.87.61-2.64,1.51-5.2,2.2-7.82.58-2.22,1.31-4.85.66-7.13-.08-.31-.78-.45-.67-.07Z"/>
      <path d="M126.56,296c-3,11.61-10.74,25.35-24,26.38-.38,0-.09.53.18.52,5.91,0,11.2-3.58,15-7.86a44.41,44.41,0,0,0,9.43-18.86c.07-.27-.5-.49-.58-.18Z"/>
      <path d="M115.64,259.33c-.65,9.44-2.65,19.35-8.89,26.8A25.31,25.31,0,0,1,96,293.82a28.71,28.71,0,0,1-11.23,1.45,65.88,65.88,0,0,1-25.58-6.71,56.52,56.52,0,0,1-19.57-16,39.7,39.7,0,0,1-6.8-11.77,22.85,22.85,0,0,1,.37-15.43c.12-.32-.51-.66-.64-.34-3.59,8.6-.9,17.4,4.18,24.75a57.76,57.76,0,0,0,18.6,17.41,66.39,66.39,0,0,0,26.13,8.43,36.68,36.68,0,0,0,11.92-.36,24.91,24.91,0,0,0,11-5.61c8.55-7.55,11.21-19.25,11.94-30.17,0-.29-.59-.52-.62-.18Z"/>
      <path d="M111.58,244.31a38.54,38.54,0,0,1-1,19.33c-1.84,6.16-5.16,12.31-10.42,16.19-3.24,2.4-7.33,3.77-11.2,4.75a39.77,39.77,0,0,1-12.48,1.18,41.68,41.68,0,0,1-22.64-9c-7.66-6-13.09-14.49-18-22.79-.16-.26-.8-.29-.59.07,4.36,7.64,9.29,15.22,15.84,21.17A43.69,43.69,0,0,0,73,286a40.88,40.88,0,0,0,25.24-4.13c5.77-3.09,9.63-8.94,11.93-14.92a39.37,39.37,0,0,0,2-22.53c-.06-.3-.73-.45-.65-.07Z"/>
      <path d="M112.53,242.32c-1.89,7.16-3.78,14.55-7.66,20.94A26.36,26.36,0,0,1,88.4,275.35,35,35,0,0,1,69.78,275a41.12,41.12,0,0,1-16.18-9.9c-5.59-5.34-10-11.78-13.86-18.42-.15-.26-.79-.3-.59.08,6.33,11.6,15.49,23.14,28.16,28.06,12,4.67,27.84,2.5,36.15-8,5.45-6.91,7.66-15.87,9.86-24.22.09-.36-.68-.66-.79-.24Z"/>
      <path d="M105.48,237.59c-1.13,6.22-5.12,12-9,16.8s-8.88,10-15.54,10.34c-4.16.19-7.7-1.55-10.81-4.16-.22-.2-.74,0-.45.27A15.24,15.24,0,0,0,88.56,263a32.15,32.15,0,0,0,7-6.39,61.8,61.8,0,0,0,6.36-8.64,30.4,30.4,0,0,0,4.23-10.15c0-.31-.6-.56-.66-.2Z"/>
    </g>
    <g id="top_mid">
      <path d="M141.46,65.53c9.88-4.61,18.35-12,28.64-15.72A89.87,89.87,0,0,1,185.19,46a57.84,57.84,0,0,1,7.42-1,30.84,30.84,0,0,1,8.07.77,87,87,0,0,1,15.13,5.45c4,1.7,8,3.28,11.82,5.34A28.69,28.69,0,0,1,237,64c2.38,3.14,3.9,7.34,2.78,11.25-1.18,4.13-4.39,7.51-7.49,10.32a103.38,103.38,0,0,1-10.25,7.93,93.08,93.08,0,0,1-13.51,8,146.18,146.18,0,0,1-14.91,5.76c-10.3,3.57-20.92,6.81-31.85,7.67-9.55.74-19.73-.22-27.47-6.36a24.12,24.12,0,0,1-7.84-10.27,15.75,15.75,0,0,1,.25-11.52c3.22-8,10.12-14.38,16.88-19.46,1.4-1,2.79-2.35,4.27-3.26.74-.46.09-1.53-.36-1.91a1.92,1.92,0,0,0-2.29-.24c-.84.52-1.81.87-2.66,1.41s-1.76,1.22-2.61,1.86a64.72,64.72,0,0,0-5.09,4.25,54.32,54.32,0,0,0-9.29,10.84c-2.2,3.48-4,7.55-3.89,11.74.07,4.75,2.13,9.12,5,12.84,14.11,18.31,40.81,14.11,60.11,8.27,10.73-3.24,21.58-6.88,31.21-12.71a114.52,114.52,0,0,0,12.52-8.8,48.3,48.3,0,0,0,9.6-9.77c2.49-3.59,3.76-7.69,2.55-12A21.7,21.7,0,0,0,235.6,59.3a46.6,46.6,0,0,0-11.18-6.7c-4.76-2.15-9.61-4.22-14.47-6.15-5.16-2.05-10.57-3.69-16.16-3.76-5.36-.06-10.83,1.19-16,2.39a58.18,58.18,0,0,0-15.19,5.35c-5.09,2.81-9.81,6.2-14.71,9.31a84.78,84.78,0,0,1-7.58,4.34c-1,.51.38,1.82,1.18,1.45Z"/>
      <path d="M169,51.1a16.51,16.51,0,0,1,7.8,1.7A12,12,0,0,1,180.17,55a4.83,4.83,0,0,1,1.15,1.57c.37.87-.59,1.31-1.22,1.84-1.44,1.22-3.09,2.6-5,3-1.5.29-2.79-.79-4.31-.24s-1.77,1.67-2.54,2.82a7.75,7.75,0,0,1-4.33,2.84,20.61,20.61,0,0,0-5,1.83c-1.8,1.06-3.34,2.45-5.36,3.11-.14,0-.14.19-.1.3a3.51,3.51,0,0,1-.27,3.84c-.14.23.21.42.38.45,4.58.8,8-3.21,12.48-3.06l-.38-.47c-1.78,3.48-6.17,3.74-8.44,6.63-1.23,1.58-.32,3.32.09,5s.14,3.9-1.74,4.38c-1.61.41-2.85,1.58-4.4,2.17A6.12,6.12,0,0,1,144.7,90c-2.19-2-2.41-5.25-3.65-7.81a4.8,4.8,0,0,0-2.27-2.6c-1.31-.49-2.43.44-3.27,1.34L136,81c-1.64-1.54-3.08-3.25-4.57-4.93-.25-.29-.91-.17-.58.24a41.82,41.82,0,0,0,4.7,5.07c.12.11.41.2.54.06,1-1.16,2.29-1.94,3.43-.52a12.65,12.65,0,0,1,1.82,3.9c1,2.8,1.73,5.47,4.73,6.76a7.14,7.14,0,0,0,5,.11c1.76-.55,3.13-1.89,4.89-2.35a2.5,2.5,0,0,0,2-2.19,5.09,5.09,0,0,0,0-2.71c-.26-1.08-.87-2.28-.74-3.42.24-2.07,3-3.16,4.61-4a10,10,0,0,0,4.42-3.93c.12-.22-.18-.46-.38-.46-4.48-.15-8,3.85-12.48,3.08l.37.45a4.77,4.77,0,0,0,.84-1.93,5.24,5.24,0,0,0-.28-1.57c-.09-.55-.18-.4.36-.73.38-.23.83-.39,1.22-.62.63-.36,1.23-.78,1.83-1.2a16.34,16.34,0,0,1,4.9-2.41,15.14,15.14,0,0,0,3.87-1.38,7.35,7.35,0,0,0,2.77-2.9,3.28,3.28,0,0,1,2.34-2,6.73,6.73,0,0,1,2.35.42c3.06.58,6-2.6,8.09-4.37a.17.17,0,0,0,.06-.19c-.49-2.58-3.25-4.13-5.45-5.09a17.2,17.2,0,0,0-8-1.68c-.42,0,0,.56.27.54Z"/>
      <path d="M193.23,58.94a1.69,1.69,0,0,1,1-.82l-.53-.35a19.93,19.93,0,0,0,.09,3.54,10.76,10.76,0,0,0,1.09,4.21,2.22,2.22,0,0,0,2.89,1.16,4.47,4.47,0,0,0,1.91-1.61,3.37,3.37,0,0,0,.21-2.4c-.42-2.16-1.79-4.67-.48-6.77.17-.28-.4-.56-.6-.32-1.22,1.57-.56,3.68-.07,5.4a9.44,9.44,0,0,1,.52,2.63,2.52,2.52,0,0,1-1.14,2,2.31,2.31,0,0,1-1.57.69,1.39,1.39,0,0,1-.94-.73,9.16,9.16,0,0,1-1.09-3.8,20.67,20.67,0,0,1-.18-3.77c0-.26-.31-.42-.52-.35a2.07,2.07,0,0,0-1.19,1c-.16.28.43.59.59.32Z"/>
      <path d="M205.45,49.8A30.59,30.59,0,0,1,217.17,59c3,3.78,5.28,8.6,4.74,13.51-.94,8.47-10,13-16.42,17-17.69,11-38.69,20-59.91,15.45-3.66-.78-7.29-2.15-9.87-5-2.82-3.08-4-7.26-4.65-11.29,0-.17-.4-.26-.37,0,.55,3.67,1.5,7.44,3.74,10.48a15.64,15.64,0,0,0,7.57,5.28,45,45,0,0,0,13,2.09,65.61,65.61,0,0,0,16.7-1.55c11.26-2.49,21.77-7.56,31.6-13.47a123.47,123.47,0,0,0,11.54-7.46c3.17-2.43,6.12-5.45,7.23-9.39,1.44-5.09-.62-10.43-3.53-14.6a31.17,31.17,0,0,0-12.9-10.65c-.31-.13-.49.21-.18.34Z"/>
      <path d="M217.81,53.22c1.87.66,3,2.8,3.95,4.42s2,3.18,3,4.79c2.63,4.33,3.51,9.18,1.79,14-1.44,4.08-4.35,7.45-7.54,10.29a67,67,0,0,1-11,7.85,101.93,101.93,0,0,1-26.1,10.27c-9.31,2.36-19.25,4.26-28.89,3.34A80.53,80.53,0,0,1,137.85,105c-4.32-1.29-8.74-3.15-11.37-7-.12-.19-.61-.15-.44.11,2.09,3.27,5.54,5.18,9.11,6.49A81.17,81.17,0,0,0,148,108c10.37,2,20.89.45,31.08-1.87A106.14,106.14,0,0,0,207.28,95.7a68.35,68.35,0,0,0,11.65-8c3.3-2.86,6.37-6.26,8-10.4,2-5.12,1.15-10.29-1.67-14.91-1.2-2-2.42-4-3.65-5.92-.93-1.47-2-3-3.72-3.64-.36-.12-.35.31-.05.42Z"/>
      <path d="M230.76,60.28a19.72,19.72,0,0,1,3.42,12.82c-.49,4.73-3,8.44-6.46,11.54-.2.19.22.47.4.33a16.87,16.87,0,0,0,6.61-11.87,20.3,20.3,0,0,0-3.58-12.92c-.11-.17-.53-.13-.39.1Z"/>
      <path d="M202.51,51.19a27.21,27.21,0,0,1,7.05,9.1,15.14,15.14,0,0,1,.14,11.58c-2.8,7-9.77,11.58-16,15.24-12.94,7.55-27.56,12.27-42.62,12-6.3-.09-14.21-1.1-17-7.64-.1-.24-.62-.27-.49.06,2.25,5.68,8.62,7.44,14.16,7.93A67.28,67.28,0,0,0,168.22,98a90.52,90.52,0,0,0,24.24-9.47c6.53-3.68,13.86-8.19,17.23-15.18a15.64,15.64,0,0,0,.75-12C209,57.18,206,53.82,202.8,50.94c-.22-.19-.54,0-.29.25Z"/>
      <path d="M191.31,47.24a19.42,19.42,0,0,1,11.45,12.45,14,14,0,0,1-.22,8.22,24.9,24.9,0,0,1-4.74,7.42c-8,9.5-19.65,15.38-31.71,17.65-8.42,1.59-17.05,1.23-25.55.49-.35,0-.17.39.09.42,7.92.79,16,1.12,23.88-.1a61,61,0,0,0,19-6.32,48.82,48.82,0,0,0,14.83-11.92,24.3,24.3,0,0,0,4.8-7.71,14.2,14.2,0,0,0,.17-7.94c-1.55-6-6.33-10.77-12-13.06-.34-.14-.33.29-.05.4Z"/>
      <path d="M190.74,45.72c3.14,4.9,6.77,10.47,6,16.58-.69,5.74-4.88,10.47-9.07,14.13-8.32,7.26-19,10.89-29.89,12a97,97,0,0,1-18.43-.15c-.35,0-.18.39.08.42,11.08,1.31,22.72.83,33.31-2.9a47.17,47.17,0,0,0,14.67-8.26c4.15-3.48,8.27-7.87,9.63-13.26,1.7-6.8-2.27-13.12-5.78-18.6-.15-.24-.78-.26-.56.08Z"/>
      <path d="M183,47.75c1.92,2.39,2.47,5.67,2.64,8.64a28.83,28.83,0,0,1-.84,9,14.6,14.6,0,0,1-5.63,7.92,23.54,23.54,0,0,1-9.68,3.82c-.34.06,0,.44.22.42,6.7-.49,13.71-5.1,15.59-11.73a28.54,28.54,0,0,0,.86-9.52c-.2-3-.81-6.28-2.76-8.68-.17-.21-.63-.11-.4.16Z"/>
    </g>
    <g id="hungry">
      <path d="M206.49,195.8c1,2.09,0,4.45-1.47,6a10.12,10.12,0,0,1-6.62,3,45.29,45.29,0,0,1-8.47-.34c-3.25-.28-6.51-.43-9.77-.47-12.57-.18-25.09,1.1-37.6,2.17a293.64,293.64,0,0,1-36.44,1.32,201.94,201.94,0,0,1-34.66-4.18,162.87,162.87,0,0,1-36.63-12.38c-1.63-.78-2.63,1.05-1,1.85,21.76,10.49,45.75,15.65,69.8,16.86a274.28,274.28,0,0,0,37.59-1c13.25-1.15,26.53-2.64,39.86-2.41,3.63.06,7.24.27,10.86.6,3.2.29,6.5.57,9.66-.2,4.59-1.11,9.7-6.12,6.8-11.09-.49-.83-2.54-1.05-1.93.25Z"/>
      <path d="M207.54,196.22c.25-.23.58.49.71.16a3.36,3.36,0,0,0-.19-.38,3.76,3.76,0,0,1-.09-1.11c0-.9-.06-1.8-.13-2.7-.13-1.69-.34-3.37-.62-5a60.29,60.29,0,0,0-2.58-9.9,61.58,61.58,0,0,0-10-18.05c-4.75-5.91-10.84-10.46-16-15.94-5-5.28-9.36-11.18-14.78-16.06-10.92-9.84-25.84-13.69-40.24-14.11a149.55,149.55,0,0,0-24.83,1.69c-7.58,1-15.14,2.29-22.62,3.9-14.32,3.09-28.51,7.71-40.8,15.87-5.88,3.91-11.28,8.79-14.47,15.19s-4.38,13.61-4.77,20.59c-.33,5.82.4,12.29,5.07,16.33,2.72,2.35,6.29,3.32,9.71,4.11a101.88,101.88,0,0,0,11.78,1.95,208.79,208.79,0,0,0,24.25.86c8.4-.07,16.8-.17,25.2-.22s17-.06,25.45,0,16.76,0,25.13.27A169.46,169.46,0,0,1,167,196.36c7.89,1.45,15.74,3.18,23.71,4.14a96.44,96.44,0,0,0,11.76.73c2,0,.93-2.09-.47-2.29-10.58-1.5-21.33-3-32-1.47-5.14.71-10.15,1.8-15.37,1.26a79.41,79.41,0,0,1-14-3.24c-5.14-1.5-10.33-2.93-15.7-3.2-.63,0-1.25.3-1.14,1a1.84,1.84,0,0,0,1.6,1.27A201.11,201.11,0,0,0,160,196.88a.85.85,0,0,0,.74-1.16,1.84,1.84,0,0,0-1.55-1.13l-12.33-1.24.47,2.28q10.62.59,21.19,1.83l-.8-2.28-5.23.38,1.69,2.05-.23.09-1.07-.22c0-.6-.27-.89-.69-.88l-.66-.07-1.46-.15-2.44-.27-5.63-.6-11-1.19c-.64-.07-1.24.33-1.14,1a1.82,1.82,0,0,0,1.6,1.27l17.11,1.84c1.35.15,2.72.37,4.08.44.82,0,2,0,2.41-.83.9-1.61-1.87-3.44-3.13-2.27-1,1,.83,2.11,1.69,2.05l5.23-.38a.86.86,0,0,0,.75-1.16,1.87,1.87,0,0,0-1.55-1.13q-10.57-1.24-21.2-1.82c-1.94-.11-1,2.14.47,2.28l12.33,1.25-.81-2.28a197.21,197.21,0,0,1-34-2.31l.46,2.28c9.65.5,18.51,4.85,28,6.24,5.05.73,9.92.18,14.92-.63a77.34,77.34,0,0,1,16.15-.94c6.05.29,12,1.14,18,2l-.47-2.29c-15.82.05-31.06-4.74-46.66-6.64A210.14,210.14,0,0,0,131,191.09q-12.43-.09-24.88-.06t-25,.12c-8.09.06-16.19.26-24.27.12a129.8,129.8,0,0,1-23.69-2.2c-3.4-.69-7.36-1.35-10.13-3.59A12,12,0,0,1,19.14,178a33,33,0,0,1-.14-9,68.52,68.52,0,0,1,1.73-10.57,34.39,34.39,0,0,1,11.12-17.83c11-9.42,25.35-14.76,39.2-18.25,7.1-1.78,14.3-3.11,21.52-4.26a211.5,211.5,0,0,1,24.2-2.71c14.43-.59,30,1.54,41.94,10.35,5.8,4.28,10.22,10,15,15.36a105.19,105.19,0,0,0,7.71,7.81c2.82,2.57,5.72,5.06,8.32,7.85a59.22,59.22,0,0,1,15.67,37c.08,1.38.1,2.62,1.13,3.67.79.81,2.13,1.3,3.05.42s-1.14-2.45-2-1.64Z"/>
      <path d="M152.47,124.9c-5.66-1.08-11.4-1.76-17.12-2.42-5.55-.64-11.13-1.1-16.71-1.3a129.65,129.65,0,0,0-31.33,2.4C69,127.45,51.24,136.46,40.47,152.24c-5.58,8.16-9,17.87-8.81,27.83,0,.52,1.11.91,1.1.33-.31-18,10.81-34.22,25.37-44,16.81-11.25,37.57-14.79,57.47-14.51,6.16.08,12.31.52,18.44,1.14s12.35,1.66,18.54,2.38c.49.06.22-.5-.11-.56Z"/>
      <path d="M26.93,180.82a23,23,0,0,1-1.43-6.43,24.63,24.63,0,0,1,.68-6.74,40.57,40.57,0,0,1,5.35-12.34c4.82-7.65,11.59-13.85,19-19,4.5-3.13,9.26-5.84,14-8.53.51-.28-.2-1-.61-.74-16.07,8.21-33.45,20.67-38.46,39-1.27,4.66-1.68,10.44.88,14.76.1.18.7.34.58,0Z"/>
      <path d="M42.53,180.59a39,39,0,0,1-.43-7.71,31.8,31.8,0,0,1,1.62-7.9,42.81,42.81,0,0,1,7.78-13.53,78.21,78.21,0,0,1,11.39-10.89,117.36,117.36,0,0,1,13-9.2,57.34,57.34,0,0,1,16.62-6.83c.57-.13.06-.79-.36-.72-10.72,1.74-20.21,8.33-28.62,14.84s-16.67,14.5-20.45,24.82c-1.92,5.26-3,11.65-1.11,17.07.07.22.56.39.52.05Z"/>
      <path d="M47.09,180.75c-.49-3.54,1.1-6.8,2.82-9.79q2.25-3.9,4.68-7.71a133.55,133.55,0,0,1,11.06-15.16C73.6,138.8,83.34,131,94.82,126.52a52.44,52.44,0,0,1,20.49-3.66c.68,0,.35-.8-.17-.82-12.54-.48-24.78,4.1-35,11.22-10.47,7.32-18.71,17.39-25.6,28.05-1.94,3-3.81,6.06-5.56,9.18s-3.32,6.56-2.61,10.2c.06.31.73.48.68.06Z"/>
      <path d="M57.2,178.85a91.73,91.73,0,0,1,7.34-16.22,77.24,77.24,0,0,1,10.92-14.22,80.8,80.8,0,0,1,29.8-19.3c7.07-2.61,14.52-4.33,22.09-3.49.64.08.3-.68-.16-.75-6.6-1-13.33.35-19.61,2.41a81.65,81.65,0,0,0-16.91,7.77A78.7,78.7,0,0,0,65,160a65.65,65.65,0,0,0-8.42,18.56c-.07.27.53.54.63.26Z"/>
      <path d="M70,171.51a23.41,23.41,0,0,1,3.94-6.78c1.56-2.11,3.23-4.14,5-6.11A92.5,92.5,0,0,1,89.77,148a86.53,86.53,0,0,1,27.37-15.29A49.81,49.81,0,0,1,137.38,130c.72.07.37-.8-.17-.85-11.65-1.08-23.29,2.89-33.45,8.31a91.5,91.5,0,0,0-24.64,19.31c-1.89,2.09-3.68,4.28-5.36,6.55-1.8,2.43-3.68,4.93-4.58,7.86-.1.33.66.66.77.32Z"/>
      <path d="M87.34,174.37c-2.25-1.6-1.54-4.82-.69-7a32.6,32.6,0,0,1,4.19-7.23,59.76,59.76,0,0,1,10.31-10.89A65.16,65.16,0,0,1,128.08,136c6.06-1.38,12.77-2.33,18.84-.6.59.17.56-.5.08-.66-5.53-1.88-11.81-1.08-17.43,0a65.6,65.6,0,0,0-15.43,5.1,63.59,63.59,0,0,0-24.3,20,26.71,26.71,0,0,0-4.63,8.85c-.54,2.19-.36,4.73,1.64,6.11.39.27,1-.08.49-.42Z"/>
      <path d="M98.54,175c1.27-11,9.24-20.42,17.94-26.62a54.09,54.09,0,0,1,29.79-10c7.26-.17,14.4,1.27,21.5,2.6.56.11.41-.66,0-.75-6.46-1.35-13-2.6-19.62-2.7a54.15,54.15,0,0,0-42.44,19.64c-4.06,5.09-7.19,11.06-7.88,17.61,0,.36.71.64.75.23Z"/>
      <path d="M111.67,166.87a56.91,56.91,0,0,1,17.18-15.1c6.52-3.74,14-6.57,21.57-7.07,4.59-.29,9.28.43,13.17,3,.36.24.9-.06.45-.4-6.41-4.77-15.19-4-22.46-1.93a58.24,58.24,0,0,0-21.37,11.2,56.53,56.53,0,0,0-9.32,9.86c-.24.32.53.74.78.41Z"/>
      <path d="M136.51,164.35c10.05-9.36,24.38-10.43,37.42-10.58.63,0,.33-.75-.15-.75-13.19,0-27.83,1.27-37.89,10.83-.3.29.35.75.62.5Z"/>
      <path d="M122.79,194.27c-.4,8.95,2.06,19.13-3.94,26.79-.34.43.73,1.11,1.06.7,2.84-3.48,3.91-7.86,4.14-12.28.12-2.5,0-5-.07-7.52s-.1-5-.35-7.52c0-.34-.83-.61-.84-.17Z"/>
      <path d="M123,194.27a80.77,80.77,0,0,0,3.41,9.89,27.09,27.09,0,0,1,1.95,11.07c0,.47.94.87,1,.31.56-3.49-.44-7.13-1.6-10.4-1.29-3.61-2.94-7.08-3.94-10.79-.1-.38-1-.59-.85-.08Z"/>
      <path d="M125,195c1.4,3.13,3.94,5.5,5.54,8.5a12.53,12.53,0,0,1,1.32,5.17,14.14,14.14,0,0,0,1,5.3c.24.49,1.36.54,1-.14a15.71,15.71,0,0,1-1-5.53,12.32,12.32,0,0,0-1.4-4.93c-1.63-3-4.25-5.39-5.75-8.47-.19-.39-1.06-.44-.82.1Z"/>
      <path d="M129.38,195.86c1.45,3,3.77,5.41,5.64,8.18,2,3,2.83,6.46,5.3,9.11,1.19,1.28,2.5,2.43,3.65,3.75s2.12,2.59,3.13,3.92a33.22,33.22,0,0,0,6.79,7.26c.47.33,1.16-.06.6-.52a42.16,42.16,0,0,1-6.6-7.27c-1-1.28-2-2.56-3-3.76s-2.48-2.46-3.67-3.74c-2.38-2.52-3.22-5.86-5.11-8.7s-4.49-5.22-6-8.33c-.16-.35-1-.38-.73.1Z"/>
      <path d="M133.38,197.18c-.35-.33-.68-.67-1-1l-.28.52c2,.19,3.16,1.69,4.26,3.2a48.12,48.12,0,0,0,3.64,4.19c2.55,2.79,3.73,6.12,5.22,9.52.15.36,1.14.54,1,0a26.51,26.51,0,0,0-6-10.53c-.73-.76-1.47-1.51-2.14-2.33s-1.23-1.7-1.92-2.5a5.64,5.64,0,0,0-4.34-2.28c-.37,0-.27.44-.08.6.4.33.8.66,1.18,1s.83,0,.45-.38Z"/>
      <path d="M132.07,200.43a17.83,17.83,0,0,0,9.05,4.75,21.68,21.68,0,0,0,5.8-.17c1.24-.16,3.16-.62,3-2.23,0-.35-.8-.7-1-.3-.64,1.55-2.17,1.56-3.64,1.72a16.14,16.14,0,0,1-5.05,0,17.6,17.6,0,0,1-7.7-4.2c-.41-.35-1,0-.54.47Z"/>
      <path d="M133.81,207c4.19.33,8.09,2,12.24,2.56a25.17,25.17,0,0,0,5.82.12,26.24,26.24,0,0,0,3.16-.49c1-.21,2.13-.5,3,.2.3.23.91.08.58-.35-1-1.24-2.67-.94-4-.67a26.41,26.41,0,0,1-7.15.53c-4.71-.34-9.11-2.31-13.82-2.67-.64,0-.33.74.16.77Z"/>
      <path d="M139.83,210.14c3,2.26,6.73,2.24,10.3,2.42A24.39,24.39,0,0,1,161.52,216c.44.27.95-.23.46-.57a21.86,21.86,0,0,0-9.83-3.6c-3.9-.47-8.4.31-11.76-2.17-.44-.33-1.09.07-.56.48Z"/>
      <path d="M136,208.78A20.74,20.74,0,0,1,142,214.3a22.47,22.47,0,0,0,5.55,5.41c4.44,3,9.05,6.36,14.09,8.3.56.22.68-.46.22-.71a148,148,0,0,1-14.48-8.78c-2.27-1.61-3.72-3.68-5.47-5.78a20.87,20.87,0,0,0-5.53-4.59c-.54-.31-.86.31-.33.63Z"/>
      <path d="M149.18,225.92a25.51,25.51,0,0,0,5.56,3c1,.4,2,.78,2.95,1.15a8.35,8.35,0,0,1,2.9,1.46c.33.3,1.07,0,.65-.4a6.44,6.44,0,0,0-2.44-1.48c-1-.41-2.09-.8-3.14-1.2a25.52,25.52,0,0,1-5.9-3c-.46-.34-1.13.09-.58.5Z"/>
      <path d="M131.05,203.65c1.32,5.86,2.45,11.83,2,17.87a63.9,63.9,0,0,1-1.39,8.58c-.59,2.67-1.78,5.39-4.65,6.18-.56.16.15.9.55.83,2.49-.44,4-2.38,4.78-4.7a45.3,45.3,0,0,0,1.74-9.33c.68-6.52-.52-13.05-2.12-19.34-.11-.41-1-.63-.91-.09Z"/>
      <path d="M134.42,209.3c1.29,2.82,1.39,6,2.75,8.81a13.37,13.37,0,0,0,2.6,3.47c1.08,1.1,2.1,2.21,3.07,3.41.25.31,1.12.35.85-.22a12.84,12.84,0,0,0-2.76-3.3,13.46,13.46,0,0,1-2.82-3.6c-1.34-2.75-1.51-5.91-2.82-8.69-.19-.41-1.13-.45-.87.12Z"/>
      <path d="M130.47,210.62a25.32,25.32,0,0,0-2,11.13c.11,2,.7,3.94.9,5.94.23,2.31-1.08,3.7-2.74,5.09-.47.4.49,1.08.92.75,1.34-1.07,2.66-2.26,3-4s-.48-3.82-.74-5.66a24.59,24.59,0,0,1,1.63-12.72c.19-.47-.73-1-.93-.5Z"/>
      <path d="M128.85,207.72a22.92,22.92,0,0,0-1,6.69,21.64,21.64,0,0,1-1.75,7.42c-.92,2.16-1.83,4.66-3.94,5.9-1.64,1-2.84,2.19-2.8,4.22,0,.53,1.1,1,1.12.35a4,4,0,0,1,1.25-2.85c.78-.71,1.84-1,2.6-1.77,1.46-1.43,2.3-3.8,3-5.67a20.71,20.71,0,0,0,1.52-6.4c.16-2.49,0-5,.84-7.42.16-.45-.72-.9-.88-.47Z"/>
      <path d="M124.26,196.86c1.4,3.27-3,5.22-5.17,6.47a20.72,20.72,0,0,0-5.85,5.06c-3.49,4.41-5.61,10.77-11.68,12.24-.74.18-.08,1.06.47,1,6.53-1.25,8.72-8.11,12.43-12.7,2.12-2.62,4.76-4.2,7.58-5.95,2.06-1.28,4.2-3.6,2.85-6.15-.15-.28-.82-.34-.63.08Z"/>
      <path d="M121.75,194c-2.45,1.29-3.78,4.11-5,6.46a52.69,52.69,0,0,0-3.66,9.06c-1.82,6-1.67,12.75-5.17,18.16-.26.41.63,1,.92.61,3.74-4.56,3.48-11.24,4.91-16.7a52,52,0,0,1,3.44-9.36c1.28-2.68,2.67-5.86,5.18-7.6.37-.26-.33-.79-.63-.63Z"/>
      <path d="M118.51,195.41l-.22-.3a.61.61,0,0,0-.69-.29c-2.3,1.07-3.94,3.48-5.33,5.52a16.45,16.45,0,0,0-2,3.47,8.84,8.84,0,0,0-.42,4.08c.06.38.86.68,1,.19a18.92,18.92,0,0,1,.64-3.89,16.83,16.83,0,0,1,1.93-3.27,28.69,28.69,0,0,1,2.21-2.95c.82-.92,1.76-1.68,2.66-2.52l-.62-.06.31.26c.25.26.92.17.58-.24Z"/>
      <path d="M113.57,194.31c-2.24,1.24-4.6,2.27-6.86,3.49-.51.28.2.9.61.73a62,62,0,0,0,6.83-3.51c.49-.27-.19-.92-.58-.71Z"/>
      <path d="M109,193.88a10.66,10.66,0,0,0-4.17,1.42c-.19.12,0,.41.06.52a.62.62,0,0,0,.63.16,14.28,14.28,0,0,1,3.91-1.25.32.32,0,0,0,.26-.48.69.69,0,0,0-.69-.37Z"/>
      <path d="M120.62,216.85c.64.89.18,2.21-.05,3.19a10.51,10.51,0,0,1-1.22,3.24,5.68,5.68,0,0,1-1.09,1.26,4.23,4.23,0,0,0-1.12,1.15,4.61,4.61,0,0,0-.3,1.77c0,.72-.08,1.45-.12,2.17,0,.56,1.13,1,1.18.36s.13-1.52.18-2.27a2.57,2.57,0,0,1,.64-1.93,8,8,0,0,0,2.25-2.88,15.31,15.31,0,0,0,.94-3.51c.17-1,.3-2.28-.67-2.93-.33-.22-1-.11-.62.38Z"/>
      <path d="M121.87,207c-1.69,2.51-2.09,5.34-3.14,8.11-1.14,3-3.45,4.92-5.7,7.09-.47.45.5,1.06.93.75a16,16,0,0,0,5.82-7c1.06-2.78,1.15-6,2.79-8.57.21-.32-.49-.69-.7-.38Z"/>
      <path d="M195.55,198.38a49.73,49.73,0,0,0-10.13-7c-3.58-2-7.17-4-10.86-5.86-7.31-3.64-15-6.62-23.18-7.7-4.78-.64-9.77-.64-14.25-2.67-.63-.28-1,.42-.38.71,3.56,1.61,7.41,2.05,11.25,2.44a65.53,65.53,0,0,1,12.42,2.32c8,2.4,15.42,6.29,22.72,10.29a67.66,67.66,0,0,1,11.94,7.86c.36.31.88,0,.47-.41Z"/>
      <path d="M202.64,199.05c-3.93-2.53-8.15-4.66-12.14-7.08s-7.74-4.89-11.63-7.32A58.26,58.26,0,0,0,167.32,179a130.09,130.09,0,0,0-12.72-3.51c-.69-.16-.69.65-.09.79a130.93,130.93,0,0,1,12.72,3.52,58.62,58.62,0,0,1,11.67,5.76c3.75,2.35,7.45,4.79,11.24,7.06a122.79,122.79,0,0,0,12.24,6.89c.43.2.65-.22.26-.47Z"/>
      <path d="M203.08,197.24c-4.94-2.76-9.93-5.42-14.8-8.29S178.69,183,173.91,180c-.41-.26-.87.22-.43.53,4.61,3.18,9.44,6.07,14.26,8.92s9.91,5.81,15,8.36c.51.25.81-.3.31-.58Z"/>
      <path d="M203.55,195.85c-3.71-2.24-7.52-4.3-11.28-6.44s-7.5-4.34-11.32-6.36c-.53-.27-.82.3-.32.6,3.7,2.24,7.52,4.3,11.29,6.43s7.5,4.33,11.32,6.35c.52.28.8-.29.31-.58Z"/>
      <path d="M201.59,193.34c-1.31-.85-2.81-1.46-4.19-2.18s-2.84-1.54-4.2-2.42a29.78,29.78,0,0,1-3.75-2.87,28.39,28.39,0,0,1-3.16-3.59c-.2-.27-1-.27-.71.18a21,21,0,0,0,6.91,6.69c1.4.92,2.86,1.75,4.35,2.53a30.07,30.07,0,0,0,4.6,2.15c.41.13.44-.3.15-.49Z"/>
      <path d="M201.39,190a45.44,45.44,0,0,0-6.29-3.85c-.19-.1-.5-.14-.63.08s.11.47.29.56a59.26,59.26,0,0,1,6.14,3.63c.16.11.42.22.59.06s0-.38-.1-.48Z"/>
      <path d="M184.28,195.76c-8.11-2.19-15.42-6.71-23.35-9.46a93,93,0,0,0-24.76-5c-.7,0-.36.8.17.84a96.54,96.54,0,0,1,24.93,5.1c7.78,2.73,14.94,7,22.93,9.19.6.16.6-.56.08-.7Z"/>
      <path d="M165.94,192.33c-3.88-1.91-8.53-1.49-12.73-1.73q-7.25-.42-14.43-1.42t-14.54-2.64c-4.52-1-9-2.19-13.67-2.37-.69,0-.35.78.17.82a97.29,97.29,0,0,1,13.86,2.51Q131.26,189,138,190q6.93,1,13.93,1.43c4.45.28,9.5-.25,13.68,1.56.53.23.86-.34.32-.61Z"/>
      <path d="M166.24,192.05c-19.13-4.81-38.75-8-58.28-10.76-.73-.1-.35.79.18.88,19.42,3.21,38.86,6,58,10.58.62.15.61-.57.08-.7Z"/>
      <path d="M113.84,189.81c-9.38-1.65-18.75-3.34-28.14-4.91-.74-.13-.36.79.18.89,9.37,1.68,18.76,3.26,28.13,4.87.71.12.35-.76-.17-.85Z"/>
    </g>
    <g id="top_right">
      <path d="M180.72,132.42c-3.05-2.68-2.82-7-.21-9.88s6.73-4.72,10.29-6.35a140.81,140.81,0,0,1,24.37-8c8.45-2.14,17-4,25.35-6.38,8.89-2.54,17.6-5.66,26.3-8.76,17.35-6.19,34.89-12.1,53.39-13.53,18.21-1.4,38.22,1.35,53.6,11.85a79.58,79.58,0,0,1,18.57,18.42c5.22,7,9.24,15.12,8.95,24.07-.55,16.54-13.11,30.27-26,39.22a112.13,112.13,0,0,1-46.65,18.49,96.53,96.53,0,0,1-27,.34c-9.32-1.23-18.27-4.08-27-7.46-9-3.48-17.82-7.29-26.69-11s-17.57-7.48-26.26-11.44-17.11-7.86-25.39-12.33c-7-3.75-14.67-8.6-17.48-16.43-1.17-3.26-1.28-6.89.72-9.84.58-.85-1.34-1.9-1.93-1-4.42,6.51.3,15,5.13,19.74,6.33,6.24,14.76,10,22.64,13.92,18.09,8.87,36.68,16.66,55.27,24.4,9,3.77,18.08,7.64,27.52,10.32a96.5,96.5,0,0,0,28,3.66c17.89-.3,35.57-5.5,51.22-14.06,14.19-7.76,28.16-19.16,33.8-34.85a34,34,0,0,0-.74-25.55c-3.58-8.15-9.56-15.34-15.83-21.57a66.33,66.33,0,0,0-22.4-14.77,89.91,89.91,0,0,0-28.28-6c-19.27-1-38.11,3.47-56.25,9.59-9.18,3.09-18.24,6.52-27.42,9.58-9,3-18.13,5.38-27.35,7.59-8.72,2.1-17.49,4.18-25.94,7.23a86.79,86.79,0,0,0-12,5.27c-3.26,1.75-7,4-8.18,7.73a8.43,8.43,0,0,0,2.79,8.78c.83.72,2.07-.09,1.1-1Z"/>
      <path d="M178.2,129.91c1.23.74,2.57,1.31,3.81,2a30.87,30.87,0,0,1,3.5,2.39,30.28,30.28,0,0,1,3.09,2.79,4.22,4.22,0,0,1,1.22,1.74.83.83,0,0,1-1.07,1c-.61-.19-.72.48-.23.76a1.6,1.6,0,0,0,2.42-1.84,5.44,5.44,0,0,0-1.43-2.06q-.91-1-1.92-1.83a32.48,32.48,0,0,0-4.3-3.18,18.31,18.31,0,0,0-4.92-2.37c-.44-.12-.51.33-.17.54Z"/>
      <path d="M178.77,128.26c5.52,2.07,11.14,3.93,16.29,6.87,2.38,1.36,5.47,3,6.7,5.63a3.88,3.88,0,0,1-.42,4.16,5.15,5.15,0,0,1-3.86,1.51c-.76,0-.14,1,.35,1,2.73.19,5.58-1.42,5.66-4.41.09-3.18-2.77-5.43-5.16-7-5.9-3.94-12.74-6.39-19.48-8.46-.62-.19-.58.53-.08.71Z"/>
      <path d="M179.55,125.87a57.93,57.93,0,0,1,25.4,8.65c3.1,2,7.75,6.12,6,10.36-1.45,3.4-6.26,3.9-9.45,4.09-.87.05-.06,1.11.55,1.09,3-.09,6.44-.53,8.76-2.57s2.19-5.34.75-7.94c-1.77-3.19-4.94-5.35-8-7.12a60,60,0,0,0-11-4.84,51.2,51.2,0,0,0-13.08-2.49c-.66,0-.32.71.16.77Z"/>
      <path d="M183.37,124.8a55.25,55.25,0,0,1,26.84,6.33,41.2,41.2,0,0,1,11.62,8.37c3,3.24,5.26,8.08,3.68,12.5-1.71,4.78-7.18,6.24-11.73,5.3-.92-.19-.89.81-.12,1,4.06,1.25,9.05.21,11.82-3.15,2.94-3.57,2.24-8.66.17-12.46-2.48-4.55-6.93-7.81-11.25-10.47a57.35,57.35,0,0,0-14.48-6.35,52.66,52.66,0,0,0-17-2c-.67,0-.05.86.43.85Z"/>
      <path d="M212.23,134.6a22.94,22.94,0,0,1,4.93,4.29c1.47,1.68,3,3.58,2.51,5.94-.39,2-1,4-2.71,5.28a29.71,29.71,0,0,1-6.26,3.11c-.68.29.24,1.09.75.92a20.5,20.5,0,0,0,6.81-3.54c1.63-1.41,2.43-4,2.6-6.12.18-2.3-1.49-4.3-2.93-5.91a25.19,25.19,0,0,0-5.44-4.47c-.41-.27-.67.24-.26.5Z"/>
      <path d="M186.62,124.15c12.45-1,25.2-1.38,36.72,4.19a107.35,107.35,0,0,1,15.3,9.61,26.65,26.65,0,0,1,6.41,5.65,9.25,9.25,0,0,1,1.42,8c-1.8,6.26-8.89,8.69-14.55,10.09-1,.25-.1,1.46.64,1.28,5.29-1.32,11.49-3.31,14.39-8.34a10.5,10.5,0,0,0,1.17-7.59,13.49,13.49,0,0,0-4.68-6.93,90,90,0,0,0-7.91-5.78c-2.63-1.81-5.32-3.57-8.11-5.14a50.66,50.66,0,0,0-18.85-6.3c-7.47-.93-14.91-.3-22.35.42-.65.06-.06.85.4.82Z"/>
      <path d="M218.37,156.82c1.84,1.2,4.21,1.15,6.3.8a15.33,15.33,0,0,0,5.41-2,11.69,11.69,0,0,0,5.8-8.71c.06-.69-1.34-1.25-1.46-.45a11.37,11.37,0,0,1-5,7.81,13.74,13.74,0,0,1-4.75,2c-1.84.38-4.1.67-5.79-.33-.77-.45-1.2.43-.47.9Z"/>
      <path d="M184.24,122.38c15.4-4.69,32-3.9,47.15,1.19,3.88,1.29,7.72,2.77,11.45,4.43a35,35,0,0,1,9.82,6.2,38.74,38.74,0,0,1,6.85,8.7,30.27,30.27,0,0,1,4,10c.67,3.83,0,7.75-2.87,10.53s-6.38,4.1-9.45,6.3c-.66.47.65,1.45,1.25,1,2.93-2.09,6.34-3.51,9-5.91a11.41,11.41,0,0,0,3.83-8.74c0-7.25-4.36-14.56-9-19.88a33.08,33.08,0,0,0-8.87-7.28,84.76,84.76,0,0,0-11.64-5.09,88,88,0,0,0-25.35-5.72,66.68,66.68,0,0,0-26.86,3.42c-.59.21.2.92.64.79Z"/>
      <path d="M254.94,147.75c1.78,1.64.36,3.75-1,5-1.78,1.6-3.63,3.14-5.43,4.71s-3.29,3.05-5.4,3.9-4.14.83-6.25,1.33c-.79.19-.16,1,.39,1.09a15.39,15.39,0,0,0,7.1-1.38c2.44-1.09,4.34-3.12,6.29-4.88l3.22-2.88a15,15,0,0,0,2.41-2.44,3.63,3.63,0,0,0-.67-5c-.47-.41-1.17,0-.62.54Z"/>
      <path d="M195.25,113.93a110.85,110.85,0,0,1,55.58,7c8.78,3.47,17.68,7.93,24.68,14.38,6,5.57,12.16,15.23,8,23.59-2.15,4.3-6.54,7-10.86,8.68-5.21,2.08-10.77,3.08-16.15,4.62-.85.25.28,1.38,1,1.18,8.75-2.51,19.89-3.66,25.94-11.32,5.77-7.3,2-17.29-3.29-23.67-6.23-7.47-15.13-12.47-23.87-16.41a115.58,115.58,0,0,0-28.62-8.69,96,96,0,0,0-32.75-.11c-.58.1,0,.8.37.74Z"/>
      <path d="M269.37,147.7a7.46,7.46,0,0,1,2.8,4.93,11.39,11.39,0,0,1-1.41,6.33c-1.69,3.55-3.78,6.82-7.08,9.06-.49.34.44,1.08.86.85,3.89-2.17,6.29-6.44,7.91-10.45s1.13-8.45-2.5-11.22c-.46-.35-1.13.07-.58.5Z"/>
      <path d="M204.19,111.51A178.76,178.76,0,0,1,274,119.62a174.34,174.34,0,0,1,17,6.44,75,75,0,0,1,15.22,8.65c8.8,6.72,16.12,17.56,11.57,28.93-2.17,5.41-6.64,9.56-11.71,12.26a89.78,89.78,0,0,1-8.75,3.73c-1.48.59-2.95,1.2-4.37,1.91-1.26.62-3.13,2.16-4.55,1.3-.64-.39-1.36.34-.66.82,2.31,1.56,4.42-.09,6.56-1.13,2.75-1.33,5.64-2.34,8.47-3.49,5-2.06,9.76-4.86,13.21-9.16a21.07,21.07,0,0,0,4.58-15.72c-.67-5.6-3.66-10.64-7.41-14.74-8.22-9-19.91-14.06-31.12-18.25a181.76,181.76,0,0,0-37-9.54,154.72,154.72,0,0,0-41.23-.89c-.62.08-.06.81.38.77Z"/>
      <path d="M266.81,173.71c2.57.92,5.21.62,7.84.14a14.72,14.72,0,0,0,11.65-7.1,68.43,68.43,0,0,0,4.61-7c.29-.54-.8-1.22-1.17-.77-2.83,3.45-4.71,7.81-8.21,10.7a14.15,14.15,0,0,1-6.66,2.73c-2.64.5-5.29,1-7.94.24-.91-.25-.85.78-.12,1Z"/>
      <path d="M286.6,175.7c2.54.55,4.73-.4,6.94-1.59a39,39,0,0,0,6.24-4.17,34,34,0,0,0,5.14-5.18c1.41-1.78,2.65-3.94,2.28-6.3-.09-.53-1.39-1-1.4-.28-.09,4.43-3.79,7.88-7,10.56a38.23,38.23,0,0,1-5.45,3.84c-2.05,1.2-4.35,2.55-6.81,2.19-.72-.11-.5.81,0,.93Z"/>
      <path d="M251.82,113c8.44,3.22,16.91,6.89,24.19,12.33A57,57,0,0,1,292.15,144c.32.6,1.74.69,1.31-.17a55.08,55.08,0,0,0-16.59-19.24c-7.53-5.59-16.18-9.27-24.94-12.46-.76-.28-.72.65-.11.88Z"/>
      <path d="M225.77,108.42c21.56-1.79,42.89,3,63.35,9.37q7.8,2.43,15.5,5.15a96,96,0,0,1,14.6,6.27c8.21,4.53,16.76,11.9,17.33,21.94.66,11.65-9,19.53-18.52,24.1-.83.4.31,1.5,1,1.19,8.53-4.09,17.06-10.47,18.81-20.36,1.79-10.09-4.65-18.69-12.4-24.33-8.88-6.46-19.69-9.79-30-13.18a273.22,273.22,0,0,0-33.24-9c-12.09-2.34-24.53-3.55-36.8-2-.65.09-.05.85.4.81Z"/>
      <path d="M309.71,129.2c6.3,3.58,10.88,9.25,14.32,15.53,1.86,3.4,3.5,7.19,3.61,11.12a12.35,12.35,0,0,1-3.58,9.09c-.47.5.51,1.08,1,.78,2.93-1.94,4.13-5.65,4.12-9,0-4.14-1.63-8.13-3.57-11.72-3.6-6.67-8.63-13-15.49-16.47-.61-.32-1,.36-.37.7Z"/>
      <path d="M244.07,105.4c3.87,0,7.73-.17,11.6-.11s7.84.3,11.74.68a153,153,0,0,1,23.84,4.24c15.32,4,30,10.11,42.15,20.41,5.65,4.77,14.36,12.67,11,21-.26.65,1,1.33,1.31.7,3.47-6.76-2.62-14.27-7.19-18.72a86.89,86.89,0,0,0-18.92-13.9,114,114,0,0,0-23.13-9.28,157.13,157.13,0,0,0-24.86-5.12c-4.66-.57-9.35-.93-14.05-1a77.18,77.18,0,0,0-13.68.49c-.47.07-.1.64.23.64Z"/>
      <path d="M229.65,104.47c20.19-2.83,40.85-3.61,61.11-1,18.31,2.37,37.17,8,50.81,21.07,6.57,6.27,12,14.39,13.13,23.58.08.73,1.63,1.07,1.52.15-1-8.14-5.33-15.52-10.77-21.49A67.94,67.94,0,0,0,323.21,111c-18.17-8.27-38.85-10.4-58.61-10.28a248,248,0,0,0-35.37,2.94c-.65.1-.06.9.42.83Z"/>
      <path d="M241.53,97.05c18.19.48,36.33.67,54.33,3.71a161.29,161.29,0,0,1,26.77,6.78c8.49,3,16.89,6.71,24.24,12,7.68,5.49,14.77,13.12,16.83,22.6.15.69,1.68,1,1.49.14-1.73-8.26-7.32-15.29-13.66-20.62-6.88-5.78-15-9.9-23.3-13.22-17.67-7.06-36.6-10.22-55.51-11.46-10.46-.68-21-.94-31.46-.66-.57,0-.13.76.27.77Z"/>
      <path d="M252.71,95l.35-.87a4.59,4.59,0,0,1,1,0c.32,0,.65,0,1,.08l2.45.2,4.89.44q4.65.43,9.29,1,9.57,1.08,19.1,2.51c11.82,1.78,23.9,3.56,35.31,7.18a67.23,67.23,0,0,1,17.08,8.15c.62.42,1.55-.09.79-.68-9.6-7.49-22.3-10.32-34-12.56Q288.63,96.32,267,94.25c-4.06-.39-8.12-.73-12.19-1-.86-.06-2.69-.43-3.2.58-.37.75.26,1.43.91,1.66.42.15.53-.35.17-.53Z"/>
      <path d="M277.84,89.21c15.75.31,31.56-.85,47.24,1.24,14.12,1.88,28.46,6.53,39.33,16.06,5.44,4.78,10.07,10.83,12.06,17.87.19.69,1.77,1,1.52.15-3.67-13-15.32-22.61-27.17-28.11C336.51,89.78,320.64,88.06,305,88c-9.15-.07-18.35,0-27.48.47-.58,0-.13.78.28.79Z"/>
      <path d="M301,80.88c22.45-.86,46.16,1.24,64.64,15.32a52.75,52.75,0,0,1,11.52,12c.33.48,1.6.39,1.16-.3-5.54-8.75-14.3-15.21-23.52-19.68-10.51-5.1-22.07-7.61-33.68-8.39a143.83,143.83,0,0,0-20.55.18c-.69,0-.05.88.43.86Z"/>
      <path d="M371.69,128.92a21.65,21.65,0,0,1,2.41,14.81c-1,5-3.59,9.45-6.63,13.43a125.56,125.56,0,0,1-9.64,11,71.2,71.2,0,0,1-10.18,8.9,44,44,0,0,1-14.73,6.66c-.92.23-.09,1.31.59,1.18,9.66-1.89,17.83-7.93,24.59-14.82a139.78,139.78,0,0,0,9.77-11c3.2-4,6.05-8.5,7.28-13.56a21.82,21.82,0,0,0-2.59-16.69c-.23-.38-1.18-.43-.87.11Z"/>
      <path d="M380.77,128.65a24.91,24.91,0,0,1,0,14.51,54,54,0,0,1-5,11.41,61.61,61.61,0,0,1-15.41,17.84A70.82,70.82,0,0,1,348.48,180c-.79.41.3,1.44.93,1.13,14.88-7.35,27.2-20.33,32.27-36.3a25.16,25.16,0,0,0,.1-16c-.15-.44-1.19-.68-1-.1Z"/>
      <path d="M375.43,101.15l-1.27-1.38a.24.24,0,0,0-.25-.08.12.12,0,0,0,0,.2c.4.47.82.93,1.23,1.39a.28.28,0,0,0,.28.09c.1,0,.09-.15,0-.22Z"/>
      <path d="M385.08,109.11c9.2,11.21,12.5,28.38,3.21,40.56-.42.56.91,1.38,1.34.89,1.33-1.48,1.58-3.31,1.67-5.23a40.71,40.71,0,0,0-.23-6.53,51.26,51.26,0,0,0-3.44-13.8c-.22-.54-1.38-.58-1.09.14a49.09,49.09,0,0,1,3.32,12.65,43.17,43.17,0,0,1,.21,6.33c-.08,1.94-.33,3.92-1.68,5.43l1.34.89a29.21,29.21,0,0,0,5.52-20.27,39.46,39.46,0,0,0-9.17-21.47c-.43-.52-1.57-.28-1,.41Z"/>
      <path d="M370.21,105.85a40.88,40.88,0,0,1,10.62,17.87c2.13,7.38,2,15,.86,22.58-.1.69,1.31,1.23,1.46.44a47.66,47.66,0,0,0-1-23.63A42.87,42.87,0,0,0,371,105.21c-.54-.52-1.37,0-.74.64Z"/>
      <path d="M322.69,93.45c21.47,7.12,44.37,23.36,48.12,47.24a32,32,0,0,1-2.09,17.76l1.34.55c1-4.83,2.12-9.67,1.87-14.65a29.52,29.52,0,0,0-3.1-11.48,45.58,45.58,0,0,0-16.89-18.19c-.78-.49-1.24.43-.49.92,6.75,4.41,12.7,10.46,16.19,17.78a28.58,28.58,0,0,1,2.85,10.83c.27,4.85-.72,9.68-1.81,14.37-.13.57,1.06,1.13,1.33.55,4.91-10.41,2.46-22.95-2.76-32.74-5.71-10.73-15.09-19.25-25.42-25.43a94.29,94.29,0,0,0-19-8.61c-.95-.31-.92.84-.13,1.1Z"/>
      <path d="M292.35,129.53c6.15,4.75,11.94,10.51,15.31,17.61,2.85,6,3.51,13.12-.09,19a16.2,16.2,0,0,1-8.31,6.46c-.64.24.16,1.07.63,1,6.54-1.6,10.84-7.65,11.5-14.16.77-7.56-3.05-14.75-7.72-20.42a64.54,64.54,0,0,0-10.61-10c-.56-.42-1.38.1-.71.61Z"/>
      <path d="M284,171.75c2.49.56,4.51-.55,6.34-2.17a27.89,27.89,0,0,0,5.14-6,17.92,17.92,0,0,0,1.86-15.85c-.17-.45-1.33-.63-1.15,0a18.4,18.4,0,0,1-1.55,14.3,24.79,24.79,0,0,1-4.13,5.37c-1.67,1.67-3.79,3.8-6.38,3.18-1-.23-1,.92-.13,1.11Z"/>
      <path d="M297.86,181.42c1.37,2.81,4.73,1.74,7,1a99.88,99.88,0,0,0,9.77-3.68,81.51,81.51,0,0,0,17.29-9.92c.73-.56-.7-1.5-1.33-1.08a121.46,121.46,0,0,1-14.68,8.54c-2.52,1.2-5.09,2.29-7.7,3.29-1.38.53-2.78,1-4.19,1.5-1.2.41-3.95,1.75-4.79.16-.33-.63-1.82-.71-1.38.18Z"/>
      <path d="M320.56,186.82c9.57-1,19.26-3.4,27.8-8,.85-.45-.33-1.55-1-1.23a90.07,90.07,0,0,1-27.37,8c-.93.11-.09,1.26.59,1.18Z"/>
      <path d="M264.27,165.27c2.5.08,4.22-2.09,5.48-4a18.82,18.82,0,0,0,2.8-7.74c.85-6.22-.94-12.51-3.31-18.22-.3-.72-1.86-.79-1.47.19,2.05,5.22,3.73,10.86,3.24,16.52a19,19,0,0,1-1.91,6.9c-1,2-2.8,5-5.27,5.14-.9,0-.19,1.21.44,1.23Z"/>
      <path d="M232.12,112.28c7.92,1.31,16.06,1.18,23.91,3,6.35,1.45,12.8,4.17,17.11,9.22.48.57,1.76.32,1.12-.46-4.32-5.27-10.83-8.2-17.32-9.78-8.22-2-16.76-1.84-25.08-3.21-1-.17-.51,1.12.26,1.25Z"/>
    </g>
  </g>
</svg>
