<svg id="mussels" xmlns="http://www.w3.org/2000/svg" viewBox="0 0 1001 483">
  <path d="M468 315a16 16 0 00-3-1l-4-1-8-1-15-2a200 200 0 00-31 1 193 193 0 00-59 16c-9 4-19 9-26 17l-9 11c-3 3-6 7-7 11-1 5 1 10 3 14a70 70 0 007 14c5 9 13 15 21 21s17 12 26 16a73 73 0 0030 8 201 201 0 0034-2 186 186 0 0034-5l33-11c10-3 20-5 30-10a48 48 0 0012-9 76 76 0 009-12l4-6a16 16 0 002-7c1-4-1-9-4-13-4-6-11-10-18-15a107 107 0 01-10-7 47 47 0 01-9-10l-9-11a33 33 0 00-12-6c-10-3-20-3-30-3a86 86 0 01-17-2l1 2c10 2 21 1 32 2 9 0 19 2 26 9l8 11a47 47 0 009 9l20 14a41 41 0 018 8c3 3 5 8 4 13l-4 7-4 6a62 62 0 01-9 11c-8 7-17 11-26 14l-32 10c-11 4-21 6-32 8l-34 3c-11 0-22 1-32-2s-19-7-27-13l-24-17a55 55 0 01-10-11 75 75 0 01-6-15c-2-5-5-9-3-15 2-4 6-7 9-10l9-12a58 58 0 0113-8 191 191 0 0156-20 198 198 0 0160-1l7 1 3 1a22 22 0 004 0c1 0 1 0 0 0z"/>
  <path d="M351 326a24 24 0 01-4 4l-3 4-8 6a30 30 0 00-9 16 47 47 0 000 19c1 7 3 13 6 19a91 91 0 008 8c2 3 4 5 8 7v-1a100 100 0 01-13-13 27 27 0 01-5-9 70 70 0 01-3-10c-2-12-1-25 9-34l8-7 3-4 3-4v-1z"/>
  <path d="M366 321l-2 4a43 43 0 01-3 4 34 34 0 01-7 7 37 37 0 01-5 2 15 15 0 00-4 3l-4 8c-3 13-1 28 8 39 4 5 10 9 16 10v-1c-12-3-21-14-23-27a54 54 0 010-20l4-8a22 22 0 015-3 35 35 0 004-2 34 34 0 007-6 29 29 0 003-4l2-5-1-1z"/>
  <path d="M388 315l-2 4-3 4a39 39 0 01-7 6 44 44 0 01-8 5 19 19 0 00-7 5c-8 9-2 23 3 33 3 5 7 10 13 12v-1c-5-2-9-6-11-11-3-5-6-11-7-17s0-12 4-16l8-4a38 38 0 0013-11 29 29 0 002-4l2-4v-1z"/>
  <path d="M404 314l-2 5a25 25 0 01-4 4 64 64 0 01-8 5l-8 7a17 17 0 00-4 9c-1 14 6 28 18 36a49 49 0 0022 9l-1-2c-13-3-26-9-33-22a35 35 0 01-5-19c1-4 2-8 4-10a35 35 0 018-6 52 52 0 008-7 24 24 0 004-3 51 51 0 002-5l-1-1z"/>
  <path d="M404 382a39 39 0 006 3l6 2a102 102 0 0012 4 123 123 0 0027 2 165 165 0 0026-2c9-1 18-4 25-9 3-3 7-6 9-10s2-8 0-11h-1c3 4 1 8-1 11a44 44 0 01-9 9c-7 5-15 7-23 8-17 3-34 4-50 1a106 106 0 01-14-3l-6-3-7-3v1z"/>
  <path d="M398 395a51 51 0 007 2 144 144 0 0020 6 121 121 0 0028 3 92 92 0 0028-5 132 132 0 0014-5 94 94 0 0012-7c7-5 15-13 15-23h-1a29 29 0 01-4 11 36 36 0 01-9 9 78 78 0 01-12 7 140 140 0 01-13 6c-18 6-37 7-55 4a150 150 0 01-15-4l-8-2-7-3v1z"/>
  <path d="M386 405a54 54 0 008 3 168 168 0 0023 5 156 156 0 0031 2 142 142 0 0031-5c10-2 19-5 28-11s15-16 14-26c0 0 0-1 0 0a34 34 0 01-5 13 37 37 0 01-9 10c-8 6-17 10-27 13a148 148 0 01-60 4 168 168 0 01-17-3l-9-3-8-2z"/>
  <path d="M347 407a68 68 0 008 4l8 4a162 162 0 0017 5 165 165 0 00106-6c11-5 23-12 28-23v-1c-6 10-15 17-25 22a146 146 0 01-34 11 164 164 0 01-71-2 159 159 0 01-19-6l-9-4-9-4s-1 0 0 0zM440 314a16 16 0 00-5 1 11 11 0 00-4 3c-2 3-3 6-1 9a8 8 0 012-9 12 12 0 013-3 27 27 0 015-1z"/>
  <path d="M434 319c-3 4-2 10 1 14a32 32 0 007 7l10 7v-1l-9-6a48 48 0 01-7-5c-3-4-6-11-1-16h-1zM501 345a37 37 0 01-27 6l-4-1c-1 0 0 0 0 0h2a38 38 0 007 1 40 40 0 0012-1 37 37 0 0013-7c1 0 0-1 0 0a41 41 0 01-19 6c-7 0-14-1-18-8v1c3 6 11 7 17 7a41 41 0 0020-6 40 40 0 01-35 7 37 37 0 0032-5z"/>
  <path d="M481 358a91 91 0 01-11-1 68 68 0 01-31-14l-4-3-2-2-1-1-1-1 4 3 4 4a72 72 0 0019 10 64 64 0 0025 4 79 79 0 01-22-3 72 72 0 01-20-10 69 69 0 01-10-9 68 68 0 0038 22 55 55 0 0012 1c1 0 0 0 0 0zM454 359a73 73 0 01-11-4 54 54 0 01-10-7 52 52 0 01-14-19c4 13 16 22 28 28 4 2 8 4 13 4l-2-1c-1 0-1 0 0 0l2 1c-4 0-8-2-12-4a85 85 0 01-9-5 54 54 0 01-15-13 37 37 0 01-5-9v-1 1l1 2 3 5a54 54 0 0012 13 53 53 0 009 6 39 39 0 0010 4v-1zM454 334l-4-3a30 30 0 01-4-4 22 22 0 01-3-4 18 18 0 01-1-2 6 6 0 01-1-2l2-2a3 3 0 00-2 3 6 6 0 001 4l9 8v-1l-8-5c-2-2-3-6-1-9h-1c-1 2 0 6 1 8 2 3 6 5 9 7v-1c-3-1-5-3-7-6a10 10 0 01-3-4 3 3 0 012-4 1 1 0 00-2 1 4 4 0 000 2 19 19 0 003 6 27 27 0 005 5 26 26 0 005 3zM487 339a3 3 0 002 0 6 6 0 001 0 6 6 0 002-2 6 6 0 002-6h-1a6 6 0 01-5 6 6 6 0 006-6h-1a6 6 0 01-1 6 6 6 0 01-2 1 6 6 0 01-2 1h-1zM427 384a63 63 0 01-32-14c-3-3-6-7-6-12 0 0 0-1 0 0-2 1-1 4-1 6a16 16 0 005 6 35 35 0 0018 8c-6-2-12-3-16-6a18 18 0 01-6-6c-1-3-2-6 0-8-1 8 8 14 14 18a64 64 0 0012 5 41 41 0 0012 3c1 0 0 0 0 0z"/>
  <path d="M443 385l-9-2a90 90 0 01-10-2 47 47 0 01-15-8 32 32 0 01-5-6l-2-2-1-1 3 3a55 55 0 0011 9 35 35 0 0017 6v-1c-12-1-23-8-31-18v1c4 6 10 11 16 14a63 63 0 0012 4 103 103 0 0014 3zM387 351c-2-6 1-15 7-19l9-7a30 30 0 006-9 51 51 0 01-8 10c-3 2-7 4-9 7a20 20 0 00-5 8 21 21 0 000 10s0 1 0 0z"/>
  <path d="M390 348c-1-4 2-8 5-11l10-7c5-4 12-9 11-17 0 9-8 14-14 18a38 38 0 00-9 8 16 16 0 00-4 9h1z"/>
  <path d="M402 335l-2 5a29 29 0 000 8 28 28 0 007 14 34 34 0 01-6-14 31 31 0 01-1-7c0-2 0-5 3-6h-1zM397 339c-2 1-2 3-1 5a29 29 0 001 7 27 27 0 006 11 32 32 0 01-6-11 30 30 0 01-1-5c0-2-1-5 1-7zM407 333c-2 5 0 10 2 14 1 4 4 8 8 10a23 23 0 01-8-10 48 48 0 01-2-6v-8zM415 325v12a29 29 0 003 9 22 22 0 0014 11c-6-3-11-6-14-12a30 30 0 01-2-9 59 59 0 01-1-11zM368 358c-2-7 2-16 7-22s11-10 17-15c-7 5-13 10-18 16a32 32 0 00-5 10 24 24 0 00-1 11z"/>
  <path d="M365 358c-2-7 1-15 5-20s11-9 17-13c0 0 0-1 0 0-7 3-13 8-18 13a27 27 0 00-4 10 22 22 0 00-1 10h1z"/>
  <path d="M353 360c-2-8 3-16 9-21 5-6 12-11 18-16l-11 9-9 8a31 31 0 00-6 9 20 20 0 00-2 10h1z"/>
  <path d="M347 359c-2-4 2-8 4-11a108 108 0 016-8l7-8 8-7v-1l-9 8a105 105 0 00-14 18c-2 3-4 6-2 9zM333 362c0-4 2-8 4-12l7-9a53 53 0 017-8 31 31 0 0110-5v-1c-8 2-13 8-17 14a112 112 0 00-7 10 35 35 0 00-5 11h1z"/>
  <path d="M330 361c0-3 1-7 3-10a68 68 0 015-7 79 79 0 0114-13 63 63 0 00-14 13 61 61 0 00-6 8 14 14 0 00-2 9zM318 371c-2-2-1-4 0-6a46 46 0 012-4 67 67 0 015-8l6-8c2-2 4-4 4-7 0 0 0-1 0 0l-6 9-6 8a51 51 0 00-5 9c-1 2-2 5 0 7z"/>
  <path d="M313 364c1-5 5-10 9-14 4-3 9-6 13-11l-7 6a84 84 0 00-7 6 31 31 0 00-5 6 23 23 0 00-3 7zM311 366a51 51 0 000 10 36 36 0 002 9 34 34 0 0012 15 36 36 0 01-14-24 27 27 0 010-9v-1z"/>
  <path d="M313 371l3 9a73 73 0 004 8 68 68 0 0011 15 80 80 0 01-11-15 73 73 0 01-4-8 51 51 0 01-3-9zM318 370l5 13a84 84 0 007 13 47 47 0 0017 16 54 54 0 01-17-17 84 84 0 01-6-12 122 122 0 01-5-13h-1zM326 381zM330 376a26 26 0 003 8 75 75 0 005 8 55 55 0 005 7 19 19 0 007 5 31 31 0 01-7-5 54 54 0 01-5-7c-3-4-8-10-8-16 0-1 0-1 0 0zM331 370a146 146 0 0011 20c4 5 8 11 14 14a22 22 0 009 4c-8-2-15-7-20-14a105 105 0 01-7-11 100 100 0 01-7-13s0-1 0 0z"/>
  <path d="M339 379a143 143 0 0015 15 48 48 0 0019 11 60 60 0 01-19-11l-15-15zM352 381l-2-1v1a93 93 0 0037 21 81 81 0 0012 3c-14-3-28-9-41-18l-4-3-3-2a11 11 0 00-1-1 11 11 0 012 0zM357 381a110 110 0 0010 6l10 6a140 140 0 0023 9l-22-9-11-6-10-6zM360 377a117 117 0 0010 7l10 6a171 171 0 0022 10l-22-10-10-7-10-6s-1 0 0 0zM421 430a59 59 0 008 0h7a125 125 0 0015-2 126 126 0 0030-10 98 98 0 0015-8v-1a145 145 0 01-28 14 127 127 0 01-30 7h-17z"/>
  <path d="M455 427a98 98 0 0012-3l13-4a190 190 0 0026-10c3-2 8-4 10-7v-1c-3 4-6 6-10 7l-12 6a197 197 0 01-25 8l-15 3 1 1z"/>
  <path d="M489 421a52 52 0 009-4 68 68 0 008-5 61 61 0 0015-13 90 90 0 01-15 13 72 72 0 01-8 5 100 100 0 01-10 4zM518 406c6-3 12-8 16-13a21 21 0 005-9 29 29 0 000-10s0-1 0 0l-1 11-5 8c-5 5-9 10-15 12v1z"/>
  <path d="M523 400l8-11a24 24 0 002-12c0 8-4 16-10 22v1zM522 349l13 10a21 21 0 016 15s0 1 0 0c1-5-2-10-5-14a33 33 0 00-6-6 49 49 0 00-8-5z"/>
  <path d="M523 352a36 36 0 0110 11 34 34 0 015 15 31 31 0 00-4-15c-3-4-7-9-11-11z"/>
  <path d="M529 357a65 65 0 016 15 70 70 0 012 7 23 23 0 010 9 17 17 0 000-8 70 70 0 00-1-8 79 79 0 00-6-15s-1 0 0 0zM537 360a29 29 0 013 4 20 20 0 013 3 22 22 0 012 9 17 17 0 00-2-9 19 19 0 00-4-5 7 7 0 00-2-2zM521 361a40 40 0 00-1-5 24 24 0 00-2-5 22 22 0 00-7-6c0-1 0 0 0 0a27 27 0 017 7 24 24 0 012 4 16 16 0 011 5zM514 366l-1-7a49 49 0 00-2-6 44 44 0 00-5-11 63 63 0 015 11 52 52 0 012 6 29 29 0 010 7h1z"/>
  <path d="M508 345v-1h-1c1 6 1 12-1 18a19 19 0 01-5 6 25 25 0 01-6 5c5-1 9-6 11-11a27 27 0 002-9v-4-3a12 12 0 000-1s-1-1 0 0z"/>
  <path d="M509 359c0 2-1 5-3 7a26 26 0 01-4 7 27 27 0 01-14 7 24 24 0 0014-7 25 25 0 005-7 26 26 0 001-3l1-4c1 0 0-1 0 0zM507 369a7 7 0 01-1 2 15 15 0 01-1 3 17 17 0 01-2 4 17 17 0 01-9 5 15 15 0 009-5 16 16 0 003-4 17 17 0 001-3v-2-1zM517 363a26 26 0 01-1 9 35 35 0 01-3 8 37 37 0 01-5 7 45 45 0 01-6 6c5-2 9-7 11-12a35 35 0 003-9 54 54 0 001-9zM519 375a20 20 0 01-1 4 45 45 0 01-1 4 47 47 0 01-5 8 51 51 0 01-12 12v1a42 42 0 0013-13 46 46 0 004-8 42 42 0 002-4l1-4h-1zM486 386c-6 1-11 3-17 3a142 142 0 01-18 2h-8l3-1h5a155 155 0 0016-1 148 148 0 0020-4h-1a175 175 0 01-24 4h-17a4 4 0 00-3 2 116 116 0 0022-1 247 247 0 0022-4z"/>
  <path d="M490 378l-23 4a220 220 0 01-23 2 67 67 0 01-11-1 14 14 0 01-3-1 3 3 0 01-1 0c-1-2 0-2 1-2 2-1 4 0 6 1a117 117 0 0022 2 106 106 0 0025-1v-1a145 145 0 01-25 2 137 137 0 01-24-3c-1 0-7-1-5 1l3 2a58 58 0 006 1l25-1a226 226 0 0027-5zM491 394a152 152 0 01-27 6 133 133 0 01-29 1 185 185 0 0056-6c-18 3-37 7-56 6a134 134 0 0028 0 121 121 0 0028-7zM483 402l-30 8a178 178 0 01-23 5 12 12 0 01-7-1l41-4v-1l-41 5c3 2 7 1 10 1a114 114 0 0012-2l24-7 14-4zM354 414a2 2 0 00-2 0 124 124 0 0027 13 112 112 0 0029 7 53 53 0 0017-1c-10 2-21 1-31-2a126 126 0 01-28-10l-7-3-4-3a84 84 0 01-1-1z"/>
  <path d="M355 415a109 109 0 0014 6l14 4a163 163 0 0031 4 137 137 0 0017 0 188 188 0 01-30-1 166 166 0 01-30-7l-8-3-8-3zM355 407l9 3 8 2 17 5a159 159 0 0035 5 60 60 0 0020-3h-1c-11 3-23 3-34 1a205 205 0 01-35-7l-9-3-10-4v1z"/>
  <path d="M363 405a117 117 0 0016 6l17 3a186 186 0 0034 4 169 169 0 0019-1v-1a197 197 0 01-67-5l-10-3-9-3zM364 390a82 82 0 008 4 142 142 0 0025 7 182 182 0 0036 5 158 158 0 0020 0v-1a199 199 0 01-35 0 183 183 0 01-35-8l-10-3-9-4z"/>
</svg>
