<svg xmlns="http://www.w3.org/2000/svg" viewBox="0 0 1906.27 74.51">
  <g id="Layer_2" data-name="Layer 2">
    <g id="substrate">
      <g id="pebbles">
        <g>
          <path d="M1323.34,28.33c0-.34.65-1,.86-1.21a6.66,6.66,0,0,1,1.07-.85,8,8,0,0,1,3-1.11,9.31,9.31,0,0,1,6.68,1.5,15.59,15.59,0,0,1,4.85,5.42,11.1,11.1,0,0,1,1.4,3.65,7.52,7.52,0,0,1-.53,3.75c-.09.27.22,1,.58.73,2.17-1.84.9-5.73-.11-7.82a17.71,17.71,0,0,0-5.4-6.64,10.44,10.44,0,0,0-7.43-2,8.81,8.81,0,0,0-3.48,1.2,6.57,6.57,0,0,0-1.42,1.15c-.49.52-.79,1.15-1.24,1.69s1.31,1.44,1.19.58Z"/>
          <path d="M1273,32.07a9.14,9.14,0,0,1,1.71-2.28c.64-.8,1.29-1.58,2-2.36q1.71-2,3.51-4a63.16,63.16,0,0,1,7.63-7.45c1.72-1.3,3.46-1.21,5.46-.76a41.36,41.36,0,0,1,5.23,1.45c3.31,1.24,5.84,3.36,6.48,7,.07.35.73,1.1.89.38.77-3.23-1.94-6.31-4.5-7.84a19.71,19.71,0,0,0-5.5-2.09c-1.92-.47-4.08-1.17-6.07-.87s-3.36,1.7-4.73,3q-2.35,2.22-4.59,4.56c-1.49,1.55-2.93,3.15-4.33,4.78-1.56,1.84-3,3.87-4.62,5.61-.57.6,1.19,1.82,1.48.89Z"/>
          <path d="M1596.79,34.59l-.21-.48.1.7c.44-2.32,1.44-5.23,4-6a4.61,4.61,0,0,1,3,.18,2.82,2.82,0,0,1,1.07.69,2.63,2.63,0,0,1,.33.49l.13.2c-.06-.12-.07-.12,0,0s.1.25.14.37.33.39.43.11a2.55,2.55,0,0,0-.89-2.51,4.5,4.5,0,0,0-2.56-1.18,5.33,5.33,0,0,0-5.26,3,10.51,10.51,0,0,0-.8,1.89c-.1.31-.19.62-.26.93a3,3,0,0,1-.35,1.15c-.29.36.26.84.55.94s.83,0,.64-.49Z"/>
          <path d="M1595,35.08a9.14,9.14,0,0,1,.41-2.07,7.39,7.39,0,0,0-.06-2.15,9.53,9.53,0,0,0-1.6-3.86c-2-2.8-5.33-3.74-8.58-4.13-1.91-.23-3.84-.35-5.76-.41-1.71-.06-3.33.15-4.43,1.59a8.54,8.54,0,0,0-1.37,4c-.15,1-.28,1.93-.41,2.9a11.9,11.9,0,0,0,0,3c0,.41.81,1.45,1.17.71a7,7,0,0,0,.74-1.94c.12-.74.22-1.48.32-2.21a11.55,11.55,0,0,1,.8-3.68c.63-1.27,1.84-1.58,3.17-1.64a45.64,45.64,0,0,1,4.82.13c2.68.19,5.74.45,7.83,2.33,1.59,1.42,3,4.77,1.45,6.69-.67.85,1.63,1.71,1.46.71Z"/>
          <path d="M1553.72,56.05c-2.43-2.6.31-6.54,3.12-7.39,4-1.2,8.35,1.14,10.23,4.69a21.5,21.5,0,0,1,1.84,7.33c.1.84,1.27,1.6,1.42.37.68-5.52-1.86-11.75-7-14.35-4.34-2.2-10.19-1.23-11.84,3.83a6.79,6.79,0,0,0,1.43,6.83c.93.93,1.42-.62.77-1.31Z"/>
          <path d="M1542,42.38c-1.94-3,1.46-6.51,3.37-8.57,2.18-2.34,5-4.76,8.4-3.35,2.61,1.1,6.18,3.37,6.44,6.49a8.91,8.91,0,0,1-1.27,4.76c-.43.82-.9,1.63-1.35,2.45s-.86,1.73-1.33,2.57c-.23.41.25,1.72.8,1.2a22.49,22.49,0,0,0,1.76-1.63,13.24,13.24,0,0,0,1.62-2.25,13,13,0,0,0,1.65-4.73,9.52,9.52,0,0,0-3.79-8.57c-2.33-1.89-5.51-3.86-8.62-3s-5.31,3.6-7.21,5.93c-2.27,2.79-3.46,6.47-1.27,9.69.58.84,1.21-.34.8-1Z"/>
          <path d="M1556.25,26.52c-.14,0,.31-.45.36-.5a2.83,2.83,0,0,1,.61-.41,5.43,5.43,0,0,1,1.57-.45,6.83,6.83,0,0,1,3.11.25,5.22,5.22,0,0,1,3.6,5,24.32,24.32,0,0,1-.63,4.39c0,.38.55,1.56,1,1a7.1,7.1,0,0,0,1.28-4.84,9.5,9.5,0,0,0-1.69-5.2,6.85,6.85,0,0,0-7.9-2.44,6.09,6.09,0,0,0-1.86,1.27c-.13.14-.25.28-.37.43s-.54.43-.53.79a1,1,0,0,0,.62.76.83.83,0,0,0,.38.1h.17a.4.4,0,0,0,.26-.16Z"/>
          <path d="M1562.16,39.13l-.13-.55,0,.72a8,8,0,0,1,1.36-2.22,5.76,5.76,0,0,1,2.07-1.67c.48-.15,1.14.57,1.44.94.45.54.82,1.14,1.23,1.71a5.31,5.31,0,0,0,3.54,2.43,6.82,6.82,0,0,0,2.5-.19,4.85,4.85,0,0,0,2.54-1.2.65.65,0,0,0-.32-1,8.84,8.84,0,0,0-2.76.54,5.36,5.36,0,0,1-2.92-.07c-1.42-.53-2.08-2-3-3.17a5.19,5.19,0,0,0-1.49-1.35,2.17,2.17,0,0,0-1-.36c-.36,0-.77.38-1.06.57a9,9,0,0,0-1.9,1.8c-.59.75-.89,1.7-1.48,2.42s1.54,1.52,1.33.64Z"/>
          <path d="M1512.2,42.88c-1.59-1.59,1.18-2.33,2.29-2.58l4-.88c2.79-.62,5.57-1.32,8.38-1.83,2.45-.44,5.47-.6,7.47,1.17,1.65,1.46,2.72,6.78-.59,6.73-.94,0-.51,1.57.07,1.81,1.51.64,3-.62,3.34-2a9.87,9.87,0,0,0-.69-5.77c-1.41-3.34-5.23-4.21-8.51-3.82a61,61,0,0,0-7,1.51l-6.5,1.55c-1.43.34-3.29.72-3.76,2.35-.29,1,.06,2.55,1.28,2.65.54,0,.49-.56.21-.84Z"/>
          <path d="M1514.53,40.63l.12.33,0-.57a4.89,4.89,0,0,0,1,4.1,13.75,13.75,0,0,0,1.45,1.69,1.71,1.71,0,0,0,1.57.72c1.25-.3,1.28-2,.76-2.92a5.93,5.93,0,0,0-1.4-1.47c-.36-.31-.88-.75-.53-1.22l-.47.15c.92.5,1.1,1.83,1.57,2.67s1.45,2,2.66,1.75c.44-.08.66-.69.74-1.09a3.09,3.09,0,0,0,0-1.45,3,3,0,0,0-1.88-2.2c-.67-.2-.62.68-.45,1.07a8.14,8.14,0,0,0,2.18,2.85,7,7,0,0,0,1.49,1,3.66,3.66,0,0,0,.78.29.76.76,0,0,0,.77-.11c.2-.14.08-.51,0-.65a3.74,3.74,0,0,0-1.32-.92,7.63,7.63,0,0,1-1.28-.84,6.24,6.24,0,0,1-1.77-2.3l-.45,1.07a1.45,1.45,0,0,1,1.07.8,1.22,1.22,0,0,1-.22,1.21l.24-.08c-1.07.06-1.64-1.06-2-1.89a4.6,4.6,0,0,0-2-2.53.37.37,0,0,0-.47.15,2.49,2.49,0,0,0,.44,2.9,11.85,11.85,0,0,0,1.15,1.09c.32.3.55.46.39.81-.47,1-1.6-.6-1.92-1a3.14,3.14,0,0,1-1-2.8l-.16.26.32-.36c.34-.37-.3-.91-.6-1s-.89,0-.7.53Z"/>
          <path d="M1817.25,16.32c-1.63-2.51,1.8-4.44,3.84-4.83a28,28,0,0,1,8.27,0c2.36.29,5.14.68,7,2.38a3.35,3.35,0,0,1,1.12,2.62c-.06,1.09-.78,1.68-1.25,2.57-.12.23,0,.74.32.75,1.19.06,1.78-1.33,2-2.32a5.38,5.38,0,0,0-.58-3.36c-1.42-2.72-4.78-3.57-7.57-4a38.22,38.22,0,0,0-5.76-.44,14.92,14.92,0,0,0-5.19.67,5.34,5.34,0,0,0-3,2.56,4.38,4.38,0,0,0-.47,1.82c0,.5.27,1.14.26,1.52,0,.87,1.72.93,1.15.05Z"/>
          <path d="M1840.11,18.2c3.28,1.4,6.91-3.65,8.77-5.6a66,66,0,0,1,8.3-8,14.15,14.15,0,0,1,10.69-2.95,11.41,11.41,0,0,1,8.78,6.61c1.62,3.78,1.33,7.91,1,11.91-.05.5.76,1.41,1,.6,1.74-6.86.15-15.37-6.45-19.08A13.45,13.45,0,0,0,1861,.81c-3.69,1.36-6.65,4.12-9.33,6.91-1.85,1.92-3.67,3.89-5.5,5.84a18.2,18.2,0,0,1-2.69,2.5,7.86,7.86,0,0,1-3.61,1.17c-.59.1-.06.84.23,1Z"/>
          <path d="M1839,13.82l-.09-.23,0,.35a3.93,3.93,0,0,1,3.32-3.15,4.56,4.56,0,0,1,4.23,2c.21.28.41-.06.34-.29a4.46,4.46,0,0,0-7.29-1.43,4.62,4.62,0,0,0-.85,1.16,4.54,4.54,0,0,0-.24.61,2.44,2.44,0,0,1-.24.72c-.17.25.17.56.37.63s.56,0,.43-.32Z"/>
          <path d="M1881.15,17.07c-.59-.19-.77-.18-.55,0a.6.6,0,0,0,.22.16,1,1,0,0,0,.18.07,3.18,3.18,0,0,1,.32.16,2.67,2.67,0,0,1,.52.33l.28.22a.86.86,0,0,1,.14.13s.16.15,0,0a4.69,4.69,0,0,1,.46.54.64.64,0,0,1,.1.13.56.56,0,0,1,.05.08c-.05-.08-.06-.09,0,0s.12.2.17.3.1.21.15.31,0,0,0-.06l0,.09.06.15c.08.22.16.43.22.65s0-.11,0,.05l0,.19a1.64,1.64,0,0,0,.2.56c.13.25.46.46.66.16a1.57,1.57,0,0,0,.11-1.07,4.27,4.27,0,0,0-.23-1,6.35,6.35,0,0,0-1-1.82,6.14,6.14,0,0,0-1.55-1.32,4.15,4.15,0,0,0-.82-.4c-.41-.15-1,.15-.86.62a1,1,0,0,0,.4.56,1.38,1.38,0,0,0,.39.18.69.69,0,0,0,.35,0Z"/>
          <path d="M1887.9,17.16c0-.35.71-.88.95-1.1a11.6,11.6,0,0,1,1-.81,13.44,13.44,0,0,1,2.54-1.35,34.7,34.7,0,0,1,5.57-1.68,4.51,4.51,0,0,1,3.37.2,6.33,6.33,0,0,1,2.06,2.21,13.61,13.61,0,0,1,1.79,6.19c.06.6.9,1.12,1,.26a11.56,11.56,0,0,0-1.8-7.09c-1.18-2-2.87-3.71-5.33-3.49a17.88,17.88,0,0,0-3.36.81,32.15,32.15,0,0,0-3.47,1.17,15.91,15.91,0,0,0-2.77,1.46,16.71,16.71,0,0,0-2.69,2.56c-.47.51,1,1.32,1.1.66Z"/>
          <path d="M1834,18.73a18.9,18.9,0,0,0,5.86,2.13c2.15.51,4.54.5,6.58,1.38,2.61,1.13,5.7,4.86,8.85,3.8.21-.07.08-.49-.11-.5a8.5,8.5,0,0,1-4.84-1.56,23.5,23.5,0,0,0-4.27-2.57c-1.82-.71-3.86-.75-5.76-1.17a28,28,0,0,1-3.36-1,30.18,30.18,0,0,0-2.83-1.05c-.38-.09-.38.33-.12.5Z"/>
          <path d="M1905,21.45c-2-1.25-4.71-1.57-7-1.8-2.78-.27-5.58-.26-8.37-.32a51.42,51.42,0,0,0-8,.35c-1.39.19-2.79.42-4.2.49a30.6,30.6,0,0,1-4.17-.35c-.44,0-.2.72,0,.84,2.1,1,4.86.62,7.1.33a59.91,59.91,0,0,1,8.67-.64c2.66,0,5.32,0,8,.19a32.13,32.13,0,0,1,4,.49c1.3.25,2.53.82,3.83,1,.46.08.49-.41.15-.62Z"/>
          <path d="M1797.38,40.09c-.59-.56-.8-.55-.52-1.34a4.37,4.37,0,0,1,.65-1.15,21.72,21.72,0,0,1,2.25-2.46c1.57-1.51,3.52-3,5.78-3.16a6.06,6.06,0,0,1,5.22,2.39c1.27,1.56,1.84,3.56,3.08,5.12.31.39.66,0,.62-.35a11.77,11.77,0,0,0-2.53-5.49,8.32,8.32,0,0,0-4.64-3.26c-4.39-1-8.46,2.83-10.79,6.13a4.22,4.22,0,0,0-.88,2.73c.09.94.66,1.9,1.69,1.73.48-.08.3-.67.07-.89Z"/>
          <path d="M1788.76,28a7.2,7.2,0,0,1-1.92-1.68,5.49,5.49,0,0,1-.64-2,14,14,0,0,1,.41-4.94c.74-3.29,2.51-7.36,5.83-8.79,2-.87,4,.16,5.78,1.08a32.9,32.9,0,0,1,4.81,2.88c3.14,2.36,5.62,6,4.91,10.09-.07.46.55,1.42.83.66,1.21-3.32-.11-6.82-2.27-9.44-2.4-2.91-5.85-4.81-9.22-6.37a6.58,6.58,0,0,0-5-.67,8.87,8.87,0,0,0-3.82,3.15,18.49,18.49,0,0,0-3.32,9.62,10.1,10.1,0,0,0,.58,4.62c.47,1.16,1.58,2.84,3,2.77.66,0,.41-.68.07-1Z"/>
          <path d="M1799.86,16a3,3,0,0,1,0,1.36,11.16,11.16,0,0,1-.26,1.28,12.11,12.11,0,0,1-2.49,4.81c-.28.33-.58.65-.89.95a5.68,5.68,0,0,0-1,1c-.14.23,0,.84.4.74a3,3,0,0,0,1.11-.81,13.3,13.3,0,0,0,1-1,13.13,13.13,0,0,0,1.62-2.49,13,13,0,0,0,1-2.65c.11-.45.19-.9.26-1.36,0-.25.06-.5.07-.75a1.94,1.94,0,0,1,.09-.76c.34-.65-1.07-.92-.83-.31Z"/>
          <path d="M1803.5,17.46a10.1,10.1,0,0,1,.72,3.76,9.9,9.9,0,0,1-.18,1.88c-.13.66-.35,1.28-.49,1.93-.06.24.28.94.53.53a8,8,0,0,0,.87-4.1,11.67,11.67,0,0,0-.81-4.21c-.08-.18-.24-.45-.48-.38s-.23.41-.16.59Z"/>
          <path d="M1780.75,31.78c2.17-1.67,5-4,4.82-7s-2.89-4.88-5.63-5.46a201.07,201.07,0,0,0-11.39-.95c-3,.09-6.34,1-8,3.67-1.38,2.21-1.18,6.1,1.52,7.24.52.22.47-.67.25-.9-2.23-2.36-1.06-5.43,1.57-6.89,3-1.69,6.68-1.26,10-1,3,.28,7.1-.17,9.52,2.06,3,2.79-1.31,6.68-3.47,8.34-.45.35.4,1.11.78.82Z"/>
          <path d="M1645.16,23.06c-2.87-3.92-2.05-9.64,1.29-13a9.38,9.38,0,0,1,3.14-2.14c1.6-.64,3.17-.21,4.74.31a16.83,16.83,0,0,1,7.41,4.65,10.89,10.89,0,0,1,2.48,9.92c-.12.47.56,1.35.81.64,2.45-7-3.16-13.66-9.31-16.13a11.53,11.53,0,0,0-5.23-1.15,8,8,0,0,0-4,2,11.8,11.8,0,0,0-3.9,7.1,11.48,11.48,0,0,0,2,8.67c.51.68.85-.37.5-.85Z"/>
          <path d="M1652.8,9.51a9.74,9.74,0,0,1,1.67,6.59,13.79,13.79,0,0,1-2.56,6c-.1.16.08.6.29.44,1.86-1.39,2.72-4.08,2.92-6.3a11.28,11.28,0,0,0-.24-3.48,10.62,10.62,0,0,0-.54-1.74q-.16-.39-.36-.78a6.76,6.76,0,0,1-.45-.75c-.09-.58-1.07-.52-.73,0Z"/>
          <path d="M1658.81,12.84a6,6,0,0,1,.27,2.54,10.67,10.67,0,0,1-.35,2.31,10.88,10.88,0,0,1-.85,2.2c-.36.7-.83,1.34-1.12,2.07-.06.16.1.48.29.36a4.57,4.57,0,0,0,1.42-1.93,12,12,0,0,0,.85-2.4,11.83,11.83,0,0,0,.32-2.44c0-.41,0-.81,0-1.21l-.06-.59a1.86,1.86,0,0,1-.08-.74c.13-.48-.86-.61-.66-.17Z"/>
          <path d="M1655.1,37c-1.15-1-2.2-1.77-2.39-3.43a5.25,5.25,0,0,1,1.42-3.93,9.35,9.35,0,0,1,6.92-3,12.23,12.23,0,0,1,7.17,2.16c2.27,1.58,4.21,4.15,2.85,7-.12.25.12,1,.49.74,2-1.59.73-4.78-.51-6.44a12,12,0,0,0-6.23-4.14c-4.66-1.36-11.33,0-12.77,5.4a5.84,5.84,0,0,0,.3,3.8c.43,1,1.39,2.45,2.58,2.53.41,0,.41-.44.17-.65Z"/>
          <path d="M1665.36,35.72c-.06,0,.15-.35.17-.38l.22-.37.42-.71.85-1.44c.16-.26-.17-.87-.43-.54a11.05,11.05,0,0,0-1.62,2.88c-.08.18.11.71.38.59l3.43-1.57-.32-.2a.54.54,0,0,1,0,.24,1,1,0,0,1-.11.31,1.27,1.27,0,0,1-.61.51c-.33.13-.1.86.25.77a1.54,1.54,0,0,0,.86-2.18c0-.1-.2-.25-.33-.2-1.15.52-2.29,1-3.43,1.56l.38.59a10.81,10.81,0,0,1,1.53-2.76l-.43-.54-.85,1.46-.41.71a4.75,4.75,0,0,1-.55.85c-.12.12.06.33.15.4a.45.45,0,0,0,.25.09h.07a.19.19,0,0,0,.11-.07Z"/>
          <path d="M1676.78,27.38l0-.31-.07.45c1.61-3.16,3.87-7,7.8-7.38a6.5,6.5,0,0,1,5.56,2.42A8.1,8.1,0,0,1,1691.2,29c-.07.47.53,1.43.84.67a8.09,8.09,0,0,0-6.52-10.82,7.41,7.41,0,0,0-5.88,2.2,14.45,14.45,0,0,0-2,2.51c-.32.49-.62,1-.91,1.5a10.36,10.36,0,0,1-1,1.79c-.54.62,1.26,1.38,1.14.55Z"/>
          <path d="M1755.72,12.53c.33-.94,1.81-1.89,2.61-2.42a18,18,0,0,1,3.2-1.66,46.46,46.46,0,0,1,6.75-2c2.69-.64,5.6-.84,7.23,1.83s.46,5.44.43,8.22c0,.21.35.87.57.45,2.56-4.94.39-13-6.24-12.32A34.39,34.39,0,0,0,1761.74,7a19.44,19.44,0,0,0-3.58,1.82,18.42,18.42,0,0,0-3.37,3.17c-.35.38.72,1.15.93.56Z"/>
          <path d="M1758.5,14.7c-2.32-2.68-6-3-9.29-3.32-4.18-.36-8.65-.51-12.61,1.11-3.21,1.31-6,3.75-6.91,7.22a8.57,8.57,0,0,0,3.32,9.13,18.61,18.61,0,0,0,6.18,2.72c2.3.6,4.8,1.06,7.07.14.42-.17.23-1-.16-1.14-2.16-.62-4.38-.7-6.56-1.22a17,17,0,0,1-6.32-2.71c-3.57-2.74-2.22-7.53.82-10.1,3.31-2.8,7.87-3.5,12.07-3.47a48.85,48.85,0,0,1,6.51.42c1.9.27,3.94.77,5.28,2.24.69.75,1.07-.47.6-1Z"/>
          <path d="M1757.29,17c-.15-.11-.08-.07,0,0l.13.1.29.23c.18.16.34.32.5.49a6.68,6.68,0,0,1,.85,1.18,5.71,5.71,0,0,1,.54,1.27,9.19,9.19,0,0,1,.25,1.39c0,.21.16.5.4.55s.36-.15.36-.35a6.69,6.69,0,0,0-.9-3.26,7.87,7.87,0,0,0-2.2-2.53.29.29,0,0,0-.49.16.75.75,0,0,0,.24.74Z"/>
          <path d="M1766.83,11.66a3.69,3.69,0,0,1,.11,2.79,4.59,4.59,0,0,1-1.53,2.24c-.24.2,0,.86.35.65A9.55,9.55,0,0,0,1770,9l-.33.28a6.8,6.8,0,0,1,1.26,8.09l.51.63a26.43,26.43,0,0,0,1.18-2.73c.07-.21-.24-.75-.44-.43a21.23,21.23,0,0,0-1.25,2.53c-.14.3.28,1.06.51.63a7.84,7.84,0,0,0-1.6-9.31c-.21-.2-.34.1-.33.27a9,9,0,0,1-4.06,7.75l.35.65a5.14,5.14,0,0,0,1.72-2.61,5.51,5.51,0,0,0,.19-1.56,5.69,5.69,0,0,0-.07-.71c0-.17-.2-.56-.16-.7.12-.49-.91-.62-.61-.1Z"/>
          <path d="M1712.05,31.52c-1.8-2.57-1.84-5.68-1-8.61a24.34,24.34,0,0,1,1.7-4.09c.31-.59.62-1.17.94-1.75a7.65,7.65,0,0,1,1.22-1.94c2.27-2.13,5.06,1.58,6.68,2.81a14,14,0,0,0,7.16,3c.6,0,.37-1.1,0-1.23a24.18,24.18,0,0,1-4.61-1.67,16.92,16.92,0,0,1-3.71-2.75,7.17,7.17,0,0,0-3.37-2.15,3.06,3.06,0,0,0-3.37,1.33,33.79,33.79,0,0,0-2.34,4.46,21.15,21.15,0,0,0-1.54,4.43,13.47,13.47,0,0,0-.22,4.15,10.87,10.87,0,0,0,.47,2.18,9.08,9.08,0,0,0,.39,1,7,7,0,0,1,.46.8c.14.93,1.69.83,1.15.05Z"/>
          <path d="M1713.6,21.18a7.39,7.39,0,0,0,7.29,2.36c1.14-.27,2.62-1,2.54-2.39a1.91,1.91,0,0,0-.83-1.46c-.39-.23-1-.32-1.2.18a.37.37,0,0,0,.17.41c.18.1.36,0,.55.12a.9.9,0,0,1,.47.37c.22.37-.17.77-.45,1a4.83,4.83,0,0,1-2.81.86,7,7,0,0,1-2.9-.5,6.25,6.25,0,0,1-1.23-.64c-.39-.26-.74-.74-1.17-.9s-.77.17-.43.6Z"/>
          <path d="M1710.6,24.73a9,9,0,0,0,4,3.48,7.46,7.46,0,0,0,5.26.58c.32-.11.13-.8-.18-.8a12,12,0,0,1-4.85-.72,7.88,7.88,0,0,1-3.63-3c-.37-.6-.86,0-.56.48Z"/>
          <path d="M1700.9,30.5a4.33,4.33,0,0,1,.37-5.17,4.63,4.63,0,0,1,5.15-1.09,4.55,4.55,0,0,1,1.29.77,8.38,8.38,0,0,1,.93,1.12c.26.33.63.07.56-.31-.46-2.27-3.32-3.37-5.39-3.16a5.06,5.06,0,0,0-4.46,4.52,5.82,5.82,0,0,0,.88,3.9c.14.2.38.45.63.26s.18-.63,0-.84Z"/>
          <path d="M1704,32.16a9.67,9.67,0,0,0,5.66,1.28,11.57,11.57,0,0,0,2.74-.41c1-.28,2-.81,3-1.12,2.18-.66,4.1.67,6.14,1.2a6.21,6.21,0,0,0,5.33-.87c.26-.2,0-1-.34-.81a7.84,7.84,0,0,1-6,.34c-1.6-.56-3.19-1.37-4.93-1a19.29,19.29,0,0,0-2.62,1,11.62,11.62,0,0,1-3.08.67,11.92,11.92,0,0,1-2.86-.14c-1-.17-2-.65-3-.8-.47-.06-.27.53,0,.69Z"/>
          <path d="M1744.08,33a9.4,9.4,0,0,0,2-.26c.71-.08,1.42-.11,2.14-.12,1.5,0,3,.08,4.49.17s2.89.17,4.34.15a8.12,8.12,0,0,0,3.91-.68c.25-.15,0-.68-.24-.71a10.37,10.37,0,0,0-2.15.1c-.71,0-1.43.07-2.15.08-1.44,0-2.89-.06-4.33-.12s-2.88-.12-4.32-.06a12.52,12.52,0,0,0-4.22.67c-.47.19.29.76.51.78Z"/>
          <path d="M1215.42,57.12c-1-.18-1.77.11-2.72-.34a4.08,4.08,0,0,1-2.25-3.1,15.58,15.58,0,0,1,.53-6.47,22,22,0,0,1,18-16.42c2.09-.34,5.41-.83,7.18.6a27,27,0,0,1,2.4,2.5l2.86,3c1.73,1.84,3.56,3.77,3.9,6.38s-.74,5.37-.86,8.08c0,.44.6,1.55,1,.84a13.66,13.66,0,0,0,1.65-7.92,11.93,11.93,0,0,0-3.11-7.12c-2-2.29-4.22-4.38-6.35-6.52a6.39,6.39,0,0,0-2.9-2,13.56,13.56,0,0,0-4.22-.13,23.45,23.45,0,0,0-21.1,19.23c-.45,2.57-.71,5.52.52,7.93,1.11,2.16,3.68,3.67,6,2.54.58-.28-.25-1.09-.59-1.15Z"/>
          <path d="M1396.59,31.2c-.92-.4-1.93-.32-2.84-.81a5,5,0,0,1-2.31-2.57c-.86-2.22-.18-4.85.89-6.88,2.12-4,6.1-5.54,10.46-5.49a35.92,35.92,0,0,1,13,2.55,17.66,17.66,0,0,1,5.18,3.2c1.52,1.37,2.32,3.07,3.46,4.72.46.68,1,0,1-.55-.36-3.47-3.76-6.44-6.56-8.12-3.74-2.25-8.18-3.11-12.48-3.58-3.82-.42-8-.47-11.38,1.69a12,12,0,0,0-5.21,9.83,7.77,7.77,0,0,0,2,5.35c1.24,1.3,3.23,2.41,5,1.85.68-.21.13-1-.28-1.19Z"/>
          <path d="M1258,40.11c.11,0,.5-.51.63-.61a5.77,5.77,0,0,1,.91-.57,7.17,7.17,0,0,1,1.54-.58,11.5,11.5,0,0,1,3.88-.26,16.91,16.91,0,0,1,7.45,2.49c1.92,1.25,4.12,3.09,4.59,5.46a5.41,5.41,0,0,1-.72,3.7,13.08,13.08,0,0,1-1.08,1.59c-.47.64-.83,1.33-1.3,2-.28.4.13,1.63.74,1.37a5.67,5.67,0,0,0,1.67-.83,6.78,6.78,0,0,0,1.37-1.69,8.58,8.58,0,0,0,1.27-4.12,9.73,9.73,0,0,0-2.94-7,16.87,16.87,0,0,0-14.65-4.56,8.4,8.4,0,0,0-3.6,1.68c-.46.38-1.4.93-1,1.6s.78.44,1.25.34Z"/>
          <path d="M1427.16,41.46c.08-1.36,1.38-3.1,2.11-4.2a21.53,21.53,0,0,1,2.78-3.39,21.78,21.78,0,0,1,7.53-5,14.77,14.77,0,0,1,8.71-.8,11.33,11.33,0,0,1,4,1.83c1,.76,1.81,1.76,2.77,2.6.55.47.81-.39.68-.81-.91-2.73-3.86-4.4-6.48-5.17a15.45,15.45,0,0,0-9.64.48,22.17,22.17,0,0,0-8.31,5.59,23.94,23.94,0,0,0-2.88,3.71c-.93,1.5-1.44,3.2-2.33,4.7-.35.58,1,1.25,1,.5Z"/>
          <path d="M1457.78,45.41c-2.1-4.2,2.11-9.38,4.68-12.39s5.86-5.68,9.93-6.33a9,9,0,0,1,9.77,5.06A14.32,14.32,0,0,1,1483.4,38c0,2.24-.37,4.49.18,6.69.08.35.59.82.88.37,1-1.61,1-3.88,1-5.71a19.8,19.8,0,0,0-.92-6.21,12.52,12.52,0,0,0-6.17-7.43,12,12,0,0,0-10.36.46c-3.35,1.68-5.9,4.52-8.11,7.49a20.47,20.47,0,0,0-3.16,5.64,10.52,10.52,0,0,0-.59,2.94c0,1,.35,2,.31,3s1.76,1,1.36.22Z"/>
          <path d="M1492.53,33.8c-1.38-2.61,1.55-5.33,3.7-6.25a16.46,16.46,0,0,1,8.58-.72,9,9,0,0,1,6.44,3.52,8.42,8.42,0,0,1,1.26,6.62c-.07.41.6,1.73,1,1,1.16-2.54.53-5.62-.86-7.94a10.4,10.4,0,0,0-7.48-4.95c-3.42-.54-7.47-.45-10.52,1.37a7.23,7.23,0,0,0-2.89,3.38,6.42,6.42,0,0,0-.5,2c0,.59.26,1.3.16,1.86-.16.94,1.68,1.17,1.16.18Z"/>
          <path d="M1466.34,57.2a8.11,8.11,0,0,1,1.39-1.6c.47-.49,1-1,1.44-1.44a20,20,0,0,1,3.07-2.43,10.4,10.4,0,0,1,8.12-1.52c4.32,1.23,6,5.9,6.83,9.86.12.56,1.1,1.27,1.08.28a13.93,13.93,0,0,0-2-7.18,10.09,10.09,0,0,0-5.36-4.52,10.7,10.7,0,0,0-8.47,1.21c-2.93,1.64-4.82,4.24-7.16,6.55-.42.42.8,1.32,1.08.79Z"/>
          <path d="M1648.69,34.81a7.18,7.18,0,0,0,1.23-4.17,8.18,8.18,0,0,0-2-4.66,14,14,0,0,0-4.8-3.63c-1.84-.86-3.81-1.75-5.88-1.36-1.88.34-3.71,1.78-5.68,1.22-1.78-.51-3.14-1.9-5.09-1.95s-4.15,1-5.94,2a44.51,44.51,0,0,0-5.56,3.67c-2,1.53-4,3.12-6,4.71a33.37,33.37,0,0,0-3.13,2.69c-1,1.08-1.94,2.34-3,3.36-.49.45.09,1.86.76,1.4s1.69-.87,2.5-1.35a27.25,27.25,0,0,0,2.79-1.82c1.6-1.23,3.15-2.51,4.71-3.77a48.47,48.47,0,0,1,9.52-6.57c1.61-.76,3.39-1.55,5.16-.87,1.45.55,2.67,1.57,4.27,1.73s3.18-.69,4.72-1.2c1.92-.63,3.56,0,5.34.75a12.54,12.54,0,0,1,5,3.09,4.47,4.47,0,0,1,0,6c-.4.41.78,1.27,1,.76Z"/>
          <path d="M1389.37,39.46a3.7,3.7,0,0,1,.44-1.5c.2-.51.42-1,.65-1.52a27.3,27.3,0,0,1,1.5-2.77,16.11,16.11,0,0,1,1.76-2.48c.82-.9,2.38.12,3.31.49a48.2,48.2,0,0,1,5.88,2.49c1.79,1,3.17,2.48,2.83,4.64-.11.67.88,1.73,1.23.76.77-2.1-.53-4.47-2.11-5.83-2-1.73-4.82-2.43-7.28-3.31l-2.06-.74a3,3,0,0,0-1.6-.31c-1,.22-1.62,1.51-2.12,2.26a26.17,26.17,0,0,0-1.94,3.42c-.25.54-.49,1.09-.71,1.64a13.47,13.47,0,0,1-.89,2.23c-.43.69,1.2,1.27,1.11.53Z"/>
          <path d="M1394.34,44.78a16.83,16.83,0,0,0-7.73-7.21,18,18,0,0,0-5.18-1.56c-2.09-.29-4.14.08-6.22-.07a7.14,7.14,0,0,0-5.14,1.58,43.6,43.6,0,0,0-4.68,3.77c-2.13,2.06-4.12,6.91-.59,8.76.61.32.59-.75.43-1-1.78-3.33,1.5-5.79,3.84-7.62a19.47,19.47,0,0,1,3.77-2.69c1.62-.73,3.41-.31,5.12-.48a17,17,0,0,1,8.9,1.16,14.21,14.21,0,0,1,6.67,6.1c.5.9,1.2,0,.81-.7Z"/>
          <path d="M1351.74,43.18a4.31,4.31,0,0,0,.44-.09l.36-.08a5.93,5.93,0,0,1,1.11-.08,15.5,15.5,0,0,1,2,.2,18.2,18.2,0,0,1,3.72.83,4.47,4.47,0,0,1,2.6,2,2.48,2.48,0,0,1,.28,1.26,10.42,10.42,0,0,0-.14,1.58.38.38,0,0,0,.27.34c.72.08.95-.88,1-1.43a4.49,4.49,0,0,0-.46-2.17,6,6,0,0,0-3.63-3.07,20.16,20.16,0,0,0-5.28-1,6.1,6.1,0,0,0-2.65.3c-.37.14-.89.33-.74.8.1.29.78.87,1.1.54Z"/>
          <path d="M1337.36,46.72a6.05,6.05,0,0,1,.81-6.8,13.2,13.2,0,0,1,6.45-4c2.34-.75,6-1.72,7.87.53.68.83.46,1.94.68,2.93.13.61.68,2.09,1.55,1.69.31-.14.25-.56.13-.8a4,4,0,0,1-.67-1.44,11.78,11.78,0,0,0-.25-1.77,4.56,4.56,0,0,0-2.28-2.74c-2.64-1.44-6.08-.39-8.69.63a11.72,11.72,0,0,0-6.31,5,7.39,7.39,0,0,0,0,7.31c.44.72,1,0,.67-.58Z"/>
          <path d="M1344.55,45c-.22.05-.24.09-.06.11l.2,0,.28,0a4.29,4.29,0,0,0,.62-.14,7.6,7.6,0,0,0,1.2-.46,8.09,8.09,0,0,0,2.06-1.43,7.26,7.26,0,0,0,2.2-4.4c0-.44-.61-1.21-.85-.52l-1,2.74c-.16.45-.29.89-.42,1.35a6.93,6.93,0,0,0-.33,1.5c0,.13.2.59.38.38a4.44,4.44,0,0,0,.63-1.2c.19-.44.38-.87.54-1.32l1-2.79-.85-.52a6.33,6.33,0,0,1-2.39,4.1,7.12,7.12,0,0,1-2.19,1.21,7.87,7.87,0,0,1-1.25.31c-1.52.22-.11,1.4.21,1.16Z"/>
          <path d="M1332.42,51.76c1,.17,1.61-1,1.76-1.81a3.48,3.48,0,0,0-.7-2.78,7.18,7.18,0,0,0-3.64-2.15,43,43,0,0,0-5.47-1.39,14.15,14.15,0,0,0-10,2c-2.47,1.5-5.71,3.62-6.56,6.56-.76,2.65,1,6.16,4.09,5.62.65-.11.22-1.47-.34-1.5a2.48,2.48,0,0,1-2.35-2.37c0-1.37,1.23-2.58,2.19-3.44a22,22,0,0,1,7.1-4.49c3-1,6.21-.57,9.26.19a20.79,20.79,0,0,1,4.09,1.25c1.74.86,1.93,2.57.11,3.43-.43.2.19.81.44.85Z"/>
          <path d="M1611.34,50a3.1,3.1,0,0,0-1.25-1.94c-.72-.5-1.9-.87-1.92-1.91a2.8,2.8,0,0,1,1.66-2.38,5.9,5.9,0,0,1,3.78-.2c2.48.57,4.63,2.05,7.15,2.52,2,.36,4.23.34,5.84,1.7.45.38.59-.4.41-.69-1.31-2.14-3.87-2.21-6.09-2.56-2.94-.46-5.45-2.33-8.41-2.67-2.34-.27-4.89.67-5.33,3.23a3.42,3.42,0,0,0,.64,2.68c.24.3,2.51,1.74,2.46,1.82-.46.78,1.35,1.26,1.06.4Z"/>
          <path d="M1363.81,35.74c-.5-1.19.22-2.87.74-4a24.58,24.58,0,0,1,1.91-3.14,6.48,6.48,0,0,1,2.29-2.44,3,3,0,0,1,3.11.49c1.72,1.28,2.36,3.34,3.52,5.05.91,1.35,2.6,3.26,4.42,2.77.66-.18.24-1.37-.21-1.54a6.23,6.23,0,0,1-2.72-1.55,15.17,15.17,0,0,1-1.7-2.56c-1.09-1.86-2.61-4-4.88-4.45-2.53-.5-4,1.87-5.15,3.68a18.64,18.64,0,0,0-1.88,3.49,9.3,9.3,0,0,0-.53,1.83,10.43,10.43,0,0,1-.21,2c-.34.86,1.67,1.28,1.29.35Z"/>
          <path d="M1300.46,41.9a8.45,8.45,0,0,1,.23-3.2,21.69,21.69,0,0,1,.66-2.73,23.52,23.52,0,0,1,5.62-9.43c1.56-1.59,3.06-2.87,5.44-2.49a12.08,12.08,0,0,1,8.32,6.16,16.87,16.87,0,0,1,1.85,5.71c.33,2.12.2,4.26.47,6.37,0,.42.83,1.22,1,.43a21.08,21.08,0,0,0-1.13-10.63,15.61,15.61,0,0,0-5.4-7.44c-2.26-1.65-5.9-3.14-8.57-1.66s-5.08,4.84-6.57,7.59a24.59,24.59,0,0,0-2.09,5.2,25,25,0,0,0-.55,2.54,19.49,19.49,0,0,1-.41,3.27c-.23.68,1.37,1.22,1.14.31Z"/>
          <path d="M1284,42.78a5,5,0,0,1,1-1.71c.37-.52.76-1,1.17-1.53a22,22,0,0,1,2.58-2.53,6,6,0,0,1,3.48-1.62,6.52,6.52,0,0,1,3.41,1.28,26.21,26.21,0,0,1,5.12,3.81,9.26,9.26,0,0,1,1.81,2.46,26.44,26.44,0,0,1,.77,2.87c.09.25.52.75.75.32,1-1.85-.77-4.65-1.94-6a23.33,23.33,0,0,0-6-4.67,8.42,8.42,0,0,0-3.73-1.49,5.73,5.73,0,0,0-3.61,1.34,18.69,18.69,0,0,0-3.11,3.05c-1,1.2-1.69,2.6-2.63,3.83-.4.52.92,1.17,1,.6Z"/>
        </g>
        <g>
          <path d="M703.16,42.56c-2.41-3.75-8-3.46-11.38-1.39a13.35,13.35,0,0,0-4.65,5c-1,1.77-1.82,4.72.06,6.24.36.3.41-.32.31-.53a4.13,4.13,0,0,1-.36-3.08,9.74,9.74,0,0,1,1.33-2.73,12.58,12.58,0,0,1,4.08-4,9.12,9.12,0,0,1,5.54-1.25,5.92,5.92,0,0,1,4.47,2.24c.41.62.93,0,.6-.52Z"/>
          <path d="M747.26,44.43a67.17,67.17,0,0,0-7.63-7.55q-2.05-1.82-4.22-3.5a9.82,9.82,0,0,0-3.82-2.22c-1.67-.36-3.45.16-5.08.52a21.39,21.39,0,0,0-4.83,1.53c-2.25,1.09-4.74,3.26-4.14,6,.06.27.61.91.72.32.53-2.86,2.85-4.53,5.44-5.49a32.68,32.68,0,0,1,4.12-1.15c1.74-.41,3.44-.83,5.1,0a23.68,23.68,0,0,1,3.61,2.69c1.17,1,2.33,1.95,3.46,3s2.33,2.14,3.45,3.25a27.67,27.67,0,0,0,3.13,3.18c.59.4,1.21,0,.69-.63Z"/>
          <path d="M1067.81,54.3c-.54-2.32-1.92-4.78-4.47-5.24a4.55,4.55,0,0,0-3.07.5,2,2,0,0,0-1.13,2.27c0,.1.24.33.33.14.67-1.48,2.53-1.95,4-1.7,2.09.35,3.12,2.4,3.57,4.27.05.22.29.52.54.44s.24-.47.19-.68Z"/>
          <path d="M1069.5,54.37a4.33,4.33,0,0,1,1.54-5c1.81-1.46,4.33-1.75,6.57-1.95,1.3-.11,2.59-.18,3.89-.2,1,0,2.4-.14,3.12.68a4.83,4.83,0,0,1,.77,2.4c.12.66.23,1.33.38,2a9,9,0,0,0,.67,1.72c.23.51.85.48.9-.11a15.15,15.15,0,0,0-.5-4.54,6.27,6.27,0,0,0-1.56-3.3,4.65,4.65,0,0,0-3.74-1.08c-1.58.08-3.15.22-4.72.4-2.63.31-5.53.87-7.3,3a6,6,0,0,0-.82,6.39c.31.71,1.07.19.8-.46Z"/>
          <path d="M1105.42,71.07c.27-.09.61-.69.75-.92a4.15,4.15,0,0,0,.46-1.06,4.71,4.71,0,0,0-.06-2.58,6.17,6.17,0,0,0-3.66-4,9.54,9.54,0,0,0-11.07,3.92,10.71,10.71,0,0,0-1.47,7.24c.1.67,1,1.3,1.16.3a14.47,14.47,0,0,1,1.44-5.34,8.23,8.23,0,0,1,4.14-3.64,8.4,8.4,0,0,1,5.39-.48,4,4,0,0,1,2.91,2.74,2.52,2.52,0,0,1-.48,2.1c-.27.35-.91.58-.73,1.1a1,1,0,0,0,1.22.6Z"/>
          <path d="M1115.41,60.28c.21,0,.65-1.37.69-1.57a4.52,4.52,0,0,0,.06-1.83,7,7,0,0,0-1.71-3.33,16.73,16.73,0,0,0-6.16-4.82c-2.64-1-5,.06-7.29,1.45s-4,3.34-3.92,6.07c.13,3.2,2.34,5.7,4.68,7.61.58.47.61-.6.38-.91a43.25,43.25,0,0,1-2.7-4,4.28,4.28,0,0,1-.49-4,7.3,7.3,0,0,1,2.8-2.82,9.8,9.8,0,0,1,4.27-1.83c2.86-.24,5.33,2.12,7.18,4,1,1,2.11,2.26,1.87,3.73a1.91,1.91,0,0,1-.21.65,2.1,2.1,0,0,1-.6.73.56.56,0,0,0,0,.53,1,1,0,0,0,.58.42c.23.05.36-.13.52-.12Z"/>
          <path d="M1102.77,46.81a5.73,5.73,0,0,0-5.93-1.56,5.52,5.52,0,0,0-2.75,1.64,6,6,0,0,0-1.45,3.6,6.1,6.1,0,0,0,1.2,4.3c.15.17.39.31.6.15s.18-.52.12-.76a10.54,10.54,0,0,1-.58-2.87,4.4,4.4,0,0,1,1-2.75,5.76,5.76,0,0,1,4.82-1.78,3.48,3.48,0,0,1,2.45.92c.18.21.48.32.66,0a.88.88,0,0,0-.14-.94Z"/>
          <path d="M1097.92,56.72a7.43,7.43,0,0,0-3-3.06,2.21,2.21,0,0,0-.92-.4,2,2,0,0,0-.82.29,4.4,4.4,0,0,0-1.29,1.14c-.82,1-1.48,2.1-2.83,2.43a5.88,5.88,0,0,1-2.29,0,6.86,6.86,0,0,0-2.28-.31c-.33.07-.12.64,0,.77a6.37,6.37,0,0,0,4.07,1,4.29,4.29,0,0,0,3.16-1.66c.36-.43.67-.9,1-1.33s.83-.93,1.32-1,1.36.64,1.77,1a5.56,5.56,0,0,1,1.33,1.68c.38.74,1,0,.66-.57Z"/>
          <path d="M1141.25,59.81a4,4,0,0,0,.48-.62,1.68,1.68,0,0,0,.08-.59,2.1,2.1,0,0,0-.46-1.24c-.81-1-2.4-1.15-3.59-1.37a110.67,110.67,0,0,0-11.36-2c-2.73-.2-6.32.41-7.24,3.43a6,6,0,0,0,0,4.28A2.39,2.39,0,0,0,1122,63c.57-.25.28-1.5-.34-1.49s-1.48,0-1.7-.84a5.38,5.38,0,0,1,.21-2.07,3.7,3.7,0,0,1,2.27-2.62c2.44-1.1,5.26-.51,7.79-.08l7.89,1.34a11.13,11.13,0,0,1,1.89.39c.34.12.93.67.79,1.1-.06.16-.38.17-.44.35-.21.63.9.76.89.72Z"/>
          <path d="M1137.49,57.83c.28.79-.41,1.63-.91,2.18-.19.21-1.39,1.64-1.7,1,0,0,0,.09,0,0a.66.66,0,0,1,.09-.19,2.38,2.38,0,0,1,.41-.43,10.3,10.3,0,0,0,.94-.81,1.72,1.72,0,0,0,.15-2.31c-.08-.1-.26-.24-.41-.17a2.9,2.9,0,0,0-1.33,1.33,4.88,4.88,0,0,1-1,1.66,1.66,1.66,0,0,1-.86.42s.06.09,0,0a.19.19,0,0,1,0-.1.61.61,0,0,1,0-.27,1.33,1.33,0,0,1,1.14-1l-.56-1a5.52,5.52,0,0,1-1.59,1.87,7.79,7.79,0,0,1-1.11.67,2.1,2.1,0,0,0-1.08.76.45.45,0,0,0,.19.57c.8.42,2-.42,2.59-.9a5.59,5.59,0,0,0,1.73-2.07c.15-.32,0-1.22-.56-1a2.24,2.24,0,0,0-1.46,1.61,2,2,0,0,0,0,1.11c.11.36.36.87.75,1a2.15,2.15,0,0,0,2.17-1.24c.44-.73.6-1.74,1.43-2.16l-.42-.18c.06.08.07.08,0,0a.88.88,0,0,1,0,.15,1.69,1.69,0,0,1-.23.36,3.58,3.58,0,0,1-.56.47,3.47,3.47,0,0,0-1,1.05,1.67,1.67,0,0,0,1,2.29,1.37,1.37,0,0,0,1.21-.49,11.63,11.63,0,0,0,1.18-1.25,3.2,3.2,0,0,0,.72-3.08c-.08-.23-.3-.56-.59-.47s-.28.51-.21.73Z"/>
          <path d="M876.29,45.18a7.33,7.33,0,0,0,.19-1.34A3.16,3.16,0,0,0,876,42.5a4.66,4.66,0,0,0-2.85-2c-2.84-.82-6.16-.44-9,0-2.31.34-5.54.87-6.78,3.15a3.62,3.62,0,0,0-.26,2.79c.25.74.88,1.7,1.75,1.6.25,0,.11-.48,0-.58-.5-.64-1.13-1.06-1.07-2a2.91,2.91,0,0,1,1.31-2.07,11.85,11.85,0,0,1,5.42-1.72,34.76,34.76,0,0,1,6.61-.32,8,8,0,0,1,3,.67c1,.48,2.08,1.63,1.14,2.7-.38.44.93,1.23,1,.46Z"/>
          <path d="M855.38,46.07a9.75,9.75,0,0,1-2.6-.61,11.27,11.27,0,0,1-2.3-1.63c-1.47-1.27-2.91-2.57-4.37-3.86a28.43,28.43,0,0,0-7.85-5.41c-5.59-2.27-13.16-.59-15.75,5.33a14.1,14.1,0,0,0-.31,9.42c.16.55.86.58.77-.08-.51-3.61-.69-7.54,1.68-10.59,2.53-3.26,7.2-4.42,11.14-3.66S843,38.45,846,41.08c1.63,1.42,3.22,3,4.94,4.27,1.34,1,3,2,4.72,1.55.53-.13,0-.77-.31-.83Z"/>
          <path d="M857.06,43.49c-.19-.37-.26-.79-.48-1.16a4.38,4.38,0,0,0-.74-.87,4.29,4.29,0,0,0-2.25-1,4.47,4.47,0,0,0-2.42.39,4,4,0,0,0-1,.64,2.2,2.2,0,0,0-.62,1c-.05.13.13.56.3.38a4.62,4.62,0,0,1,3.51-1.61c1.23,0,2.78.75,3.06,2.08l0-.26-.08.14c-.11.21.11.44.3.51s.47,0,.35-.27Z"/>
          <path d="M819.9,45.72c.21,0,.23,0,.05,0a.22.22,0,0,0-.14,0l-.18.07-.28.14a5,5,0,0,0-.63.38,4.7,4.7,0,0,0-1,.93,3.42,3.42,0,0,0-.6,1.13A4,4,0,0,0,817,49a1.56,1.56,0,0,0,.13.85c.11.22.37.35.54.13h0a.4.4,0,0,0,.11-.19s.05-.26,0-.12c0-.1,0-.2.07-.3s.05-.16.09-.25c0,.12,0,0,0,0l.06-.15h0a3.92,3.92,0,0,1,.29-.53l.19-.27c0,.07.05,0,.05,0l.11-.13c.16-.16.33-.31.5-.45l.5-.33c.2-.1.41-.19.63-.28s.59-.29.46-.65a1,1,0,0,0-.62-.53.71.71,0,0,0-.29,0Z"/>
          <path d="M814.91,46.63a9.78,9.78,0,0,0-4.68-3.08,28.67,28.67,0,0,0-5.76-1.41,4.77,4.77,0,0,0-4.72,2.34A8,8,0,0,0,798.23,50c.06.47.75.92.81.21a9.29,9.29,0,0,1,1.68-5,4.11,4.11,0,0,1,4.87-1.78,31,31,0,0,1,4.94,1.22,12,12,0,0,1,2.21,1,7.37,7.37,0,0,1,1,.7c.24.2.44.52.74.63s.77-.06.47-.44Z"/>
          <path d="M860.51,46.71c-1.7.51-3.31,1.19-5,1.58a40.44,40.44,0,0,0-5.17,1,19.73,19.73,0,0,0-3.52,1.93,8.46,8.46,0,0,1-4.29,1.36c-.22,0-.1.37,0,.41,2.79.71,5.3-2.13,7.69-3.06a32.41,32.41,0,0,1,5.1-1,24.22,24.22,0,0,0,5.56-1.79c.26-.12-.17-.53-.37-.46Z"/>
          <path d="M799.65,51a39.47,39.47,0,0,1,6.65-1.29c2.39-.19,4.79-.23,7.19-.31a56.45,56.45,0,0,1,7,.3c2,.19,4.53.54,6.42-.35.25-.12.13-.72-.15-.69a33.87,33.87,0,0,1-3.48.34c-1.2,0-2.39-.15-3.58-.27a49,49,0,0,0-7.06-.13c-4.4.17-9.35,0-13.45,1.82-.33.16.22.65.46.58Z"/>
          <path d="M893.8,63.15c.11-.14.33-.19.45-.38a1.4,1.4,0,0,0,.18-.52,2.33,2.33,0,0,0-.13-1.11,5.82,5.82,0,0,0-1.69-2.25,12.54,12.54,0,0,0-5.77-3.54A6.53,6.53,0,0,0,881,56.88a8.56,8.56,0,0,0-2.86,5c0,.22.27.81.54.55a9.53,9.53,0,0,0,1.38-2.1,9.9,9.9,0,0,1,1.59-2.11A5.81,5.81,0,0,1,887,56.73,11.74,11.74,0,0,1,892.31,60c.42.39,1.65,1.38,1.07,2-.29.31-.79.29-.49.82.12.2.69.61.91.35Z"/>
          <path d="M900.67,53.94c.86.06,1.73-1,2.09-1.72a6.13,6.13,0,0,0,.56-3,13.49,13.49,0,0,0-2.53-7.23c-1.65-2.25-4.17-3.94-7-3.12a23.71,23.71,0,0,0-4.58,2,19.2,19.2,0,0,0-3.67,2.44c-2.3,2-3.87,5-2.63,8.07.23.57.78.39.63-.21-.72-3,1.6-5.8,3.85-7.45a27.46,27.46,0,0,1,4.25-2.43c1.45-.69,3.06-1.56,4.72-1.28,3,.5,4.92,3.74,5.68,6.4a9.1,9.1,0,0,1,.43,3.66,3.68,3.68,0,0,1-2.33,3c-.5.26.29.86.57.88Z"/>
          <path d="M889.7,44.39l.14.3-.07-.31a8.83,8.83,0,0,0,1.3,4.32,9.77,9.77,0,0,0,1.43,1.84,10.4,10.4,0,0,0,.92.84,2.61,2.61,0,0,0,1,.6c.29.07.18-.47.09-.58a5.88,5.88,0,0,0-.85-.72,9.18,9.18,0,0,1-.82-.72,8.83,8.83,0,0,1-1.33-1.65,7.69,7.69,0,0,1-1.19-3.78l-.05.27.09-.16c.3-.54-.88-.74-.67-.25Z"/>
          <path d="M886.68,45.22c.08,0-.06.33-.07.35s-.1.26-.14.4a7.27,7.27,0,0,0-.22.8,7.38,7.38,0,0,0-.14,1.69,6.1,6.1,0,0,0,.87,3.21c.21.31.43-.06.35-.29-.17-.57-.4-1.11-.52-1.69a6.84,6.84,0,0,1-.1-1.75,6.61,6.61,0,0,1,.35-1.69l.09-.24c.06-.14.17-.24.23-.37a.31.31,0,0,0,0-.31.55.55,0,0,0-.38-.25.33.33,0,0,0-.17,0s-.1.13-.12.13Z"/>
          <path d="M907.86,55.44c-1.55-1.38-5.71-3.7-3.15-6.11,2-1.94,5.5-1.64,8.1-1.9,2.79-.27,5.76-.73,8.48.22a4.49,4.49,0,0,1,2.77,2.05,3,3,0,0,1-.89,3.21c-.22.23,0,1,.35.84,2.08-.72,2.2-3.32,1.26-5-1.24-2.21-4.08-3-6.44-3.16a27.41,27.41,0,0,0-5,.27c-1.58.18-3.18.26-4.75.46-2.26.28-5.36,1.24-5.63,3.93a4.21,4.21,0,0,0,1.19,3.13A8.39,8.39,0,0,0,907.62,56c.36.1.5-.29.24-.52Z"/>
          <path d="M1025.29,47.57a13.83,13.83,0,0,0,.94-1.51,6.73,6.73,0,0,0,.53-1.44,8,8,0,0,0,.16-3,9,9,0,0,0-3.14-5.56,8.7,8.7,0,0,0-3.19-1.73,7.48,7.48,0,0,0-4.18.37,15,15,0,0,0-7.15,4.34,8.07,8.07,0,0,0-1.68,8.29c.22.54.81.38.61-.2-1.69-5.18,3.07-9.22,7.4-10.86a14.22,14.22,0,0,1,3.49-.95,5.8,5.8,0,0,1,3.49,1,7.62,7.62,0,0,1,3.44,4.5,6.4,6.4,0,0,1-1.56,6.18c-.18.17.08.49.22.59a.56.56,0,0,0,.35.13s.3-.09.27-.1Z"/>
          <path d="M1017.32,36.53c0,.21-.29.48-.39.67a5,5,0,0,0-.31.61,7.37,7.37,0,0,0-.44,1.3,7.66,7.66,0,0,0-.12,2.7,6.83,6.83,0,0,0,2.66,4.76c.22.15.24-.21.13-.33a8.7,8.7,0,0,1-2.29-4.46,6.2,6.2,0,0,1,1.37-4.89c.27-.28-.57-.73-.61-.36Z"/>
          <path d="M1012.23,39.36l0,.18v-.23a7.85,7.85,0,0,0,.18,3.88,9.07,9.07,0,0,0,.82,1.83,3.85,3.85,0,0,0,1.28,1.46c.16.1.16-.2.12-.28-.3-.53-.71-1-1-1.5a7.48,7.48,0,0,1-.74-1.6,7,7,0,0,1-.33-1.7,6.46,6.46,0,0,1,0-.88,2,2,0,0,1,.18-1c.21-.34-.62-.64-.51-.19Z"/>
          <path d="M1016.9,58a3.34,3.34,0,0,0,1.88-1.91,3.87,3.87,0,0,0,.2-2.49c-.53-2.07-2.47-3.5-4.4-4.18a11.85,11.85,0,0,0-11.65,2.43c-1.39,1.34-2.74,4.13-.75,5.58.31.23.42-.27.28-.48-1.33-2,.71-4.13,2.35-5.22a11.87,11.87,0,0,1,6.06-1.88,9,9,0,0,1,6.06,1.82,3.48,3.48,0,0,1,1.47,3.07,3.58,3.58,0,0,1-2,2.57c-.39.23.26.75.54.69Z"/>
          <path d="M1007.78,56.3l-1.52-2.15-.23.4a7.52,7.52,0,0,1,1.36,2l.19-.44c-1-.38-2-.74-3-1.1a.15.15,0,0,0-.2.06,1.23,1.23,0,0,0,0,1.09,1.25,1.25,0,0,0,.89.66c.3.06.19-.55,0-.62a1,1,0,0,1-.51-.33.73.73,0,0,1-.06-.14.33.33,0,0,1,0-.21l-.2.07,3,1.12c.28.1.26-.3.19-.44a8,8,0,0,0-1.47-2.15c-.08-.09-.21-.14-.29,0a.4.4,0,0,0,.06.42l1.52,2.13a.16.16,0,0,0,.28,0,.39.39,0,0,0-.05-.4Z"/>
          <path d="M998.11,50.12c-1.87-3-4.54-6.19-8.51-5.8a6.87,6.87,0,0,0-4.79,2.55,5.72,5.72,0,0,0-.52,5.74c.26.56.7.12.59-.34a5.44,5.44,0,0,1,1.12-5,6.17,6.17,0,0,1,4.49-1.92c3.31,0,5.46,2.66,7.06,5.25.37.6.87,0,.56-.49Z"/>
          <path d="M929.34,40.61A12,12,0,0,0,923.72,37a37.52,37.52,0,0,0-7.46-1.78c-2.29-.29-4.62.31-5.81,2.45s-.77,4.82.28,6.85c.16.31.45.18.43-.14-.16-2.26-1.09-4.48.52-6.46s4-1.74,6.23-1.33a43.2,43.2,0,0,1,6,1.46,16.06,16.06,0,0,1,2.72,1.2c.84.48,1.45,1.2,2.24,1.72.37.24.76,0,.43-.4Z"/>
          <path d="M926.93,43.49c.21-.56,1.45-1,1.93-1.18a12.07,12.07,0,0,1,2-.53,39.16,39.16,0,0,1,5.41-.52c3.67-.18,7.66,0,10.92,1.9a5.65,5.65,0,0,1,3.11,4,4.38,4.38,0,0,1-2.47,4.12,17.59,17.59,0,0,1-5.15,1.92,53,53,0,0,0-5.45,1.07c-.37.12-.17.82.12.92,3.23,1,7.31-.14,10.25-1.6,2.64-1.31,4.48-3.58,3.94-6.66-1.26-7.12-10.58-7.63-16.17-7.17-3.46.28-6.88.51-9.46,3.06-.39.39.79,1.31,1.06.63Z"/>
          <path d="M927,43.63c-.15.12-.33.23-.48.36a3.56,3.56,0,0,0-.49.46,5.57,5.57,0,0,0-.79,1,4.65,4.65,0,0,0-.69,2.43.5.5,0,0,0,.33.45c.19,0,.27-.12.3-.29a5.21,5.21,0,0,1,.25-1.21,4.83,4.83,0,0,1,.61-1.14,5.51,5.51,0,0,1,.94-1l.26-.2a2.41,2.41,0,0,0,.4-.29.33.33,0,0,0-.07-.45c-.11-.12-.41-.29-.57-.15Z"/>
          <path d="M918.5,40.4a2.09,2.09,0,0,1-.13.59,3,3,0,0,0,0,.6,3.73,3.73,0,0,0,.21,1.19,4.17,4.17,0,0,0,1.57,2l.09-.54a6.41,6.41,0,0,1-3.53-5.61c0-.14-.15-.5-.34-.34a5.65,5.65,0,0,0-1.93,3.31,5.19,5.19,0,0,0,.78,3.68c.26.39.56,0,.37-.32a21.46,21.46,0,0,0-1.16-2,.16.16,0,0,0-.25,0,.33.33,0,0,0,0,.36c.3.68.68,1.31,1,2l.37-.32a4.74,4.74,0,0,1,1.05-6.17l-.33-.34a7.16,7.16,0,0,0,3.9,6.36c.27.15.25-.42.08-.53a3.35,3.35,0,0,1-1.32-1.61,2.25,2.25,0,0,1,.09-2c.25-.3-.59-.6-.51-.25Z"/>
          <path d="M967.82,54.75a4.87,4.87,0,0,1,.49-.93,7.85,7.85,0,0,0,.32-.8,7.75,7.75,0,0,0,.31-1.58,9,9,0,0,0-.36-3.23,16.19,16.19,0,0,0-1.72-3.76,16.81,16.81,0,0,0-2.06-3.07c-1.78-1.85-4.23-.26-5.74,1a18,18,0,0,1-7,3.38c-.41.13-.16,1,.23,1A12.6,12.6,0,0,0,958,44.75c1.66-1,3.35-3.42,5.58-2.91,1.08.25,1.71,1.67,2.25,2.54a17.88,17.88,0,0,1,1.68,3.14c.84,2.12,1,4.87-.66,6.65-.4.43.85,1.17,1,.58Z"/>
          <path d="M964.68,46.24c-.14.09-.28.27-.42.38s-.31.21-.47.31a5.75,5.75,0,0,1-1.13.51,6.92,6.92,0,0,1-2.43.39,4.84,4.84,0,0,1-2.34-.52c-.34-.2-.56-.42-.24-.76a1.06,1.06,0,0,1,.43-.29c.16,0,.3,0,.43-.11s0-.26,0-.35c-.28-.43-1-.28-1.28,0a1.25,1.25,0,0,0-.23,1.43c.5,1.08,1.94,1.38,3,1.45a7.35,7.35,0,0,0,3.55-.62,6.09,6.09,0,0,0,1.49-1c.23-.2.57-.37.37-.7a.51.51,0,0,0-.72-.2Z"/>
          <path d="M967.43,48.93l0,.16,0-.28a6.9,6.9,0,0,1-3.15,2.41,12.35,12.35,0,0,1-4.22.67c-.31,0-.21.57,0,.64a7.23,7.23,0,0,0,4.51-.49A7.85,7.85,0,0,0,966.55,51a6.76,6.76,0,0,0,.8-.71c.29-.31.52-.68.82-1s-.14-.48-.28-.55-.52-.08-.46.19Z"/>
          <path d="M977.19,54a4.51,4.51,0,0,1,.29-.59,4.88,4.88,0,0,0,.23-.64,4.28,4.28,0,0,0,.12-1.38,4.23,4.23,0,0,0-1.18-2.55,5,5,0,0,0-5.29-1,3.1,3.1,0,0,0-2.08,1.92c0,.19.18.87.48.59s.46-.56.74-.8a3.73,3.73,0,0,1,1-.64,5.2,5.2,0,0,1,2.5-.38,3.15,3.15,0,0,1,3.09,3.12,2.76,2.76,0,0,1-.38,1.25c-.16.28-.54.45-.37.79a.66.66,0,0,0,.39.34.47.47,0,0,0,.17,0,2.49,2.49,0,0,0,.27-.11Z"/>
          <path d="M973.47,54.23c-.82.19-1.59.52-2.43.65a11.73,11.73,0,0,1-2.58.14,28.64,28.64,0,0,1-4.57-1.08c-1.56-.33-3,.29-4.41.77a7.76,7.76,0,0,1-5.27-.09c-.36-.11-.31.5-.1.63a6.08,6.08,0,0,0,4.34.67c1.81-.36,3.49-1.52,5.39-1.17.84.15,1.63.54,2.45.75a11.56,11.56,0,0,0,2.61.36,11,11,0,0,0,5.06-1c.36-.18-.23-.68-.49-.62Z"/>
          <path d="M939.29,55.57a8.63,8.63,0,0,0-3.55-.46c-1.3,0-2.59.06-3.89.14s-2.51.15-3.77.16l-1.86,0a8.43,8.43,0,0,0-1.74,0c-.27.05-.07.52.08.59a8.38,8.38,0,0,0,3.52.44c1.26,0,2.51-.12,3.76-.21s2.5-.19,3.75-.21c.62,0,1.24,0,1.86.05a12.12,12.12,0,0,0,2,.15c.39,0,0-.54-.15-.61Z"/>
          <path d="M796.39,63.63c1.46.86,3.51-.05,4.49-1.28,1.17-1.5,1.11-3.56.84-5.35a17.52,17.52,0,0,0-5.51-10.1,21.53,21.53,0,0,0-11.54-5.23c-1.95-.27-4.68-.62-6.52.3a10.84,10.84,0,0,0-2.28,1.83l-3,2.71c-1.71,1.57-3.45,3.23-3.94,5.61a10.63,10.63,0,0,0,1.44,7.36c.32.51.88.38.8-.26-.29-2.51-1.62-5-.41-7.44,1-2.09,3.08-3.67,4.72-5.25A35,35,0,0,1,778.16,44a5.43,5.43,0,0,1,3.54-.9,21.78,21.78,0,0,1,6.94,1,17.94,17.94,0,0,1,10.41,8.09,14.18,14.18,0,0,1,1.85,6.07,4.17,4.17,0,0,1-1.33,3.65c-1,.82-2.05.72-3.26.81-.69,0-.27.72.08.93Z"/>
          <path d="M638.91,47.52c2.48,1,5.22-1.74,5.62-4,.5-2.87-1.08-5.93-3.23-7.76-2.67-2.26-6.33-2.54-9.68-2.31a35.19,35.19,0,0,0-10.79,2.23c-2.86,1.17-6.65,3.51-7.06,6.89,0,.31.46,1.34.87.87A29.92,29.92,0,0,1,617.45,40a15.44,15.44,0,0,1,4.39-2.63A34.6,34.6,0,0,1,632.94,35c3.52-.2,7.3.4,9.44,3.52,1.12,1.63,1.78,3.9.7,5.71s-2.65,1.93-4.4,2.33c-.56.13-.08.84.23,1Z"/>
          <path d="M759.88,49.69c.3.26-.3-.24-.36-.29-.22-.16-.46-.31-.7-.45a7.68,7.68,0,0,0-1.77-.7,11.5,11.5,0,0,0-3.7-.35,18.09,18.09,0,0,0-7.7,2.23c-2.08,1.15-4,3.09-4.29,5.55a6.14,6.14,0,0,0,.83,3.69,7.45,7.45,0,0,0,1.34,1.72,4.6,4.6,0,0,0,1.79,1c.61.22.55-.77.29-1.05a17.66,17.66,0,0,1-2.24-2.65,3.12,3.12,0,0,1-.37-2.67c.62-2,2.67-3.41,4.39-4.39,3.31-1.89,9-3.18,12.19-.54.62.5.71-.72.3-1.07Z"/>
          <path d="M1215.08,56.32a21.55,21.55,0,0,0-4.58-6.26,19.73,19.73,0,0,0-7.3-4.18,15.66,15.66,0,0,0-8-.44c-2.24.5-5.15,1.65-5.94,4-.12.37.25,1.2.72.89.83-.56,1.47-1.33,2.3-1.9a10.39,10.39,0,0,1,3.21-1.47,14.28,14.28,0,0,1,7.83.26,19.2,19.2,0,0,1,6.43,3.43,17.56,17.56,0,0,1,2.56,2.54,8.75,8.75,0,0,1,2,3.09c.13.57,1.14.66.8,0Z"/>
          <path d="M1188.88,60.19a16,16,0,0,0,.2-2.59,8.55,8.55,0,0,0-.77-2.47,18.93,18.93,0,0,0-3.62-4.82c-2.65-2.76-5.86-5-9.74-5.47a9.78,9.78,0,0,0-9.5,4,10.72,10.72,0,0,0-1.7,5.15,11.7,11.7,0,0,0,.89,6.22c.15.29.58.47.7,0,.44-1.57,0-3.3,0-4.91a10.09,10.09,0,0,1,1.09-4.8,8.21,8.21,0,0,1,7.93-4.25,14.31,14.31,0,0,1,8.82,4.11c2,1.9,6.54,6.19,4.63,9.31-.38.61,1,1.29,1.07.52Z"/>
          <path d="M1158.38,52.21c-.06-.56.16-1.11.08-1.69a4.67,4.67,0,0,0-.46-1.41,6.28,6.28,0,0,0-2.45-2.53c-2.57-1.47-5.9-1.41-8.74-1.09a9.17,9.17,0,0,0-6.81,3.64,6.15,6.15,0,0,0-.64,6.22c.32.65.86.17.71-.4a5.58,5.58,0,0,1,1-4.89,8.21,8.21,0,0,1,5.42-3,17.52,17.52,0,0,1,7.14.1,6.83,6.83,0,0,1,2.92,1.46c.8.72,1.59,2.06.86,3.09-.41.58,1,1.16,1,.48Z"/>
          <path d="M1180.87,68.15c.24.23-.19-.17-.23-.22l-.69-.64c-.5-.47-1-.93-1.54-1.37a17.78,17.78,0,0,0-3.05-2,11,11,0,0,0-7.11-1.18,8.1,8.1,0,0,0-4.9,3.18,9.52,9.52,0,0,0-1.79,5.63c0,.41.69,1.27.85.53.75-3.41,2.5-7,6.14-7.9,4.73-1.22,8.82,1.89,12.07,4.89.48.45.57-.58.25-.89Z"/>
          <path d="M1022.65,55.23c-3.45-4,3.24-6.57,6.13-7.51,2-.65,3.52,0,5.48.51s3.2-.2,4.88-.95c2-.9,3.95-.26,5.91.58a36.46,36.46,0,0,1,5.57,3.08c1.71,1.11,3.4,2.28,5.11,3.4a29.64,29.64,0,0,0,2.71,1.65c1,.5,2,.84,2.9,1.38.58.34.52-.89.18-1.15-1.78-1.33-3.32-2.88-5.18-4.13-1.63-1.09-3.27-2.18-4.93-3.24-3-1.91-6.4-4.17-10-4.57-1.79-.2-3.07.64-4.65,1.29-1.84.76-3.39-.08-5.19-.48-3-.67-6.74,1.3-8.88,3.38a5.9,5.9,0,0,0-1.91,4,3.73,3.73,0,0,0,1.46,3.33c.45.26.68-.2.39-.53Z"/>
          <path d="M646.18,52.54c-.54-1-.94-2.13-1.53-3.14a21.08,21.08,0,0,0-1.72-2.48c-.48-.59-1.09-1.54-1.9-1.7a2.61,2.61,0,0,0-1.37.24L638,46a25.24,25.24,0,0,0-6,2.37c-1.47,1-2.64,2.78-1.92,4.57.25.62,1.16.76,1-.11-.37-1.66,1-2.9,2.37-3.63a37.82,37.82,0,0,1,4.85-2,12.63,12.63,0,0,1,2.5-.89c.84-.12,1.52,1,2,1.63a17.86,17.86,0,0,1,1.46,2.13c.22.37.42.75.61,1.13a3.05,3.05,0,0,1,.51,1.26c0,.59,1.25.77.86,0Z"/>
          <path d="M641.84,57.61c.14-1,1.53-2.14,2.28-2.78a13,13,0,0,1,3-1.91,16,16,0,0,1,7.52-1.31c1.38.08,2.83-.11,4.19,0a8.83,8.83,0,0,1,3.79,1.81,24.4,24.4,0,0,1,3.1,2.14,2.77,2.77,0,0,1,.66,3.69c-.15.3.05,1.22.54,1,2.76-1.14.93-4.85-.6-6.25a31.3,31.3,0,0,0-4.24-2.93,7.14,7.14,0,0,0-4.63-1.39c-1.74.13-3.48-.06-5.22.16a16.44,16.44,0,0,0-4.67,1.28,16,16,0,0,0-3.93,2.4,22.11,22.11,0,0,0-2.86,3.4c-.43.54,1,1.24,1.06.63Z"/>
          <path d="M678.77,54.23a2.08,2.08,0,0,0-1.19-.57,5.47,5.47,0,0,0-1-.08,12.78,12.78,0,0,0-2,.18,14.62,14.62,0,0,0-4,1A4.24,4.24,0,0,0,668.15,57a2.66,2.66,0,0,0-.06,1.65c.12.36.4,1,.87.89a.19.19,0,0,0,.11-.18c0-.37-.17-.7-.18-1.07a2.15,2.15,0,0,1,.4-1.19,4.56,4.56,0,0,1,2.58-1.62,22,22,0,0,1,3.31-.66,11.23,11.23,0,0,1,1.74-.13,9.23,9.23,0,0,0,1.8.18c.34-.06.23-.5,0-.67Z"/>
          <path d="M691.18,57.83a4.35,4.35,0,0,1,.4-.81,3.68,3.68,0,0,0,.23-.71,4.5,4.5,0,0,0,.1-1.32,6,6,0,0,0-1-2.88,10.38,10.38,0,0,0-5.72-3.7c-2.29-.7-5.19-1.43-7.44-.26A3.15,3.15,0,0,0,676,50.22c-.09.4-.08.82-.14,1.22s-.44.77-.62,1.21a.62.62,0,0,0,.29.68c.71.24,1-.48,1.18-1.08.18-.84,0-1.66.63-2.35,1.55-1.68,4.35-1.22,6.31-.78a13.37,13.37,0,0,1,5.67,2.47c1.65,1.36,2.69,3.94,1,5.71-.37.38.78,1.07.88.53Z"/>
          <path d="M684.29,55.25q.36,0,.12-.09l-.09,0-.26,0-.51-.08a6.82,6.82,0,0,1-.88-.26,6.24,6.24,0,0,1-1.67-.89,4.25,4.25,0,0,1-1.74-2.65l-.61.2.89,2c.14.32.3.63.46.94a4.28,4.28,0,0,0,.55.95c.14.17.31,0,.28-.16a4.62,4.62,0,0,0-.31-1c-.14-.38-.28-.75-.43-1.11l-.91-2.1c-.07-.15-.26-.31-.42-.26s-.22.3-.2.45A5.66,5.66,0,0,0,681,54.89a7.27,7.27,0,0,0,2.18,1,6.77,6.77,0,0,0,1.19.23c.26,0,.67,0,.66-.36a.64.64,0,0,0-.27-.41s-.45-.23-.47-.13Z"/>
          <path d="M695.13,60.35c-.67-.41-1.39-.9-.84-1.74a3,3,0,0,1,1.34-.91,22.8,22.8,0,0,1,3.23-.91,16.87,16.87,0,0,1,7.95-.47,18.55,18.55,0,0,1,6.25,3.09c.8.56,2.19,1.49,2.05,2.62A2.6,2.6,0,0,1,712.92,64c-.64,0-.35,1.16.16,1.23,3.21.43,4-3.18,2.43-5.37a12.61,12.61,0,0,0-3.84-3,17.06,17.06,0,0,0-4.91-2.1,14,14,0,0,0-6,.06,21.91,21.91,0,0,0-5.46,1.57,3,3,0,0,0-2,2.62c0,1,.66,2.12,1.75,2,.39,0,.32-.46,0-.62Z"/>
          <path d="M1055.47,66.44c-.2-.43,1.7-1.17,2-1.47a2.15,2.15,0,0,0,.55-2.09c-.48-2.14-2.74-2.79-4.68-2.59-2.48.26-4.63,1.68-7.07,2.13-1.81.33-4.27.23-5.38,2-.16.26.11,1,.46.7,1.42-1,3.22-1.08,4.88-1.35,2.09-.34,3.9-1.37,5.92-1.94a7,7,0,0,1,3.11-.26c.83.15,2.12.73,2,1.78-.09.78-1,1.11-1.61,1.46a2.36,2.36,0,0,0-1.09,1.39c-.27.6,1.2.88.9.24Z"/>
          <path d="M668.47,49.45c-.14-.49-.09-1-.2-1.55a7.62,7.62,0,0,0-.48-1.39A14.42,14.42,0,0,0,666,43.73c-1.13-1.43-2.41-3-4.46-2.74-1.83.27-3.14,1.84-4.09,3.3a12,12,0,0,1-1.58,2.1,7.45,7.45,0,0,1-2.33,1.23c-.55.25-.18,1.17.29,1.28,1.47.33,2.81-1,3.6-2.1,1-1.3,1.49-2.8,2.84-3.8a3.3,3.3,0,0,1,2.4-.72,3.7,3.7,0,0,1,2.21,1.53,19.45,19.45,0,0,1,1.83,2.42c.41.68,1.19,2,.79,2.84s1.23,1.17,1,.38Z"/>
          <path d="M723.42,52.89c-.37-1.25-.36-2.62-.74-3.9a16.92,16.92,0,0,0-1.48-3.44A19.1,19.1,0,0,0,716,39.68c-4.3-3.25-10.28.41-12.52,4.54A14.7,14.7,0,0,0,702,53.63c.1.46.74,1,.83.22.19-1.62,0-3.25.32-4.87a11.83,11.83,0,0,1,1.72-4.55,10.86,10.86,0,0,1,6.71-4.62,5.1,5.1,0,0,1,4.69,1.28,18.35,18.35,0,0,1,3.13,3.22,16,16,0,0,1,2.19,3.88c.46,1.2,1.24,3.17.87,4.46-.17.59,1.13.94.92.24Z"/>
          <path d="M737.28,52.51a16.27,16.27,0,0,0-4.87-4.8,5.63,5.63,0,0,0-3-1,7,7,0,0,0-3,1,21.39,21.39,0,0,0-5.16,3.46c-1.13,1.12-2.49,3.06-1.79,4.73.07.17.45.65.61.26.27-.63.26-1.33.56-2a6.82,6.82,0,0,1,1.55-2.07,22,22,0,0,1,4.62-3.2,6.68,6.68,0,0,1,2.79-1,5,5,0,0,1,3,1,15.63,15.63,0,0,1,4.4,4.29c.36.52.61-.28.37-.63Z"/>
        </g>
        <path d="M129.88,48.67c-2.41-3.75-8-3.46-11.38-1.39a13.45,13.45,0,0,0-4.66,5c-1,1.77-1.81,4.72.06,6.24.37.3.42-.32.32-.53a4.16,4.16,0,0,1-.37-3.07,9.69,9.69,0,0,1,1.34-2.74,12.58,12.58,0,0,1,4.08-4A9.11,9.11,0,0,1,124.81,47a5.92,5.92,0,0,1,4.47,2.24c.41.62.93,0,.6-.52Z"/>
        <path d="M278.26,60.75a22.33,22.33,0,0,0-4.82-2.39c-1.71-.73-3.44-1.42-5.19-2s-3.55-1.23-5.35-1.76a7.77,7.77,0,0,0-4.71-.37,17.16,17.16,0,0,0-4.1,2.37,18.76,18.76,0,0,0-3.86,3.24c-1.65,1.89-2.94,4.81-1.38,7.14.25.37.65,0,.57-.32-.64-3,1.28-5.49,3.5-7.33a41,41,0,0,1,3.48-2.51,6.12,6.12,0,0,1,4.44-1.41c3,.43,6.06,1.76,8.87,2.83q2.18.83,4.29,1.75c1.34.59,2.75,1.54,4.19,1.75.67.1.35-.72.07-.94Z"/>
        <path d="M494.53,60.41c-.54-2.32-1.92-4.78-4.47-5.24a4.55,4.55,0,0,0-3.07.5,2,2,0,0,0-1.13,2.27c0,.1.24.33.33.14.66-1.48,2.53-1.95,4-1.7,2.1.35,3.13,2.4,3.58,4.27.05.22.29.52.54.44s.24-.47.19-.68Z"/>
        <path d="M496.22,60.48a4.33,4.33,0,0,1,1.54-5c1.81-1.46,4.33-1.75,6.57-2,1.29-.11,2.59-.18,3.89-.2,1,0,2.4-.14,3.12.68a4.83,4.83,0,0,1,.77,2.4c.12.66.23,1.33.38,2a8.4,8.4,0,0,0,.67,1.72c.22.51.85.48.9-.11a15.15,15.15,0,0,0-.5-4.54A6.27,6.27,0,0,0,512,52.2a4.66,4.66,0,0,0-3.74-1.08c-1.58.08-3.16.22-4.72.4-2.63.31-5.54.87-7.3,3a6,6,0,0,0-.82,6.39c.31.71,1.07.19.8-.46Z"/>
        <path d="M15.13,52.33c.26-.11.56-.59.71-.82a3.77,3.77,0,0,0,.5-1.1A4.4,4.4,0,0,0,16.26,48a6,6,0,0,0-3.56-3.78,9.69,9.69,0,0,0-11,3.5A9.85,9.85,0,0,0,.11,54.8c.09.66,1,1.27,1.12.29a13,13,0,0,1,1.54-5.25A8.24,8.24,0,0,1,6.9,46.52a8.73,8.73,0,0,1,5.41-.38,3.91,3.91,0,0,1,2.83,2.57,2.27,2.27,0,0,1-.53,2c-.28.32-.84.5-.68,1a1,1,0,0,0,1.2.59Z"/>
        <path d="M542.12,66.39c.22,0,.65-1.37.7-1.57a4.48,4.48,0,0,0,.06-1.82,7,7,0,0,0-1.71-3.34A16.73,16.73,0,0,0,535,54.84c-2.64-1-5,.06-7.29,1.45s-4,3.34-3.92,6.07c.13,3.2,2.34,5.7,4.68,7.61.58.47.61-.6.38-.91a43.25,43.25,0,0,1-2.7-4,4.28,4.28,0,0,1-.49-4,7.23,7.23,0,0,1,2.8-2.82,9.8,9.8,0,0,1,4.27-1.83c2.86-.24,5.32,2.12,7.18,4,1,1,2.1,2.26,1.87,3.73a2.47,2.47,0,0,1-.21.65,2.1,2.1,0,0,1-.6.73.56.56,0,0,0,0,.53,1,1,0,0,0,.57.42c.24,0,.37-.13.52-.12Z"/>
        <path d="M529.49,52.92a5.73,5.73,0,0,0-5.93-1.56A5.52,5.52,0,0,0,520.81,53a6,6,0,0,0-1.45,3.6,6.1,6.1,0,0,0,1.2,4.3c.15.17.39.31.6.15s.17-.52.12-.76a10.54,10.54,0,0,1-.58-2.87,4.4,4.4,0,0,1,1-2.75,5.76,5.76,0,0,1,4.82-1.78,3.48,3.48,0,0,1,2.45.92c.18.21.47.32.66,0a.9.9,0,0,0-.14-.94Z"/>
        <path d="M524.64,62.83a7.49,7.49,0,0,0-2.95-3.06,2.21,2.21,0,0,0-.92-.4,2,2,0,0,0-.82.29,4.4,4.4,0,0,0-1.29,1.14c-.82,1-1.48,2.1-2.83,2.43a5.88,5.88,0,0,1-2.29,0,6.86,6.86,0,0,0-2.28-.31c-.34.07-.12.64,0,.77a6.36,6.36,0,0,0,4.07,1,4.29,4.29,0,0,0,3.16-1.66c.36-.43.67-.9,1-1.33s.83-.93,1.32-1,1.36.64,1.77,1A5.56,5.56,0,0,1,524,63.4c.38.74,1,0,.66-.57Z"/>
        <path d="M568,65.92a4.66,4.66,0,0,0,.48-.62,2,2,0,0,0,.08-.59,2.17,2.17,0,0,0-.46-1.24c-.81-1-2.41-1.15-3.6-1.37a110,110,0,0,0-11.35-2c-2.73-.2-6.32.41-7.24,3.43a6,6,0,0,0,0,4.28,2.39,2.39,0,0,0,2.83,1.3c.57-.25.27-1.5-.34-1.49s-1.49,0-1.7-.84a5.38,5.38,0,0,1,.21-2.07,3.68,3.68,0,0,1,2.27-2.62c2.44-1.1,5.26-.51,7.79-.08l7.89,1.34a10.82,10.82,0,0,1,1.88.39c.35.12.94.67.8,1.1-.06.16-.38.17-.44.35-.21.63.89.76.89.72Z"/>
        <path d="M564.21,63.94c.27.79-.41,1.63-.91,2.18-.19.21-1.39,1.64-1.7,1,0,0,0,.09,0,0a.48.48,0,0,1,.09-.19,2.72,2.72,0,0,1,.4-.43,9.22,9.22,0,0,0,.95-.81,1.72,1.72,0,0,0,.15-2.31c-.09-.1-.26-.24-.41-.17a2.86,2.86,0,0,0-1.33,1.33,4.88,4.88,0,0,1-1.05,1.66,1.66,1.66,0,0,1-.86.42s.05.09,0,0a.3.3,0,0,1,0-.1.61.61,0,0,1,0-.27,1.31,1.31,0,0,1,1.14-1l-.56-1a5.52,5.52,0,0,1-1.59,1.87,7.9,7.9,0,0,1-1.12.67,2.12,2.12,0,0,0-1.07.76.45.45,0,0,0,.18.57c.81.42,2-.42,2.6-.9a5.69,5.69,0,0,0,1.73-2.07c.15-.32,0-1.22-.56-1a2.24,2.24,0,0,0-1.46,1.61,2,2,0,0,0,0,1.11c.11.36.36.87.75,1a2.16,2.16,0,0,0,2.17-1.24c.44-.73.6-1.74,1.42-2.16l-.41-.18c.06.08.07.08,0,0a.66.66,0,0,1,0,.15,1.69,1.69,0,0,1-.23.36,3.24,3.24,0,0,1-.57.47,3.44,3.44,0,0,0-1,1,1.67,1.67,0,0,0,1,2.29,1.38,1.38,0,0,0,1.22-.49,11.63,11.63,0,0,0,1.18-1.25,3.2,3.2,0,0,0,.72-3.08c-.08-.23-.3-.56-.6-.47s-.27.51-.2.73Z"/>
        <path d="M307,59.29A7.33,7.33,0,0,0,307.2,58a3.16,3.16,0,0,0-.47-1.34,4.66,4.66,0,0,0-2.85-2c-2.84-.82-6.16-.44-9,0-2.31.33-5.55.86-6.78,3.14a3.58,3.58,0,0,0-.26,2.79c.25.74.87,1.7,1.75,1.6.25,0,.11-.48,0-.58-.5-.64-1.13-1.05-1.07-2a2.91,2.91,0,0,1,1.31-2.07,11.81,11.81,0,0,1,5.41-1.72,34.9,34.9,0,0,1,6.62-.32,8,8,0,0,1,3,.67c1,.48,2.08,1.63,1.14,2.7-.39.44.93,1.23,1,.46Z"/>
        <path d="M287.78,57.6c-.19-.37-.26-.79-.49-1.16a4,4,0,0,0-3-1.86,4.47,4.47,0,0,0-2.42.39,4.24,4.24,0,0,0-1,.64,2.38,2.38,0,0,0-.62,1c0,.13.14.56.31.38a4.62,4.62,0,0,1,3.51-1.61c1.23,0,2.78.75,3.05,2.08l0-.26-.08.14c-.11.21.11.44.3.51s.47,0,.35-.27Z"/>
        <path d="M241.63,52.75A9.73,9.73,0,0,0,237,49.66a28.67,28.67,0,0,0-5.76-1.41,4.77,4.77,0,0,0-4.72,2.34A8,8,0,0,0,225,56.14c.06.47.75.92.8.21a9.38,9.38,0,0,1,1.69-5,4.11,4.11,0,0,1,4.87-1.78,31,31,0,0,1,4.94,1.22,12,12,0,0,1,2.21,1,7.37,7.37,0,0,1,1,.7c.24.2.44.52.74.63s.77-.06.47-.43Z"/>
        <path d="M226.37,57.09A39.47,39.47,0,0,1,233,55.8c2.39-.19,4.79-.23,7.18-.31a56.53,56.53,0,0,1,7,.3c2,.19,4.53.54,6.42-.35.25-.12.13-.72-.16-.69a33.41,33.41,0,0,1-3.47.34c-1.2,0-2.39-.15-3.58-.27a50.43,50.43,0,0,0-7.06-.13c-4.41.17-9.35,0-13.45,1.82-.33.16.22.65.46.58Z"/>
        <path d="M320.52,69.26c.11-.14.33-.19.45-.38a1.23,1.23,0,0,0,.17-.52,2.46,2.46,0,0,0-.12-1.11A6,6,0,0,0,319.33,65a12.59,12.59,0,0,0-5.77-3.54A6.52,6.52,0,0,0,307.72,63,8.56,8.56,0,0,0,304.86,68c0,.22.27.81.54.55a9.53,9.53,0,0,0,1.38-2.1,10.2,10.2,0,0,1,1.58-2.11,5.82,5.82,0,0,1,5.39-1.54A11.74,11.74,0,0,1,319,66.09c.42.39,1.65,1.38,1.07,2-.29.31-.79.29-.49.82.12.2.69.61.91.35Z"/>
        <path d="M327.39,60.05c.86.06,1.73-1,2.09-1.72a6.24,6.24,0,0,0,.56-3,13.49,13.49,0,0,0-2.53-7.23c-1.65-2.25-4.17-3.94-7-3.12a23.45,23.45,0,0,0-4.58,2,19.2,19.2,0,0,0-3.67,2.44c-2.3,2-3.87,5-2.63,8.07.23.57.77.39.63-.21-.72-3,1.6-5.8,3.85-7.44a26.73,26.73,0,0,1,4.25-2.44c1.45-.69,3.06-1.56,4.71-1.28,3,.5,4.93,3.74,5.69,6.4a9.28,9.28,0,0,1,.43,3.66,3.7,3.7,0,0,1-2.34,3c-.49.26.3.86.58.88Z"/>
        <path d="M316.42,50.5l.14.3-.08-.31a8.94,8.94,0,0,0,1.31,4.32,9.77,9.77,0,0,0,1.43,1.84,12.34,12.34,0,0,0,.92.85,2.76,2.76,0,0,0,1,.59c.3.07.19-.47.1-.58a5.88,5.88,0,0,0-.85-.72c-.28-.22-.56-.46-.82-.71a9.23,9.23,0,0,1-1.33-1.66,7.7,7.7,0,0,1-1.2-3.78l0,.27.09-.16c.3-.54-.88-.74-.67-.25Z"/>
        <path d="M313.4,51.33c.08,0-.06.33-.07.35l-.15.4c-.08.26-.15.53-.21.8a7.38,7.38,0,0,0-.14,1.69,6,6,0,0,0,.87,3.21c.21.31.43-.06.35-.29a17.3,17.3,0,0,1-.52-1.69,6.42,6.42,0,0,1-.1-1.75,6.61,6.61,0,0,1,.35-1.69l.09-.24c.06-.14.17-.24.23-.37a.34.34,0,0,0,0-.31.55.55,0,0,0-.38-.25.33.33,0,0,0-.17,0s-.11.13-.12.13Z"/>
        <path d="M334.58,61.55c-1.55-1.38-5.71-3.7-3.15-6.11,2.05-1.94,5.5-1.64,8.1-1.9,2.79-.27,5.76-.73,8.48.22a4.45,4.45,0,0,1,2.76,2.05,3,3,0,0,1-.89,3.21c-.21.23,0,1,.36.84,2.08-.72,2.2-3.32,1.26-5-1.25-2.21-4.08-3-6.45-3.16a27.35,27.35,0,0,0-4.95.27c-1.58.18-3.18.26-4.75.46-2.26.28-5.37,1.24-5.63,3.93a4.17,4.17,0,0,0,1.19,3.13,8.33,8.33,0,0,0,3.43,2.58c.36.1.5-.29.24-.52Z"/>
        <path d="M452,53.68a13.83,13.83,0,0,0,.94-1.51,6.73,6.73,0,0,0,.53-1.44,8,8,0,0,0,.16-3,9,9,0,0,0-3.14-5.56,8.7,8.7,0,0,0-3.19-1.73,7.47,7.47,0,0,0-4.18.37A15,15,0,0,0,436,45.11a8.07,8.07,0,0,0-1.68,8.29c.22.55.8.38.61-.2C433.22,48,438,44,442.31,42.34a14.22,14.22,0,0,1,3.49-1,5.82,5.82,0,0,1,3.49,1,7.66,7.66,0,0,1,3.44,4.5,6.38,6.38,0,0,1-1.57,6.18c-.17.17.09.49.22.59a.61.61,0,0,0,.36.13s.3-.09.27-.1Z"/>
        <path d="M444,42.64c0,.21-.29.48-.4.67s-.21.4-.3.61a6.64,6.64,0,0,0-.44,1.3,7.66,7.66,0,0,0-.13,2.7,6.9,6.9,0,0,0,2.66,4.76c.23.15.24-.21.14-.33a8.71,8.71,0,0,1-2.29-4.45,6.25,6.25,0,0,1,1.36-4.9c.27-.28-.56-.73-.6-.36Z"/>
        <path d="M439,45.47l0,.18v-.23a7.85,7.85,0,0,0,.18,3.88,8.55,8.55,0,0,0,.82,1.83,3.85,3.85,0,0,0,1.28,1.46c.16.1.16-.2.12-.28-.3-.53-.71-1-1-1.5a7.48,7.48,0,0,1-.74-1.6,7,7,0,0,1-.34-1.7,8.61,8.61,0,0,1,0-.88,2.16,2.16,0,0,1,.19-1c.21-.34-.62-.64-.51-.19Z"/>
        <path d="M443.62,64.1a3.34,3.34,0,0,0,1.88-1.91,3.94,3.94,0,0,0,.2-2.49c-.53-2.07-2.47-3.5-4.4-4.18A11.83,11.83,0,0,0,429.65,58c-1.39,1.33-2.75,4.12-.75,5.57.31.23.42-.27.28-.48-1.34-2,.71-4.13,2.35-5.22A11.84,11.84,0,0,1,437.59,56a9,9,0,0,1,6.06,1.82,3.48,3.48,0,0,1,1.47,3.07,3.6,3.6,0,0,1-2,2.57c-.39.23.26.75.54.69Z"/>
        <path d="M434.49,62.41,433,60.26l-.23.4a7.52,7.52,0,0,1,1.36,2l.18-.44-3-1.1a.15.15,0,0,0-.2.06,1.2,1.2,0,0,0,0,1.09A1.23,1.23,0,0,0,432,63c.3.06.19-.55,0-.62a1,1,0,0,1-.51-.33.73.73,0,0,1-.06-.14.33.33,0,0,1,0-.21l-.2.07,3,1.12c.28.1.25-.3.19-.44A8.12,8.12,0,0,0,433,60.26c-.08-.09-.21-.14-.29,0a.38.38,0,0,0,.06.42l1.52,2.13a.16.16,0,0,0,.28,0,.37.37,0,0,0-.06-.4Z"/>
        <path d="M424.83,56.23c-1.87-3-4.55-6.19-8.51-5.8A6.87,6.87,0,0,0,411.53,53a5.72,5.72,0,0,0-.52,5.74c.25.56.7.12.59-.34a5.39,5.39,0,0,1,1.12-5,6.12,6.12,0,0,1,4.49-1.93c3.3,0,5.46,2.66,7.06,5.25.37.6.87,0,.56-.49Z"/>
        <path d="M25.06,59.72a12,12,0,0,0-5.62-3.57A37.52,37.52,0,0,0,12,54.37c-2.29-.29-4.63.31-5.81,2.45s-.77,4.82.28,6.85c.15.31.45.18.43-.14-.17-2.26-1.09-4.48.52-6.46s4-1.74,6.23-1.33a43.2,43.2,0,0,1,6,1.46,16.9,16.9,0,0,1,2.72,1.2c.84.48,1.45,1.2,2.24,1.72.37.24.75,0,.43-.4Z"/>
        <path d="M353.64,49.6c.22-.56,1.46-1,1.94-1.18a12.07,12.07,0,0,1,2-.53,39.17,39.17,0,0,1,5.4-.52c3.68-.18,7.67,0,10.93,1.9a5.65,5.65,0,0,1,3.11,4,4.42,4.42,0,0,1-2.47,4.12,17.59,17.59,0,0,1-5.15,1.92,52,52,0,0,0-5.45,1.07c-.37.12-.17.82.12.92,3.22,1,7.3-.14,10.25-1.6,2.64-1.31,4.48-3.58,3.94-6.66C377,46,367.64,45.45,362.05,45.91c-3.46.28-6.88.51-9.46,3.06-.39.39.79,1.31,1.05.63Z"/>
        <path d="M353.73,49.74c-.15.12-.33.23-.48.36a3.56,3.56,0,0,0-.49.46,5.57,5.57,0,0,0-.79,1,4.65,4.65,0,0,0-.69,2.43.5.5,0,0,0,.33.45c.19,0,.27-.12.29-.28a5.56,5.56,0,0,1,.26-1.21,4.71,4.71,0,0,1,.61-1.15,5.51,5.51,0,0,1,.94-1l.26-.2a2.92,2.92,0,0,0,.4-.29.33.33,0,0,0-.07-.45c-.11-.12-.41-.29-.57-.15Z"/>
        <path d="M14.21,59.51c0,.17-.09.42-.12.59a3,3,0,0,0-.05.6,3.47,3.47,0,0,0,.21,1.19,4.17,4.17,0,0,0,1.57,2l.09-.54a6.41,6.41,0,0,1-3.53-5.61c0-.14-.15-.5-.34-.34a5.6,5.6,0,0,0-1.93,3.31,5.19,5.19,0,0,0,.78,3.68c.26.39.56,0,.37-.32a21.46,21.46,0,0,0-1.16-2,.17.17,0,0,0-.26,0,.36.36,0,0,0,0,.36,21.64,21.64,0,0,0,1,2l.37-.32a4.73,4.73,0,0,1,1.05-6.17L12,57.55a7.2,7.2,0,0,0,3.9,6.36c.28.15.26-.42.09-.53a3.43,3.43,0,0,1-1.33-1.61,2.28,2.28,0,0,1,.1-2c.25-.3-.59-.6-.52-.25Z"/>
        <path d="M394.54,60.86a4.87,4.87,0,0,1,.49-.93,7.85,7.85,0,0,0,.32-.8,7.11,7.11,0,0,0,.3-1.58,8.8,8.8,0,0,0-.35-3.23,16.19,16.19,0,0,0-1.72-3.76,16.81,16.81,0,0,0-2.06-3.07c-1.78-1.85-4.23-.26-5.74,1a18,18,0,0,1-7,3.38c-.41.13-.16,1,.23,1a12.6,12.6,0,0,0,5.71-2.06c1.66-1,3.35-3.42,5.57-2.91,1.09.25,1.71,1.67,2.26,2.54a17.88,17.88,0,0,1,1.68,3.14c.83,2.12,1,4.87-.66,6.65-.4.43.85,1.17,1,.58Z"/>
        <path d="M403.9,60.14s.27-.54.29-.59a3.81,3.81,0,0,0,.24-.64,4,4,0,0,0,.11-1.38A4.17,4.17,0,0,0,403.37,55a5,5,0,0,0-5.29-1A3.1,3.1,0,0,0,396,55.94c0,.19.18.87.47.59s.47-.56.75-.8a3.73,3.73,0,0,1,1-.64,5.18,5.18,0,0,1,2.49-.38,3.15,3.15,0,0,1,3.1,3.12,2.89,2.89,0,0,1-.38,1.25c-.16.28-.54.45-.37.79a.67.67,0,0,0,.38.34.58.58,0,0,0,.18,0,1.69,1.69,0,0,0,.26-.11Z"/>
        <path d="M366,61.68a8.63,8.63,0,0,0-3.55-.46c-1.3,0-2.6.06-3.89.14s-2.51.15-3.77.16l-1.86,0a8.53,8.53,0,0,0-1.75,0c-.26.05-.06.52.09.59a8.38,8.38,0,0,0,3.52.44c1.26,0,2.51-.12,3.76-.21s2.5-.19,3.75-.21c.62,0,1.24,0,1.86,0a12.12,12.12,0,0,0,2,.15c.39,0,0-.54-.15-.61Z"/>
        <path d="M223.11,69.74c1.46.86,3.51,0,4.48-1.28,1.18-1.5,1.12-3.56.84-5.35a17.45,17.45,0,0,0-5.5-10.1,21.53,21.53,0,0,0-11.54-5.23c-1.95-.27-4.68-.62-6.52.3a10.84,10.84,0,0,0-2.28,1.83c-1,.9-2,1.8-3,2.71-1.72,1.57-3.46,3.23-3.94,5.61a10.63,10.63,0,0,0,1.44,7.36c.32.51.88.38.8-.26-.29-2.51-1.62-5-.41-7.44,1-2.09,3.08-3.67,4.72-5.25a34.83,34.83,0,0,1,2.63-2.53,5.45,5.45,0,0,1,3.55-.9,21.68,21.68,0,0,1,6.93,1,17.93,17.93,0,0,1,10.42,8.09,14.18,14.18,0,0,1,1.85,6.07A4.17,4.17,0,0,1,226.29,68c-1,.82-2,.72-3.27.81-.68,0-.26.73.09.93Z"/>
        <path d="M65.63,53.63c2.48,1,5.22-1.74,5.62-4,.5-2.87-1.08-5.93-3.23-7.75-2.67-2.27-6.33-2.55-9.68-2.32a35.19,35.19,0,0,0-10.79,2.23c-2.86,1.17-6.65,3.51-7.06,6.89,0,.31.46,1.34.87.87a29.92,29.92,0,0,1,2.81-3.46,15.3,15.3,0,0,1,4.39-2.63,34.54,34.54,0,0,1,11.1-2.32c3.52-.2,7.3.4,9.44,3.52,1.12,1.63,1.78,3.9.7,5.71s-2.65,1.93-4.4,2.33c-.56.13-.09.84.23,1Z"/>
        <path d="M186.6,55.8c.3.26-.3-.24-.36-.29-.22-.16-.46-.31-.7-.45a7.68,7.68,0,0,0-1.77-.7,11.56,11.56,0,0,0-3.7-.35,18.17,18.17,0,0,0-7.71,2.23c-2.07,1.15-4,3.09-4.28,5.55a6.07,6.07,0,0,0,.83,3.69,7.45,7.45,0,0,0,1.34,1.72,4.56,4.56,0,0,0,1.78,1c.62.22.56-.77.29-1a17.59,17.59,0,0,1-2.23-2.65,3.12,3.12,0,0,1-.37-2.67c.62-2,2.67-3.41,4.39-4.39,3.31-1.89,8.95-3.18,12.19-.54.62.5.71-.72.3-1.07Z"/>
        <path d="M641.8,62.43a21.74,21.74,0,0,0-4.58-6.26,19.73,19.73,0,0,0-7.3-4.18,15.66,15.66,0,0,0-8-.44c-2.24.5-5.15,1.65-5.94,4-.13.37.25,1.2.72.89.83-.56,1.47-1.33,2.3-1.9a10.51,10.51,0,0,1,3.21-1.47,14.25,14.25,0,0,1,7.82.26,19.34,19.34,0,0,1,6.44,3.43,17.56,17.56,0,0,1,2.56,2.54,8.9,8.9,0,0,1,2,3.09c.13.57,1.14.66.8,0Z"/>
        <path d="M615.6,66.3a15.88,15.88,0,0,0,.2-2.59,8.27,8.27,0,0,0-.78-2.47,18.66,18.66,0,0,0-3.61-4.82c-2.66-2.75-5.86-5-9.74-5.47a9.78,9.78,0,0,0-9.5,4,10.72,10.72,0,0,0-1.7,5.15,11.61,11.61,0,0,0,.89,6.22c.15.29.58.47.7,0,.44-1.57,0-3.3,0-4.91a10.09,10.09,0,0,1,1.09-4.8,8.2,8.2,0,0,1,7.93-4.25,14.33,14.33,0,0,1,8.82,4.11c2.05,1.9,6.54,6.19,4.63,9.31-.38.61,1,1.29,1.07.52Z"/>
        <path d="M585.1,58.32c-.06-.56.16-1.11.08-1.69a4.67,4.67,0,0,0-.46-1.41,6.24,6.24,0,0,0-2.46-2.53c-2.56-1.47-5.89-1.41-8.73-1.09a9.15,9.15,0,0,0-6.81,3.64,6.12,6.12,0,0,0-.64,6.22c.32.65.85.17.71-.4a5.61,5.61,0,0,1,1-4.89,8.26,8.26,0,0,1,5.43-3,17.52,17.52,0,0,1,7.14.1,6.89,6.89,0,0,1,2.92,1.46c.8.72,1.59,2.06.86,3.09-.41.58,1,1.16,1,.48Z"/>
        <path d="M42.59,55.26c.24.23-.19-.17-.23-.22l-.69-.64c-.5-.47-1-.93-1.54-1.37a17.78,17.78,0,0,0-3.05-2A11,11,0,0,0,30,49.82,8.1,8.1,0,0,0,25.07,53a9.54,9.54,0,0,0-1.8,5.64c0,.4.7,1.26.86.52.75-3.41,2.5-6.95,6.14-7.9C35,50,39.09,53.15,42.34,56.15c.48.45.57-.58.25-.89Z"/>
        <path d="M449.37,61.34c-3.45-4,3.24-6.57,6.13-7.51,2-.65,3.52,0,5.48.51s3.2-.2,4.88-1c2-.9,3.94-.26,5.9.58a36.09,36.09,0,0,1,5.58,3.08c1.71,1.11,3.39,2.28,5.1,3.4.89.58,1.77,1.16,2.71,1.65s2,.84,2.9,1.38c.59.34.53-.89.19-1.15-1.78-1.32-3.32-2.88-5.18-4.13-1.63-1.09-3.27-2.18-4.93-3.24-3-1.91-6.4-4.17-10-4.57-1.79-.2-3.07.64-4.65,1.29-1.84.76-3.39-.08-5.19-.48-3.05-.67-6.75,1.3-8.88,3.38a5.86,5.86,0,0,0-1.91,4A3.73,3.73,0,0,0,449,61.87c.45.26.68-.2.39-.53Z"/>
        <path d="M72.9,58.65c-.54-1-.94-2.13-1.54-3.14A21,21,0,0,0,69.65,53c-.48-.59-1.09-1.54-1.9-1.7a2.65,2.65,0,0,0-1.38.24l-1.64.54a25.24,25.24,0,0,0-6,2.37c-1.47,1-2.64,2.78-1.92,4.57.25.62,1.16.76,1-.11-.37-1.66,1-2.9,2.37-3.63a37.82,37.82,0,0,1,4.85-2,12.41,12.41,0,0,1,2.5-.89c.83-.12,1.52,1,2,1.63a19.12,19.12,0,0,1,1.46,2.13c.22.37.42.75.61,1.13A3.2,3.2,0,0,1,72,58.61c0,.59,1.25.77.86,0Z"/>
        <path d="M68.55,63.72c.15-1,1.54-2.14,2.29-2.78a12.79,12.79,0,0,1,3-1.91,16,16,0,0,1,7.52-1.31c1.38.08,2.83-.11,4.19,0a8.83,8.83,0,0,1,3.79,1.81,23.6,23.6,0,0,1,3.09,2.14,2.77,2.77,0,0,1,.67,3.69c-.15.3,0,1.22.54,1,2.76-1.14.93-4.85-.6-6.25a31.3,31.3,0,0,0-4.24-2.93,7.22,7.22,0,0,0-4.63-1.39C82.44,56,80.7,55.79,79,56a16.6,16.6,0,0,0-4.68,1.28,15.94,15.94,0,0,0-3.92,2.4,22.11,22.11,0,0,0-2.86,3.4c-.43.54,1,1.24,1,.63Z"/>
        <path d="M105.49,60.35a2,2,0,0,0-1.2-.58,5.33,5.33,0,0,0-1-.08,12.66,12.66,0,0,0-2,.18,14.62,14.62,0,0,0-4,1,4.24,4.24,0,0,0-2.38,2.32,2.66,2.66,0,0,0-.06,1.65c.11.36.4,1,.87.89.07,0,.1-.11.11-.18,0-.37-.17-.7-.18-1.07a2.15,2.15,0,0,1,.4-1.19,4.56,4.56,0,0,1,2.58-1.62A21.79,21.79,0,0,1,101.9,61a11.1,11.1,0,0,1,1.73-.13,9.41,9.41,0,0,0,1.81.18c.34-.06.23-.5,0-.66Z"/>
        <path d="M117.9,63.94a4.35,4.35,0,0,1,.4-.81,3.68,3.68,0,0,0,.23-.71,4.5,4.5,0,0,0,.1-1.32,6,6,0,0,0-1-2.88,10.43,10.43,0,0,0-5.72-3.7c-2.3-.7-5.19-1.43-7.44-.26a3.15,3.15,0,0,0-1.75,2.07c-.09.4-.08.82-.15,1.22s-.43.77-.61,1.21a.6.6,0,0,0,.29.68c.71.24,1-.48,1.18-1.08.18-.84,0-1.65.63-2.35,1.55-1.68,4.34-1.22,6.31-.78A13.43,13.43,0,0,1,116,57.7c1.65,1.36,2.69,3.94,1,5.71-.37.38.78,1.07.88.53Z"/>
        <path d="M111,61.36q.36,0,.12-.09l-.1,0a2.13,2.13,0,0,0-.25,0l-.51-.08a6.82,6.82,0,0,1-.88-.26,6.24,6.24,0,0,1-1.67-.89A4.21,4.21,0,0,1,106,57.34l-.61.2.89,2.05c.14.32.3.63.45.94a4.75,4.75,0,0,0,.56.95c.14.17.31,0,.28-.16a4.62,4.62,0,0,0-.31-1c-.14-.38-.28-.75-.44-1.11l-.91-2.1a.4.4,0,0,0-.42-.26c-.17.06-.21.3-.19.45A5.66,5.66,0,0,0,107.72,61a7.27,7.27,0,0,0,2.18,1,6.77,6.77,0,0,0,1.19.23c.26,0,.67,0,.66-.36a.64.64,0,0,0-.27-.41s-.45-.23-.47-.13Z"/>
        <path d="M121.84,66.46c-.66-.4-1.39-.9-.83-1.74a2.9,2.9,0,0,1,1.34-.91,22.43,22.43,0,0,1,3.23-.91,16.83,16.83,0,0,1,7.94-.47,18.51,18.51,0,0,1,6.26,3.09c.8.56,2.19,1.49,2.05,2.62a2.61,2.61,0,0,1-2.2,1.92c-.63,0-.34,1.16.17,1.23,3.21.43,4-3.18,2.42-5.37a12.57,12.57,0,0,0-3.83-3,17.28,17.28,0,0,0-4.92-2.1,14,14,0,0,0-5.94.06,22.11,22.11,0,0,0-5.47,1.57,3,3,0,0,0-2,2.62c0,1,.66,2.12,1.75,2,.39,0,.32-.46,0-.62Z"/>
        <path d="M771.19,64.55c-.2-.43,1.7-1.17,2-1.47a2.14,2.14,0,0,0,.55-2.09c-.48-2.14-2.74-2.79-4.68-2.59-2.48.26-4.63,1.68-7.07,2.13-1.82.33-4.27.23-5.38,2-.17.26.11.95.46.7,1.41-1,3.22-1.08,4.88-1.35,2.09-.34,3.9-1.37,5.92-1.94a7,7,0,0,1,3.11-.26c.83.15,2.11.73,2,1.78-.09.78-1,1.11-1.61,1.46a2.32,2.32,0,0,0-1.09,1.39c-.27.6,1.2.88.9.24Z"/>
        <path d="M95.19,55.56c-.14-.49-.09-1-.2-1.55a7,7,0,0,0-.49-1.39,14.37,14.37,0,0,0-1.8-2.78c-1.13-1.43-2.41-3-4.46-2.73-1.83.26-3.14,1.83-4.09,3.29a12,12,0,0,1-1.58,2.1,7.45,7.45,0,0,1-2.33,1.23c-.55.25-.18,1.17.29,1.28,1.46.33,2.8-1,3.6-2.1,1-1.3,1.49-2.8,2.84-3.8a3.3,3.3,0,0,1,2.4-.72,3.7,3.7,0,0,1,2.21,1.53,19.45,19.45,0,0,1,1.83,2.42c.41.68,1.19,2,.79,2.84s1.23,1.17,1,.38Z"/>
        <path d="M150.14,59c-.38-1.25-.36-2.62-.74-3.9a17.5,17.5,0,0,0-1.48-3.44,19.24,19.24,0,0,0-5.16-5.87c-4.31-3.25-10.28.41-12.52,4.54a14.7,14.7,0,0,0-1.48,9.41c.1.46.74,1,.83.22.19-1.62,0-3.25.32-4.87a11.81,11.81,0,0,1,1.71-4.55,10.92,10.92,0,0,1,6.71-4.62A5.11,5.11,0,0,1,143,47.2a18.35,18.35,0,0,1,3.13,3.22,16,16,0,0,1,2.19,3.88c.46,1.2,1.23,3.17.87,4.46-.17.59,1.13.94.92.24Z"/>
        <path d="M164,58.62a16.27,16.27,0,0,0-4.87-4.8,5.63,5.63,0,0,0-3-1,7,7,0,0,0-3,1,21.69,21.69,0,0,0-5.16,3.46c-1.13,1.12-2.5,3.06-1.79,4.73.07.17.45.65.61.26.27-.63.26-1.33.56-2a6.82,6.82,0,0,1,1.55-2.07,22,22,0,0,1,4.62-3.2,6.63,6.63,0,0,1,2.79-1,5,5,0,0,1,3,1,15.9,15.9,0,0,1,4.4,4.29c.36.52.61-.28.37-.63Z"/>
      </g>
    </g>
  </g>
</svg>
