<svg xmlns="http://www.w3.org/2000/svg" viewBox="0 0 1892.86 50">
  <g id="Layer_2" data-name="Layer 2">
    <g id="water">
      <g>
        <g style="opacity: 0.85">
          <path d="M581.29,17.38l8.66.18c-1.45-.09-2.89-.22-4.36-.42A18.4,18.4,0,0,0,581.29,17.38Z" style="fill: #202020"/>
          <path d="M598,17.73l1.54,0,1.31-.07Z" style="fill: #202020"/>
          <path d="M613,17.65c-2.66-.08-5.21-.08-7.67,0C607.52,17.71,610.05,17.74,613,17.65Z" style="fill: #202020"/>
          <path d="M601,17.28c.93.15,1.38.31-.15.41h-.07l4.55-.08C603.72,17.53,602.27,17.42,601,17.28Z" style="fill: #202020"/>
          <path d="M601,17.28c-.89-.15-2.31-.3-2.79-.39C599,17,600,17.16,601,17.28Z" style="fill: #202020"/>
          <path d="M604.89,13.83c1.52-.09,1.14.89,4.15.71,7.05-.2,13.09-.57,19.68-.53,3-.2,7.73.93,10.74.73,7.07-.22,25.1-1.5,14.48-1.47l-21,.16c-6.4.06-12.59.13-19.76.13-11.66.28-22.87.58-34.81.76-3.35,0-6.47-.15-9.61-.27,4.1.23,8.29.47,13,.67C587.86,15.08,595.29,14,604.89,13.83Z" style="fill: #202020"/>
          <path d="M517.58,15.41l4.53-.21c6.68.89,13.75.79,20.81.66l-3.11-.56c-4,0-4.52.23-.94.52-8.19-.77-15.94-1.09-23.89-1.19C515.46,14.91,515.35,15.22,517.58,15.41Z" style="fill: #202020"/>
          <path d="M510.32,14.59l4.66,0-.17-.09-4.66,0Z" style="fill: #202020"/>
          <path d="M645,17.08l57.32.08a29.26,29.26,0,0,1,4.31-.18c1.44.09,2.89.15,4.33.19h8l2.84-.05h.07c1.51-.07,1.06-.15.13-.23s-2-.12-2.82-.2c.52,0,1.9.12,2.82.2,1.27.06,2.68.12,4.33.14,2.45-.05,5-.07,7.66-.06-2.94.09-5.48.09-7.66.06l-4.53.1-1.31.05h18.36l3.84-.07c4.43-.1,8.84-.2,11.58.05h3.28l-.63,0,1.23,0,13.89,0c3-.13,6.08-.3,9.18-.41l3.13.25c1.25-.16,3.05-.27,5.15-.34-2.51-.14-4.79-.31-6.92-.4-3.13-.25-6.93.64-10.63.14,3.7.5,7.5-.39,10.63-.14,2.13.09,4.41.26,6.92.4,4.38-.15,10.06-.11,14.64.11a126.74,126.74,0,0,1-14.64-.11c-2.1.07-3.9.18-5.15.34l-3.13-.25c-3.1.11-6.18.28-9.18.41l27.6-.14c60.25-.32,115.77-1.68,178.19-2.83,33.82-.59,66.32-1,98.18-1.2s62.11-.46,92.53-.4,60.94.47,92.9,1.73c12.27.45,29.8.87,47.21,1.31s34.73.88,46.55,1.27c31.83.2,15.86-2.81,14.37-3a277.33,277.33,0,0,0-29.49-2.41c-11.24-.48-25-.89-44.92-2,27.1,1.34-20.16.78-45.75-.95-18.52-1.36-41.12-1.69-64.8-1.66s-48.43.43-71.4.39c-5.74,0-11.66,0-17.86.12l-19.53.27C1004.7,8,938.94,10.78,864.45,12c-19.74.35-37,1.16-53.66,1.65-12.14.26-25.14.11-35,.22-7.77.06-15,.18-21.87.32s-13.42.27-19.82.44l40.7-.64c10.64-.14-7.36.79-14.41,1-3,.15-7.77-.44-10.78-.3-6.56,0-12.58.34-19.62.54-3,.14-2.68-.43-4.18-.36-9.6.17-17,.93-23.13.78l-13-.23c-2.59,0-5.16-.06-7.9,0l-5.22.14a6.65,6.65,0,0,1,2.36.6c-2.53,0-6.11-.16-8.65-.19,2.54,0,6.12.16,8.65.19a6.65,6.65,0,0,0-2.36-.6c-6.32.17-13.13.32-20.05.45s-14,.26-20.75.34l.19.05c7.93,0,15.66,0,23.89.41-3.56-.13-3.12-.29.94-.31l3.11.29c-7.07.14-14.13.29-20.82-.14l-4.52.17c-2.24-.08-2.14-.26-2.6-.42l-4.69,0c1.65.15,5.08.32,8.09.46S645,17.08,645,17.08Z" style="fill: #202020"/>
          <path d="M726.55,16.92l-3.82.11h15.42C735.41,16.58,731,16.76,726.55,16.92Z" style="fill: #202020"/>
        </g>
        <g style="opacity: 0.85">
          <path d="M513.26,17.75l-5.58-.4c.93.12,1.85.26,2.79.46A10.14,10.14,0,0,0,513.26,17.75Z" style="fill: #202020"/>
          <path d="M502.53,17l-1-.07h-.86Z" style="fill: #202020"/>
          <path d="M492.79,16.48c1.71.16,3.36.25,4.95.32C496.35,16.64,494.72,16.52,492.79,16.48Z" style="fill: #202020"/>
          <path d="M500.51,17.21c-.58-.16-.86-.3.13-.31h0l-2.94-.1C498.79,16.92,499.72,17.06,500.51,17.21Z" style="fill: #202020"/>
          <path d="M500.51,17.21c.57.15,1.47.31,1.78.4C501.77,17.47,501.18,17.34,500.51,17.21Z" style="fill: #202020"/>
          <path d="M497.77,19.74c-1,0-.68-.73-2.64-.7-4.58-.11-8.51-.05-12.77-.38-2,0-4.92-1.06-6.88-1.05-4.59-.14-16.35-.09-9.49.44,10.33.74,17.09,1.06,26.38,1.59,7.56.24,14.85.36,22.59.57,2.17.1,4.18.28,6.21.45l-8.35-.86C508.88,19.33,504,20,497.77,19.74Z" style="fill: #202020"/>
          <path d="M554.39,20.44l-2.94.13A80.26,80.26,0,0,0,538,19.78l2,.49c2.62.09,2.93-.11.63-.4a138,138,0,0,0,15.43,1.2C555.74,20.85,555.83,20.61,554.39,20.44Z" style="fill: #202020"/>
          <path d="M559.07,21.14l-3-.07.1.07,3,0Z" style="fill: #202020"/>
          <path d="M472.11,15.75c-12.91-.92-25.05-1.91-36.91-2.85a11.34,11.34,0,0,1-2.8,0c-.91-.19-1.84-.33-2.75-.45L424.46,12,422.63,12h-.05c-1,0-.71.14-.12.28s1.26.25,1.78.38c-.33-.08-1.21-.24-1.78-.38-.81-.14-1.71-.27-2.77-.39-1.58-.06-3.24-.15-4.94-.3,1.91,0,3.54.15,4.94.3l2.94.11h.85l-11.83-.9L409.17,11a40.92,40.92,0,0,1-7.46-.61l-2.12-.14.4.09-.78-.11-9-.57c-2,0-4,.11-6,.11l-2-.42a22.71,22.71,0,0,1-3.38.23c1.61.26,3.06.54,4.42.73,2,.43,4.56-.49,6.88.27-2.32-.76-4.9.16-6.88-.27-1.36-.19-2.81-.47-4.42-.73a66.06,66.06,0,0,1-9.44-.67,44.37,44.37,0,0,1,9.44.67,22.71,22.71,0,0,0,3.38-.23l2,.42c2,0,4-.08,6-.11-5.86-.37-11.79-.61-17.85-.88l-7.28-.33-7.23-.21c-4.8-.12-9.56-.28-14.31-.36-9.51-.11-18.94-.23-28.41-.17s-19,.13-28.68.21l-29.64.45c-21.92.31-43,.59-63.62.53s-40.2.08-59.87-.24S94,7.27,73.57,5.05c-7.84-.84-19.09-1.85-30.36-2.8S20.68.48,12.93,0C2.48-.1-.13.86,0,1.75s3,1.86,3.44,2C15.78,7,25.74,6.33,51.19,10c-8.68-1.16-5.39-1.29,2.11-.74s19.21,1.75,27.44,3a183.25,183.25,0,0,0,19.69,2.21c3.54.23,7.19.42,10.92.58s7.53.19,11.37.26,7.74.12,11.64.11l11.72,0,5.84,0,5.79,0c3.83,0,7.63,0,11.36.09,7.44.11,15.35-.11,24.24-.2,46.11.12,88.69-2.69,136.84-2.44,6.37.05,12.37-.14,18.1-.23s11.23-.25,16.61-.31c3.92.08,8,.28,11.82.48l10.71.58c10,.46,18.63.75,26.91,1-9.23-.48-16-.72-26.26-1.11-6.85-.28,4.85-.67,9.42-.59,2,0,4.92.89,6.88.86,4.23.25,8.15.19,12.71.31,2,0,1.65.65,2.63.64,6.2.28,11.09-.26,15,.23l8.3.94c1.67.16,3.32.32,5.09.43l3.39.08a2.82,2.82,0,0,1-1.42-.84c1.63.16,3.91.49,5.54.65-1.63-.16-3.91-.49-5.54-.65a2.82,2.82,0,0,0,1.42.84c8.21.22,17.66.57,26.45.9l-.11-.07c-5.13-.3-10.1-.73-15.35-1.55,2.28.33,2,.5-.66.34l-1.95-.49a88.1,88.1,0,0,1,13.4,1.1l2.95,0c1.43.2,1.33.41,1.61.62l3,.15C478.76,16.68,472.11,15.75,472.11,15.75Z" style="fill: #202020"/>
          <path d="M419.58,11.22l2.47.13-9.93-.85A37.85,37.85,0,0,0,419.58,11.22Z" style="fill: #202020"/>
        </g>
        <g style="opacity: 0.85">
          <path d="M1494.33,37.68c1.19.18,2.37.37,3.56.57l1.78.31.87.16.73.14-1.58-.39-1.76-.47A15.05,15.05,0,0,0,1494.33,37.68Z" style="fill: #202020"/>
          <path d="M1506.34,40l.93.24,1,.18Z" style="fill: #202020"/>
          <path d="M1516,43.21a18.31,18.31,0,0,0-4.7-2C1512.53,41.71,1514,42.24,1516,43.21Z" style="fill: #202020"/>
          <path d="M1509.08,40.28c.38.23.35.36-.8.14h0c1,.24,2.06.5,3.11.82C1510.46,40.87,1509.71,40.56,1509.08,40.28Z" style="fill: #202020"/>
          <path d="M1509.08,40.28c-.35-.23-1.17-.56-1.41-.68Z" style="fill: #202020"/>
          <path d="M1517.74,40.28c1.36.54-.41.52,2.08,1.58a31.18,31.18,0,0,1,3.44,2c.28.16.54.38.81.57a8.94,8.94,0,0,1,.79.62l.39.33.19.17.1.08s0,0,0,.06l-.2.45a53.45,53.45,0,0,1-8.65,2.3,17.94,17.94,0,0,1-2.52.33c-1.06.05-2.15.11-3.35.1s-2.29,0-3.35,0-2,0-2.77.06c-1,0-2.09.11-3.38.15l-3.5.15-6.14.23c-3.5.12-5.12.28-.55.48,3,.1,5.78.15,8.43.14l2.81,0c1,0,1.91,0,2.83-.07,1.86,0,3.61-.16,5.29-.29a54.25,54.25,0,0,0,8.6-1.28c2.4-.58,4.68-1.16,7.4-2.07l.09-.5s-.09-.12-.14-.18l-.21-.19-.42-.38c-.57-.49-1.16-1-1.76-1.41a31.08,31.08,0,0,0-6.51-3.47,61.58,61.58,0,0,0-8.69-2.57c-1.56-.36-3.19-.66-4.77-1l-2.28-.38-.57-.09-.47-.07-.92-.13q-3.7-.51-7.5-.9l-8.14-1c3.47.44,7,1,10.91,1.64,1.28.24,2.63.43,4.08.61l2.3.27c.91.13,1.83.23,2.86.39,2.06.31,4.37.69,6.69,1.24A41.82,41.82,0,0,1,1517.74,40.28Z" style="fill: #202020"/>
          <path d="M1477.87,40.56c-1.26-.11-3.78-.44-3.78-.44-2.35-.73-4.74-1.4-7.06-2.23a26.68,26.68,0,0,1-6.45-3.16l-.35.91c.66-.11,1.32-.23,2-.3-.7-.05-1.38-.06-2.09-.07l.11-.27.35.36a10.38,10.38,0,0,0,1.57,1,2.26,2.26,0,0,0,.73.29c.18,0-.31-.36-1.38-1.16a20.27,20.27,0,0,0,4,2.41,36,36,0,0,0,4.61,1.64,78.11,78.11,0,0,0,9.74,2C1479.55,41.2,1479.69,41,1477.87,40.56Z" style="fill: #202020"/>
          <path d="M1483.79,42.07l-3.88-.6a.62.62,0,0,0,.12.09c1.31.18,2.62.35,3.9.55Z" style="fill: #202020"/>
          <path d="M1498.87,47.13c-8.49-.09-16.71-.65-24.71-1.42s-15.81-1.81-23.44-3.09a16.16,16.16,0,0,1-3.63-.37c-1.16-.34-2.33-.63-3.5-.91-2.22-.42-4.42-.88-6.6-1.35l-2.33-.44h-.06c-1.26-.19-.94,0-.22.28s1.58.53,2.22.77c-.41-.15-1.51-.5-2.22-.77-1-.33-2.12-.66-3.45-1-2-.44-4.08-.93-6.18-1.56,2.39.57,4.44,1.07,6.18,1.56,1.27.27,2.5.51,3.73.75l1.09.16c-5-1.12-9.92-2.38-14.72-3.88-1.12-.32-2.18-.64-3-.9-3.5-1-6.9-2.31-8.64-3.56-.78-.37-1.56-.75-2.31-1.17l.39.29-.8-.51a29.15,29.15,0,0,1-4.36-2.94,10.9,10.9,0,0,1-3-3.66,5.52,5.52,0,0,1-.12-5.64,5.07,5.07,0,0,1,.6-.61,10.87,10.87,0,0,1,1.1-.94,8.51,8.51,0,0,1,2.49-2.75,15.93,15.93,0,0,0-4.35,3.17,4.35,4.35,0,0,0-1,1.52,6.16,6.16,0,0,0-.33,1.85,25,25,0,0,0,.44,3.8,25,25,0,0,1-.44-3.8,6.16,6.16,0,0,1,.33-1.85,4.35,4.35,0,0,1,1-1.52,15.93,15.93,0,0,1,4.35-3.17c2.62-2.07,7.1-3.69,10.86-4.29a86.9,86.9,0,0,0-10.86,4.29,8.51,8.51,0,0,0-2.49,2.75,10.87,10.87,0,0,0-1.1.94,5.07,5.07,0,0,0-.6.61,5.52,5.52,0,0,0,.12,5.64,5.13,5.13,0,0,1-.21-4.06,10.08,10.08,0,0,1,2.6-3.73,25.08,25.08,0,0,1,9.17-5.1,84,84,0,0,1,18-3.57c6.15-.63,12.34-.88,18.51-1,12.34-.13,24.62.45,36.92,1.3s24.64,2.07,37.22,3.31c3.15.31,6.31.62,9.54.85l9.64.63q9.67.57,19.6,1c28.68,1.38,56.24,2.3,82.9,5,3.33.31,6.61.72,9.9,1.07l9.77,1.21q9.78,1.28,19.47,2.46c12.93,1.57,25.76,3,38.67,4.15s25.89,2.16,39.1,2.83c6.6.36,13.27.58,20,.77s13.58.25,20.52.13c5.32-.05,11.8-.4,18.82-1s14.57-1.64,22-3a217.77,217.77,0,0,0,21.46-5.15l4.82-1.57,2.3-.76,2.19-.83,4.15-1.57,3.68-1.59c6.06-3,9.36-5.4,11.09-7s1.95-2.36,1.45-2.7c-1-.65-4.78.41-5.35.62-1.91.71-3.86,1.26-5.69,1.91l-2.74,1c-.93.29-1.86.6-2.79.92l-2.79,1c-.94.34-1.92.63-2.9,1-2,.65-4,1.37-6.21,2l-3.39,1c-1.17.35-2.4.64-3.66,1s-2.57.68-3.94,1l-4.28.92-2.27.48-2.38.41c-1.62.27-3.29.58-5,.84l-5.5.71c-1.9.24-3.9.38-6,.58,5.64-.51,7.44-.64,6.66-.32a62.93,62.93,0,0,1-9,1.67c-2.42.28-5.17.62-8.13.88s-6.11.49-9.31.58l-4.8.15c-1.6,0-3.19,0-4.74,0-3.11,0-6.09-.15-8.79-.32-7.81-.58-16.39-1-25.52-1.49s-18.77-1-28.66-1.67c-19.78-1.3-40.5-3.18-59.61-5.85-4.79-.66-9.7-1.29-14.94-1.89s-10.78-1.15-16.61-1.68c-15.1-1.55-30-2.4-44.7-3s-29.32-1-43.95-1.56c-7.31-.28-14.63-.59-22-1-7.15-.39-14.61-1.17-22.12-1.81-15-1.32-30.47-2.56-46.51-3.14a238.72,238.72,0,0,0-24.29.44A153.78,153.78,0,0,0,1418.43,4c-5.26,1.11-10.81,2.54-15.78,5.17a22.75,22.75,0,0,0-6.46,5,10.65,10.65,0,0,0-2.93,7,9.62,9.62,0,0,0,1.87,5.38,18,18,0,0,0,3.68,3.76,40.09,40.09,0,0,0,8.24,4.68,101.25,101.25,0,0,0,16.3,5.25,112.4,112.4,0,0,1-16.12-5.38,41.94,41.94,0,0,1-7.66-4.26,19,19,0,0,1-3.66-3.36,10.48,10.48,0,0,1-2.38-5.08,6.51,6.51,0,0,1,0-1.68,4.55,4.55,0,0,1,.16-1c.14-.5.22-.62.24-.47a11.42,11.42,0,0,0,.36,3.7,11.86,11.86,0,0,0,3.77,5.41,29.73,29.73,0,0,0,4.9,3.34c2.29,1.21,5.43,3.66,8,4.46a102.43,102.43,0,0,0,16.19,4.51c2.54.47,2,1.11,3.26,1.34,8,1.71,14.5,1.83,19.58,2.89,3.87.75,7.39,1.37,10.82,1.94,2.18.33,4.35.63,6.68.87l4.46.28a4,4,0,0,1-1.87-1c2.13.27,5.14.73,7.29,1-2.15-.22-5.16-.68-7.29-1a4,4,0,0,0,1.87,1c5.4.32,11.22.57,17.13.67,3,0,5.94.07,8.91,0l2.28,0,2.59-.06c1.7-.07,3.33-.15,4.9-.25l-.26-.06c-3.67.19-7.81.17-11,0-3.36-.15-6.75-.43-10.21-.87,3,.34,2.61.54-.84.38l-2.59-.56,9,.28c3,.11,5.81.27,8.75.56l1.52-.1,2.39-.18a8.41,8.41,0,0,1,3,.46c1.44-.08,2.86-.19,4.23-.32-1.84,0-5.28-.07-8-.22-1.35-.06-2.54-.15-3.39-.2Z" style="fill: #202020"/>
          <path d="M1430.8,38.74l3.12.66c-4.16-1-8.29-2-12.35-3.31A44.31,44.31,0,0,0,1430.8,38.74Z" style="fill: #202020"/>
        </g>
      </g>
    </g>
  </g>
</svg>
