<svg id="gages" xmlns="http://www.w3.org/2000/svg" xmlns:xlink="http://www.w3.org/1999/xlink" viewBox="0 0 2520 1656">
  <defs>
    <symbol id="DRBgage" data-name="DRBgage" viewBox="0 0 11.88 14.24">
      <path class="b" d="M11.88,7a18.89,18.89,0,0,1-.13,2.2A6.71,6.71,0,0,1,11,11.63a4.79,4.79,0,0,1-1.95,1.94,6.36,6.36,0,0,1-2.74.67,6.42,6.42,0,0,1-5-2.41A5.76,5.76,0,0,1,.12,9.37a5.83,5.83,0,0,1,.06-2.6A10.13,10.13,0,0,1,2.41,2.66,10.12,10.12,0,0,1,4.19,1,5.55,5.55,0,0,1,6.62,0,4.64,4.64,0,0,1,9.27.5a4.36,4.36,0,0,1,1.9,1.9,6.51,6.51,0,0,1,.64,2.42C11.88,5.6,11.88,6.3,11.88,7Z"/>
      <path class="w" d="M11.48,7a2.72,2.72,0,0,0-.62-1.82,3.45,3.45,0,0,0-1.53-1c-1.11-.34-1.83-.48-2.78-.79A5.84,5.84,0,0,0,5,3.08,2.69,2.69,0,0,0,3.3,3.6a2.75,2.75,0,0,0-1,1.47,3.25,3.25,0,0,0,.05,1.75,5.23,5.23,0,0,0,1.7,2.39A4.57,4.57,0,0,0,6.42,10a6,6,0,0,0,1.27,0,8.46,8.46,0,0,0,1.49-.24,3.38,3.38,0,0,0,1.58-.92A2.91,2.91,0,0,0,11.48,7Z" style="fill: #f4f7f9"/>
    </symbol>
  </defs>
  <g id="salinity">
    <use width="11.88" height="14.24" transform="translate(471.89 999.66) scale(0.68 0.68)" xlink:href="#DRBgage"/>
    <use width="11.88" height="14.24" transform="translate(390.35 1157.07) scale(0.68 0.68)" xlink:href="#DRBgage"/>
    <use width="11.88" height="14.24" transform="translate(387.96 1130.57) scale(0.68 0.68)" xlink:href="#DRBgage"/>
    <use width="11.88" height="14.24" transform="translate(384.01 1151.08) scale(0.68 0.68)" xlink:href="#DRBgage"/>
    <use width="11.88" height="14.24" transform="translate(387.49 1120.63) scale(0.68 0.68)" xlink:href="#DRBgage"/>
    <use width="11.88" height="14.24" transform="translate(371.82 1129.02) scale(0.68 0.68)" xlink:href="#DRBgage"/>
    <use width="11.88" height="14.24" transform="translate(388.45 1132.72) scale(0.68 0.68)" xlink:href="#DRBgage"/>
    <use width="11.88" height="14.24" transform="translate(466.8 879.4) scale(0.68 0.68)" xlink:href="#DRBgage"/>
    <use width="11.88" height="14.24" transform="translate(464.56 884.04) scale(0.68 0.68)" xlink:href="#DRBgage"/>
    <use width="11.88" height="14.24" transform="translate(461.18 882.34) scale(0.68 0.68)" xlink:href="#DRBgage"/>
    <use width="11.88" height="14.24" transform="translate(461.1 882.39) scale(0.68 0.68)" xlink:href="#DRBgage"/>
    <use width="11.88" height="14.24" transform="translate(450.47 899.17) scale(0.68 0.68)" xlink:href="#DRBgage"/>
    <use width="11.88" height="14.24" transform="translate(435.17 900.58) scale(0.68 0.68)" xlink:href="#DRBgage"/>
    <use width="11.88" height="14.24" transform="translate(422.01 887.47) scale(0.68 0.68)" xlink:href="#DRBgage"/>
    <use width="11.88" height="14.24" transform="translate(447.09 884.83) scale(0.68 0.68)" xlink:href="#DRBgage"/>
    <use width="11.88" height="14.24" transform="translate(534.15 1114.68) scale(0.68 0.68)" xlink:href="#DRBgage"/>
    <use width="11.88" height="14.24" transform="translate(496.71 1125.61) scale(0.68 0.68)" xlink:href="#DRBgage"/>
    <use width="11.88" height="14.24" transform="translate(453.67 1176.89) scale(0.68 0.68)" xlink:href="#DRBgage"/>
    <use width="11.88" height="14.24" transform="translate(602.53 1065.62) scale(0.68 0.68)" xlink:href="#DRBgage"/>
    <use width="11.88" height="14.24" transform="translate(428.33 1220.77) scale(0.68 0.68)" xlink:href="#DRBgage"/>
    <use width="11.88" height="14.24" transform="translate(428.87 857.74) scale(0.68 0.68)" xlink:href="#DRBgage"/>
    <use width="11.88" height="14.24" transform="translate(575.97 718.56) scale(0.68 0.68)" xlink:href="#DRBgage"/>
    <use width="11.88" height="14.24" transform="translate(532.1 719.59) scale(0.68 0.68)" xlink:href="#DRBgage"/>
    <use width="11.88" height="14.24" transform="translate(537.77 1085.66) scale(0.68 0.68)" xlink:href="#DRBgage"/>
    <use width="11.88" height="14.24" transform="translate(596.16 1018.17) scale(0.68 0.68)" xlink:href="#DRBgage"/>
    <use width="11.88" height="14.24" transform="translate(677.99 528.32) scale(0.68 0.68)" xlink:href="#DRBgage"/>
    <use width="11.88" height="14.24" transform="translate(689.44 445.53) scale(0.68 0.68)" xlink:href="#DRBgage"/>
    <use width="11.88" height="14.24" transform="translate(707.53 420.58) scale(0.68 0.68)" xlink:href="#DRBgage"/>
    <use width="11.88" height="14.24" transform="translate(519.76 1160.11) scale(0.68 0.68)" xlink:href="#DRBgage"/>
    <use width="11.88" height="14.24" transform="translate(579.92 1106.95) scale(0.68 0.68)" xlink:href="#DRBgage"/>
    <use width="11.88" height="14.24" transform="translate(585.03 1094.29) scale(0.68 0.68)" xlink:href="#DRBgage"/>
    <use width="11.88" height="14.24" transform="translate(664.89 1084.87) scale(0.68 0.68)" xlink:href="#DRBgage"/>
    <use width="11.88" height="14.24" transform="translate(710.22 1112.51) scale(0.68 0.68)" xlink:href="#DRBgage"/>
    <use width="11.88" height="14.24" transform="translate(629.85 1109.45) scale(0.68 0.68)" xlink:href="#DRBgage"/>
    <use width="11.88" height="14.24" transform="translate(597.1 712.66) scale(0.68 0.68)" xlink:href="#DRBgage"/>
    <use width="11.88" height="14.24" transform="translate(635.92 646.06) scale(0.68 0.68)" xlink:href="#DRBgage"/>
    <use width="11.88" height="14.24" transform="translate(683.49 602.65) scale(0.68 0.68)" xlink:href="#DRBgage"/>
    <use width="11.88" height="14.24" transform="translate(679.52 538.09) scale(0.68 0.68)" xlink:href="#DRBgage"/>
    <use width="11.88" height="14.24" transform="translate(674.68 478.47) scale(0.68 0.68)" xlink:href="#DRBgage"/>
    <use width="11.88" height="14.24" transform="translate(685.74 455.47) scale(0.68 0.68)" xlink:href="#DRBgage"/>
    <use width="11.88" height="14.24" transform="translate(728.48 415.52) scale(0.68 0.68)" xlink:href="#DRBgage"/>
    <use width="11.88" height="14.24" transform="translate(697.86 443.85) scale(0.68 0.68)" xlink:href="#DRBgage"/>
    <use width="11.88" height="14.24" transform="translate(720.36 430.06) scale(0.68 0.68)" xlink:href="#DRBgage"/>
    <use width="11.88" height="14.24" transform="translate(660 625.87) scale(0.68 0.68)" xlink:href="#DRBgage"/>
    <use width="11.88" height="14.24" transform="translate(532.94 463.1) scale(0.68 0.68)" xlink:href="#DRBgage"/>
    <use width="11.88" height="14.24" transform="translate(551.17 365.18) scale(0.68 0.68)" xlink:href="#DRBgage"/>
    <use width="11.88" height="14.24" transform="translate(629.6 380.28) scale(0.68 0.68)" xlink:href="#DRBgage"/>
    <use width="11.88" height="14.24" transform="translate(651.09 384.77) scale(0.68 0.68)" xlink:href="#DRBgage"/>
    <use width="11.88" height="14.24" transform="translate(669.82 372.04) scale(0.68 0.68)" xlink:href="#DRBgage"/>
    <use width="11.88" height="14.24" transform="translate(538.61 1178) scale(0.68 0.68)" xlink:href="#DRBgage"/>
    <use width="11.88" height="14.24" transform="translate(640.43 1077.39) scale(0.68 0.68)" xlink:href="#DRBgage"/>
    <use width="11.88" height="14.24" transform="translate(679.2 1089.36) scale(0.68 0.68)" xlink:href="#DRBgage"/>
    <use width="11.88" height="14.24" transform="translate(454.04 1433.36) scale(0.68 0.68)" xlink:href="#DRBgage"/>
    <use width="11.88" height="14.24" transform="translate(414.44 1173.09) scale(0.68 0.68)" xlink:href="#DRBgage"/>
    <use width="11.88" height="14.24" transform="translate(409.38 1170.55) scale(0.68 0.68)" xlink:href="#DRBgage"/>
    <use width="11.88" height="14.24" transform="translate(395.76 1176.22) scale(0.68 0.68)" xlink:href="#DRBgage"/>
  </g>
  <g id="temp">
    <use width="11.88" height="14.24" transform="translate(390.35 1157.07) scale(0.68 0.68)" xlink:href="#DRBgage"/>
    <use width="11.88" height="14.24" transform="translate(387.96 1130.57) scale(0.68 0.68)" xlink:href="#DRBgage"/>
    <use width="11.88" height="14.24" transform="translate(384.01 1151.08) scale(0.68 0.68)" xlink:href="#DRBgage"/>
    <use width="11.88" height="14.24" transform="translate(387.49 1120.63) scale(0.68 0.68)" xlink:href="#DRBgage"/>
    <use width="11.88" height="14.24" transform="translate(371.82 1129.02) scale(0.68 0.68)" xlink:href="#DRBgage"/>
    <use width="11.88" height="14.24" transform="translate(388.45 1132.72) scale(0.68 0.68)" xlink:href="#DRBgage"/>
    <use width="11.88" height="14.24" transform="translate(498.46 1033.32) scale(0.68 0.68)" xlink:href="#DRBgage"/>
    <use width="11.88" height="14.24" transform="translate(377.69 1097.31) scale(0.68 0.68)" xlink:href="#DRBgage"/>
    <use width="11.88" height="14.24" transform="translate(558.45 593.57) scale(0.68 0.68)" xlink:href="#DRBgage"/>
    <use width="11.88" height="14.24" transform="translate(466.8 879.4) scale(0.68 0.68)" xlink:href="#DRBgage"/>
    <use width="11.88" height="14.24" transform="translate(464.56 884.04) scale(0.68 0.68)" xlink:href="#DRBgage"/>
    <use width="11.88" height="14.24" transform="translate(461.18 882.34) scale(0.68 0.68)" xlink:href="#DRBgage"/>
    <use width="11.88" height="14.24" transform="translate(461.1 882.39) scale(0.68 0.68)" xlink:href="#DRBgage"/>
    <use width="11.88" height="14.24" transform="translate(450.47 899.17) scale(0.68 0.68)" xlink:href="#DRBgage"/>
    <use width="11.88" height="14.24" transform="translate(435.17 900.58) scale(0.68 0.68)" xlink:href="#DRBgage"/>
    <use width="11.88" height="14.24" transform="translate(422.01 887.47) scale(0.68 0.68)" xlink:href="#DRBgage"/>
    <use width="11.88" height="14.24" transform="translate(447.09 884.83) scale(0.68 0.68)" xlink:href="#DRBgage"/>
    <use width="11.88" height="14.24" transform="translate(534.15 1114.68) scale(0.68 0.68)" xlink:href="#DRBgage"/>
    <use width="11.88" height="14.24" transform="translate(496.71 1125.61) scale(0.68 0.68)" xlink:href="#DRBgage"/>
    <use width="11.88" height="14.24" transform="translate(700.08 468.82) scale(0.68 0.68)" xlink:href="#DRBgage"/>
    <use width="11.88" height="14.24" transform="translate(492.52 398.84) scale(0.68 0.68)" xlink:href="#DRBgage"/>
    <use width="11.88" height="14.24" transform="translate(453.67 1176.89) scale(0.68 0.68)" xlink:href="#DRBgage"/>
    <use width="11.88" height="14.24" transform="translate(602.53 1065.62) scale(0.68 0.68)" xlink:href="#DRBgage"/>
    <use width="11.88" height="14.24" transform="translate(428.33 1220.77) scale(0.68 0.68)" xlink:href="#DRBgage"/>
    <use width="11.88" height="14.24" transform="translate(428.87 857.74) scale(0.68 0.68)" xlink:href="#DRBgage"/>
    <use width="11.88" height="14.24" transform="translate(575.97 718.56) scale(0.68 0.68)" xlink:href="#DRBgage"/>
    <use width="11.88" height="14.24" transform="translate(532.1 719.59) scale(0.68 0.68)" xlink:href="#DRBgage"/>
    <use width="11.88" height="14.24" transform="translate(516.6 1098.34) scale(0.68 0.68)" xlink:href="#DRBgage"/>
    <use width="11.88" height="14.24" transform="translate(399.21 963.13) scale(0.68 0.68)" xlink:href="#DRBgage"/>
    <use width="11.88" height="14.24" transform="translate(537.77 1085.66) scale(0.68 0.68)" xlink:href="#DRBgage"/>
    <use width="11.88" height="14.24" transform="translate(471.89 999.66) scale(0.68 0.68)" xlink:href="#DRBgage"/>
    <use width="11.88" height="14.24" transform="translate(560.92 1069.94) scale(0.68 0.68)" xlink:href="#DRBgage"/>
    <use width="11.88" height="14.24" transform="translate(596.16 1018.17) scale(0.68 0.68)" xlink:href="#DRBgage"/>
    <use width="11.88" height="14.24" transform="translate(677.99 528.32) scale(0.68 0.68)" xlink:href="#DRBgage"/>
    <use width="11.88" height="14.24" transform="translate(689.44 445.53) scale(0.68 0.68)" xlink:href="#DRBgage"/>
    <use width="11.88" height="14.24" transform="translate(707.53 420.58) scale(0.68 0.68)" xlink:href="#DRBgage"/>
    <use width="11.88" height="14.24" transform="translate(480.75 400.2) scale(0.68 0.68)" xlink:href="#DRBgage"/>
    <use width="11.88" height="14.24" transform="translate(590.29 437.24) scale(0.68 0.68)" xlink:href="#DRBgage"/>
    <use width="11.88" height="14.24" transform="translate(591.08 395.06) scale(0.68 0.68)" xlink:href="#DRBgage"/>
    <use width="11.88" height="14.24" transform="translate(587.4 905.76) scale(0.68 0.68)" xlink:href="#DRBgage"/>
    <use width="11.88" height="14.24" transform="translate(519.76 1160.11) scale(0.68 0.68)" xlink:href="#DRBgage"/>
    <use width="11.88" height="14.24" transform="translate(579.92 1106.95) scale(0.68 0.68)" xlink:href="#DRBgage"/>
    <use width="11.88" height="14.24" transform="translate(585.03 1094.29) scale(0.68 0.68)" xlink:href="#DRBgage"/>
    <use width="11.88" height="14.24" transform="translate(664.89 1084.87) scale(0.68 0.68)" xlink:href="#DRBgage"/>
    <use width="11.88" height="14.24" transform="translate(710.22 1112.51) scale(0.68 0.68)" xlink:href="#DRBgage"/>
    <use width="11.88" height="14.24" transform="translate(629.85 1109.45) scale(0.68 0.68)" xlink:href="#DRBgage"/>
    <use width="11.88" height="14.24" transform="translate(645.1 1094.76) scale(0.68 0.68)" xlink:href="#DRBgage"/>
    <use width="11.88" height="14.24" transform="translate(685.94 1029.99) scale(0.68 0.68)" xlink:href="#DRBgage"/>
    <use width="11.88" height="14.24" transform="translate(598.13 955.66) scale(0.68 0.68)" xlink:href="#DRBgage"/>
    <use width="11.88" height="14.24" transform="translate(537.92 880.22) scale(0.68 0.68)" xlink:href="#DRBgage"/>
    <use width="11.88" height="14.24" transform="translate(564.77 804.34) scale(0.68 0.68)" xlink:href="#DRBgage"/>
    <use width="11.88" height="14.24" transform="translate(597.1 712.66) scale(0.68 0.68)" xlink:href="#DRBgage"/>
    <use width="11.88" height="14.24" transform="translate(635.92 646.06) scale(0.68 0.68)" xlink:href="#DRBgage"/>
    <use width="11.88" height="14.24" transform="translate(594.01 1265.51) scale(0.68 0.68)" xlink:href="#DRBgage"/>
    <use width="11.88" height="14.24" transform="translate(604.63 599.93) scale(0.68 0.68)" xlink:href="#DRBgage"/>
    <use width="11.88" height="14.24" transform="translate(526.89 471.93) scale(0.68 0.68)" xlink:href="#DRBgage"/>
    <use width="11.88" height="14.24" transform="translate(683.49 602.65) scale(0.68 0.68)" xlink:href="#DRBgage"/>
    <use width="11.88" height="14.24" transform="translate(683.49 602.65) scale(0.68 0.68)" xlink:href="#DRBgage"/>
    <use width="11.88" height="14.24" transform="translate(679.52 538.09) scale(0.68 0.68)" xlink:href="#DRBgage"/>
    <use width="11.88" height="14.24" transform="translate(674.68 478.47) scale(0.68 0.68)" xlink:href="#DRBgage"/>
    <use width="11.88" height="14.24" transform="translate(674.68 478.47) scale(0.68 0.68)" xlink:href="#DRBgage"/>
    <use width="11.88" height="14.24" transform="translate(673.89 475.91) scale(0.68 0.68)" xlink:href="#DRBgage"/>
    <use width="11.88" height="14.24" transform="translate(685.74 455.47) scale(0.68 0.68)" xlink:href="#DRBgage"/>
    <use width="11.88" height="14.24" transform="translate(728.48 415.52) scale(0.68 0.68)" xlink:href="#DRBgage"/>
    <use width="11.88" height="14.24" transform="translate(697.86 443.85) scale(0.68 0.68)" xlink:href="#DRBgage"/>
    <use width="11.88" height="14.24" transform="translate(720.36 430.06) scale(0.68 0.68)" xlink:href="#DRBgage"/>
    <use width="11.88" height="14.24" transform="translate(573.43 498.14) scale(0.68 0.68)" xlink:href="#DRBgage"/>
    <use width="11.88" height="14.24" transform="translate(532.94 463.1) scale(0.68 0.68)" xlink:href="#DRBgage"/>
    <use width="11.88" height="14.24" transform="translate(551.17 365.18) scale(0.68 0.68)" xlink:href="#DRBgage"/>
    <use width="11.88" height="14.24" transform="translate(631.18 451.3) scale(0.68 0.68)" xlink:href="#DRBgage"/>
    <use width="11.88" height="14.24" transform="translate(629.6 380.28) scale(0.68 0.68)" xlink:href="#DRBgage"/>
    <use width="11.88" height="14.24" transform="translate(651.09 384.77) scale(0.68 0.68)" xlink:href="#DRBgage"/>
    <use width="11.88" height="14.24" transform="translate(669.82 372.04) scale(0.68 0.68)" xlink:href="#DRBgage"/>
    <use width="11.88" height="14.24" transform="translate(704.67 467.81) scale(0.68 0.68)" xlink:href="#DRBgage"/>
    <use width="11.88" height="14.24" transform="translate(468.41 1235.89) scale(0.68 0.68)" xlink:href="#DRBgage"/>
    <use width="11.88" height="14.24" transform="translate(538.61 1178) scale(0.68 0.68)" xlink:href="#DRBgage"/>
    <use width="11.88" height="14.24" transform="translate(580.86 1070.21) scale(0.68 0.68)" xlink:href="#DRBgage"/>
    <use width="11.88" height="14.24" transform="translate(640.43 1077.39) scale(0.68 0.68)" xlink:href="#DRBgage"/>
    <use width="11.88" height="14.24" transform="translate(679.2 1089.36) scale(0.68 0.68)" xlink:href="#DRBgage"/>
    <use width="11.88" height="14.24" transform="translate(646.68 1013.11) scale(0.68 0.68)" xlink:href="#DRBgage"/>
    <use width="11.88" height="14.24" transform="translate(543.2 866.89) scale(0.68 0.68)" xlink:href="#DRBgage"/>
    <use width="11.88" height="14.24" transform="translate(454.04 1433.36) scale(0.68 0.68)" xlink:href="#DRBgage"/>
    <use width="11.88" height="14.24" transform="translate(424.36 1152.34) scale(0.68 0.68)" xlink:href="#DRBgage"/>
    <use width="11.88" height="14.24" transform="translate(414.44 1173.09) scale(0.68 0.68)" xlink:href="#DRBgage"/>
    <use width="11.88" height="14.24" transform="translate(409.38 1170.55) scale(0.68 0.68)" xlink:href="#DRBgage"/>
    <use width="11.88" height="14.24" transform="translate(395.76 1176.22) scale(0.68 0.68)" xlink:href="#DRBgage"/>
    <use width="11.88" height="14.24" transform="translate(400.91 1193.25) scale(0.68 0.68)" xlink:href="#DRBgage"/>
  </g>
  <g id="new_enhanced">
    <use width="11.88" height="14.24" transform="translate(400.91 1193.25) scale(0.68 0.68)" xlink:href="#DRBgage"/>
    <use width="11.88" height="14.24" transform="translate(390.35 1157.07) scale(0.68 0.68)" xlink:href="#DRBgage"/>
    <use width="11.88" height="14.24" transform="translate(387.96 1130.57) scale(0.68 0.68)" xlink:href="#DRBgage"/>
    <use width="11.88" height="14.24" transform="translate(387.49 1120.63) scale(0.68 0.68)" xlink:href="#DRBgage"/>
    <use width="11.88" height="14.24" transform="translate(371.82 1129.02) scale(0.68 0.68)" xlink:href="#DRBgage"/>
    <use width="11.88" height="14.24" transform="translate(388.45 1132.72) scale(0.68 0.68)" xlink:href="#DRBgage"/>
    <use width="11.88" height="14.24" transform="translate(550.66 1090.22) scale(0.68 0.68)" xlink:href="#DRBgage"/>
    <use width="11.88" height="14.24" transform="translate(558.45 593.57) scale(0.68 0.68)" xlink:href="#DRBgage"/>
    <use width="11.88" height="14.24" transform="translate(466.8 879.4) scale(0.68 0.68)" xlink:href="#DRBgage"/>
    <use width="11.88" height="14.24" transform="translate(464.56 884.04) scale(0.68 0.68)" xlink:href="#DRBgage"/>
    <use width="11.88" height="14.24" transform="translate(461.18 882.34) scale(0.68 0.68)" xlink:href="#DRBgage"/>
    <use width="11.88" height="14.24" transform="translate(461.1 882.39) scale(0.68 0.68)" xlink:href="#DRBgage"/>
    <use width="11.88" height="14.24" transform="translate(450.47 899.17) scale(0.68 0.68)" xlink:href="#DRBgage"/>
    <use width="11.88" height="14.24" transform="translate(422.01 887.47) scale(0.68 0.68)" xlink:href="#DRBgage"/>
    <use width="11.88" height="14.24" transform="translate(447.09 884.83) scale(0.68 0.68)" xlink:href="#DRBgage"/>
    <use width="11.88" height="14.24" transform="translate(534.15 1114.68) scale(0.68 0.68)" xlink:href="#DRBgage"/>
    <use width="11.88" height="14.24" transform="translate(496.71 1125.61) scale(0.68 0.68)" xlink:href="#DRBgage"/>
    <use width="11.88" height="14.24" transform="translate(550.04 1092.84) scale(0.68 0.68)" xlink:href="#DRBgage"/>
    <use width="11.88" height="14.24" transform="translate(700.08 468.82) scale(0.68 0.68)" xlink:href="#DRBgage"/>
    <use width="11.88" height="14.24" transform="translate(492.52 398.84) scale(0.68 0.68)" xlink:href="#DRBgage"/>
    <use width="11.88" height="14.24" transform="translate(453.67 1176.89) scale(0.68 0.68)" xlink:href="#DRBgage"/>
    <use width="11.88" height="14.24" transform="translate(602.53 1065.62) scale(0.68 0.68)" xlink:href="#DRBgage"/>
    <use width="11.88" height="14.24" transform="translate(428.33 1220.77) scale(0.68 0.68)" xlink:href="#DRBgage"/>
    <use width="11.88" height="14.24" transform="translate(428.87 857.74) scale(0.68 0.68)" xlink:href="#DRBgage"/>
    <use width="11.88" height="14.24" transform="translate(575.97 718.56) scale(0.68 0.68)" xlink:href="#DRBgage"/>
    <use width="11.88" height="14.24" transform="translate(532.1 719.59) scale(0.68 0.68)" xlink:href="#DRBgage"/>
    <use width="11.88" height="14.24" transform="translate(516.6 1098.34) scale(0.68 0.68)" xlink:href="#DRBgage"/>
    <use width="11.88" height="14.24" transform="translate(399.21 963.13) scale(0.68 0.68)" xlink:href="#DRBgage"/>
    <use width="11.88" height="14.24" transform="translate(435.51 1117.34) scale(0.68 0.68)" xlink:href="#DRBgage"/>
    <use width="11.88" height="14.24" transform="translate(537.77 1085.66) scale(0.68 0.68)" xlink:href="#DRBgage"/>
    <use width="11.88" height="14.24" transform="translate(471.89 999.66) scale(0.68 0.68)" xlink:href="#DRBgage"/>
    <use width="11.88" height="14.24" transform="translate(560.92 1069.94) scale(0.68 0.68)" xlink:href="#DRBgage"/>
    <use width="11.88" height="14.24" transform="translate(596.16 1018.17) scale(0.68 0.68)" xlink:href="#DRBgage"/>
    <use width="11.88" height="14.24" transform="translate(542.88 591.32) scale(0.68 0.68)" xlink:href="#DRBgage"/>
    <use width="11.88" height="14.24" transform="translate(689.44 445.53) scale(0.68 0.68)" xlink:href="#DRBgage"/>
    <use width="11.88" height="14.24" transform="translate(689.44 445.53) scale(0.68 0.68)" xlink:href="#DRBgage"/>
    <use width="11.88" height="14.24" transform="translate(707.53 420.58) scale(0.68 0.68)" xlink:href="#DRBgage"/>
    <use width="11.88" height="14.24" transform="translate(571.24 499.4) scale(0.68 0.68)" xlink:href="#DRBgage"/>
    <use width="11.88" height="14.24" transform="translate(571.24 499.4) scale(0.68 0.68)" xlink:href="#DRBgage"/>
    <use width="11.88" height="14.24" transform="translate(480.75 400.2) scale(0.68 0.68)" xlink:href="#DRBgage"/>
    <use width="11.88" height="14.24" transform="translate(590.29 437.24) scale(0.68 0.68)" xlink:href="#DRBgage"/>
    <use width="11.88" height="14.24" transform="translate(591.08 395.06) scale(0.68 0.68)" xlink:href="#DRBgage"/>
    <use width="11.88" height="14.24" transform="translate(587.4 905.76) scale(0.68 0.68)" xlink:href="#DRBgage"/>
    <use width="11.88" height="14.24" transform="translate(519.76 1160.11) scale(0.68 0.68)" xlink:href="#DRBgage"/>
    <use width="11.88" height="14.24" transform="translate(579.92 1106.95) scale(0.68 0.68)" xlink:href="#DRBgage"/>
    <use width="11.88" height="14.24" transform="translate(585.03 1094.29) scale(0.68 0.68)" xlink:href="#DRBgage"/>
    <use width="11.88" height="14.24" transform="translate(664.89 1084.87) scale(0.68 0.68)" xlink:href="#DRBgage"/>
    <use width="11.88" height="14.24" transform="translate(710.22 1112.51) scale(0.68 0.68)" xlink:href="#DRBgage"/>
    <use width="11.88" height="14.24" transform="translate(629.85 1109.45) scale(0.68 0.68)" xlink:href="#DRBgage"/>
    <use width="11.88" height="14.24" transform="translate(645.1 1094.76) scale(0.68 0.68)" xlink:href="#DRBgage"/>
    <use width="11.88" height="14.24" transform="translate(685.94 1029.99) scale(0.68 0.68)" xlink:href="#DRBgage"/>
    <use width="11.88" height="14.24" transform="translate(641.07 1002.47) scale(0.68 0.68)" xlink:href="#DRBgage"/>
    <use width="11.88" height="14.24" transform="translate(598.13 955.66) scale(0.68 0.68)" xlink:href="#DRBgage"/>
    <use width="11.88" height="14.24" transform="translate(569.07 902.75) scale(0.68 0.68)" xlink:href="#DRBgage"/>
    <use width="11.88" height="14.24" transform="translate(537.92 880.22) scale(0.68 0.68)" xlink:href="#DRBgage"/>
    <use width="11.88" height="14.24" transform="translate(564.77 804.34) scale(0.68 0.68)" xlink:href="#DRBgage"/>
    <use width="11.88" height="14.24" transform="translate(597.1 712.66) scale(0.68 0.68)" xlink:href="#DRBgage"/>
    <use width="11.88" height="14.24" transform="translate(635.92 646.06) scale(0.68 0.68)" xlink:href="#DRBgage"/>
    <use width="11.88" height="14.24" transform="translate(635.92 646.06) scale(0.68 0.68)" xlink:href="#DRBgage"/>
    <use width="11.88" height="14.24" transform="translate(604.63 599.93) scale(0.68 0.68)" xlink:href="#DRBgage"/>
    <use width="11.88" height="14.24" transform="translate(526.89 471.93) scale(0.68 0.68)" xlink:href="#DRBgage"/>
    <use width="11.88" height="14.24" transform="translate(699.04 469.98) scale(0.68 0.68)" xlink:href="#DRBgage"/>
    <use width="11.88" height="14.24" transform="translate(683.49 602.65) scale(0.68 0.68)" xlink:href="#DRBgage"/>
    <use width="11.88" height="14.24" transform="translate(683.49 602.65) scale(0.68 0.68)" xlink:href="#DRBgage"/>
    <use width="11.88" height="14.24" transform="translate(679.52 538.09) scale(0.68 0.68)" xlink:href="#DRBgage"/>
    <use width="11.88" height="14.24" transform="translate(674.68 478.47) scale(0.68 0.68)" xlink:href="#DRBgage"/>
    <use width="11.88" height="14.24" transform="translate(674.68 478.47) scale(0.68 0.68)" xlink:href="#DRBgage"/>
    <use width="11.88" height="14.24" transform="translate(673.89 475.91) scale(0.68 0.68)" xlink:href="#DRBgage"/>
    <use width="11.88" height="14.24" transform="translate(685.74 455.47) scale(0.68 0.68)" xlink:href="#DRBgage"/>
    <use width="11.88" height="14.24" transform="translate(685.74 455.47) scale(0.68 0.68)" xlink:href="#DRBgage"/>
    <use width="11.88" height="14.24" transform="translate(697.86 443.85) scale(0.68 0.68)" xlink:href="#DRBgage"/>
    <use width="11.88" height="14.24" transform="translate(660 625.87) scale(0.68 0.68)" xlink:href="#DRBgage"/>
    <use width="11.88" height="14.24" transform="translate(660 625.87) scale(0.68 0.68)" xlink:href="#DRBgage"/>
    <use width="11.88" height="14.24" transform="translate(644.8 596.18) scale(0.68 0.68)" xlink:href="#DRBgage"/>
    <use width="11.88" height="14.24" transform="translate(588.76 580.69) scale(0.68 0.68)" xlink:href="#DRBgage"/>
    <use width="11.88" height="14.24" transform="translate(573.43 498.14) scale(0.68 0.68)" xlink:href="#DRBgage"/>
    <use width="11.88" height="14.24" transform="translate(532.94 463.1) scale(0.68 0.68)" xlink:href="#DRBgage"/>
    <use width="11.88" height="14.24" transform="translate(491.55 418.46) scale(0.68 0.68)" xlink:href="#DRBgage"/>
    <use width="11.88" height="14.24" transform="translate(488.64 394.89) scale(0.68 0.68)" xlink:href="#DRBgage"/>
    <use width="11.88" height="14.24" transform="translate(551.17 365.18) scale(0.68 0.68)" xlink:href="#DRBgage"/>
    <use width="11.88" height="14.24" transform="translate(551.17 365.18) scale(0.68 0.68)" xlink:href="#DRBgage"/>
    <use width="11.88" height="14.24" transform="translate(542.46 428.28) scale(0.68 0.68)" xlink:href="#DRBgage"/>
    <use width="11.88" height="14.24" transform="translate(659.61 375.91) scale(0.68 0.68)" xlink:href="#DRBgage"/>
    <use width="11.88" height="14.24" transform="translate(631.18 451.3) scale(0.68 0.68)" xlink:href="#DRBgage"/>
    <use width="11.88" height="14.24" transform="translate(629.6 380.28) scale(0.68 0.68)" xlink:href="#DRBgage"/>
    <use width="11.88" height="14.24" transform="translate(651.09 384.77) scale(0.68 0.68)" xlink:href="#DRBgage"/>
    <use width="11.88" height="14.24" transform="translate(669.82 372.04) scale(0.68 0.68)" xlink:href="#DRBgage"/>
    <use width="11.88" height="14.24" transform="translate(669.82 372.04) scale(0.68 0.68)" xlink:href="#DRBgage"/>
    <use width="11.88" height="14.24" transform="translate(704.67 467.81) scale(0.68 0.68)" xlink:href="#DRBgage"/>
    <use width="11.88" height="14.24" transform="translate(468.41 1235.89) scale(0.68 0.68)" xlink:href="#DRBgage"/>
    <use width="11.88" height="14.24" transform="translate(468.41 1235.89) scale(0.68 0.68)" xlink:href="#DRBgage"/>
    <use width="11.88" height="14.24" transform="translate(580.86 1070.21) scale(0.68 0.68)" xlink:href="#DRBgage"/>
    <use width="11.88" height="14.24" transform="translate(580.86 1070.21) scale(0.68 0.68)" xlink:href="#DRBgage"/>
    <use width="11.88" height="14.24" transform="translate(640.43 1077.39) scale(0.68 0.68)" xlink:href="#DRBgage"/>
    <use width="11.88" height="14.24" transform="translate(679.2 1089.36) scale(0.68 0.68)" xlink:href="#DRBgage"/>
    <use width="11.88" height="14.24" transform="translate(646.68 1013.11) scale(0.68 0.68)" xlink:href="#DRBgage"/>
    <use width="11.88" height="14.24" transform="translate(646.68 1013.11) scale(0.68 0.68)" xlink:href="#DRBgage"/>
    <use width="11.88" height="14.24" transform="translate(543.2 866.89) scale(0.68 0.68)" xlink:href="#DRBgage"/>
    <use width="11.88" height="14.24" transform="translate(454.04 1433.36) scale(0.68 0.68)" xlink:href="#DRBgage"/>
    <use width="11.88" height="14.24" transform="translate(424.36 1152.34) scale(0.68 0.68)" xlink:href="#DRBgage"/>
    <use width="11.88" height="14.24" transform="translate(414.44 1173.09) scale(0.68 0.68)" xlink:href="#DRBgage"/>
    <use width="11.88" height="14.24" transform="translate(409.38 1170.55) scale(0.68 0.68)" xlink:href="#DRBgage"/>
    <use width="11.88" height="14.24" transform="translate(395.76 1176.22) scale(0.68 0.68)" xlink:href="#DRBgage"/>
    <use width="11.88" height="14.24" transform="translate(395.76 1176.22) scale(0.68 0.68)" xlink:href="#DRBgage"/>
  </g>
  <g id="cameras">
    <use width="11.88" height="14.24" transform="translate(550.66 1090.22) scale(0.68 0.68)" xlink:href="#DRBgage"/>
    <use width="11.88" height="14.24" transform="translate(550.04 1092.84) scale(0.68 0.68)" xlink:href="#DRBgage"/>
    <use width="11.88" height="14.24" transform="translate(435.51 1117.34) scale(0.68 0.68)" xlink:href="#DRBgage"/>
    <use width="11.88" height="14.24" transform="translate(596.16 1018.17) scale(0.68 0.68)" xlink:href="#DRBgage"/>
    <use width="11.88" height="14.24" transform="translate(641.07 1002.47) scale(0.68 0.68)" xlink:href="#DRBgage"/>
    <use width="11.88" height="14.24" transform="translate(564.77 804.34) scale(0.68 0.68)" xlink:href="#DRBgage"/>
    <use width="11.88" height="14.24" transform="translate(683.49 602.65) scale(0.68 0.68)" xlink:href="#DRBgage"/>
    <use width="11.88" height="14.24" transform="translate(660 625.87) scale(0.68 0.68)" xlink:href="#DRBgage"/>
    <use width="11.88" height="14.24" transform="translate(491.55 418.46) scale(0.68 0.68)" xlink:href="#DRBgage"/>
  </g>
  <g id="all">
    <use width="11.88" height="14.24" transform="translate(498.46 1033.32) scale(0.68 0.68)" xlink:href="#DRBgage"/>
    <use width="11.88" height="14.24" transform="translate(377.69 1097.31) scale(0.68 0.68)" xlink:href="#DRBgage"/>
    <use width="11.88" height="14.24" transform="translate(594.01 1265.51) scale(0.68 0.68)" xlink:href="#DRBgage"/>
    <use width="11.88" height="14.24" transform="translate(384.01 1151.08) scale(0.68 0.68)" xlink:href="#DRBgage"/>
    <use width="11.88" height="14.24" transform="translate(435.17 900.58) scale(0.68 0.68)" xlink:href="#DRBgage"/>
    <use width="11.88" height="14.24" transform="translate(677.99 528.32) scale(0.68 0.68)" xlink:href="#DRBgage"/>
    <use width="11.88" height="14.24" transform="translate(728.48 415.52) scale(0.68 0.68)" xlink:href="#DRBgage"/>
    <use width="11.88" height="14.24" transform="translate(720.36 430.06) scale(0.68 0.68)" xlink:href="#DRBgage"/>
    <use width="11.88" height="14.24" transform="translate(538.61 1178) scale(0.68 0.68)" xlink:href="#DRBgage"/>
    <use width="11.88" height="14.24" transform="translate(390.35 1157.07) scale(0.68 0.68)" xlink:href="#DRBgage"/>
    <use width="11.88" height="14.24" transform="translate(387.96 1130.57) scale(0.68 0.68)" xlink:href="#DRBgage"/>
    <use width="11.88" height="14.24" transform="translate(387.49 1120.63) scale(0.68 0.68)" xlink:href="#DRBgage"/>
    <use width="11.88" height="14.24" transform="translate(371.82 1129.02) scale(0.68 0.68)" xlink:href="#DRBgage"/>
    <use width="11.88" height="14.24" transform="translate(388.45 1132.72) scale(0.68 0.68)" xlink:href="#DRBgage"/>
    <use width="11.88" height="14.24" transform="translate(550.66 1090.22) scale(0.68 0.68)" xlink:href="#DRBgage"/>
    <use width="11.88" height="14.24" transform="translate(558.45 593.57) scale(0.68 0.68)" xlink:href="#DRBgage"/>
    <use width="11.88" height="14.24" transform="translate(466.8 879.4) scale(0.68 0.68)" xlink:href="#DRBgage"/>
    <use width="11.88" height="14.24" transform="translate(464.56 884.04) scale(0.68 0.68)" xlink:href="#DRBgage"/>
    <use width="11.88" height="14.24" transform="translate(461.18 882.34) scale(0.68 0.68)" xlink:href="#DRBgage"/>
    <use width="11.88" height="14.24" transform="translate(461.1 882.39) scale(0.68 0.68)" xlink:href="#DRBgage"/>
    <use width="11.88" height="14.24" transform="translate(450.47 899.17) scale(0.68 0.68)" xlink:href="#DRBgage"/>
    <use width="11.88" height="14.24" transform="translate(422.01 887.47) scale(0.68 0.68)" xlink:href="#DRBgage"/>
    <use width="11.88" height="14.24" transform="translate(447.09 884.83) scale(0.68 0.68)" xlink:href="#DRBgage"/>
    <use width="11.88" height="14.24" transform="translate(534.15 1114.68) scale(0.68 0.68)" xlink:href="#DRBgage"/>
    <use width="11.88" height="14.24" transform="translate(496.71 1125.61) scale(0.68 0.68)" xlink:href="#DRBgage"/>
    <use width="11.88" height="14.24" transform="translate(550.04 1092.84) scale(0.68 0.68)" xlink:href="#DRBgage"/>
    <use width="11.88" height="14.24" transform="translate(700.08 468.82) scale(0.68 0.68)" xlink:href="#DRBgage"/>
    <use width="11.88" height="14.24" transform="translate(492.52 398.84) scale(0.68 0.68)" xlink:href="#DRBgage"/>
    <use width="11.88" height="14.24" transform="translate(453.67 1176.89) scale(0.68 0.68)" xlink:href="#DRBgage"/>
    <use width="11.88" height="14.24" transform="translate(602.53 1065.62) scale(0.68 0.68)" xlink:href="#DRBgage"/>
    <use width="11.88" height="14.24" transform="translate(428.33 1220.77) scale(0.68 0.68)" xlink:href="#DRBgage"/>
    <use width="11.88" height="14.24" transform="translate(428.87 857.74) scale(0.68 0.68)" xlink:href="#DRBgage"/>
    <use width="11.88" height="14.24" transform="translate(575.97 718.56) scale(0.68 0.68)" xlink:href="#DRBgage"/>
    <use width="11.88" height="14.24" transform="translate(532.1 719.59) scale(0.68 0.68)" xlink:href="#DRBgage"/>
    <use width="11.88" height="14.24" transform="translate(516.6 1098.34) scale(0.68 0.68)" xlink:href="#DRBgage"/>
    <use width="11.88" height="14.24" transform="translate(399.21 963.13) scale(0.68 0.68)" xlink:href="#DRBgage"/>
    <use width="11.88" height="14.24" transform="translate(435.51 1117.34) scale(0.68 0.68)" xlink:href="#DRBgage"/>
    <use width="11.88" height="14.24" transform="translate(537.77 1085.66) scale(0.68 0.68)" xlink:href="#DRBgage"/>
    <use width="11.88" height="14.24" transform="translate(471.89 999.66) scale(0.68 0.68)" xlink:href="#DRBgage"/>
    <use width="11.88" height="14.24" transform="translate(560.92 1069.94) scale(0.68 0.68)" xlink:href="#DRBgage"/>
    <use width="11.88" height="14.24" transform="translate(596.16 1018.17) scale(0.68 0.68)" xlink:href="#DRBgage"/>
    <use width="11.88" height="14.24" transform="translate(542.88 591.32) scale(0.68 0.68)" xlink:href="#DRBgage"/>
    <use width="11.88" height="14.24" transform="translate(689.44 445.53) scale(0.68 0.68)" xlink:href="#DRBgage"/>
    <use width="11.88" height="14.24" transform="translate(689.44 445.53) scale(0.68 0.68)" xlink:href="#DRBgage"/>
    <use width="11.88" height="14.24" transform="translate(707.53 420.58) scale(0.68 0.68)" xlink:href="#DRBgage"/>
    <use width="11.88" height="14.24" transform="translate(571.24 499.4) scale(0.68 0.68)" xlink:href="#DRBgage"/>
    <use width="11.88" height="14.24" transform="translate(571.24 499.4) scale(0.68 0.68)" xlink:href="#DRBgage"/>
    <use width="11.88" height="14.24" transform="translate(480.75 400.2) scale(0.68 0.68)" xlink:href="#DRBgage"/>
    <use width="11.88" height="14.24" transform="translate(590.29 437.24) scale(0.68 0.68)" xlink:href="#DRBgage"/>
    <use width="11.88" height="14.24" transform="translate(591.08 395.06) scale(0.68 0.68)" xlink:href="#DRBgage"/>
    <use width="11.88" height="14.24" transform="translate(587.4 905.76) scale(0.68 0.68)" xlink:href="#DRBgage"/>
    <use width="11.88" height="14.24" transform="translate(519.76 1160.11) scale(0.68 0.68)" xlink:href="#DRBgage"/>
    <use width="11.88" height="14.24" transform="translate(579.92 1106.95) scale(0.68 0.68)" xlink:href="#DRBgage"/>
    <use width="11.88" height="14.24" transform="translate(585.03 1094.29) scale(0.68 0.68)" xlink:href="#DRBgage"/>
    <use width="11.88" height="14.24" transform="translate(664.89 1084.87) scale(0.68 0.68)" xlink:href="#DRBgage"/>
    <use width="11.88" height="14.24" transform="translate(710.22 1112.51) scale(0.68 0.68)" xlink:href="#DRBgage"/>
    <use width="11.88" height="14.24" transform="translate(629.85 1109.45) scale(0.68 0.68)" xlink:href="#DRBgage"/>
    <use width="11.88" height="14.24" transform="translate(645.1 1094.76) scale(0.68 0.68)" xlink:href="#DRBgage"/>
    <use width="11.88" height="14.24" transform="translate(685.94 1029.99) scale(0.68 0.68)" xlink:href="#DRBgage"/>
    <use width="11.88" height="14.24" transform="translate(641.07 1002.47) scale(0.68 0.68)" xlink:href="#DRBgage"/>
    <use width="11.88" height="14.24" transform="translate(598.13 955.66) scale(0.68 0.68)" xlink:href="#DRBgage"/>
    <use width="11.88" height="14.24" transform="translate(569.07 902.75) scale(0.68 0.68)" xlink:href="#DRBgage"/>
    <use width="11.88" height="14.24" transform="translate(537.92 880.22) scale(0.68 0.68)" xlink:href="#DRBgage"/>
    <use width="11.88" height="14.24" transform="translate(564.77 804.34) scale(0.68 0.68)" xlink:href="#DRBgage"/>
    <use width="11.88" height="14.24" transform="translate(597.1 712.66) scale(0.68 0.68)" xlink:href="#DRBgage"/>
    <use width="11.88" height="14.24" transform="translate(635.92 646.06) scale(0.68 0.68)" xlink:href="#DRBgage"/>
    <use width="11.88" height="14.24" transform="translate(635.92 646.06) scale(0.68 0.68)" xlink:href="#DRBgage"/>
    <use width="11.88" height="14.24" transform="translate(604.63 599.93) scale(0.68 0.68)" xlink:href="#DRBgage"/>
    <use width="11.88" height="14.24" transform="translate(526.89 471.93) scale(0.68 0.68)" xlink:href="#DRBgage"/>
    <use width="11.88" height="14.24" transform="translate(699.04 469.98) scale(0.68 0.68)" xlink:href="#DRBgage"/>
    <use width="11.88" height="14.24" transform="translate(683.49 602.65) scale(0.68 0.68)" xlink:href="#DRBgage"/>
    <use width="11.88" height="14.24" transform="translate(683.49 602.65) scale(0.68 0.68)" xlink:href="#DRBgage"/>
    <use width="11.88" height="14.24" transform="translate(679.52 538.09) scale(0.68 0.68)" xlink:href="#DRBgage"/>
    <use width="11.88" height="14.24" transform="translate(674.68 478.47) scale(0.68 0.68)" xlink:href="#DRBgage"/>
    <use width="11.88" height="14.24" transform="translate(674.68 478.47) scale(0.68 0.68)" xlink:href="#DRBgage"/>
    <use width="11.88" height="14.24" transform="translate(673.89 475.91) scale(0.68 0.68)" xlink:href="#DRBgage"/>
    <use width="11.88" height="14.24" transform="translate(685.74 455.47) scale(0.68 0.68)" xlink:href="#DRBgage"/>
    <use width="11.88" height="14.24" transform="translate(685.74 455.47) scale(0.68 0.68)" xlink:href="#DRBgage"/>
    <use width="11.88" height="14.24" transform="translate(697.86 443.85) scale(0.68 0.68)" xlink:href="#DRBgage"/>
    <use width="11.88" height="14.24" transform="translate(660 625.87) scale(0.68 0.68)" xlink:href="#DRBgage"/>
    <use width="11.88" height="14.24" transform="translate(660 625.87) scale(0.68 0.68)" xlink:href="#DRBgage"/>
    <use width="11.88" height="14.24" transform="translate(644.8 596.18) scale(0.68 0.68)" xlink:href="#DRBgage"/>
    <use width="11.88" height="14.24" transform="translate(588.76 580.69) scale(0.68 0.68)" xlink:href="#DRBgage"/>
    <use width="11.88" height="14.24" transform="translate(573.43 498.14) scale(0.68 0.68)" xlink:href="#DRBgage"/>
    <use width="11.88" height="14.24" transform="translate(532.94 463.1) scale(0.68 0.68)" xlink:href="#DRBgage"/>
    <use width="11.88" height="14.24" transform="translate(491.55 418.46) scale(0.68 0.68)" xlink:href="#DRBgage"/>
    <use width="11.88" height="14.24" transform="translate(488.64 394.89) scale(0.68 0.68)" xlink:href="#DRBgage"/>
    <use width="11.88" height="14.24" transform="translate(551.17 365.18) scale(0.68 0.68)" xlink:href="#DRBgage"/>
    <use width="11.88" height="14.24" transform="translate(551.17 365.18) scale(0.68 0.68)" xlink:href="#DRBgage"/>
    <use width="11.88" height="14.24" transform="translate(542.46 428.28) scale(0.68 0.68)" xlink:href="#DRBgage"/>
    <use width="11.88" height="14.24" transform="translate(659.61 375.91) scale(0.68 0.68)" xlink:href="#DRBgage"/>
    <use width="11.88" height="14.24" transform="translate(631.18 451.3) scale(0.68 0.68)" xlink:href="#DRBgage"/>
    <use width="11.88" height="14.24" transform="translate(629.6 380.28) scale(0.68 0.68)" xlink:href="#DRBgage"/>
    <use width="11.88" height="14.24" transform="translate(651.09 384.77) scale(0.68 0.68)" xlink:href="#DRBgage"/>
    <use width="11.88" height="14.24" transform="translate(669.82 372.04) scale(0.68 0.68)" xlink:href="#DRBgage"/>
    <use width="11.88" height="14.24" transform="translate(669.82 372.04) scale(0.68 0.68)" xlink:href="#DRBgage"/>
    <use width="11.88" height="14.24" transform="translate(704.67 467.81) scale(0.68 0.68)" xlink:href="#DRBgage"/>
    <use width="11.88" height="14.24" transform="translate(468.41 1235.89) scale(0.68 0.68)" xlink:href="#DRBgage"/>
    <use width="11.88" height="14.24" transform="translate(468.41 1235.89) scale(0.68 0.68)" xlink:href="#DRBgage"/>
    <use width="11.88" height="14.24" transform="translate(580.86 1070.21) scale(0.68 0.68)" xlink:href="#DRBgage"/>
    <use width="11.88" height="14.24" transform="translate(580.86 1070.21) scale(0.68 0.68)" xlink:href="#DRBgage"/>
    <use width="11.88" height="14.24" transform="translate(640.43 1077.39) scale(0.68 0.68)" xlink:href="#DRBgage"/>
    <use width="11.88" height="14.24" transform="translate(679.2 1089.36) scale(0.68 0.68)" xlink:href="#DRBgage"/>
    <use width="11.88" height="14.24" transform="translate(646.68 1013.11) scale(0.68 0.68)" xlink:href="#DRBgage"/>
    <use width="11.88" height="14.24" transform="translate(646.68 1013.11) scale(0.68 0.68)" xlink:href="#DRBgage"/>
    <use width="11.88" height="14.24" transform="translate(543.2 866.89) scale(0.68 0.68)" xlink:href="#DRBgage"/>
    <use width="11.88" height="14.24" transform="translate(454.04 1433.36) scale(0.68 0.68)" xlink:href="#DRBgage"/>
    <use width="11.88" height="14.24" transform="translate(424.36 1152.34) scale(0.68 0.68)" xlink:href="#DRBgage"/>
    <use width="11.88" height="14.24" transform="translate(414.44 1173.09) scale(0.68 0.68)" xlink:href="#DRBgage"/>
    <use width="11.88" height="14.24" transform="translate(409.38 1170.55) scale(0.68 0.68)" xlink:href="#DRBgage"/>
    <use width="11.88" height="14.24" transform="translate(395.76 1176.22) scale(0.68 0.68)" xlink:href="#DRBgage"/>
    <use width="11.88" height="14.24" transform="translate(395.76 1176.22) scale(0.68 0.68)" xlink:href="#DRBgage"/>
    <use width="11.88" height="14.24" transform="translate(400.91 1193.25) scale(0.68 0.68)" xlink:href="#DRBgage"/>
  </g>
</svg>
