<svg xmlns="http://www.w3.org/2000/svg" xmlns:xlink="http://www.w3.org/1999/xlink" viewBox="0 0 1000 638.59">
  <g id="map">
    <image width="766" height="489" transform="translate(1.32 0.29) scale(1.3)" xlink:href="../assets/salinity/salinitySea/images/salt-zoom-map-01.jpg"/>
  </g>
  <g id="Layer_1" data-name="Layer 1">
    <path id="ft1" d="M490.29,290.66c-.89-3.67-2.21-9-3.86-15.45-2.56-10-3.78-14.2-3.57-14.26.58-.19,10.87,31.61,11.36,31.46.29-.09-3-11.39-8.3-29.28" style="fill: none;stroke: #000;stroke-linecap: round;stroke-linejoin: round;stroke-width: 0.8739399392171521px"/>
    <path id="ft2" d="M517.38,269.69c-2.48-1.63-5.92-3.87-10-6.53-11.51-7.43-16.28-10.34-16.18-10.52.25-.41,28.12,15.77,28.4,15.3.17-.28-9.06-6.13-25.34-16.17" style="fill: none;stroke: #000;stroke-linecap: round;stroke-linejoin: round;stroke-width: 0.8739399392171521px"/>
    <path id="ft3" d="M488.54,232.11c18.47,4.35,29.78,7.13,29.71,7.42-.11.5-33-6.62-33.21-5.68-.08.38,5.08,1.91,14.86,4.81,6.26,1.86,11.51,3.33,15.29,4.37" style="fill: none;stroke: #000;stroke-linecap: round;stroke-linejoin: round;stroke-width: 0.8739399392171521px"/>
    <path id="intake" d="M561.73,166.34l21,21" style="fill: none;stroke: #000;stroke-linecap: round;stroke-linejoin: round;stroke-width: 3.0587897872600323px"/>
    <path id="num1" d="M472.89,303.64l8-4.66v12" style="fill: none;stroke: #000;stroke-linecap: round;stroke-linejoin: round;stroke-width: 2.667192223992096px"/>
    <g id="ft1_f">
      <path d="M497.56,315.65c-.22-2-.11-3.67-.33-5.67.22-4.22.11-8.78.33-13l6.67-.67" style="fill: none;stroke: #000;stroke-linecap: round;stroke-linejoin: round;stroke-width: 2.667192223992096px"/>
      <path d="M505.56,309l-7.33.67" style="fill: none;stroke: #000;stroke-linecap: round;stroke-linejoin: round;stroke-width: 2.667192223992096px"/>
    </g>
    <g id="ft1_t">
      <path d="M513.57,295.64q-.35,9.67-.67,19.34" style="fill: none;stroke: #000;stroke-linecap: round;stroke-linejoin: round;stroke-width: 2.667192223992096px"/>
      <path d="M508.23,297l12-2.67" style="fill: none;stroke: #000;stroke-linecap: round;stroke-linejoin: round;stroke-width: 2.667192223992096px"/>
    </g>
    <path id="num2" d="M522.38,273.61a14.21,14.21,0,0,1,4-2.67c1.47-.65,4.07-1.79,5.33-.66a2.55,2.55,0,0,1,.67,2c-.14,1.32-1.36,2.16-2,2.66a13,13,0,0,0-4,6l6-.66" style="fill: none;stroke: #000;stroke-linecap: round;stroke-linejoin: round;stroke-width: 2.667192223992096px"/>
    <g id="ft2_f">
      <path d="M545,286.16c-.23-2-.12-3.66-.34-5.66.22-4.23.11-8.78.34-13l6.66-.66" style="fill: none;stroke: #000;stroke-linecap: round;stroke-linejoin: round;stroke-width: 2.667192223992096px"/>
      <path d="M553,279.5l-7.34.66" style="fill: none;stroke: #000;stroke-linecap: round;stroke-linejoin: round;stroke-width: 2.667192223992096px"/>
    </g>
    <g id="ft2_t">
      <path d="M561,266.16q-.33,9.68-.67,19.34" style="fill: none;stroke: #000;stroke-linecap: round;stroke-linejoin: round;stroke-width: 2.667192223992096px"/>
      <path d="M555.67,267.49l12-2.66" style="fill: none;stroke: #000;stroke-linecap: round;stroke-linejoin: round;stroke-width: 2.667192223992096px"/>
    </g>
    <path id="num3" d="M524.33,234.09l8.67-2,2,.66-4.66,4a5.31,5.31,0,0,1,3.33,1.34,4.55,4.55,0,0,1,1.33,2c.51,2-2.38,5.19-7.33,7.33" style="fill: none;stroke: #000;stroke-linecap: round;stroke-linejoin: round;stroke-width: 2.667192223992096px"/>
    <g id="ft3_f">
      <path d="M544.29,248.64c-.22-2-.11-3.67-.33-5.67.22-4.22.11-8.78.33-13l6.67-.67" style="fill: none;stroke: #000;stroke-linecap: round;stroke-linejoin: round;stroke-width: 2.667192223992096px"/>
      <path d="M552.29,242l-7.33.67" style="fill: none;stroke: #000;stroke-linecap: round;stroke-linejoin: round;stroke-width: 2.667192223992096px"/>
    </g>
    <g id="ft3_t">
      <path d="M560.3,228.64q-.34,9.66-.67,19.33" style="fill: none;stroke: #000;stroke-linecap: round;stroke-linejoin: round;stroke-width: 2.667192223992096px"/>
      <path d="M555,230l12-2.67" style="fill: none;stroke: #000;stroke-linecap: round;stroke-linejoin: round;stroke-width: 2.667192223992096px"/>
    </g>
    <path id="drink_d" d="M628.27,167.27c0,2.45-.82,9.79.82,14.69a55.69,55.69,0,0,0,8.15-3.27,38.66,38.66,0,0,0,7.35-4.89c1.36-1.05,3.3-2.83,3.26-4.08s-.82-1.63-2.45-2.45c-3.72-1.86-17.53-2.34-19.58-2.44" style="fill: none;stroke: #000;stroke-linecap: round;stroke-linejoin: round;stroke-width: 3.263003515098081px"/>
    <path id="drink_r" d="M657.64,183.59a27.89,27.89,0,0,1-1.63-5.71,28.55,28.55,0,0,1,0-9.79,18.06,18.06,0,0,1,4.89-.82,14.24,14.24,0,0,1,7.34,1.63c1,.6,2.5,1.43,2.45,2.45,0,.43-.31.94-3.26,2.45-2.35,1.19-4,1.79-6.49,2.92-1.07.48-1.94.89-2.49,1.16l7.34,4.89" style="fill: none;stroke: #000;stroke-linecap: round;stroke-linejoin: round;stroke-width: 3.263003515098081px"/>
    <path id="drink_i" d="M678.85,169.72v11.42" style="fill: none;stroke: #000;stroke-linecap: round;stroke-linejoin: round;stroke-width: 3.263003515098081px"/>
    <path id="drink_n" d="M688.64,182.77V168.9l13.05,12.24.81-16.31" style="fill: none;stroke: #000;stroke-linecap: round;stroke-linejoin: round;stroke-width: 3.263003515098081px"/>
    <g id="drink_k">
      <path d="M713.11,164.83v17.94" style="fill: none;stroke: #000;stroke-linecap: round;stroke-linejoin: round;stroke-width: 3.263003515098081px"/>
      <path d="M725.34,168.9l-10.6,6.53a16.81,16.81,0,0,0,9,5.71" style="fill: none;stroke: #000;stroke-linecap: round;stroke-linejoin: round;stroke-width: 3.263003515098081px"/>
    </g>
    <path id="ing_i" d="M732.69,169.72v11.42" style="fill: none;stroke: #000;stroke-linecap: round;stroke-linejoin: round;stroke-width: 3.263003515098081px"/>
    <path id="ing_n" d="M742.48,181.14V167.27l13,12.24.81-16.32" style="fill: none;stroke: #000;stroke-linecap: round;stroke-linejoin: round;stroke-width: 3.263003515098081px"/>
    <path id="ing_g" d="M776.74,165.64a21.21,21.21,0,0,0-4.08,1.63c-2.42,1.27-6.47,3.4-7.34,7.34-.11.49-.73,3.28.81,4.9,2.18,2.28,7,.44,8.16,0a14.24,14.24,0,0,0,5.71-4.08l-2.45-1.63L771,175.43" style="fill: none;stroke: #000;stroke-linecap: round;stroke-linejoin: round;stroke-width: 3.263003515098081px"/>
    <path id="water_w" d="M629.12,196.89,633.94,213l5.63-10.45q2.8,5.22,5.62,10.45l5.63-16.08" style="fill: none;stroke: #000;stroke-linecap: round;stroke-linejoin: round;stroke-width: 3.2145771475215748px"/>
    <g id="water_a">
      <path d="M654.84,217c1.34-3.74,2.52-6.87,3.43-9.27.59-1.53,1.08-2.78,1.39-3.58,1.26-3.25,2.37-6,3.21-8a2.63,2.63,0,0,1,1.61,0,3.11,3.11,0,0,1,1.61,1.61c.83,1.59,2.69,7.39,4.82,15.27" style="fill: none;stroke: #000;stroke-linecap: round;stroke-linejoin: round;stroke-width: 3.2145771475215748px"/>
      <path d="M658.05,209.75l9.65-3.21" style="fill: none;stroke: #000;stroke-linecap: round;stroke-linejoin: round;stroke-width: 3.2145771475215748px"/>
    </g>
    <g id="water_t">
      <path d="M674.12,194.48l15.27-2.41" style="fill: none;stroke: #000;stroke-linecap: round;stroke-linejoin: round;stroke-width: 3.2145771475215748px"/>
      <path d="M680.55,217.79c.27-8.57.54-15.54.81-24.11" style="fill: none;stroke: #000;stroke-linecap: round;stroke-linejoin: round;stroke-width: 3.2145771475215748px"/>
    </g>
    <g id="water_e">
      <path d="M701.45,194.48l-8.84,1.61a42.83,42.83,0,0,0-.81,9.64,43.44,43.44,0,0,0,1.61,10.45l7.23-1.61" style="fill: none;stroke: #000;stroke-linecap: round;stroke-linejoin: round;stroke-width: 3.2145771475215748px"/>
      <path d="M700.64,208.14a13.63,13.63,0,0,0-3.21,0,13.3,13.3,0,0,0-3.21.81" style="fill: none;stroke: #000;stroke-linecap: round;stroke-linejoin: round;stroke-width: 3.2145771475215748px"/>
    </g>
    <path id="water_r" d="M709.49,213.77a27.29,27.29,0,0,1-1.61-5.63,28.19,28.19,0,0,1,0-9.64,17.41,17.41,0,0,1,4.82-.8,14,14,0,0,1,7.23,1.6c1,.59,2.47,1.41,2.41,2.41,0,.43-.3.93-3.21,2.42-2.31,1.17-3.9,1.76-6.39,2.87-1.06.48-1.91.88-2.45,1.14l7.23,4.83" style="fill: none;stroke: #000;stroke-linecap: round;stroke-linejoin: round;stroke-width: 3.2145771475215748px"/>
    <path id="intakes_i" d="M740.83,200.91v11.25" style="fill: none;stroke: #000;stroke-linecap: round;stroke-linejoin: round;stroke-width: 3.2145771475215748px"/>
    <path id="intakes_n" d="M750.47,213.77V200.11l12.86,12q.4-8,.8-16.07" style="fill: none;stroke: #000;stroke-linecap: round;stroke-linejoin: round;stroke-width: 3.2145771475215748px"/>
    <g id="intakes_t">
      <path d="M769.76,194.48,785,192.07" style="fill: none;stroke: #000;stroke-linecap: round;stroke-linejoin: round;stroke-width: 3.2145771475215748px"/>
      <path d="M776.19,217.79c.24-7.77.51-14.74.8-24.11" style="fill: none;stroke: #000;stroke-linecap: round;stroke-linejoin: round;stroke-width: 3.2145771475215748px"/>
    </g>
    <g id="intakes_a">
      <path d="M785.83,217c1.35-3.74,2.52-6.87,3.44-9.27.58-1.53,1.07-2.78,1.38-3.58,1.27-3.25,2.37-6,3.22-8a2.6,2.6,0,0,1,1.6,0,3.07,3.07,0,0,1,1.61,1.61c.84,1.59,2.7,7.39,4.82,15.27" style="fill: none;stroke: #000;stroke-linecap: round;stroke-linejoin: round;stroke-width: 3.2145771475215748px"/>
      <path d="M789.05,209l9.64-3.22" style="fill: none;stroke: #000;stroke-linecap: round;stroke-linejoin: round;stroke-width: 3.2145771475215748px"/>
    </g>
    <g id="intakes_k">
      <path d="M809.94,195.29v18.48" style="fill: none;stroke: #000;stroke-linecap: round;stroke-linejoin: round;stroke-width: 3.2145771475215748px"/>
      <path d="M822.8,197.7l-12.75,9.1" style="fill: none;stroke: #000;stroke-linecap: round;stroke-linejoin: round;stroke-width: 3.6431874083106233px"/>
      <path d="M821,211.36l-10-3.64" style="fill: none;stroke: #000;stroke-linecap: round;stroke-linejoin: round;stroke-width: 3.6431874083106233px"/>
    </g>
    <g id="intakes_e">
      <path d="M838.07,194.48l-8.84,1.61a42.83,42.83,0,0,0-.81,9.64A43.44,43.44,0,0,0,830,216.18l7.23-1.61" style="fill: none;stroke: #000;stroke-linecap: round;stroke-linejoin: round;stroke-width: 3.2145771475215748px"/>
      <path d="M837.26,208.14a13.63,13.63,0,0,0-3.21,0,13.3,13.3,0,0,0-3.21.81" style="fill: none;stroke: #000;stroke-linecap: round;stroke-linejoin: round;stroke-width: 3.2145771475215748px"/>
    </g>
    <path id="intakes_s" d="M859.93,196c-6.3-3.67-12.53-3.78-15.33-.79-.35.37-1.83,2-1.5,3.76.89,5,14.07,4.11,15.16,9.09.47,2.15-1.48,4.52-3.21,5.63-3.49,2.23-7.51.25-7.73.14" style="fill: none;stroke: #000;stroke-linecap: round;stroke-linejoin: round;stroke-width: 3.9606188022845683px"/>
    <path id="arrow_intake" d="M624,214.17A28.51,28.51,0,0,1,588,195l-4.5,11.25,3.38-13.5,12.37,1.13L588,195" style="fill: none;stroke: #000;stroke-linecap: round;stroke-linejoin: round;stroke-width: 3.6163992909617715px"/>
  </g>
</svg>
