<svg id="map" xmlns="http://www.w3.org/2000/svg" xmlns:xlink="http://www.w3.org/1999/xlink" viewBox="0 0 1000 638.59">
  <defs>
    <mask id="mask" x="-41.94" y="-607.45" width="1067.06" height="1253.16" maskUnits="userSpaceOnUse">
      <image width="4305" height="2732" transform="translate(-8.08 -10.71) scale(0.24)" xlink:href="saltmap-reaches1.png"/>
    </mask>
  </defs>
  <g style="mask: url(#mask)">
    <g id="DRB">
      <g id="reaches" style="opacity: 0.92">
        <g style="opacity: 0.4">
          <path d="M566.66,605.79c-2.41-4.76-6.16,5.6-5.16-2.25,12.26-10.12-2.51-6.94.45-10.39,2.23-5.25-5,.14-4.82-3.62,3.44-2.34,1.3-5.23-1.76-5.87.08-.95,2.6-3.68.44-4.38-4.72,1,.69-3.48-3.61-4.82-4.53,1,.82-4.17-4.82-4.81,2.16-3-1.88-3.1-3.55-5.07,4-3.37-.29-3.29-2.92-4.57,2.64-4-1.12-5.35.44-8.64,1.37-1.53-.1-4-1.64-5.38,0-1.87.37-5-1.21-5.7-1.14-2.91-3.33-1.85-4.82-.76-2.19-3.59-4.68-8.76-3.61-13.7-7.62-12,1.12-9.55-4.38-14-1.32-2.29-5.11.25-4.06-4.05-.77-7.87,7.34-16.84,1.65-23.66a161.32,161.32,0,0,1,3.17-18.51c0-2.67.33-6-1.2-7.72,1.15-1,1.35-2.84,1.2-4.33-5.89-7.82-1.78-18-2.41-28.92-5.09-8.55,14.18-37.72-3.61-40.07,1.17-4.41-2.83-9.54,0-12.94-.07-4.62-2.69.65-3.38,2.26-.22,4,1.54,8.41,1.43,12.58,1.41,2.78,6.1-.2,6,3.61,4.25,13.68-6.83,27.17-2.63,41-.86-1.7-1-5.16-2.64-6.78a6.07,6.07,0,0,0,1.2-4.51c-1.06-3.48-3.68-4.95-3.62-8.43-3.55-4.32-3-11.12-7.22-14,.62-2.45-2.2-3.23-4.06-3.62-.81-2.5-2.19-4.12-3.17-6.47-3.58-2.12-2-6.24-.06-9.34-1.37-3.17-4.27-11.33-4.53-2.86,3.84,3.5-2.87,10.18,1.21,13.25,3.07,2.73,3,7.18,7.45,9,1.53.83,1.36,3.33,3.39,4.59.93,1.74.79,4.26,2.41,6,2,5.09,3,9.27,6,13.25-1.19,3.4-1.28,6.54,1.2,9.64.39,2.44-1.06,5.77,1.43,7.45-.49,5.16-.19,13.88,3.39,17.09-2.79,5.48.28,4.57-.55,8.14-1.74,1.73.28,7.42-1.21,9.64-1.42,1.17-.1,3.08-1.8,4.06.23,1.49,1.43,1.59.67,3.15-1.89,2.05-.34,7.18,1.24,8.75.17.48-1.9,2.62.45,2.4-2.42,7.36-6.53,15.71-2.86,22.9,6.37-1.3,3.44,2.56,4.28,7,5.13,4.34,1.73,13.25,6,18.08,1.85,5.63,5.6,0,5.8,3.07,1.81,1.66.85,5.41,3.06,7.69-1.44,1.06-.81,6.26.55,7.26-1.16,1-1.35,2.84-1.2,4.33.47,1.08,2.61,1.18,3.28,2-2,1.73,1.22,4.86,3.19,4.76-.73,2.51-.52,3.65,2.71,4.3-5.12,3.31,1.63,3.78,4.07,4.9-2,2.23-1.48,4.89,2.07,4.06-3.19,2.18-1.58,5.39,2,4.82-2.51,3.24-1.42,9.17,3.82,6.7-3.17,4.61,2.4,3.37,4.17,5.07-2.92,2.53-7.09,7.41-4.06,11.12,1.36.7,4.5-2.78,4.06-.76.83,5.83-4.4-.7-7.33,5.42-2.25-.61-3.34,4.14-1.55,5,2-.29,4,0,2.3,1.8-2.41.48-5.09.92-4.26,4.74-4.64-3.29-8.52,4.12-3.31,6.55-4.28-3.09-7.94.68-9.95,4.22-1.26,4,3.45,2.46,3.84,5.36,1.74,2.08-7.67,3.29.54,3.83,3.94-2,2.72-7.45-1.76-8.6,0-1.62,2.82-5.29,4.83-2.47a4,4,0,0,0,5.57-4c-.23-.47-3.78-1.79-3.51-3,3.25,1,6.25,1.08,5.92-3.62,2.76.47,4.32-1.67,5.8-3.68,1.12-2.73-1.92-4.11-4.36-3.71C562.35,609.75,567.2,620.39,566.66,605.79ZM521.87,434.6c-.43.73-.29-1,0-1.07Z" style="fill: #0a3d75"/>
          <path d="M198.09,102.78v-1.2C196.07,98.22,196.07,106.14,198.09,102.78Z" style="fill: #0a3d75"/>
          <path d="M492.38,272.45c-.72.67.39,1.76,1.07,1.05S493,271.73,492.38,272.45Z" style="fill: #0a3d75"/>
          <path d="M779.6,275.6c-2.09-1.57-4.8-.49-4.62-3.47-2.61-1.82.75-2.19.22-4.29-2.24-4.88-7.65,1.88-10.4-2-1.16-.79-1.7-3-4.06-2.41-.26-1.85-.8-5.13-3.17-4.82-5.51,3.79,2.49,1.62,1.65,5.58,3.62,2.47,8.12,6.91,13.25,3.17-.05,2.63.41,6.45,2,8.43C775.78,275,781.23,278.76,779.6,275.6Z" style="fill: #0a3d75"/>
          <path d="M825.25,249.92c-1.92-2.66-4,1.76-5.73,2.69-4.21-2-10.79.38-14.91,1.66-4.15-.47-4.23-4.76-7.3-7.29-6.32-3.58-19.47-2.82-27-1.43-2.63,3.58-3-2-6.47-1.21-.81-1.85-2.61-4-5.26-3.61-.71-3.4-4-1.69-5.58-2.85-3-1.22-5.89-2.34-8.43-4.38-2.3-4-9.76,2.81-13.26-.76-.29-3.19-3-3.13-4.82-1.65-1-2.64-7.27-.5-6-5.26.46-3.77,5.52-.45,7.34-3a33.5,33.5,0,0,0,18.09-4.9c8.85-5.62,10.1,3.71,19.7-5.81,8.08-.47,13,6,21.4,4.52,3.79-.58,8.86-4,12.33-6.62,1.13-1.95.21-5.56,2.39-7.29,2.54-3.29-4-.39-3.91,1.27,1.23,5.15-3.2,6.15-6.13,9-4.14-.82-8,3.25-11.73,0-2.87-2.45-14.72-5.63-17.63-1.34-4.39,3.69-5.93,1.61-11.29,1.34-9.14,4.43-17.64,8-27,7.45-6.27,5.65-14.71,1.14-22.35,1-3.2.05-5.53-3.74-9.33-3.61-1.13-1.3-.64-2.64-2.72-2.41-.68-.62-1.23-1.64-2.86-1.2-.15-2.32-3.89-.68-5.57-1.21-.78,0-.62-1.87-2.42-1.2-2.63-.59-3.28,2-4.81,0-3.52.83-12.58-6-12.26-1.32-.64-4-1.86-.55-3.41-4.71-1.67-.61-1.71,1.26-2.85,1.21-.15-2.81-1.52.13-2.41,0-1.59-2.24-7.42-2.3-10.84-2.42-.21-1.82-2.35-.94-3.17-2.4-1.32-.57-2.33,1.53-3.08.22-1.75-1-3.07.67-3.26,2.19.07-1.09-1.05-1.37-2.1-1.21-5.72-3.91-14,1.91-20.92-1.2-1.93-3.18-2.86,1.17-4.38-4.83a3,3,0,0,0-3.3-1.2c-1-1.58-1.08-3-3.61-2.41-4.29-2.76-6.33-9-12-8.43-4.94-13.89-21.21-5.66-19.71-8.49,7.1-4.41,14.14-9.07,21.47-13,6.19,1.85,10.85-1,17.09-2.63,2.76-3.88,10.19-1.11,12.27-5.44.9-5.85,8-6.09,10.84-10.76,1.25-3.76,1.9-9.15,4.66-12.49,11.39-.38,12.76,9.32,25.15-2.55,8.33-4.92,7.06,3.66,16.55-8.56,5.21-2.93,8.87-8.12,10.86-13.31-1-2.78-4.12-3.75-3.45-6.91,3.94-.2,1.63,3.71,8.57,2.41.11,1.72,2.4,1,3.16,2.41,3.72-.39-.17,2.17.45,4.06,1.47,1.76,5,.21,7.23.76,1.4,2.31,4.16,5.56,7.36,5.76,3.16-.35,6.7,6.29,8.74,2.78,1.25.35.62,3.11.77,4,.7.77,2,2.88,2.72,1.21,4.5.07,10.51,4,15.51.46,1.29,1.64,3.52,1.62,5.86,1.5.64,2.15,3.91,2.4,6,2.41,1.26,2.7,2.65,5,2.63,8.22,1,2,2.61,4.36,1.86,6.3-3.09,3.28,2.49,7.65.33,10-.93,3.68,3.3,3.65,2.4,7.23,1.24.5.84,2.54,2,3.17,1.47-.06-1.07,2.27-.76,2.87-9.12,4.62-1.84,14.64,5.9,9.18,5.26-.11,13.91.68,15.55-4.71,7.14.44,6-12.67,2.54-2.68-2.75-.89-3.92,1.82-5.27,3.17-1.93.67-5.51,1.86-8.11,1.65.21-2.18-3.47.42-4.91.22-2.15,1.94-4.45.32-6,0-3.14.13-1-4.49,1.43-5,2.18-3.41,2.55-5.81,1.07-9-2.18-.89,0-4-2.41-4.37-.77-1.5,0-2.89,0-5.27-1.31-1.76-3.51-4.78-1.21-7.23.8-4.42-3-6.36-2.41-10.84-1.43-2.48-3.85-8.3-6.79-5.89a6.7,6.7,0,0,0-6.46-2.1c-.24-1.78-2.37-2.78-4.38-2.41-6.09,4.88-5.89.59-12.05,0-4.88,1.39-1.12-5.39-6-4.82-3.68.77-5.43-4.7-9-3.32-2-.83-2.49-3.34-4.67-3.91-.72-2-4-2.44-6.16-2.41.86-3.92-1.21-3-3-4.81-1-1.63-2.11-1.1-4.06-1.21.52-1.45-2.65-1.78-2.73-.44-1.87,1.7,0-1.94-1.65-2-4.32-1.66-10.12,5.63-5.26,7.39-1.67,1.11-1.36,4.62,1.44,3.61.17,3.44-4.3,3.24-3.61,7-2.87,2-.73-6-1.6-6.82-3.85-4.46-6.53-10.6-12.34-11.15-4.19-3-3.75-9.91-6.86-14-2.66-2.88-.55-1.85.63-3.42,2.29-.45,5.79-.29,6-4.51,4.1-2,5.33-5,7.22-9.19,1.34.1,1.32-1.34,1.21-2.41,1.22-.6,4.23-.86,4.82-2,.33-1.2,1.22-4.24,1.65-5.26.74-1.8,2.39-2.78,3.17-4.82,1.11.26,4.66-.89,4.5-.76,2.67,2.73,6.61-1.63,10.08-.44,4.13,4.11,8.88.4,14,1.2-.87,1.66,2.72.79,2.41,1.65a10.46,10.46,0,0,0,4.06,2c2.65,2.43,5.29,5,8.43,6,5.24,4.91,8.39,9.69,12.81,13.7,2.66,3.62,8,5,13.25,4.37,1.71,3.72,7-1.12,9.64-1.2-.6,2.64,7.46.56,8.43,1.2.34,1.9,2.3,2.7,4.38,2.41,4.24-3.27,9.56,3.35,13.92,7,4.9,1-5.86-7.61-5.49-7.32-3-1.18-6.43-4.4-10.08-1.21-.32-3.15-10.8-3.06-13.35-3.39-3.64,3.68-8.89,0-14.36,1,0-1.38-2.5-1.87-3.62-2.41-.23-2-2.27-1.93-3.61-3.17.16-1.34-1.24-2.64-2.41-2.85.63-2.4-1.93-2.93-3.62-3.62-2.11-3.88-6.35-7.48-10.08-8.43A6.16,6.16,0,0,0,717.37,55c.08-1.3-3.5-2.42-4.82-2.41-2.55-3.78-10.73.83-13.7-1.2-2.72-3.31-8,0-10.4,0,.1-2.22-2.78-1.15-3.48,0-1.59,0-4.52-.71-4.06,1.65-6.31,3.63-.73,8.21-9.64,11.16a26.32,26.32,0,0,1-8.21,11.51c-.31,3.88-4.1,2.76-6.25,4.15-.24,1.23-.1-.73-1-.61-2.45.23-3.51-3.38-6.46-3.61a8.94,8.94,0,0,0-7.23-4.82c-.82-2.62-5.31-1.59-6.79-3.61-1.16-1.32-2.48-3-5.26-2.41.14-1.13-3.07-2.19-4.06-2.41-3-4-1.78-9.91-6.79-11.61.88-10.54-6.68-16.23-12.27-23.11-9.69-4.77-20.25-9.94-26.28-20.26C581.37-.46,575-20,568.4-24.11c-8.24-5.9-13-6.24-21.14-1.42-5.86.89-8.94-7.19-14.78-7.23-1.85-3-3.19-8.75-2.63-12-5.1-12.22.75-15.06,1.42-27-5.31-7.37,2.8-29.27-7.51-34.5-4.56-8.5-10.18-12-18.21-15.58-13.47-1.9-12.62,2.43-21.87,7-14.95-8.48-10.56-10.33-1.8-19.56.66-3.4,4.28-3.64,5.37-6.49.92-1.57.91-3.41,2.41-4.76,1.21-1,.74,1.88,2.18.79,2.3-1.42,1.67-4.25,3-5.8,3.74.46,6.58-1.22,8.87-3.62,1.28-.18,4.14.5,4.82-1.2,2.91,0,1.72-3.56,4.06-4.38.16-1.25,4,.6,3.61-1.52,1.42-3.92,6-4.23,7.89-8,.57-3.3,5.68-1.84,6.57-4.08,3.6-5.86,11.28-5.22,16.42-12.18,4.89-.15,8.77.56,11.13-4.82,2.52-1.35,6.62-2,8-5.43,1.28,1.2,4.25.89,4.78-1,.29-3.24,2.82-5.56,3.66-8,3.09.44,3.6-2.07,4.82-4.33,2-4.14,6.42-7.75,9.34-12.65,4.23-.7,3.71-6.19,7.31-7.23,4-2.25,1-8,6.34-9.64,1.58.36,2.1-1.27,2.41-2.41.9.1,4.41.36,4.39-1.2,3.25-1.37,5.75-1.83,5.38-6,.67,2.76,5.78-.28,7.32-1.42,1.32-2.38,2-4.67,3.84-6.56a31.29,31.29,0,0,0,7.88-18.52c3.56.81,4.56-3.3,4.93-6,1.36.44,3.32-.32,3.51-1.81.91-3.41-2.72-2.63-2.41-5.48,2.73-3.38-3.36-5.56,3.72-8.37,3.6.14,2.58-5.73,4.82-7.23,1.49.42,2.57-1.43,3.21-2.41.59.14,2.46.1,2-1.07,2.94-3,7.68-2.34,10-6.15.62.78,7.8-1.14,7.76.76-.27,2.52,3.09,1.18,4.37,2.85,4,2.79-1.54,10.32,7.23,6,1.12-1.12,2.59-2,3.17-3.48.76-.47,4,.63,3.62-1.2,1.53-.59,1.3,2.26,3.39.85,3.53-2.38,6.22-5.24,10.3-5.8,2.6-1.35,3.17-5,2-7.1,6.16.54,6.34-7.1,8.76-11,4.94-9,6.28-3.78,12.93-8a3.47,3.47,0,0,0,.65-2.75c.47-.27,1.81.16,1.76-.87.4-2.31,2.58-3.44,5.26-2.85,1.28-3.57,7.4-.89,8.64-4.22-.82-2.95,1.65-6.23,1.31-9a12.32,12.32,0,0,0,5.92-4.22c-3.82-2.49-8.7,3.88-8.53,7.9-1.45,7.63-2.65,2.39-6.57,5.8-5.59,2.2-6.17,1.21-9.74,7.3-5.58,7.07-5.2-5.36-12.27,7.76-.44,2-3.46,3.44-2.41,6.52-2.94-.06-1.86,2.81-3,4.48-5.81.72-5.59,3.74-5.15,7.67-4.46-.1-6.87,3.59-10.07,6-1.31-3.33-4.49.7-6.92,0-1.8.91-2.41,3.83-4.81,3.61-1.86,1.51-1.17,1.31-.45-.44a8.69,8.69,0,0,0-3.17-5.58c-3-.71-4.78-1.9-5.73-4.76-2.38,2.43-9.91-.85-10.25,3.55-2.38,1.33-6.87.33-7.23,3.62-3.47.78-5.53,3.59-8.65,6.24-.94,6.34-4.48,4.42-7.46,9.06-.93,2.78-1.74,9,.87,11.2-2.66.79-2.44,3.73-3.27,5.67-5.84-.35-3.9,5.79-5.18,10-.88.89-6.21,4.56-3,6.18-2.7,3.27-4.79,5-6.89,7.68.63,4.07-1.72,2-3.73,4.21-.44-1-.68-1.46-2.09-1.21a4.67,4.67,0,0,0-2.62,4.82c-4,1.5-7.85,2.5-11,6-5.09.23-4.43,4.67-5.26,8.3-2.79.8-3.9,4.14-5.18,6.15-2.88,1-3.52,2.86-5.44,5a28.26,28.26,0,0,0-4.28,5.8,9.76,9.76,0,0,0-4.38,6.78,10,10,0,0,0-6.68,8.16c-.4,4.67-6.64-2.95-6,4.23-.38.29-1.18-.1-1.53.33-3.72,1.44-6.18,3.71-8.66,6.56-.1.54-2.46-1.88-3.17.45-.28-1.1-.8-1.36-2.1-1.21-8.1,8.52-19.2,10.22-26.49,19.35-1.78,2.55-6.1,2.67-6.79,6.71-4.09.28-5.73,3.25-8,6.47-3.66-.54-6.16,1.44-8.44,3.61-3.64-.57-7.64.66-7.12,4.82-4-.42-6,3.85-6.58,7.1a9.83,9.83,0,0,0-4.59,5.17c-7.95,6-4.13,5.25-7.14-3.25-4.94-9.34.83-1.86,3.62-8.26a30.08,30.08,0,0,0-5.48-14.92c1.85-1.82,1.87-5.56,4.38-7.36,3,.16,8.48-9.87,4-11-11.07,1.67-11.12-8.89-6.47-16.1.51-2.84,6.16-5.17,4.13-8.24,8-10.63-15.18-9.79,3.65-21.14-.41-17.65,16.9,3.89,21.14-9.18.56-3.52,4.16-4.79,7-5.42,1.29-2.2,3.59-3.49,5-5.42-1.63-4.93,3.37-8.19,5.37-11.31,2.3-2.08.8-6.12,5.26-5,2.29-1.78,2.59,1.68,4.74-2.41,5.3-.23-.09-7.45,8-2.63,5.58-2.42,4,4.38,11.82,2.63.62,6.89,10.26-3.59,14.46.76,0,1.61,1.86,3.62,3.71,2.63,4.65-1.85,9.43-4.05,11.06-9,3-2.27,7.16-4.62,9.64-8.52,4-.82,2.78,3.53,7.23-2.33,2.41-2.75,6.79-5.48,9.09-9.48,1.33-4.32-7.88-.06-7.23-2.9a4.7,4.7,0,0,0,1-4.87c-.68-.74.08-2.68,1.22-2.47,4.63-3.26,5.72-8.21,9.52-10.84,2.21-.85,5.87,3.42,6.9.13,4.11.41,4.56-3.52,8.88-2.54,1.89-1.25,2.92-2.92,2-4.69,2.63-1.41,2.82-5.57,3.07-8.56,2.37.71,4.15-1.23,3.61-3.62,2.48-.14,3-2.46,5.15-3.83,1.63-3.39-.27-7.17,5.49-5.8,2.2-1.85,2.61-5.94,6-6,3.75-2.61,7.83-8.57,6.68-12.21-1.61-.32.4-3.26.76-4.06.23-2.18-2.31-5.49-1.2-8.43-1.12-.94-3.55-1.55-.21-1.81,4.6-5.49,3.79,1.8,5.58-.75,2.76-8-3.82-2.25-7.34-1.82-1.39,1-5,7.17-.21,6.19-.59,1.7.2,7.55.65,7.83-1.36,4.4.08,7.49-3.06,11.18-2.58,1.93-5.48,2-6.9,4.92-1.47,3.87-7.66.48-7.56,5.43,1.28,6.7-4.86,4.88-7.23,8.43.7,2.11-3.91,2.78-2.4,6.67-1.22,2.92-3.31,5.11-3.62,8.39-3.75-.82-6.94,3.13-10.32,3.61-6.48-5-11.46,6.12-13.88,9.64-2.38-.22-6.13,5.47-3.51,7,.33,1.77-3.06,6.24-.44,7.67,9.14-3,4.51,0,.65,3.45-2.42,2.54-4,4.42-8.44,3.62-1.37,1.62-2.35,3.4-4.37,4.37-1.53.92-1.54,3.48-4.06,2.86a26,26,0,0,0-6.34,8.43c-1.89.72-4.48.93-6,2.41-.24-1.16-1.24-1.06-1.56-2.19-3.69-3.53-11.34-.55-14.24,1,1.55-5.12-7.6,0-7.22-4.06-1.78-4.25-7.48.44-5.48-2.57,2.11-.41,5.35-1.57,4.82-5.26,2.48-.18,2.62-3.74,2.41-6,2.84-.64,6.76-1.87,8.88-3.62a12.18,12.18,0,0,0,9.64-4.82c4.4-3.34-1.18-4.95,4.82-9.64,2.08-3,.72-10.38,3.17-12.8-1.59-4,2.89-3.44,2.41-6.47,2.28-.56,3.24-3.24,4.06-4.82,2.27-1.86,5-3.7,4.37-7.23,5.63-1,5.76-7.26.13-1.52-2.55-.65-1.39,2.77-1.65,4.06-.74,1.16-3,.33-2.41,2.41-2.49,1.18-2.48,2.11-3.61,4.37a3.13,3.13,0,0,0-2.41,3.61c-.88.36-2.28-.55-2.41.77-1.2,5-.78,16.15-5.26,18.51-.82,1.22-2.71,4.81-.77,5.9-.86.41-2.32,1.31-2.41,2.54a3.21,3.21,0,0,0-2.41,2.4c-1.33,0-2.39,0-3.16,1.21a1.56,1.56,0,0,0-2.1-1.2c-2.1,4.05-8,2.49-10.4,5.57,1.07,4.32-2.78,4.43-2.41,8.12-2,2.44-5,2.94-8.22,3.33-4.39,4.37-7,7.72-13.85,7.52-13.46-14.77,5.23-4.88,8.91-8.79,2.1-4.29,8.79-9.34,6.14-14.4-2-2.77-5.29-8.32-9.19-10.7-2.46-1.46.86-10.64-2.23-11.88-5.77-7.44-3.32-6.19,1.89-11.75,1.57-1,2.22-2.47.76-4.06,5.51,1,3.31-5.69,6.91-6.91,4.27,1.8,10.27-2.69,11.06-7.44,3.1,2.46,10.69-.68,9.32-4.93,7.91.83,15.76-5.17,23.86-1.28,2.46,2.88,7.23-.86,11.19.08a36.27,36.27,0,0,1,5.9-7.23c5.43,1.63,4.55-3,6.13-6.09.75-1.81,1.76-3.2,1.43-5.36-1.55-1.27,0-1.59.55-2.56,2.83-1.53,4.14-5,5.14-7.68,4.71-.09,4.54-6.07,7.23-8.43,1.92.46,2.71-1.43,3.62-2.41,3.3-1.46,5.64,5.46,8.11,1.34,5.48-4.54,12.29-7.24,15.66-14.15,3.68-2.82,8-5.46,10.84-9.95,3.18-1,3.41-5.14,5.18-7.36,4.18.28,1.66-5.56,4.91-7.23,1.91-1.64,2-4.78,2.72-7.23,1.62,2.31,5.57.53,6.91,3.62,1.22-.13,4.34,1.63,3.08,2.31-1.06,5.27,5.47,6.27,9.86,6.12,1.44,1.38.53,6,1.42,6.94-1.15,3-3.52,2.64-6.48,2.54-3.45,1.84-6.26,7.39-7.82,10.84-2,.1-4,4.55-6.45,4.82-3.61-1.35-7.45-2.31-4.24-6.47,6.93-12.17-8.23,3.21-2.17,7.08,13.65,8.7,13.55-15.95,25.3-13.7-4.47,16.63,9.84,6.56,4.71,14.29-2.26-.3-2.55,3.44-5.4,2.41-3.19-3.08-5.76.91-1.5,2.35,5.49,1.42,11-4.52,10.38-10-2.19-1.75-6.5.23-6.24-4.15-2-.78,0-2.08.22-3.08-.58-1.92.21-5.21,1.76-6.17,2.21-2.71-1.51-5.05-.56-8.29-2-4-9.28-.87-10.32-5,3.23-4.39-6.12-4.44-5.34-8.23-1.43-2.38-2.9,1.11-4.82.45-1.1-3.83-5.19,1.57-5.13,3.48-.93,4.79-4.84,4.72-4.27,9.77-2.56-.31-3.05,3.9-4.17,5.66-1,2.06-4,2.35-4.26,5.08-2.36,0-3.25,2.69-4.61,3.72-2.23,1.58-4.91,2.59-6.24,5.42-1.15,4.09-6,4.46-7.78,7.7-1.32,1.08-3.06,1.12-3.94,2.54-.83-.46-2.57,3.89-3,2-4.65-5.69-13.93,1.55-14.77,7.23-1.15,1.79-3.78,1.54-4.82,3.62-1.07,1.32-.67,5.18-2.86,5.26-7.44,5.39-.61,5-3.82,10.25-1.2,6.59-4.51,2.17-6.58,6.49-1.48,1.21-3.54,1.13-4.26,3.14,1.06,3.45-3.76.92-5.15,2-1.69,2.25-4.14-1-6.69-1.43-8.67-1-15.9,2.9-24.1,2.41-2.14.79-.9,9.43-5.49,5-4.54-1.14-4.82,5.29-7.32,6.57-1.55,1.35-4.28.33-5.8.66-1.31,1.68-2.06,1.24-1.76-.5,3-1.13,2.1-3.39,3.61-5.58,1.72-.34,2.72-2.07,2.41-4.06,1.27-1.14,3-.71,2.41-3.17,2.32-1.28,1.93-6.06,3.61-8.43,3.64-2.18,5.39-5.89,9.64-8-1-4.24,2.81-5.51,2.41-9.64-2.83-2.77,1.84-6,4.06-6.47,8.68-8.23-4.3-1.08-6,2.09-1.54.46-.88,4.08.44,4.69.37,1.39-1.94,1.79-1.2,3.75-1.13-.32-2.92,4.08-2.19,5-1.3,1.44-3.65,1.32-3.84,3.39-4.8,2.34-7,9.21-8.43,14.46-1.75,0-2.71,2.05-2.41,3.61-1.68.48-2.37,2.09-3.62,3.17-.51,4.54-5.14,6.08-3.61,11.49-3.53,2.15-4.6,2.59-5.37,6.74-.67,1.63-2.76,1.08-3.62,2.41-.84,1.17-1.37,3.27-2.31,4.28-2.56-2-2.56-6.22-5.8-7.16-.25-3.59-1.38-8.24-4.82-9.48-.18-3.79-.4-8.08-2.63-11.07-1.32-.91-3.23,2.77-4.6.22.61-5.29.88-11.89,7.36-14.82,7.29-3.44,12.73-7.94,19.47-9.78,2.37-2.7,6.33-4.2,9.1-5.8s6-6.55,9.64-6c1.79-.74,1.79-3.53.21-4.72,3.79-2.41,4.54-7.21,5.81-10.95,3.9,1,4.68-4.24,7.55-6,4,.69,7.39-2.53,10.08-4.38,2.66-3.33,1-9.31,5.81-10.3,3.48-3.64,8.07-2.9,9.41-8.21,3,.68,4.48-2.44,6.92-2.41,1.05-.42.61-1.27,1.8-1.5,1.83,1.72.92-2.55,1.81-2.12,10.38-3.07,6.57-10.13,10.84-9.64,2.34.48,4.69-3.35,2-4.19,2.59-2.8,3.12-5.07,4.82-8.62,3.8-.4,1.63-5.72,4.59-7.89.66-2.74,4.73.89,3.84-3.39,3.4.74,1.43-3,4.6-2.63.7-1.83,4.82-.45,6-1.21,2.07-2.65,6-2.68,7-5.8,2.13-.21,2.66-2,4.06-3.17.12-1.66,4.1.93,3.61-1.65,4.11.54,4-5.33,7.68-4.82.65-1.06,3.2-1.53,4.82-1.2,2.53-1.34,5.34-6.08,7.67-8.44,1.87,4.68,5.23-3.49,7.67-2.41,1.71.27-4.21,3.83-.44,3.62.25,3.12,1.74-.85,3.17,0,2.16-2.66,3.18-5.59,2-8.88,2.27-3.07,2.35-5.55,5.81-8.21-.54-2.78,1.68-6.83,1.42-9.42,1.54.63,1.23-2.12,1.21-2.85,1.17-1.59,2.79-2.14,2.41-4.38,1.69.39.79-1.9,2-2.41,1.24.59,2-.93,1.65-2-.51-2.49-2.72,1.53-3.71,1.87-1.19,1.39-1.4,2.83-2.63,4.15-1.58,4.42-4.37,8.45-3.61,14.14-6.27,4.19-4.84,9.72-7,15.45-.85,2.26-1.52.61-.13-.13-.68-5-6.36-1.4-8.08,1.11-.63-3.28-5.66.69-5.27,2.85-1.34,2.52-4.48,1.53-4.82,4.38-5.06-.32-8.31,1.68-10.39,6-5.1.39-8.13,2.86-11.29,6.78-2.55,2.26-6.58,4.48-10.62,4.28-.8,2-3.34-.06-3.84,1.75.46,3.31-1.69.29-2.41,2.41.36,2.83-1.26,1.12-2.85,1.65-1.14.4-1.24,3.36-2.41,3.61-1.29-.39-.62,4.34-.76,4.82-2.55-.74-3.62,2.78-3.62,4.82-1.43.59-4.18,5.26-3.46,7.52-3.79-1.32-4.64,3.62-5.41,5.73-1.32,3.69-5.43,2-6.79,4.82-3.12,1.51-4.61,5.43-8.88,4.82-3.45,2.55-3.88,6.68-9,7.45-9.65,9.15-23.52,15.91-8.79-2.32,3.73.32,7.87-2.82,10.38-4.81,2.29-.44.51-4,3.1-3.84,7.94-2.87,12.26-10.37,17.09-16.51,3.72-9.8,10.34-10.49,12-22.67,1.4-4.81,7.91-9.07,6.45-14.75-.49-.66-4.68-3.53-2.84-4.52,4.74-16,8.56-4.42,9.64-19.2,2.86-7.15,7-14,13.83-18.78,3.93-3.47,11.26-6.29,7.41-13,14.73,3.42,10-9.86,17.76-10.84,5.63-3,13.58,0,18-6,4.89,0,10-3.48,12.38-7.83-.87-4.39,3.36-6.12,5.37-8.59,4.74.61,4.13-6.43,8-4.11,2.69-1.33-1.08-8.37,3.33-7.17,5.84-5.08,13.09-12.64,15.64-20.56-.16-3.93-3.73,2.3-3.48,3.75-2.77,2.75-4.69,7.77-8.21,10.62-2.84,0-3.09,4-6.25,3.84-1.48,1.36-2.32,2.59-2.08,4.59-1.55-.32-2.38,1.13-2.41,2.46-2.42,3.5-6.5,4-9,8-2.57,1.37-3.53,4.26-3.06,7.48-3.53,3.86-.66.86-1.45-1.54-1.55-3.21-6.49-4.52-8.43-7.55-.91-2.42-1-6.69-3.61-7.67-2.47-3.52-6.25,1.36-10.37-6.31,12.92-31.81-20.71-2.53-.24-12.81,2.91,4.38-1.16,8.88-2.19,13.16,1,4.21,5.78,8.29,10.62,7.32,4,6.76,3.9,9.92,12,15.22-.17,3.27-3.82,5.7-7,5.11-1,0-3.14,4.08-4.82,3.61-5.91,1.78-13.92-.59-18.06,6.09-1.51,11.39-10.82,3.59-15.23,10.33-2.2,2.83.35,2.26,1.76,3.78-.37,3.75-6.81,4-7.76,7.79-8.17,3.68-15.37,16.52-15.24,26.23-6.43,0-6.48,8.4-8.88,12.8-3,3.1,4.13,4.94,3,8.11-3.31,6.24-8.66,11.53-8.43,18.74-2.33,3.54-5.72,6.34-8.44,9.14-2,7.43-8.16,16.54-16,18.9-4.31,1.49-4,6.21-8.43,7.23-16.76,7.56-7.65,9-15.78,15.29-1.45,2.6-8.39.49-8,4.81-3.51-.74-5,1.79-6.47,0-5.51-7-6.45,2-7.67.77,1.43-9.34-6.63.13-7.23-6.48,4.49-1.93-4.63-8.17-6.34-3.16-1.77,2.28-3-3.12-5.71-2,3.8-3.54-2.35-4.21-3.61-7.36,4-1.12,1.66-2.71,1.2-5.13-1.86-1.15-.43-3.9-2.63-5.36-2.4-.51-.61-7.73-3.84-7.45-1.06-1.53-2.69-1.15-4.37-1.21.68-2.34-1.67-2.8-3.62-2.4,1-3.89-3.23-6.71-6.16-3.62.08-1.41,1.67-1,2.33-2.32.08-1.56-1.26-4.36-3.39-3.7.61-2.78-2.69-2.74-2.41-5.27-2.64-1.64-.75-5.81,1.2-7.23-.53-3.47.19-5.6,3.17-7.67,2.41.68,6.6-.18,8.12,1.21,1.25-1.39,3.56-1.86,4.82,0,4,.73,8.5-6.14,6-8.76-4.53,1-3-2.08-.44-2.85-.78-4.95,1.69-8.82,6-9.64.93-3.22,4.31-7.28,1.65-10.4-1.51-.06-1.13-3.07-2.41-3.61-1.08-.73,1.72-2.15.76-4.51,2,1,.57-2.79,1.65-2.4,1.51-1.06,2.89-5-.44-5.14-1.91-2.41-1.26-11.24,1.11-9.55,3.41-.76,7.64-5,11.92-2.4.11-4.49-7.53-2.28-9.29-.1-1.59.53-4.5-.93-5.26.76-.76,3.43-2.31,8.71,0,12.05,1.24,1.28,3.1.68.76,2.86s-1.22,6.28-4.32,7.69c1.53,3.61,5.47,5,4.76,9.62-3.66,7.37-4.14,1.47-7.67,8-1.45-.58-.52,5.64-.76,6-1.92-1.86-5,5-2.86,5.13,1.38,1.64,6.6-1.85,2.86,1.66-.46,7.13-12.09.81-17.85,3.07-1.4,2.45-4.7,1.73-3.84,5-2.92,2.07,1.1,2.17-.44,3.17-1.72,1.71-2.35,5.63-2.95,7.32,2,1.49,1.75,2.35,2.94,3.84,1.33-.2-.46,3,1.66,2.41-.27,2.23,2.65.25,2.63,2.19,1,1,.34,1-.67,1.11-2.53,1.78-2.91,4.47,1.21,3.93,4.53-3.36,3.23,1.27,4.81,3.62,3.09.11,2.23.46,3.62,2.41,10.12,1.42,1.06,5.83,8.88,9.19-.78,3.17,1.18,3.46,1.2,5.71-1.34,2.74-1.53,4.92,2,6.78,1.33,9,.66.94,6,8.43,1.15-.81.69-1.4,2.41-1.2,1.3-.54,1.46-2.38,2.86-2.41,2,1.81-.08,5.71,3.16,7.23,3.34,4.28,2.21,1.37,5.27,0-.83,1.76-2.19,2.6,0,4.06,2.53,4.89,3.62-.89,4.69-2.86,3.69-.65,2.53,5,6.91,3.62.7-1.81,4.66-.44,5.58-2-1.17-3.18,3.91-.23,3.62-2.86,6.54,5.72,15.22-6.13,14.14-.27a12.33,12.33,0,0,1-10,5.15c-2.78,3.5-5.26,5.5-8.66,6.56-1.56,4.18-2.49,9.34-6.45,12.56.25,3-5.66,6.78-8.45,8.37-4.45,3.26-8.77,5.85-13.43,7.23-3.25.77-5.88,4.77-9.64,6-7.34,1.41-10.91,12.77-16.69,3.61-2.1,0-3.69.11-3.93,2.42-1-.48-3.82-2.57-4.06-.14-2.57.47-1,3.8-3.17,4.95-2.12-.7-5.72,2.27-4.94-.44-4.74-3.9-2.24-13.49-7.68-16.42-2.09-5.78-3.38-13.29-9.19-18.77,8.54-7.12-2.71-7,3-13.16,1-1.79,2.2-3.57,1.86-5.87-.36-1.75-2.94.14-3.62-1.52-.15-2-1.8-2.61,0-4.5.05-4.06-1.81-5.9,0-9.64-1.34-1.92-2.94-2.65-5.05-4.15.69-2.42.18-8.06-2.19-8.66-.05-3.39,3-10.1.45-13.25-.89-.63-.93-4.18-2.41-4.82-1.75.78-1.67-1.28-2.86-2,1.51-1.26,1.25-4-1.2-4.07.24-2.58-.17-9.25-2-10.84.24-2.32,3.8-2.61,3.27-5.86,3.7.24,1.9-6.88,4.51-7.23,2-3.39,2.58-9.82,3.82-13.86-2.08-2.26-2.62-4.34-5.09-6.61-4.18-.71-9.52.49-10.34,4.65-3.9-.75-3.84,1.71-6.26,2.41,0-3.31-3.44,1.63-5.58,0-4.57,3.92,2.62,1.53,3.41,3,2.2,1.71,5.41-4.19,9.19-2.85,1.18-.76,1.57-2.15,2-3.48a2.42,2.42,0,0,0,2.73-1.34c6.13-.53,3.83,3.85,7,4.82,1.16.49-1.53,6.94-1.64,8.87.69,3.15-1.24.59-1.76,2.57-.91,1.41-.64,3.32-1.86,4.66-.19,3.76-4.48,6.19-5.37,9.88-1.75,1.64.71,4.49,1.76,6.1.1,3.12-.74,7.44,1.86,8.36-3.48,3,7.6,6.86,5.37,17.12-5.72,7,3.94,5.7,0,14,8.17,3.46,2.32,6.43,6,10.4-.74,3.24-2.1,9.4,3.17,9.63,1.67,1.23-1.88,3.43-2.52,4.22-2.31,7.41-2.68-4.6-5.38-6.72-7.37-3.12-.57-.95-5.8-7.89-.81-2.62-4.26,1.83-4.82,0-3.53-2.7-9.77,1.24-11.16,4.05-7.77,4.43-3.06-6.16-12.49-1.2-1.06,1-1.72,2-3.08.22-3.71.54-4.67-2-7.22-3.61-3-.67-7.78.94-8.53,3.39-1-1.09-4.39-2.37-4.82,0-2.9.39-4.52-1.85-7.67-1.21-3.39,4.59-3.81-4.52-5.58-1.65-3.09,2.12,1.44,3,3.17,4.38,1.74-.07,3.26-1.65,5.26-1.21.2,2.79,6.67.68,7.23,0,.25,2.74,5.37.74,5.13-1.2,4.21-.91,5.58-2,8.34,2.19,3.89.38,9,2.91,10.94-1,4.25-.79.54,3.58,2.85,4.82,2.16-1.19,6.82-.92,8-3.61.82.3,1.36-.51,1.21-1.21,2.55,1.06,2-1.45,3.17-2.4,2.63.23,6.61,2.12,8.56.44,5.55,6.18-3.73,3.39,7.23,8.75,0,6.14,4.13,9,6.68,13.4-1.62,1.36-4,2.91-2.91,6,6.69,6.24,6,11.64,8.28,17.17,6.66,7.41.57,3.78,3.61,7.67,2.27,2.14,1.24,6.11,3.62,8.75-.28,1.85-3.13,1.55-3.62,3.3.38,1.52-2.16-1.81-2.31-1.74-1.34-.17-2.07-.15-2.66-1.37-1.33,0-2.44,2-3.91,1.14-2.83,1-8.33-.89-10.84-1.2-1.48.35-.32,4.39-2.85,1.65-.72-3.44-4.88-6-8-6.47-1.12,0-.68,1.76-.76,2.41-1.2-.21-2.74.9-3.3.45,2.73-3.68,0-6.95-2.41-9.64.09-3.09-4.8-1-6-2.86.89-2.91-2.8-4.89,0-6.47-2.24-.77-1.66-5-3.62-5.58-1.35-2.25-1.85-13.15-6.34-8.43-1.63.23-3.72-2.66-4.82-.44-3.73,1.48-9.2-11.61-13.25-5.58-9.62-2.75,5.48-14.65-15.51-10.55-4.3,2.46-.71-2-3-3.91-2-.34-2.4,1.45-3.93,2.41-.21-2.22-5.07-1.47-6,0-4,.41.62,3,1.83.31,2.5-.52,2.76,1.92,5.05,1,1.9-1.74.3.19,2.31.22-.46,5.38,10.57-.41,14.46,1.2-1.23,20.19,5.3,2.72,16.42,16.87,1.07.35,3.49.22,3.17-1.2.71,1,4.3,2.2,4.82.44,1.52-.26,2.43,4.79,2.1,7.23,1.95,1.52,2,3,3.61,5.13-.79,2.29-1.55,2.75,1.21,4.82-1.17,5.67,3,4.62,6,5.71,1.77,1.8,1.59,4.81,3.61,5.58-2.2,5.65-.94,6.2,4.38,4.82,2-1.36-.5-2.87,2.85-1.2-.2,1.1,3,1.83,3.62,3.17-.11,3.8,5.77,3.93,5.4.44,1.88.33,5.74,3.77,5.76,1.21,3.15-.34,5.18,1.83,7-.23,1.52.17,4,.45,4.73,2.32-1.46.41-4.14-.84-4.82.76-1.09,2.52,3.17,4.34-.44,4.06-2.4,1.32-5.53,3.89-8.44,3.61-10.85,6.48-8.31-6-17.63.76-1,2.38-6.43.85-6,4.82-1.37,1.22-1.76,2.37,0,4.06-1.63-.15-4.6.95-4.82,2.41-3.47-.18-5.71,1.21-3.61,3.62-3.4-.45-3.83,1.08-3.75,3.61a6.19,6.19,0,0,0-6.34-2.41c-1.18.23-.66,1.83-2.41,1.2-1.19,0-.28,1.68-1.65,1.21-.79-1.71-2.21-3.56-4.37-3.61-1.73,2.63-7.7,1-9.2,3.61-2.66-2.23-3.91-4.33-8.11-3.61-1.45-2.34-1.43-5.21-3.3-7.68,1.42-2.29,2.49-4.49,2.09-7.67,5.53.25.22-4.26-1.2-5.9,1.27-11.1.08-18.23-13.26-16.1-.48-2.16-2.66-.8-3.61-3.17.66-4.59-6.53-8.6-10-5.71.31,1.84,5.4-.29,6,1.52-.51,2.1,3.62,1.53,2.41,4.5,7.21,10.63,20.51-3.62,16.86,19.28.9,1.43,1.47,2.83,2.42,3.61-1.07.63-1.55,3.31-1.21,5.27-2.77,1.13-1.47,5.59-1.2,8,3.87,9.63,3.06,2.18,11.6,9.19,17.23-6.43,8,3,18.07-1.2,1.91-4.58,8.63,5.59,9.2-.76-.11-1.24-1.58-.25-1.21-1.65.73-.69,2.27,3.18,2.41,0,1.32-.4,3-1.81,2.27-3.62,3,.62,3.41-3.13,6.61-2.41,1.81-.43.33-2.93-.45-3.61,2.22-1.06,1.3-4.58,5.27-3.62,10.11-9.71,4.9,5.25,18.25-2.41.73,2.63,3.7-.56,4.64-1.2a24.41,24.41,0,0,1,6-2.41c1.62-1.21.07-3.43,2-4.37-.09-1.42,3,.57,2.41-1.66,2-.63,2.45-2.5,4.5-3.61-1,4.32,6.48,1.19,8.31,0,3.69.67.94-6.76,4.5-3.61,1.72.54,2.8-1.31,3.53-2.41,2.56-.56,2.06,4.27,4.59,3.61,3,3.09-6.11,14.71,4.47,13,2.5-1.35.7,9.42,3.74,10.84,2.67.44,3.14,5.48,3.39,7.9,3.86,3.38,6.12,9.26,11,11.29,4.08,4.58.05,13.46,5.89,16.42,9.33,11.43,8,8.45,1.2,19.77-2.12.94-2.44-.83-3-2.19-3.15,1.39-8.56.48-10.8,3.06-4.69,6.35,9.22,10.92,3.62,16-6.22,5.35-4,9.1-8.44,14.15-3.31,1.39-9.2,3.92-9.09,8.77-5,4.28-11-3.27-17.19-.87-4.59,3-2.05,9.05-7,11.82-13.46,5,5.16,13.49-.22,18.29-1.34,3.22.5,2.71-2.64,5.62-2.3,4.06-4.82,9.92-5.47,14.68-5,2.68-11.12,3.2-12.71,10.17-4.08,8-7.94,11.77-16.53,15.32-9,2.1-7.09,0-15.36,7-5.16-3.15-12.33-3.59-10.82,4.81-6.56.39-13.46,3.58-20.16,3.46,1.47-4.26-3.16-5.32-1.21-7.67-.05-2.93,6.7-4.63,1.2-7.23-.42-.1,4.79-3,1.21-3.17-.93-1.79,2.75-4.73,0-4.82.91-4.31,4.68-2.4,7.23-4-.63-2.64,5-2,4.67-5.27,3.78.83,4.79-1.74,6.17-4.38,5-4-3.83-3.11-6-3.17,1-3.17-3.4-3.11-4.69-1.2-1.67-5.14-11.44.4-12.4-5.8-3.37-1.6-.57-9.09-.54-12,.45-.07-1.05-10-2.85-9.95,1-2.91.21-3.85,0-7.36,3.81-2.46,3.13-14.24.44-16.74-2.39,1.7,2.07,9.79.44,13.26-3.62,1.64-2.05,8-2.4,11.6,5.81,4.75-1.62,17.4,3.61,22,.2,3.41,4,3.57,5.58,5.27,1.16.4,4.28-2.71,5.26-.76.9,1.52,3.11,3.14,4.69.76,2.32,1.68,2.62,3.21,7.51,2.4-.7,6.49-7.1,2.93-8.58,8.12a3.14,3.14,0,0,0-3.62,2.41c-3.62-.77-7.24,2.77-5.73,6.18-.73.65-.2,3.93-.15,4.67-4.22-1-2.44,4.23.31,3.93,1.47,1.43-2.83,1.87-2.86,2.85-.14,2.86-2.69,5.82,1.21,6.78,1.34,4.73-5.15,4.43-8.67,4.66-.57-4.25-6.69-2-7.88,0-14.05,16.44-8.25,4.27-13.81-6.78-5.75-12,5.17-5.21-9.64-16.87-1.52-2.49,1.36-5.12-1.2-7.23,1.64-4.59-3.79-4.89-6-7.23-.89-6.62-7.92-12.11-9.64-19-3.1-2.83,1.39-13.79-5.26-12.81-5.35-5.36-6.78,20.4-15.22,3-4.9-9.05-7.54,7.86-13.47-12.4-2.74-4.75,2.86-3-2.19-10.95,4.64-2.46-3.58-10.19-1.42-10.8,1-.87,2.41-1.73,2-3.61a2.68,2.68,0,0,0,2.41-2.86c1.89-1.43,4.63-1,6-2.72a9.67,9.67,0,0,0,10.09-1.66c2.47-1,6.63,1.12,8.75-1.2,1.14-.12,2.53,2,4.5,1.2,2.36-4.87,10.82-5.41,16.87-4.81,1.5-2.77,10.65.55,11.6-3.17.81-.57,2.91,3,5.26,2,1.83-2.15,5.88-1.71,6.79-4.82a13.93,13.93,0,0,0,6-4.37c.7-1.51,2.64,3.42,5.27,2,1.17-.19.41-1.9,1.52-2.41,1,.22,1.78-.16,1.65-1.2,5.63.36,12.39-.41,15.66-3.62,3.24-.83,10-.12,9.64-4.81,6.49-1.1,3.05-8.22,6.78-10.85,1.51-1.11,5-.69,6.47-2-2.63-2.63-6.93.67-9.19,1.65-1.73,2.67.33,7.87-3.93,9.63-3,.64-1.61,5-6.92,3.62a37.41,37.41,0,0,1-10.17,3.84c-1.41,2.41-9.61-.54-10.31,2.18-5,5.82-3.17-4.83-9.64,2.41-2,1.49-4.12,2.15-5.58,4.38-.78,1.18-4.62.81-4.82,2.85-1.51-.22-5.05-4.58-6-1.2-6.5,3.84-22-1.13-26.51,6-3,2.23-2.87-2-6.46.89-1.42-2.17-2.68,1.1-4.64.31-2.81-2.4-4.39.45-6.52,2.42-2.62.77-4.42-1.71-6.92-1.21-1.79,1.93-4.38,1.6-6.56,3.84.06,2.73-3.4,1.59-2.63,4.59-2.74,2.81-3.31-.13-7,.16-3,2.62-7.44,1.82-10.53,3.61-2.22-2.54-5-2.26-7.54-4.82-3.64-3.61,2-3.41-1.65-10.08.11-2.19-2.51-3.1-3.7-4a2.37,2.37,0,0,0,.63-3.36,10.21,10.21,0,0,0,2.84-2.93c-.39-2.11,2.5,2,3.95-1.13,3.48.28,3.49-3.23,7.45-2.63,2.56-2.19,4.37-8,8.24-5.89,3.05-1.29,4.87-4.15,8.09-4.73,1.72-1.22,3.64-4.67,6-4.82,1.75-1.89,3.27.77,5.36-.23,2.44-2.45,6.31.14,8.21-2.18,3,.71,3.46-1.37,3.62-3.62,5,.88,7.92-2.85,11.29-4.37,0-2,4.7,1.27,4.81-1.52.88-1.86,3-.6,3.74-2.43,2.11,1.21,2.82,1.72,3.94,3.5,4.24.73,5.86-2.21,8.35-4.82a8.08,8.08,0,0,0,7.19-2.41c.6,0,1.1,1.88,2.53,1.21,5.91.84,6.05-5.76,10.4-8,3.85-4.58.11-10.31-1.31-15.07a34.13,34.13,0,0,1-4.82-6c-2.52,1-.86-2.1-2.41-2.41-2-2.09-6.61-2.19-5.27-7,3.46-1.14,5.55-4.76,4.82-9.15-2.08-2.05-.57-7.12-3.61-8,0-2,3.5-1.45,2.41-4.7,3.78-7.3-6.65,2.37-4.58,6.52,2,1.52,2.47,3.78,2.63,6.56,3.79,4.76-7,8.21-3.61,14.46,3.21,2.23,5.25,3.06,6.55,6.24,2.65-.58,2,2.71,3.62,3.62,2.34-.49.85,2.67,2.85,2.41,1.95,10.47,3.75,7.57-3.61,16.1-1.15,2.78-5.56-1.16-7.78,1.36-1.32,1.71-5.65.9-7.23,2.41-.67,2.33-3.79,1.23-4.82,3.62-.08,1.22-1.1.07-1.11-.54-1-1.38-2.9-1.61-4.15-2.63-2.12.78-5.25.74-6.24,3,.57.9-.48.44-.68.6a2.19,2.19,0,0,0-4.14,1.21c-2,.44-4.51,1.24-4.82,3.5-2.4.2-7.4-.23-7.22,3.73-6.43,2.35,1.78-3.76-1.65-6.18-2-1.95,1.87-4,2-6.16.92-1.22,3-.41,2.41-2.72.11-1.08-2.62-1.11-2.41-2.1,1.12-.46,1.26-1.75,1.21-2.72-2.19-2.4-1.54-6.92-3.17-9.2-2.41-1.38-7.26-4.29-9.64-6-.66,1.3-3.2,1.36-4.82,1.21-1.32.7-1.49,2.17-2.95,2.63-2.1,2.25-2.93,1.22-5.48,1-1.17,1.67-7.92,1.85-9.64,0-.78-.25,1.74-2.63.76-4.06-7.1,4.72,1,8.07,8.88,6.78,1.6-1.63,1.19.2,3.61,0,1-1.6,3.81-1.86,4.38-3.62,4.44-3.77,8.56,1.28,12.93,2.41a32.45,32.45,0,0,1,2.63,8.21c2.63,1.43-1.78,3.16.2,5,4.19,1.49-1.29.91-.42,3.83-3.66,1-2.69,6.06-1.2,8-1.9,0-1.32,2.67-2.41,3.61-1.48,1.17-3.23,1-4.93,2.56-6.64-3.35-9.09,4.61-14.68,6.25a24.47,24.47,0,0,0-4.13,3.23c-1.08-2.55-4.26,1-5.51,1.59-4.45,6.32-3.74,3.29-8.65,5.36-.38,1.71-2,1.41-3.17,2.85.09-1.57-3.63-1.81-4.06-.44-.45,3-3,3.27-4.27,5.87.28,2.79-6.58,4.41-7.55-.19,3.84-2.83-2-4.91-1.2-8.43-1.26-4-2.68-8.49-5.5-11.27-3.22-1-4.78,2.22-7.4,2.41,5.81-12.85-16.16-5.48-9.36-11.75,1.05-7.34,4.47-3.62,7.88-8a8.83,8.83,0,0,1,2.41-7.23c-.14-3.76-3-7.17-3.61-10.66,4-3.65,1.46-6.54-1.21-10,2.74-3.45,10.13-.73,13.36-4,1-.13,4.77,4.91,5.27,1.33,1.35-2.11-1.34-6.23-.55-9.17-1.51-1-4-3.1-5.58-4.37-3.66,2.52-7.32,3.28-12.05,1.2,4.87-1.55,12.41-5.45,15.77-9,4.89-.75,8.57-4.74,13.87-6.47,1.65.21,4.93.37,5.85-.89.36,3.12,3.74,1.86,6,2.1a3.37,3.37,0,0,1,3-1.43c1.39-1.6,2-.85,3.08.22,1.31-2.41,4.36,3.16,7.76,1,.33-1.75,2.91,2,2.63-1,2.14-.25.54-3.67,2.42-4.37,1.58-3.24,8.78-1.39,8.43-6.47,2.57.32,3.39-1.86,4.82-3.17.83-.79,3.61-.8,3.61-2.86,6.72.48,11-1.72,16.11,2.42,3.07-.6,2,5.05,6,3.61,3-1.38-2-1.36-1.65-2-1.14-1.69-1.33-3.88-4.06-3.17-2.8-1.5-6.47-5.21-9.06-2.41-5.27-.3-11.95.55-13.7,4.82-1.22.69-2.6,1-3.61,2,1,2.21-1.59,1.07-1.21,2.85-3.51-.29-6,1.67-7.67,3.62-1.95,1.13.59,4.51-2.95,3.83-4.05,2.06-9.62-4.81-14.68.54-.67,2-4.18-.54-4.72-1.74-2.23,1-6.64.62-9.15,2.19-2.89-.57-4.14,1.86-6.16,3.61-.56.3-3.53-.62-2.86,1.21-.48.45-4.41-.89-3.61,1.2-1.57-1.44-4.87-3.19-6.26-5.43,1-3.81-2.81-5-2.64-8.65-3.87-2.41.85-6.57-3.61-9.64-1.76-.21-6.39.31-7-2.19.21-3.18-.86-5.34-3.62-6.47-1.88-1.89-1.4-14.22-.74-17.12,1.95-5.43,4-6.05,7.75-10.49-1.2-5.2,3.61-.31,6.57-1.36,2.33-3,7.08-5.29,7-9.42,2.17-.5,3.42,2.6,5-.22,1.14-3.08,5.77-8.05,8.76-5.88,14.32-5.67,8.12,8.21,12.39,7.31.68-.07,2.41-2.55,3.14-2.41,1.57,1.39-1.85,3.84.47,4.82,6.46-1.53,4.11,3.11,8.44,3.61,1.07-.23,1.13-1.94,1.65-2.41-.78,3.7,2.92,1.11,2.41,4.06,2.31,1.07.07,4.39,2,5.58,1.77.57,3.3-.91,2.86,1.65.32,2.51-.47,3.35,2.41,3.17-.31.83,1.5,2.68,2.4,2.41a7,7,0,0,0,3.62,3.61c.11.8-.38,2.77,1.2,2.41-.06,1.62,3.82.91,2.41,4.06.51,1.37,3.22,1.79,2.41,3.62-.11,8.59,9.78,3.26,9.19-1.65,2-1.91,5.4-1.51,8.44-2.41,2.06-2.4,3.56-.41,6,0,1.81-2.42,2.58.28,5.27,0,.28.9-.51,2.26.76,2.41,3.1-.78,1.16,3.42,1.65,5.26,1.26,1.5,2.32,8.55,6.34,4.82.19-1.3-.87-3.37,1.33-2.85,1.34,2.35,2.15,4.26,5.58,3.61-.88,3.64,4.33,1.83,3.61,5.26,2,2.08,7.65-.7,8.75-2.4.51-.85,1.86-1.34,2.41-2.41a4.51,4.51,0,0,1-1.49-3c6.67-2.46-1.13-9.76-1.23-6.19-1-2.36-3.85-5-5.71-5.26.52-2.44-.12-9.43-2-10.4-.36-.7,1.7-4.15-1.75-1-.13,3.46,4.25,8.24,1.2,11.91,1.34,2,4.58,1,5.81,3.4-.08,2.95,3.46,3,4.82,4.06-7.78,6.54.36,2.66-3.62,8.11a19.12,19.12,0,0,0-4.37,2.41c-2.14.14-.91-2.1-2.54-2.85,0-1.11-1.77-.69-2.41-.76,0-.49.31-2.57-.76-2.41-1.57.79-3.6-.9-4.06-1.65-2.71-6.59-8,5.25-7.23-2.41-3-1.61,1.28-4.75-1.2-6,0-1.11-1.77-.69-2.41-.76.8-1.87-1.13-3-2.86-2.41-2.18-2.31-9.43-1.89-10.71,0-5.8-.53-10.73,1.63-10.84,7.68-1.66,2.68-2.49-2.17-4.06.45-1.59-1.28,1.3-1.91.54-3.08-1.33-2.75-3.81-3.37-3.4-6.69-.52-1.75-2.69.18-2.63-1.88.56-2.23-5.31-4.21-4.27-5.8,3.5.72,4.53-.92,6.68-2.63,3.85-4.49,3-2.78,7.9-2.18,1.62-2.3,1.91.78,4.82,0,1.58-1.36,1.42-2.77,4.15-2.63,1.54-1.22.5-.53,1.87.23,3.3-.93,8.24-1.64,9.85-4.22,1-1.29-1.58-3.87-.33-4.22,3.18.11,3.47-4.64,3.94-7.23,1.74.48,2.14-1.27,2.52-2.41,2.93.87,4.23-2.21,5.59-3.61,3.45-1.28-.32-4.66.33-7.12,2.33-2.91,1.32-6.13,3-8.41,2.69-1.3,4.81,3.07,6.35-.13,3,1.52,8.06,2.54,7.66-2.41,6.23.49,11.1-2.41,13.48-7.46,3.3-1.25,3-3.33,3.83-6.56,2.63-3-1-6.32-2.41-7.54,1.57-2.44,5.63-8.73,1.86-11.14-.79-1.85-1.84-5.15-3.93-2.85-.73,1.81-.84-1.41-2.09-.76.93-2.7-2.5-4.39-.66-6.62,2.94-2,1.9-10.93-.86-3.46-3,3.64-1.93,10.22.55,13.1-.09.9,3,1,3.61.61a3.16,3.16,0,0,0,2.41,2.56c1.71,4.83-6.82,7.84-2.12,11.88-1,2.52,4.33.31.92,4.22.24,4.21-4.66,5.55-5.82,9-2.79,2.65-10.06.38-11.05,6-7.37-2.39-17.71-2.2-15.66,8.33-2.44,1.84-.26,6-1,7.33-1.53,2.78-5.31,2.59-7.23,4.82-1.81,1.45-2.21,4.85-2.62,7.23a5.71,5.71,0,0,0-4.16,2.28c-2.29,4.11,2.49,4.07-4.24,6.15-.2-1.25-2.85-1.91-3.75,0-1.63.34-5.17-.54-4.71,2.41.38-3.38-4.75-3.18-5.06,0-.27-2.65-6.29-1.31-5.79,1.1-.25,1.88-3.28.56-3,2.39a9.57,9.57,0,0,0-6,2.09c-.73,1.49-.69-2.28-1.65-2-4.15-.16,1-6.28-5.27-4.82.37-3.48-.91-7.54-3.61-8.44-.1-2.67-4.1-.56-4.82,0-1.34-6.64-5.42,2.27-5.7-7.3.37-4.05,4.58,6.3,5.7-1,7.18-2.08.43-5.58,3.72-7.23,2.12,0,5-3.23,4.71-5.42.64.91,3.54-.35,4.17-1.36,1.17-6.85,1.46-3.7,5.93.54,4.3-2.34,14.5.78,16.41-4.6.92-.48,5.38,3.24,6.58.44,3.52-2.72,4-8.28,5.47-13.09-1.62-.8-1-3.61-1.43-5.36-.2-2.07-2.26-5.19,0-7.36.08-2.83,1.28-3.92,3.19-5.51.87-2.27,1.5-4.54,3.61-6,1.73-4.59,4.19-9.73,10.08-8.88,3-3.78,1.43-1.24,6-1.21.8-2.05,3.81-.2,4.37-2.27,1.06-.55.64-2.58,2.09-2.55-1,4.46,2.39,6.34-.55,9.12-1.65,3.9.21,7.56-.43,11.14,1.37,3.34,4.62,2.32,4.82,6,2.63,3.57,12.1,2.66,5.34-.93-3.77.86-2.91-3.08-4.59-4.28-.37-1.71-2.61.2-2.63-1.74-1-1.51,1-2.07-1-3.57,2.89-2.06-.37-3.86,0-6,5.5-1.17.06-7.8,1.21-11.56-1.37-1.83-4.73-.45-4.91,1.87-2.12-1.5-3.93,3-4.73,1.75-1.05-1.78-6.34-1-5.79,1.65-1.78.4-1.38-1.74-3.4-1.21-2,1.19-2.82,3.69-4.38,5.66-2.57.72-3.53,2-3.06,5.23-4.19,4.76-9.7,12.47-8.14,20.44.83,2,.27,6.55,2.11,7.65-1.27,2.21-3,3.95-2.4,6.85-2.46,4.86-4.81.17-8.23-.05-3,4.8-.09,2.12-5.14,4.82-3.77-.15-6-1.42-9.32.89-4.44-6.76-7.17-8.42-9.64,1.21-2.58-2.7-7.35.88-3.82,3.82-1.65,2.17-5.22,1.72-6,4.33.95,3.94-.65,3.53-2.2,5.42-.75-.66-1.36-1.87-2.95-1-6.64,2.16-2.56,2.94-5.93,5.54,3.28-2.7-4-8.94-6.12-9.15-2.41,3.05-7.79-.3-9.86,1.74-1.21,2.55-5.72,3.43-6.68,5.87.56,2-1.89,0-3.41.6-2.64-.92,1.91-3.71-.78-5.42,2.14-.62,3.11-2.75,3.3-4.82-.55-2.6-2.14-3.83-3.61-6.34,1-2.3-3.21-6.23-3.93-2.85-3.9.09-.46-4.89-5.71-3.61,1.81-4.75-3.71-4.75-3.84-8.22-2.26-2.61,1.5-6.1.22-9.54,4,0-1.47-5.69.45-6,1.18-.09.68-2.83.76-3.62,1.8-.86,5.89-.62,7.23-2-.64-3.45,2.74-4,3.61-6.47,8.56-3.64,10-.15,12.05-10.85,3.56-.11,8.49-.48,9.64-3.61,4.31,4.53,5.14-3.92,4.82-6.79-1.87-2.7-7.15,2.28-1.52,1.83.4,1.8-.89,5.71-2.32,3.66-1.77-1.07-3.4.91-3.71,2.19-3-.06-6,1-8.43,2a10.83,10.83,0,0,1-2.41,4.82c.62,2.14,0,2.94-2,2.94-2.4,2-7.23.06-7.65,3.53a5.39,5.39,0,0,0-3.61,6,13.28,13.28,0,0,0-7.23,2c.68,2-.45,2.64-1.21,3.61-.2,2.6,1,3.12,1.21,5.27-1.81-.4-1.08,2.66-1.21,3.61-2,.13-1.32,2.67,0,3-4.5,6.69,4.74,7.84,3.62,13.44-.22,1.17,3,.68,3.61.76-.25,1.55,1,4,2,4.82,6.14-2.83,2.65.4,6.47,4.37,1.71,5.6-1.46,3.62-2.19,7.45,2.06,1.46-1,.9-.22,3.08a7.13,7.13,0,0,1-1.31,7.82c-3.4,0-2.35,6.08-6.92,2.41-8.73-.89-4,2.71-7.22,6.92-.66-3.82-3.94-1.46-5,.63,0,.92,2,3.44,1.15,4.93-3.95,3.29-3.58,20.89,0,22.63-.19,1.39,1.34,1,1.5,2.24-1.13,1.1,1.44,1.8.91,3,.22,5.46,11.61.66,8.43,7.23.94,5.88,4.9,10.1,6,15.66,8.58,3.79-2.73,7.24-7.2,9-6.77.47-5.3,13-.27,5.09,2,.75,10.47,3.11,11.23-1.31,11.15,9.06,1,6.12-4.31,9.34-9.58-.2-11.27,3.71-5.8,11.2-2.07,2.94-3.42,6.86.32,9.13-.5,2.71,2.59,7.37-1.66,4.13-6.75,2.23,1,3.61.33,7.08-1.17,2.37-4.69-1.35-5.24.68-.05,5-6.76,8.55-3.51,12.66,3.6,2.28,9.7-.61,11.29,4.37-2.91,5.83,1.58,7.27,5.13,3.05,2-1.24,3.07,2.09,4.64,3.11,2.49,3.13.51,10.37,4.21,11.44-1.09.83-3.14,3.41-1.17,4.53,2.32,2.41,6.83,4.59,9.64,7.23a4.54,4.54,0,0,1,5.26,4.55c-4.73,5.11,7.21,11,10.93,10.89,7-.73,12.11-8.16,16.78,4.46-2.25,3.08-.92,6.53,1.21,9.34-3.33,4.55,4.45,23,10.71,16.55,4.45,2,4,10.78,11.73,8.43,4.37-2.17,4.88-4.53,5.7-9,5.26-.66,4.41,6.67,4.38,10.65,4.1,7.68,8.43,15.21,12.28,22.22,4.81.85,3.75,4.24,5.8,7-.65,2.29-1.35,3.62,0,5.71,1.47,3.26,7.51,5.45,8.43,8.31-2.35,3.93,0,7.14,2.41,10.08-.34,3,4.4,11.63-1.65,9.76-2.56-4.82,4.54-9.87-5.26-8.43,1.05-3.13-2.33-2.32-4.06-2.41-1.69-.66.25-4.48-1.52-4.82-2.28-.19-6.51-2.28-3.49,2,0,.23-.86.76-.57,0-1.27-2.47-2.9.48-3.48,1.65-.45-2-2.26-1-.13-2.85.67-2.89-4.74-4.49-6.35-2.41-.48,2.11-3.68-2.84-3.61.45-1.51-1.53-2.78-.91-4.37,1.2-5.89-1.24-3.53-5.08-7.68,2-1.31.73-6.11-2.82-7.23,1.2-.53,3.88-13.26,1.9-11.73-3.3,4.13-2.8-4.12-5-5.13-2.72,1.28,3.32-4,.12-3.62,2.85-3.77-1.8,3.63-3.61,2.73-6.47-4.52-.09-.86-9.56-3.17-11.6a3,3,0,0,0-3.17,3.61c-3.24.26-1.72,4.51-3.62,5.58.9,4.31-3.89,3.82-5.71,5.27.28-4,5-5.73,0-8.88-.71-1.08-4.61-1.32-5.13,0,.39.44-.07,3.57-.89,2.09-1-1.42-.72-5-3.62-3.91-.11-1.32-1.12-1.78-2-2.56-.82-.63-2.5,1.35-2.85.45-.1-3.85,2-4.66-1.21-7.23.8-1.61-.32-4-1.2-4.95,2.3.14.73-1.63,0-2.28-.8-3.23-7.41-3.89-6-8.12a3,3,0,0,0-2.41-3.17c-1.08-.88,3.47-2.16,0-2.41-1.71-3.71-1.41-9.7-3.61-13.69-3.06-3.34-.32,7.19.89,6.78A27.57,27.57,0,0,0,253.2-188c.23,1.83,4.75,2.63,5.11,4.66,0,4.9,2.43,9.18,2.34,14.39,1.71,1.51,1.74,1.69,3.39.22-.43,1.58,1.9.82,1.2,2.54-6,2.41,1.33,8.44,2.41,1-.81,2.85,4.2,5.08,5.14,1.78.16-4.44,2.86.63,4.5.76a6.65,6.65,0,0,0-2.41,6.47c2,2.58,4.35-1.25,6.79-.45a18.59,18.59,0,0,0,3.17-6.78c.73-.61,2.22-1.78,0-2,1.06-1.31,3.11-.78,2.41-3.3,2.32-1.25-.47,9.86,1.65,9.64,3.73-.35-5.37,3.93-1.21,7.23a15.49,15.49,0,0,0,6.79-2c-.52-2.12,1.75-2,3-1.21-2.55,2.5.57,6.72,2.28,8,15,2.48,9.37-6.33,16.87-2.41,3.94.73,2.15-6.44,6-2.41,4.82-.91,9.45-1.28,13.7-2.41-1.21,8.8,6,5.63,9.64,2.41-.48,3.28,1.27,5.6,4.82,4.82-.89,3.33,3,2.27,5,2.41-.6,1.34-2.33,1.6-.14,3.17.06,1.9.05,5.36,1.2,6.3-3.54-1.4-16.66,7.87-9.64,7.4,2.12,3.28-2.49,1.16-3.94,3.67-2.49,1.64-1.26,5.06-3.39,7-6.91-1.77-4.51,6.41-.66,7.39.66,1.61-3,2-3.4,3-1.13,1.89-2.95,2.71-4.66,4.38-1.54-2-2.95-1.46-4.21.95-1,.87,1.88,3.11-.46,1.58.23-3.34-3.24-6.93-6-4.06-1.4-4.92-6.94-1.35-8.2,1.81-.5-.71-2-.66-1.44-2.25-.43-1-4.08-1.43-3.93.31-4.56-.31-7.47,2.55-9.09,6-1.43,3.19-6.78,1.51-9,3.27-1.91,2.73-7.21,2.42-2.78,7.68-2.1,1.89-3.57,3.7-5.66,5.58-2.06,1-1.31,4-3.39,5.49-.28,1.55-1.87,1-3.07,1-.89.12-1.11,1.46-1.88.22-2.32.29-4.11-3.27-6.11-.67-1.1.88-4.55,0-4.38,2.86-.31.09-5.65-.65-5.26.76-1.07.52-.59,4.71.87,2.25,1-1.17,5.73.54,6-2.49,1.23-1,3.48.38,3.94-1.57,1,.82,5.13,3.39,6.46,1.21.93,3.06,4.06-.16,4.71-1.81,2-2.3,2.68-6.54,5.82-6.63,1.54-1.83,2.09-3.49,4.37-4.37,2.62-1.65-2.9-5.47.45-5.26,1.55-3,5.6-2.35,8.43-3.62,1.92-2.84,5.12-3.92,6.23-7.23,8.35-.45,1.57-2.42,7.47,2,1.58,5.56,4.62-3.33,5.46-4.38,1.25,1,2.23,3.06,4.94,2.41,2.91-.79,2.14,3.14,4.28,4.6,1.53.73,2.23-.14,3-1,2.77,0,5.6.23,5-3.67,5.39.8,5.55-2.41,6-5.87,5.3-1.08.52-5.37-1.49-7.33,6.66-.78,3.38-9.16,10.92-9.64,3.78-4-2.79-9,8.43-8.43,2.2-1,.38-3.18,2.41-1.21,7.19,6.72,13.52-12,19.72-8.88.18,4.28,22.62-1.35,26.4-2,4-2.55,10.09.65,8.3-7.19,2.83-2.92,7.94,4.3,12.08-1.17,3.71-2.33,4.11-4.73,10.61-3.61,6.58-4.31,15.14-7,17.63-15.22,1.66-2.48,3-6.81,5.58-8.88,3.95.59,9.11-5.24,9.76.45,1.1,3,12.05.17,8.66,4.28-1.05,4-6.61,5.8-7.45,10.67-6.08,5.24,3.25,7.79,3.06,17.73-4.65,0-7.63,4.83-3.06,8.6,1.39,2.69.34,7.5,2.41,9.64-3.61,6.49-2.88,7.21,1.21,12.93,5.2,3.71,14.06,6.11,16.62-1.54,15.85-6.35,28.16,8.15,35.18,19.8-1.43,9.62,2.49,24.5,1.21,31.14.43,5.27-2.4,9.13-3.54,14.12,2.57,2.77,1.73,8.47,3.53,11.5.87,12.19-4.67-7.59-8.76-5.52-3.2,4-1.7-.26-4.82,0-1.88,2.5-2.49,3.08-5,4.15-2.94,2.39-6.92-5.4-10.4-.76-4.27.85-1.33-5.31-4.5-6-2.52,0-3.34,3.21-6.47,2.41-1.11-2.34-.35-1.76,1.53-3.68,3.95-8.14-11.56-8.54-13.8-14.17-1.5-2.53-2.91-.89-3.26,1-4.19.5-4,2.05-8.12,0-2.19,2.3-3.65,4.08-7.23,4.82-2,2.58-3,6.44-5.58,9.19-.86,3.84-4,6.21-6.15,8.88-1.21-1.27-1.21-3.46-3.17-3.61.05-1.24.26-2.51-1.21-2.41,0-3-1.66-10.52-5.58-6-1.1,1.44-2.88.89-4.15,2.63-1.37,1.13,0,4-2.32,3.39a3,3,0,0,0-3.17-3.62c-3.87,6.78-3.29.83-8.87,1.21,1.47-5.35-4.7-1.74-3.62-6.47-2.82-2.22-2.81-6.38-5.58-9.19-2.37-1.83-1.24-6.41-2.85-8.32,2.69-3,1.48-7.38-3.17-6.14-4.76,3.91,2.76,1.2,2.2,3.65-2.87,3.37.06,10.3,2,13.38,2.78,1.95,2,6.74,4.82,8.43,1.23,1.13-.15,5,3.73,3.67-2.67,3.16,2.61,3.26,3.95,4,1.58,2.9,5.39,2.41,7.38-.74,1.66,3.57,7.86,4.37,6.84-2A4.61,4.61,0,0,0,437-51.88c1.29,1.07.37,6.29,2.53,7.23.8,2.31,3.06,4.76,5.26,6.47,3.87,3.46,2.41-4,4.38-4.06,2.22-1.73,4.28-3.73,3.93-7.23,4.65.77,3.52-4.89,5-7.45,1.47-2,6,.22,5.69-3.44,3.35,0,7.49.23,9.88-2.49.33,2.22,3.11,3.17,5.26,3.74.76,3.32,5,2,6.79,4.06,3.24,3.34,2.06,2-.56,5-3.08,3.81,3.37,7.86,6.45,4.22,6.33.17-1.91,7.6,11,3.62.92,2.27,8.46,5.07,8.2,1.21,3.73,1.17,6.89-2.38,8.67-3.18,4.51,10.42,14,13.78,23.65,21.25C549.4-21.69,555.67-29,560-25.37c10.88,2.7,12.71,13.49,17.31,22.31.74,6.9.91,15,7.45,19.63,5.12,7,13.81,9.49,20.58,13.34,5.12,6.9,12.83,12.42,11.73,22.27,4.75,3.29,4,9.8,8.43,13.25,1.66,2,5.15,1.3,6.79,3.17.85.41,1.33,1.92,2.41,2.41a3.27,3.27,0,0,1,3.61,1.21c2.59,0,3.56,2.7,6.47,2.41,1,2.51,3.29,3.68,6,4.82,3.16,4.37,8.39,10.72,8.65,17.84,10.07,7.61,23.66,15.47,9.31,27.78-3.63,2.23-5.81-1.71-8.57,1.33-9,5.89-13.87,9.69-24.51,2.36-7.34,1.73-7.39,10.86-10.18,16.68-4.18,2.72-9.55,3.68-9.64,9.64-3,.81-7,1.11-9.77,2.59-2.64,2.18-6.77,2.44-9.75,3.54-.45-3.66,1-7.52-2.41-8.43.34-1.47.82-4.88,2.2-4.66,4.93-2.93,2.41-7.24,2.62-11.94,1.51-3.09,4.09-9.28.45-11.11-1.23-1.57-3.76-4.68-6.47-4.82-.34-.85-2-3.58-3.61-3.62-3.72-5.38-8.54,4.05-13.26,2.41-1.13-4.67,1.27-5.35,3.39-8.34.16-9.88-9-4.08,5-9.57,3.26.41,8.69-2.88,4.62-6-1.53-.26-4-.59-4.6-1.87-2.83-3.09.93-14.25-7.22-10.4.14-3.23-2-5-4.55-6,2.43-3.13-.41-5.34-3.65-4.82,1.61-2.81,1.91-7-2.65-6,1.07-1.62-3.66-4.59-3.93-2.85-4.07,9.68-.49-7.78-5.58-2-3.92-2.52-5-.45-9,0-2.89-2.94-6.18-3.58-7.44-6.62-3.84-6.27-3.45,2.48-6.12,3.08-3.24,3.25-1.06-2.63.09-4.28.75-3.27-6.76-2.83-5.13.88-4.67-.46-4.8-8.42-10.08-7.67-1.31,1.28-2.32,1.76-3.62,0-4.49-.12-8.13,2.88-12,4.5-1.06-2.18-.53-8.12-4.15-7.89-1.09,3-4.43-2.81-5,1-3.8.52-3.69-1.23-5.26-3.61-5.72-2-1.41,5.92-4.06,7.22-.21-3.22-5.3-3.69-4.82-7.67-5.78-6.87-4.24,7-11.29,4.06-2-1.74.23-2.69.39-4.35-2.69-1.49-1.29-6.22-3.56-8.46.93-7.62,14-13.21,19.28-19.4,3.12-.42,1.77-5.05,4.06-6,2.13-3.79,7.2-6.33,9.19-9.64,4.75-3.75,10.45-7.15,14.46-11.6-1.52-2.33-4.7,1.37-5.14,2.85A9.67,9.67,0,0,0,503.35-10c-7.21,5.49-15.47,12.61-19.27,20.49-4.82,5.63-15.83,11.13-18.84,16.86-4,2.75,2.4,10.12,1.21,14-.05,1.64-2.26-2.55-3.17.44.2-1.39-3.71-2-4.06-.44.47,4.78-4.53-2.62-3.61,2.85-1.89-2-2.54.29-5.27,0-1.53,1.17-.1,2.77-2.95,2.63-10.86,7.23-6.06,5.42-17-1.2-3.69-.4-6.27-7.1-3.39-9.1.67-1.28-2.47-3.54-.76-4.06,3.47-8.32-5.2-.06-.76,3.3-5,4.26,3.15,11.74,6.78,13.56,2.83,1.87,9.13,7,11.6,1.21,2.18-1.88,7.72-1.37,7.23-4.82,3.2,0,9.82.24,9.64-3.61,1.18.06,1.14,1.66,2.86,1.2,1-.93,1.78-1.1,1.64.45,1.4,1.58,4.36,1.65,5.58,3.17,2,.47,1.71-1.69,3.62-1.21a7.82,7.82,0,0,0,2-5.26c1.34-2.11.44,1.1,2.1.44-1,3,4.14,4.14,3.61,6.47,5.81,6.32,4.08-3.55,6-5.26-.66,2.61,4.26,6.85,5.14,3.61,5.15-1,2.62-1.09,2.09,2.85,1.56,2.45,3.74-1.21,4.82-1.79,1.08,1.82,1.36,8.32,4.69,5a10.6,10.6,0,0,0,7.68-3.62c2,.53,5.31,2.4,7.23.45.6-1.86.86,1.37,2.09.75-.71,1.91,1.2,2.44,2.41,3.17-.12,2.32,3.14,2.29,4.37,4.07,2.72-.7.91-4.5,4.06-3.62-4.21,3.83-1.57,10.56,3.94,5.26,2-8.46,5,1.93,2.09,5.27-1.85,1.73-5.5.53-6,3.75-3.39-1.24-4.83,2.11-7.35,2.27-1.5-2.27-5.76-4-4.47.22-2,1.83-7.14.59-8.79,2.19-2.29-2.88-4.83,1.92-6.78,2.41-3.44-7.09-3.63,2.42-7.23,1.21-.11-2.77-2.69-.57-3.17,0-.85.74-3.42-1.07-3.17,1.2-7.45-4.34-4.72-9.06-17-7.23-.66-1.08-4.87-2.36-4.69,0-3.17-1.3-10.59-1.88-13.69,0-1.32,1-2.33,1.94-2,4.06-1,1.1-7.42,4-3.52,4.47,2.11-2.26,5.16-3,5.48-5.8,1.31-1,7.75-4.13,10.09-2,1.42,1.9,5.25,0,6.47-.44,6.49,2.83,10.9-1,15.44,7,1.32,1.85,5.67,2.13,7.32.66.76-1.87,2.05.31,2.85.76,3.11.68,2.47-4,4.82-3.61.62.55,2,1.82,3.62,1.2,3.34-4.59,11.75-1.59,16.42-5.58.42-1,3.51,4.08,3.62.76,1.07-.83,3.39-.85,3.61-2.41,2.88-.11,3.25,2.45,4.06-1.2,3.44.42,4.73-2.44,6.78-4.38-1-5.57,3.06-.25,5.27.76a24.59,24.59,0,0,0,6.47-1.2c-.28,2,2.69,1.18,3.7,1-.21,1.16,1.6,2.49,1.11,4.28,1.09,1.8,4.87.61,4.69-1.65,2.27,0,2,5.82,4.39,2.41,1.88,1.12-1.75,2.94-.64,5.27.33,2,4.5-.46,4.82,1.69-2.86,2.27-.14,4.66,2.41,5.09,1.18,2.38,1,6.28,4.91,4.6,5.88,2-1.49,10.4,6.69,12.27,6.25.24-5.51,2.74-7.46,3.45-1.69-2.66-3.23.42-4.14,1.81-.91,2.36,2.11,5,3.61,6.34.7,1.86-2.47,2.22-3,3.45-.56,1.56-1.62,8,.11,9.05,9.3.8,10-8.92,16.87,1.2,3.87.12,6.54,5,7.12,6.94-2,4.15-1.52,11.43-1.86,15.68-4.69-.61-3.82,5.71-4.82,9.15a6.1,6.1,0,0,1,1.86,7.69c-9.11-5.6-20.76,13.68-28.16,9.78-4.09.2,1.55-3.44.11-6.31,2.81-4.11,7.21-5.42,9.64-8.75-.93-2.49,2.14-10.37-2.41-9.2,1-1.25,2.32-2.81,0-4.05.16-.38-1.2-1.32-1.21-1.65,3.08-.13.54-9.43-2.28-5.14-3.26-4-10.09-3.05-10.06-9.48,1.59-2.07-2-2.76-.47-3.46,1.44-.12.13-2.45,1.21-2.41,2.23-.54,2.65-5.49.44-3.17.49,1.72-2.08,1.33-2.41,2.41.37,1.11-.65,1.77-1.2,2.41-.11,4,1,4.45,1.21,8.44,2.32,3.92,7.18,3.42,10.39,6.78,3.27-1.63,3.84,1.09,1.65,2.86,1.62,2.31-.25,8.82,3.62,8,2.84,10.09-9.64,10-9.64,19-1.26.26-2.3,2.48-2.19,3.71,1,1.47,3.6,2.12,3.29,3.67-4,1.36-6.77,12.42-11,6.78-3.59-1.67-8.94,4.49-4.81-6,.46-3.21-.79-6.07-2.73-3.3-2-.37-5,0-5.47,2-2.41-.64,3-6.42.55-9-1.81-1-2.69-1.93-2.65-3.4,2.45-4.49-3.44-5.61-7.33-5.11-.24-.17,1.78-2.74-.45-2.41,1.1-5.13-2.92-2.33-4.82-5.58,0-2.7.28-5.67-1.2-7.41,1.39-1.46,1.1-2.7,1.2-4.32-.12-1.08,1.4-1.64,1.15-2.7-.9-.78-1.4-.63-1.15-2.13-1-.91.48-4.36,0-6-3-4.19-1.91-7.17-1.42-11.38-2.57-4.9-9.79-.69-12.59-3.83-1.07-1.55-.75-5.77-2.41-7.24-.71-1.85-3.35-.3-2.85-2.85-2.67-.85-9.94-2.89-12.37-1.21-5.88-4.32-9.49,6.11-6.58,5.21,3-4.18,2.42-3.43,6.69-2.19,2.07-2.33,6.53.79,10.08,0-.89,1.92,1.72,2.53,2.41,2.85,3.19,2.24.76,10.08,6.47,9.2.86,1,2.18,1.64,2.58,0,2.14-2,4.42,1.84,5.86,1.2-.77,2.87-.55,8.93,2,11.61.8,2.07-2.54,4.67,0,6,.94,2.61-2.61,4.16,0,6a6,6,0,0,0-1.2,4.5c3.1,1.52-1.42,4.76,1.2,6,1.58,1,2.37,5.61,4.82,4.23,0,2.44-2.84,5.33-.44,7.38,11.72-6.17,5-.19,8.87,3.61-.39,1.28,1.74,1.62,2.41,2.12.58,2.26-1.44,4.05-2.41,5.56-1.3,3.56,5.72,6.54,5.79,2,6.74-1-2,13.66,7.78,9.77,1.65-1.71-.08-.83,1.65-.13,3.2,6-12.18,6.65-16.75,9.7-5.38,3.84-4.82,10.64-9.1,15.13-11-9-7.84-19.46-14.67-17.76,2.27-2.83-.32-5.85-2.64-3.62.59-5.43-2.31-8.52.55-13,1.72-.85,2-2.49,3.61-3.3.7-1.06,4.3-2.86,2.31-4.22-1.59-2-2-4.44-5.71-3.61-2.25-1.68-3.77-2.85-5.58-1.21-.19-3.2-2.22-5.4-4.38-7.23-1-2.9-2.79-5.59-2.85-8.88-2.7-1.74-18.48-.95-15.87,3,5.18,1,13.58-5,14.45,2.41,1.48,1.48,1.1,7,4.06,7.23,1.22,2,1.76,4.09,3.17,6,3.62.22,8.51.14,10.09,3.5-4.11,2.84-8,7.33-7.23,13.82,1.6.84,1.17,2.22,0,3.61-.12.78,0,2.34,1.2,2,.08.51-.38,2.54.76,2.4,2.59,5.29-2.82,3.11,6.47,3.62-3.2,8.73,18.45,16.66,4.72,20.32-40.11,7.67-13.95,29.2-22.79,47-3.35,8.69-17,2.67-23.79,7.65,1.2-2.52-.11-6.57-2-8.67-3.83-.63-5.36-.91-7-4.6-1.37-5.75,3.55-.27,4.17-3.77,7.1-14.44-8.39-.38.65-15.19-1-3.89,3.37-.66,5.15-2,6-4.35,8.09-12.87.88-16.81,1.37-6.53-8.61-4.52-3.62-10.57,10.56-14.27-4.36-7.95-1.2-16.87,3.42-3,5-6.06,1.2-7.5,1.1-5.39-2.7-2.2-4.37-4.82-.86-4.68-1.91-8-5.27-11.6-.44-1.76,1.18-2.13,1.15-3.59-1.23-.84-2.4-1.89-1.15-3.32a10.91,10.91,0,0,0-2.63-5.36c.91-1,2-1.62,2.63-3.08-3.62-1.38-4.09-1.14-3.61-6,.21-3.09,4.81-2.38,5.36-5,.17-.48,2-7.8-.54-7.77-.36-1.44.83-4.52-1.21-5.58,1.37-1.78,4.19-5.13,1.21-6.91-4.6-2.17-4.14-7.25-6.79-10.4-7.77.84-.29-2.5-8.43-6-2.48-1.9.83-5,.76-7.68-1-1.25-3.51-.37-4.37-2-2.87-.61-4.83,1.4-7.68,1.2-2-2.8-9.26-14.57-1.41-16.7,3.56-1.64,4.34-4.86,7.77-7.46,3.21-2.66,9.79-11.68,1.32-4.76-2.31,3.08-6.11,4.61-7.44,8.44-1.87.66-4,1-4.82,3,.18,1.56-2.11-.25-1.76,1.67-.41,1.7-3.27,7.09-.65,7.52,1.55,1.18.28,5.94,2.41,6-.42,3.82,5.31,6.79,8.3,3.62.18,1.17,1.58,1.56,2.41,0,5.82,3.7-.83,3.22,2.54,8.88,1.49,1.47,2.35,3.37,4.82,3.17-1,2.24,2.41,6.06,3.93,4.06.74-2.14,1,.92.89,1.2.44,1.32,1.69.6,1.21,2.41,1.28,2.22,3.2,5.54,5.78,6.78-1.2,1.73-2.69,2.56-2.17,5.27,1.34,1,1.09,2.46,0,3.61-.69,2.77,3.81,2.55,1.86,5,.09,4-6.31,5.8-6.68,9.48,2.52,3.17-1.85,3.25,2.63,6.56-2.18.86-1.63,4.2,1,4.6a12.73,12.73,0,0,0,1.2,6.91c0,2.21,0,6.07,2.41,6.79,0,.68-.27,2.93,1.2,2.41,0,.68-.26,2.93,1.21,2.41-.05.93-.31,5.4,1.21,5.26.81,1.25,1.82,2.37,3.61,1.82.28.81-.6,3.71.76,3.76,1.53,1.3-2.34,3.08-2.29,4.88-1.21,1.6-2.48.61-2.54-1.21-3-3.32-7.83-4.75-10.76-8.34-1.16-1.89-2.93-4.85-5.13-5.13-1.27-1.81-1.95-3.94-4.68-4.68-2.11-3.39-4.13-7.49-6.92-10.54-2.32-8.11-12.24,3.81-15.8-2.54-4.94-4.48-.55-16-6.47-18.39-6.58-1.9-11.79-7.21-19.28-6-7.38-4.62-15.09,2.73-21.55,4.82-4.77-4.54-11.87.21-17.36,2.41-5.57-5.72-1.19-7.14,4.88-7.29,5.12-4.39,4.9-11.51,3.29-17.25-.78-1.53,1.49-3,2.18-4.29.09-2.33.76-1.85,2-3.09,2.54-1.38-.73-8.33,5.26-6.47,1.64-1.2.53-6,3.61-6a12.82,12.82,0,0,0,5.14-7.23c5.12,2.25,7.34,1.06,6.47-5.58-3.2-3.83.34-6,2.41-8.43,0-7.78,7-8.59,10.62-15.12.57-6.11,4.75-11.57,3.83-18.3,10.71-11,18.16.15,14.46-11.16-2-2.67-2,3.41-.31,4.06-2.33-.89-9-.4-9.19,2.41-2,.35-5.23.53-5.27,2.86-2.74,7.65-2.82,17-8,23.65-2.43-.27-2.05,2.94-4.5,2.41-1.88,2.16-2.78,5.81-3.62,8.43-5.37,3.71-1.88,8.48-2,14.46-2.7-.67-7.93-3-7.23,2.86-1.84,2.19-4.72,2.57-6,5.13-1.18.69-1.23,2.66-2.41,3.61-.17,1.12-3.47.12-3.61,2.41.75,1-.67,4.84-1.21,5.26-.14-.61-1.47-1.73-1.75-.28-.69.85-3.31,2.7-.66,3-.1,1.66-2.06,3.9-3.85,3.45-3.62-2.78,2.73-7.94-1.78-8.43-.21-.22-2.06-.72-.95-1,6.68.37,5-8.12,5.14-12.66-2.92-4.32,1.65-8.45,1-12.59-4-3.49-.19-14.22-3.53-18-1.77-2.91,2.1,0,1.89-2.43,3.19-7,7.53,3.44,9.19-5,9.46,3.65,2-4.18,5.05-6.24.08-3.46,1.32-1,2.63-3,3.35-2.16-2.3-3.27-2.63-5.36-4.08-3.65,6.19-3.78-1.75-8.65-4.2-5,10.1-4.82,5.58-7.23-.43-2,1.49,1,2.86.31,1.65-.51.57-2.81-.45-3.48,1.13-1.28,4.34,1.23,3.46-1.63,5.39,2.13,5.23-3.56,8.59-5.29,2.68-4.46,5.39,3.3,7.23-3.29,2.55-1.71,6.32-.07,8.88-2a5,5,0,0,0,5.58-4.37c-.67-5.26,2.16-.66,4.59-1.87,6.79-6.53.57-5,9.87-9,3.09-2.38,6.7-4.21,8.43-7.67,3.57-1,4.46-3.18,6-5.58,2.1-.62,4.12-2.52,6.47-2.86,1.53-1.91,3.27-4.11,6-4.81,1.8.37,6-11.09,3.61-12.37-1,.79.16-6.31-2-2.85-.54,1.77.8,4.67,1.21,5.71-2.19,2.51-.57,6.06-3.62,7.54-3.54,2.51-7.16,5.38-10.84,7.23-2.61.21-3.44,2.95-4.82,4.82-1.77,1.72-5.32,2.62-6,5.26-3.27,1.56-5.55,5.94-10.08,6-3,1.75-2.14,5.16-5.14,7.23-4.51-3.88-6.21,2.44-6.91,4.82-1.25,1.25-1,.54-2.7,0-1.2,1.73-2.75,2.82-4.82,1.21-.4,1.54-2.54.93-3.86,1.37-1.56,2.69-3.64,2.31-6.7,2.18-1.32.72-1.49,2.17-2.94,2.64-2.12,1.53-1.52,5.31-4.73,4.59-.69-3.26-4.76,1.34-6.34,2-.64,1.71,2.93,4-.44,1.65-2.84-1-3.78.91-2,2.85-4,.38-8.9,4.9-4.82,8.31-.35,1.74,2.1.73,2.41,2.09-4.83.94-1.39,7.58.76,8.75,2,.83-1.92.52-2,1.65.27,2.83-3,5.2,0,7.54-1,4-4.68-4.95-6,3.75-.63-1.31-2.17-1.2-3.3-1.21,2.14-4.47-1.86-1.1-2.83.16-3.26-.27-3.67,2.41-6.15,0-.21-5,0-6,3-9.12,1.46-5.74.46-13.31-1.31-18.59-5.08,1.3-1.3-4.29-3.62-6-3.7.89-5.36-2.62-4.05-5.26-.07-1.48-1.71-2.81-1.21-4.82,8.3-6.5-5.27-4.25-2.47-6.94-1.55-5.68-6.64-1.62-9.8-8.06-3.5-.7,4.4-6.72,2.63-10.3-1.2-3.63-7.31-.19-3.61-4.82,1.16-4.58-1.88-4.21-4.82-5.58.86-6.72,1.16-21.93-9.74-16.64-.14.37-1.69,1.43-2.31,1-.89-.84,3.4-4.58,0-4.82-1.45-4.09-1.89-8.66.46-12.94,2.07-.65-1.19-2.28-.46-3.66,1.08-.9,1.41-2.92,1.2-4.33-1-1.13-3.12-.63-4.37-2-2.25.3-3.55,1.66-6,1.21-2,2.79-5.64,3.18-6.79,6.78-2.1,2.53-7.89,2.39-7.66,6.41,1.44,2.14,2.88,4.31,4.36.82-.56-.62-2.09-1.47-.87-2,2.85-1.95,5.47-2.23,6.6-5.8,2.38.27,3.45-2.37,4.79-3.62a7.41,7.41,0,0,0,4.62-1.21,3.19,3.19,0,0,0,3.17,1.21c-1.24,2.43-.86,5.53-1.75,7.83-.18,2-2.95,6.42-1.11,7.83-1.85,2.47,2.78,3.72,1.66,7-3.22,3.78,2.89,4.74,5.58,2.68,1.3-1.11,4.75-.2,6.46,2,1.31,2.2-2.56,16.8,3.18,16.1,3.12-.72,1,1.75.44,2.86.59,2.37.15,5.71-1.76,6.17-.44-.41-3.32,2.74-4,.74.69-2.32-1.75-1-2.41-2.41.48-2.33.17-4.88-2.47-3.86-4.06-.67-10.37-8.17-12-.24-1.72-4.39-3.43-.4-6,1.25,0-2.26-.57-3.18-2.28-1.21C302-15,300.79-16.62,299.3-16c.14-1.57-2.74-2.09-2.41-4.06-.19-1.59-3.09,0-3.62-1.52.59-3.73-1.84-6.77-1.2-10.53-1.7-1.65-1.2-.77,0-2.41,0-1.61-1.14-3.2-2-4.37-1.66.19-2-.31-1.65-1.65,0-1.89.05-4-1.2-5.71,1.78-1.79,5.5-4.87,2.85-7.1-3.7.29-6.79,0-8.43-2.41-1.89-.35-3.91,2.83-5.49.22-4.09.5,3.39,4.63,4.73,1.3,0,3.14,6,2.36,8.43,2.41-7.34,10.28-.74,3.49-3.61,11.28,1.86,3.63,4.68,3.47,3.61,8.44,3.27,2.59-.53,13,6,12.81.79,5.27,6.42,4.73,9.2,7.23,1.58,0,4.14-1,4.37-2.41,1.57.14,1.58,2.29,3.54.79,2.16-6.12,1.79-.71,5.34-.79,5.7-1.15,7.29,9.15,12.59,8.21,2.74-3.37.07,4.59,4.82,2.41,2.78-2.57-1,2.68-.1,4.28,3.51,1.95,4.34,6.91,9.64,5.58-1.24,5.21,1.75,4.44,4.82,5.26-.65.58-4.64,3.57-1.2,4.38.21,4.21-.25,12,6,10.84-1.46,13.65,4.83,1.11,3.62,11.29.58,2.08,2,3.58.65,6.18-1.9,1.34,1.46,2.45.44,4.06-2.5.65-5.46,1.84-4.71,5.43,2.05,4.06,1.7,9.6,6,13.56-.89,9.26,2.87,17.85,0,26.19,5.11,13-3.25,9-4.82,15.66,3.85,1.13,1.25,6.93,3.17,9.2,1.53,2,4.68.33,4.29,4.6,2.37,2.82-.35,8.06-1.53,10.9-8.33-.34,1-7.7-17.45-3.61-3.42-2.49-8.07-3.94-6.78-9.37,4.23-2.55,5.85-11.63-1.3-9.69-2.87.77-3.84,8.56-5.93,6.25-.72-2,.07-5.31,0-8.12-2.15-1,0-4-2.41-4.38-.14-1.86-3.67-1.22-3.84-3.39-2.95-1.3-.95-5.79-3.39-6.24-.22-4.72-4.42-17.29-9.4-10.24,3.12,19.41-9-7.61-9.88-12.08-.23-6.16-5.52-8.75-8.2-2.38-.12,2.67,4,4.77-1.44,4.22-1-4.31-12.82-8.92-16.95-10.63-1.41,2.42,2-7-1.12-6.24-3.35-16.51-3.47-3.49-9.08-7.38-4.46-8.64-.87-10.1-11.61-5.14.38-14-6.3-3.48-2.85-13.38-.66-1.72-4-.63-4.82.44.93-4.25-2.49-2.65-2.64-5.8-.83-1.44-2.4-1-2.18-2.32,2.33.81.77-6,1.2-6.78-1.93-1.27-2.92-1.86-2.4-4.82a8.35,8.35,0,0,1-1.21-10.84c-1.21-3.85,2.64-1.85,3.61-3.62,2.07-7.71-8.18-11-3.61-15.66-1.12-2.48,2.73-5.47.45-6.78-1.7-.64.84-.73.75-1.65,1.18-1.44,2.63-3.76,5.27-4.06,1.31-2.32,4.37-1.8,6.34-3.62,6.57-1.6,7.18-8.72,12.49-11.6.81-2.91,11.28-1.77,7.67-5.58-5.48,2.31-12.12,4.83-15,11.07-3.93,6.19-14.16,6.41-18.3,12.58-2.92,2.05.66,8.47-2.85,10.09-.5.66.12,6.11,2.85,6.34.44,2.42,4.92,8.11.77,8.11-.73.31-6.1,8.5-3.18,7.55.83,1.91-3,3.39-.44,4.82.77-.43.34,1.39.44,1.65.21,1.31,1.9.31,2.41,1.52-.13,1.89-.2,5.22,2.41,5.26,1.61,5.4-6.8,7.29,1.21,9.19-.48,1.7.28,3.54,2.41,2.86.69,2-3.7,4.92.76,4.82,2.33-3,5.41-3.12,1.65.44,3.41,3.34,5.59,4,5,10.18,2.16,2.75,6.46-.73,9-1.87,1,1.09-.14,3.21,1.65,4.06-.56,3.65,3.46,5.35,6.78,5.26,2-2.83,1.68,1.41,1.65,2.85,2.28,5.69,5.45,8-3.4,6.62-.77,1.26-2.41.81-3.17,2-.36,1.73-3.81,4.66-4.73,1.87-4.3-5.11-12.07-4.47-16.2-8.65-1.79-2.91-3.9-7-8.43-3.71-3-2.38-6.06.89-9.64.09-1.41.35-1.82-.16-1.65-1.65,0-1.15-2.92-1.08-2.41-2.41-1.33-1.94-11.31-3.45-12.69-.76-10.22-7.23-14.64-2.85-15.24-7-1.6-3.44-4.25-3-6.56-5-3.55-.43-7.25-.22-8.88-1.65-5.33-4.62-3.43-4.78-6.16-10.09-5.44-9.94-7.06.58-5.65,6.14-2.6,3.23-2.85-3.56-4.51-4.64,1.1-1.34,1.18-7.71-.55-8.28-1.52-2.51-5.11-1.81-7.23-4.26,5-4.44-4.77-5.12-4.82-8.28,9.66-8.31,7-9-2.41-15.49,3.5-2.5,3.07-8.37-1.65-8.88-3.92-4.92-8.15-.77-2-6.46-1.62-6.32,7.49-2.21,10.19-6.18,3-5.78-6.81-2.87.43-8.95.51-1.55,3.48-5.25,4.29-5,3.44,1.59,4.16-4.25,1.95-5.21,8.89-4,2.53-3.64,2.74-10.45,2.05-9.79,9.79,1.13,10.52-11.73,1.58-4.11,3.62-7.19,5.37-10.81,1.12-9.55.62-5,4.27-12.79-3-5.18-.08-13.67-2.42-19.28-3.27-2.21,1.93-1.46,1-4.15-1.18-1.69-1.44-2.55-3.39-3.39.77-3.16-1.39-4-2.7-6.31,2.28.5,2.73-1.92,3.25-3.48,1.86-.05,4.33,0,4.26-2.44,2.11-3.09.49-7.19,3.62-9.14-1.39-4.93,4-1.38,4.82-4.82-1.19-6.33,3-9.81,5.37-14.7,2.48-2.74-3.11-3.74,1.65-6.38,1.48-2,5.81-1.43,7.11-3.62,1.76-.71,5.82,1.16,6.9-.76,1.73-4.73,4.77-3.37,1.86-9.48-.55-5.53,8-4.8,9.64-8.43.29-3.63-2.14-.81-3.49.44-2.07.17-4.73-.44-4.71,2.3-7.88,6.62-1.83,7.32-3.94,11.18-1.83,4.58-2.84,0-6.69,2.18-5.86,4.71-12.77,1.41-10.74,12-1.88.36-1.34,3.39-1.63,4.82-4.14,0-3.57,6.42-3.5,9.64-9.15-1.4-5.79,9.4-8.14,14.46-4.4-1.18-3.77,4.15-7.32,3.61-3.09,1.32,0,6.64,2.2,7.39-1.39,3.65,3.42,4.34,1.86,6.62-1.44,1.54.18,7.36,1.76,7.84,1.16,2.3-3.24,6.66,0,7.23-.59,3.51,1.58,9.28-1.54,10.9-1.73,2.12-.2,5.87-1.42,8.08-3.27,3.69-4.37,9.15-6,14.23-4.53,3.84-7.45-.81-10.07,8.86-.87,2.09.33,5.23,2,6.68-2.25,1.57-5.5-2.78-5.82,1.58-2.92,1.86,2,3.83-1,3.72-1.91,2.08-2.31,5.62-3.82,8.33-.72.4-3.31-.53-3,1.18-3-2.08-1.09-7.81-4.51-10.27-11.71-11.19-2.42-2.79-5.73-13.73,6.36-4.87,2.81-11.3,2.12-17.28-1.22-2.27-4.19-1.82-6-3.17-1.43-1.54-.53-4.89-3.17-6-8.4,0,5.12-7.78,5.58-10.08,2.4-5.32-5.86-8-3.84-11.51,2.43-4.35-1.42-10-5-12.15-3.21-4.52-5-2.69-9.19-1.2-3.75-7.29,2.75-13.23-2.63-15.44,3.9-1.31,4.64-4.65,6.8-8,3.3-3.74-5.25-13.68,2.85-12.49,1.3-3.22,5-1.27,6.79-4.38,1.64-2.58.69-8.89-2.49-9.32.42-1.21,2.41-1.71,2.92-3.24,1.42-2.77-2.3-3.41-3.4-4.15.4-3.23-2.18-5.87,1.54-8,2-1.72,3.35-6.05.87-7.61-.45-1.32,2.7-.63,3-2.57.49-4.13,5.44-1.45,6.68-4.66,2.22-10.37-6.39-4-3.06-9.79,5.17-.34,5.35-1.64,6.68-6.47,1.94.36,7.25.49,7.78-2,2.21-2.93-2.81-5.24-3.72-7.84-1.38-.83.94-7.53-2.86-7.22.46-5.16-5.3-29-9.4-19.39-2.47,1.06-2-2.8-3.41-3.5-1.94-.77-3,3.26-2.85-.45-2.86-1.61.19-6.68-2.41-6.78-1-3.36,2.69-3.55,2.41-6.51-3.32-4.61.75-10.77-4.38-14-4.22-.44-7,1.63-8.43-1.2-5.63.39-11.16.95-16,3.61-5.82-.51-5.66,3.87.2,2.35,3.09-2.61,8.64-.8,11.83-3.39,2.31,0,2.56.44,4,2.19,3.4.84,5.35-2.54,8.22.22.53,1.94.07,3.17,1.2,5.08-2.35,3,.73,3.44,0,6.21-2.9,5.57-.68,12,2,16.42,1.81,4.28,2.34,4.24,4.05,1.65,2,2.49,7.34-2.72,7.23,2.41,1,1.56,2.77,5.67,1.27,6.94,2.6,3.39.76,9.76,4.76,11.45-1.19,5.36,2.08,7.22,3.93,11.12-5.33-.18-7.16-.53-8.53,4.89-.34,2.21-5.3,0-5,3.44-7.21,10.19,3.77,2.61,2.41,9.75-2.83-.21-5.11.43-6,3-.38,3.73-3.57-1.92-4.82,2.41-.87,3.85,1.61,4.4,2.42,6.67-2.42,4-5.85,5.49-4.11,10.06-1.08,1.08.13,3.55,1.25,4.51,2.53,0,1.51.45,1.1,2.12-6.54,1.86,8.06,11-.89,11-.37-3.18-7.18-.1-3.38,2.12-.15,1-4.7-.76-4.17,1.36-2.22,3.37.57,10.27.56,13.28-3.67.08-1.52,6.2-5.82,6.13-3.58,2.08-3.11,5,.55,6.18-1.93,2,1.12,16.24-4.16,7.07-4.74-1-4.32,2-6.34,4.82-2.35.61-3.34-12.38-5.4-10.84-2.2-2.91-6.4-.41-6.54,2.41-.62-2-.82-5.52-2.21-7.23-2.66.43-5.89-.11-5.48-3.39-2.12-5.15-5.26-1.56-4.36,2.8-4.84,2.46-3.57-1.89-2.65-4.68-2.34-2.8.39-9.76-3.51-10.32-2.89,2.24-4.67,1.14-5.68-1.28-3,.55-5.53-1-7.23-2.41-1.94,2.08-2.73,7-6.73,7.7-1.7,2.85-1.08-4.07-.94-5.73-1.74-1.58-4.91-1.8-4.82-4.82-3.88-6.1,1.88-16.77-1.32-22.07,5.89-3.49,12-5,17.31-10.08,1.36-6.56,3.56-2.92,6.69-7,5.57-3.26,4.66,1.47,10.4-5.58,1.74-1.87,0,2.06,1.65,2a6.07,6.07,0,0,0,6.56-3.84c4.68-2.09,4-7.79,7.78-10.62,2.28.22,5.15-1.66,5.69-3.48,2,0,5,.33,5.48-1.94.33-3.46,14.59-12.41,4.72-9-2.29,2.74-5.28,4.52-6.24,7.85-2.6.86-5.84.07-6.68,3.38-6.8.06-7.31,5.69-10,10.46-2.37,1.29-3,2.47-4.59,4.6-2.46-.37-.64-3.24-4.51-2.41-1.81,1.36-4.07,1.75-4.37,4.69-2.1.63-6.57-.68-7.23,2.09-.55,2.2-3.88.81-4.82,2.41-2.56,1.17-.94,4.74-3.17,6.47-1.58.54-4.21,1-5.27,2-.4,1.34-1.26,1.91-2.85,1.65-2.26,2.44-6.77,3.11-9.19,5.58-1.79,1.93.86,4.59,1.75,5.87C45-175.36,46.1-168.21,46-162.28c1.75,2.78,1.82,6.87,5.78,6.79-2.11,2.46-.15,4.3.24,6.46,4.1,3.44,8.59-4.23,10.85-6.46-.62,2.08,4,.92,4.81,1.2-1,3.58,4.22,2.65,6,1.67,2.22,1.28.34,6.37,2.41,8.59a6.69,6.69,0,0,0-1.21,4.64c1.48,4,8.9,1.56,8.2-2.33-.84,6,7.49,2,6.26,7.15,3.12,2.71-.68.55-2,2.86-1.4.65-1.12-1.06-2.1-1.21-1.35.66-3-.5-3.61-1.2-4.86-.74-6.66,3.7-10.18,1.42-1.3,1.45-3.65,1.32-3.84,3.4-2.25-.1-5.38.57-6,2.41a13.87,13.87,0,0,0-12.05,4.82c-8.38-1.7-2.25,7-7.23,9.63-3.3.3-6.37,3.3-8.43,5.58.07.31,1.66,8,2.72,4.82-2.33-10.72,12.83-6.16,9.64-18.51,6.34,2.17,9-7.79,13.7-3.62,2.48-3,9.06-2.51,10.4-6,2.8,0,7.43.24,8.43-2.41,3.21.12,5.31,2.65,8.88,2.41,2-.9.79-1.29,2.41,0,4.21,7.21,7.27,3,5.91-3.62,5.53.24,4.34,21.12,12.37,7.83,1.62-2.69,2.51,5.21,7.47,1.81-.44,6.34,7.73-2.89,11.06,4.6,4.67,3.49,3.71,7.13,2.19,11.51,1.73,2.78,7.06,6.24,3.82,9-3.74,1-12.83,11.67-3.37,12.21,1.56,1.77.06,5.81,3.16,6,.29,1.91,3.74,1.13,4.82,2.42-.54,2.61,1.3,4.63,1.86,6.7-1.29,3.68,0,5.27-3.61,7.46-2.16,2.1,2.42,5.6-.66,8-1,6.58,6.59,6.34,8.44,12.22-2.34,7,13.42,13.79,1.41,12.47-2.08,2.34-2.95-.14-4.82-1.21-3.63-.21-6.34,9.23-.21,7.4-8.29,3.08-.75,8.05,4.06,9.64,3.59,2.11,1,4.12-.44,6.46,2.6,7.68,14.15,5.52,2.72,14.46-1.5-2-3.38-5.08-4.82-6-.11-3.1-1.9-4.91-4.82-4.38.65-4-2.4-1.91-4.19-1.2-2-1.75-4.07-1.15-5.89,0-10.5-10.24-4.92,5-10.62-2.19-1.62-1-3.71-2.86-3.39-5.48-5.92-5.46-7.49,2.66-9.64-9.65-4.28-3.59-10.54,6.81-8.43-3.61-3.17-1.66-6.18-3.07-8-6.78-5.52,1-8.55-6.28-8.88-10.09-6.24-4.9,1-12,0-18.07-4.43-6.3,8.24,0,2.19-9-1.39-1.19-2.84-1.41-4.16-2.63-2-.16-1.38-.59-.44-1.65,2.11-7.34-4.12-13.2-3.62-19.72,3.62-1.06,2.3-8.37,3.62-11.29,2.39-1.08,3.52-6.88.44-3.49-1.63,1.42-1.62,4.35-3.17,5.58.69,3.35-.25,7-2.41,8.44-.5,8.17,6.24,14.55,2.63,22.22,2.12,2,3.75,3.2,6.25,3.84,2.22,2.74.12,2.64-2.09,2.09-4.18,2.52.5,5.14-1.74,8.53,2.07,1.29.76,3.14-1,3.6-.86,2.55-.92,10.8,1.54,12.28,2.54,3.16-2.18,3.13-3.17,5.27-1.06,1.47-4.72,1.69-3.52,4.28-4.39-5.39-2.75.28-8.08,2.19,1.15-4.13-7.27-7.6-7.67-2.86-.89,1-4.54,3.59,0,3.17-1,1.07-1.54,3.62-1.21,5.71-4.61-.66-1.38,3.92-1.2,5.58-.09,1.64-2.72,3.55.13,5.26-1.52,1.4-5.64.26-5,3.62-.7-1-3.17-2.11-3.62-.45,1,2.55-4.82,2.1-4.72.67-.91-2.51-2.8-.08-3.62-1.2a6.41,6.41,0,0,1-7.76-1.43C21.79-13.75,18.32-16.73,13-16c-2,.58.53,3.13-2.41,2.41-1.7.29.08,3-1.52,3.61-1.7-3.44-1.4,2.22-3.3-2.41C-1.69-14.71-4.95-6.67-7.49-10c-2.34-.53-3.65,1-5.13,2.41.16.18-10.44-1-8.88,1.21-2-2.59-6-.27-8.88,0-6.15.45-.9-11.71-11.38-3.39-1.19,2.85,3.89-.38,4.46-1.12.22,1.59,1.73.66,2.54,2-.87,2.93,2.9,5.21,5,5,1.73.31,4.7-4.48,6.63-.91,3.46-1.27,11-.31,14-3.17,0-.71,4.4,2.49,5.58-.45.63,2.92,3.33-.77,2.85-2.41,5.51-1.29,5,2.63,8.88,2.41,3.83.85,2-4.29,4.82-3.61,1.41-.71,0-3.27,2.86-2.41.49,3.06,1.6-1.06,2.63,1a12.45,12.45,0,0,0,7,1.43c.59,2.38,5.34,2.51,8,2.41C38.93-12,34-7,38.29-7.3c1-2.42,6.53.56,5.58-3.62.65,1.28,4.35,2,4.82.45-3.67-2.85,1.77-.47,2.41-2.41,3.4-2.56,2.51-2,0-4.23,4.42,1.61,1.88-6,0-6.17-.51-1.89,2.32,0,2.41-1.65-.26-3.69,1.8-5.9,1.21-9.64,6.57-3.68,1.47,10.87,12,.63.71,1.37,2.85,4.52,3.61,1.34,3.2.11-.89-2.43.44-2.41,2.58-.84,6.78-7,7.9-1.43C80.6-34.56,83-31.62,86-32.6c1.11,3.63,3.48,4.89,6.49,6-1.72,4.56.22,3.12,2.86,6.91-4.25-.23-6.09,0-3.62,4.06-2.32,3.1,2.49,5.48-2.86,9.2-2.53,1.84,3,6.24-.76,8,1.6,5-.33,2.34-3.74,1.65-1.86-2.85-5.65-.42-7.23,0-3-4.78-8.71-.74-11.47,2.41-3.67-.1-2.12,5-4.5,6-2.59,2.6,3.25.68-2.95,3.84-2,1.95-5-.1-5.8,3.39-2.93.27-11,3-8.12,6.34C46,24,47,21.77,49.67,21.39c1-.87,2.26,1,3.08-1,2.91-3.06,7.5-3.09,10.4-5.58-.16-2.18-.12-2.32,1.21-3.61,0-2.11-.06-2.43,1.2-3.62,3-2.74,7.74-7.32,11.29-2.85,2.68.6,3.23-1.68,5.71-1.21,1.73,2.72,11.78,4.1,7.1-1.07C93.28-.64,87.77-5.3,93.27-9.27c0-3.19-.51-6.34.13-8.88,2.2,3.21,4-3.27,8-3.14,2.28,4,1.59,8.24,8.88,6.76,1.55,2.42,1.32,7.11,4.82,7.23,2.58,5.63,4.67.72,6.78-1.21-.84,3.45,2.54,1.55,3.84,3.4,1.61,1.05,2.62-.93,4-1,6,3.41,3-2.26,7.41,3.62,5.2-1-.32,2.06,2.41,3.61,5.81.65,4.84,9.61,11.6,10.71.45,1.79-1.79,5.14,2.1,5.87-.16,2.72,3.58.66,4.37,2.7,3,1.4,1,5,.44,7.67,2.66,2.31,2.51,9,7.47,6.37,2.45-2.59,2.17-8.05,1.41-10.43,3,2.71,3.05,6.91,4.38,10.09,2.13,1,2.66,3.07,4.37,4.37,2.72,1.87,6.43.26,8.88,1.65a8.09,8.09,0,0,0,4.82,2A11.83,11.83,0,0,0,192,46.69c13.58.28,7.78,6.79,24.32,3.84,3.36,2,3.93,5.08,7,7,3.87-2.26,8.52,0,12.76-2.19,2.57-.68,3.28,2.27,3.88,4.06.21,1.36,1.9.29,2.41,1.52-.12.44,0,1.78.76,1.65,7.78-1.08,11.92,7.27,18.07,7.23,9.47-8.92,5.83-2.62,13.93-2.63,5.14,2.88,12.07,4.54,15,9.86,4.51.65,10.85-3,5-7,1.94-3.64,3.81,2.21,3.93,4.12,1.5,6.69,11.8,32,15.35,13.06-2.5-6.32,3.6,4.74,3.85,7.2.52,5.24,3.77,11.3,8.43,12.69-.83,2.64,1.78,3.91,1.21,6.34-1.92,2.75-.7,5.54,2,6.91,5.28,1.15,2.62-5.2,6.34-7.23,7.4.69-3.49,7.45-1.07,11.73-2.69-.37-3.75.59-5.58,2.41-.6-6.74-4.77.44-9.77-1.2-4-7.27-5,2.64-7.23-.76-.29-3.69-5.53-5.64-6.34-1.65-2.64.79-2.68-3.29-5.71-2.41-.18-1.11.42-2.62-1.21-2.41,2.61-2.37-.34-2.27-2-3.62-3.92-.5-2.37,5.34-6,4.83-1.3,2.27-2.59-1.3-2.86-2.86-.82-1.36-3.61-.29-4.37-2-2.53.78-10.41-4.35-11.61-1.2-1.27-1.41-1.1-3-3.74-2.41-.92-5.39-2.71-5-8-4.82.6-2.88-1.72-2.63-3.67-2.22-1.14,1.94-.81.09-1.91-.19-1.63,1-3.19-1.57-4.15-1-2.38,2.22-6.41-.06-8.34,2.19-1.87-3.23-.44-7.26-3.62-8.88-1.81-3-4.84,2.11-6.24.67-2.54.09-3.75-.91-3.62-3.62-1.33-1.83-2.44-3.07-2.18-5.49-5-4.13-3.11-4.06-10.58-.75,0-.93-.51-3.26-2.68-2.41-.43-1.75-2.21-2.63-4-3.54-3.38.09,3.11,4.27,3.27,5.06,3.07-.6.46,1.78,2.41,2.41,1.72-.7,6.49-.55,6.79-2.41,1.93-.53-.05,2.32,1.65,2.41,3.42-.89.24,3,2.41,3.61,2.42,1,.75,4.91,2.41,6,3.88.68,6.1.3,9.63,0,1.47.07-.81,4,1.65,3.62-.71,2.87,3.75,7.35,5.14,3.61,2,1.86,2.43-.15,5.26,0,3.54-.69,6.11,2.75,8.88,0-1.42,4,5.49,1.9,7.23,2.41-1,4.79,3.15,4.21,5,7,2,.52,6.91-1,9,1.43,2.61-.5,3.65,1.87,6.47,1.2.26.77-.49,2.35.76,2.41,2,3.94,5.1,1.85,7.23,0,1-.81,2.24-6,2.86-2-.52,2,1.71,1.7,1.2,3.62.23,1.59,3.06,0,3.61,1.52.44,5.41,8.24-3,8.44,2.09,4.44,9.09,4.09-3.71,7.23,1.21,1.17,2,9,.45,9.63-.45-.65,2.83,2.08,3.18,3.49,1.21,1.17-.5,4.16,1,4.06-1.15,6.9,10.35,12.71,2.65,20.17,6-.32,4.13-7.8,6.41-1.21,11.6,1.05,1.37.44,5.41,2.85,5.27,2.38,3.4,0,5.7-1.65,7.67-.11,5.1-6.77,3.92-9.74,6.62-3.36.52-4-3-7.2-3.55-.83,2.9-5,1.5-6.5,3.11A5.09,5.09,0,0,1,328.1,166c-1.46.62-1.58,2.85-3.61,2.41-5.07,8-14.56-.13-21.69,1.21-4,3.73,3.18,3.23,5.82,2.57,1.22,2.61,8.19,2.41,11.6,2.41,1.62-1.66,4.42-.57,5-3,.25-1,3-1.12,3-2.88,2.17-.49,4.53-1.08,5.47-3.14,0-1.31,3.2,0,3.72-1.81,3.3-.63,4.29,4.11,8.66,2.19,2.39-1.85,6.33-.85,7.9-3.39,4.37-1.26,2.89-4.16,4.81-4.82,5.45-.28.56-6,1.42-9-.63-1.73-4.53-2.91-1.17-4.25,4.47-1.37,9.92-5,13.68-1.39,4.13.12,9.23-3.3,12.81-5.8,9.63-.73,18.16,3,26.1,6,7.8,2.18,2.48,13.63,7.93,18.86,3.62,7.76,13.16-3.87,15.81,2.61,4.2,5.56,7.43,11.47,12,15.66,3.68,1.14,5.38,7.93,9.86,8.66,5,3.68,8.22,8.92,14.45,10.84,3.6,5.26-6.35,8.54-5,13,3.42,3.32,5.67,4.13,6.56,8.65,1.41-.44,1.65,1.28,1.88,2.19,2.72,1.8,2.1,3.8,1,6.13-2.43,7.12-7.11,0-9,4.64C466,237,466,241.68,463.49,244c-3.35,6.06,7.09,1.69,3,7.59-9.11-1.89-4.5,14.47,2.85,12.21,5.86,9.9-9.76,15.25-17.28,19.12-4.78.05-9.63,2.81-14.28,3.61-2,1.95-14.94-1.2-18.25,0,2.58-3.64-.17-10.61,4.8-13.23,2.34-1.1,4,.85,5.88-2.28,3-.55,5.47.36,8.66-.22,2.59-3.17,9.19-8.63,6.56-12.58,1.14-1.76,3.53-2.47,3.3-4.83,1.84-2.36,1.73-8.45,2.41-11.73,6.59.9,2.84-7.24-1.2-7.54-5.54-7.76,7.57-12.82-8.88-12.81-6.24-2.84-5.7-5.46-8.21-10.62a36.89,36.89,0,0,0-9.42-6.69c-.73-.64-2.21-4.71-2.41-6-1.36-3.3-4.74-.55-1.52.77.58,3.71,1.46,6.51,5.09,8.25h0c3.52,2.39,8.35,4,8.39,9.59,2.56,2,2.46,5.78,6.24,5,.77,1.59,3,1.18,4.38,1.21-.38,1.45,1.7,1.45,2.5,1,3.35-2,.66,5.12,0,7a6.86,6.86,0,0,0,4.76,5.74c-.9,2.88,4,1.08,2,3.74-4.34-2.83-4.42,8.1-4.37,11.16-1.22,1.16-6.54,2.22-3.36-.15-.38-2.25-3.28-2.63-3.78-4.45-3.24-1.79-2.34-10.87-7-6.12.21-1.2-1-1.16-1.2-1.77-1.85-2.38-2.48.61-3.61,1.65,0-1.78-2.73-1.41-3.62-2.41.7-3.51-2.8-1.68-4.37-3.62-1.29-2.71-2.78,1.22-4.06-.44-3.92-2-5.5-6.51-4.82-12.05.17-1.95-1.41-2.34-2.41-4.06,3.17-.8,0-5.74-.22-7.32-1.58-1.72-1.58-4.37-4.6-3.84-.34-1.18.72-3.08-.76-3.61-4.11,1.74-4.26.92-7.68-1.21-.89-4.06-7-2.07-7.22-6.47-1.81-1.67-4.25-2.09-7.23-2,.08-1.45-1.28-1.14-1.68-2.36-.71-.66-2,2.08-1.94.71-1.48-1.83-2.87-3.7-6-3.17,1.21-3.6-4.21-2.16-6-2.41-1.09-4.68-5.42-1-7.22.14-.57-1.83-2.3-5-2.41-6.61-1.36-2.88-2.5,3.08-.76,3.17.69.92,1.85,9.59,4.37,4.82,2.45.86,3.16-3.07,4.5-1.65-1,2.88,4.9,1.24,6,1.65-.79,3.17,4.24,1.92,6.78,6,3.88-.26,5.95,2.79,10.09,2.41.27,2.58,2.19,3.37,3.61,4.06,3.84.81,5.85,6.44,10.84,5.44.43,2.3,3.13,2.75,4.82,3.76,1,1.36.67,4.64,2.41,4.82-2.46,5.28,1.29,6.44,1.21,11.73-3.15.53.18,3.57,1.2,4.69.75,1.57.88,4.71,3.62,4.06,0,2.34,3.88.7,5.26,1.2,1.47,3,3.17,2.39,5.14,4.82,4.87,3,6.4-2.72,6.46,1.65,1.43,2.72,2.8-.86,3.62-1.65.64,3.23,3.11,8.34,6.17,9.64-1.57,7.74,2.51,2.26,2.26,5.26-.92,2.19-1.3,2.42,0,4.51-2.14,2.73-3.83,6.78-6.78,9.19-2.59,1-4.36-2.58-6,0-2.47-1-3.79,2.75-5.17,1.43-7.9.09-6.38,9.29-8.52,13.79-.77,3.14.48-.86.09-1.74-4-8.38-14.11-2.36-13-12.72-1-3.2-6-5.43-2.63-9.1.26-3-2-5.55-1-9-1.66-2.62.26-8.41-3.62-8,2.36-7.27-.35.85-2-8.43-3.09.84-6-8.82-6.79-4.82-1.1-.71-3.44-4-3.61-1.26-.59-2.93-4.84-2.83-7-3.34-1.18,1.75-2.31-5.12-6.38-3.83-1.85-1.47-1-5.16-3.93-4.83-1,.23-.06-1.78-.66-2.18-2-1.08-.56-2.2.22-3.08-.54-3.29,1.23-7.8-3.17-6.78-4.79,1.22-3.54-3.51-8.12-2.41-1.49-3.13-.26-6.71-3.93-8.44-3.55-4.13-2.63,3.76-6-3.61-4.65,1.8-5.18-4.59-9-3.39-1.93,3.18-.5-3.83-2.64-.67-.68,5.57,2.85,1.7,5.27,3.17.79,2.8,2.94,2.53,5.58,2.41-.58,3.72,3,3.65,5.58,3.61,1.68,1.37,3.5,3.27,2.85,6.47,1.39,2.15,3.1,2.89,4.38,4.38,12.45.1,4.64,3.4,7.67,11.28,0,1.16,1.68.67,2.41.77-.44,3,2.85,4,4.08,6,4-2.5,1.74,4.33,5.11,3.67,2.4-1.76,5.7.38,7.23,2.41,4.46,0,5.72,4,9.1,5.8,2.66,3.88,1.06,10.64,5.8,14.24-.8-.63-1.94,4.7,0,4.06.24.66-2.84,2.8-.44,3.62,2.62.35-1.86,7.41,1.65,8.43,2.91,2.39,1.36,8.19,4.82,10.08,1.79,2.63,7.31,1.1,8.43,3.61,6.51,4.78-4.77,8.81-7.13,5.49-2.21-1.4.29-7.14-2.19-7.89-1.66-1.32-3.85-5.81-4.91-5.36-1.16,2.74-3.76-2.34-3.84,1.13-1.83-1.65-7.31-.16-6.91-3.45,3.38-.28-1.36-6.24-1.21-7.23,2.48,0,1-4-1.2-2.58.15-2-.43-5.8-2.41-6.17-.42-3.59-3.61-7.09-6-8.43,2.63-2.3-.35-6.91-2-8.43-.76-1.5-.67-5.08-3.62-6-2.72-1-6-3-6.93-6-.77-.43-1.38,1-1.94,1.14.38-2.27-1.38-3-2.64-4.59-5,1.46-9.46-4.76-13.34-1.88-.47,1.46-2.18-2.78-4.06-2-.56-1.07-3-1.06-2.86-2.85-1.24-1.1-4.16-1.69-6-2-1.36-2.09-5.19-3.66-8.43-3.62-.88-3.15-4.76-4.1-8.44-3.61.34-1.61-.47-3-2.41-2.41,0-4.88,1.2-13.14-5.58-13.25-3.07,1.93-1.83,3.42.89,1.52a21.11,21.11,0,0,1,3.17,3.17c1,3.24-2.18,5.54,0,7.23-1.13,3.93,2.93,1.64,2.41,4.5,1.35,1.44,6,.38,7.23,2,.53,3.05,4.9,2,7.23,3.61.56,1.5,3.31,2.5,5.26,2.41a29,29,0,0,1,6.34,4.82c1.54.26,7,7.17,6.79,1.2,2.61-.35,2.93.84,4.06,2.42.47.84,7.72-1,7.67.75.46,1.29,1,3.08,2,4.06,2.69-.58.73,1.64,2.41,2.41,3.58-1.06,3.23,3.15,6.92,2.41a23.16,23.16,0,0,1,2,5.27c1.23,1.48,3,2.12,2.41,4.82,1.67,1.53-.22,1.24,0,3.61,2,2,3.59,3.81,6,6.34.43,3.24,3,5.87,2.7,9.93-.9.81,1.13,2.79,2.12,2.56.16,2.27-.3,4.88.22,7,2.57,2.15,6.59,1.73,9.26,3.78,1.19-2.79,2.27,0,4.21.06,2.84,1.85,6.32,13.15,1.84,14.37-2.42,3.16-5-4.12-4.38-6.7.08-1.36-4.61-1.2-3.93.44-2-2.12-3.27-3-4.82-.44.43,4.75-3.61-1.84-4.81,1.2-1.37,2.32-.8-2.81-.89-3.3,3.66-3.29-1.61-5.44-4.82-4.68.46-2.34-1-2.13-2.41-3.17.33-1.66-1.08-1.83-2.41-1.65-.44-.43.74-3.87-.76-3.62-4.05,1.79-4.12-3-4.06-6.47-2.58-1.81-7.61.09-10.08-2-1.56-4.75-6.18-3.31-9.42-5.8-3.28-.81-1.71-6.71-5.8-6.25.42-1.78-.87-2.3-1.43-3.39-1.32-1.07-1.12-3.89-3.39-3.84-.47-2.29-7.53-1-8.53-2.19-1.81,1.43-3.71,2.62-6.37,2.19-2-2.7-6.86.19-8.75-2.41-3.2.62-5.89,3.58-8.44,5.71-4.23-.94-1.73-3.41-3.61-5.71-3.89-.64.38,3.19-.76,5.58.38,1.5,3.2.06,3.84,1.74,2.11.35,3.55-1.84,4.46-3.39,1.29-.34,4-.94,4.06-2.41,1.86,5.24,5.34-1.31,8.88,2.41,8.81-.48,15.75-4.61,18.52,6.47.56,1.57,3.14-.23,2.41,2.41,1.34.81.75,2.33,2,3.17,3,2.54,3.69,4.3,8.88,3.61,1.41,4.31,8.89,6.54,12.05,4.82a9.64,9.64,0,0,0,2.63,8.21c2.29.17,2.35-1.86,2.19,1.88a11.85,11.85,0,0,1,5.58,5.58c6.69-1,3.59,2.83,4.06,7.67,1.49,1.17,7.24,1.43,8.75,0-.61-2.07,1.37-2.3,2.31-.67,3,0,2.68,2,4.15,3.84,1.35,0-.52,3.17,2,2.41-.17,5.29-13.11,8.3-15,15.6-16.84,6-30.38,20.82-38.83,36.47-5.13,13.83-9,7.45-12.57-1.63-2.08-1.43-2.28-8.07-2.31-11.89,1.74-.95,3.65-1.41,4.82-3.17.34-2.36-3.1-4-1.42-5.48.21-3-5.28-2.29-6.56-4.92-3.66,0-3.61-5.56-1.65-7.67.25-2-1.94-2.41-1.21-4.82-3-2.71-.74,9.37-1.52,12.05,1.29,1.19,3.31,1.74,4.37,3.17,1.46.63,3.81,1,4.36,2.25-1.12,2.07,1.19,2.8,1.21,4.82-.67,1.63-3.23,1.06-3.92,3-.46,10.68.65,20.15,10.46,25.58-3,8.21-7.65,3.07-13.55,1.53-2.78-3.11.34-3.63,1.65-6.47.28-2.15-3.13-5.9-4.82-3.17.69-5.22-4-6.14-6.1-9.22-4.5-6.08-1.72-9.49-11.64-8.91,6-4.69,2.29-6.32-.33-10.67,2.09-2.57,2.56-6.58,5.37-9.15,1.4-1.46-1.46-3.66-.55-5.87-1.19-2.16-4.91-2.63-2.49-5.68.32-6-7.05-14.93-9.85-7,1.56-5.72,4.41-6.48-1-9.9,3.17-5,3-7.92-.68-11.95-1.94-3.82-6-6.59-7.68-10.08-2.36-.88-2.79-3.28-2.4-6-.68-1.06-1.59-2.15-1.21-3.62-1.8-2.13-10.45-4.16-9.17-7-.49-3.92,4.88-3.11,4.9-6.36-2.08-3.81-4-7-7.45-10.18-3.15-.28,1.87-3.25-.54-3.84-3.07.85-4-2.51-6-3.61-2.24,1-2.75-1.43-4.5-1.21-3.23-3.94-3-9.08-7-13-4.14-.57-6.66-1-3.47-5.14-2.12-3.06,0-6.39-1.13-10,1.24-3.24-2.54-8.31,0-9.64.35-1.47,0-4.1-2.41-3.17a3.15,3.15,0,0,0-2.41-2.41c.59-5.27-3.44-8.77-4.37-13.25-3.11.68-.24-2.18,0-3.3,3.21-3.81-3.29-8.34-3.32-12.31-3.13,2.14-5.61-.72-8-3.22-.18-4.34-3-5.92-4.82-9.64-.17-1.29,2.77-2.64,0-2.86,0-.46.33-2.59-.76-2.41-2.46.91-2.17-2.93-3.61-3.61-.81-1.6-9.69-2.1-7.23.31,3.54,0,5.67.6,7.67,3.17-.3,2.1,1.06,1.51,2.41,1.65.29,1.95-.77,4.26,1.21,5.58-.29,2.07.67,3.69,2.41,4.06,0,2.85,2.76,6.06,4.37,8.44,3.24.3,6.12,1.26,6.69,4.59,3.95,2.67,1.38,5.61-.22,7.9,0,2.44-.24,3.4,2.41,3.17-.22,1.67,1.51,8.13,2.85,7.23,1.34,1.64,1.35,4.29-.89,2.09-2.41,0-3.84,2.5-6,0-4.78-.29,2-6.21-2.41-9.64-.67-3.9-6.47-6.79-10.08-3.61.92-4.11-1.17-8.66-3.17-10.84-.86.1-.15-1.24-1.21-1.21-.21-.08-2.15.35-1.65-.44-1-1.07-2.43-1.18-3.61-2-.19-2.36-3.26-1.86-4.09-3.56-2,1.06-3.64-1.19-5.42,1.15-5.53-.42-12.06,1.65-15.89,3.84-1.89,2.82-2.29-1.07-4.72-.22,1.34-3.7-6.65-5.24-7.55-2.42-2.32,1.25-2.53-3.09-4.59-2.18.79,7.8,7.32.27,10.62,3.71-.06,2.38.27,2.43,2.41,2.41.26.91-.5,2.25.76,2.41,2,.76,1.54-1.33,2.94-1.43.67-1.21,2.85-.56,2.64-2.19,2.52,2.45,2.58-1,5.8-1.43,2-1.81,9.46-1,11-1.2,4-.37,5,3.48,8.21,4.28,9.44,3.93,2.71,13.94,9.19,12.81,4.11-4,5.23,1.93,7.68,3.61.43,2.36,0,5.37,0,8.88a13.5,13.5,0,0,0,6.78,2c2-1.43,2.06-.85,4.06,0,0,1.45,2,1.92,2.41,2.85,0,1.61,3-.19,2.41,1.65-3.47,2.24,1.68,9.52,0,14,1.75,10.12-4.6,9.42,2,12.81,7.68-1.12,5.22,10,10.3,13,1.53,1.79,3.9.92,5.36,2.63,2.28-.32,1.18,3.55,4.2,2.41-.21,1.37-.72,4.15,1.51,3.62,1.21.57.22,2.72,2,2.41,7.75,8.51.91,4.72,0,12.31-1.2,2.48-5.21-1.86-6.26-1.49,1.16-3.83-5.54-5-7.54-3-.75,2.26-1,3.13-3.95,2.7,0-3-2.47-4.25-3.62-6.79-.74-4.16-4.92-6.85-9.19-6.47-2.18,2.82-5.15-1.47-7.68-3.17-1.83-3.12-1.75-7.76-3.16-11.28-3.12,6.72,2.17,14,7.89,17,5.06.82,3.92-3.05,9.42,1.87,2.29,2.63,1.53,6.32,4.82,7.54-1.46,4.79,4.38,1.49,4.27,3.54-2.23.33-2.89,2-4.51,2.77-2.12-4.32-5.82-1.34-8.43-7.68-10.18-4.76-7.18,1.31-14.46.45-.73-4.45-4.67-.82-7.23-1.2-1.51-2.88-4.86.55-3.61-5.27-4.43-2.83,2-7.35-4.06-6.78-1.05-5.8-8.25-1.62-8-5.27-14.37-1.93-4.71-3.21-11.13-13.85,7.29.87,2.29-8.53.73-11-2.93.2-3.34-3.19-4.82-4.82-1.53.13-3.41.6-2.85-1.65.32-2.47,4.56-2.25,5.36-5,1.73-2.9,4.1-6.42,1.86-8.91.14-1.73,5.71-5.43,2.41-6.15.64-2.25-1.12-3.42-1.2-5.26-4.33-2.74-8.57-5.46-13.25-3.17-2.33-2.57-10.55-2.51-14.56-2.19-1.29,2.64-.88-1.32-2.41,0-1,2.29-.85-.25-1.87-.22-2-.74-9.58-2.65-10.4-1.34-1.84-1.32-.17-5.16-2.85-5.89-2.1-1.28-.08-2.73,1.31-4.21,3.8-4.52-5.88-9.83-1.52-2.1-7.41,9-.84,5.57.23,13.47.63,2.11,7.08,1.35,8.65,1.43,2.38,1.83,4.93,3,8.08,2.19,5.56-3.36,12.09,2,17.54,1.43,6.19-.66,8.13,1.81,10.08,6.78-8.2,13,1.81,5.37-4.17,13.41-1.1,2.11-4,1.7-5.26.13-2.52.93-3.43-1.48-4.82-2.41-3.21-.93-5.62,2.94-7.9.22-1.88-.57-3.15-1.8-5.35-1.43-2,1.66-1.45,3,1.44,2.58,10.28,8.44,5.23-1.75,11.6,2.4.08,1.82,3.75,1,4.58,2.42-2.46,2.77,1.49,8.68,5.06,8.43,0,2.79,4.2,1.35,3.61,4.06,3.64,3.37-.74,4.29-2.35,6.94,1.2,2.58,1.29,4.75,3.56,6.63-1,3.06-.93,6.87,2,8.87,5.95-1.15,6.8,3.41,12.5,2.42.35,1.39,2.61,4,4.49,3.67-2.78,2.92,1.73,4.21,1.53,6.9-3.26,3.57,2,3.38,3.62,4.33,1.56,3,5.95-1.59,7.22.31-.68,2.54,2.81,1.4,4.07,1.65,2.7,4.29,7.84,5,6.32-1.14-3.05-3,2.24.91,4.07-.06.88,2.39,3.84,6.33,7.68,6,2.42,6.57,10.34-1.9,10.4-6,.16,3.49,2.17-1.46,2.4.44,2,1.54.16,5.26,4.26,4.38,5.67,1.45,8.43,5.39,13.82,7.23.35,2.23,1.5,5.67,1.42,8.2,1.35,1.78,3.68,2,3.4,4.29,3.89,3.36,7.6,7.81,9.08,12.2,0,2.93-4.89,6.46-2.3,7.84,6,1.06.84,5.6.44,8.87,5.43,6,5.81-8.22,9.87,2.95,2.62,1.73-.6,4.48-.23,6.69,5.47,3.81,3.94,8.19.21,13.85-3.46,2.21,0,7.64,2.2,9-.27,2.13-3.33,1.54-3.61,3.62-.85,7,4.77,1.12,8,4.37,2.23-.59,1.55,2.91,1.65,4.06.79,1.47,3.3,3.33,3.69,5.16a5.47,5.47,0,0,1,4.61,6.36c-3,2.45-4.63-.89-8.09-.08-1.54,1.5-3.56,7.78-1.42,9.54-2.65-.35-4.2,2.61-5.81.1-4.89-.06-7.63,2.26-10,6-.24-2.14-5.32-1.56-6.24.22-1.63,3-3.25,6.06-6.69,3.39-2.11.91-5.94.68-7.12,2.41-1.78-.87-1-2.34.44-3.45,2.2-.94,1-5.87,3.61-6,2.84-1.27.77-5.89.54-7.45.59-2.87,3.54-7.12.66-9.35-1.13-.87,3.72-4.33.45-5,1.77-1.84.76-3.81-1-4.82-1.87-2.17,3.26-1.4-1.1-6.71,2.67-3.11-2.13-7.9-.78-10.07,1-2.38-3.22-.11-2.18-2.95-7.64-9.54-3.25,5.95-9.2-6.78-7.86,1.44-5-4.68-11.29-4.82-.05-4.32-8.65,5.64-8.43,3.17-1.58-2-2.12-6.52-2.41-9.64-2.45-2.12-3.53-5.45-1.2-8.43-.21-2-1.14-5-3.62-4.38a8.18,8.18,0,0,0-2-4.82c-2.4-7.71,7.05-16-9.33-14.45-2.17-3.15-4.25,1.75-1,2.57,2.91.34,9.94-1.19,8.87,3.49-2.47,1.35-2.28,9.89,0,11-.55,2.27,1.56,2.12,1.21,4.06,1,1.22,2.68.75,3.61,2.72-1.74,2.42-2.41,8.89,1.21,9.64,2,22.48,7.83,5,13.25,8.12,4.2,1.32,1.08,3.06,3.17,5.58,2.11-.35,3.71-1.81,6.47-1.21-.13,2.94,3.67,9.2,6.34,4.06,1.21-.9.41,2.6,2.09,2-.38,4,6,7.4,2.64,12,1.6,4.81.22.35-1.43,4.15-.83,5.06,6.34,2.44,3.06,9.8-1.48,1.44-.25,3.35,1.28,4.5-1.16,1-.28,4.61-1.06,5.8-2.55,3.54,2.34,4.24-1.43,6.88-1,.07-.55,1.82-.65,2.43-1.35-.05-2,.8-2.41,1.92-.42,1.28-3.4,0-3.61,2.41-.32,2.55-10,4.39-11.08,2.56-3.5-3.38-6.64,3.64-10.4,2.85-2.48,2.92-2.69,2.37-6,1.21-7.75-1.31-16.28,7.07-13.92-5.8-2.56-1.16-2.33-5.63-2.19-7.9-1.63-1.1-2.84-1.93-2.62-4.21,5.42-3.91,1.92-7-3-8.6,1-2,.26-6.67-3.51-6.17-4.7-5.28,1.64-2.17-3.61-6.79-.32-3.06-6-.78-4.82-5.71,1.09-3.16-2.84-3.78-2.41-6.46,4.81-5.36-4.07-.72-6-.32-4.69-3.14.52-11.64-9.64-9.64-.5-3.6,1.42-6.76,1.2-10.08-3.22-1.36-3.23-5.82-3.62-9.64-2.49-1.58-.2-3.64,0-6-1.49-.81-.56-3.46-2.86-3.16-.71-2.24-6.65-4.94-5.67-2.32,1.71,1.86,3.5,1.3,4.82,3.61,1.9,0,0,2.89,2.19,2.64-2.83,2.86-.07,8.12.75,10.84,1.4.67-1.1,6.16,2.86,4.82-.81-.95-2.47,16.33.32,10.84,6.1-1.24,5.9,2.91,5.7,7.68,1.43,1.19,5.18,3.43,7.1.76,2.45-.1.25,3.74,3.75,4.37-3,.75.23,4.41,1.2,6-.77,2.89,3.35.76,3.62,2.1,1.88,2.49.76,5.87,3.61,7.23,7,2.3-2.79,8.15,7.23,9.19,2.08,2.72-2.87,2.87-2.41,6.47,1.42,1,1,4.17,3.62,4.38.06,2.46-.49,6.66,2.41,8-4.32,12.28,8.68,6.3,15.21,6.47,1.82,1.82,7.12,3.62,7.44-1.2,4.26.58,5.78-.66,6.9-3.62,5.12,4.54,3.65-.53,9.76,2.41,1.43-2.38,2.43-1.86,4.38-3.16,1-.33,2.43-4.22,2.09-1.93-2.77,2.6-.14,5.8,3.17,5.09,1.42-.84,6.4-3.71,7.67-1.07-.88.53-2,2.46,0,2.28a7.71,7.71,0,0,0-4.55,5.8c1.35,1,1,1.36-.12.13-1.15-.55-1.8,1.07-2.51,1.74-.53,1.77,1.29,1.67,1.21,2.86-2.8-.64-3.44,2.88-3.62,4.81-5.47-.89-7.06,1.63-9.64,4.82-2,.71-4.49,3.63-4.59,6.12,2.44,1.49-.16,2.09-.23,3.52-3,4.56-3,.6-6.78,3.61a4.65,4.65,0,0,1-4.95-5.26c-.87-2-3.54-.28-2.72,1.65-1.12-.89-3.39,1.72-3.3.76-.81-2.33-1.46,1-2.41.45.3-2.13-2.33-.73-3.17-1.21-.83-1.28-3.09-2-2.86-4.06-1.69-1.35-3.69-2-5-4.15-2.12,0-1.79-1.73-2.94-2.63-2.38.09-4.62-1.32-6-2.41.95-1.2.83-6.67-2.85-6-1.2-3.73,2.94-8.6,1.65-10.84-1-6.74-9.28-2.77-10.09-6.47-6.08-2.07-2.38-1.27-4.37-6.47,4.26-2.15-1.47-5.78-1.65-9.19-2-1,1.75-3.95-.76-5.58-1.09-3.27-3.67,1.43-.76,1.52.63,1.24-1,1.92-1.21,2.86-.3,2,1.43,2.42,2.41,3.92-.5,2.32,1.35,2.67,1.21,4.51-2.58,1.72-.49,7,.76,9.19,2.55-.56,2.78.71,4.28,2.19,5.41,0,9.11,2,8.21,7.58-5.25,10.92,4.66,5.85,1.21,13.57,2.17,2.87,6.7,2.3,9.19,5.58a1.36,1.36,0,0,1,1.65,1.65c.09,1.32,2.22.39,2.63,1.74,1.5.65,1.06,3.15,3,3.84,1.31.81,2,3.79,4.06,1.2.95,3.34,6.21-.39,8.43-.14.06,2.08,2.29,2.09,3.62,3.31-.13,3.12,2.68,1.05,3.7.22,1.42-3,4.32,2.78,5.05-1,2.07.45.47-2.42,1.65-2.41,1.59-.72,3.16-3.89,1.07-5.58,1.85-4.42,1.53-.28,3.3-2.41,1.2-3.69,5.12-7.35,10.08-6.47.93-.47.89-1.25,1.91-1.67.34-1-1.58-1.36-.16-2.16,2.78.08,2.75-4.09,5-5.36.08-2.53.56-5.3,3.19-6.55a16.63,16.63,0,0,1,3.81-6.16c2.41-7.13,6.19,1,9.64-4.83.76-1.39,4.74-4.19,5.93-2.94,2.36,2.61,13-2.21,8.2-6.19,2.49-6.29.9-2.29,6.16-2.77,7.79-4.35-.62,6.77,12.67,9.68,9.39-.61-2.82,12.91-2.88,15.88-2.44,14.87-20.36,21.45-27.76,32.89-2.3,18.21,23.23,21.35,24.1,37.08-6.24,9.24-9,20.27-10.82,31.3-6.58,9.2,2,27.26-2.23,26.1-3.11,1.53-7.88,2.39-9.4,5.87-2.78-.08-5-.62-6,2.41.58-2.39-2.47-3.61-2.86-1.2-1.15-2.69-6.38-3.24-3.3-5.27,1.62-5.18-5.48-8.58-8.75-6,.62,2-1.25,1.73-2.85,1.65-1.35,1.58-4,1.28-6,2.41-1.63.35,0,3-1.52,3.61-2.12,0-1.87,2.3-2.85,3.62-2.05,1-4.39,1.42-3.61,4.81-2.11-3.18-3.34-2.15-5.27-.31-5.07-2.36-10.08,2.06-15.66.31-4.49,7-8.06-.66-11.61,4.38-.3,1-5.31,3-2.85,4.38,2.79-1.74,4.54-4.14,6.91-4.83,4.23,4.81,7.75-4.59,10.62-1.42A48.49,48.49,0,0,0,258.46,518c2.82,2.83,4.26-.22,7.54,1.21,1.3.18.6-3,.76-3.62,1.9.22,2.76-.75,3.62-2,1.44-.74.79-2.11,1.65-2.86,2.39-.68,1.25-3.37,3-3.84.72-2.2,5.23.42,5-2.18,1.37-.63.48,1.3,1.65,1.2,2.6.45,1.38-2.34,4.37-3.17,9.34,2.37-6.38,6.39,11.29,12.81,3.91-3.48.81-1.91,4.82-1.2,2.16-1.77,11.77-10.18,13.45-3.78-4.43,1.07-9.94,5-13.56,5.58-1.06,3.72-.23,6.22-5.92,5.11-1.05,1.87-2.68-1.4-3.09,1.1,1.19,3-.85,5.6-3.69,6.89-.84,3.1,2,3.17,3.62,5.13-.45,2.69,3.28,7.31.31,8.57-.55-3.3-4.3.28-6,0-1.32-4-4,1.39-4.38,2.4-1.91,2.7-3.82-1.65-5.58.76-.75,1.6-6.87,3.83-3.61,6.47-7.81-1.48-13.57,8.19-14.46,14.46-2.56.73-2.69,4-3.62,6.47-3,2.05-1.71,5.49-4.81,6.34-.7,3.49,2.85.77,3.93,0-1-4.3,4-6.06,3.61-10.08,2.69-.23,1.88-3.6,2.85-4.82,1.83-2.29,2.78-4.77,4.38-6.79-.11-2.17,3.14-1.79,3.61-3.61-.24-1.34,6.25.61,6-1.21.57-1.39-2.05-3.08.44-2.85,2.48-4,4.71.51,7.55-3.61,2.45.33,1-1.94,2.09-2.42a64.64,64.64,0,0,1,9.64,0c4.53-3,0-3.47,1.2-4.82,2.82-.93-7.79-11.31-2.4-10.85,2-4.15,3.27-6.82,9.64-6,3.14-10.64,15.88-10.42,26.35-6,10.58,1.43,12.23,19.1,20,26.18,11.56,13.9-7.34,9.59-15.75,13.45-2.32,1.33-4.18,3.94-5.86,4.8-3.39-.67-4.06,2.38-6.07,3.78-.9-3-3.82-.89-3.88,1-.16-.4-1.48-3.24-2.63-2.18-4.58,3.41-6.69,8-3.39,11.82-10.25,1.18-2.17,14.3-11.74,12.05-4.63.27-3.9,2.27-8.43,0-.68,1.71-5.5,1.14-7.23,1.2-1.39,1.48-2.61,1.32-4.06-.76,1.05-4.7-4.09-4.65-4.82-8.12-2.27-1.3.19-6.2-4-6.7-2.35-.07-1.82,3.27.65,3.4-.13,1.2,0,5.73,1.43,6.09,4.36,2.34,3.77,7.4,7.77,9.87,2.5.3,3.11-1.26,5.26-1.21.26,2.39,1.44.17,2.41,0,0,2.55,5.09,1.24,5.46,0,1.09.78,2.42,1.79,3.29-.85,1.16-1.59.56,1.12,1.65.84,2.33.24,3.89-2.23,6-2.41,3.08-1.43,1.38-8.68,3.62-9.64,7-2.84,4.63-6,3.82-10.73,2.7-4.69,3.13,2.88,6.36-1.54.58-2,.77,1.69,1.87,1.43,1.94.47,2.09-2,3.07-1.43,1.63.89,2.11-2.19,1.95-3.39,3.45.76,5-3.12,7.41-4.88,8.34-1.9,26.89-9.74,29.34,3.83-28.1,8.35-25,11.65,1.22,2.26,6.16,8.23,48,66.89,36.55,43.47-6.09-6.43-12.1-15.37-17.48-22.09,1.76-2.7,26-24.08,14.49-20.65-1.79-3,3.33-.88,3.72-2.7,1.44-2.15-.49-3.92,2.33-4.47,5.13-7.26-1.38-4,.08-7.66,6.29,4.08,5.29,2.86,12.05.08,2.41-1.1.82-5,4.51-4.05-.77,10.21,4.17-.41,5.57,8.43,2.68-.15,5.71.18,5.14-3.62,2.09.73,3.64,4,5.26.45,1.08-.53.12-2.86.89-2.85-1,2.26,1.56,5.71,3.15,2.4-2.16,5,6,1,8.46,2.42,1.14-1.2,4.34-1.45,6-1.21,1.27-.27,5.75-5,2.62-5,.34-3.67,3.07-8.13-1.21-10.08-2.6-2.5,1.75-2-1.2-7,3.21-3.34-3.33-5.37-.65-8.77,1.38-4.58,1.64-10.07-3-11.89-2.08-3.23-1.15-7.33-4.37-9.2-2.64-.12-1.29-.32-1.1-2.12,3-10.46-5.81,2.47-2,4.69,3.32.11,3.64,4.07,4.28,7,.88,2.35,3.48,2.54,3.61,4.82,2,1.1.17,3.21-.16,4.57,1.07.6.62,1.11-.06,2.12-.74,4.69,2.68,7.57,1.2,12.05,3.08,3.89-3.95,3.94,3.16,7.08-2,2,1.56,1.94-.09,4-1.68,4,.57,5.87-5.8,5.4-1.88,3.18-5.24-2.62-6.58,1-2-.59-.88.35-.64-1.31.68-1.56-2.82-1.19-3.53-1,0-7-5.6,1.17-6.79-.15-3.32-1-2.8,4.25-5.26,3.62.31-4.83-1.26-4.75-4.82-3.62,1.72-7.3-7.57-6.17-7.54-.44-.14,3-1.77-4-2.86-3.17-2.14-.39-2.64,1.72-3.77,2.72-.62,1.13,2.79,2.18,1.36,3-2.16-1.41-6.24-5.59-7.44-1.49-.58,1.2-3,1.14-2.41,3.62,1.9,2.86,6.87,1.73-.55,3.76-2.59,3.38,3.09,3-2.41,4.82-3.23.55-1.9,9.47,1.63,5.43.72.39-1.16,1-1.41,1.26-2.54,1.09-12.65,15.29-15,16.24-8.51-12.1-21.71-29.3-29.45-41.18-1.67-6.56,11.07-12.35,7.23-19.59,5.73-4.81-.3-5.09-.66-8.54,2.33-.74,2.42-6.65,2.42-9.19-3.31-1.47,2.13-5.84-.76-8-5.64,2.91-1.17-12.53.66-10.75.72-12.68-10.41,20.16-2.31,12.27,2.47-.25-.54,3.37-.32,4.5-2.06-.73-2.4.61-2.41,2,7.88,1.19.25,6.9,1.21,12.05,6.27,1.61-3.1,6.4.72,10.67-9,21.7-15.44-2.49-21.52-13.27-5.21-2.77-20.16-1.54-20.43-9.5-1.32-7.71-6.19-20.76.84-25.7,4.93,2.69,8.72,3.76,12.9,5.8,1.84.18,3.58-3.43,6.56-2.18,3.38-1.95,7.74-2,10.31-3.84,3.71,2.48,8.21.91,10.38-2.79-2.6-5.55.12-2.64,2.41-7.23-.39-2.24.88,0,2.2-.6,2.21-2.45,2.37-5,5.36-6.25,1.52-2.51,5.39-2.27,5.69-5.69,2.4,0,4.1-.9,3.62-3.73,2.61.13,5.58-.08,4.81-3.61,1.56,0,3.3,0,3.62-1.81.53-.82,2.92-.81,3.85-1.8.68,1.86,3.43,2.34,5.58,2.41,2.33.52,3.24-1.42,5.26-1.21.08,2.45,4.51,1.2,4.59-.61.32-2-2.66-3.76-.21-5.41,1.7-2.84,6-.33,8.43,0,1.53-1,2.88-2.25,4.82-2.41,3.86-2.81,9.12-6.88,14.8-6.11,4.48-2.65,8.95-4.62,14.12-4.74,4.25-4.32-4.44-2.49-5.88-.31-1.18-3.32-5.88,2-8.11,2.56-4.54-1.2-7.48,1.52-10.84,3.62a28.36,28.36,0,0,0-9.14,4.71c-11.4-5.67-8.37,7.08-17.19,7.33-1.9-.14-3.35-1.43-4.82-2.4-1.39-2.43-2.23-.07-3.49,1.2-2.61-.84-4.37-1.29-5.15,2.41-1.46.05-4.12,2-3.3,3.61-1-.16-3.5-.36-3.27,1.07-.82,2.16-2,2.55-3.62,4.51-.56,2.18-2.65,1-3.61,2.41-1.94,2.64-7.74,3.44-6.22,7.51-4.82-4-3.12,4.33-6.81,5.21-1.79,2.48.24,5.52-2.64,6.56-1.37,2.16-5.37-4.22-6.2-.86-3.4,2.67-9.8,2.6-13.83,4.92-4.36-4.43-.62-.49-7.36-1.21-2.46-4.13-10.89-1.4-7.25-8.69,1.24-8.9,5-17.54,9.58-25.14-.26-4.63-.32-4.85,4.38-4.56,4.15,6.42,16.16-2.93,20.79-3.61,5-3.54-5.8-1.79-1.2-4.82,2.29-2,1.95-4.9.76-7.68,10.16-6.26,1.87-10.55,1-16.51-3.59-3.64,2.72-4.35,3.61-7.36.88-2.13-2.55-2.18-3.39-3.26-.35-3.22-6.47-3.11-9.64-2.71,2-2.26,12.9-1,7.23-7.38.24-2.21,6.4,1,4.82-4.05-.46-.81.54-.31.89-.45-.47,3.2,3.41,3.82,4.82,2.41A4.86,4.86,0,0,0,366,392.7c.62-.56,6.42,1.14,5.58-1.21,1.25-.47.57,1.19,1.65,1.21,1.47,3.83,4.84.65,6.73,3.42,3.29,1.14,8.23-1.42,9.38.64,3.43,4.84,3.24-.89,5.58,2,6.29-1.31,6.51-4.68,14.46,0,2.48.44.14,6.75,3.61,6,2.2-2.11,4.31.75,7.23,0,4.12-4,7.25,3,8.43,6,2.06.45,4.69,3.89,6.7,4.6,3.4-.05,4.29,2.67,6,4.82,2.88.51,3.61,3.43,7,2.63-.23,2.46,1.87,4,3.61,4.82,2.65,3.16,9.52.56.32-1.52-.07-1.95-3-1.77-2.41-4.06-.93-1.48-3.55-.21-4.38-2-1.77-.56-4.17-1.23-4.28-3.39-1.91-2-5.05-3.19-7.45-3.84-4.73-2.8-3.88-8.61-8.43-9.63-1.34-1.62-7.95-2.23-8.31,0-1.26-1.78-3.26-1.43-4.5,0,.6-3.88-.62-5.49-3.84-7-6.5-2.19-9.09-1.84-13,.54-.57-1.68-3.67-.26-4.82-.76,0-1.22-5.16-4.05-5.13-1.21-4.35,1.23-6.37-3.69-9.77-1.2-1.35-2.11-1.87-4.26-5.14-3.62-4.6,4.61-6.16-4.38-10.84-3.61-2.31,1-.93-1.93-2.41-2.41-3-.79-6.36-1.24-3.61,2.73,2,1-4.24,1.93-2.86-.76-1.14-3-5.22,2.52-3.17,3.17,1,1.33,3.26,2.13,2.86,4.5-3.18.57-5.7-3.48-6.47,1.2-3.77,1.19-1.6,8.12,1.2,3.93,4.66-1.05,5.64,2.7,9.33,3.62,1.07,2-3.18,2.77-4.06,4.06-1.93,6.62,5.56,8.9,4.82,15.34-1,2.65-5.41,3.37-4.74,6.68.8,1,1.77,3.14.2,3.88-3.61,3.9-3.9,11.46-11.21,8.49-2.91,5.26-8.35-2-13.62-.06-5-9.86-32.41-20.32-18.77-33.77,29-19.52,31.81-59.36,56.66-83.16,5.57-5.75,14.29-9.53,21.27-13,4-.55,8.74,1.84,12.82,1.21,1.14,1.27.71,3,3.17,2.4,1.12,3.09-3,2.58-2.41,5.27,2.67,1.81.26,4.35,3.61,6,2.41,2.05.21,3.39.23,5.36,2.57.94,1.33,4.81,3.39,5,1,3.89,13.14,5,15.88,5.8,1.35,3.29,5.24,3,8.21,3.84.92,3.6,8.57,1.09,10.4,3.61,6.34,1.08,11,3.8,17.76,2.41,1,2.55,2.27,2.15,3.93,3.62,1.25.57,1.92,3.46,4.06,3.61.54,4.74,3.84,2.75,1.2,8.88,3.25,4.39,3.21,8.42,7.46,12.59,2.08.58,6.18,0,8.21.22-.21,2.11,2.85,1.23,3.48,0,2.65.17,3.65-4.52,6.92-3.61,4.51-5.27-5.62-1.07-6.58,1-.49-.22-1.81,2.05-1.65.76-.72-1.11-3.51-1-4.66-1.91-6.7,5.51-7.12-8.17-11-10.63,3.47-4.17-2.07-10.84-4.82-12.32-2.19-4.72-9.25-5.25-14.91-4.81-4.81-3.66-13-1.65-18.28-3.78-.57-3.11-4.38-2.31-7.22-2.4-1.16-4.67-2.74-2.74-5.58-3.62-4.41.3-7.52-2.31-11.29-3.17-1-3.39-3.55-5.14-2.41-9.32-4.07-4.87-2.28-6.36-2.41-13.26-1.21-1.24-2.75-.9-3.84-2.94-1.71-.53-6.53.37-7.76-1.43-6.92,1.18-2.1-2.55-.63-5.92,8.47-2.75,13.66-13.35,21.64-13.26,4.08-2.35,20.48.55,25.08-1,5.88-1.41,11.81-3.51,17.76-4.82,2.21,2.94,1.54,7-1.88,9.74-2,2.26-.15,10.08,2.88,5.24,1.21,4,2.09,7.47,4.73,10.26.77.41,1.37-1,1.94-1.15-.45,1.72,3.18,1.73,2.73,0,3.93,1.18-.19,7.22,6.91,7.23,2.24,4.24,9.81,2.31,12.81,6,1.18.76,1.69,3,4.06,2.4-.45,2.9,2.57,3.66,3.61,5.27,3.38,1.64,5.27,4.26,8,6.78,8.81-.78-2.22,8.55,3.08,13,1.31.52,1.82,3,2.19,4.28a35.23,35.23,0,0,0,3.17,3.18c3.08,1.79,5.07,6.19,5.26,10.08-2.87,4.88.16,5.34,3.16.69,1.17-2.18-1.9-2.88-1-5.36a16.47,16.47,0,0,1-2.64-5.36c-1.83-1.71-3.29-2.87-4.59-4.28-1-.4-1.4-4.82-2.73-2.41-.28,1.21-.43-1.13-.34-1.36-7.51-3.11,5.23-10.55-1.2-13.25.11-1.67-3.8.06-3.62-1.2-1.23-1.12-1.93-2.68-3.61-3.17-.9-2.81-4.78-2.83-6-5.27-1.52-1.11-.69-3.8-3.62-3.17a3.15,3.15,0,0,0-2.41-2.41c-2-3.41-7.71-2.23-11.11-4.64h0c-9.79-4-2.63-5.57-8.16-8.61-1.32-2.64-7,4.11-7.23-4.06-1.72-1-1-4.21-3.05-5.57-4.32,2.52-1.81-3.29.64-5.27,2.23-3.42.18-5.8.65-9.31,5-1.79,9.05-6.31,13.49-9.34,7.24-5.22,19.58-.7,25.62-6.65,8.38-11.51.57-22.72,1.85-34.79,1.22-6.34,2.48-7.77,8.67-4.42-1,4.44,2.56,6.68,2.41,10.29.57,2.1,1.9-1,2.63.54,1,.5,1.56,1.93,3.4,1.43,2.92,3,1.17.21,1.2,5.26,5.86,2.17,17.45-1,20,5.58,7.37.08,4.83,4.72,8.88,7.68-2.48,1.35.09,5.7-2.41,7.22-.63,3,1.64,3.54,2.63,5.36a13.29,13.29,0,0,1,2.19,6.69c4.86,8.7-9.58.23,6.78,18.83,3.2-2.54,19,13.42,16.87,6.92-2.74-.43-3.84-3.56-6.92-3.62-1.65-1.88-2.5-3.59-4.37-4.05-6.09-1-7.41-4.47-11.07-9-3-1.92,4.83-5.78-.53-13.47-1-1.58-1.54-5.66-4.06-6,1.32-1.21.83-3.48,1.65-4.5,1.85-.39-.13-1.74-.45-2.41,1.84.31,1.05-2.12,1.21-3.17-3.32-1.44-2.27-5.28-4.82-7.23-.73-1.61-3.33-.33-4.82-.76-.18-1.79-2.3-2.62-3.17-3.62-1.59-1.71-15.73.24-16.11-2.53,4.94-5.29-8-4.12-7.23-8.75-1.95-1.39-2.87-4.37-2.41-7.23-2.56-2.41-8.28-2.36-1.62-5.34,6.15-3.55,13.27-3.29,18.94-7.15,1.14-.69,3.6-6.68,5.48-5,2.49-1.09,5.94-2,8.53-2.94-.29-1.54,3.83,4.54,3.61.81.68,1.64,1.36,2.77,3.3,2.36-.25,1.73.45,2.1,1.21,2.85,2.57,2.57,0,3-1.21,4.82.53,2.28-.07,4.93,0,8.43,4.86,1.93-2.6,9.12,4.82,9.2.41,3,4.22,1.72,5.58,3.61,1-.1,7.64-3,7.9-.09-1.39,1.84-4.74,1.4-3.84,5.36,2,3.57,5.53,5,9.64,4.37,1.82,2.89,3.16,5.25,4.82,8,.35,1.77-1.19,6.42,2.41,5.26-.29,1.88.44,2.8,2.41,2.41-.42,1.37,5.77,5.27,4.91,2.32-1.77-1.51-2.7-2.56-4.15-3.84-1.37.15-1.94-.14-1.65-1.65-2.61-1.13-2.41-2.24-2.63-5.36-1-3.05-3.14-5-4.6-7.89-1.89-1.3-10.71-1.29-8.9-4.12-.15-1.56,6.62-5.78,2.88-6.28-.59-2.79-8.88-.45-10.85-1.2-.45-2.16-4.26-1.64-6-3.17-.56-1.94,3-5,.44-6.47-1.37-.06.5-2.81-1.65-2.41.26-3.64,1.36-7,3.62-8.88-1.59-.91-1.88-3.88-3.62-4.38.59-2.08-.86-2.75-2.7-2.4-.68-3.21-3.53-1.8-5.29-3.62-2.08,0-3.36,2-6,1.21-1.17.22-1.79,3-3.08,1.42.21-8.76,9.93-12.85,18.07-13.38,3.24-3.67,7.28-5.83,9.87-9,2.07-1.8,2.76-5.11,6.46-4.06,5.72-3.13,15.89-1.06,17.54,5.8,3,1.92,5.23,2.08,7.76,5.05,2.75.41,2.92,3.77,5.49,4.59,2.65-.2,2.77,3.27,5.8,2.63,1.1,2.62,1.86,4.6,4.82,5.27,3,1.82,7.69,2.2,10.85,3.17,1.08,1.39.76,4.18,3.61,3.61-.42,1.71,2,1.1,2.86,1.21,1.54,1,2.23,3.07,4.37,2.26.79,2.2,1.82,4.27,4.82,5a7.55,7.55,0,0,1,1.2,5.26c.25,2.12,5.87-.89,4.82,2.09-3.72,3.05,2.67,1.34,1.21,3.93-.72,2.58,2.07,1.9,3.61,2-.59,2,2.53.52,2.41,1.65,6.49,4.31,6,6.39,14.46,2-.51,1.35,1.34.87,1.21,1.65-.78,2.39,1.2,3.91,2.4,4.82,3.74,2.51,9,1,12.81,4.38,2.62,3.2,2.94,13.18,3.08,19.05,1.83,2.29.87,5.83,5,5,.52,1.36-1.42,1.66.76,2.86,1.4,1,.68,3.7,2,4.37.18,4.5,8.93,3.62,12.94,3.61.6,1,3.07,2.07,3.49.45,1.1-2.21,6.7,3.38,7.23-.45,1.58.92,2.1,2.7,4.06,2.42,2.44-1.46-2.23-2.54-3.08-3.71-2.16-1.3-2.14,1.37-3.84,1-4.3-3.72-14.08,2-18.83-3.17-1.73-3.55-2.06-9.06-7.23-10.08-2.27-12.39,1-25.24-14-26.51-6.85.49-3.7-4.67-6.47-6-1-3-5.81-.52-7.1,1.2-.74-2.74-1.32.11-2.54,0-1-3.14-4.9-4-7.23-5.26-2.5-1.45-2.56-1-2.63-4.29,1-1.44-1.35-1.36-2.19-1.29,1-3.34-2.94-2.26-4.82-2.41.81-8.24-3.68-3.42-4.37-9.64-2.11.77-1.89-2.5-3.91-2.35-2.32-.3-6.52-1.52-6.17-4.12-2-1.77-3.34-.16-.88-2.85,2.69-.9,5,2.27,6.45,0-.69,3.54,5.59,3.27,6.47.36,1.71,1.7,2.79-.54,3.3.08,1.55,1.51,4.59,2.27,7.37,2-1.67,5.12,4.11,4.19,5.33,1.2a6.46,6.46,0,0,0,6.58,2.41c.77,1.49,4.24,3.69,5.89,1.21,1.62.36,3.65,1.85,6.16,1.2.18.8,2.12,3.67,2.72,1.65.66-1.52.8.78,1.65.76a3.7,3.7,0,0,1,3.62,1.21c2.94-.72,5,.06,8.43,0,2.42-.58,2.12,2.73,4.51,2.41a48.41,48.41,0,0,1,7.83,4.76c3,.34,3.15,1.19,6.62.05,1.88,2.57,8.37-.06,9.2,2.86a9.93,9.93,0,0,0,3.61,1.82c-.43,2.08,3,.73,2.41,3,2.61,1.42,4.56,3.15,8,3.17,2.23-1.67,4.33,4,5.58,1.65.56-1.55.87.8,1.65.76,7.2-2.93,6.07-3.28,12.49,1.65a15.58,15.58,0,0,0,8.44,2c.34,2.5,3.45,2.62,4.81,3.62-.23,3.05,5,1.24,4.82,4.06,2.35,2.66,6.2-1.38,9.2-.45,4.18-3.62,14.65.81,19.72,0-.36,1.74,1.88.76,2.41,2-.21,2.06,2.5,2.32,2.41,4.51.95,1.32,2,2.32,4.06,2,.18.84,2.63,2.05,2.28.14,2.94-1.79,7.92-1.44,11.11-2.55C820.17,256.88,823.57,252.39,825.25,249.92Zm-266.92-660c0-.33-.2-1,.42-.84ZM238.41-345.79a9.84,9.84,0,0,0-1.79,2.18C234.55-343.91,238.37-346.68,238.41-345.79Zm26.15,86.52-1-1C264.41-260.62,266.57-258.91,264.56-259.27Zm.68,96.23c-.13.07-.95-.76-.88-.89C265.29-164,265.31-164,265.24-163Zm96.39,26.66c-.39.12-.17-.34-.26-.54A.55.55,0,0,1,361.63-136.38ZM497.77,47.05l-.75.75C496.61,48.06,498.08,46.21,497.77,47.05Zm2.41-1.52c0-.12-.81-.6-.44-.71C499.87,45,500.3,45.29,500.18,45.53Zm-163.64-53c-5,3.23-1.15-2.26.11-3.32C339.69-11.88,339.12-7,336.54-7.46ZM157.78-51.08l.53.26C158.1-50.89,157.66-50.69,157.78-51.08ZM94.16-129.15c-.52.32-.11-1.65-.24-1.72C94.31-130.79,94.12-129.39,94.16-129.15ZM138.5-27.94c0-3,1.64-1.4,2.87-.07C141.91-27.84,138.55-28,138.5-27.94Zm-41.61,6.6c-.21-.62.5-.37.83-.42Zm2.67-.73c-1-.08,1.2-1.25,1.78-.89Zm347.3,276.66c-.75,1-.54,0-.58-.58ZM325.23,349.83c0,.1,1.64,1.49,1.46,1.64C325.79,352,325.06,350.61,325.23,349.83ZM617.37,205.64c.17-.73.68-.47,1,0Z" style="fill: #0a3d75"/>
        </g>
      </g>
    </g>
  </g>
</svg>
